%TF.GenerationSoftware,KiCad,Pcbnew,5.0.2+dfsg1-1*%
%TF.CreationDate,2021-08-12T08:10:28+08:00*%
%TF.ProjectId,shell_1,7368656c-6c5f-4312-9e6b-696361645f70,rev?*%
%TF.SameCoordinates,Original*%
%TF.FileFunction,Profile,NP*%
%FSLAX46Y46*%
G04 Gerber Fmt 4.6, Leading zero omitted, Abs format (unit mm)*
G04 Created by KiCad (PCBNEW 5.0.2+dfsg1-1) date 2021年08月12日 星期四 08时10分28秒*
%MOMM*%
%LPD*%
G01*
G04 APERTURE LIST*
%ADD10C,0.050000*%
%ADD11C,0.100000*%
G04 APERTURE END LIST*
D10*
X197750000Y-103500000D02*
G75*
G03X197750000Y-103500000I-1250000J0D01*
G01*
X197750000Y-122000000D02*
G75*
G03X197750000Y-122000000I-1250000J0D01*
G01*
X104750000Y-122000000D02*
G75*
G03X104750000Y-122000000I-1250000J0D01*
G01*
X104750000Y-103500000D02*
G75*
G03X104750000Y-103500000I-1250000J0D01*
G01*
D11*
X189500000Y-110500000D02*
X189500000Y-118700000D01*
X178500000Y-110500000D02*
X189500000Y-110500000D01*
X178500000Y-118700000D02*
X178500000Y-110500000D01*
X189500000Y-118700000D02*
X178500000Y-118700000D01*
X176000000Y-114700000D02*
X176000000Y-118700000D01*
X166000000Y-114700000D02*
X176000000Y-114700000D01*
X166000000Y-114700000D02*
X166000000Y-118700000D01*
X176000000Y-118700000D02*
X166000000Y-118700000D01*
X140750000Y-105700000D02*
X151250000Y-105700000D01*
X140750000Y-116700000D02*
X140750000Y-105700000D01*
X151250000Y-116700000D02*
X140750000Y-116700000D01*
X151250000Y-105700000D02*
X151250000Y-116700000D01*
D10*
X162760000Y-112300000D02*
G75*
G03X162760000Y-112300000I-3500000J0D01*
G01*
X132000000Y-110700000D02*
X115000000Y-110700000D01*
X132000000Y-118700000D02*
X132000000Y-110700000D01*
X115000000Y-118700000D02*
X132000000Y-118700000D01*
X115000000Y-110700000D02*
X115000000Y-118700000D01*
X100000000Y-121500000D02*
G75*
G03X104000000Y-125500000I4000000J0D01*
G01*
X196000000Y-125500000D02*
G75*
G03X200000000Y-121500000I0J4000000D01*
G01*
X200000000Y-104000000D02*
G75*
G03X196000000Y-100000000I-4000000J0D01*
G01*
X104000000Y-100000000D02*
G75*
G03X100000000Y-104000000I0J-4000000D01*
G01*
X196000000Y-100000000D02*
X104000000Y-100000000D01*
X200000000Y-121500000D02*
X200000000Y-104000000D01*
X104000000Y-125500000D02*
X196000000Y-125500000D01*
X100000000Y-104000000D02*
X100000000Y-121500000D01*
M02*
