G04 #@! TF.GenerationSoftware,KiCad,Pcbnew,5.0.2+dfsg1-1*
G04 #@! TF.CreationDate,2020-12-14T19:14:29+08:00*
G04 #@! TF.ProjectId,digital-amplifier2,64696769-7461-46c2-9d61-6d706c696669,rev?*
G04 #@! TF.SameCoordinates,Original*
G04 #@! TF.FileFunction,Legend,Bot*
G04 #@! TF.FilePolarity,Positive*
%FSLAX46Y46*%
G04 Gerber Fmt 4.6, Leading zero omitted, Abs format (unit mm)*
G04 Created by KiCad (PCBNEW 5.0.2+dfsg1-1) date 2020年12月14日 星期一 19时14分29秒*
%MOMM*%
%LPD*%
G01*
G04 APERTURE LIST*
%ADD10C,0.152400*%
%ADD11C,0.120000*%
%ADD12C,0.150000*%
G04 APERTURE END LIST*
D10*
G04 #@! TO.C,U12*
X82034420Y-100863771D02*
X82034420Y-100609771D01*
X81653420Y-100863771D02*
X82034420Y-100863771D01*
X81653420Y-100609771D02*
X81653420Y-100863771D01*
X82034420Y-100609771D02*
X81653420Y-100609771D01*
X75684420Y-100863771D02*
X75684420Y-100609771D01*
X75303420Y-100863771D02*
X75684420Y-100863771D01*
X75303420Y-100609771D02*
X75303420Y-100863771D01*
X75684420Y-100609771D02*
X75303420Y-100609771D01*
X69334420Y-100863771D02*
X69334420Y-100609771D01*
X68953420Y-100863771D02*
X69334420Y-100863771D01*
X68953420Y-100609771D02*
X68953420Y-100863771D01*
X69334420Y-100609771D02*
X68953420Y-100609771D01*
X73779420Y-112741771D02*
X73779420Y-112995771D01*
X73398420Y-112741771D02*
X73779420Y-112741771D01*
X73398420Y-112995771D02*
X73398420Y-112741771D01*
X73779420Y-112995771D02*
X73398420Y-112995771D01*
X80129420Y-112741771D02*
X80129420Y-112995771D01*
X79748420Y-112741771D02*
X80129420Y-112741771D01*
X79748420Y-112995771D02*
X79748420Y-112741771D01*
X80129420Y-112995771D02*
X79748420Y-112995771D01*
X86196660Y-102880770D02*
X86478422Y-102880770D01*
X67966180Y-110724772D02*
X67684418Y-110724772D01*
X86478422Y-110724772D02*
X86196660Y-110724772D01*
X86478422Y-102880770D02*
X86478422Y-110724772D01*
X67684418Y-102880770D02*
X67966180Y-102880770D01*
X67684418Y-110724772D02*
X67684418Y-102880770D01*
D11*
G04 #@! TO.C,C39*
X92404000Y-110685078D02*
X92404000Y-110167922D01*
X90984000Y-110685078D02*
X90984000Y-110167922D01*
G04 #@! TO.C,C37*
X65076000Y-103055922D02*
X65076000Y-103573078D01*
X66496000Y-103055922D02*
X66496000Y-103573078D01*
G04 #@! TO.C,C34*
X64400500Y-103055922D02*
X64400500Y-103573078D01*
X62980500Y-103055922D02*
X62980500Y-103573078D01*
G04 #@! TO.C,C50*
X90118000Y-102293922D02*
X90118000Y-102811078D01*
X88698000Y-102293922D02*
X88698000Y-102811078D01*
G04 #@! TO.C,C41*
X90372000Y-110685078D02*
X90372000Y-110167922D01*
X88952000Y-110685078D02*
X88952000Y-110167922D01*
G04 #@! TO.C,D2*
X116424500Y-73849500D02*
X116424500Y-70549500D01*
X116424500Y-70549500D02*
X121824500Y-70549500D01*
X116424500Y-73849500D02*
X121824500Y-73849500D01*
G04 #@! TO.C,Q4*
X109301000Y-70146500D02*
X110801000Y-70146500D01*
X110801000Y-70146500D02*
X110801000Y-70416500D01*
X110801000Y-70416500D02*
X113631000Y-70416500D01*
X109301000Y-77046500D02*
X110801000Y-77046500D01*
X110801000Y-77046500D02*
X110801000Y-76776500D01*
X110801000Y-76776500D02*
X111901000Y-76776500D01*
G04 #@! TO.C,R37*
X119756422Y-69798000D02*
X120273578Y-69798000D01*
X119756422Y-68378000D02*
X120273578Y-68378000D01*
G04 #@! TO.C,R38*
X115628922Y-68378000D02*
X116146078Y-68378000D01*
X115628922Y-69798000D02*
X116146078Y-69798000D01*
D12*
G04 #@! TO.C,U13*
X126347220Y-133357620D02*
X126347220Y-115346480D01*
X126347220Y-115346480D02*
X140337540Y-115346480D01*
X140337540Y-115346480D02*
X140337540Y-133322060D01*
X140337540Y-133322060D02*
X126362460Y-133322060D01*
X125841760Y-133865620D02*
X125844300Y-133863080D01*
D11*
G04 #@! TO.C,C17*
X105287578Y-129719000D02*
X104770422Y-129719000D01*
X105287578Y-131139000D02*
X104770422Y-131139000D01*
G04 #@! TO.C,D4*
X125060500Y-69976000D02*
X130460500Y-69976000D01*
X125060500Y-66676000D02*
X130460500Y-66676000D01*
X125060500Y-69976000D02*
X125060500Y-66676000D01*
G04 #@! TO.C,D1*
X110362000Y-67598500D02*
X110362000Y-62198500D01*
X107062000Y-67598500D02*
X107062000Y-62198500D01*
X110362000Y-67598500D02*
X107062000Y-67598500D01*
G04 #@! TO.C,D3*
X125028500Y-74167000D02*
X125028500Y-70867000D01*
X125028500Y-70867000D02*
X130428500Y-70867000D01*
X125028500Y-74167000D02*
X130428500Y-74167000D01*
G04 #@! TO.C,C16*
X93574800Y-140212578D02*
X93574800Y-139695422D01*
X94994800Y-140212578D02*
X94994800Y-139695422D01*
G04 #@! TO.C,C1*
X120458300Y-119079778D02*
X120458300Y-118562622D01*
X119038300Y-119079778D02*
X119038300Y-118562622D01*
G04 #@! TO.C,C3*
X120282900Y-142930378D02*
X120282900Y-142413222D01*
X121702900Y-142930378D02*
X121702900Y-142413222D01*
G04 #@! TO.C,C4*
X122734000Y-142943078D02*
X122734000Y-142425922D01*
X124154000Y-142943078D02*
X124154000Y-142425922D01*
G04 #@! TO.C,C5*
X126567000Y-142955778D02*
X126567000Y-142438622D01*
X125147000Y-142955778D02*
X125147000Y-142438622D01*
G04 #@! TO.C,C9*
X111644500Y-53293778D02*
X111644500Y-52776622D01*
X110224500Y-53293778D02*
X110224500Y-52776622D01*
G04 #@! TO.C,C13*
X114444278Y-132513000D02*
X113927122Y-132513000D01*
X114444278Y-133933000D02*
X113927122Y-133933000D01*
G04 #@! TO.C,C15*
X112660500Y-140149078D02*
X112660500Y-139631922D01*
X111240500Y-140149078D02*
X111240500Y-139631922D01*
G04 #@! TO.C,C27*
X90857000Y-102293922D02*
X90857000Y-102811078D01*
X92277000Y-102293922D02*
X92277000Y-102811078D01*
G04 #@! TO.C,C14*
X114444278Y-131875600D02*
X113927122Y-131875600D01*
X114444278Y-130455600D02*
X113927122Y-130455600D01*
G04 #@! TO.C,C124*
X94082131Y-72764840D02*
X94082131Y-73281996D01*
X92662131Y-72764840D02*
X92662131Y-73281996D01*
G04 #@! TO.C,C87*
X82829942Y-118481897D02*
X83347098Y-118481897D01*
X82829942Y-117061897D02*
X83347098Y-117061897D01*
G04 #@! TO.C,C88*
X82855342Y-115055297D02*
X83372498Y-115055297D01*
X82855342Y-116475297D02*
X83372498Y-116475297D01*
G04 #@! TO.C,C108*
X72666553Y-83870418D02*
X73183709Y-83870418D01*
X72666553Y-85290418D02*
X73183709Y-85290418D01*
G04 #@! TO.C,C109*
X55113422Y-85292000D02*
X55630578Y-85292000D01*
X55113422Y-83872000D02*
X55630578Y-83872000D01*
G04 #@! TO.C,C123*
X99225631Y-73281996D02*
X99225631Y-72764840D01*
X97805631Y-73281996D02*
X97805631Y-72764840D01*
G04 #@! TO.C,C122*
X82271131Y-72764840D02*
X82271131Y-73281996D01*
X80851131Y-72764840D02*
X80851131Y-73281996D01*
G04 #@! TO.C,C121*
X87224131Y-73218496D02*
X87224131Y-72701340D01*
X85804131Y-73218496D02*
X85804131Y-72701340D01*
G04 #@! TO.C,C120*
X70460131Y-72764840D02*
X70460131Y-73281996D01*
X69040131Y-72764840D02*
X69040131Y-73281996D01*
G04 #@! TO.C,C119*
X75413131Y-73345496D02*
X75413131Y-72828340D01*
X73993131Y-73345496D02*
X73993131Y-72828340D01*
G04 #@! TO.C,C118*
X58776131Y-72637840D02*
X58776131Y-73154996D01*
X57356131Y-72637840D02*
X57356131Y-73154996D01*
G04 #@! TO.C,C117*
X63665631Y-73154996D02*
X63665631Y-72637840D01*
X62245631Y-73154996D02*
X62245631Y-72637840D01*
G04 #@! TO.C,C115*
X80248453Y-85341218D02*
X80765609Y-85341218D01*
X80248453Y-83921218D02*
X80765609Y-83921218D01*
G04 #@! TO.C,C114*
X94737422Y-83999000D02*
X95254578Y-83999000D01*
X94737422Y-85419000D02*
X95254578Y-85419000D01*
G04 #@! TO.C,L11*
X83757402Y-87732325D02*
X82057402Y-87732325D01*
X83757402Y-94332325D02*
X83757402Y-87732325D01*
X82057402Y-94332325D02*
X83757402Y-94332325D01*
X77357402Y-94332325D02*
X79057402Y-94332325D01*
X77357402Y-87732325D02*
X77357402Y-94332325D01*
X79057402Y-87732325D02*
X77357402Y-87732325D01*
G04 #@! TO.C,L8*
X57104546Y-87732325D02*
X55404546Y-87732325D01*
X55404546Y-87732325D02*
X55404546Y-94332325D01*
X55404546Y-94332325D02*
X57104546Y-94332325D01*
X60104546Y-94332325D02*
X61804546Y-94332325D01*
X61804546Y-94332325D02*
X61804546Y-87732325D01*
X61804546Y-87732325D02*
X60104546Y-87732325D01*
G04 #@! TO.C,L7*
X94733830Y-87732325D02*
X93033830Y-87732325D01*
X94733830Y-94332325D02*
X94733830Y-87732325D01*
X93033830Y-94332325D02*
X94733830Y-94332325D01*
X88333830Y-94332325D02*
X90033830Y-94332325D01*
X88333830Y-87732325D02*
X88333830Y-94332325D01*
X90033830Y-87732325D02*
X88333830Y-87732325D01*
G04 #@! TO.C,L4*
X68080974Y-87732325D02*
X66380974Y-87732325D01*
X66380974Y-87732325D02*
X66380974Y-94332325D01*
X66380974Y-94332325D02*
X68080974Y-94332325D01*
X71080974Y-94332325D02*
X72780974Y-94332325D01*
X72780974Y-94332325D02*
X72780974Y-87732325D01*
X72780974Y-87732325D02*
X71080974Y-87732325D01*
G04 #@! TO.C,R13*
X95810000Y-139695422D02*
X95810000Y-140212578D01*
X97230000Y-139695422D02*
X97230000Y-140212578D01*
G04 #@! TO.C,R14*
X91263400Y-140187178D02*
X91263400Y-139670022D01*
X92683400Y-140187178D02*
X92683400Y-139670022D01*
G04 #@! TO.C,R15*
X90219600Y-140161778D02*
X90219600Y-139644622D01*
X88799600Y-140161778D02*
X88799600Y-139644622D01*
G04 #@! TO.C,R16*
X98858000Y-140149078D02*
X98858000Y-139631922D01*
X100278000Y-140149078D02*
X100278000Y-139631922D01*
G04 #@! TO.C,R4*
X57526422Y-122480000D02*
X58043578Y-122480000D01*
X57526422Y-123900000D02*
X58043578Y-123900000D01*
G04 #@! TO.C,R6*
X112193000Y-53281078D02*
X112193000Y-52763922D01*
X113613000Y-53281078D02*
X113613000Y-52763922D01*
G04 #@! TO.C,R3*
X57780422Y-128195000D02*
X58297578Y-128195000D01*
X57780422Y-129615000D02*
X58297578Y-129615000D01*
G04 #@! TO.C,U12*
D12*
X65746380Y-105695904D02*
X66555904Y-105695904D01*
X66651142Y-105743523D01*
X66698761Y-105791142D01*
X66746380Y-105886380D01*
X66746380Y-106076857D01*
X66698761Y-106172095D01*
X66651142Y-106219714D01*
X66555904Y-106267333D01*
X65746380Y-106267333D01*
X66746380Y-107267333D02*
X66746380Y-106695904D01*
X66746380Y-106981619D02*
X65746380Y-106981619D01*
X65889238Y-106886380D01*
X65984476Y-106791142D01*
X66032095Y-106695904D01*
X65841619Y-107648285D02*
X65794000Y-107695904D01*
X65746380Y-107791142D01*
X65746380Y-108029238D01*
X65794000Y-108124476D01*
X65841619Y-108172095D01*
X65936857Y-108219714D01*
X66032095Y-108219714D01*
X66174952Y-108172095D01*
X66746380Y-107600666D01*
X66746380Y-108219714D01*
X83477857Y-106132380D02*
X82906428Y-106132380D01*
X83192142Y-107132380D02*
X83192142Y-106132380D01*
X82620714Y-106846666D02*
X82144523Y-106846666D01*
X82715952Y-107132380D02*
X82382619Y-106132380D01*
X82049285Y-107132380D01*
X81763571Y-107084761D02*
X81620714Y-107132380D01*
X81382619Y-107132380D01*
X81287380Y-107084761D01*
X81239761Y-107037142D01*
X81192142Y-106941904D01*
X81192142Y-106846666D01*
X81239761Y-106751428D01*
X81287380Y-106703809D01*
X81382619Y-106656190D01*
X81573095Y-106608571D01*
X81668333Y-106560952D01*
X81715952Y-106513333D01*
X81763571Y-106418095D01*
X81763571Y-106322857D01*
X81715952Y-106227619D01*
X81668333Y-106180000D01*
X81573095Y-106132380D01*
X81335000Y-106132380D01*
X81192142Y-106180000D01*
X80335000Y-106132380D02*
X80525476Y-106132380D01*
X80620714Y-106180000D01*
X80668333Y-106227619D01*
X80763571Y-106370476D01*
X80811190Y-106560952D01*
X80811190Y-106941904D01*
X80763571Y-107037142D01*
X80715952Y-107084761D01*
X80620714Y-107132380D01*
X80430238Y-107132380D01*
X80335000Y-107084761D01*
X80287380Y-107037142D01*
X80239761Y-106941904D01*
X80239761Y-106703809D01*
X80287380Y-106608571D01*
X80335000Y-106560952D01*
X80430238Y-106513333D01*
X80620714Y-106513333D01*
X80715952Y-106560952D01*
X80763571Y-106608571D01*
X80811190Y-106703809D01*
X79382619Y-106465714D02*
X79382619Y-107132380D01*
X79620714Y-106084761D02*
X79858809Y-106799047D01*
X79239761Y-106799047D01*
X78906428Y-106227619D02*
X78858809Y-106180000D01*
X78763571Y-106132380D01*
X78525476Y-106132380D01*
X78430238Y-106180000D01*
X78382619Y-106227619D01*
X78335000Y-106322857D01*
X78335000Y-106418095D01*
X78382619Y-106560952D01*
X78954047Y-107132380D01*
X78335000Y-107132380D01*
X77477857Y-106465714D02*
X77477857Y-107132380D01*
X77715952Y-106084761D02*
X77954047Y-106799047D01*
X77335000Y-106799047D01*
X76287380Y-107227619D02*
X76382619Y-107180000D01*
X76477857Y-107084761D01*
X76620714Y-106941904D01*
X76715952Y-106894285D01*
X76811190Y-106894285D01*
X76763571Y-107132380D02*
X76858809Y-107084761D01*
X76954047Y-106989523D01*
X77001666Y-106799047D01*
X77001666Y-106465714D01*
X76954047Y-106275238D01*
X76858809Y-106180000D01*
X76763571Y-106132380D01*
X76573095Y-106132380D01*
X76477857Y-106180000D01*
X76382619Y-106275238D01*
X76335000Y-106465714D01*
X76335000Y-106799047D01*
X76382619Y-106989523D01*
X76477857Y-107084761D01*
X76573095Y-107132380D01*
X76763571Y-107132380D01*
X75906428Y-107132380D02*
X75906428Y-106132380D01*
X75668333Y-106132380D01*
X75525476Y-106180000D01*
X75430238Y-106275238D01*
X75382619Y-106370476D01*
X75335000Y-106560952D01*
X75335000Y-106703809D01*
X75382619Y-106894285D01*
X75430238Y-106989523D01*
X75525476Y-107084761D01*
X75668333Y-107132380D01*
X75906428Y-107132380D01*
X74906428Y-107132380D02*
X74906428Y-106132380D01*
X74335000Y-107132380D02*
X74763571Y-106560952D01*
X74335000Y-106132380D02*
X74906428Y-106703809D01*
X73239761Y-107227619D02*
X73335000Y-107180000D01*
X73430238Y-107084761D01*
X73573095Y-106941904D01*
X73668333Y-106894285D01*
X73763571Y-106894285D01*
X73715952Y-107132380D02*
X73811190Y-107084761D01*
X73906428Y-106989523D01*
X73954047Y-106799047D01*
X73954047Y-106465714D01*
X73906428Y-106275238D01*
X73811190Y-106180000D01*
X73715952Y-106132380D01*
X73525476Y-106132380D01*
X73430238Y-106180000D01*
X73335000Y-106275238D01*
X73287380Y-106465714D01*
X73287380Y-106799047D01*
X73335000Y-106989523D01*
X73430238Y-107084761D01*
X73525476Y-107132380D01*
X73715952Y-107132380D01*
X72287380Y-107132380D02*
X72620714Y-106656190D01*
X72858809Y-107132380D02*
X72858809Y-106132380D01*
X72477857Y-106132380D01*
X72382619Y-106180000D01*
X72335000Y-106227619D01*
X72287380Y-106322857D01*
X72287380Y-106465714D01*
X72335000Y-106560952D01*
X72382619Y-106608571D01*
X72477857Y-106656190D01*
X72858809Y-106656190D01*
X71192142Y-107227619D02*
X71287380Y-107180000D01*
X71382619Y-107084761D01*
X71525476Y-106941904D01*
X71620714Y-106894285D01*
X71715952Y-106894285D01*
X71668333Y-107132380D02*
X71763571Y-107084761D01*
X71858809Y-106989523D01*
X71906428Y-106799047D01*
X71906428Y-106465714D01*
X71858809Y-106275238D01*
X71763571Y-106180000D01*
X71668333Y-106132380D01*
X71477857Y-106132380D01*
X71382619Y-106180000D01*
X71287380Y-106275238D01*
X71239761Y-106465714D01*
X71239761Y-106799047D01*
X71287380Y-106989523D01*
X71382619Y-107084761D01*
X71477857Y-107132380D01*
X71668333Y-107132380D01*
X70287380Y-107132380D02*
X70858809Y-107132380D01*
X70573095Y-107132380D02*
X70573095Y-106132380D01*
X70668333Y-106275238D01*
X70763571Y-106370476D01*
X70858809Y-106418095D01*
X86669300Y-111796770D02*
X86907396Y-111796770D01*
X86812158Y-111558674D02*
X86907396Y-111796770D01*
X86812158Y-112034865D01*
X87097872Y-111653912D02*
X86907396Y-111796770D01*
X87097872Y-111939627D01*
X86669300Y-111796770D02*
X86907396Y-111796770D01*
X86812158Y-111558674D02*
X86907396Y-111796770D01*
X86812158Y-112034865D01*
X87097872Y-111653912D02*
X86907396Y-111796770D01*
X87097872Y-111939627D01*
G04 #@! TO.C,C39*
X93956142Y-109847142D02*
X94003761Y-109799523D01*
X94051380Y-109656666D01*
X94051380Y-109561428D01*
X94003761Y-109418571D01*
X93908523Y-109323333D01*
X93813285Y-109275714D01*
X93622809Y-109228095D01*
X93479952Y-109228095D01*
X93289476Y-109275714D01*
X93194238Y-109323333D01*
X93099000Y-109418571D01*
X93051380Y-109561428D01*
X93051380Y-109656666D01*
X93099000Y-109799523D01*
X93146619Y-109847142D01*
X93051380Y-110180476D02*
X93051380Y-110799523D01*
X93432333Y-110466190D01*
X93432333Y-110609047D01*
X93479952Y-110704285D01*
X93527571Y-110751904D01*
X93622809Y-110799523D01*
X93860904Y-110799523D01*
X93956142Y-110751904D01*
X94003761Y-110704285D01*
X94051380Y-110609047D01*
X94051380Y-110323333D01*
X94003761Y-110228095D01*
X93956142Y-110180476D01*
X94051380Y-111275714D02*
X94051380Y-111466190D01*
X94003761Y-111561428D01*
X93956142Y-111609047D01*
X93813285Y-111704285D01*
X93622809Y-111751904D01*
X93241857Y-111751904D01*
X93146619Y-111704285D01*
X93099000Y-111656666D01*
X93051380Y-111561428D01*
X93051380Y-111370952D01*
X93099000Y-111275714D01*
X93146619Y-111228095D01*
X93241857Y-111180476D01*
X93479952Y-111180476D01*
X93575190Y-111228095D01*
X93622809Y-111275714D01*
X93670428Y-111370952D01*
X93670428Y-111561428D01*
X93622809Y-111656666D01*
X93575190Y-111704285D01*
X93479952Y-111751904D01*
G04 #@! TO.C,C37*
X66143142Y-99052142D02*
X66190761Y-99004523D01*
X66238380Y-98861666D01*
X66238380Y-98766428D01*
X66190761Y-98623571D01*
X66095523Y-98528333D01*
X66000285Y-98480714D01*
X65809809Y-98433095D01*
X65666952Y-98433095D01*
X65476476Y-98480714D01*
X65381238Y-98528333D01*
X65286000Y-98623571D01*
X65238380Y-98766428D01*
X65238380Y-98861666D01*
X65286000Y-99004523D01*
X65333619Y-99052142D01*
X65238380Y-99385476D02*
X65238380Y-100004523D01*
X65619333Y-99671190D01*
X65619333Y-99814047D01*
X65666952Y-99909285D01*
X65714571Y-99956904D01*
X65809809Y-100004523D01*
X66047904Y-100004523D01*
X66143142Y-99956904D01*
X66190761Y-99909285D01*
X66238380Y-99814047D01*
X66238380Y-99528333D01*
X66190761Y-99433095D01*
X66143142Y-99385476D01*
X65238380Y-100337857D02*
X65238380Y-101004523D01*
X66238380Y-100575952D01*
G04 #@! TO.C,C34*
X62397642Y-102671642D02*
X62445261Y-102624023D01*
X62492880Y-102481166D01*
X62492880Y-102385928D01*
X62445261Y-102243071D01*
X62350023Y-102147833D01*
X62254785Y-102100214D01*
X62064309Y-102052595D01*
X61921452Y-102052595D01*
X61730976Y-102100214D01*
X61635738Y-102147833D01*
X61540500Y-102243071D01*
X61492880Y-102385928D01*
X61492880Y-102481166D01*
X61540500Y-102624023D01*
X61588119Y-102671642D01*
X61492880Y-103004976D02*
X61492880Y-103624023D01*
X61873833Y-103290690D01*
X61873833Y-103433547D01*
X61921452Y-103528785D01*
X61969071Y-103576404D01*
X62064309Y-103624023D01*
X62302404Y-103624023D01*
X62397642Y-103576404D01*
X62445261Y-103528785D01*
X62492880Y-103433547D01*
X62492880Y-103147833D01*
X62445261Y-103052595D01*
X62397642Y-103004976D01*
X61826214Y-104481166D02*
X62492880Y-104481166D01*
X61445261Y-104243071D02*
X62159547Y-104004976D01*
X62159547Y-104624023D01*
G04 #@! TO.C,C50*
X88115142Y-101909642D02*
X88162761Y-101862023D01*
X88210380Y-101719166D01*
X88210380Y-101623928D01*
X88162761Y-101481071D01*
X88067523Y-101385833D01*
X87972285Y-101338214D01*
X87781809Y-101290595D01*
X87638952Y-101290595D01*
X87448476Y-101338214D01*
X87353238Y-101385833D01*
X87258000Y-101481071D01*
X87210380Y-101623928D01*
X87210380Y-101719166D01*
X87258000Y-101862023D01*
X87305619Y-101909642D01*
X87210380Y-102814404D02*
X87210380Y-102338214D01*
X87686571Y-102290595D01*
X87638952Y-102338214D01*
X87591333Y-102433452D01*
X87591333Y-102671547D01*
X87638952Y-102766785D01*
X87686571Y-102814404D01*
X87781809Y-102862023D01*
X88019904Y-102862023D01*
X88115142Y-102814404D01*
X88162761Y-102766785D01*
X88210380Y-102671547D01*
X88210380Y-102433452D01*
X88162761Y-102338214D01*
X88115142Y-102290595D01*
X87210380Y-103481071D02*
X87210380Y-103576309D01*
X87258000Y-103671547D01*
X87305619Y-103719166D01*
X87400857Y-103766785D01*
X87591333Y-103814404D01*
X87829428Y-103814404D01*
X88019904Y-103766785D01*
X88115142Y-103719166D01*
X88162761Y-103671547D01*
X88210380Y-103576309D01*
X88210380Y-103481071D01*
X88162761Y-103385833D01*
X88115142Y-103338214D01*
X88019904Y-103290595D01*
X87829428Y-103242976D01*
X87591333Y-103242976D01*
X87400857Y-103290595D01*
X87305619Y-103338214D01*
X87258000Y-103385833D01*
X87210380Y-103481071D01*
G04 #@! TO.C,C41*
X88241142Y-109593142D02*
X88288761Y-109545523D01*
X88336380Y-109402666D01*
X88336380Y-109307428D01*
X88288761Y-109164571D01*
X88193523Y-109069333D01*
X88098285Y-109021714D01*
X87907809Y-108974095D01*
X87764952Y-108974095D01*
X87574476Y-109021714D01*
X87479238Y-109069333D01*
X87384000Y-109164571D01*
X87336380Y-109307428D01*
X87336380Y-109402666D01*
X87384000Y-109545523D01*
X87431619Y-109593142D01*
X87669714Y-110450285D02*
X88336380Y-110450285D01*
X87288761Y-110212190D02*
X88003047Y-109974095D01*
X88003047Y-110593142D01*
X88336380Y-111497904D02*
X88336380Y-110926476D01*
X88336380Y-111212190D02*
X87336380Y-111212190D01*
X87479238Y-111116952D01*
X87574476Y-111021714D01*
X87622095Y-110926476D01*
G04 #@! TO.C,D2*
X120562595Y-75151880D02*
X120562595Y-74151880D01*
X120324500Y-74151880D01*
X120181642Y-74199500D01*
X120086404Y-74294738D01*
X120038785Y-74389976D01*
X119991166Y-74580452D01*
X119991166Y-74723309D01*
X120038785Y-74913785D01*
X120086404Y-75009023D01*
X120181642Y-75104261D01*
X120324500Y-75151880D01*
X120562595Y-75151880D01*
X119610214Y-74247119D02*
X119562595Y-74199500D01*
X119467357Y-74151880D01*
X119229261Y-74151880D01*
X119134023Y-74199500D01*
X119086404Y-74247119D01*
X119038785Y-74342357D01*
X119038785Y-74437595D01*
X119086404Y-74580452D01*
X119657833Y-75151880D01*
X119038785Y-75151880D01*
G04 #@! TO.C,Q4*
X108426238Y-69644119D02*
X108521476Y-69596500D01*
X108616714Y-69501261D01*
X108759571Y-69358404D01*
X108854809Y-69310785D01*
X108950047Y-69310785D01*
X108902428Y-69548880D02*
X108997666Y-69501261D01*
X109092904Y-69406023D01*
X109140523Y-69215547D01*
X109140523Y-68882214D01*
X109092904Y-68691738D01*
X108997666Y-68596500D01*
X108902428Y-68548880D01*
X108711952Y-68548880D01*
X108616714Y-68596500D01*
X108521476Y-68691738D01*
X108473857Y-68882214D01*
X108473857Y-69215547D01*
X108521476Y-69406023D01*
X108616714Y-69501261D01*
X108711952Y-69548880D01*
X108902428Y-69548880D01*
X107616714Y-68882214D02*
X107616714Y-69548880D01*
X107854809Y-68501261D02*
X108092904Y-69215547D01*
X107473857Y-69215547D01*
G04 #@! TO.C,R37*
X120657857Y-71190380D02*
X120991190Y-70714190D01*
X121229285Y-71190380D02*
X121229285Y-70190380D01*
X120848333Y-70190380D01*
X120753095Y-70238000D01*
X120705476Y-70285619D01*
X120657857Y-70380857D01*
X120657857Y-70523714D01*
X120705476Y-70618952D01*
X120753095Y-70666571D01*
X120848333Y-70714190D01*
X121229285Y-70714190D01*
X120324523Y-70190380D02*
X119705476Y-70190380D01*
X120038809Y-70571333D01*
X119895952Y-70571333D01*
X119800714Y-70618952D01*
X119753095Y-70666571D01*
X119705476Y-70761809D01*
X119705476Y-70999904D01*
X119753095Y-71095142D01*
X119800714Y-71142761D01*
X119895952Y-71190380D01*
X120181666Y-71190380D01*
X120276904Y-71142761D01*
X120324523Y-71095142D01*
X119372142Y-70190380D02*
X118705476Y-70190380D01*
X119134047Y-71190380D01*
G04 #@! TO.C,R38*
X116530357Y-71190380D02*
X116863690Y-70714190D01*
X117101785Y-71190380D02*
X117101785Y-70190380D01*
X116720833Y-70190380D01*
X116625595Y-70238000D01*
X116577976Y-70285619D01*
X116530357Y-70380857D01*
X116530357Y-70523714D01*
X116577976Y-70618952D01*
X116625595Y-70666571D01*
X116720833Y-70714190D01*
X117101785Y-70714190D01*
X116197023Y-70190380D02*
X115577976Y-70190380D01*
X115911309Y-70571333D01*
X115768452Y-70571333D01*
X115673214Y-70618952D01*
X115625595Y-70666571D01*
X115577976Y-70761809D01*
X115577976Y-70999904D01*
X115625595Y-71095142D01*
X115673214Y-71142761D01*
X115768452Y-71190380D01*
X116054166Y-71190380D01*
X116149404Y-71142761D01*
X116197023Y-71095142D01*
X115006547Y-70618952D02*
X115101785Y-70571333D01*
X115149404Y-70523714D01*
X115197023Y-70428476D01*
X115197023Y-70380857D01*
X115149404Y-70285619D01*
X115101785Y-70238000D01*
X115006547Y-70190380D01*
X114816071Y-70190380D01*
X114720833Y-70238000D01*
X114673214Y-70285619D01*
X114625595Y-70380857D01*
X114625595Y-70428476D01*
X114673214Y-70523714D01*
X114720833Y-70571333D01*
X114816071Y-70618952D01*
X115006547Y-70618952D01*
X115101785Y-70666571D01*
X115149404Y-70714190D01*
X115197023Y-70809428D01*
X115197023Y-70999904D01*
X115149404Y-71095142D01*
X115101785Y-71142761D01*
X115006547Y-71190380D01*
X114816071Y-71190380D01*
X114720833Y-71142761D01*
X114673214Y-71095142D01*
X114625595Y-70999904D01*
X114625595Y-70809428D01*
X114673214Y-70714190D01*
X114720833Y-70666571D01*
X114816071Y-70618952D01*
G04 #@! TO.C,U13*
X127598015Y-135012180D02*
X127598015Y-135821704D01*
X127550396Y-135916942D01*
X127502777Y-135964561D01*
X127407539Y-136012180D01*
X127217062Y-136012180D01*
X127121824Y-135964561D01*
X127074205Y-135916942D01*
X127026586Y-135821704D01*
X127026586Y-135012180D01*
X126026586Y-136012180D02*
X126598015Y-136012180D01*
X126312300Y-136012180D02*
X126312300Y-135012180D01*
X126407539Y-135155038D01*
X126502777Y-135250276D01*
X126598015Y-135297895D01*
X125693253Y-135012180D02*
X125074205Y-135012180D01*
X125407539Y-135393133D01*
X125264681Y-135393133D01*
X125169443Y-135440752D01*
X125121824Y-135488371D01*
X125074205Y-135583609D01*
X125074205Y-135821704D01*
X125121824Y-135916942D01*
X125169443Y-135964561D01*
X125264681Y-136012180D01*
X125550396Y-136012180D01*
X125645634Y-135964561D01*
X125693253Y-135916942D01*
G04 #@! TO.C,C17*
X105671857Y-129136142D02*
X105719476Y-129183761D01*
X105862333Y-129231380D01*
X105957571Y-129231380D01*
X106100428Y-129183761D01*
X106195666Y-129088523D01*
X106243285Y-128993285D01*
X106290904Y-128802809D01*
X106290904Y-128659952D01*
X106243285Y-128469476D01*
X106195666Y-128374238D01*
X106100428Y-128279000D01*
X105957571Y-128231380D01*
X105862333Y-128231380D01*
X105719476Y-128279000D01*
X105671857Y-128326619D01*
X104719476Y-129231380D02*
X105290904Y-129231380D01*
X105005190Y-129231380D02*
X105005190Y-128231380D01*
X105100428Y-128374238D01*
X105195666Y-128469476D01*
X105290904Y-128517095D01*
X104386142Y-128231380D02*
X103719476Y-128231380D01*
X104148047Y-129231380D01*
G04 #@! TO.C,D4*
X129198595Y-71278380D02*
X129198595Y-70278380D01*
X128960500Y-70278380D01*
X128817642Y-70326000D01*
X128722404Y-70421238D01*
X128674785Y-70516476D01*
X128627166Y-70706952D01*
X128627166Y-70849809D01*
X128674785Y-71040285D01*
X128722404Y-71135523D01*
X128817642Y-71230761D01*
X128960500Y-71278380D01*
X129198595Y-71278380D01*
X127770023Y-70611714D02*
X127770023Y-71278380D01*
X128008119Y-70230761D02*
X128246214Y-70945047D01*
X127627166Y-70945047D01*
G04 #@! TO.C,D1*
X111664380Y-63460404D02*
X110664380Y-63460404D01*
X110664380Y-63698500D01*
X110712000Y-63841357D01*
X110807238Y-63936595D01*
X110902476Y-63984214D01*
X111092952Y-64031833D01*
X111235809Y-64031833D01*
X111426285Y-63984214D01*
X111521523Y-63936595D01*
X111616761Y-63841357D01*
X111664380Y-63698500D01*
X111664380Y-63460404D01*
X111664380Y-64984214D02*
X111664380Y-64412785D01*
X111664380Y-64698500D02*
X110664380Y-64698500D01*
X110807238Y-64603261D01*
X110902476Y-64508023D01*
X110950095Y-64412785D01*
G04 #@! TO.C,D3*
X129166595Y-75469380D02*
X129166595Y-74469380D01*
X128928500Y-74469380D01*
X128785642Y-74517000D01*
X128690404Y-74612238D01*
X128642785Y-74707476D01*
X128595166Y-74897952D01*
X128595166Y-75040809D01*
X128642785Y-75231285D01*
X128690404Y-75326523D01*
X128785642Y-75421761D01*
X128928500Y-75469380D01*
X129166595Y-75469380D01*
X128261833Y-74469380D02*
X127642785Y-74469380D01*
X127976119Y-74850333D01*
X127833261Y-74850333D01*
X127738023Y-74897952D01*
X127690404Y-74945571D01*
X127642785Y-75040809D01*
X127642785Y-75278904D01*
X127690404Y-75374142D01*
X127738023Y-75421761D01*
X127833261Y-75469380D01*
X128118976Y-75469380D01*
X128214214Y-75421761D01*
X128261833Y-75374142D01*
G04 #@! TO.C,C16*
X94464142Y-136009142D02*
X94511761Y-135961523D01*
X94559380Y-135818666D01*
X94559380Y-135723428D01*
X94511761Y-135580571D01*
X94416523Y-135485333D01*
X94321285Y-135437714D01*
X94130809Y-135390095D01*
X93987952Y-135390095D01*
X93797476Y-135437714D01*
X93702238Y-135485333D01*
X93607000Y-135580571D01*
X93559380Y-135723428D01*
X93559380Y-135818666D01*
X93607000Y-135961523D01*
X93654619Y-136009142D01*
X94559380Y-136961523D02*
X94559380Y-136390095D01*
X94559380Y-136675809D02*
X93559380Y-136675809D01*
X93702238Y-136580571D01*
X93797476Y-136485333D01*
X93845095Y-136390095D01*
X93559380Y-137818666D02*
X93559380Y-137628190D01*
X93607000Y-137532952D01*
X93654619Y-137485333D01*
X93797476Y-137390095D01*
X93987952Y-137342476D01*
X94368904Y-137342476D01*
X94464142Y-137390095D01*
X94511761Y-137437714D01*
X94559380Y-137532952D01*
X94559380Y-137723428D01*
X94511761Y-137818666D01*
X94464142Y-137866285D01*
X94368904Y-137913904D01*
X94130809Y-137913904D01*
X94035571Y-137866285D01*
X93987952Y-137818666D01*
X93940333Y-137723428D01*
X93940333Y-137532952D01*
X93987952Y-137437714D01*
X94035571Y-137390095D01*
X94130809Y-137342476D01*
G04 #@! TO.C,C1*
X121755442Y-118654533D02*
X121803061Y-118606914D01*
X121850680Y-118464057D01*
X121850680Y-118368819D01*
X121803061Y-118225961D01*
X121707823Y-118130723D01*
X121612585Y-118083104D01*
X121422109Y-118035485D01*
X121279252Y-118035485D01*
X121088776Y-118083104D01*
X120993538Y-118130723D01*
X120898300Y-118225961D01*
X120850680Y-118368819D01*
X120850680Y-118464057D01*
X120898300Y-118606914D01*
X120945919Y-118654533D01*
X121850680Y-119606914D02*
X121850680Y-119035485D01*
X121850680Y-119321200D02*
X120850680Y-119321200D01*
X120993538Y-119225961D01*
X121088776Y-119130723D01*
X121136395Y-119035485D01*
G04 #@! TO.C,C3*
X121388142Y-139406333D02*
X121435761Y-139358714D01*
X121483380Y-139215857D01*
X121483380Y-139120619D01*
X121435761Y-138977761D01*
X121340523Y-138882523D01*
X121245285Y-138834904D01*
X121054809Y-138787285D01*
X120911952Y-138787285D01*
X120721476Y-138834904D01*
X120626238Y-138882523D01*
X120531000Y-138977761D01*
X120483380Y-139120619D01*
X120483380Y-139215857D01*
X120531000Y-139358714D01*
X120578619Y-139406333D01*
X120483380Y-139739666D02*
X120483380Y-140358714D01*
X120864333Y-140025380D01*
X120864333Y-140168238D01*
X120911952Y-140263476D01*
X120959571Y-140311095D01*
X121054809Y-140358714D01*
X121292904Y-140358714D01*
X121388142Y-140311095D01*
X121435761Y-140263476D01*
X121483380Y-140168238D01*
X121483380Y-139882523D01*
X121435761Y-139787285D01*
X121388142Y-139739666D01*
G04 #@! TO.C,C4*
X123801142Y-139406333D02*
X123848761Y-139358714D01*
X123896380Y-139215857D01*
X123896380Y-139120619D01*
X123848761Y-138977761D01*
X123753523Y-138882523D01*
X123658285Y-138834904D01*
X123467809Y-138787285D01*
X123324952Y-138787285D01*
X123134476Y-138834904D01*
X123039238Y-138882523D01*
X122944000Y-138977761D01*
X122896380Y-139120619D01*
X122896380Y-139215857D01*
X122944000Y-139358714D01*
X122991619Y-139406333D01*
X123229714Y-140263476D02*
X123896380Y-140263476D01*
X122848761Y-140025380D02*
X123563047Y-139787285D01*
X123563047Y-140406333D01*
G04 #@! TO.C,C5*
X127864142Y-142530533D02*
X127911761Y-142482914D01*
X127959380Y-142340057D01*
X127959380Y-142244819D01*
X127911761Y-142101961D01*
X127816523Y-142006723D01*
X127721285Y-141959104D01*
X127530809Y-141911485D01*
X127387952Y-141911485D01*
X127197476Y-141959104D01*
X127102238Y-142006723D01*
X127007000Y-142101961D01*
X126959380Y-142244819D01*
X126959380Y-142340057D01*
X127007000Y-142482914D01*
X127054619Y-142530533D01*
X126959380Y-143435295D02*
X126959380Y-142959104D01*
X127435571Y-142911485D01*
X127387952Y-142959104D01*
X127340333Y-143054342D01*
X127340333Y-143292438D01*
X127387952Y-143387676D01*
X127435571Y-143435295D01*
X127530809Y-143482914D01*
X127768904Y-143482914D01*
X127864142Y-143435295D01*
X127911761Y-143387676D01*
X127959380Y-143292438D01*
X127959380Y-143054342D01*
X127911761Y-142959104D01*
X127864142Y-142911485D01*
G04 #@! TO.C,C9*
X111101142Y-55713333D02*
X111148761Y-55665714D01*
X111196380Y-55522857D01*
X111196380Y-55427619D01*
X111148761Y-55284761D01*
X111053523Y-55189523D01*
X110958285Y-55141904D01*
X110767809Y-55094285D01*
X110624952Y-55094285D01*
X110434476Y-55141904D01*
X110339238Y-55189523D01*
X110244000Y-55284761D01*
X110196380Y-55427619D01*
X110196380Y-55522857D01*
X110244000Y-55665714D01*
X110291619Y-55713333D01*
X111196380Y-56189523D02*
X111196380Y-56380000D01*
X111148761Y-56475238D01*
X111101142Y-56522857D01*
X110958285Y-56618095D01*
X110767809Y-56665714D01*
X110386857Y-56665714D01*
X110291619Y-56618095D01*
X110244000Y-56570476D01*
X110196380Y-56475238D01*
X110196380Y-56284761D01*
X110244000Y-56189523D01*
X110291619Y-56141904D01*
X110386857Y-56094285D01*
X110624952Y-56094285D01*
X110720190Y-56141904D01*
X110767809Y-56189523D01*
X110815428Y-56284761D01*
X110815428Y-56475238D01*
X110767809Y-56570476D01*
X110720190Y-56618095D01*
X110624952Y-56665714D01*
G04 #@! TO.C,C13*
X115069857Y-135358142D02*
X115117476Y-135405761D01*
X115260333Y-135453380D01*
X115355571Y-135453380D01*
X115498428Y-135405761D01*
X115593666Y-135310523D01*
X115641285Y-135215285D01*
X115688904Y-135024809D01*
X115688904Y-134881952D01*
X115641285Y-134691476D01*
X115593666Y-134596238D01*
X115498428Y-134501000D01*
X115355571Y-134453380D01*
X115260333Y-134453380D01*
X115117476Y-134501000D01*
X115069857Y-134548619D01*
X114117476Y-135453380D02*
X114688904Y-135453380D01*
X114403190Y-135453380D02*
X114403190Y-134453380D01*
X114498428Y-134596238D01*
X114593666Y-134691476D01*
X114688904Y-134739095D01*
X113784142Y-134453380D02*
X113165095Y-134453380D01*
X113498428Y-134834333D01*
X113355571Y-134834333D01*
X113260333Y-134881952D01*
X113212714Y-134929571D01*
X113165095Y-135024809D01*
X113165095Y-135262904D01*
X113212714Y-135358142D01*
X113260333Y-135405761D01*
X113355571Y-135453380D01*
X113641285Y-135453380D01*
X113736523Y-135405761D01*
X113784142Y-135358142D01*
G04 #@! TO.C,C15*
X113957642Y-139247642D02*
X114005261Y-139200023D01*
X114052880Y-139057166D01*
X114052880Y-138961928D01*
X114005261Y-138819071D01*
X113910023Y-138723833D01*
X113814785Y-138676214D01*
X113624309Y-138628595D01*
X113481452Y-138628595D01*
X113290976Y-138676214D01*
X113195738Y-138723833D01*
X113100500Y-138819071D01*
X113052880Y-138961928D01*
X113052880Y-139057166D01*
X113100500Y-139200023D01*
X113148119Y-139247642D01*
X114052880Y-140200023D02*
X114052880Y-139628595D01*
X114052880Y-139914309D02*
X113052880Y-139914309D01*
X113195738Y-139819071D01*
X113290976Y-139723833D01*
X113338595Y-139628595D01*
X113052880Y-141104785D02*
X113052880Y-140628595D01*
X113529071Y-140580976D01*
X113481452Y-140628595D01*
X113433833Y-140723833D01*
X113433833Y-140961928D01*
X113481452Y-141057166D01*
X113529071Y-141104785D01*
X113624309Y-141152404D01*
X113862404Y-141152404D01*
X113957642Y-141104785D01*
X114005261Y-141057166D01*
X114052880Y-140961928D01*
X114052880Y-140723833D01*
X114005261Y-140628595D01*
X113957642Y-140580976D01*
G04 #@! TO.C,C27*
X93956142Y-101973142D02*
X94003761Y-101925523D01*
X94051380Y-101782666D01*
X94051380Y-101687428D01*
X94003761Y-101544571D01*
X93908523Y-101449333D01*
X93813285Y-101401714D01*
X93622809Y-101354095D01*
X93479952Y-101354095D01*
X93289476Y-101401714D01*
X93194238Y-101449333D01*
X93099000Y-101544571D01*
X93051380Y-101687428D01*
X93051380Y-101782666D01*
X93099000Y-101925523D01*
X93146619Y-101973142D01*
X93146619Y-102354095D02*
X93099000Y-102401714D01*
X93051380Y-102496952D01*
X93051380Y-102735047D01*
X93099000Y-102830285D01*
X93146619Y-102877904D01*
X93241857Y-102925523D01*
X93337095Y-102925523D01*
X93479952Y-102877904D01*
X94051380Y-102306476D01*
X94051380Y-102925523D01*
X93051380Y-103258857D02*
X93051380Y-103925523D01*
X94051380Y-103496952D01*
G04 #@! TO.C,C14*
X114828557Y-129872742D02*
X114876176Y-129920361D01*
X115019033Y-129967980D01*
X115114271Y-129967980D01*
X115257128Y-129920361D01*
X115352366Y-129825123D01*
X115399985Y-129729885D01*
X115447604Y-129539409D01*
X115447604Y-129396552D01*
X115399985Y-129206076D01*
X115352366Y-129110838D01*
X115257128Y-129015600D01*
X115114271Y-128967980D01*
X115019033Y-128967980D01*
X114876176Y-129015600D01*
X114828557Y-129063219D01*
X113876176Y-129967980D02*
X114447604Y-129967980D01*
X114161890Y-129967980D02*
X114161890Y-128967980D01*
X114257128Y-129110838D01*
X114352366Y-129206076D01*
X114447604Y-129253695D01*
X113019033Y-129301314D02*
X113019033Y-129967980D01*
X113257128Y-128920361D02*
X113495223Y-129634647D01*
X112876176Y-129634647D01*
G04 #@! TO.C,C124*
X92079273Y-71904370D02*
X92126892Y-71856751D01*
X92174511Y-71713894D01*
X92174511Y-71618656D01*
X92126892Y-71475798D01*
X92031654Y-71380560D01*
X91936416Y-71332941D01*
X91745940Y-71285322D01*
X91603083Y-71285322D01*
X91412607Y-71332941D01*
X91317369Y-71380560D01*
X91222131Y-71475798D01*
X91174511Y-71618656D01*
X91174511Y-71713894D01*
X91222131Y-71856751D01*
X91269750Y-71904370D01*
X92174511Y-72856751D02*
X92174511Y-72285322D01*
X92174511Y-72571037D02*
X91174511Y-72571037D01*
X91317369Y-72475798D01*
X91412607Y-72380560D01*
X91460226Y-72285322D01*
X91269750Y-73237703D02*
X91222131Y-73285322D01*
X91174511Y-73380560D01*
X91174511Y-73618656D01*
X91222131Y-73713894D01*
X91269750Y-73761513D01*
X91364988Y-73809132D01*
X91460226Y-73809132D01*
X91603083Y-73761513D01*
X92174511Y-73190084D01*
X92174511Y-73809132D01*
X91507845Y-74666275D02*
X92174511Y-74666275D01*
X91126892Y-74428179D02*
X91841178Y-74190084D01*
X91841178Y-74809132D01*
G04 #@! TO.C,C87*
X87002857Y-118340142D02*
X87050476Y-118387761D01*
X87193333Y-118435380D01*
X87288571Y-118435380D01*
X87431428Y-118387761D01*
X87526666Y-118292523D01*
X87574285Y-118197285D01*
X87621904Y-118006809D01*
X87621904Y-117863952D01*
X87574285Y-117673476D01*
X87526666Y-117578238D01*
X87431428Y-117483000D01*
X87288571Y-117435380D01*
X87193333Y-117435380D01*
X87050476Y-117483000D01*
X87002857Y-117530619D01*
X86431428Y-117863952D02*
X86526666Y-117816333D01*
X86574285Y-117768714D01*
X86621904Y-117673476D01*
X86621904Y-117625857D01*
X86574285Y-117530619D01*
X86526666Y-117483000D01*
X86431428Y-117435380D01*
X86240952Y-117435380D01*
X86145714Y-117483000D01*
X86098095Y-117530619D01*
X86050476Y-117625857D01*
X86050476Y-117673476D01*
X86098095Y-117768714D01*
X86145714Y-117816333D01*
X86240952Y-117863952D01*
X86431428Y-117863952D01*
X86526666Y-117911571D01*
X86574285Y-117959190D01*
X86621904Y-118054428D01*
X86621904Y-118244904D01*
X86574285Y-118340142D01*
X86526666Y-118387761D01*
X86431428Y-118435380D01*
X86240952Y-118435380D01*
X86145714Y-118387761D01*
X86098095Y-118340142D01*
X86050476Y-118244904D01*
X86050476Y-118054428D01*
X86098095Y-117959190D01*
X86145714Y-117911571D01*
X86240952Y-117863952D01*
X85717142Y-117435380D02*
X85050476Y-117435380D01*
X85479047Y-118435380D01*
G04 #@! TO.C,C88*
X86875857Y-116498642D02*
X86923476Y-116546261D01*
X87066333Y-116593880D01*
X87161571Y-116593880D01*
X87304428Y-116546261D01*
X87399666Y-116451023D01*
X87447285Y-116355785D01*
X87494904Y-116165309D01*
X87494904Y-116022452D01*
X87447285Y-115831976D01*
X87399666Y-115736738D01*
X87304428Y-115641500D01*
X87161571Y-115593880D01*
X87066333Y-115593880D01*
X86923476Y-115641500D01*
X86875857Y-115689119D01*
X86304428Y-116022452D02*
X86399666Y-115974833D01*
X86447285Y-115927214D01*
X86494904Y-115831976D01*
X86494904Y-115784357D01*
X86447285Y-115689119D01*
X86399666Y-115641500D01*
X86304428Y-115593880D01*
X86113952Y-115593880D01*
X86018714Y-115641500D01*
X85971095Y-115689119D01*
X85923476Y-115784357D01*
X85923476Y-115831976D01*
X85971095Y-115927214D01*
X86018714Y-115974833D01*
X86113952Y-116022452D01*
X86304428Y-116022452D01*
X86399666Y-116070071D01*
X86447285Y-116117690D01*
X86494904Y-116212928D01*
X86494904Y-116403404D01*
X86447285Y-116498642D01*
X86399666Y-116546261D01*
X86304428Y-116593880D01*
X86113952Y-116593880D01*
X86018714Y-116546261D01*
X85971095Y-116498642D01*
X85923476Y-116403404D01*
X85923476Y-116212928D01*
X85971095Y-116117690D01*
X86018714Y-116070071D01*
X86113952Y-116022452D01*
X85352047Y-116022452D02*
X85447285Y-115974833D01*
X85494904Y-115927214D01*
X85542523Y-115831976D01*
X85542523Y-115784357D01*
X85494904Y-115689119D01*
X85447285Y-115641500D01*
X85352047Y-115593880D01*
X85161571Y-115593880D01*
X85066333Y-115641500D01*
X85018714Y-115689119D01*
X84971095Y-115784357D01*
X84971095Y-115831976D01*
X85018714Y-115927214D01*
X85066333Y-115974833D01*
X85161571Y-116022452D01*
X85352047Y-116022452D01*
X85447285Y-116070071D01*
X85494904Y-116117690D01*
X85542523Y-116212928D01*
X85542523Y-116403404D01*
X85494904Y-116498642D01*
X85447285Y-116546261D01*
X85352047Y-116593880D01*
X85161571Y-116593880D01*
X85066333Y-116546261D01*
X85018714Y-116498642D01*
X84971095Y-116403404D01*
X84971095Y-116212928D01*
X85018714Y-116117690D01*
X85066333Y-116070071D01*
X85161571Y-116022452D01*
G04 #@! TO.C,C108*
X74044178Y-86587560D02*
X74091797Y-86635179D01*
X74234654Y-86682798D01*
X74329892Y-86682798D01*
X74472750Y-86635179D01*
X74567988Y-86539941D01*
X74615607Y-86444703D01*
X74663226Y-86254227D01*
X74663226Y-86111370D01*
X74615607Y-85920894D01*
X74567988Y-85825656D01*
X74472750Y-85730418D01*
X74329892Y-85682798D01*
X74234654Y-85682798D01*
X74091797Y-85730418D01*
X74044178Y-85778037D01*
X73091797Y-86682798D02*
X73663226Y-86682798D01*
X73377511Y-86682798D02*
X73377511Y-85682798D01*
X73472750Y-85825656D01*
X73567988Y-85920894D01*
X73663226Y-85968513D01*
X72472750Y-85682798D02*
X72377511Y-85682798D01*
X72282273Y-85730418D01*
X72234654Y-85778037D01*
X72187035Y-85873275D01*
X72139416Y-86063751D01*
X72139416Y-86301846D01*
X72187035Y-86492322D01*
X72234654Y-86587560D01*
X72282273Y-86635179D01*
X72377511Y-86682798D01*
X72472750Y-86682798D01*
X72567988Y-86635179D01*
X72615607Y-86587560D01*
X72663226Y-86492322D01*
X72710845Y-86301846D01*
X72710845Y-86063751D01*
X72663226Y-85873275D01*
X72615607Y-85778037D01*
X72567988Y-85730418D01*
X72472750Y-85682798D01*
X71567988Y-86111370D02*
X71663226Y-86063751D01*
X71710845Y-86016132D01*
X71758464Y-85920894D01*
X71758464Y-85873275D01*
X71710845Y-85778037D01*
X71663226Y-85730418D01*
X71567988Y-85682798D01*
X71377511Y-85682798D01*
X71282273Y-85730418D01*
X71234654Y-85778037D01*
X71187035Y-85873275D01*
X71187035Y-85920894D01*
X71234654Y-86016132D01*
X71282273Y-86063751D01*
X71377511Y-86111370D01*
X71567988Y-86111370D01*
X71663226Y-86158989D01*
X71710845Y-86206608D01*
X71758464Y-86301846D01*
X71758464Y-86492322D01*
X71710845Y-86587560D01*
X71663226Y-86635179D01*
X71567988Y-86682798D01*
X71377511Y-86682798D01*
X71282273Y-86635179D01*
X71234654Y-86587560D01*
X71187035Y-86492322D01*
X71187035Y-86301846D01*
X71234654Y-86206608D01*
X71282273Y-86158989D01*
X71377511Y-86111370D01*
G04 #@! TO.C,C109*
X56491047Y-86589142D02*
X56538666Y-86636761D01*
X56681523Y-86684380D01*
X56776761Y-86684380D01*
X56919619Y-86636761D01*
X57014857Y-86541523D01*
X57062476Y-86446285D01*
X57110095Y-86255809D01*
X57110095Y-86112952D01*
X57062476Y-85922476D01*
X57014857Y-85827238D01*
X56919619Y-85732000D01*
X56776761Y-85684380D01*
X56681523Y-85684380D01*
X56538666Y-85732000D01*
X56491047Y-85779619D01*
X55538666Y-86684380D02*
X56110095Y-86684380D01*
X55824380Y-86684380D02*
X55824380Y-85684380D01*
X55919619Y-85827238D01*
X56014857Y-85922476D01*
X56110095Y-85970095D01*
X54919619Y-85684380D02*
X54824380Y-85684380D01*
X54729142Y-85732000D01*
X54681523Y-85779619D01*
X54633904Y-85874857D01*
X54586285Y-86065333D01*
X54586285Y-86303428D01*
X54633904Y-86493904D01*
X54681523Y-86589142D01*
X54729142Y-86636761D01*
X54824380Y-86684380D01*
X54919619Y-86684380D01*
X55014857Y-86636761D01*
X55062476Y-86589142D01*
X55110095Y-86493904D01*
X55157714Y-86303428D01*
X55157714Y-86065333D01*
X55110095Y-85874857D01*
X55062476Y-85779619D01*
X55014857Y-85732000D01*
X54919619Y-85684380D01*
X54110095Y-86684380D02*
X53919619Y-86684380D01*
X53824380Y-86636761D01*
X53776761Y-86589142D01*
X53681523Y-86446285D01*
X53633904Y-86255809D01*
X53633904Y-85874857D01*
X53681523Y-85779619D01*
X53729142Y-85732000D01*
X53824380Y-85684380D01*
X54014857Y-85684380D01*
X54110095Y-85732000D01*
X54157714Y-85779619D01*
X54205333Y-85874857D01*
X54205333Y-86112952D01*
X54157714Y-86208190D01*
X54110095Y-86255809D01*
X54014857Y-86303428D01*
X53824380Y-86303428D01*
X53729142Y-86255809D01*
X53681523Y-86208190D01*
X53633904Y-86112952D01*
G04 #@! TO.C,C123*
X100522773Y-71904370D02*
X100570392Y-71856751D01*
X100618011Y-71713894D01*
X100618011Y-71618656D01*
X100570392Y-71475798D01*
X100475154Y-71380560D01*
X100379916Y-71332941D01*
X100189440Y-71285322D01*
X100046583Y-71285322D01*
X99856107Y-71332941D01*
X99760869Y-71380560D01*
X99665631Y-71475798D01*
X99618011Y-71618656D01*
X99618011Y-71713894D01*
X99665631Y-71856751D01*
X99713250Y-71904370D01*
X100618011Y-72856751D02*
X100618011Y-72285322D01*
X100618011Y-72571037D02*
X99618011Y-72571037D01*
X99760869Y-72475798D01*
X99856107Y-72380560D01*
X99903726Y-72285322D01*
X99713250Y-73237703D02*
X99665631Y-73285322D01*
X99618011Y-73380560D01*
X99618011Y-73618656D01*
X99665631Y-73713894D01*
X99713250Y-73761513D01*
X99808488Y-73809132D01*
X99903726Y-73809132D01*
X100046583Y-73761513D01*
X100618011Y-73190084D01*
X100618011Y-73809132D01*
X99618011Y-74142465D02*
X99618011Y-74761513D01*
X99998964Y-74428179D01*
X99998964Y-74571037D01*
X100046583Y-74666275D01*
X100094202Y-74713894D01*
X100189440Y-74761513D01*
X100427535Y-74761513D01*
X100522773Y-74713894D01*
X100570392Y-74666275D01*
X100618011Y-74571037D01*
X100618011Y-74285322D01*
X100570392Y-74190084D01*
X100522773Y-74142465D01*
G04 #@! TO.C,C122*
X80268273Y-71904370D02*
X80315892Y-71856751D01*
X80363511Y-71713894D01*
X80363511Y-71618656D01*
X80315892Y-71475798D01*
X80220654Y-71380560D01*
X80125416Y-71332941D01*
X79934940Y-71285322D01*
X79792083Y-71285322D01*
X79601607Y-71332941D01*
X79506369Y-71380560D01*
X79411131Y-71475798D01*
X79363511Y-71618656D01*
X79363511Y-71713894D01*
X79411131Y-71856751D01*
X79458750Y-71904370D01*
X80363511Y-72856751D02*
X80363511Y-72285322D01*
X80363511Y-72571037D02*
X79363511Y-72571037D01*
X79506369Y-72475798D01*
X79601607Y-72380560D01*
X79649226Y-72285322D01*
X79458750Y-73237703D02*
X79411131Y-73285322D01*
X79363511Y-73380560D01*
X79363511Y-73618656D01*
X79411131Y-73713894D01*
X79458750Y-73761513D01*
X79553988Y-73809132D01*
X79649226Y-73809132D01*
X79792083Y-73761513D01*
X80363511Y-73190084D01*
X80363511Y-73809132D01*
X79458750Y-74190084D02*
X79411131Y-74237703D01*
X79363511Y-74332941D01*
X79363511Y-74571037D01*
X79411131Y-74666275D01*
X79458750Y-74713894D01*
X79553988Y-74761513D01*
X79649226Y-74761513D01*
X79792083Y-74713894D01*
X80363511Y-74142465D01*
X80363511Y-74761513D01*
G04 #@! TO.C,C121*
X88521273Y-71840870D02*
X88568892Y-71793251D01*
X88616511Y-71650394D01*
X88616511Y-71555156D01*
X88568892Y-71412298D01*
X88473654Y-71317060D01*
X88378416Y-71269441D01*
X88187940Y-71221822D01*
X88045083Y-71221822D01*
X87854607Y-71269441D01*
X87759369Y-71317060D01*
X87664131Y-71412298D01*
X87616511Y-71555156D01*
X87616511Y-71650394D01*
X87664131Y-71793251D01*
X87711750Y-71840870D01*
X88616511Y-72793251D02*
X88616511Y-72221822D01*
X88616511Y-72507537D02*
X87616511Y-72507537D01*
X87759369Y-72412298D01*
X87854607Y-72317060D01*
X87902226Y-72221822D01*
X87711750Y-73174203D02*
X87664131Y-73221822D01*
X87616511Y-73317060D01*
X87616511Y-73555156D01*
X87664131Y-73650394D01*
X87711750Y-73698013D01*
X87806988Y-73745632D01*
X87902226Y-73745632D01*
X88045083Y-73698013D01*
X88616511Y-73126584D01*
X88616511Y-73745632D01*
X88616511Y-74698013D02*
X88616511Y-74126584D01*
X88616511Y-74412298D02*
X87616511Y-74412298D01*
X87759369Y-74317060D01*
X87854607Y-74221822D01*
X87902226Y-74126584D01*
G04 #@! TO.C,C120*
X68457273Y-71904370D02*
X68504892Y-71856751D01*
X68552511Y-71713894D01*
X68552511Y-71618656D01*
X68504892Y-71475798D01*
X68409654Y-71380560D01*
X68314416Y-71332941D01*
X68123940Y-71285322D01*
X67981083Y-71285322D01*
X67790607Y-71332941D01*
X67695369Y-71380560D01*
X67600131Y-71475798D01*
X67552511Y-71618656D01*
X67552511Y-71713894D01*
X67600131Y-71856751D01*
X67647750Y-71904370D01*
X68552511Y-72856751D02*
X68552511Y-72285322D01*
X68552511Y-72571037D02*
X67552511Y-72571037D01*
X67695369Y-72475798D01*
X67790607Y-72380560D01*
X67838226Y-72285322D01*
X67647750Y-73237703D02*
X67600131Y-73285322D01*
X67552511Y-73380560D01*
X67552511Y-73618656D01*
X67600131Y-73713894D01*
X67647750Y-73761513D01*
X67742988Y-73809132D01*
X67838226Y-73809132D01*
X67981083Y-73761513D01*
X68552511Y-73190084D01*
X68552511Y-73809132D01*
X67552511Y-74428179D02*
X67552511Y-74523418D01*
X67600131Y-74618656D01*
X67647750Y-74666275D01*
X67742988Y-74713894D01*
X67933464Y-74761513D01*
X68171559Y-74761513D01*
X68362035Y-74713894D01*
X68457273Y-74666275D01*
X68504892Y-74618656D01*
X68552511Y-74523418D01*
X68552511Y-74428179D01*
X68504892Y-74332941D01*
X68457273Y-74285322D01*
X68362035Y-74237703D01*
X68171559Y-74190084D01*
X67933464Y-74190084D01*
X67742988Y-74237703D01*
X67647750Y-74285322D01*
X67600131Y-74332941D01*
X67552511Y-74428179D01*
G04 #@! TO.C,C119*
X76710273Y-71967870D02*
X76757892Y-71920251D01*
X76805511Y-71777394D01*
X76805511Y-71682156D01*
X76757892Y-71539298D01*
X76662654Y-71444060D01*
X76567416Y-71396441D01*
X76376940Y-71348822D01*
X76234083Y-71348822D01*
X76043607Y-71396441D01*
X75948369Y-71444060D01*
X75853131Y-71539298D01*
X75805511Y-71682156D01*
X75805511Y-71777394D01*
X75853131Y-71920251D01*
X75900750Y-71967870D01*
X76805511Y-72920251D02*
X76805511Y-72348822D01*
X76805511Y-72634537D02*
X75805511Y-72634537D01*
X75948369Y-72539298D01*
X76043607Y-72444060D01*
X76091226Y-72348822D01*
X76805511Y-73872632D02*
X76805511Y-73301203D01*
X76805511Y-73586918D02*
X75805511Y-73586918D01*
X75948369Y-73491679D01*
X76043607Y-73396441D01*
X76091226Y-73301203D01*
X76805511Y-74348822D02*
X76805511Y-74539298D01*
X76757892Y-74634537D01*
X76710273Y-74682156D01*
X76567416Y-74777394D01*
X76376940Y-74825013D01*
X75995988Y-74825013D01*
X75900750Y-74777394D01*
X75853131Y-74729775D01*
X75805511Y-74634537D01*
X75805511Y-74444060D01*
X75853131Y-74348822D01*
X75900750Y-74301203D01*
X75995988Y-74253584D01*
X76234083Y-74253584D01*
X76329321Y-74301203D01*
X76376940Y-74348822D01*
X76424559Y-74444060D01*
X76424559Y-74634537D01*
X76376940Y-74729775D01*
X76329321Y-74777394D01*
X76234083Y-74825013D01*
G04 #@! TO.C,C118*
X56773273Y-71777370D02*
X56820892Y-71729751D01*
X56868511Y-71586894D01*
X56868511Y-71491656D01*
X56820892Y-71348798D01*
X56725654Y-71253560D01*
X56630416Y-71205941D01*
X56439940Y-71158322D01*
X56297083Y-71158322D01*
X56106607Y-71205941D01*
X56011369Y-71253560D01*
X55916131Y-71348798D01*
X55868511Y-71491656D01*
X55868511Y-71586894D01*
X55916131Y-71729751D01*
X55963750Y-71777370D01*
X56868511Y-72729751D02*
X56868511Y-72158322D01*
X56868511Y-72444037D02*
X55868511Y-72444037D01*
X56011369Y-72348798D01*
X56106607Y-72253560D01*
X56154226Y-72158322D01*
X56868511Y-73682132D02*
X56868511Y-73110703D01*
X56868511Y-73396418D02*
X55868511Y-73396418D01*
X56011369Y-73301179D01*
X56106607Y-73205941D01*
X56154226Y-73110703D01*
X56297083Y-74253560D02*
X56249464Y-74158322D01*
X56201845Y-74110703D01*
X56106607Y-74063084D01*
X56058988Y-74063084D01*
X55963750Y-74110703D01*
X55916131Y-74158322D01*
X55868511Y-74253560D01*
X55868511Y-74444037D01*
X55916131Y-74539275D01*
X55963750Y-74586894D01*
X56058988Y-74634513D01*
X56106607Y-74634513D01*
X56201845Y-74586894D01*
X56249464Y-74539275D01*
X56297083Y-74444037D01*
X56297083Y-74253560D01*
X56344702Y-74158322D01*
X56392321Y-74110703D01*
X56487559Y-74063084D01*
X56678035Y-74063084D01*
X56773273Y-74110703D01*
X56820892Y-74158322D01*
X56868511Y-74253560D01*
X56868511Y-74444037D01*
X56820892Y-74539275D01*
X56773273Y-74586894D01*
X56678035Y-74634513D01*
X56487559Y-74634513D01*
X56392321Y-74586894D01*
X56344702Y-74539275D01*
X56297083Y-74444037D01*
G04 #@! TO.C,C117*
X64962773Y-71777370D02*
X65010392Y-71729751D01*
X65058011Y-71586894D01*
X65058011Y-71491656D01*
X65010392Y-71348798D01*
X64915154Y-71253560D01*
X64819916Y-71205941D01*
X64629440Y-71158322D01*
X64486583Y-71158322D01*
X64296107Y-71205941D01*
X64200869Y-71253560D01*
X64105631Y-71348798D01*
X64058011Y-71491656D01*
X64058011Y-71586894D01*
X64105631Y-71729751D01*
X64153250Y-71777370D01*
X65058011Y-72729751D02*
X65058011Y-72158322D01*
X65058011Y-72444037D02*
X64058011Y-72444037D01*
X64200869Y-72348798D01*
X64296107Y-72253560D01*
X64343726Y-72158322D01*
X65058011Y-73682132D02*
X65058011Y-73110703D01*
X65058011Y-73396418D02*
X64058011Y-73396418D01*
X64200869Y-73301179D01*
X64296107Y-73205941D01*
X64343726Y-73110703D01*
X64058011Y-74015465D02*
X64058011Y-74682132D01*
X65058011Y-74253560D01*
G04 #@! TO.C,C115*
X81626078Y-86638360D02*
X81673697Y-86685979D01*
X81816554Y-86733598D01*
X81911792Y-86733598D01*
X82054650Y-86685979D01*
X82149888Y-86590741D01*
X82197507Y-86495503D01*
X82245126Y-86305027D01*
X82245126Y-86162170D01*
X82197507Y-85971694D01*
X82149888Y-85876456D01*
X82054650Y-85781218D01*
X81911792Y-85733598D01*
X81816554Y-85733598D01*
X81673697Y-85781218D01*
X81626078Y-85828837D01*
X80673697Y-86733598D02*
X81245126Y-86733598D01*
X80959411Y-86733598D02*
X80959411Y-85733598D01*
X81054650Y-85876456D01*
X81149888Y-85971694D01*
X81245126Y-86019313D01*
X79721316Y-86733598D02*
X80292745Y-86733598D01*
X80007031Y-86733598D02*
X80007031Y-85733598D01*
X80102269Y-85876456D01*
X80197507Y-85971694D01*
X80292745Y-86019313D01*
X78816554Y-85733598D02*
X79292745Y-85733598D01*
X79340364Y-86209789D01*
X79292745Y-86162170D01*
X79197507Y-86114551D01*
X78959411Y-86114551D01*
X78864173Y-86162170D01*
X78816554Y-86209789D01*
X78768935Y-86305027D01*
X78768935Y-86543122D01*
X78816554Y-86638360D01*
X78864173Y-86685979D01*
X78959411Y-86733598D01*
X79197507Y-86733598D01*
X79292745Y-86685979D01*
X79340364Y-86638360D01*
G04 #@! TO.C,C114*
X96115047Y-86716142D02*
X96162666Y-86763761D01*
X96305523Y-86811380D01*
X96400761Y-86811380D01*
X96543619Y-86763761D01*
X96638857Y-86668523D01*
X96686476Y-86573285D01*
X96734095Y-86382809D01*
X96734095Y-86239952D01*
X96686476Y-86049476D01*
X96638857Y-85954238D01*
X96543619Y-85859000D01*
X96400761Y-85811380D01*
X96305523Y-85811380D01*
X96162666Y-85859000D01*
X96115047Y-85906619D01*
X95162666Y-86811380D02*
X95734095Y-86811380D01*
X95448380Y-86811380D02*
X95448380Y-85811380D01*
X95543619Y-85954238D01*
X95638857Y-86049476D01*
X95734095Y-86097095D01*
X94210285Y-86811380D02*
X94781714Y-86811380D01*
X94496000Y-86811380D02*
X94496000Y-85811380D01*
X94591238Y-85954238D01*
X94686476Y-86049476D01*
X94781714Y-86097095D01*
X93353142Y-86144714D02*
X93353142Y-86811380D01*
X93591238Y-85763761D02*
X93829333Y-86478047D01*
X93210285Y-86478047D01*
G04 #@! TO.C,L11*
X85459782Y-90389467D02*
X85459782Y-89913277D01*
X84459782Y-89913277D01*
X85459782Y-91246610D02*
X85459782Y-90675182D01*
X85459782Y-90960896D02*
X84459782Y-90960896D01*
X84602640Y-90865658D01*
X84697878Y-90770420D01*
X84745497Y-90675182D01*
X85459782Y-92198991D02*
X85459782Y-91627563D01*
X85459782Y-91913277D02*
X84459782Y-91913277D01*
X84602640Y-91818039D01*
X84697878Y-91722801D01*
X84745497Y-91627563D01*
G04 #@! TO.C,L8*
X63506926Y-90865658D02*
X63506926Y-90389467D01*
X62506926Y-90389467D01*
X62935498Y-91341848D02*
X62887879Y-91246610D01*
X62840260Y-91198991D01*
X62745022Y-91151372D01*
X62697403Y-91151372D01*
X62602165Y-91198991D01*
X62554546Y-91246610D01*
X62506926Y-91341848D01*
X62506926Y-91532325D01*
X62554546Y-91627563D01*
X62602165Y-91675182D01*
X62697403Y-91722801D01*
X62745022Y-91722801D01*
X62840260Y-91675182D01*
X62887879Y-91627563D01*
X62935498Y-91532325D01*
X62935498Y-91341848D01*
X62983117Y-91246610D01*
X63030736Y-91198991D01*
X63125974Y-91151372D01*
X63316450Y-91151372D01*
X63411688Y-91198991D01*
X63459307Y-91246610D01*
X63506926Y-91341848D01*
X63506926Y-91532325D01*
X63459307Y-91627563D01*
X63411688Y-91675182D01*
X63316450Y-91722801D01*
X63125974Y-91722801D01*
X63030736Y-91675182D01*
X62983117Y-91627563D01*
X62935498Y-91532325D01*
G04 #@! TO.C,L7*
X96436210Y-90865658D02*
X96436210Y-90389467D01*
X95436210Y-90389467D01*
X95436210Y-91103753D02*
X95436210Y-91770420D01*
X96436210Y-91341848D01*
G04 #@! TO.C,L4*
X74483354Y-90865658D02*
X74483354Y-90389467D01*
X73483354Y-90389467D01*
X73816688Y-91627563D02*
X74483354Y-91627563D01*
X73435735Y-91389467D02*
X74150021Y-91151372D01*
X74150021Y-91770420D01*
G04 #@! TO.C,R13*
X96845380Y-136136142D02*
X96369190Y-135802809D01*
X96845380Y-135564714D02*
X95845380Y-135564714D01*
X95845380Y-135945666D01*
X95893000Y-136040904D01*
X95940619Y-136088523D01*
X96035857Y-136136142D01*
X96178714Y-136136142D01*
X96273952Y-136088523D01*
X96321571Y-136040904D01*
X96369190Y-135945666D01*
X96369190Y-135564714D01*
X96845380Y-137088523D02*
X96845380Y-136517095D01*
X96845380Y-136802809D02*
X95845380Y-136802809D01*
X95988238Y-136707571D01*
X96083476Y-136612333D01*
X96131095Y-136517095D01*
X95845380Y-137421857D02*
X95845380Y-138040904D01*
X96226333Y-137707571D01*
X96226333Y-137850428D01*
X96273952Y-137945666D01*
X96321571Y-137993285D01*
X96416809Y-138040904D01*
X96654904Y-138040904D01*
X96750142Y-137993285D01*
X96797761Y-137945666D01*
X96845380Y-137850428D01*
X96845380Y-137564714D01*
X96797761Y-137469476D01*
X96750142Y-137421857D01*
G04 #@! TO.C,R14*
X92654380Y-136009142D02*
X92178190Y-135675809D01*
X92654380Y-135437714D02*
X91654380Y-135437714D01*
X91654380Y-135818666D01*
X91702000Y-135913904D01*
X91749619Y-135961523D01*
X91844857Y-136009142D01*
X91987714Y-136009142D01*
X92082952Y-135961523D01*
X92130571Y-135913904D01*
X92178190Y-135818666D01*
X92178190Y-135437714D01*
X92654380Y-136961523D02*
X92654380Y-136390095D01*
X92654380Y-136675809D02*
X91654380Y-136675809D01*
X91797238Y-136580571D01*
X91892476Y-136485333D01*
X91940095Y-136390095D01*
X91987714Y-137818666D02*
X92654380Y-137818666D01*
X91606761Y-137580571D02*
X92321047Y-137342476D01*
X92321047Y-137961523D01*
G04 #@! TO.C,R15*
X88082380Y-139057142D02*
X87606190Y-138723809D01*
X88082380Y-138485714D02*
X87082380Y-138485714D01*
X87082380Y-138866666D01*
X87130000Y-138961904D01*
X87177619Y-139009523D01*
X87272857Y-139057142D01*
X87415714Y-139057142D01*
X87510952Y-139009523D01*
X87558571Y-138961904D01*
X87606190Y-138866666D01*
X87606190Y-138485714D01*
X88082380Y-140009523D02*
X88082380Y-139438095D01*
X88082380Y-139723809D02*
X87082380Y-139723809D01*
X87225238Y-139628571D01*
X87320476Y-139533333D01*
X87368095Y-139438095D01*
X87082380Y-140914285D02*
X87082380Y-140438095D01*
X87558571Y-140390476D01*
X87510952Y-140438095D01*
X87463333Y-140533333D01*
X87463333Y-140771428D01*
X87510952Y-140866666D01*
X87558571Y-140914285D01*
X87653809Y-140961904D01*
X87891904Y-140961904D01*
X87987142Y-140914285D01*
X88034761Y-140866666D01*
X88082380Y-140771428D01*
X88082380Y-140533333D01*
X88034761Y-140438095D01*
X87987142Y-140390476D01*
G04 #@! TO.C,R16*
X99893380Y-136009142D02*
X99417190Y-135675809D01*
X99893380Y-135437714D02*
X98893380Y-135437714D01*
X98893380Y-135818666D01*
X98941000Y-135913904D01*
X98988619Y-135961523D01*
X99083857Y-136009142D01*
X99226714Y-136009142D01*
X99321952Y-135961523D01*
X99369571Y-135913904D01*
X99417190Y-135818666D01*
X99417190Y-135437714D01*
X99893380Y-136961523D02*
X99893380Y-136390095D01*
X99893380Y-136675809D02*
X98893380Y-136675809D01*
X99036238Y-136580571D01*
X99131476Y-136485333D01*
X99179095Y-136390095D01*
X98893380Y-137818666D02*
X98893380Y-137628190D01*
X98941000Y-137532952D01*
X98988619Y-137485333D01*
X99131476Y-137390095D01*
X99321952Y-137342476D01*
X99702904Y-137342476D01*
X99798142Y-137390095D01*
X99845761Y-137437714D01*
X99893380Y-137532952D01*
X99893380Y-137723428D01*
X99845761Y-137818666D01*
X99798142Y-137866285D01*
X99702904Y-137913904D01*
X99464809Y-137913904D01*
X99369571Y-137866285D01*
X99321952Y-137818666D01*
X99274333Y-137723428D01*
X99274333Y-137532952D01*
X99321952Y-137437714D01*
X99369571Y-137390095D01*
X99464809Y-137342476D01*
G04 #@! TO.C,R4*
X57926266Y-121686580D02*
X58259600Y-121210390D01*
X58497695Y-121686580D02*
X58497695Y-120686580D01*
X58116742Y-120686580D01*
X58021504Y-120734200D01*
X57973885Y-120781819D01*
X57926266Y-120877057D01*
X57926266Y-121019914D01*
X57973885Y-121115152D01*
X58021504Y-121162771D01*
X58116742Y-121210390D01*
X58497695Y-121210390D01*
X57069123Y-121019914D02*
X57069123Y-121686580D01*
X57307219Y-120638961D02*
X57545314Y-121353247D01*
X56926266Y-121353247D01*
G04 #@! TO.C,R6*
X113482380Y-55840333D02*
X113006190Y-55507000D01*
X113482380Y-55268904D02*
X112482380Y-55268904D01*
X112482380Y-55649857D01*
X112530000Y-55745095D01*
X112577619Y-55792714D01*
X112672857Y-55840333D01*
X112815714Y-55840333D01*
X112910952Y-55792714D01*
X112958571Y-55745095D01*
X113006190Y-55649857D01*
X113006190Y-55268904D01*
X112482380Y-56697476D02*
X112482380Y-56507000D01*
X112530000Y-56411761D01*
X112577619Y-56364142D01*
X112720476Y-56268904D01*
X112910952Y-56221285D01*
X113291904Y-56221285D01*
X113387142Y-56268904D01*
X113434761Y-56316523D01*
X113482380Y-56411761D01*
X113482380Y-56602238D01*
X113434761Y-56697476D01*
X113387142Y-56745095D01*
X113291904Y-56792714D01*
X113053809Y-56792714D01*
X112958571Y-56745095D01*
X112910952Y-56697476D01*
X112863333Y-56602238D01*
X112863333Y-56411761D01*
X112910952Y-56316523D01*
X112958571Y-56268904D01*
X113053809Y-56221285D01*
G04 #@! TO.C,R3*
X58205666Y-131007380D02*
X58539000Y-130531190D01*
X58777095Y-131007380D02*
X58777095Y-130007380D01*
X58396142Y-130007380D01*
X58300904Y-130055000D01*
X58253285Y-130102619D01*
X58205666Y-130197857D01*
X58205666Y-130340714D01*
X58253285Y-130435952D01*
X58300904Y-130483571D01*
X58396142Y-130531190D01*
X58777095Y-130531190D01*
X57872333Y-130007380D02*
X57253285Y-130007380D01*
X57586619Y-130388333D01*
X57443761Y-130388333D01*
X57348523Y-130435952D01*
X57300904Y-130483571D01*
X57253285Y-130578809D01*
X57253285Y-130816904D01*
X57300904Y-130912142D01*
X57348523Y-130959761D01*
X57443761Y-131007380D01*
X57729476Y-131007380D01*
X57824714Y-130959761D01*
X57872333Y-130912142D01*
G04 #@! TD*
M02*
