M48
;DRILL file {KiCad 5.0.2+dfsg1-1} date 2020年12月14日 星期一 19时14分09秒
;FORMAT={-:-/ absolute / metric / decimal}
FMAT,2
METRIC,TZ
T1C0.300
T2C0.600
T3C1.000
T4C1.700
T5C2.200
%
G90
G05
T1
X56.043Y-81.661
X56.134Y-114.236
X57.213Y-114.173
X59.958Y-123.063
X61.087Y-119.062
X61.658Y-120.332
X62.293Y-99.885
X62.484Y-104.331
X62.484Y-119.761
X63.691Y-99.885
X63.944Y-104.331
X64.262Y-120.078
X67.818Y-117.777
X70.358Y-105.537
X70.358Y-107.061
X70.993Y-96.393
X71.056Y-104.14
X71.564Y-127.063
X72.263Y-96.393
X72.263Y-107.061
X72.39Y-105.537
X72.962Y-104.076
X73.215Y-127.953
X74.295Y-105.537
X74.295Y-107.188
X74.486Y-96.393
X74.859Y-104.076
X74.93Y-128.778
X75.311Y-115.887
X76.2Y-105.537
X76.327Y-107.061
X76.517Y-96.393
X76.772Y-99.123
X77.399Y-99.758
X78.119Y-105.604
X78.232Y-82.423
X78.232Y-107.061
X78.367Y-130.421
X78.676Y-95.885
X79.184Y-119.062
X79.311Y-104.013
X79.735Y-114.524
X79.947Y-98.361
X80.01Y-95.885
X80.073Y-115.887
X80.073Y-117.792
X80.264Y-107.061
X80.489Y-105.788
X81.216Y-98.361
X81.216Y-104.013
X81.929Y-105.655
X82.169Y-107.061
X83.114Y-104.323
X84.074Y-122.999
X84.201Y-107.061
X84.299Y-105.579
X84.899Y-122.364
X85.217Y-124.523
X86.233Y-123.76
X87.2Y-136.637
X88.9Y-126.746
X89.09Y-120.459
X89.471Y-121.73
X89.599Y-133.223
X90.614Y-114.935
X90.678Y-126.555
X91.376Y-127.191
X91.504Y-98.87
X91.504Y-103.569
X91.757Y-109.537
X91.948Y-114.935
X92.9Y-109.537
X93.027Y-103.569
X93.027Y-134.112
X93.154Y-98.87
X93.789Y-119.316
X94.107Y-133.159
X94.17Y-120.904
X94.869Y-117.792
X96.139Y-121.221
X97.916Y-137.033
X98.234Y-121.349
X98.234Y-131.191
X98.68Y-118.619
X98.709Y-66.514
X99.949Y-66.514
X100.012Y-121.539
X100.266Y-62.181
X100.965Y-135.89
X101.155Y-66.514
X101.346Y-140.081
X101.473Y-82.042
X101.917Y-54.419
X101.981Y-127.076
X102.044Y-125.501
X102.256Y-79.248
X102.552Y-66.514
X103.334Y-59.694
X104.134Y-54.8
X104.394Y-53.594
X104.394Y-80.391
X104.394Y-113.347
X104.434Y-60.515
X104.521Y-134.239
X105.219Y-111.76
X105.41Y-140.272
X105.537Y-129.2
X108.521Y-59.88
X108.521Y-122.872
X108.648Y-88.392
X109.007Y-121.349
X111.188Y-112.903
X111.188Y-118.173
X111.896Y-129.095
X111.912Y-136.969
X111.921Y-111.73
X112.712Y-121.221
X113.221Y-129.476
X113.284Y-123.423
X113.411Y-119.951
X113.983Y-110.236
X114.038Y-105.474
X117.475Y-133.223
X117.825Y-72.072
X118.745Y-112.776
X119.365Y-97.536
X119.697Y-119.697
X120.142Y-117.983
X120.332Y-128.778
X120.777Y-113.919
X121.475Y-114.935
X121.882Y-124.739
X121.895Y-116.611
X122.364Y-131.318
X122.428Y-114.617
X123.507Y-121.158
X123.571Y-68.263
X124.206Y-85.915
X124.714Y-116.437
X125.603Y-112.268
X126.46Y-64.579
X127.889Y-117.212
X128.343Y-128.863
X128.397Y-131.826
X128.588Y-130.238
X128.714Y-113.221
X129.095Y-126.682
X131.005Y-117.03
X132.846Y-117.411
X133.731Y-101.854
X134.302Y-106.87
X136.588Y-119.444
X136.607Y-129.095
X137.224Y-135.255
X137.541Y-96.266
X139.7Y-106.87
X127.162Y-87.608
X127.162Y-88.708
X127.162Y-90.008
X127.162Y-91.208
X128.362Y-87.608
X128.362Y-88.708
X128.362Y-90.008
X128.362Y-91.208
T3
X89.459Y-143.891
X89.459Y-146.431
X91.999Y-143.891
X91.999Y-146.431
X94.539Y-143.891
X94.539Y-146.431
X97.079Y-143.891
X97.079Y-146.431
X99.619Y-143.891
X99.619Y-146.431
X102.159Y-143.891
X102.159Y-146.431
X104.699Y-143.891
X104.699Y-146.431
X107.239Y-143.891
X107.239Y-146.431
X109.779Y-143.891
X109.779Y-146.431
X112.319Y-143.891
X112.319Y-146.431
X118.415Y-146.494
X120.955Y-146.494
X123.495Y-146.494
X126.035Y-146.494
X57.785Y-133.223
X57.785Y-135.763
X60.325Y-133.223
X60.325Y-135.763
X62.865Y-133.223
X62.865Y-135.763
X65.405Y-133.223
X65.405Y-135.763
X67.945Y-133.223
X67.945Y-135.763
X70.485Y-133.223
X70.485Y-135.763
X73.025Y-133.223
X73.025Y-135.763
X75.565Y-133.223
X75.565Y-135.763
X78.105Y-133.223
X78.105Y-135.763
X80.645Y-133.223
X80.645Y-135.763
X58.039Y-126.111
X60.579Y-126.111
X63.119Y-126.111
X65.659Y-126.111
X116.459Y-58.087
X118.999Y-58.087
X121.539Y-58.087
T4
X93.452Y-76.579
X98.452Y-76.579
X58.019Y-76.579
X63.019Y-76.579
X81.641Y-76.579
X86.641Y-76.579
X69.83Y-76.579
X74.83Y-76.579
T5
X57.658Y-118.999
X130.429Y-138.684
X99.568Y-110.998
X114.173Y-82.042
T2
X99.439Y-53.112G85X99.439Y-51.812
G05
X99.439Y-57.512G85X99.439Y-56.512
G05
X100.039Y-56.512G85X99.439Y-56.512
G05
X108.079Y-56.512G85X107.479Y-56.512
G05
X108.079Y-53.112G85X108.079Y-51.812
G05
X108.079Y-57.512G85X108.079Y-56.512
G05
T3
X130.809Y-60.008G85X130.809Y-62.008
G05
X136.509Y-58.008G85X134.509Y-58.008
G05
X136.509Y-64.008G85X134.509Y-64.008
G05
T0
M30
