G04 #@! TF.GenerationSoftware,KiCad,Pcbnew,5.0.2+dfsg1-1*
G04 #@! TF.CreationDate,2020-12-14T19:14:29+08:00*
G04 #@! TF.ProjectId,digital-amplifier2,64696769-7461-46c2-9d61-6d706c696669,rev?*
G04 #@! TF.SameCoordinates,Original*
G04 #@! TF.FileFunction,Legend,Top*
G04 #@! TF.FilePolarity,Positive*
%FSLAX46Y46*%
G04 Gerber Fmt 4.6, Leading zero omitted, Abs format (unit mm)*
G04 Created by KiCad (PCBNEW 5.0.2+dfsg1-1) date 2020年12月14日 星期一 19时14分29秒*
%MOMM*%
%LPD*%
G01*
G04 APERTURE LIST*
%ADD10C,0.200000*%
%ADD11C,0.120000*%
%ADD12C,0.150000*%
G04 APERTURE END LIST*
D10*
X52000000Y-70000000D02*
X52000000Y-140000000D01*
X142000000Y-50000000D02*
X142000000Y-150000000D01*
D11*
G04 #@! TO.C,J7*
X138573500Y-138169500D02*
X135873500Y-138169500D01*
X137983500Y-135449500D02*
X137983500Y-134819500D01*
X135823500Y-135449500D02*
X136463500Y-135449500D01*
X138623500Y-135449500D02*
X137983500Y-135449500D01*
G04 #@! TO.C,C32*
X64415500Y-102074436D02*
X64415500Y-103278564D01*
X61695500Y-102074436D02*
X61695500Y-103278564D01*
G04 #@! TO.C,C45*
X65670500Y-113103922D02*
X65670500Y-113621078D01*
X64250500Y-113103922D02*
X64250500Y-113621078D01*
G04 #@! TO.C,R17*
X97397500Y-62860422D02*
X97397500Y-63377578D01*
X98817500Y-62860422D02*
X98817500Y-63377578D01*
G04 #@! TO.C,R39*
X100976500Y-62860422D02*
X100976500Y-63377578D01*
X99556500Y-62860422D02*
X99556500Y-63377578D01*
G04 #@! TO.C,C38*
X77862500Y-101976422D02*
X77862500Y-102493578D01*
X76442500Y-101976422D02*
X76442500Y-102493578D01*
G04 #@! TO.C,C36*
X72442000Y-116581422D02*
X72442000Y-117098578D01*
X73862000Y-116581422D02*
X73862000Y-117098578D01*
G04 #@! TO.C,C35*
X75830500Y-101976422D02*
X75830500Y-102493578D01*
X74410500Y-101976422D02*
X74410500Y-102493578D01*
G04 #@! TO.C,C40*
X76021000Y-116581422D02*
X76021000Y-117098578D01*
X74601000Y-116581422D02*
X74601000Y-117098578D01*
G04 #@! TO.C,C49*
X63702000Y-113103922D02*
X63702000Y-113621078D01*
X62282000Y-113103922D02*
X62282000Y-113621078D01*
G04 #@! TO.C,C48*
X82862922Y-118439000D02*
X83380078Y-118439000D01*
X82862922Y-117019000D02*
X83380078Y-117019000D01*
G04 #@! TO.C,C47*
X78751500Y-116581422D02*
X78751500Y-117098578D01*
X77331500Y-116581422D02*
X77331500Y-117098578D01*
G04 #@! TO.C,C46*
X79363500Y-116581422D02*
X79363500Y-117098578D01*
X80783500Y-116581422D02*
X80783500Y-117098578D01*
G04 #@! TO.C,C42*
X93689000Y-111600064D02*
X93689000Y-110395936D01*
X90969000Y-111600064D02*
X90969000Y-110395936D01*
G04 #@! TO.C,C43*
X58065500Y-112170936D02*
X58065500Y-113375064D01*
X55345500Y-112170936D02*
X55345500Y-113375064D01*
G04 #@! TO.C,C44*
X58774500Y-112173936D02*
X58774500Y-113378064D01*
X61494500Y-112173936D02*
X61494500Y-113378064D01*
G04 #@! TO.C,FB3*
X56103463Y-98403309D02*
X54899335Y-98403309D01*
X56103463Y-101123309D02*
X54899335Y-101123309D01*
G04 #@! TO.C,FB2*
X56084462Y-104412308D02*
X54880334Y-104412308D01*
X56084462Y-101692308D02*
X54880334Y-101692308D01*
G04 #@! TO.C,Q2*
X123509500Y-73032500D02*
X124969500Y-73032500D01*
X123509500Y-76192500D02*
X125669500Y-76192500D01*
X123509500Y-76192500D02*
X123509500Y-75262500D01*
X123509500Y-73032500D02*
X123509500Y-73962500D01*
G04 #@! TO.C,Q3*
X119763000Y-68841500D02*
X119763000Y-69771500D01*
X119763000Y-72001500D02*
X119763000Y-71071500D01*
X119763000Y-72001500D02*
X121923000Y-72001500D01*
X119763000Y-68841500D02*
X121223000Y-68841500D01*
G04 #@! TO.C,R31*
X70156000Y-116581422D02*
X70156000Y-117098578D01*
X71576000Y-116581422D02*
X71576000Y-117098578D01*
G04 #@! TO.C,R32*
X128274578Y-76084500D02*
X127757422Y-76084500D01*
X128274578Y-74664500D02*
X127757422Y-74664500D01*
G04 #@! TO.C,R33*
X127757422Y-74052500D02*
X128274578Y-74052500D01*
X127757422Y-72632500D02*
X128274578Y-72632500D01*
G04 #@! TO.C,R34*
X120200922Y-74728000D02*
X120718078Y-74728000D01*
X120200922Y-76148000D02*
X120718078Y-76148000D01*
G04 #@! TO.C,R35*
X120200922Y-74116000D02*
X120718078Y-74116000D01*
X120200922Y-72696000D02*
X120718078Y-72696000D01*
G04 #@! TO.C,R36*
X124281000Y-70035922D02*
X124281000Y-70553078D01*
X122861000Y-70035922D02*
X122861000Y-70553078D01*
G04 #@! TO.C,J6*
X56455000Y-131893000D02*
X56455000Y-137093000D01*
X79375000Y-131893000D02*
X56455000Y-131893000D01*
X81975000Y-137093000D02*
X56455000Y-137093000D01*
X79375000Y-131893000D02*
X79375000Y-134493000D01*
X79375000Y-134493000D02*
X81975000Y-134493000D01*
X81975000Y-134493000D02*
X81975000Y-137093000D01*
X80645000Y-131893000D02*
X81975000Y-131893000D01*
X81975000Y-131893000D02*
X81975000Y-133223000D01*
G04 #@! TO.C,C6*
X107922279Y-136459500D02*
X107596721Y-136459500D01*
X107922279Y-137479500D02*
X107596721Y-137479500D01*
G04 #@! TO.C,C7*
X110962221Y-136459500D02*
X111287779Y-136459500D01*
X110962221Y-137479500D02*
X111287779Y-137479500D01*
G04 #@! TO.C,R5*
X109700279Y-131510500D02*
X109374721Y-131510500D01*
X109700279Y-130490500D02*
X109374721Y-130490500D01*
G04 #@! TO.C,C12*
X106644221Y-113844800D02*
X106969779Y-113844800D01*
X106644221Y-112824800D02*
X106969779Y-112824800D01*
G04 #@! TO.C,C11*
X101471000Y-126451579D02*
X101471000Y-126126021D01*
X102491000Y-126451579D02*
X102491000Y-126126021D01*
G04 #@! TO.C,C10*
X120013000Y-125364021D02*
X120013000Y-125689579D01*
X121033000Y-125364021D02*
X121033000Y-125689579D01*
G04 #@! TO.C,C8*
X121033000Y-117236021D02*
X121033000Y-117561579D01*
X120013000Y-117236021D02*
X120013000Y-117561579D01*
G04 #@! TO.C,C99*
X72807152Y-106457550D02*
X72807152Y-106131992D01*
X71787152Y-106457550D02*
X71787152Y-106131992D01*
G04 #@! TO.C,C100*
X70822320Y-106131992D02*
X70822320Y-106457550D01*
X69802320Y-106131992D02*
X69802320Y-106457550D01*
G04 #@! TO.C,C101*
X76776808Y-106457550D02*
X76776808Y-106131992D01*
X75756808Y-106457550D02*
X75756808Y-106131992D01*
G04 #@! TO.C,C102*
X74791980Y-106131992D02*
X74791980Y-106457550D01*
X73771980Y-106131992D02*
X73771980Y-106457550D01*
G04 #@! TO.C,C103*
X80746464Y-106457550D02*
X80746464Y-106131992D01*
X79726464Y-106457550D02*
X79726464Y-106131992D01*
G04 #@! TO.C,C104*
X78761636Y-106131992D02*
X78761636Y-106457550D01*
X77741636Y-106131992D02*
X77741636Y-106457550D01*
G04 #@! TO.C,C105*
X84716120Y-106457550D02*
X84716120Y-106131992D01*
X83696120Y-106457550D02*
X83696120Y-106131992D01*
G04 #@! TO.C,C106*
X82731292Y-106131992D02*
X82731292Y-106457550D01*
X81711292Y-106131992D02*
X81711292Y-106457550D01*
G04 #@! TO.C,Q1*
X108015500Y-63952000D02*
X108015500Y-64882000D01*
X108015500Y-67112000D02*
X108015500Y-66182000D01*
X108015500Y-67112000D02*
X110175500Y-67112000D01*
X108015500Y-63952000D02*
X109475500Y-63952000D01*
G04 #@! TO.C,C25*
X93625500Y-101569436D02*
X93625500Y-102773564D01*
X90905500Y-101569436D02*
X90905500Y-102773564D01*
G04 #@! TO.C,D5*
X122399000Y-88137000D02*
X122399000Y-84837000D01*
X122399000Y-84837000D02*
X116999000Y-84837000D01*
X122399000Y-88137000D02*
X116999000Y-88137000D01*
G04 #@! TO.C,J12*
X90051131Y-76879418D02*
X89451131Y-76579418D01*
X90051131Y-76279418D02*
X90051131Y-76879418D01*
X89451131Y-76579418D02*
X90051131Y-76279418D01*
X79031131Y-80389418D02*
X89251131Y-80389418D01*
X79031131Y-71669418D02*
X79031131Y-80389418D01*
X89251131Y-71669418D02*
X79031131Y-71669418D01*
X89251131Y-80389418D02*
X89251131Y-71669418D01*
G04 #@! TO.C,J13*
X101062131Y-80389418D02*
X101062131Y-71669418D01*
X101062131Y-71669418D02*
X90842131Y-71669418D01*
X90842131Y-71669418D02*
X90842131Y-80389418D01*
X90842131Y-80389418D02*
X101062131Y-80389418D01*
X101262131Y-76579418D02*
X101862131Y-76279418D01*
X101862131Y-76279418D02*
X101862131Y-76879418D01*
X101862131Y-76879418D02*
X101262131Y-76579418D01*
G04 #@! TO.C,J11*
X78240131Y-76879418D02*
X77640131Y-76579418D01*
X78240131Y-76279418D02*
X78240131Y-76879418D01*
X77640131Y-76579418D02*
X78240131Y-76279418D01*
X67220131Y-80389418D02*
X77440131Y-80389418D01*
X67220131Y-71669418D02*
X67220131Y-80389418D01*
X77440131Y-71669418D02*
X67220131Y-71669418D01*
X77440131Y-80389418D02*
X77440131Y-71669418D01*
G04 #@! TO.C,J10*
X65629131Y-80389418D02*
X65629131Y-71669418D01*
X65629131Y-71669418D02*
X55409131Y-71669418D01*
X55409131Y-71669418D02*
X55409131Y-80389418D01*
X55409131Y-80389418D02*
X65629131Y-80389418D01*
X65829131Y-76579418D02*
X66429131Y-76279418D01*
X66429131Y-76279418D02*
X66429131Y-76879418D01*
X66429131Y-76879418D02*
X65829131Y-76579418D01*
G04 #@! TO.C,C2*
X119709000Y-66108078D02*
X119709000Y-65590922D01*
X118289000Y-66108078D02*
X118289000Y-65590922D01*
G04 #@! TO.C,C18*
X135688000Y-91586578D02*
X135688000Y-91069422D01*
X137108000Y-91586578D02*
X137108000Y-91069422D01*
G04 #@! TO.C,C19*
X122376000Y-101033078D02*
X122376000Y-100515922D01*
X120956000Y-101033078D02*
X120956000Y-100515922D01*
G04 #@! TO.C,C20*
X135307000Y-71061078D02*
X135307000Y-70543922D01*
X136727000Y-71061078D02*
X136727000Y-70543922D01*
G04 #@! TO.C,C21*
X127773500Y-81094078D02*
X127773500Y-80576922D01*
X126353500Y-81094078D02*
X126353500Y-80576922D01*
G04 #@! TO.C,C22*
X132957500Y-99064578D02*
X132957500Y-98547422D01*
X134377500Y-99064578D02*
X134377500Y-98547422D01*
G04 #@! TO.C,C23*
X125233500Y-81094078D02*
X125233500Y-80576922D01*
X123813500Y-81094078D02*
X123813500Y-80576922D01*
G04 #@! TO.C,C24*
X127503422Y-93460500D02*
X128020578Y-93460500D01*
X127503422Y-94880500D02*
X128020578Y-94880500D01*
G04 #@! TO.C,C28*
X111542942Y-91223858D02*
X111542942Y-90706702D01*
X110122942Y-91223858D02*
X110122942Y-90706702D01*
G04 #@! TO.C,C29*
X112408942Y-91223858D02*
X112408942Y-90706702D01*
X113828942Y-91223858D02*
X113828942Y-90706702D01*
G04 #@! TO.C,C30*
X110224500Y-106294422D02*
X110224500Y-106811578D01*
X111644500Y-106294422D02*
X111644500Y-106811578D01*
G04 #@! TO.C,C31*
X115130078Y-107644000D02*
X114612922Y-107644000D01*
X115130078Y-106224000D02*
X114612922Y-106224000D01*
G04 #@! TO.C,C26*
X136266422Y-101080500D02*
X136783578Y-101080500D01*
X136266422Y-102500500D02*
X136783578Y-102500500D01*
G04 #@! TO.C,C125*
X135266500Y-110926378D02*
X135266500Y-110409222D01*
X133846500Y-110926378D02*
X133846500Y-110409222D01*
G04 #@! TO.C,C111*
X60701422Y-85290418D02*
X61218578Y-85290418D01*
X60701422Y-83870418D02*
X61218578Y-83870418D01*
G04 #@! TO.C,C113*
X82418422Y-83933918D02*
X82935578Y-83933918D01*
X82418422Y-85353918D02*
X82935578Y-85353918D01*
G04 #@! TO.C,C112*
X99182422Y-85419000D02*
X99699578Y-85419000D01*
X99182422Y-83999000D02*
X99699578Y-83999000D01*
G04 #@! TO.C,C126*
X133107500Y-110926378D02*
X133107500Y-110409222D01*
X131687500Y-110926378D02*
X131687500Y-110409222D01*
G04 #@! TO.C,C110*
X78254553Y-83933918D02*
X78771709Y-83933918D01*
X78254553Y-85353918D02*
X78771709Y-85353918D01*
G04 #@! TO.C,J5*
X139259000Y-65108000D02*
X140309000Y-65108000D01*
X140309000Y-64058000D02*
X140309000Y-65108000D01*
X130909000Y-59008000D02*
X130909000Y-50208000D01*
X130909000Y-50208000D02*
X140109000Y-50208000D01*
X133609000Y-64908000D02*
X130909000Y-64908000D01*
X130909000Y-64908000D02*
X130909000Y-63008000D01*
X140109000Y-50208000D02*
X140109000Y-64908000D01*
X140109000Y-64908000D02*
X137509000Y-64908000D01*
G04 #@! TO.C,J1*
X66989000Y-124781000D02*
X66989000Y-126111000D01*
X65659000Y-124781000D02*
X66989000Y-124781000D01*
X64389000Y-124781000D02*
X64389000Y-127441000D01*
X64389000Y-127441000D02*
X56709000Y-127441000D01*
X64389000Y-124781000D02*
X56709000Y-124781000D01*
X56709000Y-124781000D02*
X56709000Y-127441000D01*
G04 #@! TO.C,J2*
X117084800Y-145164500D02*
X117084800Y-147824500D01*
X124764800Y-145164500D02*
X117084800Y-145164500D01*
X124764800Y-147824500D02*
X117084800Y-147824500D01*
X124764800Y-145164500D02*
X124764800Y-147824500D01*
X126034800Y-145164500D02*
X127364800Y-145164500D01*
X127364800Y-145164500D02*
X127364800Y-146494500D01*
G04 #@! TO.C,J4*
X88128800Y-142561000D02*
X88128800Y-147761000D01*
X111048800Y-142561000D02*
X88128800Y-142561000D01*
X113648800Y-147761000D02*
X88128800Y-147761000D01*
X111048800Y-142561000D02*
X111048800Y-145161000D01*
X111048800Y-145161000D02*
X113648800Y-145161000D01*
X113648800Y-145161000D02*
X113648800Y-147761000D01*
X112318800Y-142561000D02*
X113648800Y-142561000D01*
X113648800Y-142561000D02*
X113648800Y-143891000D01*
G04 #@! TO.C,Y1*
X112224800Y-132058000D02*
X106474800Y-132058000D01*
X106474800Y-132058000D02*
X106474800Y-135658000D01*
X106474800Y-135658000D02*
X112224800Y-135658000D01*
G04 #@! TO.C,FB1*
X135292000Y-82453564D02*
X135292000Y-81249436D01*
X138012000Y-82453564D02*
X138012000Y-81249436D01*
G04 #@! TO.C,L5*
X76569188Y-87732325D02*
X78269188Y-87732325D01*
X78269188Y-87732325D02*
X78269188Y-94332325D01*
X78269188Y-94332325D02*
X76569188Y-94332325D01*
X73569188Y-94332325D02*
X71869188Y-94332325D01*
X71869188Y-94332325D02*
X71869188Y-87732325D01*
X71869188Y-87732325D02*
X73569188Y-87732325D01*
G04 #@! TO.C,L2*
X115445000Y-90384500D02*
X115445000Y-88684500D01*
X115445000Y-88684500D02*
X122045000Y-88684500D01*
X122045000Y-88684500D02*
X122045000Y-90384500D01*
X122045000Y-93384500D02*
X122045000Y-95084500D01*
X122045000Y-95084500D02*
X115445000Y-95084500D01*
X115445000Y-95084500D02*
X115445000Y-93384500D01*
G04 #@! TO.C,L6*
X93822044Y-87732325D02*
X95522044Y-87732325D01*
X93822044Y-94332325D02*
X93822044Y-87732325D01*
X95522044Y-94332325D02*
X93822044Y-94332325D01*
X100222044Y-94332325D02*
X98522044Y-94332325D01*
X100222044Y-87732325D02*
X100222044Y-94332325D01*
X98522044Y-87732325D02*
X100222044Y-87732325D01*
G04 #@! TO.C,L10*
X87545616Y-87732325D02*
X89245616Y-87732325D01*
X89245616Y-87732325D02*
X89245616Y-94332325D01*
X89245616Y-94332325D02*
X87545616Y-94332325D01*
X84545616Y-94332325D02*
X82845616Y-94332325D01*
X82845616Y-94332325D02*
X82845616Y-87732325D01*
X82845616Y-87732325D02*
X84545616Y-87732325D01*
G04 #@! TO.C,L9*
X60892760Y-87732325D02*
X62592760Y-87732325D01*
X60892760Y-94332325D02*
X60892760Y-87732325D01*
X62592760Y-94332325D02*
X60892760Y-94332325D01*
X67292760Y-94332325D02*
X65592760Y-94332325D01*
X67292760Y-87732325D02*
X67292760Y-94332325D01*
X65592760Y-87732325D02*
X67292760Y-87732325D01*
G04 #@! TO.C,D9*
X137893300Y-124655700D02*
X135208300Y-124655700D01*
X135208300Y-124655700D02*
X135208300Y-126575700D01*
X135208300Y-126575700D02*
X137893300Y-126575700D01*
G04 #@! TO.C,D10*
X135208300Y-124467500D02*
X137893300Y-124467500D01*
X135208300Y-122547500D02*
X135208300Y-124467500D01*
X137893300Y-122547500D02*
X135208300Y-122547500D01*
G04 #@! TO.C,D6*
X136445500Y-143439000D02*
X133760500Y-143439000D01*
X133760500Y-143439000D02*
X133760500Y-145359000D01*
X133760500Y-145359000D02*
X136445500Y-145359000D01*
D12*
G04 #@! TO.C,U2*
X105950000Y-126891800D02*
X106950000Y-126891800D01*
X105950000Y-116541800D02*
X107025000Y-116541800D01*
X116300000Y-116541800D02*
X115225000Y-116541800D01*
X116300000Y-126891800D02*
X115225000Y-126891800D01*
X105950000Y-126891800D02*
X105950000Y-125816800D01*
X116300000Y-126891800D02*
X116300000Y-125816800D01*
X116300000Y-116541800D02*
X116300000Y-117616800D01*
X105950000Y-116541800D02*
X105950000Y-117616800D01*
X106950000Y-126891800D02*
X106950000Y-127916800D01*
G04 #@! TO.C,U5*
X116488500Y-103415500D02*
X116423500Y-103415500D01*
X112238500Y-103415500D02*
X112303500Y-103415500D01*
X112238500Y-100165500D02*
X112303500Y-100165500D01*
X116488500Y-100165500D02*
X116488500Y-103415500D01*
X112238500Y-100165500D02*
X112238500Y-103415500D01*
X116488500Y-100165500D02*
X116488500Y-99240500D01*
G04 #@! TO.C,U3*
X129837000Y-91933000D02*
X131237000Y-91933000D01*
X129837000Y-86833000D02*
X125687000Y-86833000D01*
X129837000Y-91983000D02*
X125687000Y-91983000D01*
X129837000Y-86833000D02*
X129837000Y-86978000D01*
X125687000Y-86833000D02*
X125687000Y-86978000D01*
X125687000Y-91983000D02*
X125687000Y-91838000D01*
X129837000Y-91983000D02*
X129837000Y-91933000D01*
D11*
G04 #@! TO.C,U4*
X129608500Y-104184500D02*
X129608500Y-102924500D01*
X129608500Y-97364500D02*
X129608500Y-98624500D01*
X125848500Y-104184500D02*
X129608500Y-104184500D01*
X123598500Y-97364500D02*
X129608500Y-97364500D01*
G04 #@! TO.C,R20*
X131249922Y-84189500D02*
X131767078Y-84189500D01*
X131249922Y-85609500D02*
X131767078Y-85609500D01*
G04 #@! TO.C,R12*
X119883422Y-133933000D02*
X120400578Y-133933000D01*
X119883422Y-132513000D02*
X120400578Y-132513000D01*
G04 #@! TO.C,R18*
X134885500Y-91571578D02*
X134885500Y-91054422D01*
X133465500Y-91571578D02*
X133465500Y-91054422D01*
G04 #@! TO.C,R19*
X133465500Y-88142578D02*
X133465500Y-87625422D01*
X134885500Y-88142578D02*
X134885500Y-87625422D01*
G04 #@! TO.C,R21*
X125401000Y-84713578D02*
X125401000Y-84196422D01*
X126821000Y-84713578D02*
X126821000Y-84196422D01*
G04 #@! TO.C,R22*
X136783578Y-98921500D02*
X136266422Y-98921500D01*
X136783578Y-100341500D02*
X136266422Y-100341500D01*
G04 #@! TO.C,R23*
X107853102Y-91256913D02*
X107853102Y-90739757D01*
X109273102Y-91256913D02*
X109273102Y-90739757D01*
G04 #@! TO.C,R24*
X109273102Y-87634578D02*
X109273102Y-87117422D01*
X107853102Y-87634578D02*
X107853102Y-87117422D01*
G04 #@! TO.C,R25*
X131439004Y-143654940D02*
X131956160Y-143654940D01*
X131439004Y-145074940D02*
X131956160Y-145074940D01*
G04 #@! TO.C,R26*
X109669078Y-94222500D02*
X109151922Y-94222500D01*
X109669078Y-95642500D02*
X109151922Y-95642500D01*
G04 #@! TO.C,R27*
X106160500Y-106811578D02*
X106160500Y-106294422D01*
X107580500Y-106811578D02*
X107580500Y-106294422D01*
G04 #@! TO.C,R29*
X107176500Y-100437422D02*
X107176500Y-100954578D01*
X108596500Y-100437422D02*
X108596500Y-100954578D01*
G04 #@! TO.C,R28*
X109610579Y-106310899D02*
X109610579Y-106828055D01*
X108190579Y-106310899D02*
X108190579Y-106828055D01*
G04 #@! TO.C,R30*
X110692000Y-100969578D02*
X110692000Y-100452422D01*
X109272000Y-100969578D02*
X109272000Y-100452422D01*
G04 #@! TO.C,R11*
X112961922Y-67385000D02*
X113479078Y-67385000D01*
X112961922Y-65965000D02*
X113479078Y-65965000D01*
G04 #@! TO.C,R70*
X132799322Y-126249500D02*
X133316478Y-126249500D01*
X132799322Y-124829500D02*
X133316478Y-124829500D01*
G04 #@! TO.C,R71*
X132824722Y-122797500D02*
X133341878Y-122797500D01*
X132824722Y-124217500D02*
X133341878Y-124217500D01*
G04 #@! TO.C,R73*
X135942000Y-110939078D02*
X135942000Y-110421922D01*
X137362000Y-110939078D02*
X137362000Y-110421922D01*
G04 #@! TO.C,R10*
X113479078Y-63933000D02*
X112961922Y-63933000D01*
X113479078Y-65353000D02*
X112961922Y-65353000D01*
G04 #@! TO.C,R8*
X105548500Y-63377578D02*
X105548500Y-62860422D01*
X104128500Y-63377578D02*
X104128500Y-62860422D01*
G04 #@! TO.C,R7*
X108843578Y-63067000D02*
X108326422Y-63067000D01*
X108843578Y-61647000D02*
X108326422Y-61647000D01*
G04 #@! TO.C,R2*
X116193500Y-66108078D02*
X116193500Y-65590922D01*
X117613500Y-66108078D02*
X117613500Y-65590922D01*
G04 #@! TO.C,R9*
X103503800Y-63364878D02*
X103503800Y-62847722D01*
X102083800Y-63364878D02*
X102083800Y-62847722D01*
G04 #@! TO.C,R1*
X90181500Y-135440922D02*
X90181500Y-135958078D01*
X88761500Y-135440922D02*
X88761500Y-135958078D01*
G04 #@! TO.C,H4*
D12*
X129667095Y-136386380D02*
X129667095Y-135386380D01*
X129667095Y-135862571D02*
X130238523Y-135862571D01*
X130238523Y-136386380D02*
X130238523Y-135386380D01*
X131143285Y-135719714D02*
X131143285Y-136386380D01*
X130905190Y-135338761D02*
X130667095Y-136053047D01*
X131286142Y-136053047D01*
G04 #@! TO.C,H3*
X98806095Y-108700380D02*
X98806095Y-107700380D01*
X98806095Y-108176571D02*
X99377523Y-108176571D01*
X99377523Y-108700380D02*
X99377523Y-107700380D01*
X99758476Y-107700380D02*
X100377523Y-107700380D01*
X100044190Y-108081333D01*
X100187047Y-108081333D01*
X100282285Y-108128952D01*
X100329904Y-108176571D01*
X100377523Y-108271809D01*
X100377523Y-108509904D01*
X100329904Y-108605142D01*
X100282285Y-108652761D01*
X100187047Y-108700380D01*
X99901333Y-108700380D01*
X99806095Y-108652761D01*
X99758476Y-108605142D01*
G04 #@! TO.C,H2*
X56896095Y-116701380D02*
X56896095Y-115701380D01*
X56896095Y-116177571D02*
X57467523Y-116177571D01*
X57467523Y-116701380D02*
X57467523Y-115701380D01*
X57896095Y-115796619D02*
X57943714Y-115749000D01*
X58038952Y-115701380D01*
X58277047Y-115701380D01*
X58372285Y-115749000D01*
X58419904Y-115796619D01*
X58467523Y-115891857D01*
X58467523Y-115987095D01*
X58419904Y-116129952D01*
X57848476Y-116701380D01*
X58467523Y-116701380D01*
G04 #@! TO.C,H1*
X113411095Y-79744380D02*
X113411095Y-78744380D01*
X113411095Y-79220571D02*
X113982523Y-79220571D01*
X113982523Y-79744380D02*
X113982523Y-78744380D01*
X114982523Y-79744380D02*
X114411095Y-79744380D01*
X114696809Y-79744380D02*
X114696809Y-78744380D01*
X114601571Y-78887238D01*
X114506333Y-78982476D01*
X114411095Y-79030095D01*
G04 #@! TO.C,J7*
X139875880Y-137142833D02*
X140590166Y-137142833D01*
X140733023Y-137190452D01*
X140828261Y-137285690D01*
X140875880Y-137428547D01*
X140875880Y-137523785D01*
X139875880Y-136761880D02*
X139875880Y-136095214D01*
X140875880Y-136523785D01*
G04 #@! TO.C,J3*
X104298999Y-52033846D02*
X103584713Y-52033846D01*
X103441856Y-51986227D01*
X103346618Y-51890989D01*
X103298999Y-51748132D01*
X103298999Y-51652894D01*
X104298999Y-52414799D02*
X104298999Y-53033846D01*
X103918046Y-52700513D01*
X103918046Y-52843370D01*
X103870427Y-52938608D01*
X103822808Y-52986227D01*
X103727570Y-53033846D01*
X103489475Y-53033846D01*
X103394237Y-52986227D01*
X103346618Y-52938608D01*
X103298999Y-52843370D01*
X103298999Y-52557656D01*
X103346618Y-52462418D01*
X103394237Y-52414799D01*
G04 #@! TO.C,C32*
X65692642Y-103319357D02*
X65740261Y-103366976D01*
X65787880Y-103509833D01*
X65787880Y-103605071D01*
X65740261Y-103747928D01*
X65645023Y-103843166D01*
X65549785Y-103890785D01*
X65359309Y-103938404D01*
X65216452Y-103938404D01*
X65025976Y-103890785D01*
X64930738Y-103843166D01*
X64835500Y-103747928D01*
X64787880Y-103605071D01*
X64787880Y-103509833D01*
X64835500Y-103366976D01*
X64883119Y-103319357D01*
X64787880Y-102986023D02*
X64787880Y-102366976D01*
X65168833Y-102700309D01*
X65168833Y-102557452D01*
X65216452Y-102462214D01*
X65264071Y-102414595D01*
X65359309Y-102366976D01*
X65597404Y-102366976D01*
X65692642Y-102414595D01*
X65740261Y-102462214D01*
X65787880Y-102557452D01*
X65787880Y-102843166D01*
X65740261Y-102938404D01*
X65692642Y-102986023D01*
X64883119Y-101986023D02*
X64835500Y-101938404D01*
X64787880Y-101843166D01*
X64787880Y-101605071D01*
X64835500Y-101509833D01*
X64883119Y-101462214D01*
X64978357Y-101414595D01*
X65073595Y-101414595D01*
X65216452Y-101462214D01*
X65787880Y-102033642D01*
X65787880Y-101414595D01*
G04 #@! TO.C,C45*
X65254142Y-117228857D02*
X65301761Y-117276476D01*
X65349380Y-117419333D01*
X65349380Y-117514571D01*
X65301761Y-117657428D01*
X65206523Y-117752666D01*
X65111285Y-117800285D01*
X64920809Y-117847904D01*
X64777952Y-117847904D01*
X64587476Y-117800285D01*
X64492238Y-117752666D01*
X64397000Y-117657428D01*
X64349380Y-117514571D01*
X64349380Y-117419333D01*
X64397000Y-117276476D01*
X64444619Y-117228857D01*
X64682714Y-116371714D02*
X65349380Y-116371714D01*
X64301761Y-116609809D02*
X65016047Y-116847904D01*
X65016047Y-116228857D01*
X64349380Y-115371714D02*
X64349380Y-115847904D01*
X64825571Y-115895523D01*
X64777952Y-115847904D01*
X64730333Y-115752666D01*
X64730333Y-115514571D01*
X64777952Y-115419333D01*
X64825571Y-115371714D01*
X64920809Y-115324095D01*
X65158904Y-115324095D01*
X65254142Y-115371714D01*
X65301761Y-115419333D01*
X65349380Y-115514571D01*
X65349380Y-115752666D01*
X65301761Y-115847904D01*
X65254142Y-115895523D01*
G04 #@! TO.C,R17*
X98623380Y-66809857D02*
X98147190Y-67143190D01*
X98623380Y-67381285D02*
X97623380Y-67381285D01*
X97623380Y-67000333D01*
X97671000Y-66905095D01*
X97718619Y-66857476D01*
X97813857Y-66809857D01*
X97956714Y-66809857D01*
X98051952Y-66857476D01*
X98099571Y-66905095D01*
X98147190Y-67000333D01*
X98147190Y-67381285D01*
X98623380Y-65857476D02*
X98623380Y-66428904D01*
X98623380Y-66143190D02*
X97623380Y-66143190D01*
X97766238Y-66238428D01*
X97861476Y-66333666D01*
X97909095Y-66428904D01*
X97623380Y-65524142D02*
X97623380Y-64857476D01*
X98623380Y-65286047D01*
G04 #@! TO.C,R39*
X100782380Y-67063857D02*
X100306190Y-67397190D01*
X100782380Y-67635285D02*
X99782380Y-67635285D01*
X99782380Y-67254333D01*
X99830000Y-67159095D01*
X99877619Y-67111476D01*
X99972857Y-67063857D01*
X100115714Y-67063857D01*
X100210952Y-67111476D01*
X100258571Y-67159095D01*
X100306190Y-67254333D01*
X100306190Y-67635285D01*
X99782380Y-66730523D02*
X99782380Y-66111476D01*
X100163333Y-66444809D01*
X100163333Y-66301952D01*
X100210952Y-66206714D01*
X100258571Y-66159095D01*
X100353809Y-66111476D01*
X100591904Y-66111476D01*
X100687142Y-66159095D01*
X100734761Y-66206714D01*
X100782380Y-66301952D01*
X100782380Y-66587666D01*
X100734761Y-66682904D01*
X100687142Y-66730523D01*
X100782380Y-65635285D02*
X100782380Y-65444809D01*
X100734761Y-65349571D01*
X100687142Y-65301952D01*
X100544285Y-65206714D01*
X100353809Y-65159095D01*
X99972857Y-65159095D01*
X99877619Y-65206714D01*
X99830000Y-65254333D01*
X99782380Y-65349571D01*
X99782380Y-65540047D01*
X99830000Y-65635285D01*
X99877619Y-65682904D01*
X99972857Y-65730523D01*
X100210952Y-65730523D01*
X100306190Y-65682904D01*
X100353809Y-65635285D01*
X100401428Y-65540047D01*
X100401428Y-65349571D01*
X100353809Y-65254333D01*
X100306190Y-65206714D01*
X100210952Y-65159095D01*
G04 #@! TO.C,C38*
X77573142Y-99956857D02*
X77620761Y-100004476D01*
X77668380Y-100147333D01*
X77668380Y-100242571D01*
X77620761Y-100385428D01*
X77525523Y-100480666D01*
X77430285Y-100528285D01*
X77239809Y-100575904D01*
X77096952Y-100575904D01*
X76906476Y-100528285D01*
X76811238Y-100480666D01*
X76716000Y-100385428D01*
X76668380Y-100242571D01*
X76668380Y-100147333D01*
X76716000Y-100004476D01*
X76763619Y-99956857D01*
X76668380Y-99623523D02*
X76668380Y-99004476D01*
X77049333Y-99337809D01*
X77049333Y-99194952D01*
X77096952Y-99099714D01*
X77144571Y-99052095D01*
X77239809Y-99004476D01*
X77477904Y-99004476D01*
X77573142Y-99052095D01*
X77620761Y-99099714D01*
X77668380Y-99194952D01*
X77668380Y-99480666D01*
X77620761Y-99575904D01*
X77573142Y-99623523D01*
X77096952Y-98433047D02*
X77049333Y-98528285D01*
X77001714Y-98575904D01*
X76906476Y-98623523D01*
X76858857Y-98623523D01*
X76763619Y-98575904D01*
X76716000Y-98528285D01*
X76668380Y-98433047D01*
X76668380Y-98242571D01*
X76716000Y-98147333D01*
X76763619Y-98099714D01*
X76858857Y-98052095D01*
X76906476Y-98052095D01*
X77001714Y-98099714D01*
X77049333Y-98147333D01*
X77096952Y-98242571D01*
X77096952Y-98433047D01*
X77144571Y-98528285D01*
X77192190Y-98575904D01*
X77287428Y-98623523D01*
X77477904Y-98623523D01*
X77573142Y-98575904D01*
X77620761Y-98528285D01*
X77668380Y-98433047D01*
X77668380Y-98242571D01*
X77620761Y-98147333D01*
X77573142Y-98099714D01*
X77477904Y-98052095D01*
X77287428Y-98052095D01*
X77192190Y-98099714D01*
X77144571Y-98147333D01*
X77096952Y-98242571D01*
G04 #@! TO.C,C36*
X73445642Y-120657857D02*
X73493261Y-120705476D01*
X73540880Y-120848333D01*
X73540880Y-120943571D01*
X73493261Y-121086428D01*
X73398023Y-121181666D01*
X73302785Y-121229285D01*
X73112309Y-121276904D01*
X72969452Y-121276904D01*
X72778976Y-121229285D01*
X72683738Y-121181666D01*
X72588500Y-121086428D01*
X72540880Y-120943571D01*
X72540880Y-120848333D01*
X72588500Y-120705476D01*
X72636119Y-120657857D01*
X72540880Y-120324523D02*
X72540880Y-119705476D01*
X72921833Y-120038809D01*
X72921833Y-119895952D01*
X72969452Y-119800714D01*
X73017071Y-119753095D01*
X73112309Y-119705476D01*
X73350404Y-119705476D01*
X73445642Y-119753095D01*
X73493261Y-119800714D01*
X73540880Y-119895952D01*
X73540880Y-120181666D01*
X73493261Y-120276904D01*
X73445642Y-120324523D01*
X72540880Y-118848333D02*
X72540880Y-119038809D01*
X72588500Y-119134047D01*
X72636119Y-119181666D01*
X72778976Y-119276904D01*
X72969452Y-119324523D01*
X73350404Y-119324523D01*
X73445642Y-119276904D01*
X73493261Y-119229285D01*
X73540880Y-119134047D01*
X73540880Y-118943571D01*
X73493261Y-118848333D01*
X73445642Y-118800714D01*
X73350404Y-118753095D01*
X73112309Y-118753095D01*
X73017071Y-118800714D01*
X72969452Y-118848333D01*
X72921833Y-118943571D01*
X72921833Y-119134047D01*
X72969452Y-119229285D01*
X73017071Y-119276904D01*
X73112309Y-119324523D01*
G04 #@! TO.C,C35*
X75414142Y-99575857D02*
X75461761Y-99623476D01*
X75509380Y-99766333D01*
X75509380Y-99861571D01*
X75461761Y-100004428D01*
X75366523Y-100099666D01*
X75271285Y-100147285D01*
X75080809Y-100194904D01*
X74937952Y-100194904D01*
X74747476Y-100147285D01*
X74652238Y-100099666D01*
X74557000Y-100004428D01*
X74509380Y-99861571D01*
X74509380Y-99766333D01*
X74557000Y-99623476D01*
X74604619Y-99575857D01*
X74509380Y-99242523D02*
X74509380Y-98623476D01*
X74890333Y-98956809D01*
X74890333Y-98813952D01*
X74937952Y-98718714D01*
X74985571Y-98671095D01*
X75080809Y-98623476D01*
X75318904Y-98623476D01*
X75414142Y-98671095D01*
X75461761Y-98718714D01*
X75509380Y-98813952D01*
X75509380Y-99099666D01*
X75461761Y-99194904D01*
X75414142Y-99242523D01*
X74509380Y-97718714D02*
X74509380Y-98194904D01*
X74985571Y-98242523D01*
X74937952Y-98194904D01*
X74890333Y-98099666D01*
X74890333Y-97861571D01*
X74937952Y-97766333D01*
X74985571Y-97718714D01*
X75080809Y-97671095D01*
X75318904Y-97671095D01*
X75414142Y-97718714D01*
X75461761Y-97766333D01*
X75509380Y-97861571D01*
X75509380Y-98099666D01*
X75461761Y-98194904D01*
X75414142Y-98242523D01*
G04 #@! TO.C,C40*
X75858642Y-120657857D02*
X75906261Y-120705476D01*
X75953880Y-120848333D01*
X75953880Y-120943571D01*
X75906261Y-121086428D01*
X75811023Y-121181666D01*
X75715785Y-121229285D01*
X75525309Y-121276904D01*
X75382452Y-121276904D01*
X75191976Y-121229285D01*
X75096738Y-121181666D01*
X75001500Y-121086428D01*
X74953880Y-120943571D01*
X74953880Y-120848333D01*
X75001500Y-120705476D01*
X75049119Y-120657857D01*
X75287214Y-119800714D02*
X75953880Y-119800714D01*
X74906261Y-120038809D02*
X75620547Y-120276904D01*
X75620547Y-119657857D01*
X74953880Y-119086428D02*
X74953880Y-118991190D01*
X75001500Y-118895952D01*
X75049119Y-118848333D01*
X75144357Y-118800714D01*
X75334833Y-118753095D01*
X75572928Y-118753095D01*
X75763404Y-118800714D01*
X75858642Y-118848333D01*
X75906261Y-118895952D01*
X75953880Y-118991190D01*
X75953880Y-119086428D01*
X75906261Y-119181666D01*
X75858642Y-119229285D01*
X75763404Y-119276904D01*
X75572928Y-119324523D01*
X75334833Y-119324523D01*
X75144357Y-119276904D01*
X75049119Y-119229285D01*
X75001500Y-119181666D01*
X74953880Y-119086428D01*
G04 #@! TO.C,C49*
X63412642Y-117355857D02*
X63460261Y-117403476D01*
X63507880Y-117546333D01*
X63507880Y-117641571D01*
X63460261Y-117784428D01*
X63365023Y-117879666D01*
X63269785Y-117927285D01*
X63079309Y-117974904D01*
X62936452Y-117974904D01*
X62745976Y-117927285D01*
X62650738Y-117879666D01*
X62555500Y-117784428D01*
X62507880Y-117641571D01*
X62507880Y-117546333D01*
X62555500Y-117403476D01*
X62603119Y-117355857D01*
X62841214Y-116498714D02*
X63507880Y-116498714D01*
X62460261Y-116736809D02*
X63174547Y-116974904D01*
X63174547Y-116355857D01*
X63507880Y-115927285D02*
X63507880Y-115736809D01*
X63460261Y-115641571D01*
X63412642Y-115593952D01*
X63269785Y-115498714D01*
X63079309Y-115451095D01*
X62698357Y-115451095D01*
X62603119Y-115498714D01*
X62555500Y-115546333D01*
X62507880Y-115641571D01*
X62507880Y-115832047D01*
X62555500Y-115927285D01*
X62603119Y-115974904D01*
X62698357Y-116022523D01*
X62936452Y-116022523D01*
X63031690Y-115974904D01*
X63079309Y-115927285D01*
X63126928Y-115832047D01*
X63126928Y-115641571D01*
X63079309Y-115546333D01*
X63031690Y-115498714D01*
X62936452Y-115451095D01*
G04 #@! TO.C,C48*
X82478642Y-116436142D02*
X82431023Y-116483761D01*
X82288166Y-116531380D01*
X82192928Y-116531380D01*
X82050071Y-116483761D01*
X81954833Y-116388523D01*
X81907214Y-116293285D01*
X81859595Y-116102809D01*
X81859595Y-115959952D01*
X81907214Y-115769476D01*
X81954833Y-115674238D01*
X82050071Y-115579000D01*
X82192928Y-115531380D01*
X82288166Y-115531380D01*
X82431023Y-115579000D01*
X82478642Y-115626619D01*
X83335785Y-115864714D02*
X83335785Y-116531380D01*
X83097690Y-115483761D02*
X82859595Y-116198047D01*
X83478642Y-116198047D01*
X84002452Y-115959952D02*
X83907214Y-115912333D01*
X83859595Y-115864714D01*
X83811976Y-115769476D01*
X83811976Y-115721857D01*
X83859595Y-115626619D01*
X83907214Y-115579000D01*
X84002452Y-115531380D01*
X84192928Y-115531380D01*
X84288166Y-115579000D01*
X84335785Y-115626619D01*
X84383404Y-115721857D01*
X84383404Y-115769476D01*
X84335785Y-115864714D01*
X84288166Y-115912333D01*
X84192928Y-115959952D01*
X84002452Y-115959952D01*
X83907214Y-116007571D01*
X83859595Y-116055190D01*
X83811976Y-116150428D01*
X83811976Y-116340904D01*
X83859595Y-116436142D01*
X83907214Y-116483761D01*
X84002452Y-116531380D01*
X84192928Y-116531380D01*
X84288166Y-116483761D01*
X84335785Y-116436142D01*
X84383404Y-116340904D01*
X84383404Y-116150428D01*
X84335785Y-116055190D01*
X84288166Y-116007571D01*
X84192928Y-115959952D01*
G04 #@! TO.C,C47*
X78716142Y-120721357D02*
X78763761Y-120768976D01*
X78811380Y-120911833D01*
X78811380Y-121007071D01*
X78763761Y-121149928D01*
X78668523Y-121245166D01*
X78573285Y-121292785D01*
X78382809Y-121340404D01*
X78239952Y-121340404D01*
X78049476Y-121292785D01*
X77954238Y-121245166D01*
X77859000Y-121149928D01*
X77811380Y-121007071D01*
X77811380Y-120911833D01*
X77859000Y-120768976D01*
X77906619Y-120721357D01*
X78144714Y-119864214D02*
X78811380Y-119864214D01*
X77763761Y-120102309D02*
X78478047Y-120340404D01*
X78478047Y-119721357D01*
X77811380Y-119435642D02*
X77811380Y-118768976D01*
X78811380Y-119197547D01*
G04 #@! TO.C,C46*
X80557642Y-120721357D02*
X80605261Y-120768976D01*
X80652880Y-120911833D01*
X80652880Y-121007071D01*
X80605261Y-121149928D01*
X80510023Y-121245166D01*
X80414785Y-121292785D01*
X80224309Y-121340404D01*
X80081452Y-121340404D01*
X79890976Y-121292785D01*
X79795738Y-121245166D01*
X79700500Y-121149928D01*
X79652880Y-121007071D01*
X79652880Y-120911833D01*
X79700500Y-120768976D01*
X79748119Y-120721357D01*
X79986214Y-119864214D02*
X80652880Y-119864214D01*
X79605261Y-120102309D02*
X80319547Y-120340404D01*
X80319547Y-119721357D01*
X79652880Y-118911833D02*
X79652880Y-119102309D01*
X79700500Y-119197547D01*
X79748119Y-119245166D01*
X79890976Y-119340404D01*
X80081452Y-119388023D01*
X80462404Y-119388023D01*
X80557642Y-119340404D01*
X80605261Y-119292785D01*
X80652880Y-119197547D01*
X80652880Y-119007071D01*
X80605261Y-118911833D01*
X80557642Y-118864214D01*
X80462404Y-118816595D01*
X80224309Y-118816595D01*
X80129071Y-118864214D01*
X80081452Y-118911833D01*
X80033833Y-119007071D01*
X80033833Y-119197547D01*
X80081452Y-119292785D01*
X80129071Y-119340404D01*
X80224309Y-119388023D01*
G04 #@! TO.C,C42*
X90406142Y-111640857D02*
X90453761Y-111688476D01*
X90501380Y-111831333D01*
X90501380Y-111926571D01*
X90453761Y-112069428D01*
X90358523Y-112164666D01*
X90263285Y-112212285D01*
X90072809Y-112259904D01*
X89929952Y-112259904D01*
X89739476Y-112212285D01*
X89644238Y-112164666D01*
X89549000Y-112069428D01*
X89501380Y-111926571D01*
X89501380Y-111831333D01*
X89549000Y-111688476D01*
X89596619Y-111640857D01*
X89834714Y-110783714D02*
X90501380Y-110783714D01*
X89453761Y-111021809D02*
X90168047Y-111259904D01*
X90168047Y-110640857D01*
X89596619Y-110307523D02*
X89549000Y-110259904D01*
X89501380Y-110164666D01*
X89501380Y-109926571D01*
X89549000Y-109831333D01*
X89596619Y-109783714D01*
X89691857Y-109736095D01*
X89787095Y-109736095D01*
X89929952Y-109783714D01*
X90501380Y-110355142D01*
X90501380Y-109736095D01*
G04 #@! TO.C,C43*
X56935642Y-117546357D02*
X56983261Y-117593976D01*
X57030880Y-117736833D01*
X57030880Y-117832071D01*
X56983261Y-117974928D01*
X56888023Y-118070166D01*
X56792785Y-118117785D01*
X56602309Y-118165404D01*
X56459452Y-118165404D01*
X56268976Y-118117785D01*
X56173738Y-118070166D01*
X56078500Y-117974928D01*
X56030880Y-117832071D01*
X56030880Y-117736833D01*
X56078500Y-117593976D01*
X56126119Y-117546357D01*
X56364214Y-116689214D02*
X57030880Y-116689214D01*
X55983261Y-116927309D02*
X56697547Y-117165404D01*
X56697547Y-116546357D01*
X56030880Y-116260642D02*
X56030880Y-115641595D01*
X56411833Y-115974928D01*
X56411833Y-115832071D01*
X56459452Y-115736833D01*
X56507071Y-115689214D01*
X56602309Y-115641595D01*
X56840404Y-115641595D01*
X56935642Y-115689214D01*
X56983261Y-115736833D01*
X57030880Y-115832071D01*
X57030880Y-116117785D01*
X56983261Y-116213023D01*
X56935642Y-116260642D01*
G04 #@! TO.C,C44*
X60301142Y-117292357D02*
X60348761Y-117339976D01*
X60396380Y-117482833D01*
X60396380Y-117578071D01*
X60348761Y-117720928D01*
X60253523Y-117816166D01*
X60158285Y-117863785D01*
X59967809Y-117911404D01*
X59824952Y-117911404D01*
X59634476Y-117863785D01*
X59539238Y-117816166D01*
X59444000Y-117720928D01*
X59396380Y-117578071D01*
X59396380Y-117482833D01*
X59444000Y-117339976D01*
X59491619Y-117292357D01*
X59729714Y-116435214D02*
X60396380Y-116435214D01*
X59348761Y-116673309D02*
X60063047Y-116911404D01*
X60063047Y-116292357D01*
X59729714Y-115482833D02*
X60396380Y-115482833D01*
X59348761Y-115720928D02*
X60063047Y-115959023D01*
X60063047Y-115339976D01*
G04 #@! TO.C,FB3*
X58475666Y-99115571D02*
X58142333Y-99115571D01*
X58142333Y-99639380D02*
X58142333Y-98639380D01*
X58618523Y-98639380D01*
X59332809Y-99115571D02*
X59475666Y-99163190D01*
X59523285Y-99210809D01*
X59570904Y-99306047D01*
X59570904Y-99448904D01*
X59523285Y-99544142D01*
X59475666Y-99591761D01*
X59380428Y-99639380D01*
X58999476Y-99639380D01*
X58999476Y-98639380D01*
X59332809Y-98639380D01*
X59428047Y-98687000D01*
X59475666Y-98734619D01*
X59523285Y-98829857D01*
X59523285Y-98925095D01*
X59475666Y-99020333D01*
X59428047Y-99067952D01*
X59332809Y-99115571D01*
X58999476Y-99115571D01*
X59904238Y-98639380D02*
X60523285Y-98639380D01*
X60189952Y-99020333D01*
X60332809Y-99020333D01*
X60428047Y-99067952D01*
X60475666Y-99115571D01*
X60523285Y-99210809D01*
X60523285Y-99448904D01*
X60475666Y-99544142D01*
X60428047Y-99591761D01*
X60332809Y-99639380D01*
X60047095Y-99639380D01*
X59951857Y-99591761D01*
X59904238Y-99544142D01*
G04 #@! TO.C,FB2*
X58285166Y-102671571D02*
X57951833Y-102671571D01*
X57951833Y-103195380D02*
X57951833Y-102195380D01*
X58428023Y-102195380D01*
X59142309Y-102671571D02*
X59285166Y-102719190D01*
X59332785Y-102766809D01*
X59380404Y-102862047D01*
X59380404Y-103004904D01*
X59332785Y-103100142D01*
X59285166Y-103147761D01*
X59189928Y-103195380D01*
X58808976Y-103195380D01*
X58808976Y-102195380D01*
X59142309Y-102195380D01*
X59237547Y-102243000D01*
X59285166Y-102290619D01*
X59332785Y-102385857D01*
X59332785Y-102481095D01*
X59285166Y-102576333D01*
X59237547Y-102623952D01*
X59142309Y-102671571D01*
X58808976Y-102671571D01*
X59761357Y-102290619D02*
X59808976Y-102243000D01*
X59904214Y-102195380D01*
X60142309Y-102195380D01*
X60237547Y-102243000D01*
X60285166Y-102290619D01*
X60332785Y-102385857D01*
X60332785Y-102481095D01*
X60285166Y-102623952D01*
X59713738Y-103195380D01*
X60332785Y-103195380D01*
G04 #@! TO.C,Q2*
X124174261Y-77660119D02*
X124079023Y-77612500D01*
X123983785Y-77517261D01*
X123840928Y-77374404D01*
X123745690Y-77326785D01*
X123650452Y-77326785D01*
X123698071Y-77564880D02*
X123602833Y-77517261D01*
X123507595Y-77422023D01*
X123459976Y-77231547D01*
X123459976Y-76898214D01*
X123507595Y-76707738D01*
X123602833Y-76612500D01*
X123698071Y-76564880D01*
X123888547Y-76564880D01*
X123983785Y-76612500D01*
X124079023Y-76707738D01*
X124126642Y-76898214D01*
X124126642Y-77231547D01*
X124079023Y-77422023D01*
X123983785Y-77517261D01*
X123888547Y-77564880D01*
X123698071Y-77564880D01*
X124507595Y-76660119D02*
X124555214Y-76612500D01*
X124650452Y-76564880D01*
X124888547Y-76564880D01*
X124983785Y-76612500D01*
X125031404Y-76660119D01*
X125079023Y-76755357D01*
X125079023Y-76850595D01*
X125031404Y-76993452D01*
X124459976Y-77564880D01*
X125079023Y-77564880D01*
G04 #@! TO.C,Q3*
X120427761Y-73469119D02*
X120332523Y-73421500D01*
X120237285Y-73326261D01*
X120094428Y-73183404D01*
X119999190Y-73135785D01*
X119903952Y-73135785D01*
X119951571Y-73373880D02*
X119856333Y-73326261D01*
X119761095Y-73231023D01*
X119713476Y-73040547D01*
X119713476Y-72707214D01*
X119761095Y-72516738D01*
X119856333Y-72421500D01*
X119951571Y-72373880D01*
X120142047Y-72373880D01*
X120237285Y-72421500D01*
X120332523Y-72516738D01*
X120380142Y-72707214D01*
X120380142Y-73040547D01*
X120332523Y-73231023D01*
X120237285Y-73326261D01*
X120142047Y-73373880D01*
X119951571Y-73373880D01*
X120713476Y-72373880D02*
X121332523Y-72373880D01*
X120999190Y-72754833D01*
X121142047Y-72754833D01*
X121237285Y-72802452D01*
X121284904Y-72850071D01*
X121332523Y-72945309D01*
X121332523Y-73183404D01*
X121284904Y-73278642D01*
X121237285Y-73326261D01*
X121142047Y-73373880D01*
X120856333Y-73373880D01*
X120761095Y-73326261D01*
X120713476Y-73278642D01*
G04 #@! TO.C,R31*
X71318380Y-120594357D02*
X70842190Y-120927690D01*
X71318380Y-121165785D02*
X70318380Y-121165785D01*
X70318380Y-120784833D01*
X70366000Y-120689595D01*
X70413619Y-120641976D01*
X70508857Y-120594357D01*
X70651714Y-120594357D01*
X70746952Y-120641976D01*
X70794571Y-120689595D01*
X70842190Y-120784833D01*
X70842190Y-121165785D01*
X70318380Y-120261023D02*
X70318380Y-119641976D01*
X70699333Y-119975309D01*
X70699333Y-119832452D01*
X70746952Y-119737214D01*
X70794571Y-119689595D01*
X70889809Y-119641976D01*
X71127904Y-119641976D01*
X71223142Y-119689595D01*
X71270761Y-119737214D01*
X71318380Y-119832452D01*
X71318380Y-120118166D01*
X71270761Y-120213404D01*
X71223142Y-120261023D01*
X71318380Y-118689595D02*
X71318380Y-119261023D01*
X71318380Y-118975309D02*
X70318380Y-118975309D01*
X70461238Y-119070547D01*
X70556476Y-119165785D01*
X70604095Y-119261023D01*
G04 #@! TO.C,R32*
X127373142Y-77476880D02*
X127039809Y-77000690D01*
X126801714Y-77476880D02*
X126801714Y-76476880D01*
X127182666Y-76476880D01*
X127277904Y-76524500D01*
X127325523Y-76572119D01*
X127373142Y-76667357D01*
X127373142Y-76810214D01*
X127325523Y-76905452D01*
X127277904Y-76953071D01*
X127182666Y-77000690D01*
X126801714Y-77000690D01*
X127706476Y-76476880D02*
X128325523Y-76476880D01*
X127992190Y-76857833D01*
X128135047Y-76857833D01*
X128230285Y-76905452D01*
X128277904Y-76953071D01*
X128325523Y-77048309D01*
X128325523Y-77286404D01*
X128277904Y-77381642D01*
X128230285Y-77429261D01*
X128135047Y-77476880D01*
X127849333Y-77476880D01*
X127754095Y-77429261D01*
X127706476Y-77381642D01*
X128706476Y-76572119D02*
X128754095Y-76524500D01*
X128849333Y-76476880D01*
X129087428Y-76476880D01*
X129182666Y-76524500D01*
X129230285Y-76572119D01*
X129277904Y-76667357D01*
X129277904Y-76762595D01*
X129230285Y-76905452D01*
X128658857Y-77476880D01*
X129277904Y-77476880D01*
G04 #@! TO.C,R33*
X127373142Y-72144880D02*
X127039809Y-71668690D01*
X126801714Y-72144880D02*
X126801714Y-71144880D01*
X127182666Y-71144880D01*
X127277904Y-71192500D01*
X127325523Y-71240119D01*
X127373142Y-71335357D01*
X127373142Y-71478214D01*
X127325523Y-71573452D01*
X127277904Y-71621071D01*
X127182666Y-71668690D01*
X126801714Y-71668690D01*
X127706476Y-71144880D02*
X128325523Y-71144880D01*
X127992190Y-71525833D01*
X128135047Y-71525833D01*
X128230285Y-71573452D01*
X128277904Y-71621071D01*
X128325523Y-71716309D01*
X128325523Y-71954404D01*
X128277904Y-72049642D01*
X128230285Y-72097261D01*
X128135047Y-72144880D01*
X127849333Y-72144880D01*
X127754095Y-72097261D01*
X127706476Y-72049642D01*
X128658857Y-71144880D02*
X129277904Y-71144880D01*
X128944571Y-71525833D01*
X129087428Y-71525833D01*
X129182666Y-71573452D01*
X129230285Y-71621071D01*
X129277904Y-71716309D01*
X129277904Y-71954404D01*
X129230285Y-72049642D01*
X129182666Y-72097261D01*
X129087428Y-72144880D01*
X128801714Y-72144880D01*
X128706476Y-72097261D01*
X128658857Y-72049642D01*
G04 #@! TO.C,R34*
X116514642Y-75763380D02*
X116181309Y-75287190D01*
X115943214Y-75763380D02*
X115943214Y-74763380D01*
X116324166Y-74763380D01*
X116419404Y-74811000D01*
X116467023Y-74858619D01*
X116514642Y-74953857D01*
X116514642Y-75096714D01*
X116467023Y-75191952D01*
X116419404Y-75239571D01*
X116324166Y-75287190D01*
X115943214Y-75287190D01*
X116847976Y-74763380D02*
X117467023Y-74763380D01*
X117133690Y-75144333D01*
X117276547Y-75144333D01*
X117371785Y-75191952D01*
X117419404Y-75239571D01*
X117467023Y-75334809D01*
X117467023Y-75572904D01*
X117419404Y-75668142D01*
X117371785Y-75715761D01*
X117276547Y-75763380D01*
X116990833Y-75763380D01*
X116895595Y-75715761D01*
X116847976Y-75668142D01*
X118324166Y-75096714D02*
X118324166Y-75763380D01*
X118086071Y-74715761D02*
X117847976Y-75430047D01*
X118467023Y-75430047D01*
G04 #@! TO.C,R35*
X116451142Y-73731380D02*
X116117809Y-73255190D01*
X115879714Y-73731380D02*
X115879714Y-72731380D01*
X116260666Y-72731380D01*
X116355904Y-72779000D01*
X116403523Y-72826619D01*
X116451142Y-72921857D01*
X116451142Y-73064714D01*
X116403523Y-73159952D01*
X116355904Y-73207571D01*
X116260666Y-73255190D01*
X115879714Y-73255190D01*
X116784476Y-72731380D02*
X117403523Y-72731380D01*
X117070190Y-73112333D01*
X117213047Y-73112333D01*
X117308285Y-73159952D01*
X117355904Y-73207571D01*
X117403523Y-73302809D01*
X117403523Y-73540904D01*
X117355904Y-73636142D01*
X117308285Y-73683761D01*
X117213047Y-73731380D01*
X116927333Y-73731380D01*
X116832095Y-73683761D01*
X116784476Y-73636142D01*
X118308285Y-72731380D02*
X117832095Y-72731380D01*
X117784476Y-73207571D01*
X117832095Y-73159952D01*
X117927333Y-73112333D01*
X118165428Y-73112333D01*
X118260666Y-73159952D01*
X118308285Y-73207571D01*
X118355904Y-73302809D01*
X118355904Y-73540904D01*
X118308285Y-73636142D01*
X118260666Y-73683761D01*
X118165428Y-73731380D01*
X117927333Y-73731380D01*
X117832095Y-73683761D01*
X117784476Y-73636142D01*
G04 #@! TO.C,R36*
X125673380Y-70937357D02*
X125197190Y-71270690D01*
X125673380Y-71508785D02*
X124673380Y-71508785D01*
X124673380Y-71127833D01*
X124721000Y-71032595D01*
X124768619Y-70984976D01*
X124863857Y-70937357D01*
X125006714Y-70937357D01*
X125101952Y-70984976D01*
X125149571Y-71032595D01*
X125197190Y-71127833D01*
X125197190Y-71508785D01*
X124673380Y-70604023D02*
X124673380Y-69984976D01*
X125054333Y-70318309D01*
X125054333Y-70175452D01*
X125101952Y-70080214D01*
X125149571Y-70032595D01*
X125244809Y-69984976D01*
X125482904Y-69984976D01*
X125578142Y-70032595D01*
X125625761Y-70080214D01*
X125673380Y-70175452D01*
X125673380Y-70461166D01*
X125625761Y-70556404D01*
X125578142Y-70604023D01*
X124673380Y-69127833D02*
X124673380Y-69318309D01*
X124721000Y-69413547D01*
X124768619Y-69461166D01*
X124911476Y-69556404D01*
X125101952Y-69604023D01*
X125482904Y-69604023D01*
X125578142Y-69556404D01*
X125625761Y-69508785D01*
X125673380Y-69413547D01*
X125673380Y-69223071D01*
X125625761Y-69127833D01*
X125578142Y-69080214D01*
X125482904Y-69032595D01*
X125244809Y-69032595D01*
X125149571Y-69080214D01*
X125101952Y-69127833D01*
X125054333Y-69223071D01*
X125054333Y-69413547D01*
X125101952Y-69508785D01*
X125149571Y-69556404D01*
X125244809Y-69604023D01*
G04 #@! TO.C,J6*
X82427380Y-134826333D02*
X83141666Y-134826333D01*
X83284523Y-134873952D01*
X83379761Y-134969190D01*
X83427380Y-135112047D01*
X83427380Y-135207285D01*
X82427380Y-133921571D02*
X82427380Y-134112047D01*
X82475000Y-134207285D01*
X82522619Y-134254904D01*
X82665476Y-134350142D01*
X82855952Y-134397761D01*
X83236904Y-134397761D01*
X83332142Y-134350142D01*
X83379761Y-134302523D01*
X83427380Y-134207285D01*
X83427380Y-134016809D01*
X83379761Y-133921571D01*
X83332142Y-133873952D01*
X83236904Y-133826333D01*
X82998809Y-133826333D01*
X82903571Y-133873952D01*
X82855952Y-133921571D01*
X82808333Y-134016809D01*
X82808333Y-134207285D01*
X82855952Y-134302523D01*
X82903571Y-134350142D01*
X82998809Y-134397761D01*
G04 #@! TO.C,C6*
X107592833Y-138756642D02*
X107545214Y-138804261D01*
X107402357Y-138851880D01*
X107307119Y-138851880D01*
X107164261Y-138804261D01*
X107069023Y-138709023D01*
X107021404Y-138613785D01*
X106973785Y-138423309D01*
X106973785Y-138280452D01*
X107021404Y-138089976D01*
X107069023Y-137994738D01*
X107164261Y-137899500D01*
X107307119Y-137851880D01*
X107402357Y-137851880D01*
X107545214Y-137899500D01*
X107592833Y-137947119D01*
X108449976Y-137851880D02*
X108259500Y-137851880D01*
X108164261Y-137899500D01*
X108116642Y-137947119D01*
X108021404Y-138089976D01*
X107973785Y-138280452D01*
X107973785Y-138661404D01*
X108021404Y-138756642D01*
X108069023Y-138804261D01*
X108164261Y-138851880D01*
X108354738Y-138851880D01*
X108449976Y-138804261D01*
X108497595Y-138756642D01*
X108545214Y-138661404D01*
X108545214Y-138423309D01*
X108497595Y-138328071D01*
X108449976Y-138280452D01*
X108354738Y-138232833D01*
X108164261Y-138232833D01*
X108069023Y-138280452D01*
X108021404Y-138328071D01*
X107973785Y-138423309D01*
G04 #@! TO.C,C7*
X113498333Y-137644142D02*
X113450714Y-137691761D01*
X113307857Y-137739380D01*
X113212619Y-137739380D01*
X113069761Y-137691761D01*
X112974523Y-137596523D01*
X112926904Y-137501285D01*
X112879285Y-137310809D01*
X112879285Y-137167952D01*
X112926904Y-136977476D01*
X112974523Y-136882238D01*
X113069761Y-136787000D01*
X113212619Y-136739380D01*
X113307857Y-136739380D01*
X113450714Y-136787000D01*
X113498333Y-136834619D01*
X113831666Y-136739380D02*
X114498333Y-136739380D01*
X114069761Y-137739380D01*
G04 #@! TO.C,R5*
X109307333Y-129865380D02*
X108974000Y-129389190D01*
X108735904Y-129865380D02*
X108735904Y-128865380D01*
X109116857Y-128865380D01*
X109212095Y-128913000D01*
X109259714Y-128960619D01*
X109307333Y-129055857D01*
X109307333Y-129198714D01*
X109259714Y-129293952D01*
X109212095Y-129341571D01*
X109116857Y-129389190D01*
X108735904Y-129389190D01*
X110212095Y-128865380D02*
X109735904Y-128865380D01*
X109688285Y-129341571D01*
X109735904Y-129293952D01*
X109831142Y-129246333D01*
X110069238Y-129246333D01*
X110164476Y-129293952D01*
X110212095Y-129341571D01*
X110259714Y-129436809D01*
X110259714Y-129674904D01*
X110212095Y-129770142D01*
X110164476Y-129817761D01*
X110069238Y-129865380D01*
X109831142Y-129865380D01*
X109735904Y-129817761D01*
X109688285Y-129770142D01*
G04 #@! TO.C,C12*
X106164142Y-112261942D02*
X106116523Y-112309561D01*
X105973666Y-112357180D01*
X105878428Y-112357180D01*
X105735571Y-112309561D01*
X105640333Y-112214323D01*
X105592714Y-112119085D01*
X105545095Y-111928609D01*
X105545095Y-111785752D01*
X105592714Y-111595276D01*
X105640333Y-111500038D01*
X105735571Y-111404800D01*
X105878428Y-111357180D01*
X105973666Y-111357180D01*
X106116523Y-111404800D01*
X106164142Y-111452419D01*
X107116523Y-112357180D02*
X106545095Y-112357180D01*
X106830809Y-112357180D02*
X106830809Y-111357180D01*
X106735571Y-111500038D01*
X106640333Y-111595276D01*
X106545095Y-111642895D01*
X107497476Y-111452419D02*
X107545095Y-111404800D01*
X107640333Y-111357180D01*
X107878428Y-111357180D01*
X107973666Y-111404800D01*
X108021285Y-111452419D01*
X108068904Y-111547657D01*
X108068904Y-111642895D01*
X108021285Y-111785752D01*
X107449857Y-112357180D01*
X108068904Y-112357180D01*
G04 #@! TO.C,C11*
X100908142Y-126931657D02*
X100955761Y-126979276D01*
X101003380Y-127122133D01*
X101003380Y-127217371D01*
X100955761Y-127360228D01*
X100860523Y-127455466D01*
X100765285Y-127503085D01*
X100574809Y-127550704D01*
X100431952Y-127550704D01*
X100241476Y-127503085D01*
X100146238Y-127455466D01*
X100051000Y-127360228D01*
X100003380Y-127217371D01*
X100003380Y-127122133D01*
X100051000Y-126979276D01*
X100098619Y-126931657D01*
X101003380Y-125979276D02*
X101003380Y-126550704D01*
X101003380Y-126264990D02*
X100003380Y-126264990D01*
X100146238Y-126360228D01*
X100241476Y-126455466D01*
X100289095Y-126550704D01*
X101003380Y-125026895D02*
X101003380Y-125598323D01*
X101003380Y-125312609D02*
X100003380Y-125312609D01*
X100146238Y-125407847D01*
X100241476Y-125503085D01*
X100289095Y-125598323D01*
G04 #@! TO.C,C10*
X119305342Y-126487157D02*
X119352961Y-126534776D01*
X119400580Y-126677633D01*
X119400580Y-126772871D01*
X119352961Y-126915728D01*
X119257723Y-127010966D01*
X119162485Y-127058585D01*
X118972009Y-127106204D01*
X118829152Y-127106204D01*
X118638676Y-127058585D01*
X118543438Y-127010966D01*
X118448200Y-126915728D01*
X118400580Y-126772871D01*
X118400580Y-126677633D01*
X118448200Y-126534776D01*
X118495819Y-126487157D01*
X119400580Y-125534776D02*
X119400580Y-126106204D01*
X119400580Y-125820490D02*
X118400580Y-125820490D01*
X118543438Y-125915728D01*
X118638676Y-126010966D01*
X118686295Y-126106204D01*
X118400580Y-124915728D02*
X118400580Y-124820490D01*
X118448200Y-124725252D01*
X118495819Y-124677633D01*
X118591057Y-124630014D01*
X118781533Y-124582395D01*
X119019628Y-124582395D01*
X119210104Y-124630014D01*
X119305342Y-124677633D01*
X119352961Y-124725252D01*
X119400580Y-124820490D01*
X119400580Y-124915728D01*
X119352961Y-125010966D01*
X119305342Y-125058585D01*
X119210104Y-125106204D01*
X119019628Y-125153823D01*
X118781533Y-125153823D01*
X118591057Y-125106204D01*
X118495819Y-125058585D01*
X118448200Y-125010966D01*
X118400580Y-124915728D01*
G04 #@! TO.C,C8*
X122310142Y-117565466D02*
X122357761Y-117613085D01*
X122405380Y-117755942D01*
X122405380Y-117851180D01*
X122357761Y-117994038D01*
X122262523Y-118089276D01*
X122167285Y-118136895D01*
X121976809Y-118184514D01*
X121833952Y-118184514D01*
X121643476Y-118136895D01*
X121548238Y-118089276D01*
X121453000Y-117994038D01*
X121405380Y-117851180D01*
X121405380Y-117755942D01*
X121453000Y-117613085D01*
X121500619Y-117565466D01*
X121833952Y-116994038D02*
X121786333Y-117089276D01*
X121738714Y-117136895D01*
X121643476Y-117184514D01*
X121595857Y-117184514D01*
X121500619Y-117136895D01*
X121453000Y-117089276D01*
X121405380Y-116994038D01*
X121405380Y-116803561D01*
X121453000Y-116708323D01*
X121500619Y-116660704D01*
X121595857Y-116613085D01*
X121643476Y-116613085D01*
X121738714Y-116660704D01*
X121786333Y-116708323D01*
X121833952Y-116803561D01*
X121833952Y-116994038D01*
X121881571Y-117089276D01*
X121929190Y-117136895D01*
X122024428Y-117184514D01*
X122214904Y-117184514D01*
X122310142Y-117136895D01*
X122357761Y-117089276D01*
X122405380Y-116994038D01*
X122405380Y-116803561D01*
X122357761Y-116708323D01*
X122310142Y-116660704D01*
X122214904Y-116613085D01*
X122024428Y-116613085D01*
X121929190Y-116660704D01*
X121881571Y-116708323D01*
X121833952Y-116803561D01*
G04 #@! TO.C,C99*
X72620142Y-109989857D02*
X72667761Y-110037476D01*
X72715380Y-110180333D01*
X72715380Y-110275571D01*
X72667761Y-110418428D01*
X72572523Y-110513666D01*
X72477285Y-110561285D01*
X72286809Y-110608904D01*
X72143952Y-110608904D01*
X71953476Y-110561285D01*
X71858238Y-110513666D01*
X71763000Y-110418428D01*
X71715380Y-110275571D01*
X71715380Y-110180333D01*
X71763000Y-110037476D01*
X71810619Y-109989857D01*
X72715380Y-109513666D02*
X72715380Y-109323190D01*
X72667761Y-109227952D01*
X72620142Y-109180333D01*
X72477285Y-109085095D01*
X72286809Y-109037476D01*
X71905857Y-109037476D01*
X71810619Y-109085095D01*
X71763000Y-109132714D01*
X71715380Y-109227952D01*
X71715380Y-109418428D01*
X71763000Y-109513666D01*
X71810619Y-109561285D01*
X71905857Y-109608904D01*
X72143952Y-109608904D01*
X72239190Y-109561285D01*
X72286809Y-109513666D01*
X72334428Y-109418428D01*
X72334428Y-109227952D01*
X72286809Y-109132714D01*
X72239190Y-109085095D01*
X72143952Y-109037476D01*
X72715380Y-108561285D02*
X72715380Y-108370809D01*
X72667761Y-108275571D01*
X72620142Y-108227952D01*
X72477285Y-108132714D01*
X72286809Y-108085095D01*
X71905857Y-108085095D01*
X71810619Y-108132714D01*
X71763000Y-108180333D01*
X71715380Y-108275571D01*
X71715380Y-108466047D01*
X71763000Y-108561285D01*
X71810619Y-108608904D01*
X71905857Y-108656523D01*
X72143952Y-108656523D01*
X72239190Y-108608904D01*
X72286809Y-108561285D01*
X72334428Y-108466047D01*
X72334428Y-108275571D01*
X72286809Y-108180333D01*
X72239190Y-108132714D01*
X72143952Y-108085095D01*
G04 #@! TO.C,C100*
X70588142Y-110974047D02*
X70635761Y-111021666D01*
X70683380Y-111164523D01*
X70683380Y-111259761D01*
X70635761Y-111402619D01*
X70540523Y-111497857D01*
X70445285Y-111545476D01*
X70254809Y-111593095D01*
X70111952Y-111593095D01*
X69921476Y-111545476D01*
X69826238Y-111497857D01*
X69731000Y-111402619D01*
X69683380Y-111259761D01*
X69683380Y-111164523D01*
X69731000Y-111021666D01*
X69778619Y-110974047D01*
X70683380Y-110021666D02*
X70683380Y-110593095D01*
X70683380Y-110307380D02*
X69683380Y-110307380D01*
X69826238Y-110402619D01*
X69921476Y-110497857D01*
X69969095Y-110593095D01*
X69683380Y-109402619D02*
X69683380Y-109307380D01*
X69731000Y-109212142D01*
X69778619Y-109164523D01*
X69873857Y-109116904D01*
X70064333Y-109069285D01*
X70302428Y-109069285D01*
X70492904Y-109116904D01*
X70588142Y-109164523D01*
X70635761Y-109212142D01*
X70683380Y-109307380D01*
X70683380Y-109402619D01*
X70635761Y-109497857D01*
X70588142Y-109545476D01*
X70492904Y-109593095D01*
X70302428Y-109640714D01*
X70064333Y-109640714D01*
X69873857Y-109593095D01*
X69778619Y-109545476D01*
X69731000Y-109497857D01*
X69683380Y-109402619D01*
X69683380Y-108450238D02*
X69683380Y-108355000D01*
X69731000Y-108259761D01*
X69778619Y-108212142D01*
X69873857Y-108164523D01*
X70064333Y-108116904D01*
X70302428Y-108116904D01*
X70492904Y-108164523D01*
X70588142Y-108212142D01*
X70635761Y-108259761D01*
X70683380Y-108355000D01*
X70683380Y-108450238D01*
X70635761Y-108545476D01*
X70588142Y-108593095D01*
X70492904Y-108640714D01*
X70302428Y-108688333D01*
X70064333Y-108688333D01*
X69873857Y-108640714D01*
X69778619Y-108593095D01*
X69731000Y-108545476D01*
X69683380Y-108450238D01*
G04 #@! TO.C,C101*
X76557142Y-110847047D02*
X76604761Y-110894666D01*
X76652380Y-111037523D01*
X76652380Y-111132761D01*
X76604761Y-111275619D01*
X76509523Y-111370857D01*
X76414285Y-111418476D01*
X76223809Y-111466095D01*
X76080952Y-111466095D01*
X75890476Y-111418476D01*
X75795238Y-111370857D01*
X75700000Y-111275619D01*
X75652380Y-111132761D01*
X75652380Y-111037523D01*
X75700000Y-110894666D01*
X75747619Y-110847047D01*
X76652380Y-109894666D02*
X76652380Y-110466095D01*
X76652380Y-110180380D02*
X75652380Y-110180380D01*
X75795238Y-110275619D01*
X75890476Y-110370857D01*
X75938095Y-110466095D01*
X75652380Y-109275619D02*
X75652380Y-109180380D01*
X75700000Y-109085142D01*
X75747619Y-109037523D01*
X75842857Y-108989904D01*
X76033333Y-108942285D01*
X76271428Y-108942285D01*
X76461904Y-108989904D01*
X76557142Y-109037523D01*
X76604761Y-109085142D01*
X76652380Y-109180380D01*
X76652380Y-109275619D01*
X76604761Y-109370857D01*
X76557142Y-109418476D01*
X76461904Y-109466095D01*
X76271428Y-109513714D01*
X76033333Y-109513714D01*
X75842857Y-109466095D01*
X75747619Y-109418476D01*
X75700000Y-109370857D01*
X75652380Y-109275619D01*
X76652380Y-107989904D02*
X76652380Y-108561333D01*
X76652380Y-108275619D02*
X75652380Y-108275619D01*
X75795238Y-108370857D01*
X75890476Y-108466095D01*
X75938095Y-108561333D01*
G04 #@! TO.C,C102*
X74652142Y-110974047D02*
X74699761Y-111021666D01*
X74747380Y-111164523D01*
X74747380Y-111259761D01*
X74699761Y-111402619D01*
X74604523Y-111497857D01*
X74509285Y-111545476D01*
X74318809Y-111593095D01*
X74175952Y-111593095D01*
X73985476Y-111545476D01*
X73890238Y-111497857D01*
X73795000Y-111402619D01*
X73747380Y-111259761D01*
X73747380Y-111164523D01*
X73795000Y-111021666D01*
X73842619Y-110974047D01*
X74747380Y-110021666D02*
X74747380Y-110593095D01*
X74747380Y-110307380D02*
X73747380Y-110307380D01*
X73890238Y-110402619D01*
X73985476Y-110497857D01*
X74033095Y-110593095D01*
X73747380Y-109402619D02*
X73747380Y-109307380D01*
X73795000Y-109212142D01*
X73842619Y-109164523D01*
X73937857Y-109116904D01*
X74128333Y-109069285D01*
X74366428Y-109069285D01*
X74556904Y-109116904D01*
X74652142Y-109164523D01*
X74699761Y-109212142D01*
X74747380Y-109307380D01*
X74747380Y-109402619D01*
X74699761Y-109497857D01*
X74652142Y-109545476D01*
X74556904Y-109593095D01*
X74366428Y-109640714D01*
X74128333Y-109640714D01*
X73937857Y-109593095D01*
X73842619Y-109545476D01*
X73795000Y-109497857D01*
X73747380Y-109402619D01*
X73842619Y-108688333D02*
X73795000Y-108640714D01*
X73747380Y-108545476D01*
X73747380Y-108307380D01*
X73795000Y-108212142D01*
X73842619Y-108164523D01*
X73937857Y-108116904D01*
X74033095Y-108116904D01*
X74175952Y-108164523D01*
X74747380Y-108735952D01*
X74747380Y-108116904D01*
G04 #@! TO.C,C103*
X80748142Y-110974047D02*
X80795761Y-111021666D01*
X80843380Y-111164523D01*
X80843380Y-111259761D01*
X80795761Y-111402619D01*
X80700523Y-111497857D01*
X80605285Y-111545476D01*
X80414809Y-111593095D01*
X80271952Y-111593095D01*
X80081476Y-111545476D01*
X79986238Y-111497857D01*
X79891000Y-111402619D01*
X79843380Y-111259761D01*
X79843380Y-111164523D01*
X79891000Y-111021666D01*
X79938619Y-110974047D01*
X80843380Y-110021666D02*
X80843380Y-110593095D01*
X80843380Y-110307380D02*
X79843380Y-110307380D01*
X79986238Y-110402619D01*
X80081476Y-110497857D01*
X80129095Y-110593095D01*
X79843380Y-109402619D02*
X79843380Y-109307380D01*
X79891000Y-109212142D01*
X79938619Y-109164523D01*
X80033857Y-109116904D01*
X80224333Y-109069285D01*
X80462428Y-109069285D01*
X80652904Y-109116904D01*
X80748142Y-109164523D01*
X80795761Y-109212142D01*
X80843380Y-109307380D01*
X80843380Y-109402619D01*
X80795761Y-109497857D01*
X80748142Y-109545476D01*
X80652904Y-109593095D01*
X80462428Y-109640714D01*
X80224333Y-109640714D01*
X80033857Y-109593095D01*
X79938619Y-109545476D01*
X79891000Y-109497857D01*
X79843380Y-109402619D01*
X79843380Y-108735952D02*
X79843380Y-108116904D01*
X80224333Y-108450238D01*
X80224333Y-108307380D01*
X80271952Y-108212142D01*
X80319571Y-108164523D01*
X80414809Y-108116904D01*
X80652904Y-108116904D01*
X80748142Y-108164523D01*
X80795761Y-108212142D01*
X80843380Y-108307380D01*
X80843380Y-108593095D01*
X80795761Y-108688333D01*
X80748142Y-108735952D01*
G04 #@! TO.C,C104*
X78589142Y-110974047D02*
X78636761Y-111021666D01*
X78684380Y-111164523D01*
X78684380Y-111259761D01*
X78636761Y-111402619D01*
X78541523Y-111497857D01*
X78446285Y-111545476D01*
X78255809Y-111593095D01*
X78112952Y-111593095D01*
X77922476Y-111545476D01*
X77827238Y-111497857D01*
X77732000Y-111402619D01*
X77684380Y-111259761D01*
X77684380Y-111164523D01*
X77732000Y-111021666D01*
X77779619Y-110974047D01*
X78684380Y-110021666D02*
X78684380Y-110593095D01*
X78684380Y-110307380D02*
X77684380Y-110307380D01*
X77827238Y-110402619D01*
X77922476Y-110497857D01*
X77970095Y-110593095D01*
X77684380Y-109402619D02*
X77684380Y-109307380D01*
X77732000Y-109212142D01*
X77779619Y-109164523D01*
X77874857Y-109116904D01*
X78065333Y-109069285D01*
X78303428Y-109069285D01*
X78493904Y-109116904D01*
X78589142Y-109164523D01*
X78636761Y-109212142D01*
X78684380Y-109307380D01*
X78684380Y-109402619D01*
X78636761Y-109497857D01*
X78589142Y-109545476D01*
X78493904Y-109593095D01*
X78303428Y-109640714D01*
X78065333Y-109640714D01*
X77874857Y-109593095D01*
X77779619Y-109545476D01*
X77732000Y-109497857D01*
X77684380Y-109402619D01*
X78017714Y-108212142D02*
X78684380Y-108212142D01*
X77636761Y-108450238D02*
X78351047Y-108688333D01*
X78351047Y-108069285D01*
G04 #@! TO.C,C105*
X84558142Y-110974047D02*
X84605761Y-111021666D01*
X84653380Y-111164523D01*
X84653380Y-111259761D01*
X84605761Y-111402619D01*
X84510523Y-111497857D01*
X84415285Y-111545476D01*
X84224809Y-111593095D01*
X84081952Y-111593095D01*
X83891476Y-111545476D01*
X83796238Y-111497857D01*
X83701000Y-111402619D01*
X83653380Y-111259761D01*
X83653380Y-111164523D01*
X83701000Y-111021666D01*
X83748619Y-110974047D01*
X84653380Y-110021666D02*
X84653380Y-110593095D01*
X84653380Y-110307380D02*
X83653380Y-110307380D01*
X83796238Y-110402619D01*
X83891476Y-110497857D01*
X83939095Y-110593095D01*
X83653380Y-109402619D02*
X83653380Y-109307380D01*
X83701000Y-109212142D01*
X83748619Y-109164523D01*
X83843857Y-109116904D01*
X84034333Y-109069285D01*
X84272428Y-109069285D01*
X84462904Y-109116904D01*
X84558142Y-109164523D01*
X84605761Y-109212142D01*
X84653380Y-109307380D01*
X84653380Y-109402619D01*
X84605761Y-109497857D01*
X84558142Y-109545476D01*
X84462904Y-109593095D01*
X84272428Y-109640714D01*
X84034333Y-109640714D01*
X83843857Y-109593095D01*
X83748619Y-109545476D01*
X83701000Y-109497857D01*
X83653380Y-109402619D01*
X83653380Y-108164523D02*
X83653380Y-108640714D01*
X84129571Y-108688333D01*
X84081952Y-108640714D01*
X84034333Y-108545476D01*
X84034333Y-108307380D01*
X84081952Y-108212142D01*
X84129571Y-108164523D01*
X84224809Y-108116904D01*
X84462904Y-108116904D01*
X84558142Y-108164523D01*
X84605761Y-108212142D01*
X84653380Y-108307380D01*
X84653380Y-108545476D01*
X84605761Y-108640714D01*
X84558142Y-108688333D01*
G04 #@! TO.C,C106*
X82653142Y-110974047D02*
X82700761Y-111021666D01*
X82748380Y-111164523D01*
X82748380Y-111259761D01*
X82700761Y-111402619D01*
X82605523Y-111497857D01*
X82510285Y-111545476D01*
X82319809Y-111593095D01*
X82176952Y-111593095D01*
X81986476Y-111545476D01*
X81891238Y-111497857D01*
X81796000Y-111402619D01*
X81748380Y-111259761D01*
X81748380Y-111164523D01*
X81796000Y-111021666D01*
X81843619Y-110974047D01*
X82748380Y-110021666D02*
X82748380Y-110593095D01*
X82748380Y-110307380D02*
X81748380Y-110307380D01*
X81891238Y-110402619D01*
X81986476Y-110497857D01*
X82034095Y-110593095D01*
X81748380Y-109402619D02*
X81748380Y-109307380D01*
X81796000Y-109212142D01*
X81843619Y-109164523D01*
X81938857Y-109116904D01*
X82129333Y-109069285D01*
X82367428Y-109069285D01*
X82557904Y-109116904D01*
X82653142Y-109164523D01*
X82700761Y-109212142D01*
X82748380Y-109307380D01*
X82748380Y-109402619D01*
X82700761Y-109497857D01*
X82653142Y-109545476D01*
X82557904Y-109593095D01*
X82367428Y-109640714D01*
X82129333Y-109640714D01*
X81938857Y-109593095D01*
X81843619Y-109545476D01*
X81796000Y-109497857D01*
X81748380Y-109402619D01*
X81748380Y-108212142D02*
X81748380Y-108402619D01*
X81796000Y-108497857D01*
X81843619Y-108545476D01*
X81986476Y-108640714D01*
X82176952Y-108688333D01*
X82557904Y-108688333D01*
X82653142Y-108640714D01*
X82700761Y-108593095D01*
X82748380Y-108497857D01*
X82748380Y-108307380D01*
X82700761Y-108212142D01*
X82653142Y-108164523D01*
X82557904Y-108116904D01*
X82319809Y-108116904D01*
X82224571Y-108164523D01*
X82176952Y-108212142D01*
X82129333Y-108307380D01*
X82129333Y-108497857D01*
X82176952Y-108593095D01*
X82224571Y-108640714D01*
X82319809Y-108688333D01*
G04 #@! TO.C,Q1*
X108680261Y-68579619D02*
X108585023Y-68532000D01*
X108489785Y-68436761D01*
X108346928Y-68293904D01*
X108251690Y-68246285D01*
X108156452Y-68246285D01*
X108204071Y-68484380D02*
X108108833Y-68436761D01*
X108013595Y-68341523D01*
X107965976Y-68151047D01*
X107965976Y-67817714D01*
X108013595Y-67627238D01*
X108108833Y-67532000D01*
X108204071Y-67484380D01*
X108394547Y-67484380D01*
X108489785Y-67532000D01*
X108585023Y-67627238D01*
X108632642Y-67817714D01*
X108632642Y-68151047D01*
X108585023Y-68341523D01*
X108489785Y-68436761D01*
X108394547Y-68484380D01*
X108204071Y-68484380D01*
X109585023Y-68484380D02*
X109013595Y-68484380D01*
X109299309Y-68484380D02*
X109299309Y-67484380D01*
X109204071Y-67627238D01*
X109108833Y-67722476D01*
X109013595Y-67770095D01*
G04 #@! TO.C,C25*
X94902642Y-102814357D02*
X94950261Y-102861976D01*
X94997880Y-103004833D01*
X94997880Y-103100071D01*
X94950261Y-103242928D01*
X94855023Y-103338166D01*
X94759785Y-103385785D01*
X94569309Y-103433404D01*
X94426452Y-103433404D01*
X94235976Y-103385785D01*
X94140738Y-103338166D01*
X94045500Y-103242928D01*
X93997880Y-103100071D01*
X93997880Y-103004833D01*
X94045500Y-102861976D01*
X94093119Y-102814357D01*
X94093119Y-102433404D02*
X94045500Y-102385785D01*
X93997880Y-102290547D01*
X93997880Y-102052452D01*
X94045500Y-101957214D01*
X94093119Y-101909595D01*
X94188357Y-101861976D01*
X94283595Y-101861976D01*
X94426452Y-101909595D01*
X94997880Y-102481023D01*
X94997880Y-101861976D01*
X93997880Y-100957214D02*
X93997880Y-101433404D01*
X94474071Y-101481023D01*
X94426452Y-101433404D01*
X94378833Y-101338166D01*
X94378833Y-101100071D01*
X94426452Y-101004833D01*
X94474071Y-100957214D01*
X94569309Y-100909595D01*
X94807404Y-100909595D01*
X94902642Y-100957214D01*
X94950261Y-101004833D01*
X94997880Y-101100071D01*
X94997880Y-101338166D01*
X94950261Y-101433404D01*
X94902642Y-101481023D01*
G04 #@! TO.C,D5*
X118514904Y-84018380D02*
X118514904Y-83018380D01*
X118753000Y-83018380D01*
X118895857Y-83066000D01*
X118991095Y-83161238D01*
X119038714Y-83256476D01*
X119086333Y-83446952D01*
X119086333Y-83589809D01*
X119038714Y-83780285D01*
X118991095Y-83875523D01*
X118895857Y-83970761D01*
X118753000Y-84018380D01*
X118514904Y-84018380D01*
X119991095Y-83018380D02*
X119514904Y-83018380D01*
X119467285Y-83494571D01*
X119514904Y-83446952D01*
X119610142Y-83399333D01*
X119848238Y-83399333D01*
X119943476Y-83446952D01*
X119991095Y-83494571D01*
X120038714Y-83589809D01*
X120038714Y-83827904D01*
X119991095Y-83923142D01*
X119943476Y-83970761D01*
X119848238Y-84018380D01*
X119610142Y-84018380D01*
X119514904Y-83970761D01*
X119467285Y-83923142D01*
G04 #@! TO.C,J12*
X83331607Y-80931798D02*
X83331607Y-81646084D01*
X83283988Y-81788941D01*
X83188750Y-81884179D01*
X83045892Y-81931798D01*
X82950654Y-81931798D01*
X84331607Y-81931798D02*
X83760178Y-81931798D01*
X84045892Y-81931798D02*
X84045892Y-80931798D01*
X83950654Y-81074656D01*
X83855416Y-81169894D01*
X83760178Y-81217513D01*
X84712559Y-81027037D02*
X84760178Y-80979418D01*
X84855416Y-80931798D01*
X85093511Y-80931798D01*
X85188750Y-80979418D01*
X85236369Y-81027037D01*
X85283988Y-81122275D01*
X85283988Y-81217513D01*
X85236369Y-81360370D01*
X84664940Y-81931798D01*
X85283988Y-81931798D01*
G04 #@! TO.C,J13*
X95142607Y-80931798D02*
X95142607Y-81646084D01*
X95094988Y-81788941D01*
X94999750Y-81884179D01*
X94856892Y-81931798D01*
X94761654Y-81931798D01*
X96142607Y-81931798D02*
X95571178Y-81931798D01*
X95856892Y-81931798D02*
X95856892Y-80931798D01*
X95761654Y-81074656D01*
X95666416Y-81169894D01*
X95571178Y-81217513D01*
X96475940Y-80931798D02*
X97094988Y-80931798D01*
X96761654Y-81312751D01*
X96904511Y-81312751D01*
X96999750Y-81360370D01*
X97047369Y-81407989D01*
X97094988Y-81503227D01*
X97094988Y-81741322D01*
X97047369Y-81836560D01*
X96999750Y-81884179D01*
X96904511Y-81931798D01*
X96618797Y-81931798D01*
X96523559Y-81884179D01*
X96475940Y-81836560D01*
G04 #@! TO.C,J11*
X71520607Y-80931798D02*
X71520607Y-81646084D01*
X71472988Y-81788941D01*
X71377750Y-81884179D01*
X71234892Y-81931798D01*
X71139654Y-81931798D01*
X72520607Y-81931798D02*
X71949178Y-81931798D01*
X72234892Y-81931798D02*
X72234892Y-80931798D01*
X72139654Y-81074656D01*
X72044416Y-81169894D01*
X71949178Y-81217513D01*
X73472988Y-81931798D02*
X72901559Y-81931798D01*
X73187273Y-81931798D02*
X73187273Y-80931798D01*
X73092035Y-81074656D01*
X72996797Y-81169894D01*
X72901559Y-81217513D01*
G04 #@! TO.C,J10*
X59709607Y-80931798D02*
X59709607Y-81646084D01*
X59661988Y-81788941D01*
X59566750Y-81884179D01*
X59423892Y-81931798D01*
X59328654Y-81931798D01*
X60709607Y-81931798D02*
X60138178Y-81931798D01*
X60423892Y-81931798D02*
X60423892Y-80931798D01*
X60328654Y-81074656D01*
X60233416Y-81169894D01*
X60138178Y-81217513D01*
X61328654Y-80931798D02*
X61423892Y-80931798D01*
X61519131Y-80979418D01*
X61566750Y-81027037D01*
X61614369Y-81122275D01*
X61661988Y-81312751D01*
X61661988Y-81550846D01*
X61614369Y-81741322D01*
X61566750Y-81836560D01*
X61519131Y-81884179D01*
X61423892Y-81931798D01*
X61328654Y-81931798D01*
X61233416Y-81884179D01*
X61185797Y-81836560D01*
X61138178Y-81741322D01*
X61090559Y-81550846D01*
X61090559Y-81312751D01*
X61138178Y-81122275D01*
X61185797Y-81027037D01*
X61233416Y-80979418D01*
X61328654Y-80931798D01*
G04 #@! TO.C,C2*
X119419642Y-68619666D02*
X119467261Y-68667285D01*
X119514880Y-68810142D01*
X119514880Y-68905380D01*
X119467261Y-69048238D01*
X119372023Y-69143476D01*
X119276785Y-69191095D01*
X119086309Y-69238714D01*
X118943452Y-69238714D01*
X118752976Y-69191095D01*
X118657738Y-69143476D01*
X118562500Y-69048238D01*
X118514880Y-68905380D01*
X118514880Y-68810142D01*
X118562500Y-68667285D01*
X118610119Y-68619666D01*
X118610119Y-68238714D02*
X118562500Y-68191095D01*
X118514880Y-68095857D01*
X118514880Y-67857761D01*
X118562500Y-67762523D01*
X118610119Y-67714904D01*
X118705357Y-67667285D01*
X118800595Y-67667285D01*
X118943452Y-67714904D01*
X119514880Y-68286333D01*
X119514880Y-67667285D01*
G04 #@! TO.C,C18*
X135105142Y-91970857D02*
X135152761Y-92018476D01*
X135200380Y-92161333D01*
X135200380Y-92256571D01*
X135152761Y-92399428D01*
X135057523Y-92494666D01*
X134962285Y-92542285D01*
X134771809Y-92589904D01*
X134628952Y-92589904D01*
X134438476Y-92542285D01*
X134343238Y-92494666D01*
X134248000Y-92399428D01*
X134200380Y-92256571D01*
X134200380Y-92161333D01*
X134248000Y-92018476D01*
X134295619Y-91970857D01*
X135200380Y-91018476D02*
X135200380Y-91589904D01*
X135200380Y-91304190D02*
X134200380Y-91304190D01*
X134343238Y-91399428D01*
X134438476Y-91494666D01*
X134486095Y-91589904D01*
X134628952Y-90447047D02*
X134581333Y-90542285D01*
X134533714Y-90589904D01*
X134438476Y-90637523D01*
X134390857Y-90637523D01*
X134295619Y-90589904D01*
X134248000Y-90542285D01*
X134200380Y-90447047D01*
X134200380Y-90256571D01*
X134248000Y-90161333D01*
X134295619Y-90113714D01*
X134390857Y-90066095D01*
X134438476Y-90066095D01*
X134533714Y-90113714D01*
X134581333Y-90161333D01*
X134628952Y-90256571D01*
X134628952Y-90447047D01*
X134676571Y-90542285D01*
X134724190Y-90589904D01*
X134819428Y-90637523D01*
X135009904Y-90637523D01*
X135105142Y-90589904D01*
X135152761Y-90542285D01*
X135200380Y-90447047D01*
X135200380Y-90256571D01*
X135152761Y-90161333D01*
X135105142Y-90113714D01*
X135009904Y-90066095D01*
X134819428Y-90066095D01*
X134724190Y-90113714D01*
X134676571Y-90161333D01*
X134628952Y-90256571D01*
G04 #@! TO.C,C19*
X122061200Y-98018577D02*
X122108819Y-98066196D01*
X122156438Y-98209053D01*
X122156438Y-98304291D01*
X122108819Y-98447148D01*
X122013581Y-98542386D01*
X121918343Y-98590005D01*
X121727867Y-98637624D01*
X121585010Y-98637624D01*
X121394534Y-98590005D01*
X121299296Y-98542386D01*
X121204058Y-98447148D01*
X121156438Y-98304291D01*
X121156438Y-98209053D01*
X121204058Y-98066196D01*
X121251677Y-98018577D01*
X122156438Y-97066196D02*
X122156438Y-97637624D01*
X122156438Y-97351910D02*
X121156438Y-97351910D01*
X121299296Y-97447148D01*
X121394534Y-97542386D01*
X121442153Y-97637624D01*
X122156438Y-96590005D02*
X122156438Y-96399529D01*
X122108819Y-96304291D01*
X122061200Y-96256672D01*
X121918343Y-96161434D01*
X121727867Y-96113815D01*
X121346915Y-96113815D01*
X121251677Y-96161434D01*
X121204058Y-96209053D01*
X121156438Y-96304291D01*
X121156438Y-96494767D01*
X121204058Y-96590005D01*
X121251677Y-96637624D01*
X121346915Y-96685243D01*
X121585010Y-96685243D01*
X121680248Y-96637624D01*
X121727867Y-96590005D01*
X121775486Y-96494767D01*
X121775486Y-96304291D01*
X121727867Y-96209053D01*
X121680248Y-96161434D01*
X121585010Y-96113815D01*
G04 #@! TO.C,C20*
X134724142Y-71445357D02*
X134771761Y-71492976D01*
X134819380Y-71635833D01*
X134819380Y-71731071D01*
X134771761Y-71873928D01*
X134676523Y-71969166D01*
X134581285Y-72016785D01*
X134390809Y-72064404D01*
X134247952Y-72064404D01*
X134057476Y-72016785D01*
X133962238Y-71969166D01*
X133867000Y-71873928D01*
X133819380Y-71731071D01*
X133819380Y-71635833D01*
X133867000Y-71492976D01*
X133914619Y-71445357D01*
X133914619Y-71064404D02*
X133867000Y-71016785D01*
X133819380Y-70921547D01*
X133819380Y-70683452D01*
X133867000Y-70588214D01*
X133914619Y-70540595D01*
X134009857Y-70492976D01*
X134105095Y-70492976D01*
X134247952Y-70540595D01*
X134819380Y-71112023D01*
X134819380Y-70492976D01*
X133819380Y-69873928D02*
X133819380Y-69778690D01*
X133867000Y-69683452D01*
X133914619Y-69635833D01*
X134009857Y-69588214D01*
X134200333Y-69540595D01*
X134438428Y-69540595D01*
X134628904Y-69588214D01*
X134724142Y-69635833D01*
X134771761Y-69683452D01*
X134819380Y-69778690D01*
X134819380Y-69873928D01*
X134771761Y-69969166D01*
X134724142Y-70016785D01*
X134628904Y-70064404D01*
X134438428Y-70112023D01*
X134200333Y-70112023D01*
X134009857Y-70064404D01*
X133914619Y-70016785D01*
X133867000Y-69969166D01*
X133819380Y-69873928D01*
G04 #@! TO.C,C21*
X129325642Y-81287857D02*
X129373261Y-81335476D01*
X129420880Y-81478333D01*
X129420880Y-81573571D01*
X129373261Y-81716428D01*
X129278023Y-81811666D01*
X129182785Y-81859285D01*
X128992309Y-81906904D01*
X128849452Y-81906904D01*
X128658976Y-81859285D01*
X128563738Y-81811666D01*
X128468500Y-81716428D01*
X128420880Y-81573571D01*
X128420880Y-81478333D01*
X128468500Y-81335476D01*
X128516119Y-81287857D01*
X128516119Y-80906904D02*
X128468500Y-80859285D01*
X128420880Y-80764047D01*
X128420880Y-80525952D01*
X128468500Y-80430714D01*
X128516119Y-80383095D01*
X128611357Y-80335476D01*
X128706595Y-80335476D01*
X128849452Y-80383095D01*
X129420880Y-80954523D01*
X129420880Y-80335476D01*
X129420880Y-79383095D02*
X129420880Y-79954523D01*
X129420880Y-79668809D02*
X128420880Y-79668809D01*
X128563738Y-79764047D01*
X128658976Y-79859285D01*
X128706595Y-79954523D01*
G04 #@! TO.C,C22*
X132374642Y-99448857D02*
X132422261Y-99496476D01*
X132469880Y-99639333D01*
X132469880Y-99734571D01*
X132422261Y-99877428D01*
X132327023Y-99972666D01*
X132231785Y-100020285D01*
X132041309Y-100067904D01*
X131898452Y-100067904D01*
X131707976Y-100020285D01*
X131612738Y-99972666D01*
X131517500Y-99877428D01*
X131469880Y-99734571D01*
X131469880Y-99639333D01*
X131517500Y-99496476D01*
X131565119Y-99448857D01*
X131565119Y-99067904D02*
X131517500Y-99020285D01*
X131469880Y-98925047D01*
X131469880Y-98686952D01*
X131517500Y-98591714D01*
X131565119Y-98544095D01*
X131660357Y-98496476D01*
X131755595Y-98496476D01*
X131898452Y-98544095D01*
X132469880Y-99115523D01*
X132469880Y-98496476D01*
X131565119Y-98115523D02*
X131517500Y-98067904D01*
X131469880Y-97972666D01*
X131469880Y-97734571D01*
X131517500Y-97639333D01*
X131565119Y-97591714D01*
X131660357Y-97544095D01*
X131755595Y-97544095D01*
X131898452Y-97591714D01*
X132469880Y-98163142D01*
X132469880Y-97544095D01*
G04 #@! TO.C,C23*
X123230642Y-81478357D02*
X123278261Y-81525976D01*
X123325880Y-81668833D01*
X123325880Y-81764071D01*
X123278261Y-81906928D01*
X123183023Y-82002166D01*
X123087785Y-82049785D01*
X122897309Y-82097404D01*
X122754452Y-82097404D01*
X122563976Y-82049785D01*
X122468738Y-82002166D01*
X122373500Y-81906928D01*
X122325880Y-81764071D01*
X122325880Y-81668833D01*
X122373500Y-81525976D01*
X122421119Y-81478357D01*
X122421119Y-81097404D02*
X122373500Y-81049785D01*
X122325880Y-80954547D01*
X122325880Y-80716452D01*
X122373500Y-80621214D01*
X122421119Y-80573595D01*
X122516357Y-80525976D01*
X122611595Y-80525976D01*
X122754452Y-80573595D01*
X123325880Y-81145023D01*
X123325880Y-80525976D01*
X122325880Y-80192642D02*
X122325880Y-79573595D01*
X122706833Y-79906928D01*
X122706833Y-79764071D01*
X122754452Y-79668833D01*
X122802071Y-79621214D01*
X122897309Y-79573595D01*
X123135404Y-79573595D01*
X123230642Y-79621214D01*
X123278261Y-79668833D01*
X123325880Y-79764071D01*
X123325880Y-80049785D01*
X123278261Y-80145023D01*
X123230642Y-80192642D01*
G04 #@! TO.C,C24*
X130167142Y-94654642D02*
X130119523Y-94702261D01*
X129976666Y-94749880D01*
X129881428Y-94749880D01*
X129738571Y-94702261D01*
X129643333Y-94607023D01*
X129595714Y-94511785D01*
X129548095Y-94321309D01*
X129548095Y-94178452D01*
X129595714Y-93987976D01*
X129643333Y-93892738D01*
X129738571Y-93797500D01*
X129881428Y-93749880D01*
X129976666Y-93749880D01*
X130119523Y-93797500D01*
X130167142Y-93845119D01*
X130548095Y-93845119D02*
X130595714Y-93797500D01*
X130690952Y-93749880D01*
X130929047Y-93749880D01*
X131024285Y-93797500D01*
X131071904Y-93845119D01*
X131119523Y-93940357D01*
X131119523Y-94035595D01*
X131071904Y-94178452D01*
X130500476Y-94749880D01*
X131119523Y-94749880D01*
X131976666Y-94083214D02*
X131976666Y-94749880D01*
X131738571Y-93702261D02*
X131500476Y-94416547D01*
X132119523Y-94416547D01*
G04 #@! TO.C,C28*
X111482142Y-88209357D02*
X111529761Y-88256976D01*
X111577380Y-88399833D01*
X111577380Y-88495071D01*
X111529761Y-88637928D01*
X111434523Y-88733166D01*
X111339285Y-88780785D01*
X111148809Y-88828404D01*
X111005952Y-88828404D01*
X110815476Y-88780785D01*
X110720238Y-88733166D01*
X110625000Y-88637928D01*
X110577380Y-88495071D01*
X110577380Y-88399833D01*
X110625000Y-88256976D01*
X110672619Y-88209357D01*
X110672619Y-87828404D02*
X110625000Y-87780785D01*
X110577380Y-87685547D01*
X110577380Y-87447452D01*
X110625000Y-87352214D01*
X110672619Y-87304595D01*
X110767857Y-87256976D01*
X110863095Y-87256976D01*
X111005952Y-87304595D01*
X111577380Y-87876023D01*
X111577380Y-87256976D01*
X111005952Y-86685547D02*
X110958333Y-86780785D01*
X110910714Y-86828404D01*
X110815476Y-86876023D01*
X110767857Y-86876023D01*
X110672619Y-86828404D01*
X110625000Y-86780785D01*
X110577380Y-86685547D01*
X110577380Y-86495071D01*
X110625000Y-86399833D01*
X110672619Y-86352214D01*
X110767857Y-86304595D01*
X110815476Y-86304595D01*
X110910714Y-86352214D01*
X110958333Y-86399833D01*
X111005952Y-86495071D01*
X111005952Y-86685547D01*
X111053571Y-86780785D01*
X111101190Y-86828404D01*
X111196428Y-86876023D01*
X111386904Y-86876023D01*
X111482142Y-86828404D01*
X111529761Y-86780785D01*
X111577380Y-86685547D01*
X111577380Y-86495071D01*
X111529761Y-86399833D01*
X111482142Y-86352214D01*
X111386904Y-86304595D01*
X111196428Y-86304595D01*
X111101190Y-86352214D01*
X111053571Y-86399833D01*
X111005952Y-86495071D01*
G04 #@! TO.C,C29*
X113768142Y-88145857D02*
X113815761Y-88193476D01*
X113863380Y-88336333D01*
X113863380Y-88431571D01*
X113815761Y-88574428D01*
X113720523Y-88669666D01*
X113625285Y-88717285D01*
X113434809Y-88764904D01*
X113291952Y-88764904D01*
X113101476Y-88717285D01*
X113006238Y-88669666D01*
X112911000Y-88574428D01*
X112863380Y-88431571D01*
X112863380Y-88336333D01*
X112911000Y-88193476D01*
X112958619Y-88145857D01*
X112958619Y-87764904D02*
X112911000Y-87717285D01*
X112863380Y-87622047D01*
X112863380Y-87383952D01*
X112911000Y-87288714D01*
X112958619Y-87241095D01*
X113053857Y-87193476D01*
X113149095Y-87193476D01*
X113291952Y-87241095D01*
X113863380Y-87812523D01*
X113863380Y-87193476D01*
X113863380Y-86717285D02*
X113863380Y-86526809D01*
X113815761Y-86431571D01*
X113768142Y-86383952D01*
X113625285Y-86288714D01*
X113434809Y-86241095D01*
X113053857Y-86241095D01*
X112958619Y-86288714D01*
X112911000Y-86336333D01*
X112863380Y-86431571D01*
X112863380Y-86622047D01*
X112911000Y-86717285D01*
X112958619Y-86764904D01*
X113053857Y-86812523D01*
X113291952Y-86812523D01*
X113387190Y-86764904D01*
X113434809Y-86717285D01*
X113482428Y-86622047D01*
X113482428Y-86431571D01*
X113434809Y-86336333D01*
X113387190Y-86288714D01*
X113291952Y-86241095D01*
G04 #@! TO.C,C30*
X111228142Y-110497857D02*
X111275761Y-110545476D01*
X111323380Y-110688333D01*
X111323380Y-110783571D01*
X111275761Y-110926428D01*
X111180523Y-111021666D01*
X111085285Y-111069285D01*
X110894809Y-111116904D01*
X110751952Y-111116904D01*
X110561476Y-111069285D01*
X110466238Y-111021666D01*
X110371000Y-110926428D01*
X110323380Y-110783571D01*
X110323380Y-110688333D01*
X110371000Y-110545476D01*
X110418619Y-110497857D01*
X110323380Y-110164523D02*
X110323380Y-109545476D01*
X110704333Y-109878809D01*
X110704333Y-109735952D01*
X110751952Y-109640714D01*
X110799571Y-109593095D01*
X110894809Y-109545476D01*
X111132904Y-109545476D01*
X111228142Y-109593095D01*
X111275761Y-109640714D01*
X111323380Y-109735952D01*
X111323380Y-110021666D01*
X111275761Y-110116904D01*
X111228142Y-110164523D01*
X110323380Y-108926428D02*
X110323380Y-108831190D01*
X110371000Y-108735952D01*
X110418619Y-108688333D01*
X110513857Y-108640714D01*
X110704333Y-108593095D01*
X110942428Y-108593095D01*
X111132904Y-108640714D01*
X111228142Y-108688333D01*
X111275761Y-108735952D01*
X111323380Y-108831190D01*
X111323380Y-108926428D01*
X111275761Y-109021666D01*
X111228142Y-109069285D01*
X111132904Y-109116904D01*
X110942428Y-109164523D01*
X110704333Y-109164523D01*
X110513857Y-109116904D01*
X110418619Y-109069285D01*
X110371000Y-109021666D01*
X110323380Y-108926428D01*
G04 #@! TO.C,C31*
X117276642Y-107240342D02*
X117229023Y-107287961D01*
X117086166Y-107335580D01*
X116990928Y-107335580D01*
X116848071Y-107287961D01*
X116752833Y-107192723D01*
X116705214Y-107097485D01*
X116657595Y-106907009D01*
X116657595Y-106764152D01*
X116705214Y-106573676D01*
X116752833Y-106478438D01*
X116848071Y-106383200D01*
X116990928Y-106335580D01*
X117086166Y-106335580D01*
X117229023Y-106383200D01*
X117276642Y-106430819D01*
X117609976Y-106335580D02*
X118229023Y-106335580D01*
X117895690Y-106716533D01*
X118038547Y-106716533D01*
X118133785Y-106764152D01*
X118181404Y-106811771D01*
X118229023Y-106907009D01*
X118229023Y-107145104D01*
X118181404Y-107240342D01*
X118133785Y-107287961D01*
X118038547Y-107335580D01*
X117752833Y-107335580D01*
X117657595Y-107287961D01*
X117609976Y-107240342D01*
X119181404Y-107335580D02*
X118609976Y-107335580D01*
X118895690Y-107335580D02*
X118895690Y-106335580D01*
X118800452Y-106478438D01*
X118705214Y-106573676D01*
X118609976Y-106621295D01*
G04 #@! TO.C,C26*
X135704342Y-104103442D02*
X135656723Y-104151061D01*
X135513866Y-104198680D01*
X135418628Y-104198680D01*
X135275771Y-104151061D01*
X135180533Y-104055823D01*
X135132914Y-103960585D01*
X135085295Y-103770109D01*
X135085295Y-103627252D01*
X135132914Y-103436776D01*
X135180533Y-103341538D01*
X135275771Y-103246300D01*
X135418628Y-103198680D01*
X135513866Y-103198680D01*
X135656723Y-103246300D01*
X135704342Y-103293919D01*
X136085295Y-103293919D02*
X136132914Y-103246300D01*
X136228152Y-103198680D01*
X136466247Y-103198680D01*
X136561485Y-103246300D01*
X136609104Y-103293919D01*
X136656723Y-103389157D01*
X136656723Y-103484395D01*
X136609104Y-103627252D01*
X136037676Y-104198680D01*
X136656723Y-104198680D01*
X137513866Y-103198680D02*
X137323390Y-103198680D01*
X137228152Y-103246300D01*
X137180533Y-103293919D01*
X137085295Y-103436776D01*
X137037676Y-103627252D01*
X137037676Y-104008204D01*
X137085295Y-104103442D01*
X137132914Y-104151061D01*
X137228152Y-104198680D01*
X137418628Y-104198680D01*
X137513866Y-104151061D01*
X137561485Y-104103442D01*
X137609104Y-104008204D01*
X137609104Y-103770109D01*
X137561485Y-103674871D01*
X137513866Y-103627252D01*
X137418628Y-103579633D01*
X137228152Y-103579633D01*
X137132914Y-103627252D01*
X137085295Y-103674871D01*
X137037676Y-103770109D01*
G04 #@! TO.C,C125*
X134812042Y-115609547D02*
X134859661Y-115657166D01*
X134907280Y-115800023D01*
X134907280Y-115895261D01*
X134859661Y-116038119D01*
X134764423Y-116133357D01*
X134669185Y-116180976D01*
X134478709Y-116228595D01*
X134335852Y-116228595D01*
X134145376Y-116180976D01*
X134050138Y-116133357D01*
X133954900Y-116038119D01*
X133907280Y-115895261D01*
X133907280Y-115800023D01*
X133954900Y-115657166D01*
X134002519Y-115609547D01*
X134907280Y-114657166D02*
X134907280Y-115228595D01*
X134907280Y-114942880D02*
X133907280Y-114942880D01*
X134050138Y-115038119D01*
X134145376Y-115133357D01*
X134192995Y-115228595D01*
X134002519Y-114276214D02*
X133954900Y-114228595D01*
X133907280Y-114133357D01*
X133907280Y-113895261D01*
X133954900Y-113800023D01*
X134002519Y-113752404D01*
X134097757Y-113704785D01*
X134192995Y-113704785D01*
X134335852Y-113752404D01*
X134907280Y-114323833D01*
X134907280Y-113704785D01*
X133907280Y-112800023D02*
X133907280Y-113276214D01*
X134383471Y-113323833D01*
X134335852Y-113276214D01*
X134288233Y-113180976D01*
X134288233Y-112942880D01*
X134335852Y-112847642D01*
X134383471Y-112800023D01*
X134478709Y-112752404D01*
X134716804Y-112752404D01*
X134812042Y-112800023D01*
X134859661Y-112847642D01*
X134907280Y-112942880D01*
X134907280Y-113180976D01*
X134859661Y-113276214D01*
X134812042Y-113323833D01*
G04 #@! TO.C,C111*
X59790152Y-86982260D02*
X59742533Y-87029879D01*
X59599676Y-87077498D01*
X59504438Y-87077498D01*
X59361580Y-87029879D01*
X59266342Y-86934641D01*
X59218723Y-86839403D01*
X59171104Y-86648927D01*
X59171104Y-86506070D01*
X59218723Y-86315594D01*
X59266342Y-86220356D01*
X59361580Y-86125118D01*
X59504438Y-86077498D01*
X59599676Y-86077498D01*
X59742533Y-86125118D01*
X59790152Y-86172737D01*
X60742533Y-87077498D02*
X60171104Y-87077498D01*
X60456819Y-87077498D02*
X60456819Y-86077498D01*
X60361580Y-86220356D01*
X60266342Y-86315594D01*
X60171104Y-86363213D01*
X61694914Y-87077498D02*
X61123485Y-87077498D01*
X61409200Y-87077498D02*
X61409200Y-86077498D01*
X61313961Y-86220356D01*
X61218723Y-86315594D01*
X61123485Y-86363213D01*
X62647295Y-87077498D02*
X62075866Y-87077498D01*
X62361580Y-87077498D02*
X62361580Y-86077498D01*
X62266342Y-86220356D01*
X62171104Y-86315594D01*
X62075866Y-86363213D01*
G04 #@! TO.C,C113*
X81634152Y-86817160D02*
X81586533Y-86864779D01*
X81443676Y-86912398D01*
X81348438Y-86912398D01*
X81205580Y-86864779D01*
X81110342Y-86769541D01*
X81062723Y-86674303D01*
X81015104Y-86483827D01*
X81015104Y-86340970D01*
X81062723Y-86150494D01*
X81110342Y-86055256D01*
X81205580Y-85960018D01*
X81348438Y-85912398D01*
X81443676Y-85912398D01*
X81586533Y-85960018D01*
X81634152Y-86007637D01*
X82586533Y-86912398D02*
X82015104Y-86912398D01*
X82300819Y-86912398D02*
X82300819Y-85912398D01*
X82205580Y-86055256D01*
X82110342Y-86150494D01*
X82015104Y-86198113D01*
X83538914Y-86912398D02*
X82967485Y-86912398D01*
X83253200Y-86912398D02*
X83253200Y-85912398D01*
X83157961Y-86055256D01*
X83062723Y-86150494D01*
X82967485Y-86198113D01*
X83872247Y-85912398D02*
X84491295Y-85912398D01*
X84157961Y-86293351D01*
X84300819Y-86293351D01*
X84396057Y-86340970D01*
X84443676Y-86388589D01*
X84491295Y-86483827D01*
X84491295Y-86721922D01*
X84443676Y-86817160D01*
X84396057Y-86864779D01*
X84300819Y-86912398D01*
X84015104Y-86912398D01*
X83919866Y-86864779D01*
X83872247Y-86817160D01*
G04 #@! TO.C,C112*
X98588652Y-87034642D02*
X98541033Y-87082261D01*
X98398176Y-87129880D01*
X98302938Y-87129880D01*
X98160080Y-87082261D01*
X98064842Y-86987023D01*
X98017223Y-86891785D01*
X97969604Y-86701309D01*
X97969604Y-86558452D01*
X98017223Y-86367976D01*
X98064842Y-86272738D01*
X98160080Y-86177500D01*
X98302938Y-86129880D01*
X98398176Y-86129880D01*
X98541033Y-86177500D01*
X98588652Y-86225119D01*
X99541033Y-87129880D02*
X98969604Y-87129880D01*
X99255319Y-87129880D02*
X99255319Y-86129880D01*
X99160080Y-86272738D01*
X99064842Y-86367976D01*
X98969604Y-86415595D01*
X100493414Y-87129880D02*
X99921985Y-87129880D01*
X100207700Y-87129880D02*
X100207700Y-86129880D01*
X100112461Y-86272738D01*
X100017223Y-86367976D01*
X99921985Y-86415595D01*
X100874366Y-86225119D02*
X100921985Y-86177500D01*
X101017223Y-86129880D01*
X101255319Y-86129880D01*
X101350557Y-86177500D01*
X101398176Y-86225119D01*
X101445795Y-86320357D01*
X101445795Y-86415595D01*
X101398176Y-86558452D01*
X100826747Y-87129880D01*
X101445795Y-87129880D01*
G04 #@! TO.C,C126*
X132881642Y-115698447D02*
X132929261Y-115746066D01*
X132976880Y-115888923D01*
X132976880Y-115984161D01*
X132929261Y-116127019D01*
X132834023Y-116222257D01*
X132738785Y-116269876D01*
X132548309Y-116317495D01*
X132405452Y-116317495D01*
X132214976Y-116269876D01*
X132119738Y-116222257D01*
X132024500Y-116127019D01*
X131976880Y-115984161D01*
X131976880Y-115888923D01*
X132024500Y-115746066D01*
X132072119Y-115698447D01*
X132976880Y-114746066D02*
X132976880Y-115317495D01*
X132976880Y-115031780D02*
X131976880Y-115031780D01*
X132119738Y-115127019D01*
X132214976Y-115222257D01*
X132262595Y-115317495D01*
X132072119Y-114365114D02*
X132024500Y-114317495D01*
X131976880Y-114222257D01*
X131976880Y-113984161D01*
X132024500Y-113888923D01*
X132072119Y-113841304D01*
X132167357Y-113793685D01*
X132262595Y-113793685D01*
X132405452Y-113841304D01*
X132976880Y-114412733D01*
X132976880Y-113793685D01*
X131976880Y-112936542D02*
X131976880Y-113127019D01*
X132024500Y-113222257D01*
X132072119Y-113269876D01*
X132214976Y-113365114D01*
X132405452Y-113412733D01*
X132786404Y-113412733D01*
X132881642Y-113365114D01*
X132929261Y-113317495D01*
X132976880Y-113222257D01*
X132976880Y-113031780D01*
X132929261Y-112936542D01*
X132881642Y-112888923D01*
X132786404Y-112841304D01*
X132548309Y-112841304D01*
X132453071Y-112888923D01*
X132405452Y-112936542D01*
X132357833Y-113031780D01*
X132357833Y-113222257D01*
X132405452Y-113317495D01*
X132453071Y-113365114D01*
X132548309Y-113412733D01*
G04 #@! TO.C,C110*
X77343283Y-86880660D02*
X77295664Y-86928279D01*
X77152807Y-86975898D01*
X77057569Y-86975898D01*
X76914711Y-86928279D01*
X76819473Y-86833041D01*
X76771854Y-86737803D01*
X76724235Y-86547327D01*
X76724235Y-86404470D01*
X76771854Y-86213994D01*
X76819473Y-86118756D01*
X76914711Y-86023518D01*
X77057569Y-85975898D01*
X77152807Y-85975898D01*
X77295664Y-86023518D01*
X77343283Y-86071137D01*
X78295664Y-86975898D02*
X77724235Y-86975898D01*
X78009950Y-86975898D02*
X78009950Y-85975898D01*
X77914711Y-86118756D01*
X77819473Y-86213994D01*
X77724235Y-86261613D01*
X79248045Y-86975898D02*
X78676616Y-86975898D01*
X78962331Y-86975898D02*
X78962331Y-85975898D01*
X78867092Y-86118756D01*
X78771854Y-86213994D01*
X78676616Y-86261613D01*
X79867092Y-85975898D02*
X79962331Y-85975898D01*
X80057569Y-86023518D01*
X80105188Y-86071137D01*
X80152807Y-86166375D01*
X80200426Y-86356851D01*
X80200426Y-86594946D01*
X80152807Y-86785422D01*
X80105188Y-86880660D01*
X80057569Y-86928279D01*
X79962331Y-86975898D01*
X79867092Y-86975898D01*
X79771854Y-86928279D01*
X79724235Y-86880660D01*
X79676616Y-86785422D01*
X79628997Y-86594946D01*
X79628997Y-86356851D01*
X79676616Y-86166375D01*
X79724235Y-86071137D01*
X79771854Y-86023518D01*
X79867092Y-85975898D01*
G04 #@! TO.C,J5*
X129211380Y-55891333D02*
X129925666Y-55891333D01*
X130068523Y-55938952D01*
X130163761Y-56034190D01*
X130211380Y-56177047D01*
X130211380Y-56272285D01*
X129211380Y-54938952D02*
X129211380Y-55415142D01*
X129687571Y-55462761D01*
X129639952Y-55415142D01*
X129592333Y-55319904D01*
X129592333Y-55081809D01*
X129639952Y-54986571D01*
X129687571Y-54938952D01*
X129782809Y-54891333D01*
X130020904Y-54891333D01*
X130116142Y-54938952D01*
X130163761Y-54986571D01*
X130211380Y-55081809D01*
X130211380Y-55319904D01*
X130163761Y-55415142D01*
X130116142Y-55462761D01*
G04 #@! TO.C,J1*
X67441380Y-126444333D02*
X68155666Y-126444333D01*
X68298523Y-126491952D01*
X68393761Y-126587190D01*
X68441380Y-126730047D01*
X68441380Y-126825285D01*
X68441380Y-125444333D02*
X68441380Y-126015761D01*
X68441380Y-125730047D02*
X67441380Y-125730047D01*
X67584238Y-125825285D01*
X67679476Y-125920523D01*
X67727095Y-126015761D01*
G04 #@! TO.C,J2*
X127817180Y-146827833D02*
X128531466Y-146827833D01*
X128674323Y-146875452D01*
X128769561Y-146970690D01*
X128817180Y-147113547D01*
X128817180Y-147208785D01*
X127912419Y-146399261D02*
X127864800Y-146351642D01*
X127817180Y-146256404D01*
X127817180Y-146018309D01*
X127864800Y-145923071D01*
X127912419Y-145875452D01*
X128007657Y-145827833D01*
X128102895Y-145827833D01*
X128245752Y-145875452D01*
X128817180Y-146446880D01*
X128817180Y-145827833D01*
G04 #@! TO.C,J4*
X114101180Y-145494333D02*
X114815466Y-145494333D01*
X114958323Y-145541952D01*
X115053561Y-145637190D01*
X115101180Y-145780047D01*
X115101180Y-145875285D01*
X114434514Y-144589571D02*
X115101180Y-144589571D01*
X114053561Y-144827666D02*
X114767847Y-145065761D01*
X114767847Y-144446714D01*
G04 #@! TO.C,Y1*
X109048609Y-131034190D02*
X109048609Y-131510380D01*
X108715276Y-130510380D02*
X109048609Y-131034190D01*
X109381942Y-130510380D01*
X110239085Y-131510380D02*
X109667657Y-131510380D01*
X109953371Y-131510380D02*
X109953371Y-130510380D01*
X109858133Y-130653238D01*
X109762895Y-130748476D01*
X109667657Y-130796095D01*
G04 #@! TO.C,FB1*
X134300571Y-82684833D02*
X134300571Y-83018166D01*
X134824380Y-83018166D02*
X133824380Y-83018166D01*
X133824380Y-82541976D01*
X134300571Y-81827690D02*
X134348190Y-81684833D01*
X134395809Y-81637214D01*
X134491047Y-81589595D01*
X134633904Y-81589595D01*
X134729142Y-81637214D01*
X134776761Y-81684833D01*
X134824380Y-81780071D01*
X134824380Y-82161023D01*
X133824380Y-82161023D01*
X133824380Y-81827690D01*
X133872000Y-81732452D01*
X133919619Y-81684833D01*
X134014857Y-81637214D01*
X134110095Y-81637214D01*
X134205333Y-81684833D01*
X134252952Y-81732452D01*
X134300571Y-81827690D01*
X134300571Y-82161023D01*
X134824380Y-80637214D02*
X134824380Y-81208642D01*
X134824380Y-80922928D02*
X133824380Y-80922928D01*
X133967238Y-81018166D01*
X134062476Y-81113404D01*
X134110095Y-81208642D01*
G04 #@! TO.C,L5*
X71071568Y-91198991D02*
X71071568Y-91675182D01*
X70071568Y-91675182D01*
X70071568Y-90389467D02*
X70071568Y-90865658D01*
X70547759Y-90913277D01*
X70500140Y-90865658D01*
X70452521Y-90770420D01*
X70452521Y-90532325D01*
X70500140Y-90437086D01*
X70547759Y-90389467D01*
X70642997Y-90341848D01*
X70881092Y-90341848D01*
X70976330Y-90389467D01*
X71023949Y-90437086D01*
X71071568Y-90532325D01*
X71071568Y-90770420D01*
X71023949Y-90865658D01*
X70976330Y-90913277D01*
G04 #@! TO.C,L2*
X118578333Y-96786880D02*
X118102142Y-96786880D01*
X118102142Y-95786880D01*
X118864047Y-95882119D02*
X118911666Y-95834500D01*
X119006904Y-95786880D01*
X119245000Y-95786880D01*
X119340238Y-95834500D01*
X119387857Y-95882119D01*
X119435476Y-95977357D01*
X119435476Y-96072595D01*
X119387857Y-96215452D01*
X118816428Y-96786880D01*
X119435476Y-96786880D01*
G04 #@! TO.C,L6*
X93024424Y-91198991D02*
X93024424Y-91675182D01*
X92024424Y-91675182D01*
X92024424Y-90437086D02*
X92024424Y-90627563D01*
X92072044Y-90722801D01*
X92119663Y-90770420D01*
X92262520Y-90865658D01*
X92452996Y-90913277D01*
X92833948Y-90913277D01*
X92929186Y-90865658D01*
X92976805Y-90818039D01*
X93024424Y-90722801D01*
X93024424Y-90532325D01*
X92976805Y-90437086D01*
X92929186Y-90389467D01*
X92833948Y-90341848D01*
X92595853Y-90341848D01*
X92500615Y-90389467D01*
X92452996Y-90437086D01*
X92405377Y-90532325D01*
X92405377Y-90722801D01*
X92452996Y-90818039D01*
X92500615Y-90865658D01*
X92595853Y-90913277D01*
G04 #@! TO.C,L10*
X82047996Y-91675182D02*
X82047996Y-92151372D01*
X81047996Y-92151372D01*
X82047996Y-90818039D02*
X82047996Y-91389467D01*
X82047996Y-91103753D02*
X81047996Y-91103753D01*
X81190854Y-91198991D01*
X81286092Y-91294229D01*
X81333711Y-91389467D01*
X81047996Y-90198991D02*
X81047996Y-90103753D01*
X81095616Y-90008515D01*
X81143235Y-89960896D01*
X81238473Y-89913277D01*
X81428949Y-89865658D01*
X81667044Y-89865658D01*
X81857520Y-89913277D01*
X81952758Y-89960896D01*
X82000377Y-90008515D01*
X82047996Y-90103753D01*
X82047996Y-90198991D01*
X82000377Y-90294229D01*
X81952758Y-90341848D01*
X81857520Y-90389467D01*
X81667044Y-90437086D01*
X81428949Y-90437086D01*
X81238473Y-90389467D01*
X81143235Y-90341848D01*
X81095616Y-90294229D01*
X81047996Y-90198991D01*
G04 #@! TO.C,L9*
X60095140Y-91198991D02*
X60095140Y-91675182D01*
X59095140Y-91675182D01*
X60095140Y-90818039D02*
X60095140Y-90627563D01*
X60047521Y-90532325D01*
X59999902Y-90484705D01*
X59857045Y-90389467D01*
X59666569Y-90341848D01*
X59285617Y-90341848D01*
X59190379Y-90389467D01*
X59142760Y-90437086D01*
X59095140Y-90532325D01*
X59095140Y-90722801D01*
X59142760Y-90818039D01*
X59190379Y-90865658D01*
X59285617Y-90913277D01*
X59523712Y-90913277D01*
X59618950Y-90865658D01*
X59666569Y-90818039D01*
X59714188Y-90722801D01*
X59714188Y-90532325D01*
X59666569Y-90437086D01*
X59618950Y-90389467D01*
X59523712Y-90341848D01*
G04 #@! TO.C,D9*
X139000004Y-126093480D02*
X139000004Y-125093480D01*
X139238100Y-125093480D01*
X139380957Y-125141100D01*
X139476195Y-125236338D01*
X139523814Y-125331576D01*
X139571433Y-125522052D01*
X139571433Y-125664909D01*
X139523814Y-125855385D01*
X139476195Y-125950623D01*
X139380957Y-126045861D01*
X139238100Y-126093480D01*
X139000004Y-126093480D01*
X140047623Y-126093480D02*
X140238100Y-126093480D01*
X140333338Y-126045861D01*
X140380957Y-125998242D01*
X140476195Y-125855385D01*
X140523814Y-125664909D01*
X140523814Y-125283957D01*
X140476195Y-125188719D01*
X140428576Y-125141100D01*
X140333338Y-125093480D01*
X140142861Y-125093480D01*
X140047623Y-125141100D01*
X140000004Y-125188719D01*
X139952385Y-125283957D01*
X139952385Y-125522052D01*
X140000004Y-125617290D01*
X140047623Y-125664909D01*
X140142861Y-125712528D01*
X140333338Y-125712528D01*
X140428576Y-125664909D01*
X140476195Y-125617290D01*
X140523814Y-125522052D01*
G04 #@! TO.C,D10*
X139209614Y-124010680D02*
X139209614Y-123010680D01*
X139447709Y-123010680D01*
X139590566Y-123058300D01*
X139685804Y-123153538D01*
X139733423Y-123248776D01*
X139781042Y-123439252D01*
X139781042Y-123582109D01*
X139733423Y-123772585D01*
X139685804Y-123867823D01*
X139590566Y-123963061D01*
X139447709Y-124010680D01*
X139209614Y-124010680D01*
X140733423Y-124010680D02*
X140161995Y-124010680D01*
X140447709Y-124010680D02*
X140447709Y-123010680D01*
X140352471Y-123153538D01*
X140257233Y-123248776D01*
X140161995Y-123296395D01*
X141352471Y-123010680D02*
X141447709Y-123010680D01*
X141542947Y-123058300D01*
X141590566Y-123105919D01*
X141638185Y-123201157D01*
X141685804Y-123391633D01*
X141685804Y-123629728D01*
X141638185Y-123820204D01*
X141590566Y-123915442D01*
X141542947Y-123963061D01*
X141447709Y-124010680D01*
X141352471Y-124010680D01*
X141257233Y-123963061D01*
X141209614Y-123915442D01*
X141161995Y-123820204D01*
X141114376Y-123629728D01*
X141114376Y-123391633D01*
X141161995Y-123201157D01*
X141209614Y-123105919D01*
X141257233Y-123058300D01*
X141352471Y-123010680D01*
G04 #@! TO.C,D6*
X134707404Y-143201380D02*
X134707404Y-142201380D01*
X134945500Y-142201380D01*
X135088357Y-142249000D01*
X135183595Y-142344238D01*
X135231214Y-142439476D01*
X135278833Y-142629952D01*
X135278833Y-142772809D01*
X135231214Y-142963285D01*
X135183595Y-143058523D01*
X135088357Y-143153761D01*
X134945500Y-143201380D01*
X134707404Y-143201380D01*
X136135976Y-142201380D02*
X135945500Y-142201380D01*
X135850261Y-142249000D01*
X135802642Y-142296619D01*
X135707404Y-142439476D01*
X135659785Y-142629952D01*
X135659785Y-143010904D01*
X135707404Y-143106142D01*
X135755023Y-143153761D01*
X135850261Y-143201380D01*
X136040738Y-143201380D01*
X136135976Y-143153761D01*
X136183595Y-143106142D01*
X136231214Y-143010904D01*
X136231214Y-142772809D01*
X136183595Y-142677571D01*
X136135976Y-142629952D01*
X136040738Y-142582333D01*
X135850261Y-142582333D01*
X135755023Y-142629952D01*
X135707404Y-142677571D01*
X135659785Y-142772809D01*
G04 #@! TO.C,U2*
X103377380Y-122478704D02*
X104186904Y-122478704D01*
X104282142Y-122431085D01*
X104329761Y-122383466D01*
X104377380Y-122288228D01*
X104377380Y-122097752D01*
X104329761Y-122002514D01*
X104282142Y-121954895D01*
X104186904Y-121907276D01*
X103377380Y-121907276D01*
X103472619Y-121478704D02*
X103425000Y-121431085D01*
X103377380Y-121335847D01*
X103377380Y-121097752D01*
X103425000Y-121002514D01*
X103472619Y-120954895D01*
X103567857Y-120907276D01*
X103663095Y-120907276D01*
X103805952Y-120954895D01*
X104377380Y-121526323D01*
X104377380Y-120907276D01*
G04 #@! TO.C,U5*
X113841280Y-98539204D02*
X114650804Y-98539204D01*
X114746042Y-98491585D01*
X114793661Y-98443966D01*
X114841280Y-98348728D01*
X114841280Y-98158252D01*
X114793661Y-98063014D01*
X114746042Y-98015395D01*
X114650804Y-97967776D01*
X113841280Y-97967776D01*
X113841280Y-97015395D02*
X113841280Y-97491585D01*
X114317471Y-97539204D01*
X114269852Y-97491585D01*
X114222233Y-97396347D01*
X114222233Y-97158252D01*
X114269852Y-97063014D01*
X114317471Y-97015395D01*
X114412709Y-96967776D01*
X114650804Y-96967776D01*
X114746042Y-97015395D01*
X114793661Y-97063014D01*
X114841280Y-97158252D01*
X114841280Y-97396347D01*
X114793661Y-97491585D01*
X114746042Y-97539204D01*
G04 #@! TO.C,U3*
X127000095Y-92360380D02*
X127000095Y-93169904D01*
X127047714Y-93265142D01*
X127095333Y-93312761D01*
X127190571Y-93360380D01*
X127381047Y-93360380D01*
X127476285Y-93312761D01*
X127523904Y-93265142D01*
X127571523Y-93169904D01*
X127571523Y-92360380D01*
X127952476Y-92360380D02*
X128571523Y-92360380D01*
X128238190Y-92741333D01*
X128381047Y-92741333D01*
X128476285Y-92788952D01*
X128523904Y-92836571D01*
X128571523Y-92931809D01*
X128571523Y-93169904D01*
X128523904Y-93265142D01*
X128476285Y-93312761D01*
X128381047Y-93360380D01*
X128095333Y-93360380D01*
X128000095Y-93312761D01*
X127952476Y-93265142D01*
G04 #@! TO.C,U4*
X126936595Y-95726880D02*
X126936595Y-96536404D01*
X126984214Y-96631642D01*
X127031833Y-96679261D01*
X127127071Y-96726880D01*
X127317547Y-96726880D01*
X127412785Y-96679261D01*
X127460404Y-96631642D01*
X127508023Y-96536404D01*
X127508023Y-95726880D01*
X128412785Y-96060214D02*
X128412785Y-96726880D01*
X128174690Y-95679261D02*
X127936595Y-96393547D01*
X128555642Y-96393547D01*
G04 #@! TO.C,R20*
X130865642Y-83701880D02*
X130532309Y-83225690D01*
X130294214Y-83701880D02*
X130294214Y-82701880D01*
X130675166Y-82701880D01*
X130770404Y-82749500D01*
X130818023Y-82797119D01*
X130865642Y-82892357D01*
X130865642Y-83035214D01*
X130818023Y-83130452D01*
X130770404Y-83178071D01*
X130675166Y-83225690D01*
X130294214Y-83225690D01*
X131246595Y-82797119D02*
X131294214Y-82749500D01*
X131389452Y-82701880D01*
X131627547Y-82701880D01*
X131722785Y-82749500D01*
X131770404Y-82797119D01*
X131818023Y-82892357D01*
X131818023Y-82987595D01*
X131770404Y-83130452D01*
X131198976Y-83701880D01*
X131818023Y-83701880D01*
X132437071Y-82701880D02*
X132532309Y-82701880D01*
X132627547Y-82749500D01*
X132675166Y-82797119D01*
X132722785Y-82892357D01*
X132770404Y-83082833D01*
X132770404Y-83320928D01*
X132722785Y-83511404D01*
X132675166Y-83606642D01*
X132627547Y-83654261D01*
X132532309Y-83701880D01*
X132437071Y-83701880D01*
X132341833Y-83654261D01*
X132294214Y-83606642D01*
X132246595Y-83511404D01*
X132198976Y-83320928D01*
X132198976Y-83082833D01*
X132246595Y-82892357D01*
X132294214Y-82797119D01*
X132341833Y-82749500D01*
X132437071Y-82701880D01*
G04 #@! TO.C,R12*
X119499142Y-132025380D02*
X119165809Y-131549190D01*
X118927714Y-132025380D02*
X118927714Y-131025380D01*
X119308666Y-131025380D01*
X119403904Y-131073000D01*
X119451523Y-131120619D01*
X119499142Y-131215857D01*
X119499142Y-131358714D01*
X119451523Y-131453952D01*
X119403904Y-131501571D01*
X119308666Y-131549190D01*
X118927714Y-131549190D01*
X120451523Y-132025380D02*
X119880095Y-132025380D01*
X120165809Y-132025380D02*
X120165809Y-131025380D01*
X120070571Y-131168238D01*
X119975333Y-131263476D01*
X119880095Y-131311095D01*
X120832476Y-131120619D02*
X120880095Y-131073000D01*
X120975333Y-131025380D01*
X121213428Y-131025380D01*
X121308666Y-131073000D01*
X121356285Y-131120619D01*
X121403904Y-131215857D01*
X121403904Y-131311095D01*
X121356285Y-131453952D01*
X120784857Y-132025380D01*
X121403904Y-132025380D01*
G04 #@! TO.C,R18*
X132977880Y-91955857D02*
X132501690Y-92289190D01*
X132977880Y-92527285D02*
X131977880Y-92527285D01*
X131977880Y-92146333D01*
X132025500Y-92051095D01*
X132073119Y-92003476D01*
X132168357Y-91955857D01*
X132311214Y-91955857D01*
X132406452Y-92003476D01*
X132454071Y-92051095D01*
X132501690Y-92146333D01*
X132501690Y-92527285D01*
X132977880Y-91003476D02*
X132977880Y-91574904D01*
X132977880Y-91289190D02*
X131977880Y-91289190D01*
X132120738Y-91384428D01*
X132215976Y-91479666D01*
X132263595Y-91574904D01*
X132406452Y-90432047D02*
X132358833Y-90527285D01*
X132311214Y-90574904D01*
X132215976Y-90622523D01*
X132168357Y-90622523D01*
X132073119Y-90574904D01*
X132025500Y-90527285D01*
X131977880Y-90432047D01*
X131977880Y-90241571D01*
X132025500Y-90146333D01*
X132073119Y-90098714D01*
X132168357Y-90051095D01*
X132215976Y-90051095D01*
X132311214Y-90098714D01*
X132358833Y-90146333D01*
X132406452Y-90241571D01*
X132406452Y-90432047D01*
X132454071Y-90527285D01*
X132501690Y-90574904D01*
X132596928Y-90622523D01*
X132787404Y-90622523D01*
X132882642Y-90574904D01*
X132930261Y-90527285D01*
X132977880Y-90432047D01*
X132977880Y-90241571D01*
X132930261Y-90146333D01*
X132882642Y-90098714D01*
X132787404Y-90051095D01*
X132596928Y-90051095D01*
X132501690Y-90098714D01*
X132454071Y-90146333D01*
X132406452Y-90241571D01*
G04 #@! TO.C,R19*
X132977880Y-88526857D02*
X132501690Y-88860190D01*
X132977880Y-89098285D02*
X131977880Y-89098285D01*
X131977880Y-88717333D01*
X132025500Y-88622095D01*
X132073119Y-88574476D01*
X132168357Y-88526857D01*
X132311214Y-88526857D01*
X132406452Y-88574476D01*
X132454071Y-88622095D01*
X132501690Y-88717333D01*
X132501690Y-89098285D01*
X132977880Y-87574476D02*
X132977880Y-88145904D01*
X132977880Y-87860190D02*
X131977880Y-87860190D01*
X132120738Y-87955428D01*
X132215976Y-88050666D01*
X132263595Y-88145904D01*
X132977880Y-87098285D02*
X132977880Y-86907809D01*
X132930261Y-86812571D01*
X132882642Y-86764952D01*
X132739785Y-86669714D01*
X132549309Y-86622095D01*
X132168357Y-86622095D01*
X132073119Y-86669714D01*
X132025500Y-86717333D01*
X131977880Y-86812571D01*
X131977880Y-87003047D01*
X132025500Y-87098285D01*
X132073119Y-87145904D01*
X132168357Y-87193523D01*
X132406452Y-87193523D01*
X132501690Y-87145904D01*
X132549309Y-87098285D01*
X132596928Y-87003047D01*
X132596928Y-86812571D01*
X132549309Y-86717333D01*
X132501690Y-86669714D01*
X132406452Y-86622095D01*
G04 #@! TO.C,R21*
X124531380Y-85161357D02*
X124055190Y-85494690D01*
X124531380Y-85732785D02*
X123531380Y-85732785D01*
X123531380Y-85351833D01*
X123579000Y-85256595D01*
X123626619Y-85208976D01*
X123721857Y-85161357D01*
X123864714Y-85161357D01*
X123959952Y-85208976D01*
X124007571Y-85256595D01*
X124055190Y-85351833D01*
X124055190Y-85732785D01*
X123626619Y-84780404D02*
X123579000Y-84732785D01*
X123531380Y-84637547D01*
X123531380Y-84399452D01*
X123579000Y-84304214D01*
X123626619Y-84256595D01*
X123721857Y-84208976D01*
X123817095Y-84208976D01*
X123959952Y-84256595D01*
X124531380Y-84828023D01*
X124531380Y-84208976D01*
X124531380Y-83256595D02*
X124531380Y-83828023D01*
X124531380Y-83542309D02*
X123531380Y-83542309D01*
X123674238Y-83637547D01*
X123769476Y-83732785D01*
X123817095Y-83828023D01*
G04 #@! TO.C,R22*
X138942842Y-100007680D02*
X138609509Y-99531490D01*
X138371414Y-100007680D02*
X138371414Y-99007680D01*
X138752366Y-99007680D01*
X138847604Y-99055300D01*
X138895223Y-99102919D01*
X138942842Y-99198157D01*
X138942842Y-99341014D01*
X138895223Y-99436252D01*
X138847604Y-99483871D01*
X138752366Y-99531490D01*
X138371414Y-99531490D01*
X139323795Y-99102919D02*
X139371414Y-99055300D01*
X139466652Y-99007680D01*
X139704747Y-99007680D01*
X139799985Y-99055300D01*
X139847604Y-99102919D01*
X139895223Y-99198157D01*
X139895223Y-99293395D01*
X139847604Y-99436252D01*
X139276176Y-100007680D01*
X139895223Y-100007680D01*
X140276176Y-99102919D02*
X140323795Y-99055300D01*
X140419033Y-99007680D01*
X140657128Y-99007680D01*
X140752366Y-99055300D01*
X140799985Y-99102919D01*
X140847604Y-99198157D01*
X140847604Y-99293395D01*
X140799985Y-99436252D01*
X140228557Y-100007680D01*
X140847604Y-100007680D01*
G04 #@! TO.C,R23*
X107365482Y-91641192D02*
X106889292Y-91974525D01*
X107365482Y-92212620D02*
X106365482Y-92212620D01*
X106365482Y-91831668D01*
X106413102Y-91736430D01*
X106460721Y-91688811D01*
X106555959Y-91641192D01*
X106698816Y-91641192D01*
X106794054Y-91688811D01*
X106841673Y-91736430D01*
X106889292Y-91831668D01*
X106889292Y-92212620D01*
X106460721Y-91260239D02*
X106413102Y-91212620D01*
X106365482Y-91117382D01*
X106365482Y-90879287D01*
X106413102Y-90784049D01*
X106460721Y-90736430D01*
X106555959Y-90688811D01*
X106651197Y-90688811D01*
X106794054Y-90736430D01*
X107365482Y-91307858D01*
X107365482Y-90688811D01*
X106365482Y-90355477D02*
X106365482Y-89736430D01*
X106746435Y-90069763D01*
X106746435Y-89926906D01*
X106794054Y-89831668D01*
X106841673Y-89784049D01*
X106936911Y-89736430D01*
X107175006Y-89736430D01*
X107270244Y-89784049D01*
X107317863Y-89831668D01*
X107365482Y-89926906D01*
X107365482Y-90212620D01*
X107317863Y-90307858D01*
X107270244Y-90355477D01*
G04 #@! TO.C,R24*
X107365482Y-88018857D02*
X106889292Y-88352190D01*
X107365482Y-88590285D02*
X106365482Y-88590285D01*
X106365482Y-88209333D01*
X106413102Y-88114095D01*
X106460721Y-88066476D01*
X106555959Y-88018857D01*
X106698816Y-88018857D01*
X106794054Y-88066476D01*
X106841673Y-88114095D01*
X106889292Y-88209333D01*
X106889292Y-88590285D01*
X106460721Y-87637904D02*
X106413102Y-87590285D01*
X106365482Y-87495047D01*
X106365482Y-87256952D01*
X106413102Y-87161714D01*
X106460721Y-87114095D01*
X106555959Y-87066476D01*
X106651197Y-87066476D01*
X106794054Y-87114095D01*
X107365482Y-87685523D01*
X107365482Y-87066476D01*
X106698816Y-86209333D02*
X107365482Y-86209333D01*
X106317863Y-86447428D02*
X107032149Y-86685523D01*
X107032149Y-86066476D01*
G04 #@! TO.C,R25*
X131054724Y-143167320D02*
X130721391Y-142691130D01*
X130483296Y-143167320D02*
X130483296Y-142167320D01*
X130864248Y-142167320D01*
X130959486Y-142214940D01*
X131007105Y-142262559D01*
X131054724Y-142357797D01*
X131054724Y-142500654D01*
X131007105Y-142595892D01*
X130959486Y-142643511D01*
X130864248Y-142691130D01*
X130483296Y-142691130D01*
X131435677Y-142262559D02*
X131483296Y-142214940D01*
X131578534Y-142167320D01*
X131816629Y-142167320D01*
X131911867Y-142214940D01*
X131959486Y-142262559D01*
X132007105Y-142357797D01*
X132007105Y-142453035D01*
X131959486Y-142595892D01*
X131388058Y-143167320D01*
X132007105Y-143167320D01*
X132911867Y-142167320D02*
X132435677Y-142167320D01*
X132388058Y-142643511D01*
X132435677Y-142595892D01*
X132530915Y-142548273D01*
X132769010Y-142548273D01*
X132864248Y-142595892D01*
X132911867Y-142643511D01*
X132959486Y-142738749D01*
X132959486Y-142976844D01*
X132911867Y-143072082D01*
X132864248Y-143119701D01*
X132769010Y-143167320D01*
X132530915Y-143167320D01*
X132435677Y-143119701D01*
X132388058Y-143072082D01*
G04 #@! TO.C,R26*
X108767642Y-97034880D02*
X108434309Y-96558690D01*
X108196214Y-97034880D02*
X108196214Y-96034880D01*
X108577166Y-96034880D01*
X108672404Y-96082500D01*
X108720023Y-96130119D01*
X108767642Y-96225357D01*
X108767642Y-96368214D01*
X108720023Y-96463452D01*
X108672404Y-96511071D01*
X108577166Y-96558690D01*
X108196214Y-96558690D01*
X109148595Y-96130119D02*
X109196214Y-96082500D01*
X109291452Y-96034880D01*
X109529547Y-96034880D01*
X109624785Y-96082500D01*
X109672404Y-96130119D01*
X109720023Y-96225357D01*
X109720023Y-96320595D01*
X109672404Y-96463452D01*
X109100976Y-97034880D01*
X109720023Y-97034880D01*
X110577166Y-96034880D02*
X110386690Y-96034880D01*
X110291452Y-96082500D01*
X110243833Y-96130119D01*
X110148595Y-96272976D01*
X110100976Y-96463452D01*
X110100976Y-96844404D01*
X110148595Y-96939642D01*
X110196214Y-96987261D01*
X110291452Y-97034880D01*
X110481928Y-97034880D01*
X110577166Y-96987261D01*
X110624785Y-96939642D01*
X110672404Y-96844404D01*
X110672404Y-96606309D01*
X110624785Y-96511071D01*
X110577166Y-96463452D01*
X110481928Y-96415833D01*
X110291452Y-96415833D01*
X110196214Y-96463452D01*
X110148595Y-96511071D01*
X110100976Y-96606309D01*
G04 #@! TO.C,R27*
X105672880Y-107195857D02*
X105196690Y-107529190D01*
X105672880Y-107767285D02*
X104672880Y-107767285D01*
X104672880Y-107386333D01*
X104720500Y-107291095D01*
X104768119Y-107243476D01*
X104863357Y-107195857D01*
X105006214Y-107195857D01*
X105101452Y-107243476D01*
X105149071Y-107291095D01*
X105196690Y-107386333D01*
X105196690Y-107767285D01*
X104768119Y-106814904D02*
X104720500Y-106767285D01*
X104672880Y-106672047D01*
X104672880Y-106433952D01*
X104720500Y-106338714D01*
X104768119Y-106291095D01*
X104863357Y-106243476D01*
X104958595Y-106243476D01*
X105101452Y-106291095D01*
X105672880Y-106862523D01*
X105672880Y-106243476D01*
X104672880Y-105910142D02*
X104672880Y-105243476D01*
X105672880Y-105672047D01*
G04 #@! TO.C,R29*
X106497380Y-100845857D02*
X106021190Y-101179190D01*
X106497380Y-101417285D02*
X105497380Y-101417285D01*
X105497380Y-101036333D01*
X105545000Y-100941095D01*
X105592619Y-100893476D01*
X105687857Y-100845857D01*
X105830714Y-100845857D01*
X105925952Y-100893476D01*
X105973571Y-100941095D01*
X106021190Y-101036333D01*
X106021190Y-101417285D01*
X105592619Y-100464904D02*
X105545000Y-100417285D01*
X105497380Y-100322047D01*
X105497380Y-100083952D01*
X105545000Y-99988714D01*
X105592619Y-99941095D01*
X105687857Y-99893476D01*
X105783095Y-99893476D01*
X105925952Y-99941095D01*
X106497380Y-100512523D01*
X106497380Y-99893476D01*
X106497380Y-99417285D02*
X106497380Y-99226809D01*
X106449761Y-99131571D01*
X106402142Y-99083952D01*
X106259285Y-98988714D01*
X106068809Y-98941095D01*
X105687857Y-98941095D01*
X105592619Y-98988714D01*
X105545000Y-99036333D01*
X105497380Y-99131571D01*
X105497380Y-99322047D01*
X105545000Y-99417285D01*
X105592619Y-99464904D01*
X105687857Y-99512523D01*
X105925952Y-99512523D01*
X106021190Y-99464904D01*
X106068809Y-99417285D01*
X106116428Y-99322047D01*
X106116428Y-99131571D01*
X106068809Y-99036333D01*
X106021190Y-98988714D01*
X105925952Y-98941095D01*
G04 #@! TO.C,R28*
X109418380Y-110624857D02*
X108942190Y-110958190D01*
X109418380Y-111196285D02*
X108418380Y-111196285D01*
X108418380Y-110815333D01*
X108466000Y-110720095D01*
X108513619Y-110672476D01*
X108608857Y-110624857D01*
X108751714Y-110624857D01*
X108846952Y-110672476D01*
X108894571Y-110720095D01*
X108942190Y-110815333D01*
X108942190Y-111196285D01*
X108513619Y-110243904D02*
X108466000Y-110196285D01*
X108418380Y-110101047D01*
X108418380Y-109862952D01*
X108466000Y-109767714D01*
X108513619Y-109720095D01*
X108608857Y-109672476D01*
X108704095Y-109672476D01*
X108846952Y-109720095D01*
X109418380Y-110291523D01*
X109418380Y-109672476D01*
X108846952Y-109101047D02*
X108799333Y-109196285D01*
X108751714Y-109243904D01*
X108656476Y-109291523D01*
X108608857Y-109291523D01*
X108513619Y-109243904D01*
X108466000Y-109196285D01*
X108418380Y-109101047D01*
X108418380Y-108910571D01*
X108466000Y-108815333D01*
X108513619Y-108767714D01*
X108608857Y-108720095D01*
X108656476Y-108720095D01*
X108751714Y-108767714D01*
X108799333Y-108815333D01*
X108846952Y-108910571D01*
X108846952Y-109101047D01*
X108894571Y-109196285D01*
X108942190Y-109243904D01*
X109037428Y-109291523D01*
X109227904Y-109291523D01*
X109323142Y-109243904D01*
X109370761Y-109196285D01*
X109418380Y-109101047D01*
X109418380Y-108910571D01*
X109370761Y-108815333D01*
X109323142Y-108767714D01*
X109227904Y-108720095D01*
X109037428Y-108720095D01*
X108942190Y-108767714D01*
X108894571Y-108815333D01*
X108846952Y-108910571D01*
G04 #@! TO.C,R30*
X109593142Y-98877380D02*
X109259809Y-98401190D01*
X109021714Y-98877380D02*
X109021714Y-97877380D01*
X109402666Y-97877380D01*
X109497904Y-97925000D01*
X109545523Y-97972619D01*
X109593142Y-98067857D01*
X109593142Y-98210714D01*
X109545523Y-98305952D01*
X109497904Y-98353571D01*
X109402666Y-98401190D01*
X109021714Y-98401190D01*
X109926476Y-97877380D02*
X110545523Y-97877380D01*
X110212190Y-98258333D01*
X110355047Y-98258333D01*
X110450285Y-98305952D01*
X110497904Y-98353571D01*
X110545523Y-98448809D01*
X110545523Y-98686904D01*
X110497904Y-98782142D01*
X110450285Y-98829761D01*
X110355047Y-98877380D01*
X110069333Y-98877380D01*
X109974095Y-98829761D01*
X109926476Y-98782142D01*
X111164571Y-97877380D02*
X111259809Y-97877380D01*
X111355047Y-97925000D01*
X111402666Y-97972619D01*
X111450285Y-98067857D01*
X111497904Y-98258333D01*
X111497904Y-98496428D01*
X111450285Y-98686904D01*
X111402666Y-98782142D01*
X111355047Y-98829761D01*
X111259809Y-98877380D01*
X111164571Y-98877380D01*
X111069333Y-98829761D01*
X111021714Y-98782142D01*
X110974095Y-98686904D01*
X110926476Y-98496428D01*
X110926476Y-98258333D01*
X110974095Y-98067857D01*
X111021714Y-97972619D01*
X111069333Y-97925000D01*
X111164571Y-97877380D01*
G04 #@! TO.C,R11*
X112450642Y-68778380D02*
X112117309Y-68302190D01*
X111879214Y-68778380D02*
X111879214Y-67778380D01*
X112260166Y-67778380D01*
X112355404Y-67826000D01*
X112403023Y-67873619D01*
X112450642Y-67968857D01*
X112450642Y-68111714D01*
X112403023Y-68206952D01*
X112355404Y-68254571D01*
X112260166Y-68302190D01*
X111879214Y-68302190D01*
X113403023Y-68778380D02*
X112831595Y-68778380D01*
X113117309Y-68778380D02*
X113117309Y-67778380D01*
X113022071Y-67921238D01*
X112926833Y-68016476D01*
X112831595Y-68064095D01*
X114355404Y-68778380D02*
X113783976Y-68778380D01*
X114069690Y-68778380D02*
X114069690Y-67778380D01*
X113974452Y-67921238D01*
X113879214Y-68016476D01*
X113783976Y-68064095D01*
G04 #@! TO.C,R70*
X132097542Y-127820680D02*
X131764209Y-127344490D01*
X131526114Y-127820680D02*
X131526114Y-126820680D01*
X131907066Y-126820680D01*
X132002304Y-126868300D01*
X132049923Y-126915919D01*
X132097542Y-127011157D01*
X132097542Y-127154014D01*
X132049923Y-127249252D01*
X132002304Y-127296871D01*
X131907066Y-127344490D01*
X131526114Y-127344490D01*
X132430876Y-126820680D02*
X133097542Y-126820680D01*
X132668971Y-127820680D01*
X133668971Y-126820680D02*
X133764209Y-126820680D01*
X133859447Y-126868300D01*
X133907066Y-126915919D01*
X133954685Y-127011157D01*
X134002304Y-127201633D01*
X134002304Y-127439728D01*
X133954685Y-127630204D01*
X133907066Y-127725442D01*
X133859447Y-127773061D01*
X133764209Y-127820680D01*
X133668971Y-127820680D01*
X133573733Y-127773061D01*
X133526114Y-127725442D01*
X133478495Y-127630204D01*
X133430876Y-127439728D01*
X133430876Y-127201633D01*
X133478495Y-127011157D01*
X133526114Y-126915919D01*
X133573733Y-126868300D01*
X133668971Y-126820680D01*
G04 #@! TO.C,R71*
X132440442Y-122309880D02*
X132107109Y-121833690D01*
X131869014Y-122309880D02*
X131869014Y-121309880D01*
X132249966Y-121309880D01*
X132345204Y-121357500D01*
X132392823Y-121405119D01*
X132440442Y-121500357D01*
X132440442Y-121643214D01*
X132392823Y-121738452D01*
X132345204Y-121786071D01*
X132249966Y-121833690D01*
X131869014Y-121833690D01*
X132773776Y-121309880D02*
X133440442Y-121309880D01*
X133011871Y-122309880D01*
X134345204Y-122309880D02*
X133773776Y-122309880D01*
X134059490Y-122309880D02*
X134059490Y-121309880D01*
X133964252Y-121452738D01*
X133869014Y-121547976D01*
X133773776Y-121595595D01*
G04 #@! TO.C,R73*
X137244080Y-114828557D02*
X136767890Y-115161890D01*
X137244080Y-115399985D02*
X136244080Y-115399985D01*
X136244080Y-115019033D01*
X136291700Y-114923795D01*
X136339319Y-114876176D01*
X136434557Y-114828557D01*
X136577414Y-114828557D01*
X136672652Y-114876176D01*
X136720271Y-114923795D01*
X136767890Y-115019033D01*
X136767890Y-115399985D01*
X136244080Y-114495223D02*
X136244080Y-113828557D01*
X137244080Y-114257128D01*
X136244080Y-113542842D02*
X136244080Y-112923795D01*
X136625033Y-113257128D01*
X136625033Y-113114271D01*
X136672652Y-113019033D01*
X136720271Y-112971414D01*
X136815509Y-112923795D01*
X137053604Y-112923795D01*
X137148842Y-112971414D01*
X137196461Y-113019033D01*
X137244080Y-113114271D01*
X137244080Y-113399985D01*
X137196461Y-113495223D01*
X137148842Y-113542842D01*
G04 #@! TO.C,R10*
X112831642Y-63507880D02*
X112498309Y-63031690D01*
X112260214Y-63507880D02*
X112260214Y-62507880D01*
X112641166Y-62507880D01*
X112736404Y-62555500D01*
X112784023Y-62603119D01*
X112831642Y-62698357D01*
X112831642Y-62841214D01*
X112784023Y-62936452D01*
X112736404Y-62984071D01*
X112641166Y-63031690D01*
X112260214Y-63031690D01*
X113784023Y-63507880D02*
X113212595Y-63507880D01*
X113498309Y-63507880D02*
X113498309Y-62507880D01*
X113403071Y-62650738D01*
X113307833Y-62745976D01*
X113212595Y-62793595D01*
X114403071Y-62507880D02*
X114498309Y-62507880D01*
X114593547Y-62555500D01*
X114641166Y-62603119D01*
X114688785Y-62698357D01*
X114736404Y-62888833D01*
X114736404Y-63126928D01*
X114688785Y-63317404D01*
X114641166Y-63412642D01*
X114593547Y-63460261D01*
X114498309Y-63507880D01*
X114403071Y-63507880D01*
X114307833Y-63460261D01*
X114260214Y-63412642D01*
X114212595Y-63317404D01*
X114164976Y-63126928D01*
X114164976Y-62888833D01*
X114212595Y-62698357D01*
X114260214Y-62603119D01*
X114307833Y-62555500D01*
X114403071Y-62507880D01*
G04 #@! TO.C,R8*
X105163880Y-60478966D02*
X104687690Y-60812300D01*
X105163880Y-61050395D02*
X104163880Y-61050395D01*
X104163880Y-60669442D01*
X104211500Y-60574204D01*
X104259119Y-60526585D01*
X104354357Y-60478966D01*
X104497214Y-60478966D01*
X104592452Y-60526585D01*
X104640071Y-60574204D01*
X104687690Y-60669442D01*
X104687690Y-61050395D01*
X104592452Y-59907538D02*
X104544833Y-60002776D01*
X104497214Y-60050395D01*
X104401976Y-60098014D01*
X104354357Y-60098014D01*
X104259119Y-60050395D01*
X104211500Y-60002776D01*
X104163880Y-59907538D01*
X104163880Y-59717061D01*
X104211500Y-59621823D01*
X104259119Y-59574204D01*
X104354357Y-59526585D01*
X104401976Y-59526585D01*
X104497214Y-59574204D01*
X104544833Y-59621823D01*
X104592452Y-59717061D01*
X104592452Y-59907538D01*
X104640071Y-60002776D01*
X104687690Y-60050395D01*
X104782928Y-60098014D01*
X104973404Y-60098014D01*
X105068642Y-60050395D01*
X105116261Y-60002776D01*
X105163880Y-59907538D01*
X105163880Y-59717061D01*
X105116261Y-59621823D01*
X105068642Y-59574204D01*
X104973404Y-59526585D01*
X104782928Y-59526585D01*
X104687690Y-59574204D01*
X104640071Y-59621823D01*
X104592452Y-59717061D01*
G04 #@! TO.C,R7*
X105598933Y-62936380D02*
X105265600Y-62460190D01*
X105027504Y-62936380D02*
X105027504Y-61936380D01*
X105408457Y-61936380D01*
X105503695Y-61984000D01*
X105551314Y-62031619D01*
X105598933Y-62126857D01*
X105598933Y-62269714D01*
X105551314Y-62364952D01*
X105503695Y-62412571D01*
X105408457Y-62460190D01*
X105027504Y-62460190D01*
X105932266Y-61936380D02*
X106598933Y-61936380D01*
X106170361Y-62936380D01*
G04 #@! TO.C,R2*
X117482880Y-68619666D02*
X117006690Y-68953000D01*
X117482880Y-69191095D02*
X116482880Y-69191095D01*
X116482880Y-68810142D01*
X116530500Y-68714904D01*
X116578119Y-68667285D01*
X116673357Y-68619666D01*
X116816214Y-68619666D01*
X116911452Y-68667285D01*
X116959071Y-68714904D01*
X117006690Y-68810142D01*
X117006690Y-69191095D01*
X116578119Y-68238714D02*
X116530500Y-68191095D01*
X116482880Y-68095857D01*
X116482880Y-67857761D01*
X116530500Y-67762523D01*
X116578119Y-67714904D01*
X116673357Y-67667285D01*
X116768595Y-67667285D01*
X116911452Y-67714904D01*
X117482880Y-68286333D01*
X117482880Y-67667285D01*
G04 #@! TO.C,R9*
X103258880Y-60364666D02*
X102782690Y-60698000D01*
X103258880Y-60936095D02*
X102258880Y-60936095D01*
X102258880Y-60555142D01*
X102306500Y-60459904D01*
X102354119Y-60412285D01*
X102449357Y-60364666D01*
X102592214Y-60364666D01*
X102687452Y-60412285D01*
X102735071Y-60459904D01*
X102782690Y-60555142D01*
X102782690Y-60936095D01*
X103258880Y-59888476D02*
X103258880Y-59698000D01*
X103211261Y-59602761D01*
X103163642Y-59555142D01*
X103020785Y-59459904D01*
X102830309Y-59412285D01*
X102449357Y-59412285D01*
X102354119Y-59459904D01*
X102306500Y-59507523D01*
X102258880Y-59602761D01*
X102258880Y-59793238D01*
X102306500Y-59888476D01*
X102354119Y-59936095D01*
X102449357Y-59983714D01*
X102687452Y-59983714D01*
X102782690Y-59936095D01*
X102830309Y-59888476D01*
X102877928Y-59793238D01*
X102877928Y-59602761D01*
X102830309Y-59507523D01*
X102782690Y-59459904D01*
X102687452Y-59412285D01*
G04 #@! TO.C,R1*
X91573880Y-135866166D02*
X91097690Y-136199500D01*
X91573880Y-136437595D02*
X90573880Y-136437595D01*
X90573880Y-136056642D01*
X90621500Y-135961404D01*
X90669119Y-135913785D01*
X90764357Y-135866166D01*
X90907214Y-135866166D01*
X91002452Y-135913785D01*
X91050071Y-135961404D01*
X91097690Y-136056642D01*
X91097690Y-136437595D01*
X91573880Y-134913785D02*
X91573880Y-135485214D01*
X91573880Y-135199500D02*
X90573880Y-135199500D01*
X90716738Y-135294738D01*
X90811976Y-135389976D01*
X90859595Y-135485214D01*
G04 #@! TO.C,U1*
X118179195Y-50795570D02*
X118179195Y-51605094D01*
X118226814Y-51700332D01*
X118274433Y-51747951D01*
X118369671Y-51795570D01*
X118560147Y-51795570D01*
X118655385Y-51747951D01*
X118703004Y-51700332D01*
X118750623Y-51605094D01*
X118750623Y-50795570D01*
X119750623Y-51795570D02*
X119179195Y-51795570D01*
X119464909Y-51795570D02*
X119464909Y-50795570D01*
X119369671Y-50938428D01*
X119274433Y-51033666D01*
X119179195Y-51081285D01*
G04 #@! TD*
M02*
