G04 #@! TF.GenerationSoftware,KiCad,Pcbnew,5.1.9*
G04 #@! TF.CreationDate,2021-06-24T12:15:12+08:00*
G04 #@! TF.ProjectId,digital-amplifier2,64696769-7461-46c2-9d61-6d706c696669,rev?*
G04 #@! TF.SameCoordinates,Original*
G04 #@! TF.FileFunction,Paste,Bot*
G04 #@! TF.FilePolarity,Positive*
%FSLAX46Y46*%
G04 Gerber Fmt 4.6, Leading zero omitted, Abs format (unit mm)*
G04 Created by KiCad (PCBNEW 5.1.9) date 2021-06-24 12:15:12*
%MOMM*%
%LPD*%
G01*
G04 APERTURE LIST*
%ADD10R,1.000000X0.500000*%
%ADD11R,0.500000X1.000000*%
%ADD12R,0.800000X0.900000*%
%ADD13R,1.800000X2.500000*%
G04 APERTURE END LIST*
G36*
G01*
X166617200Y-212707900D02*
X166617200Y-212157900D01*
G75*
G02*
X166817200Y-211957900I200000J0D01*
G01*
X167217200Y-211957900D01*
G75*
G02*
X167417200Y-212157900I0J-200000D01*
G01*
X167417200Y-212707900D01*
G75*
G02*
X167217200Y-212907900I-200000J0D01*
G01*
X166817200Y-212907900D01*
G75*
G02*
X166617200Y-212707900I0J200000D01*
G01*
G37*
G36*
G01*
X164967200Y-212707900D02*
X164967200Y-212157900D01*
G75*
G02*
X165167200Y-211957900I200000J0D01*
G01*
X165567200Y-211957900D01*
G75*
G02*
X165767200Y-212157900I0J-200000D01*
G01*
X165767200Y-212707900D01*
G75*
G02*
X165567200Y-212907900I-200000J0D01*
G01*
X165167200Y-212907900D01*
G75*
G02*
X164967200Y-212707900I0J200000D01*
G01*
G37*
G36*
G01*
X166629900Y-215895600D02*
X166629900Y-215345600D01*
G75*
G02*
X166829900Y-215145600I200000J0D01*
G01*
X167229900Y-215145600D01*
G75*
G02*
X167429900Y-215345600I0J-200000D01*
G01*
X167429900Y-215895600D01*
G75*
G02*
X167229900Y-216095600I-200000J0D01*
G01*
X166829900Y-216095600D01*
G75*
G02*
X166629900Y-215895600I0J200000D01*
G01*
G37*
G36*
G01*
X164979900Y-215895600D02*
X164979900Y-215345600D01*
G75*
G02*
X165179900Y-215145600I200000J0D01*
G01*
X165579900Y-215145600D01*
G75*
G02*
X165779900Y-215345600I0J-200000D01*
G01*
X165779900Y-215895600D01*
G75*
G02*
X165579900Y-216095600I-200000J0D01*
G01*
X165179900Y-216095600D01*
G75*
G02*
X164979900Y-215895600I0J200000D01*
G01*
G37*
G36*
G01*
X166617200Y-214295400D02*
X166617200Y-213745400D01*
G75*
G02*
X166817200Y-213545400I200000J0D01*
G01*
X167217200Y-213545400D01*
G75*
G02*
X167417200Y-213745400I0J-200000D01*
G01*
X167417200Y-214295400D01*
G75*
G02*
X167217200Y-214495400I-200000J0D01*
G01*
X166817200Y-214495400D01*
G75*
G02*
X166617200Y-214295400I0J200000D01*
G01*
G37*
G36*
G01*
X164967200Y-214295400D02*
X164967200Y-213745400D01*
G75*
G02*
X165167200Y-213545400I200000J0D01*
G01*
X165567200Y-213545400D01*
G75*
G02*
X165767200Y-213745400I0J-200000D01*
G01*
X165767200Y-214295400D01*
G75*
G02*
X165567200Y-214495400I-200000J0D01*
G01*
X165167200Y-214495400D01*
G75*
G02*
X164967200Y-214295400I0J200000D01*
G01*
G37*
G36*
G01*
X168015500Y-163164500D02*
X168015500Y-164114500D01*
G75*
G02*
X167765500Y-164364500I-250000J0D01*
G01*
X167265500Y-164364500D01*
G75*
G02*
X167015500Y-164114500I0J250000D01*
G01*
X167015500Y-163164500D01*
G75*
G02*
X167265500Y-162914500I250000J0D01*
G01*
X167765500Y-162914500D01*
G75*
G02*
X168015500Y-163164500I0J-250000D01*
G01*
G37*
G36*
G01*
X169915500Y-163164500D02*
X169915500Y-164114500D01*
G75*
G02*
X169665500Y-164364500I-250000J0D01*
G01*
X169165500Y-164364500D01*
G75*
G02*
X168915500Y-164114500I0J250000D01*
G01*
X168915500Y-163164500D01*
G75*
G02*
X169165500Y-162914500I250000J0D01*
G01*
X169665500Y-162914500D01*
G75*
G02*
X169915500Y-163164500I0J-250000D01*
G01*
G37*
G36*
G01*
X151618900Y-179266002D02*
X151618900Y-178365998D01*
G75*
G02*
X151868898Y-178116000I249998J0D01*
G01*
X152393902Y-178116000D01*
G75*
G02*
X152643900Y-178365998I0J-249998D01*
G01*
X152643900Y-179266002D01*
G75*
G02*
X152393902Y-179516000I-249998J0D01*
G01*
X151868898Y-179516000D01*
G75*
G02*
X151618900Y-179266002I0J249998D01*
G01*
G37*
G36*
G01*
X149793900Y-179266002D02*
X149793900Y-178365998D01*
G75*
G02*
X150043898Y-178116000I249998J0D01*
G01*
X150568902Y-178116000D01*
G75*
G02*
X150818900Y-178365998I0J-249998D01*
G01*
X150818900Y-179266002D01*
G75*
G02*
X150568902Y-179516000I-249998J0D01*
G01*
X150043898Y-179516000D01*
G75*
G02*
X149793900Y-179266002I0J249998D01*
G01*
G37*
G36*
G01*
X174022599Y-195515500D02*
X174922601Y-195515500D01*
G75*
G02*
X175172600Y-195765499I0J-249999D01*
G01*
X175172600Y-196290501D01*
G75*
G02*
X174922601Y-196540500I-249999J0D01*
G01*
X174022599Y-196540500D01*
G75*
G02*
X173772600Y-196290501I0J249999D01*
G01*
X173772600Y-195765499D01*
G75*
G02*
X174022599Y-195515500I249999J0D01*
G01*
G37*
G36*
G01*
X174022599Y-193690500D02*
X174922601Y-193690500D01*
G75*
G02*
X175172600Y-193940499I0J-249999D01*
G01*
X175172600Y-194465501D01*
G75*
G02*
X174922601Y-194715500I-249999J0D01*
G01*
X174022599Y-194715500D01*
G75*
G02*
X173772600Y-194465501I0J249999D01*
G01*
X173772600Y-193940499D01*
G75*
G02*
X174022599Y-193690500I249999J0D01*
G01*
G37*
G36*
G01*
X174897201Y-198565500D02*
X173997199Y-198565500D01*
G75*
G02*
X173747200Y-198315501I0J249999D01*
G01*
X173747200Y-197790499D01*
G75*
G02*
X173997199Y-197540500I249999J0D01*
G01*
X174897201Y-197540500D01*
G75*
G02*
X175147200Y-197790499I0J-249999D01*
G01*
X175147200Y-198315501D01*
G75*
G02*
X174897201Y-198565500I-249999J0D01*
G01*
G37*
G36*
G01*
X174897201Y-200390500D02*
X173997199Y-200390500D01*
G75*
G02*
X173747200Y-200140501I0J249999D01*
G01*
X173747200Y-199615499D01*
G75*
G02*
X173997199Y-199365500I249999J0D01*
G01*
X174897201Y-199365500D01*
G75*
G02*
X175147200Y-199615499I0J-249999D01*
G01*
X175147200Y-200140501D01*
G75*
G02*
X174897201Y-200390500I-249999J0D01*
G01*
G37*
G36*
G01*
X160818600Y-189796900D02*
X160818600Y-190641900D01*
G75*
G02*
X160646100Y-190814400I-172500J0D01*
G01*
X160301100Y-190814400D01*
G75*
G02*
X160128600Y-190641900I0J172500D01*
G01*
X160128600Y-189796900D01*
G75*
G02*
X160301100Y-189624400I172500J0D01*
G01*
X160646100Y-189624400D01*
G75*
G02*
X160818600Y-189796900I0J-172500D01*
G01*
G37*
G36*
G01*
X160818600Y-188376900D02*
X160818600Y-189221900D01*
G75*
G02*
X160646100Y-189394400I-172500J0D01*
G01*
X160301100Y-189394400D01*
G75*
G02*
X160128600Y-189221900I0J172500D01*
G01*
X160128600Y-188376900D01*
G75*
G02*
X160301100Y-188204400I172500J0D01*
G01*
X160646100Y-188204400D01*
G75*
G02*
X160818600Y-188376900I0J-172500D01*
G01*
G37*
G36*
G01*
X161638600Y-189796900D02*
X161638600Y-190641900D01*
G75*
G02*
X161466100Y-190814400I-172500J0D01*
G01*
X161121100Y-190814400D01*
G75*
G02*
X160948600Y-190641900I0J172500D01*
G01*
X160948600Y-189796900D01*
G75*
G02*
X161121100Y-189624400I172500J0D01*
G01*
X161466100Y-189624400D01*
G75*
G02*
X161638600Y-189796900I0J-172500D01*
G01*
G37*
G36*
G01*
X161638600Y-188376900D02*
X161638600Y-189221900D01*
G75*
G02*
X161466100Y-189394400I-172500J0D01*
G01*
X161121100Y-189394400D01*
G75*
G02*
X160948600Y-189221900I0J172500D01*
G01*
X160948600Y-188376900D01*
G75*
G02*
X161121100Y-188204400I172500J0D01*
G01*
X161466100Y-188204400D01*
G75*
G02*
X161638600Y-188376900I0J-172500D01*
G01*
G37*
G36*
G01*
X159458600Y-187784400D02*
X159458600Y-187984400D01*
G75*
G02*
X159358600Y-188084400I-100000J0D01*
G01*
X158108600Y-188084400D01*
G75*
G02*
X158008600Y-187984400I0J100000D01*
G01*
X158008600Y-187784400D01*
G75*
G02*
X158108600Y-187684400I100000J0D01*
G01*
X159358600Y-187684400D01*
G75*
G02*
X159458600Y-187784400I0J-100000D01*
G01*
G37*
G36*
G01*
X159458600Y-188434400D02*
X159458600Y-188634400D01*
G75*
G02*
X159358600Y-188734400I-100000J0D01*
G01*
X158108600Y-188734400D01*
G75*
G02*
X158008600Y-188634400I0J100000D01*
G01*
X158008600Y-188434400D01*
G75*
G02*
X158108600Y-188334400I100000J0D01*
G01*
X159358600Y-188334400D01*
G75*
G02*
X159458600Y-188434400I0J-100000D01*
G01*
G37*
G36*
G01*
X159458600Y-189084400D02*
X159458600Y-189284400D01*
G75*
G02*
X159358600Y-189384400I-100000J0D01*
G01*
X158108600Y-189384400D01*
G75*
G02*
X158008600Y-189284400I0J100000D01*
G01*
X158008600Y-189084400D01*
G75*
G02*
X158108600Y-188984400I100000J0D01*
G01*
X159358600Y-188984400D01*
G75*
G02*
X159458600Y-189084400I0J-100000D01*
G01*
G37*
G36*
G01*
X159458600Y-189734400D02*
X159458600Y-189934400D01*
G75*
G02*
X159358600Y-190034400I-100000J0D01*
G01*
X158108600Y-190034400D01*
G75*
G02*
X158008600Y-189934400I0J100000D01*
G01*
X158008600Y-189734400D01*
G75*
G02*
X158108600Y-189634400I100000J0D01*
G01*
X159358600Y-189634400D01*
G75*
G02*
X159458600Y-189734400I0J-100000D01*
G01*
G37*
G36*
G01*
X159458600Y-190384400D02*
X159458600Y-190584400D01*
G75*
G02*
X159358600Y-190684400I-100000J0D01*
G01*
X158108600Y-190684400D01*
G75*
G02*
X158008600Y-190584400I0J100000D01*
G01*
X158008600Y-190384400D01*
G75*
G02*
X158108600Y-190284400I100000J0D01*
G01*
X159358600Y-190284400D01*
G75*
G02*
X159458600Y-190384400I0J-100000D01*
G01*
G37*
G36*
G01*
X159458600Y-191034400D02*
X159458600Y-191234400D01*
G75*
G02*
X159358600Y-191334400I-100000J0D01*
G01*
X158108600Y-191334400D01*
G75*
G02*
X158008600Y-191234400I0J100000D01*
G01*
X158008600Y-191034400D01*
G75*
G02*
X158108600Y-190934400I100000J0D01*
G01*
X159358600Y-190934400D01*
G75*
G02*
X159458600Y-191034400I0J-100000D01*
G01*
G37*
G36*
G01*
X163758600Y-191034400D02*
X163758600Y-191234400D01*
G75*
G02*
X163658600Y-191334400I-100000J0D01*
G01*
X162408600Y-191334400D01*
G75*
G02*
X162308600Y-191234400I0J100000D01*
G01*
X162308600Y-191034400D01*
G75*
G02*
X162408600Y-190934400I100000J0D01*
G01*
X163658600Y-190934400D01*
G75*
G02*
X163758600Y-191034400I0J-100000D01*
G01*
G37*
G36*
G01*
X163758600Y-190384400D02*
X163758600Y-190584400D01*
G75*
G02*
X163658600Y-190684400I-100000J0D01*
G01*
X162408600Y-190684400D01*
G75*
G02*
X162308600Y-190584400I0J100000D01*
G01*
X162308600Y-190384400D01*
G75*
G02*
X162408600Y-190284400I100000J0D01*
G01*
X163658600Y-190284400D01*
G75*
G02*
X163758600Y-190384400I0J-100000D01*
G01*
G37*
G36*
G01*
X163758600Y-189734400D02*
X163758600Y-189934400D01*
G75*
G02*
X163658600Y-190034400I-100000J0D01*
G01*
X162408600Y-190034400D01*
G75*
G02*
X162308600Y-189934400I0J100000D01*
G01*
X162308600Y-189734400D01*
G75*
G02*
X162408600Y-189634400I100000J0D01*
G01*
X163658600Y-189634400D01*
G75*
G02*
X163758600Y-189734400I0J-100000D01*
G01*
G37*
G36*
G01*
X163758600Y-189084400D02*
X163758600Y-189284400D01*
G75*
G02*
X163658600Y-189384400I-100000J0D01*
G01*
X162408600Y-189384400D01*
G75*
G02*
X162308600Y-189284400I0J100000D01*
G01*
X162308600Y-189084400D01*
G75*
G02*
X162408600Y-188984400I100000J0D01*
G01*
X163658600Y-188984400D01*
G75*
G02*
X163758600Y-189084400I0J-100000D01*
G01*
G37*
G36*
G01*
X163758600Y-188434400D02*
X163758600Y-188634400D01*
G75*
G02*
X163658600Y-188734400I-100000J0D01*
G01*
X162408600Y-188734400D01*
G75*
G02*
X162308600Y-188634400I0J100000D01*
G01*
X162308600Y-188434400D01*
G75*
G02*
X162408600Y-188334400I100000J0D01*
G01*
X163658600Y-188334400D01*
G75*
G02*
X163758600Y-188434400I0J-100000D01*
G01*
G37*
G36*
G01*
X163758600Y-187784400D02*
X163758600Y-187984400D01*
G75*
G02*
X163658600Y-188084400I-100000J0D01*
G01*
X162408600Y-188084400D01*
G75*
G02*
X162308600Y-187984400I0J100000D01*
G01*
X162308600Y-187784400D01*
G75*
G02*
X162408600Y-187684400I100000J0D01*
G01*
X163658600Y-187684400D01*
G75*
G02*
X163758600Y-187784400I0J-100000D01*
G01*
G37*
G36*
G01*
X160904960Y-180411600D02*
X160904960Y-181256600D01*
G75*
G02*
X160732460Y-181429100I-172500J0D01*
G01*
X160387460Y-181429100D01*
G75*
G02*
X160214960Y-181256600I0J172500D01*
G01*
X160214960Y-180411600D01*
G75*
G02*
X160387460Y-180239100I172500J0D01*
G01*
X160732460Y-180239100D01*
G75*
G02*
X160904960Y-180411600I0J-172500D01*
G01*
G37*
G36*
G01*
X160904960Y-178991600D02*
X160904960Y-179836600D01*
G75*
G02*
X160732460Y-180009100I-172500J0D01*
G01*
X160387460Y-180009100D01*
G75*
G02*
X160214960Y-179836600I0J172500D01*
G01*
X160214960Y-178991600D01*
G75*
G02*
X160387460Y-178819100I172500J0D01*
G01*
X160732460Y-178819100D01*
G75*
G02*
X160904960Y-178991600I0J-172500D01*
G01*
G37*
G36*
G01*
X161724960Y-180411600D02*
X161724960Y-181256600D01*
G75*
G02*
X161552460Y-181429100I-172500J0D01*
G01*
X161207460Y-181429100D01*
G75*
G02*
X161034960Y-181256600I0J172500D01*
G01*
X161034960Y-180411600D01*
G75*
G02*
X161207460Y-180239100I172500J0D01*
G01*
X161552460Y-180239100D01*
G75*
G02*
X161724960Y-180411600I0J-172500D01*
G01*
G37*
G36*
G01*
X161724960Y-178991600D02*
X161724960Y-179836600D01*
G75*
G02*
X161552460Y-180009100I-172500J0D01*
G01*
X161207460Y-180009100D01*
G75*
G02*
X161034960Y-179836600I0J172500D01*
G01*
X161034960Y-178991600D01*
G75*
G02*
X161207460Y-178819100I172500J0D01*
G01*
X161552460Y-178819100D01*
G75*
G02*
X161724960Y-178991600I0J-172500D01*
G01*
G37*
G36*
G01*
X159544960Y-178399100D02*
X159544960Y-178599100D01*
G75*
G02*
X159444960Y-178699100I-100000J0D01*
G01*
X158194960Y-178699100D01*
G75*
G02*
X158094960Y-178599100I0J100000D01*
G01*
X158094960Y-178399100D01*
G75*
G02*
X158194960Y-178299100I100000J0D01*
G01*
X159444960Y-178299100D01*
G75*
G02*
X159544960Y-178399100I0J-100000D01*
G01*
G37*
G36*
G01*
X159544960Y-179049100D02*
X159544960Y-179249100D01*
G75*
G02*
X159444960Y-179349100I-100000J0D01*
G01*
X158194960Y-179349100D01*
G75*
G02*
X158094960Y-179249100I0J100000D01*
G01*
X158094960Y-179049100D01*
G75*
G02*
X158194960Y-178949100I100000J0D01*
G01*
X159444960Y-178949100D01*
G75*
G02*
X159544960Y-179049100I0J-100000D01*
G01*
G37*
G36*
G01*
X159544960Y-179699100D02*
X159544960Y-179899100D01*
G75*
G02*
X159444960Y-179999100I-100000J0D01*
G01*
X158194960Y-179999100D01*
G75*
G02*
X158094960Y-179899100I0J100000D01*
G01*
X158094960Y-179699100D01*
G75*
G02*
X158194960Y-179599100I100000J0D01*
G01*
X159444960Y-179599100D01*
G75*
G02*
X159544960Y-179699100I0J-100000D01*
G01*
G37*
G36*
G01*
X159544960Y-180349100D02*
X159544960Y-180549100D01*
G75*
G02*
X159444960Y-180649100I-100000J0D01*
G01*
X158194960Y-180649100D01*
G75*
G02*
X158094960Y-180549100I0J100000D01*
G01*
X158094960Y-180349100D01*
G75*
G02*
X158194960Y-180249100I100000J0D01*
G01*
X159444960Y-180249100D01*
G75*
G02*
X159544960Y-180349100I0J-100000D01*
G01*
G37*
G36*
G01*
X159544960Y-180999100D02*
X159544960Y-181199100D01*
G75*
G02*
X159444960Y-181299100I-100000J0D01*
G01*
X158194960Y-181299100D01*
G75*
G02*
X158094960Y-181199100I0J100000D01*
G01*
X158094960Y-180999100D01*
G75*
G02*
X158194960Y-180899100I100000J0D01*
G01*
X159444960Y-180899100D01*
G75*
G02*
X159544960Y-180999100I0J-100000D01*
G01*
G37*
G36*
G01*
X159544960Y-181649100D02*
X159544960Y-181849100D01*
G75*
G02*
X159444960Y-181949100I-100000J0D01*
G01*
X158194960Y-181949100D01*
G75*
G02*
X158094960Y-181849100I0J100000D01*
G01*
X158094960Y-181649100D01*
G75*
G02*
X158194960Y-181549100I100000J0D01*
G01*
X159444960Y-181549100D01*
G75*
G02*
X159544960Y-181649100I0J-100000D01*
G01*
G37*
G36*
G01*
X163844960Y-181649100D02*
X163844960Y-181849100D01*
G75*
G02*
X163744960Y-181949100I-100000J0D01*
G01*
X162494960Y-181949100D01*
G75*
G02*
X162394960Y-181849100I0J100000D01*
G01*
X162394960Y-181649100D01*
G75*
G02*
X162494960Y-181549100I100000J0D01*
G01*
X163744960Y-181549100D01*
G75*
G02*
X163844960Y-181649100I0J-100000D01*
G01*
G37*
G36*
G01*
X163844960Y-180999100D02*
X163844960Y-181199100D01*
G75*
G02*
X163744960Y-181299100I-100000J0D01*
G01*
X162494960Y-181299100D01*
G75*
G02*
X162394960Y-181199100I0J100000D01*
G01*
X162394960Y-180999100D01*
G75*
G02*
X162494960Y-180899100I100000J0D01*
G01*
X163744960Y-180899100D01*
G75*
G02*
X163844960Y-180999100I0J-100000D01*
G01*
G37*
G36*
G01*
X163844960Y-180349100D02*
X163844960Y-180549100D01*
G75*
G02*
X163744960Y-180649100I-100000J0D01*
G01*
X162494960Y-180649100D01*
G75*
G02*
X162394960Y-180549100I0J100000D01*
G01*
X162394960Y-180349100D01*
G75*
G02*
X162494960Y-180249100I100000J0D01*
G01*
X163744960Y-180249100D01*
G75*
G02*
X163844960Y-180349100I0J-100000D01*
G01*
G37*
G36*
G01*
X163844960Y-179699100D02*
X163844960Y-179899100D01*
G75*
G02*
X163744960Y-179999100I-100000J0D01*
G01*
X162494960Y-179999100D01*
G75*
G02*
X162394960Y-179899100I0J100000D01*
G01*
X162394960Y-179699100D01*
G75*
G02*
X162494960Y-179599100I100000J0D01*
G01*
X163744960Y-179599100D01*
G75*
G02*
X163844960Y-179699100I0J-100000D01*
G01*
G37*
G36*
G01*
X163844960Y-179049100D02*
X163844960Y-179249100D01*
G75*
G02*
X163744960Y-179349100I-100000J0D01*
G01*
X162494960Y-179349100D01*
G75*
G02*
X162394960Y-179249100I0J100000D01*
G01*
X162394960Y-179049100D01*
G75*
G02*
X162494960Y-178949100I100000J0D01*
G01*
X163744960Y-178949100D01*
G75*
G02*
X163844960Y-179049100I0J-100000D01*
G01*
G37*
G36*
G01*
X163844960Y-178399100D02*
X163844960Y-178599100D01*
G75*
G02*
X163744960Y-178699100I-100000J0D01*
G01*
X162494960Y-178699100D01*
G75*
G02*
X162394960Y-178599100I0J100000D01*
G01*
X162394960Y-178399100D01*
G75*
G02*
X162494960Y-178299100I100000J0D01*
G01*
X163744960Y-178299100D01*
G75*
G02*
X163844960Y-178399100I0J-100000D01*
G01*
G37*
G36*
G01*
X167709002Y-115995500D02*
X166808998Y-115995500D01*
G75*
G02*
X166559000Y-115745502I0J249998D01*
G01*
X166559000Y-115220498D01*
G75*
G02*
X166808998Y-114970500I249998J0D01*
G01*
X167709002Y-114970500D01*
G75*
G02*
X167959000Y-115220498I0J-249998D01*
G01*
X167959000Y-115745502D01*
G75*
G02*
X167709002Y-115995500I-249998J0D01*
G01*
G37*
G36*
G01*
X167709002Y-117820500D02*
X166808998Y-117820500D01*
G75*
G02*
X166559000Y-117570502I0J249998D01*
G01*
X166559000Y-117045498D01*
G75*
G02*
X166808998Y-116795500I249998J0D01*
G01*
X167709002Y-116795500D01*
G75*
G02*
X167959000Y-117045498I0J-249998D01*
G01*
X167959000Y-117570502D01*
G75*
G02*
X167709002Y-117820500I-249998J0D01*
G01*
G37*
G36*
G01*
X147909160Y-154717560D02*
X147909160Y-154217560D01*
G75*
G02*
X148134160Y-153992560I225000J0D01*
G01*
X148584160Y-153992560D01*
G75*
G02*
X148809160Y-154217560I0J-225000D01*
G01*
X148809160Y-154717560D01*
G75*
G02*
X148584160Y-154942560I-225000J0D01*
G01*
X148134160Y-154942560D01*
G75*
G02*
X147909160Y-154717560I0J225000D01*
G01*
G37*
G36*
G01*
X146359160Y-154717560D02*
X146359160Y-154217560D01*
G75*
G02*
X146584160Y-153992560I225000J0D01*
G01*
X147034160Y-153992560D01*
G75*
G02*
X147259160Y-154217560I0J-225000D01*
G01*
X147259160Y-154717560D01*
G75*
G02*
X147034160Y-154942560I-225000J0D01*
G01*
X146584160Y-154942560D01*
G75*
G02*
X146359160Y-154717560I0J225000D01*
G01*
G37*
G36*
G01*
X156275360Y-192703000D02*
X156825360Y-192703000D01*
G75*
G02*
X157025360Y-192903000I0J-200000D01*
G01*
X157025360Y-193303000D01*
G75*
G02*
X156825360Y-193503000I-200000J0D01*
G01*
X156275360Y-193503000D01*
G75*
G02*
X156075360Y-193303000I0J200000D01*
G01*
X156075360Y-192903000D01*
G75*
G02*
X156275360Y-192703000I200000J0D01*
G01*
G37*
G36*
G01*
X156275360Y-191053000D02*
X156825360Y-191053000D01*
G75*
G02*
X157025360Y-191253000I0J-200000D01*
G01*
X157025360Y-191653000D01*
G75*
G02*
X156825360Y-191853000I-200000J0D01*
G01*
X156275360Y-191853000D01*
G75*
G02*
X156075360Y-191653000I0J200000D01*
G01*
X156075360Y-191253000D01*
G75*
G02*
X156275360Y-191053000I200000J0D01*
G01*
G37*
G36*
G01*
X156293140Y-183312620D02*
X156843140Y-183312620D01*
G75*
G02*
X157043140Y-183512620I0J-200000D01*
G01*
X157043140Y-183912620D01*
G75*
G02*
X156843140Y-184112620I-200000J0D01*
G01*
X156293140Y-184112620D01*
G75*
G02*
X156093140Y-183912620I0J200000D01*
G01*
X156093140Y-183512620D01*
G75*
G02*
X156293140Y-183312620I200000J0D01*
G01*
G37*
G36*
G01*
X156293140Y-181662620D02*
X156843140Y-181662620D01*
G75*
G02*
X157043140Y-181862620I0J-200000D01*
G01*
X157043140Y-182262620D01*
G75*
G02*
X156843140Y-182462620I-200000J0D01*
G01*
X156293140Y-182462620D01*
G75*
G02*
X156093140Y-182262620I0J200000D01*
G01*
X156093140Y-181862620D01*
G75*
G02*
X156293140Y-181662620I200000J0D01*
G01*
G37*
G36*
G01*
X154623960Y-192615700D02*
X155123960Y-192615700D01*
G75*
G02*
X155348960Y-192840700I0J-225000D01*
G01*
X155348960Y-193290700D01*
G75*
G02*
X155123960Y-193515700I-225000J0D01*
G01*
X154623960Y-193515700D01*
G75*
G02*
X154398960Y-193290700I0J225000D01*
G01*
X154398960Y-192840700D01*
G75*
G02*
X154623960Y-192615700I225000J0D01*
G01*
G37*
G36*
G01*
X154623960Y-191065700D02*
X155123960Y-191065700D01*
G75*
G02*
X155348960Y-191290700I0J-225000D01*
G01*
X155348960Y-191740700D01*
G75*
G02*
X155123960Y-191965700I-225000J0D01*
G01*
X154623960Y-191965700D01*
G75*
G02*
X154398960Y-191740700I0J225000D01*
G01*
X154398960Y-191290700D01*
G75*
G02*
X154623960Y-191065700I225000J0D01*
G01*
G37*
G36*
G01*
X154743340Y-183212620D02*
X155243340Y-183212620D01*
G75*
G02*
X155468340Y-183437620I0J-225000D01*
G01*
X155468340Y-183887620D01*
G75*
G02*
X155243340Y-184112620I-225000J0D01*
G01*
X154743340Y-184112620D01*
G75*
G02*
X154518340Y-183887620I0J225000D01*
G01*
X154518340Y-183437620D01*
G75*
G02*
X154743340Y-183212620I225000J0D01*
G01*
G37*
G36*
G01*
X154743340Y-181662620D02*
X155243340Y-181662620D01*
G75*
G02*
X155468340Y-181887620I0J-225000D01*
G01*
X155468340Y-182337620D01*
G75*
G02*
X155243340Y-182562620I-225000J0D01*
G01*
X154743340Y-182562620D01*
G75*
G02*
X154518340Y-182337620I0J225000D01*
G01*
X154518340Y-181887620D01*
G75*
G02*
X154743340Y-181662620I225000J0D01*
G01*
G37*
G36*
G01*
X126259400Y-111358800D02*
X125759400Y-111358800D01*
G75*
G02*
X125534400Y-111133800I0J225000D01*
G01*
X125534400Y-110683800D01*
G75*
G02*
X125759400Y-110458800I225000J0D01*
G01*
X126259400Y-110458800D01*
G75*
G02*
X126484400Y-110683800I0J-225000D01*
G01*
X126484400Y-111133800D01*
G75*
G02*
X126259400Y-111358800I-225000J0D01*
G01*
G37*
G36*
G01*
X126259400Y-112908800D02*
X125759400Y-112908800D01*
G75*
G02*
X125534400Y-112683800I0J225000D01*
G01*
X125534400Y-112233800D01*
G75*
G02*
X125759400Y-112008800I225000J0D01*
G01*
X126259400Y-112008800D01*
G75*
G02*
X126484400Y-112233800I0J-225000D01*
G01*
X126484400Y-112683800D01*
G75*
G02*
X126259400Y-112908800I-225000J0D01*
G01*
G37*
G36*
G01*
X118639400Y-111409600D02*
X118139400Y-111409600D01*
G75*
G02*
X117914400Y-111184600I0J225000D01*
G01*
X117914400Y-110734600D01*
G75*
G02*
X118139400Y-110509600I225000J0D01*
G01*
X118639400Y-110509600D01*
G75*
G02*
X118864400Y-110734600I0J-225000D01*
G01*
X118864400Y-111184600D01*
G75*
G02*
X118639400Y-111409600I-225000J0D01*
G01*
G37*
G36*
G01*
X118639400Y-112959600D02*
X118139400Y-112959600D01*
G75*
G02*
X117914400Y-112734600I0J225000D01*
G01*
X117914400Y-112284600D01*
G75*
G02*
X118139400Y-112059600I225000J0D01*
G01*
X118639400Y-112059600D01*
G75*
G02*
X118864400Y-112284600I0J-225000D01*
G01*
X118864400Y-112734600D01*
G75*
G02*
X118639400Y-112959600I-225000J0D01*
G01*
G37*
G36*
G01*
X122449400Y-111409600D02*
X121949400Y-111409600D01*
G75*
G02*
X121724400Y-111184600I0J225000D01*
G01*
X121724400Y-110734600D01*
G75*
G02*
X121949400Y-110509600I225000J0D01*
G01*
X122449400Y-110509600D01*
G75*
G02*
X122674400Y-110734600I0J-225000D01*
G01*
X122674400Y-111184600D01*
G75*
G02*
X122449400Y-111409600I-225000J0D01*
G01*
G37*
G36*
G01*
X122449400Y-112959600D02*
X121949400Y-112959600D01*
G75*
G02*
X121724400Y-112734600I0J225000D01*
G01*
X121724400Y-112284600D01*
G75*
G02*
X121949400Y-112059600I225000J0D01*
G01*
X122449400Y-112059600D01*
G75*
G02*
X122674400Y-112284600I0J-225000D01*
G01*
X122674400Y-112734600D01*
G75*
G02*
X122449400Y-112959600I-225000J0D01*
G01*
G37*
G36*
G01*
X114778600Y-111358800D02*
X114278600Y-111358800D01*
G75*
G02*
X114053600Y-111133800I0J225000D01*
G01*
X114053600Y-110683800D01*
G75*
G02*
X114278600Y-110458800I225000J0D01*
G01*
X114778600Y-110458800D01*
G75*
G02*
X115003600Y-110683800I0J-225000D01*
G01*
X115003600Y-111133800D01*
G75*
G02*
X114778600Y-111358800I-225000J0D01*
G01*
G37*
G36*
G01*
X114778600Y-112908800D02*
X114278600Y-112908800D01*
G75*
G02*
X114053600Y-112683800I0J225000D01*
G01*
X114053600Y-112233800D01*
G75*
G02*
X114278600Y-112008800I225000J0D01*
G01*
X114778600Y-112008800D01*
G75*
G02*
X115003600Y-112233800I0J-225000D01*
G01*
X115003600Y-112683800D01*
G75*
G02*
X114778600Y-112908800I-225000J0D01*
G01*
G37*
G36*
G01*
X124635441Y-125912040D02*
X122435439Y-125912040D01*
G75*
G02*
X122185440Y-125662041I0J249999D01*
G01*
X122185440Y-125012039D01*
G75*
G02*
X122435439Y-124762040I249999J0D01*
G01*
X124635441Y-124762040D01*
G75*
G02*
X124885440Y-125012039I0J-249999D01*
G01*
X124885440Y-125662041D01*
G75*
G02*
X124635441Y-125912040I-249999J0D01*
G01*
G37*
G36*
G01*
X124635441Y-128862040D02*
X122435439Y-128862040D01*
G75*
G02*
X122185440Y-128612041I0J249999D01*
G01*
X122185440Y-127962039D01*
G75*
G02*
X122435439Y-127712040I249999J0D01*
G01*
X124635441Y-127712040D01*
G75*
G02*
X124885440Y-127962039I0J-249999D01*
G01*
X124885440Y-128612041D01*
G75*
G02*
X124635441Y-128862040I-249999J0D01*
G01*
G37*
G36*
G01*
X108902681Y-125927280D02*
X106702679Y-125927280D01*
G75*
G02*
X106452680Y-125677281I0J249999D01*
G01*
X106452680Y-125027279D01*
G75*
G02*
X106702679Y-124777280I249999J0D01*
G01*
X108902681Y-124777280D01*
G75*
G02*
X109152680Y-125027279I0J-249999D01*
G01*
X109152680Y-125677281D01*
G75*
G02*
X108902681Y-125927280I-249999J0D01*
G01*
G37*
G36*
G01*
X108902681Y-128877280D02*
X106702679Y-128877280D01*
G75*
G02*
X106452680Y-128627281I0J249999D01*
G01*
X106452680Y-127977279D01*
G75*
G02*
X106702679Y-127727280I249999J0D01*
G01*
X108902681Y-127727280D01*
G75*
G02*
X109152680Y-127977279I0J-249999D01*
G01*
X109152680Y-128627281D01*
G75*
G02*
X108902681Y-128877280I-249999J0D01*
G01*
G37*
G36*
G01*
X121074361Y-125912040D02*
X118874359Y-125912040D01*
G75*
G02*
X118624360Y-125662041I0J249999D01*
G01*
X118624360Y-125012039D01*
G75*
G02*
X118874359Y-124762040I249999J0D01*
G01*
X121074361Y-124762040D01*
G75*
G02*
X121324360Y-125012039I0J-249999D01*
G01*
X121324360Y-125662041D01*
G75*
G02*
X121074361Y-125912040I-249999J0D01*
G01*
G37*
G36*
G01*
X121074361Y-128862040D02*
X118874359Y-128862040D01*
G75*
G02*
X118624360Y-128612041I0J249999D01*
G01*
X118624360Y-127962039D01*
G75*
G02*
X118874359Y-127712040I249999J0D01*
G01*
X121074361Y-127712040D01*
G75*
G02*
X121324360Y-127962039I0J-249999D01*
G01*
X121324360Y-128612041D01*
G75*
G02*
X121074361Y-128862040I-249999J0D01*
G01*
G37*
G36*
G01*
X134170601Y-125990040D02*
X131970599Y-125990040D01*
G75*
G02*
X131720600Y-125740041I0J249999D01*
G01*
X131720600Y-125090039D01*
G75*
G02*
X131970599Y-124840040I249999J0D01*
G01*
X134170601Y-124840040D01*
G75*
G02*
X134420600Y-125090039I0J-249999D01*
G01*
X134420600Y-125740041D01*
G75*
G02*
X134170601Y-125990040I-249999J0D01*
G01*
G37*
G36*
G01*
X134170601Y-128940040D02*
X131970599Y-128940040D01*
G75*
G02*
X131720600Y-128690041I0J249999D01*
G01*
X131720600Y-128040039D01*
G75*
G02*
X131970599Y-127790040I249999J0D01*
G01*
X134170601Y-127790040D01*
G75*
G02*
X134420600Y-128040039I0J-249999D01*
G01*
X134420600Y-128690041D01*
G75*
G02*
X134170601Y-128940040I-249999J0D01*
G01*
G37*
G36*
G01*
X120120600Y-168066600D02*
X120620600Y-168066600D01*
G75*
G02*
X120845600Y-168291600I0J-225000D01*
G01*
X120845600Y-168741600D01*
G75*
G02*
X120620600Y-168966600I-225000J0D01*
G01*
X120120600Y-168966600D01*
G75*
G02*
X119895600Y-168741600I0J225000D01*
G01*
X119895600Y-168291600D01*
G75*
G02*
X120120600Y-168066600I225000J0D01*
G01*
G37*
G36*
G01*
X120120600Y-166516600D02*
X120620600Y-166516600D01*
G75*
G02*
X120845600Y-166741600I0J-225000D01*
G01*
X120845600Y-167191600D01*
G75*
G02*
X120620600Y-167416600I-225000J0D01*
G01*
X120120600Y-167416600D01*
G75*
G02*
X119895600Y-167191600I0J225000D01*
G01*
X119895600Y-166741600D01*
G75*
G02*
X120120600Y-166516600I225000J0D01*
G01*
G37*
G36*
G01*
X121708100Y-168079300D02*
X122208100Y-168079300D01*
G75*
G02*
X122433100Y-168304300I0J-225000D01*
G01*
X122433100Y-168754300D01*
G75*
G02*
X122208100Y-168979300I-225000J0D01*
G01*
X121708100Y-168979300D01*
G75*
G02*
X121483100Y-168754300I0J225000D01*
G01*
X121483100Y-168304300D01*
G75*
G02*
X121708100Y-168079300I225000J0D01*
G01*
G37*
G36*
G01*
X121708100Y-166529300D02*
X122208100Y-166529300D01*
G75*
G02*
X122433100Y-166754300I0J-225000D01*
G01*
X122433100Y-167204300D01*
G75*
G02*
X122208100Y-167429300I-225000J0D01*
G01*
X121708100Y-167429300D01*
G75*
G02*
X121483100Y-167204300I0J225000D01*
G01*
X121483100Y-166754300D01*
G75*
G02*
X121708100Y-166529300I225000J0D01*
G01*
G37*
D10*
X152019000Y-115528600D03*
X152019000Y-116528600D03*
X152019000Y-117528600D03*
X152019000Y-118528600D03*
X152019000Y-119528600D03*
X152019000Y-120528600D03*
X152019000Y-121528600D03*
X152019000Y-122528600D03*
X152019000Y-123528600D03*
X152019000Y-124528600D03*
X152019000Y-125528600D03*
X152019000Y-126528600D03*
X152019000Y-127528600D03*
X152019000Y-128528600D03*
X152019000Y-129528600D03*
X152019000Y-130528600D03*
X152019000Y-131528600D03*
D11*
X150019000Y-132528600D03*
X149019000Y-132528600D03*
X148019000Y-132528600D03*
X147019000Y-132528600D03*
X146019000Y-132528600D03*
X145019000Y-132528600D03*
X144019000Y-132528600D03*
X143019000Y-132528600D03*
X142019000Y-132528600D03*
X141019000Y-132528600D03*
X141019000Y-114528600D03*
X148019000Y-114528600D03*
X145019000Y-114528600D03*
X147019000Y-114528600D03*
X142019000Y-114528600D03*
X146019000Y-114528600D03*
X149019000Y-114528600D03*
X144019000Y-114528600D03*
X143019000Y-114528600D03*
X150019000Y-114528600D03*
D10*
X139019000Y-126528600D03*
X139019000Y-130528600D03*
X139019000Y-118528600D03*
X139019000Y-119528600D03*
X139019000Y-116528600D03*
X139019000Y-121528600D03*
X139019000Y-125528600D03*
X139019000Y-128528600D03*
X139019000Y-117528600D03*
X139019000Y-129528600D03*
X139019000Y-120528600D03*
X139019000Y-122528600D03*
X139019000Y-115528600D03*
X139019000Y-123528600D03*
X139019000Y-124528600D03*
X139019000Y-131528600D03*
X139019000Y-127528600D03*
G36*
G01*
X151695100Y-188651302D02*
X151695100Y-187751298D01*
G75*
G02*
X151945098Y-187501300I249998J0D01*
G01*
X152470102Y-187501300D01*
G75*
G02*
X152720100Y-187751298I0J-249998D01*
G01*
X152720100Y-188651302D01*
G75*
G02*
X152470102Y-188901300I-249998J0D01*
G01*
X151945098Y-188901300D01*
G75*
G02*
X151695100Y-188651302I0J249998D01*
G01*
G37*
G36*
G01*
X149870100Y-188651302D02*
X149870100Y-187751298D01*
G75*
G02*
X150120098Y-187501300I249998J0D01*
G01*
X150645102Y-187501300D01*
G75*
G02*
X150895100Y-187751298I0J-249998D01*
G01*
X150895100Y-188651302D01*
G75*
G02*
X150645102Y-188901300I-249998J0D01*
G01*
X150120098Y-188901300D01*
G75*
G02*
X149870100Y-188651302I0J249998D01*
G01*
G37*
G36*
G01*
X162324202Y-122099120D02*
X161424198Y-122099120D01*
G75*
G02*
X161174200Y-121849122I0J249998D01*
G01*
X161174200Y-121324118D01*
G75*
G02*
X161424198Y-121074120I249998J0D01*
G01*
X162324202Y-121074120D01*
G75*
G02*
X162574200Y-121324118I0J-249998D01*
G01*
X162574200Y-121849122D01*
G75*
G02*
X162324202Y-122099120I-249998J0D01*
G01*
G37*
G36*
G01*
X162324202Y-123924120D02*
X161424198Y-123924120D01*
G75*
G02*
X161174200Y-123674122I0J249998D01*
G01*
X161174200Y-123149118D01*
G75*
G02*
X161424198Y-122899120I249998J0D01*
G01*
X162324202Y-122899120D01*
G75*
G02*
X162574200Y-123149118I0J-249998D01*
G01*
X162574200Y-123674122D01*
G75*
G02*
X162324202Y-123924120I-249998J0D01*
G01*
G37*
G36*
G01*
X159102638Y-122929600D02*
X160002642Y-122929600D01*
G75*
G02*
X160252640Y-123179598I0J-249998D01*
G01*
X160252640Y-123704602D01*
G75*
G02*
X160002642Y-123954600I-249998J0D01*
G01*
X159102638Y-123954600D01*
G75*
G02*
X158852640Y-123704602I0J249998D01*
G01*
X158852640Y-123179598D01*
G75*
G02*
X159102638Y-122929600I249998J0D01*
G01*
G37*
G36*
G01*
X159102638Y-121104600D02*
X160002642Y-121104600D01*
G75*
G02*
X160252640Y-121354598I0J-249998D01*
G01*
X160252640Y-121879602D01*
G75*
G02*
X160002642Y-122129600I-249998J0D01*
G01*
X159102638Y-122129600D01*
G75*
G02*
X158852640Y-121879602I0J249998D01*
G01*
X158852640Y-121354598D01*
G75*
G02*
X159102638Y-121104600I249998J0D01*
G01*
G37*
G36*
G01*
X165555082Y-115980260D02*
X164655078Y-115980260D01*
G75*
G02*
X164405080Y-115730262I0J249998D01*
G01*
X164405080Y-115205258D01*
G75*
G02*
X164655078Y-114955260I249998J0D01*
G01*
X165555082Y-114955260D01*
G75*
G02*
X165805080Y-115205258I0J-249998D01*
G01*
X165805080Y-115730262D01*
G75*
G02*
X165555082Y-115980260I-249998J0D01*
G01*
G37*
G36*
G01*
X165555082Y-117805260D02*
X164655078Y-117805260D01*
G75*
G02*
X164405080Y-117555262I0J249998D01*
G01*
X164405080Y-117030258D01*
G75*
G02*
X164655078Y-116780260I249998J0D01*
G01*
X165555082Y-116780260D01*
G75*
G02*
X165805080Y-117030258I0J-249998D01*
G01*
X165805080Y-117555262D01*
G75*
G02*
X165555082Y-117805260I-249998J0D01*
G01*
G37*
G36*
G01*
X162215780Y-116014922D02*
X162215780Y-115114918D01*
G75*
G02*
X162465778Y-114864920I249998J0D01*
G01*
X162990782Y-114864920D01*
G75*
G02*
X163240780Y-115114918I0J-249998D01*
G01*
X163240780Y-116014922D01*
G75*
G02*
X162990782Y-116264920I-249998J0D01*
G01*
X162465778Y-116264920D01*
G75*
G02*
X162215780Y-116014922I0J249998D01*
G01*
G37*
G36*
G01*
X160390780Y-116014922D02*
X160390780Y-115114918D01*
G75*
G02*
X160640778Y-114864920I249998J0D01*
G01*
X161165782Y-114864920D01*
G75*
G02*
X161415780Y-115114918I0J-249998D01*
G01*
X161415780Y-116014922D01*
G75*
G02*
X161165782Y-116264920I-249998J0D01*
G01*
X160640778Y-116264920D01*
G75*
G02*
X160390780Y-116014922I0J249998D01*
G01*
G37*
G36*
G01*
X146153718Y-134612320D02*
X147053722Y-134612320D01*
G75*
G02*
X147303720Y-134862318I0J-249998D01*
G01*
X147303720Y-135387322D01*
G75*
G02*
X147053722Y-135637320I-249998J0D01*
G01*
X146153718Y-135637320D01*
G75*
G02*
X145903720Y-135387322I0J249998D01*
G01*
X145903720Y-134862318D01*
G75*
G02*
X146153718Y-134612320I249998J0D01*
G01*
G37*
G36*
G01*
X146153718Y-136437320D02*
X147053722Y-136437320D01*
G75*
G02*
X147303720Y-136687318I0J-249998D01*
G01*
X147303720Y-137212322D01*
G75*
G02*
X147053722Y-137462320I-249998J0D01*
G01*
X146153718Y-137462320D01*
G75*
G02*
X145903720Y-137212322I0J249998D01*
G01*
X145903720Y-136687318D01*
G75*
G02*
X146153718Y-136437320I249998J0D01*
G01*
G37*
G36*
G01*
X156864000Y-127856402D02*
X156864000Y-126956398D01*
G75*
G02*
X157113998Y-126706400I249998J0D01*
G01*
X157639002Y-126706400D01*
G75*
G02*
X157889000Y-126956398I0J-249998D01*
G01*
X157889000Y-127856402D01*
G75*
G02*
X157639002Y-128106400I-249998J0D01*
G01*
X157113998Y-128106400D01*
G75*
G02*
X156864000Y-127856402I0J249998D01*
G01*
G37*
G36*
G01*
X155039000Y-127856402D02*
X155039000Y-126956398D01*
G75*
G02*
X155288998Y-126706400I249998J0D01*
G01*
X155814002Y-126706400D01*
G75*
G02*
X156064000Y-126956398I0J-249998D01*
G01*
X156064000Y-127856402D01*
G75*
G02*
X155814002Y-128106400I-249998J0D01*
G01*
X155288998Y-128106400D01*
G75*
G02*
X155039000Y-127856402I0J249998D01*
G01*
G37*
G36*
G01*
X121110162Y-191044880D02*
X120210158Y-191044880D01*
G75*
G02*
X119960160Y-190794882I0J249998D01*
G01*
X119960160Y-190269878D01*
G75*
G02*
X120210158Y-190019880I249998J0D01*
G01*
X121110162Y-190019880D01*
G75*
G02*
X121360160Y-190269878I0J-249998D01*
G01*
X121360160Y-190794882D01*
G75*
G02*
X121110162Y-191044880I-249998J0D01*
G01*
G37*
G36*
G01*
X121110162Y-192869880D02*
X120210158Y-192869880D01*
G75*
G02*
X119960160Y-192619882I0J249998D01*
G01*
X119960160Y-192094878D01*
G75*
G02*
X120210158Y-191844880I249998J0D01*
G01*
X121110162Y-191844880D01*
G75*
G02*
X121360160Y-192094878I0J-249998D01*
G01*
X121360160Y-192619882D01*
G75*
G02*
X121110162Y-192869880I-249998J0D01*
G01*
G37*
G36*
G01*
X118458402Y-191009320D02*
X117558398Y-191009320D01*
G75*
G02*
X117308400Y-190759322I0J249998D01*
G01*
X117308400Y-190234318D01*
G75*
G02*
X117558398Y-189984320I249998J0D01*
G01*
X118458402Y-189984320D01*
G75*
G02*
X118708400Y-190234318I0J-249998D01*
G01*
X118708400Y-190759322D01*
G75*
G02*
X118458402Y-191009320I-249998J0D01*
G01*
G37*
G36*
G01*
X118458402Y-192834320D02*
X117558398Y-192834320D01*
G75*
G02*
X117308400Y-192584322I0J249998D01*
G01*
X117308400Y-192059318D01*
G75*
G02*
X117558398Y-191809320I249998J0D01*
G01*
X118458402Y-191809320D01*
G75*
G02*
X118708400Y-192059318I0J-249998D01*
G01*
X118708400Y-192584322D01*
G75*
G02*
X118458402Y-192834320I-249998J0D01*
G01*
G37*
D12*
X160728660Y-117767860D03*
X159778660Y-119767860D03*
X161678660Y-119767860D03*
G36*
G01*
X176768600Y-193904250D02*
X176768600Y-194666750D01*
G75*
G02*
X176549850Y-194885500I-218750J0D01*
G01*
X176112350Y-194885500D01*
G75*
G02*
X175893600Y-194666750I0J218750D01*
G01*
X175893600Y-193904250D01*
G75*
G02*
X176112350Y-193685500I218750J0D01*
G01*
X176549850Y-193685500D01*
G75*
G02*
X176768600Y-193904250I0J-218750D01*
G01*
G37*
G36*
G01*
X178893600Y-193904250D02*
X178893600Y-194666750D01*
G75*
G02*
X178674850Y-194885500I-218750J0D01*
G01*
X178237350Y-194885500D01*
G75*
G02*
X178018600Y-194666750I0J218750D01*
G01*
X178018600Y-193904250D01*
G75*
G02*
X178237350Y-193685500I218750J0D01*
G01*
X178674850Y-193685500D01*
G75*
G02*
X178893600Y-193904250I0J-218750D01*
G01*
G37*
G36*
G01*
X176768600Y-199402450D02*
X176768600Y-200164950D01*
G75*
G02*
X176549850Y-200383700I-218750J0D01*
G01*
X176112350Y-200383700D01*
G75*
G02*
X175893600Y-200164950I0J218750D01*
G01*
X175893600Y-199402450D01*
G75*
G02*
X176112350Y-199183700I218750J0D01*
G01*
X176549850Y-199183700D01*
G75*
G02*
X176768600Y-199402450I0J-218750D01*
G01*
G37*
G36*
G01*
X178893600Y-199402450D02*
X178893600Y-200164950D01*
G75*
G02*
X178674850Y-200383700I-218750J0D01*
G01*
X178237350Y-200383700D01*
G75*
G02*
X178018600Y-200164950I0J218750D01*
G01*
X178018600Y-199402450D01*
G75*
G02*
X178237350Y-199183700I218750J0D01*
G01*
X178674850Y-199183700D01*
G75*
G02*
X178893600Y-199402450I0J-218750D01*
G01*
G37*
D13*
X171691300Y-183089800D03*
X171691300Y-187089800D03*
X183591200Y-186817000D03*
X183591200Y-182817000D03*
G36*
G01*
X154668240Y-188508220D02*
X153718240Y-188508220D01*
G75*
G02*
X153468240Y-188258220I0J250000D01*
G01*
X153468240Y-187758220D01*
G75*
G02*
X153718240Y-187508220I250000J0D01*
G01*
X154668240Y-187508220D01*
G75*
G02*
X154918240Y-187758220I0J-250000D01*
G01*
X154918240Y-188258220D01*
G75*
G02*
X154668240Y-188508220I-250000J0D01*
G01*
G37*
G36*
G01*
X154668240Y-190408220D02*
X153718240Y-190408220D01*
G75*
G02*
X153468240Y-190158220I0J250000D01*
G01*
X153468240Y-189658220D01*
G75*
G02*
X153718240Y-189408220I250000J0D01*
G01*
X154668240Y-189408220D01*
G75*
G02*
X154918240Y-189658220I0J-250000D01*
G01*
X154918240Y-190158220D01*
G75*
G02*
X154668240Y-190408220I-250000J0D01*
G01*
G37*
G36*
G01*
X153690300Y-179989900D02*
X154640300Y-179989900D01*
G75*
G02*
X154890300Y-180239900I0J-250000D01*
G01*
X154890300Y-180739900D01*
G75*
G02*
X154640300Y-180989900I-250000J0D01*
G01*
X153690300Y-180989900D01*
G75*
G02*
X153440300Y-180739900I0J250000D01*
G01*
X153440300Y-180239900D01*
G75*
G02*
X153690300Y-179989900I250000J0D01*
G01*
G37*
G36*
G01*
X153690300Y-178089900D02*
X154640300Y-178089900D01*
G75*
G02*
X154890300Y-178339900I0J-250000D01*
G01*
X154890300Y-178839900D01*
G75*
G02*
X154640300Y-179089900I-250000J0D01*
G01*
X153690300Y-179089900D01*
G75*
G02*
X153440300Y-178839900I0J250000D01*
G01*
X153440300Y-178339900D01*
G75*
G02*
X153690300Y-178089900I250000J0D01*
G01*
G37*
G36*
G01*
X156801840Y-188495520D02*
X155851840Y-188495520D01*
G75*
G02*
X155601840Y-188245520I0J250000D01*
G01*
X155601840Y-187745520D01*
G75*
G02*
X155851840Y-187495520I250000J0D01*
G01*
X156801840Y-187495520D01*
G75*
G02*
X157051840Y-187745520I0J-250000D01*
G01*
X157051840Y-188245520D01*
G75*
G02*
X156801840Y-188495520I-250000J0D01*
G01*
G37*
G36*
G01*
X156801840Y-190395520D02*
X155851840Y-190395520D01*
G75*
G02*
X155601840Y-190145520I0J250000D01*
G01*
X155601840Y-189645520D01*
G75*
G02*
X155851840Y-189395520I250000J0D01*
G01*
X156801840Y-189395520D01*
G75*
G02*
X157051840Y-189645520I0J-250000D01*
G01*
X157051840Y-190145520D01*
G75*
G02*
X156801840Y-190395520I-250000J0D01*
G01*
G37*
G36*
G01*
X155836600Y-180002600D02*
X156786600Y-180002600D01*
G75*
G02*
X157036600Y-180252600I0J-250000D01*
G01*
X157036600Y-180752600D01*
G75*
G02*
X156786600Y-181002600I-250000J0D01*
G01*
X155836600Y-181002600D01*
G75*
G02*
X155586600Y-180752600I0J250000D01*
G01*
X155586600Y-180252600D01*
G75*
G02*
X155836600Y-180002600I250000J0D01*
G01*
G37*
G36*
G01*
X155836600Y-178102600D02*
X156786600Y-178102600D01*
G75*
G02*
X157036600Y-178352600I0J-250000D01*
G01*
X157036600Y-178852600D01*
G75*
G02*
X156786600Y-179102600I-250000J0D01*
G01*
X155836600Y-179102600D01*
G75*
G02*
X155586600Y-178852600I0J250000D01*
G01*
X155586600Y-178352600D01*
G75*
G02*
X155836600Y-178102600I250000J0D01*
G01*
G37*
G36*
G01*
X166006800Y-188500600D02*
X165056800Y-188500600D01*
G75*
G02*
X164806800Y-188250600I0J250000D01*
G01*
X164806800Y-187750600D01*
G75*
G02*
X165056800Y-187500600I250000J0D01*
G01*
X166006800Y-187500600D01*
G75*
G02*
X166256800Y-187750600I0J-250000D01*
G01*
X166256800Y-188250600D01*
G75*
G02*
X166006800Y-188500600I-250000J0D01*
G01*
G37*
G36*
G01*
X166006800Y-190400600D02*
X165056800Y-190400600D01*
G75*
G02*
X164806800Y-190150600I0J250000D01*
G01*
X164806800Y-189650600D01*
G75*
G02*
X165056800Y-189400600I250000J0D01*
G01*
X166006800Y-189400600D01*
G75*
G02*
X166256800Y-189650600I0J-250000D01*
G01*
X166256800Y-190150600D01*
G75*
G02*
X166006800Y-190400600I-250000J0D01*
G01*
G37*
G36*
G01*
X164873920Y-179984820D02*
X165823920Y-179984820D01*
G75*
G02*
X166073920Y-180234820I0J-250000D01*
G01*
X166073920Y-180734820D01*
G75*
G02*
X165823920Y-180984820I-250000J0D01*
G01*
X164873920Y-180984820D01*
G75*
G02*
X164623920Y-180734820I0J250000D01*
G01*
X164623920Y-180234820D01*
G75*
G02*
X164873920Y-179984820I250000J0D01*
G01*
G37*
G36*
G01*
X164873920Y-178084820D02*
X165823920Y-178084820D01*
G75*
G02*
X166073920Y-178334820I0J-250000D01*
G01*
X166073920Y-178834820D01*
G75*
G02*
X165823920Y-179084820I-250000J0D01*
G01*
X164873920Y-179084820D01*
G75*
G02*
X164623920Y-178834820I0J250000D01*
G01*
X164623920Y-178334820D01*
G75*
G02*
X164873920Y-178084820I250000J0D01*
G01*
G37*
G36*
G01*
X171787800Y-195585500D02*
X172737800Y-195585500D01*
G75*
G02*
X172987800Y-195835500I0J-250000D01*
G01*
X172987800Y-196335500D01*
G75*
G02*
X172737800Y-196585500I-250000J0D01*
G01*
X171787800Y-196585500D01*
G75*
G02*
X171537800Y-196335500I0J250000D01*
G01*
X171537800Y-195835500D01*
G75*
G02*
X171787800Y-195585500I250000J0D01*
G01*
G37*
G36*
G01*
X171787800Y-193685500D02*
X172737800Y-193685500D01*
G75*
G02*
X172987800Y-193935500I0J-250000D01*
G01*
X172987800Y-194435500D01*
G75*
G02*
X172737800Y-194685500I-250000J0D01*
G01*
X171787800Y-194685500D01*
G75*
G02*
X171537800Y-194435500I0J250000D01*
G01*
X171537800Y-193935500D01*
G75*
G02*
X171787800Y-193685500I250000J0D01*
G01*
G37*
G36*
G01*
X170553400Y-198495500D02*
X169603400Y-198495500D01*
G75*
G02*
X169353400Y-198245500I0J250000D01*
G01*
X169353400Y-197745500D01*
G75*
G02*
X169603400Y-197495500I250000J0D01*
G01*
X170553400Y-197495500D01*
G75*
G02*
X170803400Y-197745500I0J-250000D01*
G01*
X170803400Y-198245500D01*
G75*
G02*
X170553400Y-198495500I-250000J0D01*
G01*
G37*
G36*
G01*
X170553400Y-200395500D02*
X169603400Y-200395500D01*
G75*
G02*
X169353400Y-200145500I0J250000D01*
G01*
X169353400Y-199645500D01*
G75*
G02*
X169603400Y-199395500I250000J0D01*
G01*
X170553400Y-199395500D01*
G75*
G02*
X170803400Y-199645500I0J-250000D01*
G01*
X170803400Y-200145500D01*
G75*
G02*
X170553400Y-200395500I-250000J0D01*
G01*
G37*
G36*
G01*
X169590700Y-195585500D02*
X170540700Y-195585500D01*
G75*
G02*
X170790700Y-195835500I0J-250000D01*
G01*
X170790700Y-196335500D01*
G75*
G02*
X170540700Y-196585500I-250000J0D01*
G01*
X169590700Y-196585500D01*
G75*
G02*
X169340700Y-196335500I0J250000D01*
G01*
X169340700Y-195835500D01*
G75*
G02*
X169590700Y-195585500I250000J0D01*
G01*
G37*
G36*
G01*
X169590700Y-193685500D02*
X170540700Y-193685500D01*
G75*
G02*
X170790700Y-193935500I0J-250000D01*
G01*
X170790700Y-194435500D01*
G75*
G02*
X170540700Y-194685500I-250000J0D01*
G01*
X169590700Y-194685500D01*
G75*
G02*
X169340700Y-194435500I0J250000D01*
G01*
X169340700Y-193935500D01*
G75*
G02*
X169590700Y-193685500I250000J0D01*
G01*
G37*
G36*
G01*
X172750500Y-198495500D02*
X171800500Y-198495500D01*
G75*
G02*
X171550500Y-198245500I0J250000D01*
G01*
X171550500Y-197745500D01*
G75*
G02*
X171800500Y-197495500I250000J0D01*
G01*
X172750500Y-197495500D01*
G75*
G02*
X173000500Y-197745500I0J-250000D01*
G01*
X173000500Y-198245500D01*
G75*
G02*
X172750500Y-198495500I-250000J0D01*
G01*
G37*
G36*
G01*
X172750500Y-200395500D02*
X171800500Y-200395500D01*
G75*
G02*
X171550500Y-200145500I0J250000D01*
G01*
X171550500Y-199645500D01*
G75*
G02*
X171800500Y-199395500I250000J0D01*
G01*
X172750500Y-199395500D01*
G75*
G02*
X173000500Y-199645500I0J-250000D01*
G01*
X173000500Y-200145500D01*
G75*
G02*
X172750500Y-200395500I-250000J0D01*
G01*
G37*
G36*
G01*
X176078300Y-186682400D02*
X176078300Y-185732400D01*
G75*
G02*
X176328300Y-185482400I250000J0D01*
G01*
X176828300Y-185482400D01*
G75*
G02*
X177078300Y-185732400I0J-250000D01*
G01*
X177078300Y-186682400D01*
G75*
G02*
X176828300Y-186932400I-250000J0D01*
G01*
X176328300Y-186932400D01*
G75*
G02*
X176078300Y-186682400I0J250000D01*
G01*
G37*
G36*
G01*
X174178300Y-186682400D02*
X174178300Y-185732400D01*
G75*
G02*
X174428300Y-185482400I250000J0D01*
G01*
X174928300Y-185482400D01*
G75*
G02*
X175178300Y-185732400I0J-250000D01*
G01*
X175178300Y-186682400D01*
G75*
G02*
X174928300Y-186932400I-250000J0D01*
G01*
X174428300Y-186932400D01*
G75*
G02*
X174178300Y-186682400I0J250000D01*
G01*
G37*
G36*
G01*
X179077200Y-187954900D02*
X179077200Y-188904900D01*
G75*
G02*
X178827200Y-189154900I-250000J0D01*
G01*
X178327200Y-189154900D01*
G75*
G02*
X178077200Y-188904900I0J250000D01*
G01*
X178077200Y-187954900D01*
G75*
G02*
X178327200Y-187704900I250000J0D01*
G01*
X178827200Y-187704900D01*
G75*
G02*
X179077200Y-187954900I0J-250000D01*
G01*
G37*
G36*
G01*
X180977200Y-187954900D02*
X180977200Y-188904900D01*
G75*
G02*
X180727200Y-189154900I-250000J0D01*
G01*
X180227200Y-189154900D01*
G75*
G02*
X179977200Y-188904900I0J250000D01*
G01*
X179977200Y-187954900D01*
G75*
G02*
X180227200Y-187704900I250000J0D01*
G01*
X180727200Y-187704900D01*
G75*
G02*
X180977200Y-187954900I0J-250000D01*
G01*
G37*
G36*
G01*
X176078300Y-188879500D02*
X176078300Y-187929500D01*
G75*
G02*
X176328300Y-187679500I250000J0D01*
G01*
X176828300Y-187679500D01*
G75*
G02*
X177078300Y-187929500I0J-250000D01*
G01*
X177078300Y-188879500D01*
G75*
G02*
X176828300Y-189129500I-250000J0D01*
G01*
X176328300Y-189129500D01*
G75*
G02*
X176078300Y-188879500I0J250000D01*
G01*
G37*
G36*
G01*
X174178300Y-188879500D02*
X174178300Y-187929500D01*
G75*
G02*
X174428300Y-187679500I250000J0D01*
G01*
X174928300Y-187679500D01*
G75*
G02*
X175178300Y-187929500I0J-250000D01*
G01*
X175178300Y-188879500D01*
G75*
G02*
X174928300Y-189129500I-250000J0D01*
G01*
X174428300Y-189129500D01*
G75*
G02*
X174178300Y-188879500I0J250000D01*
G01*
G37*
G36*
G01*
X179089900Y-185719700D02*
X179089900Y-186669700D01*
G75*
G02*
X178839900Y-186919700I-250000J0D01*
G01*
X178339900Y-186919700D01*
G75*
G02*
X178089900Y-186669700I0J250000D01*
G01*
X178089900Y-185719700D01*
G75*
G02*
X178339900Y-185469700I250000J0D01*
G01*
X178839900Y-185469700D01*
G75*
G02*
X179089900Y-185719700I0J-250000D01*
G01*
G37*
G36*
G01*
X180989900Y-185719700D02*
X180989900Y-186669700D01*
G75*
G02*
X180739900Y-186919700I-250000J0D01*
G01*
X180239900Y-186919700D01*
G75*
G02*
X179989900Y-186669700I0J250000D01*
G01*
X179989900Y-185719700D01*
G75*
G02*
X180239900Y-185469700I250000J0D01*
G01*
X180739900Y-185469700D01*
G75*
G02*
X180989900Y-185719700I0J-250000D01*
G01*
G37*
G36*
G01*
X143466800Y-136530500D02*
X144416800Y-136530500D01*
G75*
G02*
X144666800Y-136780500I0J-250000D01*
G01*
X144666800Y-137280500D01*
G75*
G02*
X144416800Y-137530500I-250000J0D01*
G01*
X143466800Y-137530500D01*
G75*
G02*
X143216800Y-137280500I0J250000D01*
G01*
X143216800Y-136780500D01*
G75*
G02*
X143466800Y-136530500I250000J0D01*
G01*
G37*
G36*
G01*
X143466800Y-134630500D02*
X144416800Y-134630500D01*
G75*
G02*
X144666800Y-134880500I0J-250000D01*
G01*
X144666800Y-135380500D01*
G75*
G02*
X144416800Y-135630500I-250000J0D01*
G01*
X143466800Y-135630500D01*
G75*
G02*
X143216800Y-135380500I0J250000D01*
G01*
X143216800Y-134880500D01*
G75*
G02*
X143466800Y-134630500I250000J0D01*
G01*
G37*
G36*
G01*
X156888600Y-130002300D02*
X156888600Y-129052300D01*
G75*
G02*
X157138600Y-128802300I250000J0D01*
G01*
X157638600Y-128802300D01*
G75*
G02*
X157888600Y-129052300I0J-250000D01*
G01*
X157888600Y-130002300D01*
G75*
G02*
X157638600Y-130252300I-250000J0D01*
G01*
X157138600Y-130252300D01*
G75*
G02*
X156888600Y-130002300I0J250000D01*
G01*
G37*
G36*
G01*
X154988600Y-130002300D02*
X154988600Y-129052300D01*
G75*
G02*
X155238600Y-128802300I250000J0D01*
G01*
X155738600Y-128802300D01*
G75*
G02*
X155988600Y-129052300I0J-250000D01*
G01*
X155988600Y-130002300D01*
G75*
G02*
X155738600Y-130252300I-250000J0D01*
G01*
X155238600Y-130252300D01*
G75*
G02*
X154988600Y-130002300I0J250000D01*
G01*
G37*
G36*
G01*
X111310000Y-176636660D02*
X111310000Y-177586660D01*
G75*
G02*
X111060000Y-177836660I-250000J0D01*
G01*
X110560000Y-177836660D01*
G75*
G02*
X110310000Y-177586660I0J250000D01*
G01*
X110310000Y-176636660D01*
G75*
G02*
X110560000Y-176386660I250000J0D01*
G01*
X111060000Y-176386660D01*
G75*
G02*
X111310000Y-176636660I0J-250000D01*
G01*
G37*
G36*
G01*
X113210000Y-176636660D02*
X113210000Y-177586660D01*
G75*
G02*
X112960000Y-177836660I-250000J0D01*
G01*
X112460000Y-177836660D01*
G75*
G02*
X112210000Y-177586660I0J250000D01*
G01*
X112210000Y-176636660D01*
G75*
G02*
X112460000Y-176386660I250000J0D01*
G01*
X112960000Y-176386660D01*
G75*
G02*
X113210000Y-176636660I0J-250000D01*
G01*
G37*
G36*
G01*
X124602660Y-177617140D02*
X124602660Y-176667140D01*
G75*
G02*
X124852660Y-176417140I250000J0D01*
G01*
X125352660Y-176417140D01*
G75*
G02*
X125602660Y-176667140I0J-250000D01*
G01*
X125602660Y-177617140D01*
G75*
G02*
X125352660Y-177867140I-250000J0D01*
G01*
X124852660Y-177867140D01*
G75*
G02*
X124602660Y-177617140I0J250000D01*
G01*
G37*
G36*
G01*
X122702660Y-177617140D02*
X122702660Y-176667140D01*
G75*
G02*
X122952660Y-176417140I250000J0D01*
G01*
X123452660Y-176417140D01*
G75*
G02*
X123702660Y-176667140I0J-250000D01*
G01*
X123702660Y-177617140D01*
G75*
G02*
X123452660Y-177867140I-250000J0D01*
G01*
X122952660Y-177867140D01*
G75*
G02*
X122702660Y-177617140I0J250000D01*
G01*
G37*
G36*
G01*
X134353320Y-176806440D02*
X133403320Y-176806440D01*
G75*
G02*
X133153320Y-176556440I0J250000D01*
G01*
X133153320Y-176056440D01*
G75*
G02*
X133403320Y-175806440I250000J0D01*
G01*
X134353320Y-175806440D01*
G75*
G02*
X134603320Y-176056440I0J-250000D01*
G01*
X134603320Y-176556440D01*
G75*
G02*
X134353320Y-176806440I-250000J0D01*
G01*
G37*
G36*
G01*
X134353320Y-178706440D02*
X133403320Y-178706440D01*
G75*
G02*
X133153320Y-178456440I0J250000D01*
G01*
X133153320Y-177956440D01*
G75*
G02*
X133403320Y-177706440I250000J0D01*
G01*
X134353320Y-177706440D01*
G75*
G02*
X134603320Y-177956440I0J-250000D01*
G01*
X134603320Y-178456440D01*
G75*
G02*
X134353320Y-178706440I-250000J0D01*
G01*
G37*
G36*
G01*
X133383000Y-195242600D02*
X134333000Y-195242600D01*
G75*
G02*
X134583000Y-195492600I0J-250000D01*
G01*
X134583000Y-195992600D01*
G75*
G02*
X134333000Y-196242600I-250000J0D01*
G01*
X133383000Y-196242600D01*
G75*
G02*
X133133000Y-195992600I0J250000D01*
G01*
X133133000Y-195492600D01*
G75*
G02*
X133383000Y-195242600I250000J0D01*
G01*
G37*
G36*
G01*
X133383000Y-193342600D02*
X134333000Y-193342600D01*
G75*
G02*
X134583000Y-193592600I0J-250000D01*
G01*
X134583000Y-194092600D01*
G75*
G02*
X134333000Y-194342600I-250000J0D01*
G01*
X133383000Y-194342600D01*
G75*
G02*
X133133000Y-194092600I0J250000D01*
G01*
X133133000Y-193592600D01*
G75*
G02*
X133383000Y-193342600I250000J0D01*
G01*
G37*
G36*
G01*
X128318079Y-196236160D02*
X130518081Y-196236160D01*
G75*
G02*
X130768080Y-196486159I0J-249999D01*
G01*
X130768080Y-197136161D01*
G75*
G02*
X130518081Y-197386160I-249999J0D01*
G01*
X128318079Y-197386160D01*
G75*
G02*
X128068080Y-197136161I0J249999D01*
G01*
X128068080Y-196486159D01*
G75*
G02*
X128318079Y-196236160I249999J0D01*
G01*
G37*
G36*
G01*
X128318079Y-193286160D02*
X130518081Y-193286160D01*
G75*
G02*
X130768080Y-193536159I0J-249999D01*
G01*
X130768080Y-194186161D01*
G75*
G02*
X130518081Y-194436160I-249999J0D01*
G01*
X128318079Y-194436160D01*
G75*
G02*
X128068080Y-194186161I0J249999D01*
G01*
X128068080Y-193536159D01*
G75*
G02*
X128318079Y-193286160I249999J0D01*
G01*
G37*
G36*
G01*
X130934641Y-175757000D02*
X128734639Y-175757000D01*
G75*
G02*
X128484640Y-175507001I0J249999D01*
G01*
X128484640Y-174856999D01*
G75*
G02*
X128734639Y-174607000I249999J0D01*
G01*
X130934641Y-174607000D01*
G75*
G02*
X131184640Y-174856999I0J-249999D01*
G01*
X131184640Y-175507001D01*
G75*
G02*
X130934641Y-175757000I-249999J0D01*
G01*
G37*
G36*
G01*
X130934641Y-178707000D02*
X128734639Y-178707000D01*
G75*
G02*
X128484640Y-178457001I0J249999D01*
G01*
X128484640Y-177806999D01*
G75*
G02*
X128734639Y-177557000I249999J0D01*
G01*
X130934641Y-177557000D01*
G75*
G02*
X131184640Y-177806999I0J-249999D01*
G01*
X131184640Y-178457001D01*
G75*
G02*
X130934641Y-178707000I-249999J0D01*
G01*
G37*
G36*
G01*
X136314160Y-195257840D02*
X137264160Y-195257840D01*
G75*
G02*
X137514160Y-195507840I0J-250000D01*
G01*
X137514160Y-196007840D01*
G75*
G02*
X137264160Y-196257840I-250000J0D01*
G01*
X136314160Y-196257840D01*
G75*
G02*
X136064160Y-196007840I0J250000D01*
G01*
X136064160Y-195507840D01*
G75*
G02*
X136314160Y-195257840I250000J0D01*
G01*
G37*
G36*
G01*
X136314160Y-193357840D02*
X137264160Y-193357840D01*
G75*
G02*
X137514160Y-193607840I0J-250000D01*
G01*
X137514160Y-194107840D01*
G75*
G02*
X137264160Y-194357840I-250000J0D01*
G01*
X136314160Y-194357840D01*
G75*
G02*
X136064160Y-194107840I0J250000D01*
G01*
X136064160Y-193607840D01*
G75*
G02*
X136314160Y-193357840I250000J0D01*
G01*
G37*
G36*
G01*
X137411480Y-176831840D02*
X136461480Y-176831840D01*
G75*
G02*
X136211480Y-176581840I0J250000D01*
G01*
X136211480Y-176081840D01*
G75*
G02*
X136461480Y-175831840I250000J0D01*
G01*
X137411480Y-175831840D01*
G75*
G02*
X137661480Y-176081840I0J-250000D01*
G01*
X137661480Y-176581840D01*
G75*
G02*
X137411480Y-176831840I-250000J0D01*
G01*
G37*
G36*
G01*
X137411480Y-178731840D02*
X136461480Y-178731840D01*
G75*
G02*
X136211480Y-178481840I0J250000D01*
G01*
X136211480Y-177981840D01*
G75*
G02*
X136461480Y-177731840I250000J0D01*
G01*
X137411480Y-177731840D01*
G75*
G02*
X137661480Y-177981840I0J-250000D01*
G01*
X137661480Y-178481840D01*
G75*
G02*
X137411480Y-178731840I-250000J0D01*
G01*
G37*
G36*
G01*
X140947321Y-175807800D02*
X138747319Y-175807800D01*
G75*
G02*
X138497320Y-175557801I0J249999D01*
G01*
X138497320Y-174907799D01*
G75*
G02*
X138747319Y-174657800I249999J0D01*
G01*
X140947321Y-174657800D01*
G75*
G02*
X141197320Y-174907799I0J-249999D01*
G01*
X141197320Y-175557801D01*
G75*
G02*
X140947321Y-175807800I-249999J0D01*
G01*
G37*
G36*
G01*
X140947321Y-178757800D02*
X138747319Y-178757800D01*
G75*
G02*
X138497320Y-178507801I0J249999D01*
G01*
X138497320Y-177857799D01*
G75*
G02*
X138747319Y-177607800I249999J0D01*
G01*
X140947321Y-177607800D01*
G75*
G02*
X141197320Y-177857799I0J-249999D01*
G01*
X141197320Y-178507801D01*
G75*
G02*
X140947321Y-178757800I-249999J0D01*
G01*
G37*
G36*
G01*
X138904799Y-196363160D02*
X141104801Y-196363160D01*
G75*
G02*
X141354800Y-196613159I0J-249999D01*
G01*
X141354800Y-197263161D01*
G75*
G02*
X141104801Y-197513160I-249999J0D01*
G01*
X138904799Y-197513160D01*
G75*
G02*
X138654800Y-197263161I0J249999D01*
G01*
X138654800Y-196613159D01*
G75*
G02*
X138904799Y-196363160I249999J0D01*
G01*
G37*
G36*
G01*
X138904799Y-193413160D02*
X141104801Y-193413160D01*
G75*
G02*
X141354800Y-193663159I0J-249999D01*
G01*
X141354800Y-194313161D01*
G75*
G02*
X141104801Y-194563160I-249999J0D01*
G01*
X138904799Y-194563160D01*
G75*
G02*
X138654800Y-194313161I0J249999D01*
G01*
X138654800Y-193663159D01*
G75*
G02*
X138904799Y-193413160I249999J0D01*
G01*
G37*
M02*
