M48
; DRILL file {KiCad 5.1.9} date Thu Jun 24 12:15:14 2021
; FORMAT={-:-/ absolute / metric / decimal}
; #@! TF.CreationDate,2021-06-24T12:15:14+08:00
; #@! TF.GenerationSoftware,Kicad,Pcbnew,5.1.9
; #@! TF.FileFunction,Plated,1,2,PTH
FMAT,2
METRIC
T1C0.200
T2C0.300
T3C0.600
T4C0.762
T5C0.800
T6C1.000
T7C1.200
T8C1.400
T9C1.500
T10C2.000
T11C3.200
%
G90
G05
T1
X160.384Y-188.509
X160.384Y-189.509
X160.384Y-190.509
X160.47Y-179.124
X160.47Y-180.124
X160.47Y-181.124
X161.384Y-188.509
X161.384Y-189.509
X161.384Y-190.509
X161.47Y-179.124
X161.47Y-180.124
X161.47Y-181.124
T2
X105.954Y-201.529
X106.446Y-129.896
X106.596Y-145.839
X107.099Y-142.405
X108.097Y-129.779
X108.649Y-143.637
X109.672Y-133.396
X109.672Y-134.696
X109.672Y-135.996
X110.81Y-175.717
X110.973Y-148.526
X111.452Y-133.396
X111.452Y-134.696
X111.452Y-135.996
X111.816Y-142.438
X112.781Y-175.923
X112.941Y-169.634
X113.147Y-140.218
X113.232Y-133.396
X113.232Y-134.696
X113.232Y-135.996
X114.427Y-140.335
X114.491Y-169.53
X114.935Y-139.7
X115.012Y-133.396
X115.012Y-134.696
X115.012Y-135.996
X115.782Y-143.256
X116.137Y-154.028
X116.792Y-133.396
X116.792Y-134.696
X116.792Y-135.996
X116.967Y-144.018
X117.047Y-138.622
X117.13Y-151.039
X117.496Y-169.523
X118.237Y-189.23
X118.572Y-133.396
X118.572Y-134.696
X118.572Y-135.996
X118.816Y-148.773
X119.129Y-169.53
X119.507Y-144.272
X119.566Y-165.866
X119.761Y-142.367
X120.594Y-129.576
X120.601Y-125.337
X121.285Y-151.892
X121.407Y-154.224
X122.22Y-129.525
X122.453Y-169.53
X122.567Y-125.337
X123.199Y-175.923
X124.003Y-169.621
X124.252Y-133.345
X124.252Y-134.645
X124.252Y-135.945
X124.828Y-153.81
X124.968Y-144.272
X125.103Y-175.796
X125.476Y-158.623
X125.946Y-195.237
X126.032Y-133.345
X126.032Y-134.645
X126.032Y-135.945
X126.365Y-142.367
X127.218Y-148.742
X127.673Y-148.006
X127.727Y-141.443
X127.734Y-179.022
X127.762Y-181.991
X127.812Y-133.345
X127.812Y-134.645
X127.812Y-135.945
X128.377Y-140.97
X128.397Y-159.893
X128.793Y-166.291
X129.027Y-140.203
X129.592Y-133.345
X129.592Y-134.645
X129.592Y-135.945
X130.304Y-143.017
X130.894Y-165.651
X130.979Y-143.525
X131.255Y-145.415
X131.372Y-133.345
X131.372Y-134.645
X131.372Y-135.945
X131.627Y-138.624
X131.724Y-149.454
X131.826Y-142.748
X131.978Y-150.343
X132.144Y-193.789
X132.158Y-178.235
X133.096Y-142.621
X133.152Y-133.345
X133.152Y-134.645
X133.152Y-135.945
X134.482Y-145.997
X134.493Y-139.065
X134.96Y-129.576
X135.001Y-142.367
X135.128Y-146.266
X135.377Y-176.306
X135.387Y-193.721
X135.397Y-178.24
X135.402Y-164.33
X135.448Y-195.743
X136.195Y-140.568
X136.398Y-160.528
X136.474Y-148.006
X136.531Y-141.182
X136.825Y-124.049
X136.825Y-125.324
X136.825Y-126.67
X136.825Y-128.011
X136.825Y-129.535
X137.343Y-158.897
X137.569Y-164.488
X137.721Y-155.603
X138.176Y-160.528
X138.519Y-185.382
X138.519Y-186.652
X138.603Y-138.191
X139.029Y-134.767
X139.258Y-155.926
X139.403Y-172.866
X139.789Y-185.382
X139.789Y-186.652
X140.015Y-160.655
X140.447Y-157.14
X140.716Y-142.113
X140.779Y-148.692
X141.059Y-185.382
X141.059Y-186.652
X141.239Y-129.454
X141.331Y-157.754
X141.812Y-154.489
X141.867Y-138.725
X142.175Y-175.233
X142.501Y-167.109
X142.621Y-170.561
X142.773Y-127.859
X143.048Y-150.355
X143.236Y-167.767
X144.206Y-148.646
X144.681Y-177.01
X145.131Y-165.786
X145.191Y-168.631
X146.053Y-168.402
X146.425Y-130.078
X147.212Y-166.485
X147.307Y-165.552
X147.668Y-158.783
X147.759Y-156.781
X147.78Y-152.425
X148.359Y-129.139
X149.108Y-152.659
X149.181Y-136.95
X149.207Y-155.948
X149.53Y-190.983
X149.733Y-193.167
X149.741Y-125.217
X149.936Y-194.335
X150.155Y-191.557
X150.238Y-154.785
X150.888Y-150.102
X150.888Y-158.635
X153.659Y-129.529
X153.822Y-124.879
X154.356Y-147.383
X155.283Y-123.241
X157.376Y-125.753
X157.645Y-136.563
X157.645Y-137.592
X157.645Y-138.76
X157.645Y-139.738
X160.071Y-133.909
X162.077Y-206.477
X165.367Y-208.954
X165.532Y-192.075
X166.848Y-110.203
X167.442Y-109.141
X168.692Y-110.038
X172.098Y-157.048
X172.776Y-204.277
X174.625Y-209.169
X174.63Y-147.731
X175.072Y-203.835
X175.632Y-137.714
X175.632Y-139.014
X175.632Y-140.314
X176.276Y-209.423
X176.53Y-208.407
X176.578Y-189.88
X176.724Y-198.053
X176.724Y-196.719
X176.784Y-203.835
X176.932Y-137.714
X176.932Y-139.014
X176.932Y-140.314
X178.232Y-137.714
X178.232Y-139.014
X178.232Y-140.314
X178.456Y-198.581
X178.565Y-156.205
X178.565Y-157.505
X178.565Y-158.805
X178.577Y-190.083
X178.607Y-192.817
X179.532Y-137.714
X179.532Y-139.014
X179.532Y-140.314
X179.865Y-156.205
X179.865Y-157.505
X179.865Y-158.805
X180.832Y-137.714
X180.832Y-139.014
X180.832Y-140.314
X181.165Y-156.205
X181.165Y-157.505
X181.165Y-158.805
X181.932Y-162.432
X182.465Y-156.205
X182.465Y-157.505
X182.465Y-158.805
X183.33Y-192.817
X183.566Y-163.347
X183.766Y-156.205
X183.766Y-157.505
X183.766Y-158.805
X188.798Y-151.625
T4
X171.018Y-167.411
X176.225Y-175.539
X177.622Y-179.857
X180.162Y-169.697
T6
X152.46Y-108.183
X155.0Y-108.183
X157.54Y-108.183
X174.5Y-213.75
X174.5Y-216.25
X177.0Y-216.25
X179.5Y-213.75
X179.5Y-216.25
X185.611Y-199.276
X185.611Y-201.816
X185.611Y-204.356
X188.15Y-199.276
X188.15Y-201.816
X188.15Y-204.356
T7
X114.57Y-106.5
X118.38Y-106.5
X122.19Y-106.5
X126.0Y-106.5
X175.463Y-169.189
X179.146Y-164.363
T8
X111.77Y-202.0
X111.77Y-208.35
X111.77Y-214.7
X128.0Y-202.0
X128.0Y-208.35
X128.0Y-214.7
T9
X139.46Y-101.96
X139.46Y-107.04
X142.0Y-104.5
X144.54Y-101.96
X144.54Y-107.04
T11
X104.0Y-111.5
X104.0Y-216.0
X190.0Y-115.0
X190.0Y-216.0
T3
G00X163.68Y-101.36
M15
G01X163.68Y-102.16
M16
G05
G00X163.68Y-105.38
M15
G01X163.68Y-106.48
M16
G05
G00X172.32Y-101.36
M15
G01X172.32Y-102.16
M16
G05
G00X172.32Y-105.38
M15
G01X172.32Y-106.48
M16
G05
T5
G00X176.0Y-101.4
M15
G01X176.0Y-102.6
M16
G05
G00X176.5Y-108.7
M15
G01X176.5Y-109.9
M16
G05
G00X179.7Y-108.7
M15
G01X179.7Y-109.9
M16
G05
G00X184.9Y-108.7
M15
G01X184.9Y-109.9
M16
G05
G00X186.1Y-101.4
M15
G01X186.1Y-102.6
M16
G05
T10
G00X171.45Y-215.0
M15
G01X171.55Y-215.0
M16
G05
G00X182.45Y-215.0
M15
G01X182.55Y-215.0
M16
G05
T0
M30
