G04 #@! TF.GenerationSoftware,KiCad,Pcbnew,5.1.9*
G04 #@! TF.CreationDate,2021-06-24T12:15:12+08:00*
G04 #@! TF.ProjectId,digital-amplifier2,64696769-7461-46c2-9d61-6d706c696669,rev?*
G04 #@! TF.SameCoordinates,Original*
G04 #@! TF.FileFunction,Legend,Top*
G04 #@! TF.FilePolarity,Positive*
%FSLAX46Y46*%
G04 Gerber Fmt 4.6, Leading zero omitted, Abs format (unit mm)*
G04 Created by KiCad (PCBNEW 5.1.9) date 2021-06-24 12:15:12*
%MOMM*%
%LPD*%
G01*
G04 APERTURE LIST*
%ADD10C,0.150000*%
%ADD11C,0.120000*%
%ADD12C,0.152400*%
G04 APERTURE END LIST*
D10*
X191000000Y-100000000D02*
X191000000Y-220000000D01*
X103000000Y-100000000D02*
X103000000Y-220000000D01*
D11*
X166506158Y-152741100D02*
X166031642Y-152741100D01*
X166506158Y-153786100D02*
X166031642Y-153786100D01*
X159507000Y-143701720D02*
X159507000Y-144961720D01*
X159507000Y-150521720D02*
X159507000Y-149261720D01*
X163267000Y-143701720D02*
X159507000Y-143701720D01*
X165517000Y-150521720D02*
X159507000Y-150521720D01*
X153620800Y-145396852D02*
X153620800Y-144874348D01*
X155090800Y-145396852D02*
X155090800Y-144874348D01*
X177876200Y-178587400D02*
X179908200Y-170840400D01*
X171907200Y-168173400D02*
X175336200Y-174650400D01*
X178130200Y-165125400D02*
X175590200Y-167665400D01*
X184368200Y-171983400D02*
G75*
G03*
X184368200Y-171983400I-7000000J0D01*
G01*
X181868200Y-171983400D02*
G75*
G03*
X181868200Y-171983400I-4500000J0D01*
G01*
X184280500Y-205685700D02*
X189480500Y-205685700D01*
X184280500Y-200545700D02*
X184280500Y-205685700D01*
X189480500Y-197945700D02*
X189480500Y-205685700D01*
X184280500Y-200545700D02*
X186880500Y-200545700D01*
X186880500Y-200545700D02*
X186880500Y-197945700D01*
X186880500Y-197945700D02*
X189480500Y-197945700D01*
X184280500Y-199275700D02*
X184280500Y-197945700D01*
X184280500Y-197945700D02*
X185610500Y-197945700D01*
X138400000Y-102900000D02*
X138400000Y-106100000D01*
X145600000Y-102900000D02*
X145600000Y-106100000D01*
X140700000Y-107700000D02*
X143300000Y-107700000D01*
X140200000Y-100820000D02*
X143800000Y-100820000D01*
X128710000Y-107810000D02*
X128710000Y-98390000D01*
X128710000Y-98390000D02*
X111860000Y-98390000D01*
X111860000Y-98390000D02*
X111860000Y-107810000D01*
X128710000Y-107810000D02*
X127050000Y-107810000D01*
X111860000Y-107810000D02*
X113520000Y-107810000D01*
X124950000Y-107810000D02*
X123240000Y-107810000D01*
X121140000Y-107810000D02*
X119430000Y-107810000D01*
X117330000Y-107810000D02*
X115620000Y-107810000D01*
X128710000Y-101700000D02*
X111860000Y-101700000D01*
X125700000Y-109100000D02*
X126000000Y-108500000D01*
X126000000Y-108500000D02*
X126300000Y-109100000D01*
X126300000Y-109100000D02*
X125700000Y-109100000D01*
X123954000Y-152894420D02*
X123954000Y-153175580D01*
X122934000Y-152894420D02*
X122934000Y-153175580D01*
X151648700Y-153986620D02*
X151648700Y-154267780D01*
X152668700Y-153986620D02*
X152668700Y-154267780D01*
X133665700Y-205578942D02*
X133665700Y-206053458D01*
X134710700Y-205578942D02*
X134710700Y-206053458D01*
X128204700Y-169345842D02*
X128204700Y-169820358D01*
X129249700Y-169345842D02*
X129249700Y-169820358D01*
X145039820Y-198596222D02*
X145039820Y-199070738D01*
X146084820Y-198596222D02*
X146084820Y-199070738D01*
X143470100Y-198611462D02*
X143470100Y-199085978D01*
X144515100Y-198611462D02*
X144515100Y-199085978D01*
X147021020Y-198601302D02*
X147021020Y-199075818D01*
X148066020Y-198601302D02*
X148066020Y-199075818D01*
X150338260Y-198545422D02*
X150338260Y-199019938D01*
X151383260Y-198545422D02*
X151383260Y-199019938D01*
X131951000Y-205701020D02*
X131951000Y-205982180D01*
X132971000Y-205701020D02*
X132971000Y-205982180D01*
X137127860Y-199075320D02*
X136846700Y-199075320D01*
X137127860Y-200095320D02*
X136846700Y-200095320D01*
X139932800Y-200102940D02*
X140213960Y-200102940D01*
X139932800Y-199082940D02*
X140213960Y-199082940D01*
X110348500Y-157971258D02*
X110348500Y-157496742D01*
X111393500Y-157971258D02*
X111393500Y-157496742D01*
X134507500Y-140600662D02*
X134507500Y-141075178D01*
X133462500Y-140600662D02*
X133462500Y-141075178D01*
X126875000Y-140367140D02*
X126875000Y-140648300D01*
X125855000Y-140367140D02*
X125855000Y-140648300D01*
X132772880Y-140763380D02*
X132772880Y-141044540D01*
X131752880Y-140763380D02*
X131752880Y-141044540D01*
X112325880Y-140417940D02*
X112325880Y-140699100D01*
X111305880Y-140417940D02*
X111305880Y-140699100D01*
X118112000Y-140575420D02*
X118112000Y-140856580D01*
X117092000Y-140575420D02*
X117092000Y-140856580D01*
X122695580Y-141861000D02*
X122414420Y-141861000D01*
X122695580Y-140841000D02*
X122414420Y-140841000D01*
X108014380Y-141861000D02*
X107733220Y-141861000D01*
X108014380Y-140841000D02*
X107733220Y-140841000D01*
X186027428Y-124590480D02*
X186549932Y-124590480D01*
X186027428Y-123120480D02*
X186549932Y-123120480D01*
X112159660Y-177375280D02*
X111878500Y-177375280D01*
X112159660Y-176355280D02*
X111878500Y-176355280D01*
X123791100Y-176380680D02*
X124072260Y-176380680D01*
X123791100Y-177400680D02*
X124072260Y-177400680D01*
X133622320Y-177600220D02*
X133622320Y-177319060D01*
X134642320Y-177600220D02*
X134642320Y-177319060D01*
X134596600Y-194423420D02*
X134596600Y-194704580D01*
X133576600Y-194423420D02*
X133576600Y-194704580D01*
X137095960Y-194453900D02*
X137095960Y-194735060D01*
X136075960Y-194453900D02*
X136075960Y-194735060D01*
X136182640Y-177605300D02*
X136182640Y-177324140D01*
X137202640Y-177605300D02*
X137202640Y-177324140D01*
X121682742Y-144794500D02*
X122157258Y-144794500D01*
X121682742Y-143749500D02*
X122157258Y-143749500D01*
X115832658Y-147635700D02*
X115358142Y-147635700D01*
X115832658Y-148680700D02*
X115358142Y-148680700D01*
X117559858Y-146010100D02*
X117085342Y-146010100D01*
X117559858Y-147055100D02*
X117085342Y-147055100D01*
X141782060Y-169700978D02*
X141782060Y-169226462D01*
X140737060Y-169700978D02*
X140737060Y-169226462D01*
X152693900Y-151164058D02*
X152693900Y-150689542D01*
X151648900Y-151164058D02*
X151648900Y-150689542D01*
X129703598Y-162697900D02*
X129229082Y-162697900D01*
X129703598Y-163742900D02*
X129229082Y-163742900D01*
X117639560Y-153394020D02*
X117639560Y-153112860D01*
X116619560Y-153394020D02*
X116619560Y-153112860D01*
D12*
X133883400Y-180091601D02*
X133883400Y-179837601D01*
X134264400Y-180091601D02*
X133883400Y-180091601D01*
X134264400Y-179837601D02*
X134264400Y-180091601D01*
X133883400Y-179837601D02*
X134264400Y-179837601D01*
X145313400Y-191942199D02*
X145313400Y-192196199D01*
X145694400Y-191942199D02*
X145313400Y-191942199D01*
X145694400Y-192196199D02*
X145694400Y-191942199D01*
X145313400Y-192196199D02*
X145694400Y-192196199D01*
X133462160Y-182092600D02*
X133184900Y-182092600D01*
X146115640Y-189941200D02*
X146392900Y-189941200D01*
X133184900Y-189941200D02*
X133462160Y-189941200D01*
X133184900Y-182092600D02*
X133184900Y-189941200D01*
X146392900Y-182092600D02*
X146115640Y-182092600D01*
X146392900Y-189941200D02*
X146392900Y-182092600D01*
D11*
X173761348Y-128503000D02*
X175183852Y-128503000D01*
X173761348Y-130323000D02*
X175183852Y-130323000D01*
X184482000Y-150664142D02*
X184482000Y-151138658D01*
X183437000Y-150664142D02*
X183437000Y-151138658D01*
X181862200Y-151138658D02*
X181862200Y-150664142D01*
X182907200Y-151138658D02*
X182907200Y-150664142D01*
X185011800Y-154250658D02*
X185011800Y-153776142D01*
X186056800Y-154250658D02*
X186056800Y-153776142D01*
X180287400Y-151138658D02*
X180287400Y-150664142D01*
X181332400Y-151138658D02*
X181332400Y-150664142D01*
X174839100Y-145906258D02*
X174839100Y-145431742D01*
X175884100Y-145906258D02*
X175884100Y-145431742D01*
X177458900Y-145419542D02*
X177458900Y-145894058D01*
X176413900Y-145419542D02*
X176413900Y-145894058D01*
X174182300Y-142332942D02*
X174182300Y-142807458D01*
X173137300Y-142332942D02*
X173137300Y-142807458D01*
X179033700Y-145431742D02*
X179033700Y-145906258D01*
X177988700Y-145431742D02*
X177988700Y-145906258D01*
X172595000Y-142429620D02*
X172595000Y-142710780D01*
X171575000Y-142429620D02*
X171575000Y-142710780D01*
X186624500Y-154166180D02*
X186624500Y-153885020D01*
X187644500Y-154166180D02*
X187644500Y-153885020D01*
X185049700Y-151067380D02*
X185049700Y-150786220D01*
X186069700Y-151067380D02*
X186069700Y-150786220D01*
X186270020Y-160957800D02*
X186551180Y-160957800D01*
X186270020Y-161977800D02*
X186551180Y-161977800D01*
X174169800Y-145515420D02*
X174169800Y-145796580D01*
X173149800Y-145515420D02*
X173149800Y-145796580D01*
X176518180Y-133809200D02*
X176237020Y-133809200D01*
X176518180Y-132789200D02*
X176237020Y-132789200D01*
X179068600Y-124331000D02*
X177368600Y-124331000D01*
X177368600Y-124331000D02*
X177368600Y-117731000D01*
X177368600Y-117731000D02*
X179068600Y-117731000D01*
X182068600Y-117731000D02*
X183768600Y-117731000D01*
X183768600Y-117731000D02*
X183768600Y-124331000D01*
X183768600Y-124331000D02*
X182068600Y-124331000D01*
X125363500Y-140265382D02*
X125363500Y-140739898D01*
X124318500Y-140265382D02*
X124318500Y-140739898D01*
X110717860Y-140311102D02*
X110717860Y-140785618D01*
X109672860Y-140311102D02*
X109672860Y-140785618D01*
D10*
X123726800Y-136970400D02*
X123951800Y-136970400D01*
X123726800Y-132320400D02*
X124051800Y-132320400D01*
X133727600Y-132320400D02*
X133402600Y-132320400D01*
X133727600Y-136970400D02*
X133402600Y-136970400D01*
X123726800Y-136970400D02*
X123726800Y-132320400D01*
X133727600Y-136970400D02*
X133727600Y-132320400D01*
X123951800Y-136970400D02*
X123951800Y-138045400D01*
X109372200Y-137021200D02*
X109372200Y-138096200D01*
X119148000Y-137021200D02*
X119148000Y-132371200D01*
X109147200Y-137021200D02*
X109147200Y-132371200D01*
X119148000Y-137021200D02*
X118823000Y-137021200D01*
X119148000Y-132371200D02*
X118823000Y-132371200D01*
X109147200Y-132371200D02*
X109472200Y-132371200D01*
X109147200Y-137021200D02*
X109372200Y-137021200D01*
D11*
X134289400Y-121638600D02*
X132589400Y-121638600D01*
X134289400Y-115038600D02*
X134289400Y-121638600D01*
X132589400Y-115038600D02*
X134289400Y-115038600D01*
X127889400Y-115038600D02*
X129589400Y-115038600D01*
X127889400Y-121638600D02*
X127889400Y-115038600D01*
X129589400Y-121638600D02*
X127889400Y-121638600D01*
X119963800Y-121689400D02*
X118263800Y-121689400D01*
X119963800Y-115089400D02*
X119963800Y-121689400D01*
X118263800Y-115089400D02*
X119963800Y-115089400D01*
X113563800Y-115089400D02*
X115263800Y-115089400D01*
X113563800Y-121689400D02*
X113563800Y-115089400D01*
X115263800Y-121689400D02*
X113563800Y-121689400D01*
X127075800Y-121638600D02*
X125375800Y-121638600D01*
X127075800Y-115038600D02*
X127075800Y-121638600D01*
X125375800Y-115038600D02*
X127075800Y-115038600D01*
X120675800Y-115038600D02*
X122375800Y-115038600D01*
X120675800Y-121638600D02*
X120675800Y-115038600D01*
X122375800Y-121638600D02*
X120675800Y-121638600D01*
X112801000Y-121689400D02*
X111101000Y-121689400D01*
X112801000Y-115089400D02*
X112801000Y-121689400D01*
X111101000Y-115089400D02*
X112801000Y-115089400D01*
X106401000Y-115089400D02*
X108101000Y-115089400D01*
X106401000Y-121689400D02*
X106401000Y-115089400D01*
X108101000Y-121689400D02*
X106401000Y-121689400D01*
X139950000Y-203450000D02*
X139550000Y-203450000D01*
X139750000Y-203850000D02*
X139950000Y-203450000D01*
X139550000Y-203450000D02*
X139750000Y-203850000D01*
X157325000Y-206040000D02*
X157325000Y-206640000D01*
X157215000Y-206040000D02*
X157325000Y-206040000D01*
X136675000Y-206040000D02*
X136675000Y-206640000D01*
X136785000Y-206040000D02*
X136675000Y-206040000D01*
X129106200Y-126072020D02*
X129106200Y-126353180D01*
X130126200Y-126072020D02*
X130126200Y-126353180D01*
X132306600Y-126021220D02*
X132306600Y-126302380D01*
X133326600Y-126021220D02*
X133326600Y-126302380D01*
X127480600Y-126072020D02*
X127480600Y-126353180D01*
X128500600Y-126072020D02*
X128500600Y-126353180D01*
X124717080Y-126102500D02*
X124717080Y-126383660D01*
X125737080Y-126102500D02*
X125737080Y-126383660D01*
X114679000Y-126021220D02*
X114679000Y-126302380D01*
X115699000Y-126021220D02*
X115699000Y-126302380D01*
X117508560Y-126011060D02*
X117508560Y-126292220D01*
X118528560Y-126011060D02*
X118528560Y-126292220D01*
X113053400Y-126021220D02*
X113053400Y-126302380D01*
X114073400Y-126021220D02*
X114073400Y-126302380D01*
X110183200Y-125995820D02*
X110183200Y-126276980D01*
X111203200Y-125995820D02*
X111203200Y-126276980D01*
X122695580Y-139317000D02*
X122414420Y-139317000D01*
X122695580Y-140337000D02*
X122414420Y-140337000D01*
X107094560Y-132386460D02*
X107094560Y-132667620D01*
X108114560Y-132386460D02*
X108114560Y-132667620D01*
X121709720Y-131390780D02*
X121709720Y-131671940D01*
X122729720Y-131390780D02*
X122729720Y-131671940D01*
X120053640Y-131400940D02*
X120053640Y-131682100D01*
X121073640Y-131400940D02*
X121073640Y-131682100D01*
X134470680Y-132315340D02*
X134470680Y-132596500D01*
X135490680Y-132315340D02*
X135490680Y-132596500D01*
X108016920Y-139317000D02*
X107735760Y-139317000D01*
X108016920Y-140337000D02*
X107735760Y-140337000D01*
X104979800Y-132484228D02*
X104979800Y-133006732D01*
X106449800Y-132484228D02*
X106449800Y-133006732D01*
X123411920Y-127693052D02*
X123411920Y-127170548D01*
X121941920Y-127693052D02*
X121941920Y-127170548D01*
X121329120Y-127698132D02*
X121329120Y-127175628D01*
X119859120Y-127698132D02*
X119859120Y-127175628D01*
X136089720Y-132402948D02*
X136089720Y-132925452D01*
X137559720Y-132402948D02*
X137559720Y-132925452D01*
X142943040Y-198989300D02*
X142943040Y-198708140D01*
X141923040Y-198989300D02*
X141923040Y-198708140D01*
X154105940Y-198511268D02*
X154105940Y-199033772D01*
X155575940Y-198511268D02*
X155575940Y-199033772D01*
X151985040Y-198498568D02*
X151985040Y-199021072D01*
X153455040Y-198498568D02*
X153455040Y-199021072D01*
X184000000Y-211000000D02*
X170000000Y-211000000D01*
X184000000Y-219000000D02*
X184000000Y-211000000D01*
X184000000Y-219000000D02*
X180500000Y-219000000D01*
X180500000Y-219000000D02*
X180500000Y-229000000D01*
X173500000Y-229000000D02*
X180500000Y-229000000D01*
X173500000Y-219000000D02*
X173500000Y-229000000D01*
X170000000Y-219000000D02*
X173500000Y-219000000D01*
X170000000Y-211000000D02*
X170000000Y-219000000D01*
X125312700Y-173066942D02*
X125312700Y-173541458D01*
X124267700Y-173066942D02*
X124267700Y-173541458D01*
X111749100Y-173066942D02*
X111749100Y-173541458D01*
X110704100Y-173066942D02*
X110704100Y-173541458D01*
X112253500Y-179980358D02*
X112253500Y-179505842D01*
X113298500Y-179980358D02*
X113298500Y-179505842D01*
X122680200Y-180005758D02*
X122680200Y-179531242D01*
X123725200Y-180005758D02*
X123725200Y-179531242D01*
X107981220Y-159713698D02*
X107981220Y-159239182D01*
X109026220Y-159713698D02*
X109026220Y-159239182D01*
X111393500Y-160798742D02*
X111393500Y-161273258D01*
X110348500Y-160798742D02*
X110348500Y-161273258D01*
X122921500Y-149970258D02*
X122921500Y-149495742D01*
X123966500Y-149970258D02*
X123966500Y-149495742D01*
X128890500Y-184387258D02*
X128890500Y-183912742D01*
X129935500Y-184387258D02*
X129935500Y-183912742D01*
X129935500Y-187722742D02*
X129935500Y-188197258D01*
X128890500Y-187722742D02*
X128890500Y-188197258D01*
X141324062Y-177739780D02*
X141798578Y-177739780D01*
X141324062Y-178784780D02*
X141798578Y-178784780D01*
X141337262Y-193284580D02*
X141811778Y-193284580D01*
X141337262Y-194329580D02*
X141811778Y-194329580D01*
X125586258Y-184799500D02*
X125111742Y-184799500D01*
X125586258Y-183754500D02*
X125111742Y-183754500D01*
X127239500Y-184387258D02*
X127239500Y-183912742D01*
X128284500Y-184387258D02*
X128284500Y-183912742D01*
X125586258Y-186704500D02*
X125111742Y-186704500D01*
X125586258Y-185659500D02*
X125111742Y-185659500D01*
X125586258Y-188482500D02*
X125111742Y-188482500D01*
X125586258Y-187437500D02*
X125111742Y-187437500D01*
X123649200Y-173163620D02*
X123649200Y-173444780D01*
X122629200Y-173163620D02*
X122629200Y-173444780D01*
X113336800Y-173176320D02*
X113336800Y-173457480D01*
X112316800Y-173176320D02*
X112316800Y-173457480D01*
X110653100Y-179870680D02*
X110653100Y-179589520D01*
X111673100Y-179870680D02*
X111673100Y-179589520D01*
X124356400Y-179909080D02*
X124356400Y-179627920D01*
X125376400Y-179909080D02*
X125376400Y-179627920D01*
X123368680Y-169051700D02*
X123087520Y-169051700D01*
X123368680Y-168031700D02*
X123087520Y-168031700D01*
X113587920Y-166495000D02*
X113869080Y-166495000D01*
X113587920Y-167515000D02*
X113869080Y-167515000D01*
X107765460Y-164096160D02*
X107484300Y-164096160D01*
X107765460Y-163076160D02*
X107484300Y-163076160D01*
X107750220Y-162455320D02*
X107469060Y-162455320D01*
X107750220Y-161435320D02*
X107469060Y-161435320D01*
X123394080Y-167502300D02*
X123112920Y-167502300D01*
X123394080Y-166482300D02*
X123112920Y-166482300D01*
X113575220Y-168019000D02*
X113856380Y-168019000D01*
X113575220Y-169039000D02*
X113856380Y-169039000D01*
X117972300Y-167562920D02*
X117972300Y-167844080D01*
X116952300Y-167562920D02*
X116952300Y-167844080D01*
X119496300Y-167562920D02*
X119496300Y-167844080D01*
X118476300Y-167562920D02*
X118476300Y-167844080D01*
X181435620Y-208637600D02*
X181154460Y-208637600D01*
X181435620Y-207617600D02*
X181154460Y-207617600D01*
X141754320Y-166224340D02*
X141754320Y-166505500D01*
X140734320Y-166224340D02*
X140734320Y-166505500D01*
X133250400Y-166285300D02*
X133250400Y-166566460D01*
X132230400Y-166285300D02*
X132230400Y-166566460D01*
X132456460Y-149111580D02*
X132456460Y-148830420D01*
X133476460Y-149111580D02*
X133476460Y-148830420D01*
X128984620Y-162135280D02*
X128703460Y-162135280D01*
X128984620Y-161115280D02*
X128703460Y-161115280D01*
X147123880Y-158525600D02*
X147123880Y-158806760D01*
X146103880Y-158525600D02*
X146103880Y-158806760D01*
X143695960Y-150803220D02*
X143695960Y-150522060D01*
X144715960Y-150803220D02*
X144715960Y-150522060D01*
X162614940Y-111583204D02*
X162614940Y-111129076D01*
X164084940Y-111583204D02*
X164084940Y-111129076D01*
X163530000Y-99160000D02*
X172470000Y-99160000D01*
X163530000Y-104670000D02*
X163530000Y-102870000D01*
X163530000Y-99160000D02*
X163530000Y-100620000D01*
X172470000Y-99160000D02*
X172470000Y-100620000D01*
X172470000Y-104670000D02*
X172470000Y-102870000D01*
X139656800Y-165065300D02*
X133906800Y-165065300D01*
X133906800Y-165065300D02*
X133906800Y-168665300D01*
X133906800Y-168665300D02*
X139656800Y-168665300D01*
X183775500Y-155569816D02*
X183775500Y-155305400D01*
X183775500Y-159440984D02*
X183775500Y-159705400D01*
X178555500Y-155569816D02*
X178555500Y-155305400D01*
X178555500Y-159440984D02*
X178555500Y-161155400D01*
X118046500Y-180977700D02*
X119996500Y-180977700D01*
X118046500Y-180977700D02*
X116096500Y-180977700D01*
X118046500Y-172107700D02*
X119996500Y-172107700D01*
X118046500Y-172107700D02*
X114596500Y-172107700D01*
D10*
X123816000Y-157691100D02*
X123241000Y-157691100D01*
X123816000Y-163441100D02*
X123166000Y-163441100D01*
X113166000Y-163441100D02*
X113816000Y-163441100D01*
X113166000Y-157691100D02*
X113816000Y-157691100D01*
X123816000Y-157691100D02*
X123816000Y-163441100D01*
X113166000Y-157691100D02*
X113166000Y-163441100D01*
X123241000Y-157691100D02*
X123241000Y-156091100D01*
D11*
X159507000Y-155390800D02*
X159507000Y-156650800D01*
X159507000Y-162210800D02*
X159507000Y-160950800D01*
X163267000Y-155390800D02*
X159507000Y-155390800D01*
X165517000Y-162210800D02*
X159507000Y-162210800D01*
X175621800Y-140949784D02*
X175621800Y-141214200D01*
X175621800Y-137078616D02*
X175621800Y-136814200D01*
X180841800Y-140949784D02*
X180841800Y-141214200D01*
X180841800Y-137078616D02*
X180841800Y-135364200D01*
X143095500Y-153078700D02*
X143095500Y-152128700D01*
X143095500Y-152128700D02*
X142145500Y-152128700D01*
X143095500Y-161398700D02*
X143095500Y-162348700D01*
X143095500Y-162348700D02*
X142145500Y-162348700D01*
X132875500Y-153078700D02*
X132875500Y-152128700D01*
X132875500Y-152128700D02*
X133825500Y-152128700D01*
X132875500Y-161398700D02*
X132875500Y-162348700D01*
X132875500Y-162348700D02*
X133825500Y-162348700D01*
X133825500Y-162348700D02*
X133825500Y-163688700D01*
X156716464Y-170102200D02*
X156262336Y-170102200D01*
X156716464Y-168632200D02*
X156262336Y-168632200D01*
X156313136Y-166549400D02*
X156767264Y-166549400D01*
X156313136Y-168019400D02*
X156767264Y-168019400D01*
X107542000Y-205335136D02*
X107542000Y-205789264D01*
X106072000Y-205335136D02*
X106072000Y-205789264D01*
X137016258Y-172391600D02*
X136541742Y-172391600D01*
X137016258Y-171346600D02*
X136541742Y-171346600D01*
X164044300Y-212053436D02*
X164044300Y-212507564D01*
X162574300Y-212053436D02*
X162574300Y-212507564D01*
X166759560Y-212157576D02*
X166759560Y-212611704D01*
X165289560Y-212157576D02*
X165289560Y-212611704D01*
X154890400Y-136328578D02*
X154890400Y-137127822D01*
X153770400Y-136328578D02*
X153770400Y-137127822D01*
X169391200Y-138428000D02*
X167691200Y-138428000D01*
X167691200Y-138428000D02*
X167691200Y-131828000D01*
X167691200Y-131828000D02*
X169391200Y-131828000D01*
X172391200Y-131828000D02*
X174091200Y-131828000D01*
X174091200Y-131828000D02*
X174091200Y-138428000D01*
X174091200Y-138428000D02*
X172391200Y-138428000D01*
X179351400Y-129157600D02*
X179351400Y-127457600D01*
X179351400Y-127457600D02*
X185951400Y-127457600D01*
X185951400Y-127457600D02*
X185951400Y-129157600D01*
X185951400Y-132157600D02*
X185951400Y-133857600D01*
X185951400Y-133857600D02*
X179351400Y-133857600D01*
X179351400Y-133857600D02*
X179351400Y-132157600D01*
X125505000Y-219170000D02*
X125505000Y-228020000D01*
X114265000Y-228020000D02*
X125505000Y-228020000D01*
X114265000Y-219170000D02*
X114265000Y-228020000D01*
X115415000Y-194930000D02*
X115415000Y-197930000D01*
X110665000Y-219170000D02*
X114265000Y-219170000D01*
X129105000Y-219170000D02*
X129105000Y-216050000D01*
X110665000Y-219170000D02*
X110665000Y-216050000D01*
X110665000Y-200650000D02*
X110665000Y-197930000D01*
X110665000Y-207000000D02*
X110665000Y-203400000D01*
X110665000Y-213300000D02*
X110665000Y-209700000D01*
X129105000Y-209700000D02*
X129105000Y-213300000D01*
X129105000Y-203400000D02*
X129105000Y-207000000D01*
X129105000Y-197930000D02*
X129105000Y-200650000D01*
X110665000Y-197930000D02*
X115415000Y-197930000D01*
X115455000Y-194930000D02*
X124355000Y-194930000D01*
X124355000Y-194930000D02*
X124355000Y-197930000D01*
X124355000Y-197930000D02*
X129105000Y-197930000D01*
X125505000Y-219170000D02*
X129105000Y-219170000D01*
D10*
X175103380Y-99117100D02*
X175103380Y-110879840D01*
X175103380Y-110879840D02*
X186960100Y-110879840D01*
X186960100Y-110879840D02*
X186960100Y-99122180D01*
X186960100Y-99122180D02*
X175113540Y-99122180D01*
X175111000Y-99124720D02*
X175113540Y-99122180D01*
D11*
X181784200Y-116661200D02*
X181784200Y-113361200D01*
X181784200Y-113361200D02*
X176384200Y-113361200D01*
X181784200Y-116661200D02*
X176384200Y-116661200D01*
X170765200Y-116709400D02*
X174065200Y-116709400D01*
X174065200Y-116709400D02*
X174065200Y-111309400D01*
X170765200Y-116709400D02*
X170765200Y-111309400D01*
X163046200Y-127661400D02*
X163046200Y-130961400D01*
X163046200Y-130961400D02*
X168446200Y-130961400D01*
X163046200Y-127661400D02*
X168446200Y-127661400D01*
X162260400Y-215306400D02*
X162260400Y-217991400D01*
X162260400Y-217991400D02*
X164180400Y-217991400D01*
X164180400Y-217991400D02*
X164180400Y-215306400D01*
X165003600Y-215344500D02*
X165003600Y-218029500D01*
X165003600Y-218029500D02*
X166923600Y-218029500D01*
X166923600Y-218029500D02*
X166923600Y-215344500D01*
X181100400Y-194823448D02*
X181100400Y-195345952D01*
X179630400Y-194823448D02*
X179630400Y-195345952D01*
X179630400Y-199155952D02*
X179630400Y-198633448D01*
X181100400Y-199155952D02*
X181100400Y-198633448D01*
X186352548Y-162612400D02*
X186875052Y-162612400D01*
X186352548Y-164082400D02*
X186875052Y-164082400D01*
X168235300Y-145776048D02*
X168235300Y-146298552D01*
X166765300Y-145776048D02*
X166765300Y-146298552D01*
X155090800Y-140518248D02*
X155090800Y-141040752D01*
X153620800Y-140518248D02*
X153620800Y-141040752D01*
X162583800Y-132834748D02*
X162583800Y-133357252D01*
X161113800Y-132834748D02*
X161113800Y-133357252D01*
X166910600Y-132817948D02*
X166910600Y-133340452D01*
X165440600Y-132817948D02*
X165440600Y-133340452D01*
X164793600Y-132834748D02*
X164793600Y-133357252D01*
X163323600Y-132834748D02*
X163323600Y-133357252D01*
X155014600Y-160406448D02*
X155014600Y-160928952D01*
X153544600Y-160406448D02*
X153544600Y-160928952D01*
X168895700Y-157294948D02*
X168895700Y-157817452D01*
X167425700Y-157294948D02*
X167425700Y-157817452D01*
X186104200Y-135882748D02*
X186104200Y-136405252D01*
X184634200Y-135882748D02*
X184634200Y-136405252D01*
X138349048Y-169279900D02*
X138871552Y-169279900D01*
X138349048Y-170749900D02*
X138871552Y-170749900D01*
X135363852Y-170749900D02*
X134841348Y-170749900D01*
X135363852Y-169279900D02*
X134841348Y-169279900D01*
D10*
X165626042Y-155145980D02*
X165292709Y-154669790D01*
X165054614Y-155145980D02*
X165054614Y-154145980D01*
X165435566Y-154145980D01*
X165530804Y-154193600D01*
X165578423Y-154241219D01*
X165626042Y-154336457D01*
X165626042Y-154479314D01*
X165578423Y-154574552D01*
X165530804Y-154622171D01*
X165435566Y-154669790D01*
X165054614Y-154669790D01*
X166483185Y-154479314D02*
X166483185Y-155145980D01*
X166245090Y-154098361D02*
X166006995Y-154812647D01*
X166626042Y-154812647D01*
X167435566Y-154145980D02*
X167245090Y-154145980D01*
X167149852Y-154193600D01*
X167102233Y-154241219D01*
X167006995Y-154384076D01*
X166959376Y-154574552D01*
X166959376Y-154955504D01*
X167006995Y-155050742D01*
X167054614Y-155098361D01*
X167149852Y-155145980D01*
X167340328Y-155145980D01*
X167435566Y-155098361D01*
X167483185Y-155050742D01*
X167530804Y-154955504D01*
X167530804Y-154717409D01*
X167483185Y-154622171D01*
X167435566Y-154574552D01*
X167340328Y-154526933D01*
X167149852Y-154526933D01*
X167054614Y-154574552D01*
X167006995Y-154622171D01*
X166959376Y-154717409D01*
X160655095Y-151064100D02*
X160655095Y-151873624D01*
X160702714Y-151968862D01*
X160750333Y-152016481D01*
X160845571Y-152064100D01*
X161036047Y-152064100D01*
X161131285Y-152016481D01*
X161178904Y-151968862D01*
X161226523Y-151873624D01*
X161226523Y-151064100D01*
X161750333Y-152064100D02*
X161940809Y-152064100D01*
X162036047Y-152016481D01*
X162083666Y-151968862D01*
X162178904Y-151826005D01*
X162226523Y-151635529D01*
X162226523Y-151254577D01*
X162178904Y-151159339D01*
X162131285Y-151111720D01*
X162036047Y-151064100D01*
X161845571Y-151064100D01*
X161750333Y-151111720D01*
X161702714Y-151159339D01*
X161655095Y-151254577D01*
X161655095Y-151492672D01*
X161702714Y-151587910D01*
X161750333Y-151635529D01*
X161845571Y-151683148D01*
X162036047Y-151683148D01*
X162131285Y-151635529D01*
X162178904Y-151587910D01*
X162226523Y-151492672D01*
X153032942Y-145778457D02*
X153080561Y-145826076D01*
X153128180Y-145968933D01*
X153128180Y-146064171D01*
X153080561Y-146207028D01*
X152985323Y-146302266D01*
X152890085Y-146349885D01*
X152699609Y-146397504D01*
X152556752Y-146397504D01*
X152366276Y-146349885D01*
X152271038Y-146302266D01*
X152175800Y-146207028D01*
X152128180Y-146064171D01*
X152128180Y-145968933D01*
X152175800Y-145826076D01*
X152223419Y-145778457D01*
X152128180Y-144921314D02*
X152128180Y-145111790D01*
X152175800Y-145207028D01*
X152223419Y-145254647D01*
X152366276Y-145349885D01*
X152556752Y-145397504D01*
X152937704Y-145397504D01*
X153032942Y-145349885D01*
X153080561Y-145302266D01*
X153128180Y-145207028D01*
X153128180Y-145016552D01*
X153080561Y-144921314D01*
X153032942Y-144873695D01*
X152937704Y-144826076D01*
X152699609Y-144826076D01*
X152604371Y-144873695D01*
X152556752Y-144921314D01*
X152509133Y-145016552D01*
X152509133Y-145207028D01*
X152556752Y-145302266D01*
X152604371Y-145349885D01*
X152699609Y-145397504D01*
X152128180Y-144207028D02*
X152128180Y-144111790D01*
X152175800Y-144016552D01*
X152223419Y-143968933D01*
X152318657Y-143921314D01*
X152509133Y-143873695D01*
X152747228Y-143873695D01*
X152937704Y-143921314D01*
X153032942Y-143968933D01*
X153080561Y-144016552D01*
X153128180Y-144111790D01*
X153128180Y-144207028D01*
X153080561Y-144302266D01*
X153032942Y-144349885D01*
X152937704Y-144397504D01*
X152747228Y-144445123D01*
X152509133Y-144445123D01*
X152318657Y-144397504D01*
X152223419Y-144349885D01*
X152175800Y-144302266D01*
X152128180Y-144207028D01*
X176320580Y-172745304D02*
X176320580Y-172173876D01*
X177320580Y-172459590D02*
X176320580Y-172459590D01*
X177320580Y-171316733D02*
X177320580Y-171888161D01*
X177320580Y-171602447D02*
X176320580Y-171602447D01*
X176463438Y-171697685D01*
X176558676Y-171792923D01*
X176606295Y-171888161D01*
X178852580Y-162839400D02*
X179090676Y-162839400D01*
X178995438Y-163077495D02*
X179090676Y-162839400D01*
X178995438Y-162601304D01*
X179281152Y-162982257D02*
X179090676Y-162839400D01*
X179281152Y-162696542D01*
X185891514Y-195776790D02*
X186748657Y-195776790D01*
X186843895Y-195824409D01*
X186891514Y-195919647D01*
X186891514Y-195967266D01*
X185558180Y-195776790D02*
X185605800Y-195824409D01*
X185653419Y-195776790D01*
X185605800Y-195729171D01*
X185558180Y-195776790D01*
X185653419Y-195776790D01*
X186558180Y-194776790D02*
X186558180Y-195348219D01*
X186558180Y-195062504D02*
X185558180Y-195062504D01*
X185701038Y-195157742D01*
X185796276Y-195252980D01*
X185843895Y-195348219D01*
X192060580Y-198918295D02*
X193060580Y-198584961D01*
X192060580Y-198251628D01*
X192060580Y-198061152D02*
X192060580Y-197489723D01*
X193060580Y-197775438D02*
X192060580Y-197775438D01*
X193060580Y-197156390D02*
X192393914Y-197156390D01*
X192584390Y-197156390D02*
X192489152Y-197108771D01*
X192441533Y-197061152D01*
X192393914Y-196965914D01*
X192393914Y-196870676D01*
X193012961Y-196156390D02*
X193060580Y-196251628D01*
X193060580Y-196442104D01*
X193012961Y-196537342D01*
X192917723Y-196584961D01*
X192536771Y-196584961D01*
X192441533Y-196537342D01*
X192393914Y-196442104D01*
X192393914Y-196251628D01*
X192441533Y-196156390D01*
X192536771Y-196108771D01*
X192632009Y-196108771D01*
X192727247Y-196584961D01*
X192393914Y-195823057D02*
X192393914Y-195442104D01*
X193060580Y-195680200D02*
X192203438Y-195680200D01*
X192108200Y-195632580D01*
X192060580Y-195537342D01*
X192060580Y-195442104D01*
X192958980Y-208571838D02*
X191958980Y-208571838D01*
X192958980Y-208000409D01*
X191958980Y-208000409D01*
X192958980Y-206952790D02*
X192482790Y-207286123D01*
X192958980Y-207524219D02*
X191958980Y-207524219D01*
X191958980Y-207143266D01*
X192006600Y-207048028D01*
X192054219Y-207000409D01*
X192149457Y-206952790D01*
X192292314Y-206952790D01*
X192387552Y-207000409D01*
X192435171Y-207048028D01*
X192482790Y-207143266D01*
X192482790Y-207524219D01*
X192435171Y-206524219D02*
X192435171Y-206190885D01*
X192958980Y-206048028D02*
X192958980Y-206524219D01*
X191958980Y-206524219D01*
X191958980Y-206048028D01*
X192911361Y-205667076D02*
X192958980Y-205524219D01*
X192958980Y-205286123D01*
X192911361Y-205190885D01*
X192863742Y-205143266D01*
X192768504Y-205095647D01*
X192673266Y-205095647D01*
X192578028Y-205143266D01*
X192530409Y-205190885D01*
X192482790Y-205286123D01*
X192435171Y-205476600D01*
X192387552Y-205571838D01*
X192339933Y-205619457D01*
X192244695Y-205667076D01*
X192149457Y-205667076D01*
X192054219Y-205619457D01*
X192006600Y-205571838D01*
X191958980Y-205476600D01*
X191958980Y-205238504D01*
X192006600Y-205095647D01*
X191958980Y-204809933D02*
X191958980Y-204238504D01*
X192958980Y-204524219D02*
X191958980Y-204524219D01*
X192911361Y-203183952D02*
X192958980Y-203041095D01*
X192958980Y-202803000D01*
X192911361Y-202707761D01*
X192863742Y-202660142D01*
X192768504Y-202612523D01*
X192673266Y-202612523D01*
X192578028Y-202660142D01*
X192530409Y-202707761D01*
X192482790Y-202803000D01*
X192435171Y-202993476D01*
X192387552Y-203088714D01*
X192339933Y-203136333D01*
X192244695Y-203183952D01*
X192149457Y-203183952D01*
X192054219Y-203136333D01*
X192006600Y-203088714D01*
X191958980Y-202993476D01*
X191958980Y-202755380D01*
X192006600Y-202612523D01*
X191958980Y-202279190D02*
X192958980Y-202041095D01*
X192244695Y-201850619D01*
X192958980Y-201660142D01*
X191958980Y-201422047D01*
X191958980Y-200850619D02*
X191958980Y-200660142D01*
X192006600Y-200564904D01*
X192101838Y-200469666D01*
X192292314Y-200422047D01*
X192625647Y-200422047D01*
X192816123Y-200469666D01*
X192911361Y-200564904D01*
X192958980Y-200660142D01*
X192958980Y-200850619D01*
X192911361Y-200945857D01*
X192816123Y-201041095D01*
X192625647Y-201088714D01*
X192292314Y-201088714D01*
X192101838Y-201041095D01*
X192006600Y-200945857D01*
X191958980Y-200850619D01*
X191082561Y-208586104D02*
X191130180Y-208443247D01*
X191130180Y-208205152D01*
X191082561Y-208109914D01*
X191034942Y-208062295D01*
X190939704Y-208014676D01*
X190844466Y-208014676D01*
X190749228Y-208062295D01*
X190701609Y-208109914D01*
X190653990Y-208205152D01*
X190606371Y-208395628D01*
X190558752Y-208490866D01*
X190511133Y-208538485D01*
X190415895Y-208586104D01*
X190320657Y-208586104D01*
X190225419Y-208538485D01*
X190177800Y-208490866D01*
X190130180Y-208395628D01*
X190130180Y-208157533D01*
X190177800Y-208014676D01*
X190130180Y-207681342D02*
X191130180Y-207443247D01*
X190415895Y-207252771D01*
X191130180Y-207062295D01*
X190130180Y-206824200D01*
X191034942Y-205871819D02*
X191082561Y-205919438D01*
X191130180Y-206062295D01*
X191130180Y-206157533D01*
X191082561Y-206300390D01*
X190987323Y-206395628D01*
X190892085Y-206443247D01*
X190701609Y-206490866D01*
X190558752Y-206490866D01*
X190368276Y-206443247D01*
X190273038Y-206395628D01*
X190177800Y-206300390D01*
X190130180Y-206157533D01*
X190130180Y-206062295D01*
X190177800Y-205919438D01*
X190225419Y-205871819D01*
X191130180Y-204967057D02*
X191130180Y-205443247D01*
X190130180Y-205443247D01*
X191130180Y-204633723D02*
X190130180Y-204633723D01*
X191130180Y-204062295D02*
X190558752Y-204490866D01*
X190130180Y-204062295D02*
X190701609Y-204633723D01*
X190930161Y-199096047D02*
X190977780Y-198953190D01*
X190977780Y-198715095D01*
X190930161Y-198619857D01*
X190882542Y-198572238D01*
X190787304Y-198524619D01*
X190692066Y-198524619D01*
X190596828Y-198572238D01*
X190549209Y-198619857D01*
X190501590Y-198715095D01*
X190453971Y-198905571D01*
X190406352Y-199000809D01*
X190358733Y-199048428D01*
X190263495Y-199096047D01*
X190168257Y-199096047D01*
X190073019Y-199048428D01*
X190025400Y-199000809D01*
X189977780Y-198905571D01*
X189977780Y-198667476D01*
X190025400Y-198524619D01*
X189977780Y-198191285D02*
X190977780Y-197953190D01*
X190263495Y-197762714D01*
X190977780Y-197572238D01*
X189977780Y-197334142D01*
X190977780Y-196953190D02*
X189977780Y-196953190D01*
X189977780Y-196715095D01*
X190025400Y-196572238D01*
X190120638Y-196477000D01*
X190215876Y-196429380D01*
X190406352Y-196381761D01*
X190549209Y-196381761D01*
X190739685Y-196429380D01*
X190834923Y-196477000D01*
X190930161Y-196572238D01*
X190977780Y-196715095D01*
X190977780Y-196953190D01*
X190977780Y-195953190D02*
X189977780Y-195953190D01*
X189977780Y-195286523D02*
X189977780Y-195096047D01*
X190025400Y-195000809D01*
X190120638Y-194905571D01*
X190311114Y-194857952D01*
X190644447Y-194857952D01*
X190834923Y-194905571D01*
X190930161Y-195000809D01*
X190977780Y-195096047D01*
X190977780Y-195286523D01*
X190930161Y-195381761D01*
X190834923Y-195477000D01*
X190644447Y-195524619D01*
X190311114Y-195524619D01*
X190120638Y-195477000D01*
X190025400Y-195381761D01*
X189977780Y-195286523D01*
X190127000Y-202577604D02*
X190079380Y-202672842D01*
X190079380Y-202815700D01*
X190127000Y-202958557D01*
X190222238Y-203053795D01*
X190317476Y-203101414D01*
X190507952Y-203149033D01*
X190650809Y-203149033D01*
X190841285Y-203101414D01*
X190936523Y-203053795D01*
X191031761Y-202958557D01*
X191079380Y-202815700D01*
X191079380Y-202720461D01*
X191031761Y-202577604D01*
X190984142Y-202529985D01*
X190650809Y-202529985D01*
X190650809Y-202720461D01*
X191079380Y-202101414D02*
X190079380Y-202101414D01*
X191079380Y-201529985D01*
X190079380Y-201529985D01*
X191079380Y-201053795D02*
X190079380Y-201053795D01*
X190079380Y-200815700D01*
X190127000Y-200672842D01*
X190222238Y-200577604D01*
X190317476Y-200529985D01*
X190507952Y-200482366D01*
X190650809Y-200482366D01*
X190841285Y-200529985D01*
X190936523Y-200577604D01*
X191031761Y-200672842D01*
X191079380Y-200815700D01*
X191079380Y-201053795D01*
X137266666Y-105666666D02*
X137266666Y-105190476D01*
X137552380Y-105761904D02*
X136552380Y-105428571D01*
X137552380Y-105095238D01*
X137028571Y-104761904D02*
X137028571Y-104428571D01*
X137552380Y-104285714D02*
X137552380Y-104761904D01*
X136552380Y-104761904D01*
X136552380Y-104285714D01*
X137552380Y-103333333D02*
X137552380Y-103904761D01*
X137552380Y-103619047D02*
X136552380Y-103619047D01*
X136695238Y-103714285D01*
X136790476Y-103809523D01*
X136838095Y-103904761D01*
X119946666Y-108952380D02*
X119946666Y-109666666D01*
X119899047Y-109809523D01*
X119803809Y-109904761D01*
X119660952Y-109952380D01*
X119565714Y-109952380D01*
X120327619Y-108952380D02*
X120994285Y-108952380D01*
X120565714Y-109952380D01*
X125231142Y-153677857D02*
X125278761Y-153725476D01*
X125326380Y-153868333D01*
X125326380Y-153963571D01*
X125278761Y-154106428D01*
X125183523Y-154201666D01*
X125088285Y-154249285D01*
X124897809Y-154296904D01*
X124754952Y-154296904D01*
X124564476Y-154249285D01*
X124469238Y-154201666D01*
X124374000Y-154106428D01*
X124326380Y-153963571D01*
X124326380Y-153868333D01*
X124374000Y-153725476D01*
X124421619Y-153677857D01*
X124326380Y-153344523D02*
X124326380Y-152725476D01*
X124707333Y-153058809D01*
X124707333Y-152915952D01*
X124754952Y-152820714D01*
X124802571Y-152773095D01*
X124897809Y-152725476D01*
X125135904Y-152725476D01*
X125231142Y-152773095D01*
X125278761Y-152820714D01*
X125326380Y-152915952D01*
X125326380Y-153201666D01*
X125278761Y-153296904D01*
X125231142Y-153344523D01*
X124326380Y-151820714D02*
X124326380Y-152296904D01*
X124802571Y-152344523D01*
X124754952Y-152296904D01*
X124707333Y-152201666D01*
X124707333Y-151963571D01*
X124754952Y-151868333D01*
X124802571Y-151820714D01*
X124897809Y-151773095D01*
X125135904Y-151773095D01*
X125231142Y-151820714D01*
X125278761Y-151868333D01*
X125326380Y-151963571D01*
X125326380Y-152201666D01*
X125278761Y-152296904D01*
X125231142Y-152344523D01*
X150966442Y-154204966D02*
X151014061Y-154252585D01*
X151061680Y-154395442D01*
X151061680Y-154490680D01*
X151014061Y-154633538D01*
X150918823Y-154728776D01*
X150823585Y-154776395D01*
X150633109Y-154824014D01*
X150490252Y-154824014D01*
X150299776Y-154776395D01*
X150204538Y-154728776D01*
X150109300Y-154633538D01*
X150061680Y-154490680D01*
X150061680Y-154395442D01*
X150109300Y-154252585D01*
X150156919Y-154204966D01*
X150156919Y-153824014D02*
X150109300Y-153776395D01*
X150061680Y-153681157D01*
X150061680Y-153443061D01*
X150109300Y-153347823D01*
X150156919Y-153300204D01*
X150252157Y-153252585D01*
X150347395Y-153252585D01*
X150490252Y-153300204D01*
X151061680Y-153871633D01*
X151061680Y-153252585D01*
X134729480Y-203411057D02*
X134253290Y-203744390D01*
X134729480Y-203982485D02*
X133729480Y-203982485D01*
X133729480Y-203601533D01*
X133777100Y-203506295D01*
X133824719Y-203458676D01*
X133919957Y-203411057D01*
X134062814Y-203411057D01*
X134158052Y-203458676D01*
X134205671Y-203506295D01*
X134253290Y-203601533D01*
X134253290Y-203982485D01*
X133729480Y-202553914D02*
X133729480Y-202744390D01*
X133777100Y-202839628D01*
X133824719Y-202887247D01*
X133967576Y-202982485D01*
X134158052Y-203030104D01*
X134539004Y-203030104D01*
X134634242Y-202982485D01*
X134681861Y-202934866D01*
X134729480Y-202839628D01*
X134729480Y-202649152D01*
X134681861Y-202553914D01*
X134634242Y-202506295D01*
X134539004Y-202458676D01*
X134300909Y-202458676D01*
X134205671Y-202506295D01*
X134158052Y-202553914D01*
X134110433Y-202649152D01*
X134110433Y-202839628D01*
X134158052Y-202934866D01*
X134205671Y-202982485D01*
X134300909Y-203030104D01*
X133824719Y-202077723D02*
X133777100Y-202030104D01*
X133729480Y-201934866D01*
X133729480Y-201696771D01*
X133777100Y-201601533D01*
X133824719Y-201553914D01*
X133919957Y-201506295D01*
X134015195Y-201506295D01*
X134158052Y-201553914D01*
X134729480Y-202125342D01*
X134729480Y-201506295D01*
X130868680Y-170225957D02*
X130392490Y-170559290D01*
X130868680Y-170797385D02*
X129868680Y-170797385D01*
X129868680Y-170416433D01*
X129916300Y-170321195D01*
X129963919Y-170273576D01*
X130059157Y-170225957D01*
X130202014Y-170225957D01*
X130297252Y-170273576D01*
X130344871Y-170321195D01*
X130392490Y-170416433D01*
X130392490Y-170797385D01*
X129868680Y-169368814D02*
X129868680Y-169559290D01*
X129916300Y-169654528D01*
X129963919Y-169702147D01*
X130106776Y-169797385D01*
X130297252Y-169845004D01*
X130678204Y-169845004D01*
X130773442Y-169797385D01*
X130821061Y-169749766D01*
X130868680Y-169654528D01*
X130868680Y-169464052D01*
X130821061Y-169368814D01*
X130773442Y-169321195D01*
X130678204Y-169273576D01*
X130440109Y-169273576D01*
X130344871Y-169321195D01*
X130297252Y-169368814D01*
X130249633Y-169464052D01*
X130249633Y-169654528D01*
X130297252Y-169749766D01*
X130344871Y-169797385D01*
X130440109Y-169845004D01*
X129868680Y-168940242D02*
X129868680Y-168321195D01*
X130249633Y-168654528D01*
X130249633Y-168511671D01*
X130297252Y-168416433D01*
X130344871Y-168368814D01*
X130440109Y-168321195D01*
X130678204Y-168321195D01*
X130773442Y-168368814D01*
X130821061Y-168416433D01*
X130868680Y-168511671D01*
X130868680Y-168797385D01*
X130821061Y-168892623D01*
X130773442Y-168940242D01*
X146121380Y-196426057D02*
X145645190Y-196759390D01*
X146121380Y-196997485D02*
X145121380Y-196997485D01*
X145121380Y-196616533D01*
X145169000Y-196521295D01*
X145216619Y-196473676D01*
X145311857Y-196426057D01*
X145454714Y-196426057D01*
X145549952Y-196473676D01*
X145597571Y-196521295D01*
X145645190Y-196616533D01*
X145645190Y-196997485D01*
X145121380Y-195568914D02*
X145121380Y-195759390D01*
X145169000Y-195854628D01*
X145216619Y-195902247D01*
X145359476Y-195997485D01*
X145549952Y-196045104D01*
X145930904Y-196045104D01*
X146026142Y-195997485D01*
X146073761Y-195949866D01*
X146121380Y-195854628D01*
X146121380Y-195664152D01*
X146073761Y-195568914D01*
X146026142Y-195521295D01*
X145930904Y-195473676D01*
X145692809Y-195473676D01*
X145597571Y-195521295D01*
X145549952Y-195568914D01*
X145502333Y-195664152D01*
X145502333Y-195854628D01*
X145549952Y-195949866D01*
X145597571Y-195997485D01*
X145692809Y-196045104D01*
X146121380Y-194521295D02*
X146121380Y-195092723D01*
X146121380Y-194807009D02*
X145121380Y-194807009D01*
X145264238Y-194902247D01*
X145359476Y-194997485D01*
X145407095Y-195092723D01*
X144584680Y-196527657D02*
X144108490Y-196860990D01*
X144584680Y-197099085D02*
X143584680Y-197099085D01*
X143584680Y-196718133D01*
X143632300Y-196622895D01*
X143679919Y-196575276D01*
X143775157Y-196527657D01*
X143918014Y-196527657D01*
X144013252Y-196575276D01*
X144060871Y-196622895D01*
X144108490Y-196718133D01*
X144108490Y-197099085D01*
X143584680Y-195670514D02*
X143584680Y-195860990D01*
X143632300Y-195956228D01*
X143679919Y-196003847D01*
X143822776Y-196099085D01*
X144013252Y-196146704D01*
X144394204Y-196146704D01*
X144489442Y-196099085D01*
X144537061Y-196051466D01*
X144584680Y-195956228D01*
X144584680Y-195765752D01*
X144537061Y-195670514D01*
X144489442Y-195622895D01*
X144394204Y-195575276D01*
X144156109Y-195575276D01*
X144060871Y-195622895D01*
X144013252Y-195670514D01*
X143965633Y-195765752D01*
X143965633Y-195956228D01*
X144013252Y-196051466D01*
X144060871Y-196099085D01*
X144156109Y-196146704D01*
X143584680Y-194956228D02*
X143584680Y-194860990D01*
X143632300Y-194765752D01*
X143679919Y-194718133D01*
X143775157Y-194670514D01*
X143965633Y-194622895D01*
X144203728Y-194622895D01*
X144394204Y-194670514D01*
X144489442Y-194718133D01*
X144537061Y-194765752D01*
X144584680Y-194860990D01*
X144584680Y-194956228D01*
X144537061Y-195051466D01*
X144489442Y-195099085D01*
X144394204Y-195146704D01*
X144203728Y-195194323D01*
X143965633Y-195194323D01*
X143775157Y-195146704D01*
X143679919Y-195099085D01*
X143632300Y-195051466D01*
X143584680Y-194956228D01*
X148000980Y-196464157D02*
X147524790Y-196797490D01*
X148000980Y-197035585D02*
X147000980Y-197035585D01*
X147000980Y-196654633D01*
X147048600Y-196559395D01*
X147096219Y-196511776D01*
X147191457Y-196464157D01*
X147334314Y-196464157D01*
X147429552Y-196511776D01*
X147477171Y-196559395D01*
X147524790Y-196654633D01*
X147524790Y-197035585D01*
X147000980Y-195559395D02*
X147000980Y-196035585D01*
X147477171Y-196083204D01*
X147429552Y-196035585D01*
X147381933Y-195940347D01*
X147381933Y-195702252D01*
X147429552Y-195607014D01*
X147477171Y-195559395D01*
X147572409Y-195511776D01*
X147810504Y-195511776D01*
X147905742Y-195559395D01*
X147953361Y-195607014D01*
X148000980Y-195702252D01*
X148000980Y-195940347D01*
X147953361Y-196035585D01*
X147905742Y-196083204D01*
X148000980Y-195035585D02*
X148000980Y-194845109D01*
X147953361Y-194749871D01*
X147905742Y-194702252D01*
X147762885Y-194607014D01*
X147572409Y-194559395D01*
X147191457Y-194559395D01*
X147096219Y-194607014D01*
X147048600Y-194654633D01*
X147000980Y-194749871D01*
X147000980Y-194940347D01*
X147048600Y-195035585D01*
X147096219Y-195083204D01*
X147191457Y-195130823D01*
X147429552Y-195130823D01*
X147524790Y-195083204D01*
X147572409Y-195035585D01*
X147620028Y-194940347D01*
X147620028Y-194749871D01*
X147572409Y-194654633D01*
X147524790Y-194607014D01*
X147429552Y-194559395D01*
X151468080Y-196159357D02*
X150991890Y-196492690D01*
X151468080Y-196730785D02*
X150468080Y-196730785D01*
X150468080Y-196349833D01*
X150515700Y-196254595D01*
X150563319Y-196206976D01*
X150658557Y-196159357D01*
X150801414Y-196159357D01*
X150896652Y-196206976D01*
X150944271Y-196254595D01*
X150991890Y-196349833D01*
X150991890Y-196730785D01*
X150468080Y-195254595D02*
X150468080Y-195730785D01*
X150944271Y-195778404D01*
X150896652Y-195730785D01*
X150849033Y-195635547D01*
X150849033Y-195397452D01*
X150896652Y-195302214D01*
X150944271Y-195254595D01*
X151039509Y-195206976D01*
X151277604Y-195206976D01*
X151372842Y-195254595D01*
X151420461Y-195302214D01*
X151468080Y-195397452D01*
X151468080Y-195635547D01*
X151420461Y-195730785D01*
X151372842Y-195778404D01*
X150896652Y-194635547D02*
X150849033Y-194730785D01*
X150801414Y-194778404D01*
X150706176Y-194826023D01*
X150658557Y-194826023D01*
X150563319Y-194778404D01*
X150515700Y-194730785D01*
X150468080Y-194635547D01*
X150468080Y-194445071D01*
X150515700Y-194349833D01*
X150563319Y-194302214D01*
X150658557Y-194254595D01*
X150706176Y-194254595D01*
X150801414Y-194302214D01*
X150849033Y-194349833D01*
X150896652Y-194445071D01*
X150896652Y-194635547D01*
X150944271Y-194730785D01*
X150991890Y-194778404D01*
X151087128Y-194826023D01*
X151277604Y-194826023D01*
X151372842Y-194778404D01*
X151420461Y-194730785D01*
X151468080Y-194635547D01*
X151468080Y-194445071D01*
X151420461Y-194349833D01*
X151372842Y-194302214D01*
X151277604Y-194254595D01*
X151087128Y-194254595D01*
X150991890Y-194302214D01*
X150944271Y-194349833D01*
X150896652Y-194445071D01*
X132970542Y-203245957D02*
X133018161Y-203293576D01*
X133065780Y-203436433D01*
X133065780Y-203531671D01*
X133018161Y-203674528D01*
X132922923Y-203769766D01*
X132827685Y-203817385D01*
X132637209Y-203865004D01*
X132494352Y-203865004D01*
X132303876Y-203817385D01*
X132208638Y-203769766D01*
X132113400Y-203674528D01*
X132065780Y-203531671D01*
X132065780Y-203436433D01*
X132113400Y-203293576D01*
X132161019Y-203245957D01*
X133065780Y-202769766D02*
X133065780Y-202579290D01*
X133018161Y-202484052D01*
X132970542Y-202436433D01*
X132827685Y-202341195D01*
X132637209Y-202293576D01*
X132256257Y-202293576D01*
X132161019Y-202341195D01*
X132113400Y-202388814D01*
X132065780Y-202484052D01*
X132065780Y-202674528D01*
X132113400Y-202769766D01*
X132161019Y-202817385D01*
X132256257Y-202865004D01*
X132494352Y-202865004D01*
X132589590Y-202817385D01*
X132637209Y-202769766D01*
X132684828Y-202674528D01*
X132684828Y-202484052D01*
X132637209Y-202388814D01*
X132589590Y-202341195D01*
X132494352Y-202293576D01*
X132065780Y-201960242D02*
X132065780Y-201293576D01*
X133065780Y-201722147D01*
X136344422Y-201372462D02*
X136296803Y-201420081D01*
X136153946Y-201467700D01*
X136058708Y-201467700D01*
X135915851Y-201420081D01*
X135820613Y-201324843D01*
X135772994Y-201229605D01*
X135725375Y-201039129D01*
X135725375Y-200896272D01*
X135772994Y-200705796D01*
X135820613Y-200610558D01*
X135915851Y-200515320D01*
X136058708Y-200467700D01*
X136153946Y-200467700D01*
X136296803Y-200515320D01*
X136344422Y-200562939D01*
X136820613Y-201467700D02*
X137011089Y-201467700D01*
X137106327Y-201420081D01*
X137153946Y-201372462D01*
X137249184Y-201229605D01*
X137296803Y-201039129D01*
X137296803Y-200658177D01*
X137249184Y-200562939D01*
X137201565Y-200515320D01*
X137106327Y-200467700D01*
X136915851Y-200467700D01*
X136820613Y-200515320D01*
X136772994Y-200562939D01*
X136725375Y-200658177D01*
X136725375Y-200896272D01*
X136772994Y-200991510D01*
X136820613Y-201039129D01*
X136915851Y-201086748D01*
X137106327Y-201086748D01*
X137201565Y-201039129D01*
X137249184Y-200991510D01*
X137296803Y-200896272D01*
X138153946Y-200467700D02*
X137963470Y-200467700D01*
X137868232Y-200515320D01*
X137820613Y-200562939D01*
X137725375Y-200705796D01*
X137677756Y-200896272D01*
X137677756Y-201277224D01*
X137725375Y-201372462D01*
X137772994Y-201420081D01*
X137868232Y-201467700D01*
X138058708Y-201467700D01*
X138153946Y-201420081D01*
X138201565Y-201372462D01*
X138249184Y-201277224D01*
X138249184Y-201039129D01*
X138201565Y-200943891D01*
X138153946Y-200896272D01*
X138058708Y-200848653D01*
X137868232Y-200848653D01*
X137772994Y-200896272D01*
X137725375Y-200943891D01*
X137677756Y-201039129D01*
X139565142Y-201319142D02*
X139517523Y-201366761D01*
X139374666Y-201414380D01*
X139279428Y-201414380D01*
X139136571Y-201366761D01*
X139041333Y-201271523D01*
X138993714Y-201176285D01*
X138946095Y-200985809D01*
X138946095Y-200842952D01*
X138993714Y-200652476D01*
X139041333Y-200557238D01*
X139136571Y-200462000D01*
X139279428Y-200414380D01*
X139374666Y-200414380D01*
X139517523Y-200462000D01*
X139565142Y-200509619D01*
X140041333Y-201414380D02*
X140231809Y-201414380D01*
X140327047Y-201366761D01*
X140374666Y-201319142D01*
X140469904Y-201176285D01*
X140517523Y-200985809D01*
X140517523Y-200604857D01*
X140469904Y-200509619D01*
X140422285Y-200462000D01*
X140327047Y-200414380D01*
X140136571Y-200414380D01*
X140041333Y-200462000D01*
X139993714Y-200509619D01*
X139946095Y-200604857D01*
X139946095Y-200842952D01*
X139993714Y-200938190D01*
X140041333Y-200985809D01*
X140136571Y-201033428D01*
X140327047Y-201033428D01*
X140422285Y-200985809D01*
X140469904Y-200938190D01*
X140517523Y-200842952D01*
X141422285Y-200414380D02*
X140946095Y-200414380D01*
X140898476Y-200890571D01*
X140946095Y-200842952D01*
X141041333Y-200795333D01*
X141279428Y-200795333D01*
X141374666Y-200842952D01*
X141422285Y-200890571D01*
X141469904Y-200985809D01*
X141469904Y-201223904D01*
X141422285Y-201319142D01*
X141374666Y-201366761D01*
X141279428Y-201414380D01*
X141041333Y-201414380D01*
X140946095Y-201366761D01*
X140898476Y-201319142D01*
X112720380Y-158249857D02*
X112244190Y-158583190D01*
X112720380Y-158821285D02*
X111720380Y-158821285D01*
X111720380Y-158440333D01*
X111768000Y-158345095D01*
X111815619Y-158297476D01*
X111910857Y-158249857D01*
X112053714Y-158249857D01*
X112148952Y-158297476D01*
X112196571Y-158345095D01*
X112244190Y-158440333D01*
X112244190Y-158821285D01*
X111815619Y-157868904D02*
X111768000Y-157821285D01*
X111720380Y-157726047D01*
X111720380Y-157487952D01*
X111768000Y-157392714D01*
X111815619Y-157345095D01*
X111910857Y-157297476D01*
X112006095Y-157297476D01*
X112148952Y-157345095D01*
X112720380Y-157916523D01*
X112720380Y-157297476D01*
X111720380Y-156964142D02*
X111720380Y-156345095D01*
X112101333Y-156678428D01*
X112101333Y-156535571D01*
X112148952Y-156440333D01*
X112196571Y-156392714D01*
X112291809Y-156345095D01*
X112529904Y-156345095D01*
X112625142Y-156392714D01*
X112672761Y-156440333D01*
X112720380Y-156535571D01*
X112720380Y-156821285D01*
X112672761Y-156916523D01*
X112625142Y-156964142D01*
X134564380Y-144914857D02*
X134088190Y-145248190D01*
X134564380Y-145486285D02*
X133564380Y-145486285D01*
X133564380Y-145105333D01*
X133612000Y-145010095D01*
X133659619Y-144962476D01*
X133754857Y-144914857D01*
X133897714Y-144914857D01*
X133992952Y-144962476D01*
X134040571Y-145010095D01*
X134088190Y-145105333D01*
X134088190Y-145486285D01*
X133564380Y-144057714D02*
X133564380Y-144248190D01*
X133612000Y-144343428D01*
X133659619Y-144391047D01*
X133802476Y-144486285D01*
X133992952Y-144533904D01*
X134373904Y-144533904D01*
X134469142Y-144486285D01*
X134516761Y-144438666D01*
X134564380Y-144343428D01*
X134564380Y-144152952D01*
X134516761Y-144057714D01*
X134469142Y-144010095D01*
X134373904Y-143962476D01*
X134135809Y-143962476D01*
X134040571Y-144010095D01*
X133992952Y-144057714D01*
X133945333Y-144152952D01*
X133945333Y-144343428D01*
X133992952Y-144438666D01*
X134040571Y-144486285D01*
X134135809Y-144533904D01*
X133564380Y-143057714D02*
X133564380Y-143533904D01*
X134040571Y-143581523D01*
X133992952Y-143533904D01*
X133945333Y-143438666D01*
X133945333Y-143200571D01*
X133992952Y-143105333D01*
X134040571Y-143057714D01*
X134135809Y-143010095D01*
X134373904Y-143010095D01*
X134469142Y-143057714D01*
X134516761Y-143105333D01*
X134564380Y-143200571D01*
X134564380Y-143438666D01*
X134516761Y-143533904D01*
X134469142Y-143581523D01*
X127230142Y-145645047D02*
X127277761Y-145692666D01*
X127325380Y-145835523D01*
X127325380Y-145930761D01*
X127277761Y-146073619D01*
X127182523Y-146168857D01*
X127087285Y-146216476D01*
X126896809Y-146264095D01*
X126753952Y-146264095D01*
X126563476Y-146216476D01*
X126468238Y-146168857D01*
X126373000Y-146073619D01*
X126325380Y-145930761D01*
X126325380Y-145835523D01*
X126373000Y-145692666D01*
X126420619Y-145645047D01*
X127325380Y-144692666D02*
X127325380Y-145264095D01*
X127325380Y-144978380D02*
X126325380Y-144978380D01*
X126468238Y-145073619D01*
X126563476Y-145168857D01*
X126611095Y-145264095D01*
X127325380Y-143740285D02*
X127325380Y-144311714D01*
X127325380Y-144026000D02*
X126325380Y-144026000D01*
X126468238Y-144121238D01*
X126563476Y-144216476D01*
X126611095Y-144311714D01*
X127325380Y-143264095D02*
X127325380Y-143073619D01*
X127277761Y-142978380D01*
X127230142Y-142930761D01*
X127087285Y-142835523D01*
X126896809Y-142787904D01*
X126515857Y-142787904D01*
X126420619Y-142835523D01*
X126373000Y-142883142D01*
X126325380Y-142978380D01*
X126325380Y-143168857D01*
X126373000Y-143264095D01*
X126420619Y-143311714D01*
X126515857Y-143359333D01*
X126753952Y-143359333D01*
X126849190Y-143311714D01*
X126896809Y-143264095D01*
X126944428Y-143168857D01*
X126944428Y-142978380D01*
X126896809Y-142883142D01*
X126849190Y-142835523D01*
X126753952Y-142787904D01*
X132818142Y-145772047D02*
X132865761Y-145819666D01*
X132913380Y-145962523D01*
X132913380Y-146057761D01*
X132865761Y-146200619D01*
X132770523Y-146295857D01*
X132675285Y-146343476D01*
X132484809Y-146391095D01*
X132341952Y-146391095D01*
X132151476Y-146343476D01*
X132056238Y-146295857D01*
X131961000Y-146200619D01*
X131913380Y-146057761D01*
X131913380Y-145962523D01*
X131961000Y-145819666D01*
X132008619Y-145772047D01*
X132913380Y-144819666D02*
X132913380Y-145391095D01*
X132913380Y-145105380D02*
X131913380Y-145105380D01*
X132056238Y-145200619D01*
X132151476Y-145295857D01*
X132199095Y-145391095D01*
X132913380Y-143867285D02*
X132913380Y-144438714D01*
X132913380Y-144153000D02*
X131913380Y-144153000D01*
X132056238Y-144248238D01*
X132151476Y-144343476D01*
X132199095Y-144438714D01*
X132341952Y-143295857D02*
X132294333Y-143391095D01*
X132246714Y-143438714D01*
X132151476Y-143486333D01*
X132103857Y-143486333D01*
X132008619Y-143438714D01*
X131961000Y-143391095D01*
X131913380Y-143295857D01*
X131913380Y-143105380D01*
X131961000Y-143010142D01*
X132008619Y-142962523D01*
X132103857Y-142914904D01*
X132151476Y-142914904D01*
X132246714Y-142962523D01*
X132294333Y-143010142D01*
X132341952Y-143105380D01*
X132341952Y-143295857D01*
X132389571Y-143391095D01*
X132437190Y-143438714D01*
X132532428Y-143486333D01*
X132722904Y-143486333D01*
X132818142Y-143438714D01*
X132865761Y-143391095D01*
X132913380Y-143295857D01*
X132913380Y-143105380D01*
X132865761Y-143010142D01*
X132818142Y-142962523D01*
X132722904Y-142914904D01*
X132532428Y-142914904D01*
X132437190Y-142962523D01*
X132389571Y-143010142D01*
X132341952Y-143105380D01*
X112371142Y-145010047D02*
X112418761Y-145057666D01*
X112466380Y-145200523D01*
X112466380Y-145295761D01*
X112418761Y-145438619D01*
X112323523Y-145533857D01*
X112228285Y-145581476D01*
X112037809Y-145629095D01*
X111894952Y-145629095D01*
X111704476Y-145581476D01*
X111609238Y-145533857D01*
X111514000Y-145438619D01*
X111466380Y-145295761D01*
X111466380Y-145200523D01*
X111514000Y-145057666D01*
X111561619Y-145010047D01*
X112466380Y-144057666D02*
X112466380Y-144629095D01*
X112466380Y-144343380D02*
X111466380Y-144343380D01*
X111609238Y-144438619D01*
X111704476Y-144533857D01*
X111752095Y-144629095D01*
X112466380Y-143105285D02*
X112466380Y-143676714D01*
X112466380Y-143391000D02*
X111466380Y-143391000D01*
X111609238Y-143486238D01*
X111704476Y-143581476D01*
X111752095Y-143676714D01*
X111466380Y-142771952D02*
X111466380Y-142105285D01*
X112466380Y-142533857D01*
X117832142Y-145518047D02*
X117879761Y-145565666D01*
X117927380Y-145708523D01*
X117927380Y-145803761D01*
X117879761Y-145946619D01*
X117784523Y-146041857D01*
X117689285Y-146089476D01*
X117498809Y-146137095D01*
X117355952Y-146137095D01*
X117165476Y-146089476D01*
X117070238Y-146041857D01*
X116975000Y-145946619D01*
X116927380Y-145803761D01*
X116927380Y-145708523D01*
X116975000Y-145565666D01*
X117022619Y-145518047D01*
X117927380Y-144565666D02*
X117927380Y-145137095D01*
X117927380Y-144851380D02*
X116927380Y-144851380D01*
X117070238Y-144946619D01*
X117165476Y-145041857D01*
X117213095Y-145137095D01*
X117927380Y-143613285D02*
X117927380Y-144184714D01*
X117927380Y-143899000D02*
X116927380Y-143899000D01*
X117070238Y-143994238D01*
X117165476Y-144089476D01*
X117213095Y-144184714D01*
X116927380Y-142756142D02*
X116927380Y-142946619D01*
X116975000Y-143041857D01*
X117022619Y-143089476D01*
X117165476Y-143184714D01*
X117355952Y-143232333D01*
X117736904Y-143232333D01*
X117832142Y-143184714D01*
X117879761Y-143137095D01*
X117927380Y-143041857D01*
X117927380Y-142851380D01*
X117879761Y-142756142D01*
X117832142Y-142708523D01*
X117736904Y-142660904D01*
X117498809Y-142660904D01*
X117403571Y-142708523D01*
X117355952Y-142756142D01*
X117308333Y-142851380D01*
X117308333Y-143041857D01*
X117355952Y-143137095D01*
X117403571Y-143184714D01*
X117498809Y-143232333D01*
X121435952Y-143138142D02*
X121388333Y-143185761D01*
X121245476Y-143233380D01*
X121150238Y-143233380D01*
X121007380Y-143185761D01*
X120912142Y-143090523D01*
X120864523Y-142995285D01*
X120816904Y-142804809D01*
X120816904Y-142661952D01*
X120864523Y-142471476D01*
X120912142Y-142376238D01*
X121007380Y-142281000D01*
X121150238Y-142233380D01*
X121245476Y-142233380D01*
X121388333Y-142281000D01*
X121435952Y-142328619D01*
X122388333Y-143233380D02*
X121816904Y-143233380D01*
X122102619Y-143233380D02*
X122102619Y-142233380D01*
X122007380Y-142376238D01*
X121912142Y-142471476D01*
X121816904Y-142519095D01*
X123340714Y-143233380D02*
X122769285Y-143233380D01*
X123055000Y-143233380D02*
X123055000Y-142233380D01*
X122959761Y-142376238D01*
X122864523Y-142471476D01*
X122769285Y-142519095D01*
X124197857Y-142566714D02*
X124197857Y-143233380D01*
X123959761Y-142185761D02*
X123721666Y-142900047D01*
X124340714Y-142900047D01*
X103020952Y-141962142D02*
X102973333Y-142009761D01*
X102830476Y-142057380D01*
X102735238Y-142057380D01*
X102592380Y-142009761D01*
X102497142Y-141914523D01*
X102449523Y-141819285D01*
X102401904Y-141628809D01*
X102401904Y-141485952D01*
X102449523Y-141295476D01*
X102497142Y-141200238D01*
X102592380Y-141105000D01*
X102735238Y-141057380D01*
X102830476Y-141057380D01*
X102973333Y-141105000D01*
X103020952Y-141152619D01*
X103973333Y-142057380D02*
X103401904Y-142057380D01*
X103687619Y-142057380D02*
X103687619Y-141057380D01*
X103592380Y-141200238D01*
X103497142Y-141295476D01*
X103401904Y-141343095D01*
X104592380Y-141057380D02*
X104687619Y-141057380D01*
X104782857Y-141105000D01*
X104830476Y-141152619D01*
X104878095Y-141247857D01*
X104925714Y-141438333D01*
X104925714Y-141676428D01*
X104878095Y-141866904D01*
X104830476Y-141962142D01*
X104782857Y-142009761D01*
X104687619Y-142057380D01*
X104592380Y-142057380D01*
X104497142Y-142009761D01*
X104449523Y-141962142D01*
X104401904Y-141866904D01*
X104354285Y-141676428D01*
X104354285Y-141438333D01*
X104401904Y-141247857D01*
X104449523Y-141152619D01*
X104497142Y-141105000D01*
X104592380Y-141057380D01*
X105782857Y-141390714D02*
X105782857Y-142057380D01*
X105544761Y-141009761D02*
X105306666Y-141724047D01*
X105925714Y-141724047D01*
X185169632Y-122532622D02*
X185122013Y-122580241D01*
X184979156Y-122627860D01*
X184883918Y-122627860D01*
X184741060Y-122580241D01*
X184645822Y-122485003D01*
X184598203Y-122389765D01*
X184550584Y-122199289D01*
X184550584Y-122056432D01*
X184598203Y-121865956D01*
X184645822Y-121770718D01*
X184741060Y-121675480D01*
X184883918Y-121627860D01*
X184979156Y-121627860D01*
X185122013Y-121675480D01*
X185169632Y-121723099D01*
X186122013Y-122627860D02*
X185550584Y-122627860D01*
X185836299Y-122627860D02*
X185836299Y-121627860D01*
X185741060Y-121770718D01*
X185645822Y-121865956D01*
X185550584Y-121913575D01*
X186455346Y-121627860D02*
X187074394Y-121627860D01*
X186741060Y-122008813D01*
X186883918Y-122008813D01*
X186979156Y-122056432D01*
X187026775Y-122104051D01*
X187074394Y-122199289D01*
X187074394Y-122437384D01*
X187026775Y-122532622D01*
X186979156Y-122580241D01*
X186883918Y-122627860D01*
X186598203Y-122627860D01*
X186502965Y-122580241D01*
X186455346Y-122532622D01*
X187455346Y-121723099D02*
X187502965Y-121675480D01*
X187598203Y-121627860D01*
X187836299Y-121627860D01*
X187931537Y-121675480D01*
X187979156Y-121723099D01*
X188026775Y-121818337D01*
X188026775Y-121913575D01*
X187979156Y-122056432D01*
X187407727Y-122627860D01*
X188026775Y-122627860D01*
X108196142Y-177268142D02*
X108148523Y-177315761D01*
X108005666Y-177363380D01*
X107910428Y-177363380D01*
X107767571Y-177315761D01*
X107672333Y-177220523D01*
X107624714Y-177125285D01*
X107577095Y-176934809D01*
X107577095Y-176791952D01*
X107624714Y-176601476D01*
X107672333Y-176506238D01*
X107767571Y-176411000D01*
X107910428Y-176363380D01*
X108005666Y-176363380D01*
X108148523Y-176411000D01*
X108196142Y-176458619D01*
X109100904Y-176363380D02*
X108624714Y-176363380D01*
X108577095Y-176839571D01*
X108624714Y-176791952D01*
X108719952Y-176744333D01*
X108958047Y-176744333D01*
X109053285Y-176791952D01*
X109100904Y-176839571D01*
X109148523Y-176934809D01*
X109148523Y-177172904D01*
X109100904Y-177268142D01*
X109053285Y-177315761D01*
X108958047Y-177363380D01*
X108719952Y-177363380D01*
X108624714Y-177315761D01*
X108577095Y-177268142D01*
X110005666Y-176696714D02*
X110005666Y-177363380D01*
X109767571Y-176315761D02*
X109529476Y-177030047D01*
X110148523Y-177030047D01*
X123288822Y-175817822D02*
X123241203Y-175865441D01*
X123098346Y-175913060D01*
X123003108Y-175913060D01*
X122860251Y-175865441D01*
X122765013Y-175770203D01*
X122717394Y-175674965D01*
X122669775Y-175484489D01*
X122669775Y-175341632D01*
X122717394Y-175151156D01*
X122765013Y-175055918D01*
X122860251Y-174960680D01*
X123003108Y-174913060D01*
X123098346Y-174913060D01*
X123241203Y-174960680D01*
X123288822Y-175008299D01*
X124193584Y-174913060D02*
X123717394Y-174913060D01*
X123669775Y-175389251D01*
X123717394Y-175341632D01*
X123812632Y-175294013D01*
X124050727Y-175294013D01*
X124145965Y-175341632D01*
X124193584Y-175389251D01*
X124241203Y-175484489D01*
X124241203Y-175722584D01*
X124193584Y-175817822D01*
X124145965Y-175865441D01*
X124050727Y-175913060D01*
X123812632Y-175913060D01*
X123717394Y-175865441D01*
X123669775Y-175817822D01*
X124622156Y-175008299D02*
X124669775Y-174960680D01*
X124765013Y-174913060D01*
X125003108Y-174913060D01*
X125098346Y-174960680D01*
X125145965Y-175008299D01*
X125193584Y-175103537D01*
X125193584Y-175198775D01*
X125145965Y-175341632D01*
X124574537Y-175913060D01*
X125193584Y-175913060D01*
X133059462Y-178102497D02*
X133107081Y-178150116D01*
X133154700Y-178292973D01*
X133154700Y-178388211D01*
X133107081Y-178531068D01*
X133011843Y-178626306D01*
X132916605Y-178673925D01*
X132726129Y-178721544D01*
X132583272Y-178721544D01*
X132392796Y-178673925D01*
X132297558Y-178626306D01*
X132202320Y-178531068D01*
X132154700Y-178388211D01*
X132154700Y-178292973D01*
X132202320Y-178150116D01*
X132249939Y-178102497D01*
X132154700Y-177769163D02*
X132154700Y-177150116D01*
X132535653Y-177483449D01*
X132535653Y-177340592D01*
X132583272Y-177245354D01*
X132630891Y-177197735D01*
X132726129Y-177150116D01*
X132964224Y-177150116D01*
X133059462Y-177197735D01*
X133107081Y-177245354D01*
X133154700Y-177340592D01*
X133154700Y-177626306D01*
X133107081Y-177721544D01*
X133059462Y-177769163D01*
X132488034Y-176292973D02*
X133154700Y-176292973D01*
X132107081Y-176531068D02*
X132821367Y-176769163D01*
X132821367Y-176150116D01*
X134469142Y-198254857D02*
X134516761Y-198302476D01*
X134564380Y-198445333D01*
X134564380Y-198540571D01*
X134516761Y-198683428D01*
X134421523Y-198778666D01*
X134326285Y-198826285D01*
X134135809Y-198873904D01*
X133992952Y-198873904D01*
X133802476Y-198826285D01*
X133707238Y-198778666D01*
X133612000Y-198683428D01*
X133564380Y-198540571D01*
X133564380Y-198445333D01*
X133612000Y-198302476D01*
X133659619Y-198254857D01*
X133564380Y-197921523D02*
X133564380Y-197302476D01*
X133945333Y-197635809D01*
X133945333Y-197492952D01*
X133992952Y-197397714D01*
X134040571Y-197350095D01*
X134135809Y-197302476D01*
X134373904Y-197302476D01*
X134469142Y-197350095D01*
X134516761Y-197397714D01*
X134564380Y-197492952D01*
X134564380Y-197778666D01*
X134516761Y-197873904D01*
X134469142Y-197921523D01*
X133564380Y-196969142D02*
X133564380Y-196350095D01*
X133945333Y-196683428D01*
X133945333Y-196540571D01*
X133992952Y-196445333D01*
X134040571Y-196397714D01*
X134135809Y-196350095D01*
X134373904Y-196350095D01*
X134469142Y-196397714D01*
X134516761Y-196445333D01*
X134564380Y-196540571D01*
X134564380Y-196826285D01*
X134516761Y-196921523D01*
X134469142Y-196969142D01*
X136755142Y-198127857D02*
X136802761Y-198175476D01*
X136850380Y-198318333D01*
X136850380Y-198413571D01*
X136802761Y-198556428D01*
X136707523Y-198651666D01*
X136612285Y-198699285D01*
X136421809Y-198746904D01*
X136278952Y-198746904D01*
X136088476Y-198699285D01*
X135993238Y-198651666D01*
X135898000Y-198556428D01*
X135850380Y-198413571D01*
X135850380Y-198318333D01*
X135898000Y-198175476D01*
X135945619Y-198127857D01*
X135945619Y-197746904D02*
X135898000Y-197699285D01*
X135850380Y-197604047D01*
X135850380Y-197365952D01*
X135898000Y-197270714D01*
X135945619Y-197223095D01*
X136040857Y-197175476D01*
X136136095Y-197175476D01*
X136278952Y-197223095D01*
X136850380Y-197794523D01*
X136850380Y-197175476D01*
X136278952Y-196604047D02*
X136231333Y-196699285D01*
X136183714Y-196746904D01*
X136088476Y-196794523D01*
X136040857Y-196794523D01*
X135945619Y-196746904D01*
X135898000Y-196699285D01*
X135850380Y-196604047D01*
X135850380Y-196413571D01*
X135898000Y-196318333D01*
X135945619Y-196270714D01*
X136040857Y-196223095D01*
X136088476Y-196223095D01*
X136183714Y-196270714D01*
X136231333Y-196318333D01*
X136278952Y-196413571D01*
X136278952Y-196604047D01*
X136326571Y-196699285D01*
X136374190Y-196746904D01*
X136469428Y-196794523D01*
X136659904Y-196794523D01*
X136755142Y-196746904D01*
X136802761Y-196699285D01*
X136850380Y-196604047D01*
X136850380Y-196413571D01*
X136802761Y-196318333D01*
X136755142Y-196270714D01*
X136659904Y-196223095D01*
X136469428Y-196223095D01*
X136374190Y-196270714D01*
X136326571Y-196318333D01*
X136278952Y-196413571D01*
X138660142Y-178061857D02*
X138707761Y-178109476D01*
X138755380Y-178252333D01*
X138755380Y-178347571D01*
X138707761Y-178490428D01*
X138612523Y-178585666D01*
X138517285Y-178633285D01*
X138326809Y-178680904D01*
X138183952Y-178680904D01*
X137993476Y-178633285D01*
X137898238Y-178585666D01*
X137803000Y-178490428D01*
X137755380Y-178347571D01*
X137755380Y-178252333D01*
X137803000Y-178109476D01*
X137850619Y-178061857D01*
X137850619Y-177680904D02*
X137803000Y-177633285D01*
X137755380Y-177538047D01*
X137755380Y-177299952D01*
X137803000Y-177204714D01*
X137850619Y-177157095D01*
X137945857Y-177109476D01*
X138041095Y-177109476D01*
X138183952Y-177157095D01*
X138755380Y-177728523D01*
X138755380Y-177109476D01*
X137755380Y-176776142D02*
X137755380Y-176109476D01*
X138755380Y-176538047D01*
X122801142Y-146375380D02*
X122467809Y-145899190D01*
X122229714Y-146375380D02*
X122229714Y-145375380D01*
X122610666Y-145375380D01*
X122705904Y-145423000D01*
X122753523Y-145470619D01*
X122801142Y-145565857D01*
X122801142Y-145708714D01*
X122753523Y-145803952D01*
X122705904Y-145851571D01*
X122610666Y-145899190D01*
X122229714Y-145899190D01*
X123134476Y-145375380D02*
X123753523Y-145375380D01*
X123420190Y-145756333D01*
X123563047Y-145756333D01*
X123658285Y-145803952D01*
X123705904Y-145851571D01*
X123753523Y-145946809D01*
X123753523Y-146184904D01*
X123705904Y-146280142D01*
X123658285Y-146327761D01*
X123563047Y-146375380D01*
X123277333Y-146375380D01*
X123182095Y-146327761D01*
X123134476Y-146280142D01*
X124229714Y-146375380D02*
X124420190Y-146375380D01*
X124515428Y-146327761D01*
X124563047Y-146280142D01*
X124658285Y-146137285D01*
X124705904Y-145946809D01*
X124705904Y-145565857D01*
X124658285Y-145470619D01*
X124610666Y-145423000D01*
X124515428Y-145375380D01*
X124324952Y-145375380D01*
X124229714Y-145423000D01*
X124182095Y-145470619D01*
X124134476Y-145565857D01*
X124134476Y-145803952D01*
X124182095Y-145899190D01*
X124229714Y-145946809D01*
X124324952Y-145994428D01*
X124515428Y-145994428D01*
X124610666Y-145946809D01*
X124658285Y-145899190D01*
X124705904Y-145803952D01*
X114779822Y-151521420D02*
X114446489Y-151045230D01*
X114208394Y-151521420D02*
X114208394Y-150521420D01*
X114589346Y-150521420D01*
X114684584Y-150569040D01*
X114732203Y-150616659D01*
X114779822Y-150711897D01*
X114779822Y-150854754D01*
X114732203Y-150949992D01*
X114684584Y-150997611D01*
X114589346Y-151045230D01*
X114208394Y-151045230D01*
X115113156Y-150521420D02*
X115732203Y-150521420D01*
X115398870Y-150902373D01*
X115541727Y-150902373D01*
X115636965Y-150949992D01*
X115684584Y-150997611D01*
X115732203Y-151092849D01*
X115732203Y-151330944D01*
X115684584Y-151426182D01*
X115636965Y-151473801D01*
X115541727Y-151521420D01*
X115256013Y-151521420D01*
X115160775Y-151473801D01*
X115113156Y-151426182D01*
X116303632Y-150949992D02*
X116208394Y-150902373D01*
X116160775Y-150854754D01*
X116113156Y-150759516D01*
X116113156Y-150711897D01*
X116160775Y-150616659D01*
X116208394Y-150569040D01*
X116303632Y-150521420D01*
X116494108Y-150521420D01*
X116589346Y-150569040D01*
X116636965Y-150616659D01*
X116684584Y-150711897D01*
X116684584Y-150759516D01*
X116636965Y-150854754D01*
X116589346Y-150902373D01*
X116494108Y-150949992D01*
X116303632Y-150949992D01*
X116208394Y-150997611D01*
X116160775Y-151045230D01*
X116113156Y-151140468D01*
X116113156Y-151330944D01*
X116160775Y-151426182D01*
X116208394Y-151473801D01*
X116303632Y-151521420D01*
X116494108Y-151521420D01*
X116589346Y-151473801D01*
X116636965Y-151426182D01*
X116684584Y-151330944D01*
X116684584Y-151140468D01*
X116636965Y-151045230D01*
X116589346Y-150997611D01*
X116494108Y-150949992D01*
X116425742Y-149565620D02*
X116092409Y-149089430D01*
X115854314Y-149565620D02*
X115854314Y-148565620D01*
X116235266Y-148565620D01*
X116330504Y-148613240D01*
X116378123Y-148660859D01*
X116425742Y-148756097D01*
X116425742Y-148898954D01*
X116378123Y-148994192D01*
X116330504Y-149041811D01*
X116235266Y-149089430D01*
X115854314Y-149089430D01*
X116759076Y-148565620D02*
X117378123Y-148565620D01*
X117044790Y-148946573D01*
X117187647Y-148946573D01*
X117282885Y-148994192D01*
X117330504Y-149041811D01*
X117378123Y-149137049D01*
X117378123Y-149375144D01*
X117330504Y-149470382D01*
X117282885Y-149518001D01*
X117187647Y-149565620D01*
X116901933Y-149565620D01*
X116806695Y-149518001D01*
X116759076Y-149470382D01*
X117711457Y-148565620D02*
X118378123Y-148565620D01*
X117949552Y-149565620D01*
X143708380Y-169838666D02*
X143232190Y-170172000D01*
X143708380Y-170410095D02*
X142708380Y-170410095D01*
X142708380Y-170029142D01*
X142756000Y-169933904D01*
X142803619Y-169886285D01*
X142898857Y-169838666D01*
X143041714Y-169838666D01*
X143136952Y-169886285D01*
X143184571Y-169933904D01*
X143232190Y-170029142D01*
X143232190Y-170410095D01*
X142708380Y-168933904D02*
X142708380Y-169410095D01*
X143184571Y-169457714D01*
X143136952Y-169410095D01*
X143089333Y-169314857D01*
X143089333Y-169076761D01*
X143136952Y-168981523D01*
X143184571Y-168933904D01*
X143279809Y-168886285D01*
X143517904Y-168886285D01*
X143613142Y-168933904D01*
X143660761Y-168981523D01*
X143708380Y-169076761D01*
X143708380Y-169314857D01*
X143660761Y-169410095D01*
X143613142Y-169457714D01*
X151193780Y-151093466D02*
X150717590Y-151426800D01*
X151193780Y-151664895D02*
X150193780Y-151664895D01*
X150193780Y-151283942D01*
X150241400Y-151188704D01*
X150289019Y-151141085D01*
X150384257Y-151093466D01*
X150527114Y-151093466D01*
X150622352Y-151141085D01*
X150669971Y-151188704D01*
X150717590Y-151283942D01*
X150717590Y-151664895D01*
X150193780Y-150760133D02*
X150193780Y-150141085D01*
X150574733Y-150474419D01*
X150574733Y-150331561D01*
X150622352Y-150236323D01*
X150669971Y-150188704D01*
X150765209Y-150141085D01*
X151003304Y-150141085D01*
X151098542Y-150188704D01*
X151146161Y-150236323D01*
X151193780Y-150331561D01*
X151193780Y-150617276D01*
X151146161Y-150712514D01*
X151098542Y-150760133D01*
X129299673Y-165102780D02*
X128966340Y-164626590D01*
X128728244Y-165102780D02*
X128728244Y-164102780D01*
X129109197Y-164102780D01*
X129204435Y-164150400D01*
X129252054Y-164198019D01*
X129299673Y-164293257D01*
X129299673Y-164436114D01*
X129252054Y-164531352D01*
X129204435Y-164578971D01*
X129109197Y-164626590D01*
X128728244Y-164626590D01*
X129680625Y-164198019D02*
X129728244Y-164150400D01*
X129823482Y-164102780D01*
X130061578Y-164102780D01*
X130156816Y-164150400D01*
X130204435Y-164198019D01*
X130252054Y-164293257D01*
X130252054Y-164388495D01*
X130204435Y-164531352D01*
X129633006Y-165102780D01*
X130252054Y-165102780D01*
X116056702Y-153896297D02*
X116104321Y-153943916D01*
X116151940Y-154086773D01*
X116151940Y-154182011D01*
X116104321Y-154324868D01*
X116009083Y-154420106D01*
X115913845Y-154467725D01*
X115723369Y-154515344D01*
X115580512Y-154515344D01*
X115390036Y-154467725D01*
X115294798Y-154420106D01*
X115199560Y-154324868D01*
X115151940Y-154182011D01*
X115151940Y-154086773D01*
X115199560Y-153943916D01*
X115247179Y-153896297D01*
X115151940Y-153562963D02*
X115151940Y-152943916D01*
X115532893Y-153277249D01*
X115532893Y-153134392D01*
X115580512Y-153039154D01*
X115628131Y-152991535D01*
X115723369Y-152943916D01*
X115961464Y-152943916D01*
X116056702Y-152991535D01*
X116104321Y-153039154D01*
X116151940Y-153134392D01*
X116151940Y-153420106D01*
X116104321Y-153515344D01*
X116056702Y-153562963D01*
X115151940Y-152086773D02*
X115151940Y-152277249D01*
X115199560Y-152372487D01*
X115247179Y-152420106D01*
X115390036Y-152515344D01*
X115580512Y-152562963D01*
X115961464Y-152562963D01*
X116056702Y-152515344D01*
X116104321Y-152467725D01*
X116151940Y-152372487D01*
X116151940Y-152182011D01*
X116104321Y-152086773D01*
X116056702Y-152039154D01*
X115961464Y-151991535D01*
X115723369Y-151991535D01*
X115628131Y-152039154D01*
X115580512Y-152086773D01*
X115532893Y-152182011D01*
X115532893Y-152372487D01*
X115580512Y-152467725D01*
X115628131Y-152515344D01*
X115723369Y-152562963D01*
X146983200Y-186715304D02*
X147792724Y-186715304D01*
X147887962Y-186667685D01*
X147935581Y-186620066D01*
X147983200Y-186524828D01*
X147983200Y-186334352D01*
X147935581Y-186239114D01*
X147887962Y-186191495D01*
X147792724Y-186143876D01*
X146983200Y-186143876D01*
X147316534Y-185239114D02*
X147983200Y-185239114D01*
X146935581Y-185477209D02*
X147649867Y-185715304D01*
X147649867Y-185096257D01*
X131825280Y-190957200D02*
X132063376Y-190957200D01*
X131968138Y-191195295D02*
X132063376Y-190957200D01*
X131968138Y-190719104D01*
X132253852Y-191100057D02*
X132063376Y-190957200D01*
X132253852Y-190814342D01*
X131825280Y-190957200D02*
X132063376Y-190957200D01*
X131968138Y-191195295D02*
X132063376Y-190957200D01*
X131968138Y-190719104D01*
X132253852Y-191100057D02*
X132063376Y-190957200D01*
X132253852Y-190814342D01*
X173829742Y-127920142D02*
X173782123Y-127967761D01*
X173639266Y-128015380D01*
X173544028Y-128015380D01*
X173401171Y-127967761D01*
X173305933Y-127872523D01*
X173258314Y-127777285D01*
X173210695Y-127586809D01*
X173210695Y-127443952D01*
X173258314Y-127253476D01*
X173305933Y-127158238D01*
X173401171Y-127063000D01*
X173544028Y-127015380D01*
X173639266Y-127015380D01*
X173782123Y-127063000D01*
X173829742Y-127110619D01*
X174782123Y-128015380D02*
X174210695Y-128015380D01*
X174496409Y-128015380D02*
X174496409Y-127015380D01*
X174401171Y-127158238D01*
X174305933Y-127253476D01*
X174210695Y-127301095D01*
X175639266Y-127015380D02*
X175448790Y-127015380D01*
X175353552Y-127063000D01*
X175305933Y-127110619D01*
X175210695Y-127253476D01*
X175163076Y-127443952D01*
X175163076Y-127824904D01*
X175210695Y-127920142D01*
X175258314Y-127967761D01*
X175353552Y-128015380D01*
X175544028Y-128015380D01*
X175639266Y-127967761D01*
X175686885Y-127920142D01*
X175734504Y-127824904D01*
X175734504Y-127586809D01*
X175686885Y-127491571D01*
X175639266Y-127443952D01*
X175544028Y-127396333D01*
X175353552Y-127396333D01*
X175258314Y-127443952D01*
X175210695Y-127491571D01*
X175163076Y-127586809D01*
X184589680Y-148305757D02*
X184113490Y-148639090D01*
X184589680Y-148877185D02*
X183589680Y-148877185D01*
X183589680Y-148496233D01*
X183637300Y-148400995D01*
X183684919Y-148353376D01*
X183780157Y-148305757D01*
X183923014Y-148305757D01*
X184018252Y-148353376D01*
X184065871Y-148400995D01*
X184113490Y-148496233D01*
X184113490Y-148877185D01*
X183589680Y-147400995D02*
X183589680Y-147877185D01*
X184065871Y-147924804D01*
X184018252Y-147877185D01*
X183970633Y-147781947D01*
X183970633Y-147543852D01*
X184018252Y-147448614D01*
X184065871Y-147400995D01*
X184161109Y-147353376D01*
X184399204Y-147353376D01*
X184494442Y-147400995D01*
X184542061Y-147448614D01*
X184589680Y-147543852D01*
X184589680Y-147781947D01*
X184542061Y-147877185D01*
X184494442Y-147924804D01*
X183589680Y-146734328D02*
X183589680Y-146639090D01*
X183637300Y-146543852D01*
X183684919Y-146496233D01*
X183780157Y-146448614D01*
X183970633Y-146400995D01*
X184208728Y-146400995D01*
X184399204Y-146448614D01*
X184494442Y-146496233D01*
X184542061Y-146543852D01*
X184589680Y-146639090D01*
X184589680Y-146734328D01*
X184542061Y-146829566D01*
X184494442Y-146877185D01*
X184399204Y-146924804D01*
X184208728Y-146972423D01*
X183970633Y-146972423D01*
X183780157Y-146924804D01*
X183684919Y-146877185D01*
X183637300Y-146829566D01*
X183589680Y-146734328D01*
X182837080Y-148547057D02*
X182360890Y-148880390D01*
X182837080Y-149118485D02*
X181837080Y-149118485D01*
X181837080Y-148737533D01*
X181884700Y-148642295D01*
X181932319Y-148594676D01*
X182027557Y-148547057D01*
X182170414Y-148547057D01*
X182265652Y-148594676D01*
X182313271Y-148642295D01*
X182360890Y-148737533D01*
X182360890Y-149118485D01*
X182170414Y-147689914D02*
X182837080Y-147689914D01*
X181789461Y-147928009D02*
X182503747Y-148166104D01*
X182503747Y-147547057D01*
X182265652Y-147023247D02*
X182218033Y-147118485D01*
X182170414Y-147166104D01*
X182075176Y-147213723D01*
X182027557Y-147213723D01*
X181932319Y-147166104D01*
X181884700Y-147118485D01*
X181837080Y-147023247D01*
X181837080Y-146832771D01*
X181884700Y-146737533D01*
X181932319Y-146689914D01*
X182027557Y-146642295D01*
X182075176Y-146642295D01*
X182170414Y-146689914D01*
X182218033Y-146737533D01*
X182265652Y-146832771D01*
X182265652Y-147023247D01*
X182313271Y-147118485D01*
X182360890Y-147166104D01*
X182456128Y-147213723D01*
X182646604Y-147213723D01*
X182741842Y-147166104D01*
X182789461Y-147118485D01*
X182837080Y-147023247D01*
X182837080Y-146832771D01*
X182789461Y-146737533D01*
X182741842Y-146689914D01*
X182646604Y-146642295D01*
X182456128Y-146642295D01*
X182360890Y-146689914D01*
X182313271Y-146737533D01*
X182265652Y-146832771D01*
X186418480Y-157830757D02*
X185942290Y-158164090D01*
X186418480Y-158402185D02*
X185418480Y-158402185D01*
X185418480Y-158021233D01*
X185466100Y-157925995D01*
X185513719Y-157878376D01*
X185608957Y-157830757D01*
X185751814Y-157830757D01*
X185847052Y-157878376D01*
X185894671Y-157925995D01*
X185942290Y-158021233D01*
X185942290Y-158402185D01*
X185751814Y-156973614D02*
X186418480Y-156973614D01*
X185370861Y-157211709D02*
X186085147Y-157449804D01*
X186085147Y-156830757D01*
X185418480Y-155973614D02*
X185418480Y-156449804D01*
X185894671Y-156497423D01*
X185847052Y-156449804D01*
X185799433Y-156354566D01*
X185799433Y-156116471D01*
X185847052Y-156021233D01*
X185894671Y-155973614D01*
X185989909Y-155925995D01*
X186228004Y-155925995D01*
X186323242Y-155973614D01*
X186370861Y-156021233D01*
X186418480Y-156116471D01*
X186418480Y-156354566D01*
X186370861Y-156449804D01*
X186323242Y-156497423D01*
X181363880Y-148458157D02*
X180887690Y-148791490D01*
X181363880Y-149029585D02*
X180363880Y-149029585D01*
X180363880Y-148648633D01*
X180411500Y-148553395D01*
X180459119Y-148505776D01*
X180554357Y-148458157D01*
X180697214Y-148458157D01*
X180792452Y-148505776D01*
X180840071Y-148553395D01*
X180887690Y-148648633D01*
X180887690Y-149029585D01*
X180697214Y-147601014D02*
X181363880Y-147601014D01*
X180316261Y-147839109D02*
X181030547Y-148077204D01*
X181030547Y-147458157D01*
X180363880Y-147172442D02*
X180363880Y-146553395D01*
X180744833Y-146886728D01*
X180744833Y-146743871D01*
X180792452Y-146648633D01*
X180840071Y-146601014D01*
X180935309Y-146553395D01*
X181173404Y-146553395D01*
X181268642Y-146601014D01*
X181316261Y-146648633D01*
X181363880Y-146743871D01*
X181363880Y-147029585D01*
X181316261Y-147124823D01*
X181268642Y-147172442D01*
X175864780Y-149270957D02*
X175388590Y-149604290D01*
X175864780Y-149842385D02*
X174864780Y-149842385D01*
X174864780Y-149461433D01*
X174912400Y-149366195D01*
X174960019Y-149318576D01*
X175055257Y-149270957D01*
X175198114Y-149270957D01*
X175293352Y-149318576D01*
X175340971Y-149366195D01*
X175388590Y-149461433D01*
X175388590Y-149842385D01*
X175864780Y-148318576D02*
X175864780Y-148890004D01*
X175864780Y-148604290D02*
X174864780Y-148604290D01*
X175007638Y-148699528D01*
X175102876Y-148794766D01*
X175150495Y-148890004D01*
X175864780Y-147366195D02*
X175864780Y-147937623D01*
X175864780Y-147651909D02*
X174864780Y-147651909D01*
X175007638Y-147747147D01*
X175102876Y-147842385D01*
X175150495Y-147937623D01*
X177426880Y-149334457D02*
X176950690Y-149667790D01*
X177426880Y-149905885D02*
X176426880Y-149905885D01*
X176426880Y-149524933D01*
X176474500Y-149429695D01*
X176522119Y-149382076D01*
X176617357Y-149334457D01*
X176760214Y-149334457D01*
X176855452Y-149382076D01*
X176903071Y-149429695D01*
X176950690Y-149524933D01*
X176950690Y-149905885D01*
X177426880Y-148382076D02*
X177426880Y-148953504D01*
X177426880Y-148667790D02*
X176426880Y-148667790D01*
X176569738Y-148763028D01*
X176664976Y-148858266D01*
X176712595Y-148953504D01*
X176426880Y-147763028D02*
X176426880Y-147667790D01*
X176474500Y-147572552D01*
X176522119Y-147524933D01*
X176617357Y-147477314D01*
X176807833Y-147429695D01*
X177045928Y-147429695D01*
X177236404Y-147477314D01*
X177331642Y-147524933D01*
X177379261Y-147572552D01*
X177426880Y-147667790D01*
X177426880Y-147763028D01*
X177379261Y-147858266D01*
X177331642Y-147905885D01*
X177236404Y-147953504D01*
X177045928Y-148001123D01*
X176807833Y-148001123D01*
X176617357Y-147953504D01*
X176522119Y-147905885D01*
X176474500Y-147858266D01*
X176426880Y-147763028D01*
X173934380Y-140247666D02*
X173458190Y-140581000D01*
X173934380Y-140819095D02*
X172934380Y-140819095D01*
X172934380Y-140438142D01*
X172982000Y-140342904D01*
X173029619Y-140295285D01*
X173124857Y-140247666D01*
X173267714Y-140247666D01*
X173362952Y-140295285D01*
X173410571Y-140342904D01*
X173458190Y-140438142D01*
X173458190Y-140819095D01*
X173362952Y-139676238D02*
X173315333Y-139771476D01*
X173267714Y-139819095D01*
X173172476Y-139866714D01*
X173124857Y-139866714D01*
X173029619Y-139819095D01*
X172982000Y-139771476D01*
X172934380Y-139676238D01*
X172934380Y-139485761D01*
X172982000Y-139390523D01*
X173029619Y-139342904D01*
X173124857Y-139295285D01*
X173172476Y-139295285D01*
X173267714Y-139342904D01*
X173315333Y-139390523D01*
X173362952Y-139485761D01*
X173362952Y-139676238D01*
X173410571Y-139771476D01*
X173458190Y-139819095D01*
X173553428Y-139866714D01*
X173743904Y-139866714D01*
X173839142Y-139819095D01*
X173886761Y-139771476D01*
X173934380Y-139676238D01*
X173934380Y-139485761D01*
X173886761Y-139390523D01*
X173839142Y-139342904D01*
X173743904Y-139295285D01*
X173553428Y-139295285D01*
X173458190Y-139342904D01*
X173410571Y-139390523D01*
X173362952Y-139485761D01*
X179179480Y-148858266D02*
X178703290Y-149191600D01*
X179179480Y-149429695D02*
X178179480Y-149429695D01*
X178179480Y-149048742D01*
X178227100Y-148953504D01*
X178274719Y-148905885D01*
X178369957Y-148858266D01*
X178512814Y-148858266D01*
X178608052Y-148905885D01*
X178655671Y-148953504D01*
X178703290Y-149048742D01*
X178703290Y-149429695D01*
X178179480Y-148524933D02*
X178179480Y-147858266D01*
X179179480Y-148286838D01*
X170664142Y-143136857D02*
X170711761Y-143184476D01*
X170759380Y-143327333D01*
X170759380Y-143422571D01*
X170711761Y-143565428D01*
X170616523Y-143660666D01*
X170521285Y-143708285D01*
X170330809Y-143755904D01*
X170187952Y-143755904D01*
X169997476Y-143708285D01*
X169902238Y-143660666D01*
X169807000Y-143565428D01*
X169759380Y-143422571D01*
X169759380Y-143327333D01*
X169807000Y-143184476D01*
X169854619Y-143136857D01*
X170759380Y-142660666D02*
X170759380Y-142470190D01*
X170711761Y-142374952D01*
X170664142Y-142327333D01*
X170521285Y-142232095D01*
X170330809Y-142184476D01*
X169949857Y-142184476D01*
X169854619Y-142232095D01*
X169807000Y-142279714D01*
X169759380Y-142374952D01*
X169759380Y-142565428D01*
X169807000Y-142660666D01*
X169854619Y-142708285D01*
X169949857Y-142755904D01*
X170187952Y-142755904D01*
X170283190Y-142708285D01*
X170330809Y-142660666D01*
X170378428Y-142565428D01*
X170378428Y-142374952D01*
X170330809Y-142279714D01*
X170283190Y-142232095D01*
X170187952Y-142184476D01*
X170759380Y-141708285D02*
X170759380Y-141517809D01*
X170711761Y-141422571D01*
X170664142Y-141374952D01*
X170521285Y-141279714D01*
X170330809Y-141232095D01*
X169949857Y-141232095D01*
X169854619Y-141279714D01*
X169807000Y-141327333D01*
X169759380Y-141422571D01*
X169759380Y-141613047D01*
X169807000Y-141708285D01*
X169854619Y-141755904D01*
X169949857Y-141803523D01*
X170187952Y-141803523D01*
X170283190Y-141755904D01*
X170330809Y-141708285D01*
X170378428Y-141613047D01*
X170378428Y-141422571D01*
X170330809Y-141327333D01*
X170283190Y-141279714D01*
X170187952Y-141232095D01*
X188139342Y-157678357D02*
X188186961Y-157725976D01*
X188234580Y-157868833D01*
X188234580Y-157964071D01*
X188186961Y-158106928D01*
X188091723Y-158202166D01*
X187996485Y-158249785D01*
X187806009Y-158297404D01*
X187663152Y-158297404D01*
X187472676Y-158249785D01*
X187377438Y-158202166D01*
X187282200Y-158106928D01*
X187234580Y-157964071D01*
X187234580Y-157868833D01*
X187282200Y-157725976D01*
X187329819Y-157678357D01*
X187234580Y-156821214D02*
X187234580Y-157011690D01*
X187282200Y-157106928D01*
X187329819Y-157154547D01*
X187472676Y-157249785D01*
X187663152Y-157297404D01*
X188044104Y-157297404D01*
X188139342Y-157249785D01*
X188186961Y-157202166D01*
X188234580Y-157106928D01*
X188234580Y-156916452D01*
X188186961Y-156821214D01*
X188139342Y-156773595D01*
X188044104Y-156725976D01*
X187806009Y-156725976D01*
X187710771Y-156773595D01*
X187663152Y-156821214D01*
X187615533Y-156916452D01*
X187615533Y-157106928D01*
X187663152Y-157202166D01*
X187710771Y-157249785D01*
X187806009Y-157297404D01*
X187234580Y-156392642D02*
X187234580Y-155773595D01*
X187615533Y-156106928D01*
X187615533Y-155964071D01*
X187663152Y-155868833D01*
X187710771Y-155821214D01*
X187806009Y-155773595D01*
X188044104Y-155773595D01*
X188139342Y-155821214D01*
X188186961Y-155868833D01*
X188234580Y-155964071D01*
X188234580Y-156249785D01*
X188186961Y-156345023D01*
X188139342Y-156392642D01*
X186031142Y-148280357D02*
X186078761Y-148327976D01*
X186126380Y-148470833D01*
X186126380Y-148566071D01*
X186078761Y-148708928D01*
X185983523Y-148804166D01*
X185888285Y-148851785D01*
X185697809Y-148899404D01*
X185554952Y-148899404D01*
X185364476Y-148851785D01*
X185269238Y-148804166D01*
X185174000Y-148708928D01*
X185126380Y-148566071D01*
X185126380Y-148470833D01*
X185174000Y-148327976D01*
X185221619Y-148280357D01*
X185126380Y-147423214D02*
X185126380Y-147613690D01*
X185174000Y-147708928D01*
X185221619Y-147756547D01*
X185364476Y-147851785D01*
X185554952Y-147899404D01*
X185935904Y-147899404D01*
X186031142Y-147851785D01*
X186078761Y-147804166D01*
X186126380Y-147708928D01*
X186126380Y-147518452D01*
X186078761Y-147423214D01*
X186031142Y-147375595D01*
X185935904Y-147327976D01*
X185697809Y-147327976D01*
X185602571Y-147375595D01*
X185554952Y-147423214D01*
X185507333Y-147518452D01*
X185507333Y-147708928D01*
X185554952Y-147804166D01*
X185602571Y-147851785D01*
X185697809Y-147899404D01*
X186126380Y-146375595D02*
X186126380Y-146947023D01*
X186126380Y-146661309D02*
X185126380Y-146661309D01*
X185269238Y-146756547D01*
X185364476Y-146851785D01*
X185412095Y-146947023D01*
X185767742Y-160394942D02*
X185720123Y-160442561D01*
X185577266Y-160490180D01*
X185482028Y-160490180D01*
X185339171Y-160442561D01*
X185243933Y-160347323D01*
X185196314Y-160252085D01*
X185148695Y-160061609D01*
X185148695Y-159918752D01*
X185196314Y-159728276D01*
X185243933Y-159633038D01*
X185339171Y-159537800D01*
X185482028Y-159490180D01*
X185577266Y-159490180D01*
X185720123Y-159537800D01*
X185767742Y-159585419D01*
X186672504Y-159490180D02*
X186196314Y-159490180D01*
X186148695Y-159966371D01*
X186196314Y-159918752D01*
X186291552Y-159871133D01*
X186529647Y-159871133D01*
X186624885Y-159918752D01*
X186672504Y-159966371D01*
X186720123Y-160061609D01*
X186720123Y-160299704D01*
X186672504Y-160394942D01*
X186624885Y-160442561D01*
X186529647Y-160490180D01*
X186291552Y-160490180D01*
X186196314Y-160442561D01*
X186148695Y-160394942D01*
X187196314Y-160490180D02*
X187386790Y-160490180D01*
X187482028Y-160442561D01*
X187529647Y-160394942D01*
X187624885Y-160252085D01*
X187672504Y-160061609D01*
X187672504Y-159680657D01*
X187624885Y-159585419D01*
X187577266Y-159537800D01*
X187482028Y-159490180D01*
X187291552Y-159490180D01*
X187196314Y-159537800D01*
X187148695Y-159585419D01*
X187101076Y-159680657D01*
X187101076Y-159918752D01*
X187148695Y-160013990D01*
X187196314Y-160061609D01*
X187291552Y-160109228D01*
X187482028Y-160109228D01*
X187577266Y-160061609D01*
X187624885Y-160013990D01*
X187672504Y-159918752D01*
X173928042Y-149359857D02*
X173975661Y-149407476D01*
X174023280Y-149550333D01*
X174023280Y-149645571D01*
X173975661Y-149788428D01*
X173880423Y-149883666D01*
X173785185Y-149931285D01*
X173594709Y-149978904D01*
X173451852Y-149978904D01*
X173261376Y-149931285D01*
X173166138Y-149883666D01*
X173070900Y-149788428D01*
X173023280Y-149645571D01*
X173023280Y-149550333D01*
X173070900Y-149407476D01*
X173118519Y-149359857D01*
X174023280Y-148407476D02*
X174023280Y-148978904D01*
X174023280Y-148693190D02*
X173023280Y-148693190D01*
X173166138Y-148788428D01*
X173261376Y-148883666D01*
X173308995Y-148978904D01*
X173356614Y-147550333D02*
X174023280Y-147550333D01*
X172975661Y-147788428D02*
X173689947Y-148026523D01*
X173689947Y-147407476D01*
X175633142Y-132056142D02*
X175585523Y-132103761D01*
X175442666Y-132151380D01*
X175347428Y-132151380D01*
X175204571Y-132103761D01*
X175109333Y-132008523D01*
X175061714Y-131913285D01*
X175014095Y-131722809D01*
X175014095Y-131579952D01*
X175061714Y-131389476D01*
X175109333Y-131294238D01*
X175204571Y-131199000D01*
X175347428Y-131151380D01*
X175442666Y-131151380D01*
X175585523Y-131199000D01*
X175633142Y-131246619D01*
X176585523Y-132151380D02*
X176014095Y-132151380D01*
X176299809Y-132151380D02*
X176299809Y-131151380D01*
X176204571Y-131294238D01*
X176109333Y-131389476D01*
X176014095Y-131437095D01*
X176918857Y-131151380D02*
X177537904Y-131151380D01*
X177204571Y-131532333D01*
X177347428Y-131532333D01*
X177442666Y-131579952D01*
X177490285Y-131627571D01*
X177537904Y-131722809D01*
X177537904Y-131960904D01*
X177490285Y-132056142D01*
X177442666Y-132103761D01*
X177347428Y-132151380D01*
X177061714Y-132151380D01*
X176966476Y-132103761D01*
X176918857Y-132056142D01*
X176474380Y-120943666D02*
X176474380Y-121419857D01*
X175474380Y-121419857D01*
X175807714Y-120181761D02*
X176474380Y-120181761D01*
X175426761Y-120419857D02*
X176141047Y-120657952D01*
X176141047Y-120038904D01*
X125801380Y-144533857D02*
X125325190Y-144867190D01*
X125801380Y-145105285D02*
X124801380Y-145105285D01*
X124801380Y-144724333D01*
X124849000Y-144629095D01*
X124896619Y-144581476D01*
X124991857Y-144533857D01*
X125134714Y-144533857D01*
X125229952Y-144581476D01*
X125277571Y-144629095D01*
X125325190Y-144724333D01*
X125325190Y-145105285D01*
X124801380Y-143676714D02*
X124801380Y-143867190D01*
X124849000Y-143962428D01*
X124896619Y-144010047D01*
X125039476Y-144105285D01*
X125229952Y-144152904D01*
X125610904Y-144152904D01*
X125706142Y-144105285D01*
X125753761Y-144057666D01*
X125801380Y-143962428D01*
X125801380Y-143771952D01*
X125753761Y-143676714D01*
X125706142Y-143629095D01*
X125610904Y-143581476D01*
X125372809Y-143581476D01*
X125277571Y-143629095D01*
X125229952Y-143676714D01*
X125182333Y-143771952D01*
X125182333Y-143962428D01*
X125229952Y-144057666D01*
X125277571Y-144105285D01*
X125372809Y-144152904D01*
X125229952Y-143010047D02*
X125182333Y-143105285D01*
X125134714Y-143152904D01*
X125039476Y-143200523D01*
X124991857Y-143200523D01*
X124896619Y-143152904D01*
X124849000Y-143105285D01*
X124801380Y-143010047D01*
X124801380Y-142819571D01*
X124849000Y-142724333D01*
X124896619Y-142676714D01*
X124991857Y-142629095D01*
X125039476Y-142629095D01*
X125134714Y-142676714D01*
X125182333Y-142724333D01*
X125229952Y-142819571D01*
X125229952Y-143010047D01*
X125277571Y-143105285D01*
X125325190Y-143152904D01*
X125420428Y-143200523D01*
X125610904Y-143200523D01*
X125706142Y-143152904D01*
X125753761Y-143105285D01*
X125801380Y-143010047D01*
X125801380Y-142819571D01*
X125753761Y-142724333D01*
X125706142Y-142676714D01*
X125610904Y-142629095D01*
X125420428Y-142629095D01*
X125325190Y-142676714D01*
X125277571Y-142724333D01*
X125229952Y-142819571D01*
X110815380Y-144406857D02*
X110339190Y-144740190D01*
X110815380Y-144978285D02*
X109815380Y-144978285D01*
X109815380Y-144597333D01*
X109863000Y-144502095D01*
X109910619Y-144454476D01*
X110005857Y-144406857D01*
X110148714Y-144406857D01*
X110243952Y-144454476D01*
X110291571Y-144502095D01*
X110339190Y-144597333D01*
X110339190Y-144978285D01*
X109815380Y-143549714D02*
X109815380Y-143740190D01*
X109863000Y-143835428D01*
X109910619Y-143883047D01*
X110053476Y-143978285D01*
X110243952Y-144025904D01*
X110624904Y-144025904D01*
X110720142Y-143978285D01*
X110767761Y-143930666D01*
X110815380Y-143835428D01*
X110815380Y-143644952D01*
X110767761Y-143549714D01*
X110720142Y-143502095D01*
X110624904Y-143454476D01*
X110386809Y-143454476D01*
X110291571Y-143502095D01*
X110243952Y-143549714D01*
X110196333Y-143644952D01*
X110196333Y-143835428D01*
X110243952Y-143930666D01*
X110291571Y-143978285D01*
X110386809Y-144025904D01*
X109815380Y-143121142D02*
X109815380Y-142454476D01*
X110815380Y-142883047D01*
X134326380Y-137636095D02*
X135135904Y-137636095D01*
X135231142Y-137588476D01*
X135278761Y-137540857D01*
X135326380Y-137445619D01*
X135326380Y-137255142D01*
X135278761Y-137159904D01*
X135231142Y-137112285D01*
X135135904Y-137064666D01*
X134326380Y-137064666D01*
X135326380Y-136064666D02*
X135326380Y-136636095D01*
X135326380Y-136350380D02*
X134326380Y-136350380D01*
X134469238Y-136445619D01*
X134564476Y-136540857D01*
X134612095Y-136636095D01*
X134326380Y-135207523D02*
X134326380Y-135398000D01*
X134374000Y-135493238D01*
X134421619Y-135540857D01*
X134564476Y-135636095D01*
X134754952Y-135683714D01*
X135135904Y-135683714D01*
X135231142Y-135636095D01*
X135278761Y-135588476D01*
X135326380Y-135493238D01*
X135326380Y-135302761D01*
X135278761Y-135207523D01*
X135231142Y-135159904D01*
X135135904Y-135112285D01*
X134897809Y-135112285D01*
X134802571Y-135159904D01*
X134754952Y-135207523D01*
X134707333Y-135302761D01*
X134707333Y-135493238D01*
X134754952Y-135588476D01*
X134802571Y-135636095D01*
X134897809Y-135683714D01*
X107148380Y-137128095D02*
X107957904Y-137128095D01*
X108053142Y-137080476D01*
X108100761Y-137032857D01*
X108148380Y-136937619D01*
X108148380Y-136747142D01*
X108100761Y-136651904D01*
X108053142Y-136604285D01*
X107957904Y-136556666D01*
X107148380Y-136556666D01*
X108148380Y-135556666D02*
X108148380Y-136128095D01*
X108148380Y-135842380D02*
X107148380Y-135842380D01*
X107291238Y-135937619D01*
X107386476Y-136032857D01*
X107434095Y-136128095D01*
X107148380Y-134651904D02*
X107148380Y-135128095D01*
X107624571Y-135175714D01*
X107576952Y-135128095D01*
X107529333Y-135032857D01*
X107529333Y-134794761D01*
X107576952Y-134699523D01*
X107624571Y-134651904D01*
X107719809Y-134604285D01*
X107957904Y-134604285D01*
X108053142Y-134651904D01*
X108100761Y-134699523D01*
X108148380Y-134794761D01*
X108148380Y-135032857D01*
X108100761Y-135128095D01*
X108053142Y-135175714D01*
X131262380Y-113291857D02*
X131262380Y-113768047D01*
X130262380Y-113768047D01*
X131262380Y-112434714D02*
X131262380Y-113006142D01*
X131262380Y-112720428D02*
X130262380Y-112720428D01*
X130405238Y-112815666D01*
X130500476Y-112910904D01*
X130548095Y-113006142D01*
X130262380Y-111577571D02*
X130262380Y-111768047D01*
X130310000Y-111863285D01*
X130357619Y-111910904D01*
X130500476Y-112006142D01*
X130690952Y-112053761D01*
X131071904Y-112053761D01*
X131167142Y-112006142D01*
X131214761Y-111958523D01*
X131262380Y-111863285D01*
X131262380Y-111672809D01*
X131214761Y-111577571D01*
X131167142Y-111529952D01*
X131071904Y-111482333D01*
X130833809Y-111482333D01*
X130738571Y-111529952D01*
X130690952Y-111577571D01*
X130643333Y-111672809D01*
X130643333Y-111863285D01*
X130690952Y-111958523D01*
X130738571Y-112006142D01*
X130833809Y-112053761D01*
X117165380Y-113291857D02*
X117165380Y-113768047D01*
X116165380Y-113768047D01*
X117165380Y-112434714D02*
X117165380Y-113006142D01*
X117165380Y-112720428D02*
X116165380Y-112720428D01*
X116308238Y-112815666D01*
X116403476Y-112910904D01*
X116451095Y-113006142D01*
X116165380Y-111529952D02*
X116165380Y-112006142D01*
X116641571Y-112053761D01*
X116593952Y-112006142D01*
X116546333Y-111910904D01*
X116546333Y-111672809D01*
X116593952Y-111577571D01*
X116641571Y-111529952D01*
X116736809Y-111482333D01*
X116974904Y-111482333D01*
X117070142Y-111529952D01*
X117117761Y-111577571D01*
X117165380Y-111672809D01*
X117165380Y-111910904D01*
X117117761Y-112006142D01*
X117070142Y-112053761D01*
X124023380Y-113291857D02*
X124023380Y-113768047D01*
X123023380Y-113768047D01*
X124023380Y-112434714D02*
X124023380Y-113006142D01*
X124023380Y-112720428D02*
X123023380Y-112720428D01*
X123166238Y-112815666D01*
X123261476Y-112910904D01*
X123309095Y-113006142D01*
X123356714Y-111577571D02*
X124023380Y-111577571D01*
X122975761Y-111815666D02*
X123690047Y-112053761D01*
X123690047Y-111434714D01*
X111577380Y-113037857D02*
X111577380Y-113514047D01*
X110577380Y-113514047D01*
X111577380Y-112180714D02*
X111577380Y-112752142D01*
X111577380Y-112466428D02*
X110577380Y-112466428D01*
X110720238Y-112561666D01*
X110815476Y-112656904D01*
X110863095Y-112752142D01*
X110577380Y-111847380D02*
X110577380Y-111228333D01*
X110958333Y-111561666D01*
X110958333Y-111418809D01*
X111005952Y-111323571D01*
X111053571Y-111275952D01*
X111148809Y-111228333D01*
X111386904Y-111228333D01*
X111482142Y-111275952D01*
X111529761Y-111323571D01*
X111577380Y-111418809D01*
X111577380Y-111704523D01*
X111529761Y-111799761D01*
X111482142Y-111847380D01*
X146666666Y-200352380D02*
X146666666Y-201066666D01*
X146619047Y-201209523D01*
X146523809Y-201304761D01*
X146380952Y-201352380D01*
X146285714Y-201352380D01*
X147571428Y-200685714D02*
X147571428Y-201352380D01*
X147333333Y-200304761D02*
X147095238Y-201019047D01*
X147714285Y-201019047D01*
X131403342Y-127331647D02*
X131450961Y-127379266D01*
X131498580Y-127522123D01*
X131498580Y-127617361D01*
X131450961Y-127760219D01*
X131355723Y-127855457D01*
X131260485Y-127903076D01*
X131070009Y-127950695D01*
X130927152Y-127950695D01*
X130736676Y-127903076D01*
X130641438Y-127855457D01*
X130546200Y-127760219D01*
X130498580Y-127617361D01*
X130498580Y-127522123D01*
X130546200Y-127379266D01*
X130593819Y-127331647D01*
X131498580Y-126379266D02*
X131498580Y-126950695D01*
X131498580Y-126664980D02*
X130498580Y-126664980D01*
X130641438Y-126760219D01*
X130736676Y-126855457D01*
X130784295Y-126950695D01*
X130593819Y-125998314D02*
X130546200Y-125950695D01*
X130498580Y-125855457D01*
X130498580Y-125617361D01*
X130546200Y-125522123D01*
X130593819Y-125474504D01*
X130689057Y-125426885D01*
X130784295Y-125426885D01*
X130927152Y-125474504D01*
X131498580Y-126045933D01*
X131498580Y-125426885D01*
X130498580Y-125093552D02*
X130498580Y-124426885D01*
X131498580Y-124855457D01*
X134603742Y-127280847D02*
X134651361Y-127328466D01*
X134698980Y-127471323D01*
X134698980Y-127566561D01*
X134651361Y-127709419D01*
X134556123Y-127804657D01*
X134460885Y-127852276D01*
X134270409Y-127899895D01*
X134127552Y-127899895D01*
X133937076Y-127852276D01*
X133841838Y-127804657D01*
X133746600Y-127709419D01*
X133698980Y-127566561D01*
X133698980Y-127471323D01*
X133746600Y-127328466D01*
X133794219Y-127280847D01*
X134698980Y-126328466D02*
X134698980Y-126899895D01*
X134698980Y-126614180D02*
X133698980Y-126614180D01*
X133841838Y-126709419D01*
X133937076Y-126804657D01*
X133984695Y-126899895D01*
X133794219Y-125947514D02*
X133746600Y-125899895D01*
X133698980Y-125804657D01*
X133698980Y-125566561D01*
X133746600Y-125471323D01*
X133794219Y-125423704D01*
X133889457Y-125376085D01*
X133984695Y-125376085D01*
X134127552Y-125423704D01*
X134698980Y-125995133D01*
X134698980Y-125376085D01*
X133698980Y-124518942D02*
X133698980Y-124709419D01*
X133746600Y-124804657D01*
X133794219Y-124852276D01*
X133937076Y-124947514D01*
X134127552Y-124995133D01*
X134508504Y-124995133D01*
X134603742Y-124947514D01*
X134651361Y-124899895D01*
X134698980Y-124804657D01*
X134698980Y-124614180D01*
X134651361Y-124518942D01*
X134603742Y-124471323D01*
X134508504Y-124423704D01*
X134270409Y-124423704D01*
X134175171Y-124471323D01*
X134127552Y-124518942D01*
X134079933Y-124614180D01*
X134079933Y-124804657D01*
X134127552Y-124899895D01*
X134175171Y-124947514D01*
X134270409Y-124995133D01*
X128119142Y-123928047D02*
X128166761Y-123975666D01*
X128214380Y-124118523D01*
X128214380Y-124213761D01*
X128166761Y-124356619D01*
X128071523Y-124451857D01*
X127976285Y-124499476D01*
X127785809Y-124547095D01*
X127642952Y-124547095D01*
X127452476Y-124499476D01*
X127357238Y-124451857D01*
X127262000Y-124356619D01*
X127214380Y-124213761D01*
X127214380Y-124118523D01*
X127262000Y-123975666D01*
X127309619Y-123928047D01*
X128214380Y-122975666D02*
X128214380Y-123547095D01*
X128214380Y-123261380D02*
X127214380Y-123261380D01*
X127357238Y-123356619D01*
X127452476Y-123451857D01*
X127500095Y-123547095D01*
X127309619Y-122594714D02*
X127262000Y-122547095D01*
X127214380Y-122451857D01*
X127214380Y-122213761D01*
X127262000Y-122118523D01*
X127309619Y-122070904D01*
X127404857Y-122023285D01*
X127500095Y-122023285D01*
X127642952Y-122070904D01*
X128214380Y-122642333D01*
X128214380Y-122023285D01*
X127214380Y-121118523D02*
X127214380Y-121594714D01*
X127690571Y-121642333D01*
X127642952Y-121594714D01*
X127595333Y-121499476D01*
X127595333Y-121261380D01*
X127642952Y-121166142D01*
X127690571Y-121118523D01*
X127785809Y-121070904D01*
X128023904Y-121070904D01*
X128119142Y-121118523D01*
X128166761Y-121166142D01*
X128214380Y-121261380D01*
X128214380Y-121499476D01*
X128166761Y-121594714D01*
X128119142Y-121642333D01*
X127014222Y-127362127D02*
X127061841Y-127409746D01*
X127109460Y-127552603D01*
X127109460Y-127647841D01*
X127061841Y-127790699D01*
X126966603Y-127885937D01*
X126871365Y-127933556D01*
X126680889Y-127981175D01*
X126538032Y-127981175D01*
X126347556Y-127933556D01*
X126252318Y-127885937D01*
X126157080Y-127790699D01*
X126109460Y-127647841D01*
X126109460Y-127552603D01*
X126157080Y-127409746D01*
X126204699Y-127362127D01*
X127109460Y-126409746D02*
X127109460Y-126981175D01*
X127109460Y-126695460D02*
X126109460Y-126695460D01*
X126252318Y-126790699D01*
X126347556Y-126885937D01*
X126395175Y-126981175D01*
X126204699Y-126028794D02*
X126157080Y-125981175D01*
X126109460Y-125885937D01*
X126109460Y-125647841D01*
X126157080Y-125552603D01*
X126204699Y-125504984D01*
X126299937Y-125457365D01*
X126395175Y-125457365D01*
X126538032Y-125504984D01*
X127109460Y-126076413D01*
X127109460Y-125457365D01*
X126442794Y-124600222D02*
X127109460Y-124600222D01*
X126061841Y-124838318D02*
X126776127Y-125076413D01*
X126776127Y-124457365D01*
X117070142Y-127357047D02*
X117117761Y-127404666D01*
X117165380Y-127547523D01*
X117165380Y-127642761D01*
X117117761Y-127785619D01*
X117022523Y-127880857D01*
X116927285Y-127928476D01*
X116736809Y-127976095D01*
X116593952Y-127976095D01*
X116403476Y-127928476D01*
X116308238Y-127880857D01*
X116213000Y-127785619D01*
X116165380Y-127642761D01*
X116165380Y-127547523D01*
X116213000Y-127404666D01*
X116260619Y-127357047D01*
X117165380Y-126404666D02*
X117165380Y-126976095D01*
X117165380Y-126690380D02*
X116165380Y-126690380D01*
X116308238Y-126785619D01*
X116403476Y-126880857D01*
X116451095Y-126976095D01*
X116260619Y-126023714D02*
X116213000Y-125976095D01*
X116165380Y-125880857D01*
X116165380Y-125642761D01*
X116213000Y-125547523D01*
X116260619Y-125499904D01*
X116355857Y-125452285D01*
X116451095Y-125452285D01*
X116593952Y-125499904D01*
X117165380Y-126071333D01*
X117165380Y-125452285D01*
X116165380Y-125118952D02*
X116165380Y-124499904D01*
X116546333Y-124833238D01*
X116546333Y-124690380D01*
X116593952Y-124595142D01*
X116641571Y-124547523D01*
X116736809Y-124499904D01*
X116974904Y-124499904D01*
X117070142Y-124547523D01*
X117117761Y-124595142D01*
X117165380Y-124690380D01*
X117165380Y-124976095D01*
X117117761Y-125071333D01*
X117070142Y-125118952D01*
X119610142Y-124944047D02*
X119657761Y-124991666D01*
X119705380Y-125134523D01*
X119705380Y-125229761D01*
X119657761Y-125372619D01*
X119562523Y-125467857D01*
X119467285Y-125515476D01*
X119276809Y-125563095D01*
X119133952Y-125563095D01*
X118943476Y-125515476D01*
X118848238Y-125467857D01*
X118753000Y-125372619D01*
X118705380Y-125229761D01*
X118705380Y-125134523D01*
X118753000Y-124991666D01*
X118800619Y-124944047D01*
X119705380Y-123991666D02*
X119705380Y-124563095D01*
X119705380Y-124277380D02*
X118705380Y-124277380D01*
X118848238Y-124372619D01*
X118943476Y-124467857D01*
X118991095Y-124563095D01*
X118800619Y-123610714D02*
X118753000Y-123563095D01*
X118705380Y-123467857D01*
X118705380Y-123229761D01*
X118753000Y-123134523D01*
X118800619Y-123086904D01*
X118895857Y-123039285D01*
X118991095Y-123039285D01*
X119133952Y-123086904D01*
X119705380Y-123658333D01*
X119705380Y-123039285D01*
X118800619Y-122658333D02*
X118753000Y-122610714D01*
X118705380Y-122515476D01*
X118705380Y-122277380D01*
X118753000Y-122182142D01*
X118800619Y-122134523D01*
X118895857Y-122086904D01*
X118991095Y-122086904D01*
X119133952Y-122134523D01*
X119705380Y-122705952D01*
X119705380Y-122086904D01*
X112371142Y-127230047D02*
X112418761Y-127277666D01*
X112466380Y-127420523D01*
X112466380Y-127515761D01*
X112418761Y-127658619D01*
X112323523Y-127753857D01*
X112228285Y-127801476D01*
X112037809Y-127849095D01*
X111894952Y-127849095D01*
X111704476Y-127801476D01*
X111609238Y-127753857D01*
X111514000Y-127658619D01*
X111466380Y-127515761D01*
X111466380Y-127420523D01*
X111514000Y-127277666D01*
X111561619Y-127230047D01*
X112466380Y-126277666D02*
X112466380Y-126849095D01*
X112466380Y-126563380D02*
X111466380Y-126563380D01*
X111609238Y-126658619D01*
X111704476Y-126753857D01*
X111752095Y-126849095D01*
X111561619Y-125896714D02*
X111514000Y-125849095D01*
X111466380Y-125753857D01*
X111466380Y-125515761D01*
X111514000Y-125420523D01*
X111561619Y-125372904D01*
X111656857Y-125325285D01*
X111752095Y-125325285D01*
X111894952Y-125372904D01*
X112466380Y-125944333D01*
X112466380Y-125325285D01*
X112466380Y-124372904D02*
X112466380Y-124944333D01*
X112466380Y-124658619D02*
X111466380Y-124658619D01*
X111609238Y-124753857D01*
X111704476Y-124849095D01*
X111752095Y-124944333D01*
X109323142Y-127230047D02*
X109370761Y-127277666D01*
X109418380Y-127420523D01*
X109418380Y-127515761D01*
X109370761Y-127658619D01*
X109275523Y-127753857D01*
X109180285Y-127801476D01*
X108989809Y-127849095D01*
X108846952Y-127849095D01*
X108656476Y-127801476D01*
X108561238Y-127753857D01*
X108466000Y-127658619D01*
X108418380Y-127515761D01*
X108418380Y-127420523D01*
X108466000Y-127277666D01*
X108513619Y-127230047D01*
X109418380Y-126277666D02*
X109418380Y-126849095D01*
X109418380Y-126563380D02*
X108418380Y-126563380D01*
X108561238Y-126658619D01*
X108656476Y-126753857D01*
X108704095Y-126849095D01*
X108513619Y-125896714D02*
X108466000Y-125849095D01*
X108418380Y-125753857D01*
X108418380Y-125515761D01*
X108466000Y-125420523D01*
X108513619Y-125372904D01*
X108608857Y-125325285D01*
X108704095Y-125325285D01*
X108846952Y-125372904D01*
X109418380Y-125944333D01*
X109418380Y-125325285D01*
X108418380Y-124706238D02*
X108418380Y-124611000D01*
X108466000Y-124515761D01*
X108513619Y-124468142D01*
X108608857Y-124420523D01*
X108799333Y-124372904D01*
X109037428Y-124372904D01*
X109227904Y-124420523D01*
X109323142Y-124468142D01*
X109370761Y-124515761D01*
X109418380Y-124611000D01*
X109418380Y-124706238D01*
X109370761Y-124801476D01*
X109323142Y-124849095D01*
X109227904Y-124896714D01*
X109037428Y-124944333D01*
X108799333Y-124944333D01*
X108608857Y-124896714D01*
X108513619Y-124849095D01*
X108466000Y-124801476D01*
X108418380Y-124706238D01*
X120292952Y-138660142D02*
X120245333Y-138707761D01*
X120102476Y-138755380D01*
X120007238Y-138755380D01*
X119864380Y-138707761D01*
X119769142Y-138612523D01*
X119721523Y-138517285D01*
X119673904Y-138326809D01*
X119673904Y-138183952D01*
X119721523Y-137993476D01*
X119769142Y-137898238D01*
X119864380Y-137803000D01*
X120007238Y-137755380D01*
X120102476Y-137755380D01*
X120245333Y-137803000D01*
X120292952Y-137850619D01*
X121245333Y-138755380D02*
X120673904Y-138755380D01*
X120959619Y-138755380D02*
X120959619Y-137755380D01*
X120864380Y-137898238D01*
X120769142Y-137993476D01*
X120673904Y-138041095D01*
X122197714Y-138755380D02*
X121626285Y-138755380D01*
X121912000Y-138755380D02*
X121912000Y-137755380D01*
X121816761Y-137898238D01*
X121721523Y-137993476D01*
X121626285Y-138041095D01*
X123102476Y-137755380D02*
X122626285Y-137755380D01*
X122578666Y-138231571D01*
X122626285Y-138183952D01*
X122721523Y-138136333D01*
X122959619Y-138136333D01*
X123054857Y-138183952D01*
X123102476Y-138231571D01*
X123150095Y-138326809D01*
X123150095Y-138564904D01*
X123102476Y-138660142D01*
X123054857Y-138707761D01*
X122959619Y-138755380D01*
X122721523Y-138755380D01*
X122626285Y-138707761D01*
X122578666Y-138660142D01*
X108180142Y-130024047D02*
X108227761Y-130071666D01*
X108275380Y-130214523D01*
X108275380Y-130309761D01*
X108227761Y-130452619D01*
X108132523Y-130547857D01*
X108037285Y-130595476D01*
X107846809Y-130643095D01*
X107703952Y-130643095D01*
X107513476Y-130595476D01*
X107418238Y-130547857D01*
X107323000Y-130452619D01*
X107275380Y-130309761D01*
X107275380Y-130214523D01*
X107323000Y-130071666D01*
X107370619Y-130024047D01*
X108275380Y-129071666D02*
X108275380Y-129643095D01*
X108275380Y-129357380D02*
X107275380Y-129357380D01*
X107418238Y-129452619D01*
X107513476Y-129547857D01*
X107561095Y-129643095D01*
X108275380Y-128119285D02*
X108275380Y-128690714D01*
X108275380Y-128405000D02*
X107275380Y-128405000D01*
X107418238Y-128500238D01*
X107513476Y-128595476D01*
X107561095Y-128690714D01*
X107275380Y-127785952D02*
X107275380Y-127166904D01*
X107656333Y-127500238D01*
X107656333Y-127357380D01*
X107703952Y-127262142D01*
X107751571Y-127214523D01*
X107846809Y-127166904D01*
X108084904Y-127166904D01*
X108180142Y-127214523D01*
X108227761Y-127262142D01*
X108275380Y-127357380D01*
X108275380Y-127643095D01*
X108227761Y-127738333D01*
X108180142Y-127785952D01*
X122658142Y-136247047D02*
X122705761Y-136294666D01*
X122753380Y-136437523D01*
X122753380Y-136532761D01*
X122705761Y-136675619D01*
X122610523Y-136770857D01*
X122515285Y-136818476D01*
X122324809Y-136866095D01*
X122181952Y-136866095D01*
X121991476Y-136818476D01*
X121896238Y-136770857D01*
X121801000Y-136675619D01*
X121753380Y-136532761D01*
X121753380Y-136437523D01*
X121801000Y-136294666D01*
X121848619Y-136247047D01*
X122753380Y-135294666D02*
X122753380Y-135866095D01*
X122753380Y-135580380D02*
X121753380Y-135580380D01*
X121896238Y-135675619D01*
X121991476Y-135770857D01*
X122039095Y-135866095D01*
X122753380Y-134342285D02*
X122753380Y-134913714D01*
X122753380Y-134628000D02*
X121753380Y-134628000D01*
X121896238Y-134723238D01*
X121991476Y-134818476D01*
X122039095Y-134913714D01*
X121848619Y-133961333D02*
X121801000Y-133913714D01*
X121753380Y-133818476D01*
X121753380Y-133580380D01*
X121801000Y-133485142D01*
X121848619Y-133437523D01*
X121943857Y-133389904D01*
X122039095Y-133389904D01*
X122181952Y-133437523D01*
X122753380Y-134008952D01*
X122753380Y-133389904D01*
X121134142Y-136374047D02*
X121181761Y-136421666D01*
X121229380Y-136564523D01*
X121229380Y-136659761D01*
X121181761Y-136802619D01*
X121086523Y-136897857D01*
X120991285Y-136945476D01*
X120800809Y-136993095D01*
X120657952Y-136993095D01*
X120467476Y-136945476D01*
X120372238Y-136897857D01*
X120277000Y-136802619D01*
X120229380Y-136659761D01*
X120229380Y-136564523D01*
X120277000Y-136421666D01*
X120324619Y-136374047D01*
X121229380Y-135421666D02*
X121229380Y-135993095D01*
X121229380Y-135707380D02*
X120229380Y-135707380D01*
X120372238Y-135802619D01*
X120467476Y-135897857D01*
X120515095Y-135993095D01*
X121229380Y-134469285D02*
X121229380Y-135040714D01*
X121229380Y-134755000D02*
X120229380Y-134755000D01*
X120372238Y-134850238D01*
X120467476Y-134945476D01*
X120515095Y-135040714D01*
X121229380Y-133516904D02*
X121229380Y-134088333D01*
X121229380Y-133802619D02*
X120229380Y-133802619D01*
X120372238Y-133897857D01*
X120467476Y-133993095D01*
X120515095Y-134088333D01*
X136374142Y-130278047D02*
X136421761Y-130325666D01*
X136469380Y-130468523D01*
X136469380Y-130563761D01*
X136421761Y-130706619D01*
X136326523Y-130801857D01*
X136231285Y-130849476D01*
X136040809Y-130897095D01*
X135897952Y-130897095D01*
X135707476Y-130849476D01*
X135612238Y-130801857D01*
X135517000Y-130706619D01*
X135469380Y-130563761D01*
X135469380Y-130468523D01*
X135517000Y-130325666D01*
X135564619Y-130278047D01*
X136469380Y-129325666D02*
X136469380Y-129897095D01*
X136469380Y-129611380D02*
X135469380Y-129611380D01*
X135612238Y-129706619D01*
X135707476Y-129801857D01*
X135755095Y-129897095D01*
X136469380Y-128373285D02*
X136469380Y-128944714D01*
X136469380Y-128659000D02*
X135469380Y-128659000D01*
X135612238Y-128754238D01*
X135707476Y-128849476D01*
X135755095Y-128944714D01*
X135469380Y-127754238D02*
X135469380Y-127659000D01*
X135517000Y-127563761D01*
X135564619Y-127516142D01*
X135659857Y-127468523D01*
X135850333Y-127420904D01*
X136088428Y-127420904D01*
X136278904Y-127468523D01*
X136374142Y-127516142D01*
X136421761Y-127563761D01*
X136469380Y-127659000D01*
X136469380Y-127754238D01*
X136421761Y-127849476D01*
X136374142Y-127897095D01*
X136278904Y-127944714D01*
X136088428Y-127992333D01*
X135850333Y-127992333D01*
X135659857Y-127944714D01*
X135564619Y-127897095D01*
X135517000Y-127849476D01*
X135469380Y-127754238D01*
X103147952Y-140057142D02*
X103100333Y-140104761D01*
X102957476Y-140152380D01*
X102862238Y-140152380D01*
X102719380Y-140104761D01*
X102624142Y-140009523D01*
X102576523Y-139914285D01*
X102528904Y-139723809D01*
X102528904Y-139580952D01*
X102576523Y-139390476D01*
X102624142Y-139295238D01*
X102719380Y-139200000D01*
X102862238Y-139152380D01*
X102957476Y-139152380D01*
X103100333Y-139200000D01*
X103147952Y-139247619D01*
X104100333Y-140152380D02*
X103528904Y-140152380D01*
X103814619Y-140152380D02*
X103814619Y-139152380D01*
X103719380Y-139295238D01*
X103624142Y-139390476D01*
X103528904Y-139438095D01*
X104719380Y-139152380D02*
X104814619Y-139152380D01*
X104909857Y-139200000D01*
X104957476Y-139247619D01*
X105005095Y-139342857D01*
X105052714Y-139533333D01*
X105052714Y-139771428D01*
X105005095Y-139961904D01*
X104957476Y-140057142D01*
X104909857Y-140104761D01*
X104814619Y-140152380D01*
X104719380Y-140152380D01*
X104624142Y-140104761D01*
X104576523Y-140057142D01*
X104528904Y-139961904D01*
X104481285Y-139771428D01*
X104481285Y-139533333D01*
X104528904Y-139342857D01*
X104576523Y-139247619D01*
X104624142Y-139200000D01*
X104719380Y-139152380D01*
X105528904Y-140152380D02*
X105719380Y-140152380D01*
X105814619Y-140104761D01*
X105862238Y-140057142D01*
X105957476Y-139914285D01*
X106005095Y-139723809D01*
X106005095Y-139342857D01*
X105957476Y-139247619D01*
X105909857Y-139200000D01*
X105814619Y-139152380D01*
X105624142Y-139152380D01*
X105528904Y-139200000D01*
X105481285Y-139247619D01*
X105433666Y-139342857D01*
X105433666Y-139580952D01*
X105481285Y-139676190D01*
X105528904Y-139723809D01*
X105624142Y-139771428D01*
X105814619Y-139771428D01*
X105909857Y-139723809D01*
X105957476Y-139676190D01*
X106005095Y-139580952D01*
X105894142Y-130024047D02*
X105941761Y-130071666D01*
X105989380Y-130214523D01*
X105989380Y-130309761D01*
X105941761Y-130452619D01*
X105846523Y-130547857D01*
X105751285Y-130595476D01*
X105560809Y-130643095D01*
X105417952Y-130643095D01*
X105227476Y-130595476D01*
X105132238Y-130547857D01*
X105037000Y-130452619D01*
X104989380Y-130309761D01*
X104989380Y-130214523D01*
X105037000Y-130071666D01*
X105084619Y-130024047D01*
X105989380Y-129071666D02*
X105989380Y-129643095D01*
X105989380Y-129357380D02*
X104989380Y-129357380D01*
X105132238Y-129452619D01*
X105227476Y-129547857D01*
X105275095Y-129643095D01*
X104989380Y-128452619D02*
X104989380Y-128357380D01*
X105037000Y-128262142D01*
X105084619Y-128214523D01*
X105179857Y-128166904D01*
X105370333Y-128119285D01*
X105608428Y-128119285D01*
X105798904Y-128166904D01*
X105894142Y-128214523D01*
X105941761Y-128262142D01*
X105989380Y-128357380D01*
X105989380Y-128452619D01*
X105941761Y-128547857D01*
X105894142Y-128595476D01*
X105798904Y-128643095D01*
X105608428Y-128690714D01*
X105370333Y-128690714D01*
X105179857Y-128643095D01*
X105084619Y-128595476D01*
X105037000Y-128547857D01*
X104989380Y-128452619D01*
X105417952Y-127547857D02*
X105370333Y-127643095D01*
X105322714Y-127690714D01*
X105227476Y-127738333D01*
X105179857Y-127738333D01*
X105084619Y-127690714D01*
X105037000Y-127643095D01*
X104989380Y-127547857D01*
X104989380Y-127357380D01*
X105037000Y-127262142D01*
X105084619Y-127214523D01*
X105179857Y-127166904D01*
X105227476Y-127166904D01*
X105322714Y-127214523D01*
X105370333Y-127262142D01*
X105417952Y-127357380D01*
X105417952Y-127547857D01*
X105465571Y-127643095D01*
X105513190Y-127690714D01*
X105608428Y-127738333D01*
X105798904Y-127738333D01*
X105894142Y-127690714D01*
X105941761Y-127643095D01*
X105989380Y-127547857D01*
X105989380Y-127357380D01*
X105941761Y-127262142D01*
X105894142Y-127214523D01*
X105798904Y-127166904D01*
X105608428Y-127166904D01*
X105513190Y-127214523D01*
X105465571Y-127262142D01*
X105417952Y-127357380D01*
X123039142Y-125071047D02*
X123086761Y-125118666D01*
X123134380Y-125261523D01*
X123134380Y-125356761D01*
X123086761Y-125499619D01*
X122991523Y-125594857D01*
X122896285Y-125642476D01*
X122705809Y-125690095D01*
X122562952Y-125690095D01*
X122372476Y-125642476D01*
X122277238Y-125594857D01*
X122182000Y-125499619D01*
X122134380Y-125356761D01*
X122134380Y-125261523D01*
X122182000Y-125118666D01*
X122229619Y-125071047D01*
X123134380Y-124118666D02*
X123134380Y-124690095D01*
X123134380Y-124404380D02*
X122134380Y-124404380D01*
X122277238Y-124499619D01*
X122372476Y-124594857D01*
X122420095Y-124690095D01*
X122134380Y-123499619D02*
X122134380Y-123404380D01*
X122182000Y-123309142D01*
X122229619Y-123261523D01*
X122324857Y-123213904D01*
X122515333Y-123166285D01*
X122753428Y-123166285D01*
X122943904Y-123213904D01*
X123039142Y-123261523D01*
X123086761Y-123309142D01*
X123134380Y-123404380D01*
X123134380Y-123499619D01*
X123086761Y-123594857D01*
X123039142Y-123642476D01*
X122943904Y-123690095D01*
X122753428Y-123737714D01*
X122515333Y-123737714D01*
X122324857Y-123690095D01*
X122229619Y-123642476D01*
X122182000Y-123594857D01*
X122134380Y-123499619D01*
X122134380Y-122832952D02*
X122134380Y-122166285D01*
X123134380Y-122594857D01*
X121007142Y-124944047D02*
X121054761Y-124991666D01*
X121102380Y-125134523D01*
X121102380Y-125229761D01*
X121054761Y-125372619D01*
X120959523Y-125467857D01*
X120864285Y-125515476D01*
X120673809Y-125563095D01*
X120530952Y-125563095D01*
X120340476Y-125515476D01*
X120245238Y-125467857D01*
X120150000Y-125372619D01*
X120102380Y-125229761D01*
X120102380Y-125134523D01*
X120150000Y-124991666D01*
X120197619Y-124944047D01*
X121102380Y-123991666D02*
X121102380Y-124563095D01*
X121102380Y-124277380D02*
X120102380Y-124277380D01*
X120245238Y-124372619D01*
X120340476Y-124467857D01*
X120388095Y-124563095D01*
X120102380Y-123372619D02*
X120102380Y-123277380D01*
X120150000Y-123182142D01*
X120197619Y-123134523D01*
X120292857Y-123086904D01*
X120483333Y-123039285D01*
X120721428Y-123039285D01*
X120911904Y-123086904D01*
X121007142Y-123134523D01*
X121054761Y-123182142D01*
X121102380Y-123277380D01*
X121102380Y-123372619D01*
X121054761Y-123467857D01*
X121007142Y-123515476D01*
X120911904Y-123563095D01*
X120721428Y-123610714D01*
X120483333Y-123610714D01*
X120292857Y-123563095D01*
X120197619Y-123515476D01*
X120150000Y-123467857D01*
X120102380Y-123372619D01*
X120102380Y-122182142D02*
X120102380Y-122372619D01*
X120150000Y-122467857D01*
X120197619Y-122515476D01*
X120340476Y-122610714D01*
X120530952Y-122658333D01*
X120911904Y-122658333D01*
X121007142Y-122610714D01*
X121054761Y-122563095D01*
X121102380Y-122467857D01*
X121102380Y-122277380D01*
X121054761Y-122182142D01*
X121007142Y-122134523D01*
X120911904Y-122086904D01*
X120673809Y-122086904D01*
X120578571Y-122134523D01*
X120530952Y-122182142D01*
X120483333Y-122277380D01*
X120483333Y-122467857D01*
X120530952Y-122563095D01*
X120578571Y-122610714D01*
X120673809Y-122658333D01*
X138861862Y-133783247D02*
X138909481Y-133830866D01*
X138957100Y-133973723D01*
X138957100Y-134068961D01*
X138909481Y-134211819D01*
X138814243Y-134307057D01*
X138719005Y-134354676D01*
X138528529Y-134402295D01*
X138385672Y-134402295D01*
X138195196Y-134354676D01*
X138099958Y-134307057D01*
X138004720Y-134211819D01*
X137957100Y-134068961D01*
X137957100Y-133973723D01*
X138004720Y-133830866D01*
X138052339Y-133783247D01*
X138957100Y-132830866D02*
X138957100Y-133402295D01*
X138957100Y-133116580D02*
X137957100Y-133116580D01*
X138099958Y-133211819D01*
X138195196Y-133307057D01*
X138242815Y-133402295D01*
X137957100Y-132211819D02*
X137957100Y-132116580D01*
X138004720Y-132021342D01*
X138052339Y-131973723D01*
X138147577Y-131926104D01*
X138338053Y-131878485D01*
X138576148Y-131878485D01*
X138766624Y-131926104D01*
X138861862Y-131973723D01*
X138909481Y-132021342D01*
X138957100Y-132116580D01*
X138957100Y-132211819D01*
X138909481Y-132307057D01*
X138861862Y-132354676D01*
X138766624Y-132402295D01*
X138576148Y-132449914D01*
X138338053Y-132449914D01*
X138147577Y-132402295D01*
X138052339Y-132354676D01*
X138004720Y-132307057D01*
X137957100Y-132211819D01*
X137957100Y-130973723D02*
X137957100Y-131449914D01*
X138433291Y-131497533D01*
X138385672Y-131449914D01*
X138338053Y-131354676D01*
X138338053Y-131116580D01*
X138385672Y-131021342D01*
X138433291Y-130973723D01*
X138528529Y-130926104D01*
X138766624Y-130926104D01*
X138861862Y-130973723D01*
X138909481Y-131021342D01*
X138957100Y-131116580D01*
X138957100Y-131354676D01*
X138909481Y-131449914D01*
X138861862Y-131497533D01*
X143028942Y-196578457D02*
X143076561Y-196626076D01*
X143124180Y-196768933D01*
X143124180Y-196864171D01*
X143076561Y-197007028D01*
X142981323Y-197102266D01*
X142886085Y-197149885D01*
X142695609Y-197197504D01*
X142552752Y-197197504D01*
X142362276Y-197149885D01*
X142267038Y-197102266D01*
X142171800Y-197007028D01*
X142124180Y-196864171D01*
X142124180Y-196768933D01*
X142171800Y-196626076D01*
X142219419Y-196578457D01*
X143124180Y-196102266D02*
X143124180Y-195911790D01*
X143076561Y-195816552D01*
X143028942Y-195768933D01*
X142886085Y-195673695D01*
X142695609Y-195626076D01*
X142314657Y-195626076D01*
X142219419Y-195673695D01*
X142171800Y-195721314D01*
X142124180Y-195816552D01*
X142124180Y-196007028D01*
X142171800Y-196102266D01*
X142219419Y-196149885D01*
X142314657Y-196197504D01*
X142552752Y-196197504D01*
X142647990Y-196149885D01*
X142695609Y-196102266D01*
X142743228Y-196007028D01*
X142743228Y-195816552D01*
X142695609Y-195721314D01*
X142647990Y-195673695D01*
X142552752Y-195626076D01*
X142552752Y-195054647D02*
X142505133Y-195149885D01*
X142457514Y-195197504D01*
X142362276Y-195245123D01*
X142314657Y-195245123D01*
X142219419Y-195197504D01*
X142171800Y-195149885D01*
X142124180Y-195054647D01*
X142124180Y-194864171D01*
X142171800Y-194768933D01*
X142219419Y-194721314D01*
X142314657Y-194673695D01*
X142362276Y-194673695D01*
X142457514Y-194721314D01*
X142505133Y-194768933D01*
X142552752Y-194864171D01*
X142552752Y-195054647D01*
X142600371Y-195149885D01*
X142647990Y-195197504D01*
X142743228Y-195245123D01*
X142933704Y-195245123D01*
X143028942Y-195197504D01*
X143076561Y-195149885D01*
X143124180Y-195054647D01*
X143124180Y-194864171D01*
X143076561Y-194768933D01*
X143028942Y-194721314D01*
X142933704Y-194673695D01*
X142743228Y-194673695D01*
X142647990Y-194721314D01*
X142600371Y-194768933D01*
X142552752Y-194864171D01*
X155081242Y-196006957D02*
X155128861Y-196054576D01*
X155176480Y-196197433D01*
X155176480Y-196292671D01*
X155128861Y-196435528D01*
X155033623Y-196530766D01*
X154938385Y-196578385D01*
X154747909Y-196626004D01*
X154605052Y-196626004D01*
X154414576Y-196578385D01*
X154319338Y-196530766D01*
X154224100Y-196435528D01*
X154176480Y-196292671D01*
X154176480Y-196197433D01*
X154224100Y-196054576D01*
X154271719Y-196006957D01*
X155176480Y-195530766D02*
X155176480Y-195340290D01*
X155128861Y-195245052D01*
X155081242Y-195197433D01*
X154938385Y-195102195D01*
X154747909Y-195054576D01*
X154366957Y-195054576D01*
X154271719Y-195102195D01*
X154224100Y-195149814D01*
X154176480Y-195245052D01*
X154176480Y-195435528D01*
X154224100Y-195530766D01*
X154271719Y-195578385D01*
X154366957Y-195626004D01*
X154605052Y-195626004D01*
X154700290Y-195578385D01*
X154747909Y-195530766D01*
X154795528Y-195435528D01*
X154795528Y-195245052D01*
X154747909Y-195149814D01*
X154700290Y-195102195D01*
X154605052Y-195054576D01*
X154509814Y-194197433D02*
X155176480Y-194197433D01*
X154128861Y-194435528D02*
X154843147Y-194673623D01*
X154843147Y-194054576D01*
X153011142Y-196108557D02*
X153058761Y-196156176D01*
X153106380Y-196299033D01*
X153106380Y-196394271D01*
X153058761Y-196537128D01*
X152963523Y-196632366D01*
X152868285Y-196679985D01*
X152677809Y-196727604D01*
X152534952Y-196727604D01*
X152344476Y-196679985D01*
X152249238Y-196632366D01*
X152154000Y-196537128D01*
X152106380Y-196394271D01*
X152106380Y-196299033D01*
X152154000Y-196156176D01*
X152201619Y-196108557D01*
X153106380Y-195632366D02*
X153106380Y-195441890D01*
X153058761Y-195346652D01*
X153011142Y-195299033D01*
X152868285Y-195203795D01*
X152677809Y-195156176D01*
X152296857Y-195156176D01*
X152201619Y-195203795D01*
X152154000Y-195251414D01*
X152106380Y-195346652D01*
X152106380Y-195537128D01*
X152154000Y-195632366D01*
X152201619Y-195679985D01*
X152296857Y-195727604D01*
X152534952Y-195727604D01*
X152630190Y-195679985D01*
X152677809Y-195632366D01*
X152725428Y-195537128D01*
X152725428Y-195346652D01*
X152677809Y-195251414D01*
X152630190Y-195203795D01*
X152534952Y-195156176D01*
X152106380Y-194822842D02*
X152106380Y-194203795D01*
X152487333Y-194537128D01*
X152487333Y-194394271D01*
X152534952Y-194299033D01*
X152582571Y-194251414D01*
X152677809Y-194203795D01*
X152915904Y-194203795D01*
X153011142Y-194251414D01*
X153058761Y-194299033D01*
X153106380Y-194394271D01*
X153106380Y-194679985D01*
X153058761Y-194775223D01*
X153011142Y-194822842D01*
X175730166Y-212483761D02*
X175873023Y-212531380D01*
X176111119Y-212531380D01*
X176206357Y-212483761D01*
X176253976Y-212436142D01*
X176301595Y-212340904D01*
X176301595Y-212245666D01*
X176253976Y-212150428D01*
X176206357Y-212102809D01*
X176111119Y-212055190D01*
X175920642Y-212007571D01*
X175825404Y-211959952D01*
X175777785Y-211912333D01*
X175730166Y-211817095D01*
X175730166Y-211721857D01*
X175777785Y-211626619D01*
X175825404Y-211579000D01*
X175920642Y-211531380D01*
X176158738Y-211531380D01*
X176301595Y-211579000D01*
X176634928Y-211531380D02*
X176873023Y-212531380D01*
X177063500Y-211817095D01*
X177253976Y-212531380D01*
X177492071Y-211531380D01*
X178396833Y-212531380D02*
X177825404Y-212531380D01*
X178111119Y-212531380D02*
X178111119Y-211531380D01*
X178015880Y-211674238D01*
X177920642Y-211769476D01*
X177825404Y-211817095D01*
X128214380Y-173870857D02*
X127738190Y-174204190D01*
X128214380Y-174442285D02*
X127214380Y-174442285D01*
X127214380Y-174061333D01*
X127262000Y-173966095D01*
X127309619Y-173918476D01*
X127404857Y-173870857D01*
X127547714Y-173870857D01*
X127642952Y-173918476D01*
X127690571Y-173966095D01*
X127738190Y-174061333D01*
X127738190Y-174442285D01*
X127309619Y-173489904D02*
X127262000Y-173442285D01*
X127214380Y-173347047D01*
X127214380Y-173108952D01*
X127262000Y-173013714D01*
X127309619Y-172966095D01*
X127404857Y-172918476D01*
X127500095Y-172918476D01*
X127642952Y-172966095D01*
X128214380Y-173537523D01*
X128214380Y-172918476D01*
X128214380Y-172442285D02*
X128214380Y-172251809D01*
X128166761Y-172156571D01*
X128119142Y-172108952D01*
X127976285Y-172013714D01*
X127785809Y-171966095D01*
X127404857Y-171966095D01*
X127309619Y-172013714D01*
X127262000Y-172061333D01*
X127214380Y-172156571D01*
X127214380Y-172347047D01*
X127262000Y-172442285D01*
X127309619Y-172489904D01*
X127404857Y-172537523D01*
X127642952Y-172537523D01*
X127738190Y-172489904D01*
X127785809Y-172442285D01*
X127833428Y-172347047D01*
X127833428Y-172156571D01*
X127785809Y-172061333D01*
X127738190Y-172013714D01*
X127642952Y-171966095D01*
X108783380Y-173997857D02*
X108307190Y-174331190D01*
X108783380Y-174569285D02*
X107783380Y-174569285D01*
X107783380Y-174188333D01*
X107831000Y-174093095D01*
X107878619Y-174045476D01*
X107973857Y-173997857D01*
X108116714Y-173997857D01*
X108211952Y-174045476D01*
X108259571Y-174093095D01*
X108307190Y-174188333D01*
X108307190Y-174569285D01*
X107878619Y-173616904D02*
X107831000Y-173569285D01*
X107783380Y-173474047D01*
X107783380Y-173235952D01*
X107831000Y-173140714D01*
X107878619Y-173093095D01*
X107973857Y-173045476D01*
X108069095Y-173045476D01*
X108211952Y-173093095D01*
X108783380Y-173664523D01*
X108783380Y-173045476D01*
X108211952Y-172474047D02*
X108164333Y-172569285D01*
X108116714Y-172616904D01*
X108021476Y-172664523D01*
X107973857Y-172664523D01*
X107878619Y-172616904D01*
X107831000Y-172569285D01*
X107783380Y-172474047D01*
X107783380Y-172283571D01*
X107831000Y-172188333D01*
X107878619Y-172140714D01*
X107973857Y-172093095D01*
X108021476Y-172093095D01*
X108116714Y-172140714D01*
X108164333Y-172188333D01*
X108211952Y-172283571D01*
X108211952Y-172474047D01*
X108259571Y-172569285D01*
X108307190Y-172616904D01*
X108402428Y-172664523D01*
X108592904Y-172664523D01*
X108688142Y-172616904D01*
X108735761Y-172569285D01*
X108783380Y-172474047D01*
X108783380Y-172283571D01*
X108735761Y-172188333D01*
X108688142Y-172140714D01*
X108592904Y-172093095D01*
X108402428Y-172093095D01*
X108307190Y-172140714D01*
X108259571Y-172188333D01*
X108211952Y-172283571D01*
X113482380Y-183522857D02*
X113006190Y-183856190D01*
X113482380Y-184094285D02*
X112482380Y-184094285D01*
X112482380Y-183713333D01*
X112530000Y-183618095D01*
X112577619Y-183570476D01*
X112672857Y-183522857D01*
X112815714Y-183522857D01*
X112910952Y-183570476D01*
X112958571Y-183618095D01*
X113006190Y-183713333D01*
X113006190Y-184094285D01*
X112577619Y-183141904D02*
X112530000Y-183094285D01*
X112482380Y-182999047D01*
X112482380Y-182760952D01*
X112530000Y-182665714D01*
X112577619Y-182618095D01*
X112672857Y-182570476D01*
X112768095Y-182570476D01*
X112910952Y-182618095D01*
X113482380Y-183189523D01*
X113482380Y-182570476D01*
X112482380Y-182237142D02*
X112482380Y-181570476D01*
X113482380Y-181999047D01*
X126944380Y-179712857D02*
X126468190Y-180046190D01*
X126944380Y-180284285D02*
X125944380Y-180284285D01*
X125944380Y-179903333D01*
X125992000Y-179808095D01*
X126039619Y-179760476D01*
X126134857Y-179712857D01*
X126277714Y-179712857D01*
X126372952Y-179760476D01*
X126420571Y-179808095D01*
X126468190Y-179903333D01*
X126468190Y-180284285D01*
X126039619Y-179331904D02*
X125992000Y-179284285D01*
X125944380Y-179189047D01*
X125944380Y-178950952D01*
X125992000Y-178855714D01*
X126039619Y-178808095D01*
X126134857Y-178760476D01*
X126230095Y-178760476D01*
X126372952Y-178808095D01*
X126944380Y-179379523D01*
X126944380Y-178760476D01*
X125944380Y-177903333D02*
X125944380Y-178093809D01*
X125992000Y-178189047D01*
X126039619Y-178236666D01*
X126182476Y-178331904D01*
X126372952Y-178379523D01*
X126753904Y-178379523D01*
X126849142Y-178331904D01*
X126896761Y-178284285D01*
X126944380Y-178189047D01*
X126944380Y-177998571D01*
X126896761Y-177903333D01*
X126849142Y-177855714D01*
X126753904Y-177808095D01*
X126515809Y-177808095D01*
X126420571Y-177855714D01*
X126372952Y-177903333D01*
X126325333Y-177998571D01*
X126325333Y-178189047D01*
X126372952Y-178284285D01*
X126420571Y-178331904D01*
X126515809Y-178379523D01*
X107526100Y-160119297D02*
X107049910Y-160452630D01*
X107526100Y-160690725D02*
X106526100Y-160690725D01*
X106526100Y-160309773D01*
X106573720Y-160214535D01*
X106621339Y-160166916D01*
X106716577Y-160119297D01*
X106859434Y-160119297D01*
X106954672Y-160166916D01*
X107002291Y-160214535D01*
X107049910Y-160309773D01*
X107049910Y-160690725D01*
X106621339Y-159738344D02*
X106573720Y-159690725D01*
X106526100Y-159595487D01*
X106526100Y-159357392D01*
X106573720Y-159262154D01*
X106621339Y-159214535D01*
X106716577Y-159166916D01*
X106811815Y-159166916D01*
X106954672Y-159214535D01*
X107526100Y-159785963D01*
X107526100Y-159166916D01*
X106526100Y-158262154D02*
X106526100Y-158738344D01*
X107002291Y-158785963D01*
X106954672Y-158738344D01*
X106907053Y-158643106D01*
X106907053Y-158405011D01*
X106954672Y-158309773D01*
X107002291Y-158262154D01*
X107097529Y-158214535D01*
X107335624Y-158214535D01*
X107430862Y-158262154D01*
X107478481Y-158309773D01*
X107526100Y-158405011D01*
X107526100Y-158643106D01*
X107478481Y-158738344D01*
X107430862Y-158785963D01*
X112753380Y-161678857D02*
X112277190Y-162012190D01*
X112753380Y-162250285D02*
X111753380Y-162250285D01*
X111753380Y-161869333D01*
X111801000Y-161774095D01*
X111848619Y-161726476D01*
X111943857Y-161678857D01*
X112086714Y-161678857D01*
X112181952Y-161726476D01*
X112229571Y-161774095D01*
X112277190Y-161869333D01*
X112277190Y-162250285D01*
X111848619Y-161297904D02*
X111801000Y-161250285D01*
X111753380Y-161155047D01*
X111753380Y-160916952D01*
X111801000Y-160821714D01*
X111848619Y-160774095D01*
X111943857Y-160726476D01*
X112039095Y-160726476D01*
X112181952Y-160774095D01*
X112753380Y-161345523D01*
X112753380Y-160726476D01*
X112086714Y-159869333D02*
X112753380Y-159869333D01*
X111705761Y-160107428D02*
X112420047Y-160345523D01*
X112420047Y-159726476D01*
X122466380Y-150375857D02*
X121990190Y-150709190D01*
X122466380Y-150947285D02*
X121466380Y-150947285D01*
X121466380Y-150566333D01*
X121514000Y-150471095D01*
X121561619Y-150423476D01*
X121656857Y-150375857D01*
X121799714Y-150375857D01*
X121894952Y-150423476D01*
X121942571Y-150471095D01*
X121990190Y-150566333D01*
X121990190Y-150947285D01*
X121561619Y-149994904D02*
X121514000Y-149947285D01*
X121466380Y-149852047D01*
X121466380Y-149613952D01*
X121514000Y-149518714D01*
X121561619Y-149471095D01*
X121656857Y-149423476D01*
X121752095Y-149423476D01*
X121894952Y-149471095D01*
X122466380Y-150042523D01*
X122466380Y-149423476D01*
X121561619Y-149042523D02*
X121514000Y-148994904D01*
X121466380Y-148899666D01*
X121466380Y-148661571D01*
X121514000Y-148566333D01*
X121561619Y-148518714D01*
X121656857Y-148471095D01*
X121752095Y-148471095D01*
X121894952Y-148518714D01*
X122466380Y-149090142D01*
X122466380Y-148471095D01*
X131389380Y-182887857D02*
X130913190Y-183221190D01*
X131389380Y-183459285D02*
X130389380Y-183459285D01*
X130389380Y-183078333D01*
X130437000Y-182983095D01*
X130484619Y-182935476D01*
X130579857Y-182887857D01*
X130722714Y-182887857D01*
X130817952Y-182935476D01*
X130865571Y-182983095D01*
X130913190Y-183078333D01*
X130913190Y-183459285D01*
X131389380Y-181935476D02*
X131389380Y-182506904D01*
X131389380Y-182221190D02*
X130389380Y-182221190D01*
X130532238Y-182316428D01*
X130627476Y-182411666D01*
X130675095Y-182506904D01*
X131389380Y-181459285D02*
X131389380Y-181268809D01*
X131341761Y-181173571D01*
X131294142Y-181125952D01*
X131151285Y-181030714D01*
X130960809Y-180983095D01*
X130579857Y-180983095D01*
X130484619Y-181030714D01*
X130437000Y-181078333D01*
X130389380Y-181173571D01*
X130389380Y-181364047D01*
X130437000Y-181459285D01*
X130484619Y-181506904D01*
X130579857Y-181554523D01*
X130817952Y-181554523D01*
X130913190Y-181506904D01*
X130960809Y-181459285D01*
X131008428Y-181364047D01*
X131008428Y-181173571D01*
X130960809Y-181078333D01*
X130913190Y-181030714D01*
X130817952Y-180983095D01*
X131295380Y-188602857D02*
X130819190Y-188936190D01*
X131295380Y-189174285D02*
X130295380Y-189174285D01*
X130295380Y-188793333D01*
X130343000Y-188698095D01*
X130390619Y-188650476D01*
X130485857Y-188602857D01*
X130628714Y-188602857D01*
X130723952Y-188650476D01*
X130771571Y-188698095D01*
X130819190Y-188793333D01*
X130819190Y-189174285D01*
X131295380Y-187650476D02*
X131295380Y-188221904D01*
X131295380Y-187936190D02*
X130295380Y-187936190D01*
X130438238Y-188031428D01*
X130533476Y-188126666D01*
X130581095Y-188221904D01*
X130723952Y-187079047D02*
X130676333Y-187174285D01*
X130628714Y-187221904D01*
X130533476Y-187269523D01*
X130485857Y-187269523D01*
X130390619Y-187221904D01*
X130343000Y-187174285D01*
X130295380Y-187079047D01*
X130295380Y-186888571D01*
X130343000Y-186793333D01*
X130390619Y-186745714D01*
X130485857Y-186698095D01*
X130533476Y-186698095D01*
X130628714Y-186745714D01*
X130676333Y-186793333D01*
X130723952Y-186888571D01*
X130723952Y-187079047D01*
X130771571Y-187174285D01*
X130819190Y-187221904D01*
X130914428Y-187269523D01*
X131104904Y-187269523D01*
X131200142Y-187221904D01*
X131247761Y-187174285D01*
X131295380Y-187079047D01*
X131295380Y-186888571D01*
X131247761Y-186793333D01*
X131200142Y-186745714D01*
X131104904Y-186698095D01*
X130914428Y-186698095D01*
X130819190Y-186745714D01*
X130771571Y-186793333D01*
X130723952Y-186888571D01*
X140918462Y-177284660D02*
X140585129Y-176808470D01*
X140347034Y-177284660D02*
X140347034Y-176284660D01*
X140727986Y-176284660D01*
X140823224Y-176332280D01*
X140870843Y-176379899D01*
X140918462Y-176475137D01*
X140918462Y-176617994D01*
X140870843Y-176713232D01*
X140823224Y-176760851D01*
X140727986Y-176808470D01*
X140347034Y-176808470D01*
X141870843Y-177284660D02*
X141299415Y-177284660D01*
X141585129Y-177284660D02*
X141585129Y-176284660D01*
X141489891Y-176427518D01*
X141394653Y-176522756D01*
X141299415Y-176570375D01*
X142204177Y-176284660D02*
X142870843Y-176284660D01*
X142442272Y-177284660D01*
X144137142Y-194127380D02*
X143803809Y-193651190D01*
X143565714Y-194127380D02*
X143565714Y-193127380D01*
X143946666Y-193127380D01*
X144041904Y-193175000D01*
X144089523Y-193222619D01*
X144137142Y-193317857D01*
X144137142Y-193460714D01*
X144089523Y-193555952D01*
X144041904Y-193603571D01*
X143946666Y-193651190D01*
X143565714Y-193651190D01*
X145089523Y-194127380D02*
X144518095Y-194127380D01*
X144803809Y-194127380D02*
X144803809Y-193127380D01*
X144708571Y-193270238D01*
X144613333Y-193365476D01*
X144518095Y-193413095D01*
X145946666Y-193127380D02*
X145756190Y-193127380D01*
X145660952Y-193175000D01*
X145613333Y-193222619D01*
X145518095Y-193365476D01*
X145470476Y-193555952D01*
X145470476Y-193936904D01*
X145518095Y-194032142D01*
X145565714Y-194079761D01*
X145660952Y-194127380D01*
X145851428Y-194127380D01*
X145946666Y-194079761D01*
X145994285Y-194032142D01*
X146041904Y-193936904D01*
X146041904Y-193698809D01*
X145994285Y-193603571D01*
X145946666Y-193555952D01*
X145851428Y-193508333D01*
X145660952Y-193508333D01*
X145565714Y-193555952D01*
X145518095Y-193603571D01*
X145470476Y-193698809D01*
X121277142Y-184729380D02*
X120943809Y-184253190D01*
X120705714Y-184729380D02*
X120705714Y-183729380D01*
X121086666Y-183729380D01*
X121181904Y-183777000D01*
X121229523Y-183824619D01*
X121277142Y-183919857D01*
X121277142Y-184062714D01*
X121229523Y-184157952D01*
X121181904Y-184205571D01*
X121086666Y-184253190D01*
X120705714Y-184253190D01*
X122229523Y-184729380D02*
X121658095Y-184729380D01*
X121943809Y-184729380D02*
X121943809Y-183729380D01*
X121848571Y-183872238D01*
X121753333Y-183967476D01*
X121658095Y-184015095D01*
X123134285Y-183729380D02*
X122658095Y-183729380D01*
X122610476Y-184205571D01*
X122658095Y-184157952D01*
X122753333Y-184110333D01*
X122991428Y-184110333D01*
X123086666Y-184157952D01*
X123134285Y-184205571D01*
X123181904Y-184300809D01*
X123181904Y-184538904D01*
X123134285Y-184634142D01*
X123086666Y-184681761D01*
X122991428Y-184729380D01*
X122753333Y-184729380D01*
X122658095Y-184681761D01*
X122610476Y-184634142D01*
X129992380Y-181744857D02*
X129516190Y-182078190D01*
X129992380Y-182316285D02*
X128992380Y-182316285D01*
X128992380Y-181935333D01*
X129040000Y-181840095D01*
X129087619Y-181792476D01*
X129182857Y-181744857D01*
X129325714Y-181744857D01*
X129420952Y-181792476D01*
X129468571Y-181840095D01*
X129516190Y-181935333D01*
X129516190Y-182316285D01*
X129992380Y-180792476D02*
X129992380Y-181363904D01*
X129992380Y-181078190D02*
X128992380Y-181078190D01*
X129135238Y-181173428D01*
X129230476Y-181268666D01*
X129278095Y-181363904D01*
X129325714Y-179935333D02*
X129992380Y-179935333D01*
X128944761Y-180173428D02*
X129659047Y-180411523D01*
X129659047Y-179792476D01*
X121404142Y-186507380D02*
X121070809Y-186031190D01*
X120832714Y-186507380D02*
X120832714Y-185507380D01*
X121213666Y-185507380D01*
X121308904Y-185555000D01*
X121356523Y-185602619D01*
X121404142Y-185697857D01*
X121404142Y-185840714D01*
X121356523Y-185935952D01*
X121308904Y-185983571D01*
X121213666Y-186031190D01*
X120832714Y-186031190D01*
X122356523Y-186507380D02*
X121785095Y-186507380D01*
X122070809Y-186507380D02*
X122070809Y-185507380D01*
X121975571Y-185650238D01*
X121880333Y-185745476D01*
X121785095Y-185793095D01*
X122689857Y-185507380D02*
X123308904Y-185507380D01*
X122975571Y-185888333D01*
X123118428Y-185888333D01*
X123213666Y-185935952D01*
X123261285Y-185983571D01*
X123308904Y-186078809D01*
X123308904Y-186316904D01*
X123261285Y-186412142D01*
X123213666Y-186459761D01*
X123118428Y-186507380D01*
X122832714Y-186507380D01*
X122737476Y-186459761D01*
X122689857Y-186412142D01*
X121277142Y-188412380D02*
X120943809Y-187936190D01*
X120705714Y-188412380D02*
X120705714Y-187412380D01*
X121086666Y-187412380D01*
X121181904Y-187460000D01*
X121229523Y-187507619D01*
X121277142Y-187602857D01*
X121277142Y-187745714D01*
X121229523Y-187840952D01*
X121181904Y-187888571D01*
X121086666Y-187936190D01*
X120705714Y-187936190D01*
X122229523Y-188412380D02*
X121658095Y-188412380D01*
X121943809Y-188412380D02*
X121943809Y-187412380D01*
X121848571Y-187555238D01*
X121753333Y-187650476D01*
X121658095Y-187698095D01*
X122610476Y-187507619D02*
X122658095Y-187460000D01*
X122753333Y-187412380D01*
X122991428Y-187412380D01*
X123086666Y-187460000D01*
X123134285Y-187507619D01*
X123181904Y-187602857D01*
X123181904Y-187698095D01*
X123134285Y-187840952D01*
X122562857Y-188412380D01*
X123181904Y-188412380D01*
X126722142Y-173870857D02*
X126769761Y-173918476D01*
X126817380Y-174061333D01*
X126817380Y-174156571D01*
X126769761Y-174299428D01*
X126674523Y-174394666D01*
X126579285Y-174442285D01*
X126388809Y-174489904D01*
X126245952Y-174489904D01*
X126055476Y-174442285D01*
X125960238Y-174394666D01*
X125865000Y-174299428D01*
X125817380Y-174156571D01*
X125817380Y-174061333D01*
X125865000Y-173918476D01*
X125912619Y-173870857D01*
X125817380Y-172966095D02*
X125817380Y-173442285D01*
X126293571Y-173489904D01*
X126245952Y-173442285D01*
X126198333Y-173347047D01*
X126198333Y-173108952D01*
X126245952Y-173013714D01*
X126293571Y-172966095D01*
X126388809Y-172918476D01*
X126626904Y-172918476D01*
X126722142Y-172966095D01*
X126769761Y-173013714D01*
X126817380Y-173108952D01*
X126817380Y-173347047D01*
X126769761Y-173442285D01*
X126722142Y-173489904D01*
X125817380Y-172299428D02*
X125817380Y-172204190D01*
X125865000Y-172108952D01*
X125912619Y-172061333D01*
X126007857Y-172013714D01*
X126198333Y-171966095D01*
X126436428Y-171966095D01*
X126626904Y-172013714D01*
X126722142Y-172061333D01*
X126769761Y-172108952D01*
X126817380Y-172204190D01*
X126817380Y-172299428D01*
X126769761Y-172394666D01*
X126722142Y-172442285D01*
X126626904Y-172489904D01*
X126436428Y-172537523D01*
X126198333Y-172537523D01*
X126007857Y-172489904D01*
X125912619Y-172442285D01*
X125865000Y-172394666D01*
X125817380Y-172299428D01*
X110085142Y-174124857D02*
X110132761Y-174172476D01*
X110180380Y-174315333D01*
X110180380Y-174410571D01*
X110132761Y-174553428D01*
X110037523Y-174648666D01*
X109942285Y-174696285D01*
X109751809Y-174743904D01*
X109608952Y-174743904D01*
X109418476Y-174696285D01*
X109323238Y-174648666D01*
X109228000Y-174553428D01*
X109180380Y-174410571D01*
X109180380Y-174315333D01*
X109228000Y-174172476D01*
X109275619Y-174124857D01*
X109513714Y-173267714D02*
X110180380Y-173267714D01*
X109132761Y-173505809D02*
X109847047Y-173743904D01*
X109847047Y-173124857D01*
X110180380Y-172696285D02*
X110180380Y-172505809D01*
X110132761Y-172410571D01*
X110085142Y-172362952D01*
X109942285Y-172267714D01*
X109751809Y-172220095D01*
X109370857Y-172220095D01*
X109275619Y-172267714D01*
X109228000Y-172315333D01*
X109180380Y-172410571D01*
X109180380Y-172601047D01*
X109228000Y-172696285D01*
X109275619Y-172743904D01*
X109370857Y-172791523D01*
X109608952Y-172791523D01*
X109704190Y-172743904D01*
X109751809Y-172696285D01*
X109799428Y-172601047D01*
X109799428Y-172410571D01*
X109751809Y-172315333D01*
X109704190Y-172267714D01*
X109608952Y-172220095D01*
X111609142Y-183522857D02*
X111656761Y-183570476D01*
X111704380Y-183713333D01*
X111704380Y-183808571D01*
X111656761Y-183951428D01*
X111561523Y-184046666D01*
X111466285Y-184094285D01*
X111275809Y-184141904D01*
X111132952Y-184141904D01*
X110942476Y-184094285D01*
X110847238Y-184046666D01*
X110752000Y-183951428D01*
X110704380Y-183808571D01*
X110704380Y-183713333D01*
X110752000Y-183570476D01*
X110799619Y-183522857D01*
X111037714Y-182665714D02*
X111704380Y-182665714D01*
X110656761Y-182903809D02*
X111371047Y-183141904D01*
X111371047Y-182522857D01*
X111132952Y-181999047D02*
X111085333Y-182094285D01*
X111037714Y-182141904D01*
X110942476Y-182189523D01*
X110894857Y-182189523D01*
X110799619Y-182141904D01*
X110752000Y-182094285D01*
X110704380Y-181999047D01*
X110704380Y-181808571D01*
X110752000Y-181713333D01*
X110799619Y-181665714D01*
X110894857Y-181618095D01*
X110942476Y-181618095D01*
X111037714Y-181665714D01*
X111085333Y-181713333D01*
X111132952Y-181808571D01*
X111132952Y-181999047D01*
X111180571Y-182094285D01*
X111228190Y-182141904D01*
X111323428Y-182189523D01*
X111513904Y-182189523D01*
X111609142Y-182141904D01*
X111656761Y-182094285D01*
X111704380Y-181999047D01*
X111704380Y-181808571D01*
X111656761Y-181713333D01*
X111609142Y-181665714D01*
X111513904Y-181618095D01*
X111323428Y-181618095D01*
X111228190Y-181665714D01*
X111180571Y-181713333D01*
X111132952Y-181808571D01*
X128500142Y-179585857D02*
X128547761Y-179633476D01*
X128595380Y-179776333D01*
X128595380Y-179871571D01*
X128547761Y-180014428D01*
X128452523Y-180109666D01*
X128357285Y-180157285D01*
X128166809Y-180204904D01*
X128023952Y-180204904D01*
X127833476Y-180157285D01*
X127738238Y-180109666D01*
X127643000Y-180014428D01*
X127595380Y-179871571D01*
X127595380Y-179776333D01*
X127643000Y-179633476D01*
X127690619Y-179585857D01*
X127928714Y-178728714D02*
X128595380Y-178728714D01*
X127547761Y-178966809D02*
X128262047Y-179204904D01*
X128262047Y-178585857D01*
X127595380Y-178300142D02*
X127595380Y-177633476D01*
X128595380Y-178062047D01*
X125849142Y-168886142D02*
X125801523Y-168933761D01*
X125658666Y-168981380D01*
X125563428Y-168981380D01*
X125420571Y-168933761D01*
X125325333Y-168838523D01*
X125277714Y-168743285D01*
X125230095Y-168552809D01*
X125230095Y-168409952D01*
X125277714Y-168219476D01*
X125325333Y-168124238D01*
X125420571Y-168029000D01*
X125563428Y-167981380D01*
X125658666Y-167981380D01*
X125801523Y-168029000D01*
X125849142Y-168076619D01*
X126706285Y-168314714D02*
X126706285Y-168981380D01*
X126468190Y-167933761D02*
X126230095Y-168648047D01*
X126849142Y-168648047D01*
X127706285Y-167981380D02*
X127230095Y-167981380D01*
X127182476Y-168457571D01*
X127230095Y-168409952D01*
X127325333Y-168362333D01*
X127563428Y-168362333D01*
X127658666Y-168409952D01*
X127706285Y-168457571D01*
X127753904Y-168552809D01*
X127753904Y-168790904D01*
X127706285Y-168886142D01*
X127658666Y-168933761D01*
X127563428Y-168981380D01*
X127325333Y-168981380D01*
X127230095Y-168933761D01*
X127182476Y-168886142D01*
X109720142Y-167362142D02*
X109672523Y-167409761D01*
X109529666Y-167457380D01*
X109434428Y-167457380D01*
X109291571Y-167409761D01*
X109196333Y-167314523D01*
X109148714Y-167219285D01*
X109101095Y-167028809D01*
X109101095Y-166885952D01*
X109148714Y-166695476D01*
X109196333Y-166600238D01*
X109291571Y-166505000D01*
X109434428Y-166457380D01*
X109529666Y-166457380D01*
X109672523Y-166505000D01*
X109720142Y-166552619D01*
X110577285Y-166790714D02*
X110577285Y-167457380D01*
X110339190Y-166409761D02*
X110101095Y-167124047D01*
X110720142Y-167124047D01*
X111529666Y-166790714D02*
X111529666Y-167457380D01*
X111291571Y-166409761D02*
X111053476Y-167124047D01*
X111672523Y-167124047D01*
X103878142Y-164060142D02*
X103830523Y-164107761D01*
X103687666Y-164155380D01*
X103592428Y-164155380D01*
X103449571Y-164107761D01*
X103354333Y-164012523D01*
X103306714Y-163917285D01*
X103259095Y-163726809D01*
X103259095Y-163583952D01*
X103306714Y-163393476D01*
X103354333Y-163298238D01*
X103449571Y-163203000D01*
X103592428Y-163155380D01*
X103687666Y-163155380D01*
X103830523Y-163203000D01*
X103878142Y-163250619D01*
X104735285Y-163488714D02*
X104735285Y-164155380D01*
X104497190Y-163107761D02*
X104259095Y-163822047D01*
X104878142Y-163822047D01*
X105211476Y-163250619D02*
X105259095Y-163203000D01*
X105354333Y-163155380D01*
X105592428Y-163155380D01*
X105687666Y-163203000D01*
X105735285Y-163250619D01*
X105782904Y-163345857D01*
X105782904Y-163441095D01*
X105735285Y-163583952D01*
X105163857Y-164155380D01*
X105782904Y-164155380D01*
X104005142Y-162282142D02*
X103957523Y-162329761D01*
X103814666Y-162377380D01*
X103719428Y-162377380D01*
X103576571Y-162329761D01*
X103481333Y-162234523D01*
X103433714Y-162139285D01*
X103386095Y-161948809D01*
X103386095Y-161805952D01*
X103433714Y-161615476D01*
X103481333Y-161520238D01*
X103576571Y-161425000D01*
X103719428Y-161377380D01*
X103814666Y-161377380D01*
X103957523Y-161425000D01*
X104005142Y-161472619D01*
X104862285Y-161710714D02*
X104862285Y-162377380D01*
X104624190Y-161329761D02*
X104386095Y-162044047D01*
X105005142Y-162044047D01*
X105909904Y-162377380D02*
X105338476Y-162377380D01*
X105624190Y-162377380D02*
X105624190Y-161377380D01*
X105528952Y-161520238D01*
X105433714Y-161615476D01*
X105338476Y-161663095D01*
X125722142Y-167235142D02*
X125674523Y-167282761D01*
X125531666Y-167330380D01*
X125436428Y-167330380D01*
X125293571Y-167282761D01*
X125198333Y-167187523D01*
X125150714Y-167092285D01*
X125103095Y-166901809D01*
X125103095Y-166758952D01*
X125150714Y-166568476D01*
X125198333Y-166473238D01*
X125293571Y-166378000D01*
X125436428Y-166330380D01*
X125531666Y-166330380D01*
X125674523Y-166378000D01*
X125722142Y-166425619D01*
X126579285Y-166663714D02*
X126579285Y-167330380D01*
X126341190Y-166282761D02*
X126103095Y-166997047D01*
X126722142Y-166997047D01*
X127293571Y-166330380D02*
X127388809Y-166330380D01*
X127484047Y-166378000D01*
X127531666Y-166425619D01*
X127579285Y-166520857D01*
X127626904Y-166711333D01*
X127626904Y-166949428D01*
X127579285Y-167139904D01*
X127531666Y-167235142D01*
X127484047Y-167282761D01*
X127388809Y-167330380D01*
X127293571Y-167330380D01*
X127198333Y-167282761D01*
X127150714Y-167235142D01*
X127103095Y-167139904D01*
X127055476Y-166949428D01*
X127055476Y-166711333D01*
X127103095Y-166520857D01*
X127150714Y-166425619D01*
X127198333Y-166378000D01*
X127293571Y-166330380D01*
X109466142Y-169140142D02*
X109418523Y-169187761D01*
X109275666Y-169235380D01*
X109180428Y-169235380D01*
X109037571Y-169187761D01*
X108942333Y-169092523D01*
X108894714Y-168997285D01*
X108847095Y-168806809D01*
X108847095Y-168663952D01*
X108894714Y-168473476D01*
X108942333Y-168378238D01*
X109037571Y-168283000D01*
X109180428Y-168235380D01*
X109275666Y-168235380D01*
X109418523Y-168283000D01*
X109466142Y-168330619D01*
X109799476Y-168235380D02*
X110418523Y-168235380D01*
X110085190Y-168616333D01*
X110228047Y-168616333D01*
X110323285Y-168663952D01*
X110370904Y-168711571D01*
X110418523Y-168806809D01*
X110418523Y-169044904D01*
X110370904Y-169140142D01*
X110323285Y-169187761D01*
X110228047Y-169235380D01*
X109942333Y-169235380D01*
X109847095Y-169187761D01*
X109799476Y-169140142D01*
X110894714Y-169235380D02*
X111085190Y-169235380D01*
X111180428Y-169187761D01*
X111228047Y-169140142D01*
X111323285Y-168997285D01*
X111370904Y-168806809D01*
X111370904Y-168425857D01*
X111323285Y-168330619D01*
X111275666Y-168283000D01*
X111180428Y-168235380D01*
X110989952Y-168235380D01*
X110894714Y-168283000D01*
X110847095Y-168330619D01*
X110799476Y-168425857D01*
X110799476Y-168663952D01*
X110847095Y-168759190D01*
X110894714Y-168806809D01*
X110989952Y-168854428D01*
X111180428Y-168854428D01*
X111275666Y-168806809D01*
X111323285Y-168759190D01*
X111370904Y-168663952D01*
X116562142Y-168536857D02*
X116609761Y-168584476D01*
X116657380Y-168727333D01*
X116657380Y-168822571D01*
X116609761Y-168965428D01*
X116514523Y-169060666D01*
X116419285Y-169108285D01*
X116228809Y-169155904D01*
X116085952Y-169155904D01*
X115895476Y-169108285D01*
X115800238Y-169060666D01*
X115705000Y-168965428D01*
X115657380Y-168822571D01*
X115657380Y-168727333D01*
X115705000Y-168584476D01*
X115752619Y-168536857D01*
X115657380Y-168203523D02*
X115657380Y-167584476D01*
X116038333Y-167917809D01*
X116038333Y-167774952D01*
X116085952Y-167679714D01*
X116133571Y-167632095D01*
X116228809Y-167584476D01*
X116466904Y-167584476D01*
X116562142Y-167632095D01*
X116609761Y-167679714D01*
X116657380Y-167774952D01*
X116657380Y-168060666D01*
X116609761Y-168155904D01*
X116562142Y-168203523D01*
X116085952Y-167013047D02*
X116038333Y-167108285D01*
X115990714Y-167155904D01*
X115895476Y-167203523D01*
X115847857Y-167203523D01*
X115752619Y-167155904D01*
X115705000Y-167108285D01*
X115657380Y-167013047D01*
X115657380Y-166822571D01*
X115705000Y-166727333D01*
X115752619Y-166679714D01*
X115847857Y-166632095D01*
X115895476Y-166632095D01*
X115990714Y-166679714D01*
X116038333Y-166727333D01*
X116085952Y-166822571D01*
X116085952Y-167013047D01*
X116133571Y-167108285D01*
X116181190Y-167155904D01*
X116276428Y-167203523D01*
X116466904Y-167203523D01*
X116562142Y-167155904D01*
X116609761Y-167108285D01*
X116657380Y-167013047D01*
X116657380Y-166822571D01*
X116609761Y-166727333D01*
X116562142Y-166679714D01*
X116466904Y-166632095D01*
X116276428Y-166632095D01*
X116181190Y-166679714D01*
X116133571Y-166727333D01*
X116085952Y-166822571D01*
X120773442Y-168346357D02*
X120821061Y-168393976D01*
X120868680Y-168536833D01*
X120868680Y-168632071D01*
X120821061Y-168774928D01*
X120725823Y-168870166D01*
X120630585Y-168917785D01*
X120440109Y-168965404D01*
X120297252Y-168965404D01*
X120106776Y-168917785D01*
X120011538Y-168870166D01*
X119916300Y-168774928D01*
X119868680Y-168632071D01*
X119868680Y-168536833D01*
X119916300Y-168393976D01*
X119963919Y-168346357D01*
X119868680Y-168013023D02*
X119868680Y-167393976D01*
X120249633Y-167727309D01*
X120249633Y-167584452D01*
X120297252Y-167489214D01*
X120344871Y-167441595D01*
X120440109Y-167393976D01*
X120678204Y-167393976D01*
X120773442Y-167441595D01*
X120821061Y-167489214D01*
X120868680Y-167584452D01*
X120868680Y-167870166D01*
X120821061Y-167965404D01*
X120773442Y-168013023D01*
X119868680Y-167060642D02*
X119868680Y-166393976D01*
X120868680Y-166822547D01*
X181128373Y-209914742D02*
X181080754Y-209962361D01*
X180937897Y-210009980D01*
X180842659Y-210009980D01*
X180699801Y-209962361D01*
X180604563Y-209867123D01*
X180556944Y-209771885D01*
X180509325Y-209581409D01*
X180509325Y-209438552D01*
X180556944Y-209248076D01*
X180604563Y-209152838D01*
X180699801Y-209057600D01*
X180842659Y-209009980D01*
X180937897Y-209009980D01*
X181080754Y-209057600D01*
X181128373Y-209105219D01*
X181604563Y-210009980D02*
X181795040Y-210009980D01*
X181890278Y-209962361D01*
X181937897Y-209914742D01*
X182033135Y-209771885D01*
X182080754Y-209581409D01*
X182080754Y-209200457D01*
X182033135Y-209105219D01*
X181985516Y-209057600D01*
X181890278Y-209009980D01*
X181699801Y-209009980D01*
X181604563Y-209057600D01*
X181556944Y-209105219D01*
X181509325Y-209200457D01*
X181509325Y-209438552D01*
X181556944Y-209533790D01*
X181604563Y-209581409D01*
X181699801Y-209629028D01*
X181890278Y-209629028D01*
X181985516Y-209581409D01*
X182033135Y-209533790D01*
X182080754Y-209438552D01*
X143031462Y-166531586D02*
X143079081Y-166579205D01*
X143126700Y-166722062D01*
X143126700Y-166817300D01*
X143079081Y-166960158D01*
X142983843Y-167055396D01*
X142888605Y-167103015D01*
X142698129Y-167150634D01*
X142555272Y-167150634D01*
X142364796Y-167103015D01*
X142269558Y-167055396D01*
X142174320Y-166960158D01*
X142126700Y-166817300D01*
X142126700Y-166722062D01*
X142174320Y-166579205D01*
X142221939Y-166531586D01*
X142555272Y-165960158D02*
X142507653Y-166055396D01*
X142460034Y-166103015D01*
X142364796Y-166150634D01*
X142317177Y-166150634D01*
X142221939Y-166103015D01*
X142174320Y-166055396D01*
X142126700Y-165960158D01*
X142126700Y-165769681D01*
X142174320Y-165674443D01*
X142221939Y-165626824D01*
X142317177Y-165579205D01*
X142364796Y-165579205D01*
X142460034Y-165626824D01*
X142507653Y-165674443D01*
X142555272Y-165769681D01*
X142555272Y-165960158D01*
X142602891Y-166055396D01*
X142650510Y-166103015D01*
X142745748Y-166150634D01*
X142936224Y-166150634D01*
X143031462Y-166103015D01*
X143079081Y-166055396D01*
X143126700Y-165960158D01*
X143126700Y-165769681D01*
X143079081Y-165674443D01*
X143031462Y-165626824D01*
X142936224Y-165579205D01*
X142745748Y-165579205D01*
X142650510Y-165626824D01*
X142602891Y-165674443D01*
X142555272Y-165769681D01*
X131421142Y-167298666D02*
X131468761Y-167346285D01*
X131516380Y-167489142D01*
X131516380Y-167584380D01*
X131468761Y-167727238D01*
X131373523Y-167822476D01*
X131278285Y-167870095D01*
X131087809Y-167917714D01*
X130944952Y-167917714D01*
X130754476Y-167870095D01*
X130659238Y-167822476D01*
X130564000Y-167727238D01*
X130516380Y-167584380D01*
X130516380Y-167489142D01*
X130564000Y-167346285D01*
X130611619Y-167298666D01*
X130516380Y-166965333D02*
X130516380Y-166298666D01*
X131516380Y-166727238D01*
X135104142Y-149010666D02*
X135151761Y-149058285D01*
X135199380Y-149201142D01*
X135199380Y-149296380D01*
X135151761Y-149439238D01*
X135056523Y-149534476D01*
X134961285Y-149582095D01*
X134770809Y-149629714D01*
X134627952Y-149629714D01*
X134437476Y-149582095D01*
X134342238Y-149534476D01*
X134247000Y-149439238D01*
X134199380Y-149296380D01*
X134199380Y-149201142D01*
X134247000Y-149058285D01*
X134294619Y-149010666D01*
X134199380Y-148153523D02*
X134199380Y-148344000D01*
X134247000Y-148439238D01*
X134294619Y-148486857D01*
X134437476Y-148582095D01*
X134627952Y-148629714D01*
X135008904Y-148629714D01*
X135104142Y-148582095D01*
X135151761Y-148534476D01*
X135199380Y-148439238D01*
X135199380Y-148248761D01*
X135151761Y-148153523D01*
X135104142Y-148105904D01*
X135008904Y-148058285D01*
X134770809Y-148058285D01*
X134675571Y-148105904D01*
X134627952Y-148153523D01*
X134580333Y-148248761D01*
X134580333Y-148439238D01*
X134627952Y-148534476D01*
X134675571Y-148582095D01*
X134770809Y-148629714D01*
X129373333Y-160250142D02*
X129325714Y-160297761D01*
X129182857Y-160345380D01*
X129087619Y-160345380D01*
X128944761Y-160297761D01*
X128849523Y-160202523D01*
X128801904Y-160107285D01*
X128754285Y-159916809D01*
X128754285Y-159773952D01*
X128801904Y-159583476D01*
X128849523Y-159488238D01*
X128944761Y-159393000D01*
X129087619Y-159345380D01*
X129182857Y-159345380D01*
X129325714Y-159393000D01*
X129373333Y-159440619D01*
X130278095Y-159345380D02*
X129801904Y-159345380D01*
X129754285Y-159821571D01*
X129801904Y-159773952D01*
X129897142Y-159726333D01*
X130135238Y-159726333D01*
X130230476Y-159773952D01*
X130278095Y-159821571D01*
X130325714Y-159916809D01*
X130325714Y-160154904D01*
X130278095Y-160250142D01*
X130230476Y-160297761D01*
X130135238Y-160345380D01*
X129897142Y-160345380D01*
X129801904Y-160297761D01*
X129754285Y-160250142D01*
X148401022Y-158832846D02*
X148448641Y-158880465D01*
X148496260Y-159023322D01*
X148496260Y-159118560D01*
X148448641Y-159261418D01*
X148353403Y-159356656D01*
X148258165Y-159404275D01*
X148067689Y-159451894D01*
X147924832Y-159451894D01*
X147734356Y-159404275D01*
X147639118Y-159356656D01*
X147543880Y-159261418D01*
X147496260Y-159118560D01*
X147496260Y-159023322D01*
X147543880Y-158880465D01*
X147591499Y-158832846D01*
X147829594Y-157975703D02*
X148496260Y-157975703D01*
X147448641Y-158213799D02*
X148162927Y-158451894D01*
X148162927Y-157832846D01*
X146407142Y-150661666D02*
X146454761Y-150709285D01*
X146502380Y-150852142D01*
X146502380Y-150947380D01*
X146454761Y-151090238D01*
X146359523Y-151185476D01*
X146264285Y-151233095D01*
X146073809Y-151280714D01*
X145930952Y-151280714D01*
X145740476Y-151233095D01*
X145645238Y-151185476D01*
X145550000Y-151090238D01*
X145502380Y-150947380D01*
X145502380Y-150852142D01*
X145550000Y-150709285D01*
X145597619Y-150661666D01*
X145502380Y-150328333D02*
X145502380Y-149709285D01*
X145883333Y-150042619D01*
X145883333Y-149899761D01*
X145930952Y-149804523D01*
X145978571Y-149756904D01*
X146073809Y-149709285D01*
X146311904Y-149709285D01*
X146407142Y-149756904D01*
X146454761Y-149804523D01*
X146502380Y-149899761D01*
X146502380Y-150185476D01*
X146454761Y-150280714D01*
X146407142Y-150328333D01*
X163901380Y-115450857D02*
X163425190Y-115784190D01*
X163901380Y-116022285D02*
X162901380Y-116022285D01*
X162901380Y-115641333D01*
X162949000Y-115546095D01*
X162996619Y-115498476D01*
X163091857Y-115450857D01*
X163234714Y-115450857D01*
X163329952Y-115498476D01*
X163377571Y-115546095D01*
X163425190Y-115641333D01*
X163425190Y-116022285D01*
X162901380Y-114546095D02*
X162901380Y-115022285D01*
X163377571Y-115069904D01*
X163329952Y-115022285D01*
X163282333Y-114927047D01*
X163282333Y-114688952D01*
X163329952Y-114593714D01*
X163377571Y-114546095D01*
X163472809Y-114498476D01*
X163710904Y-114498476D01*
X163806142Y-114546095D01*
X163853761Y-114593714D01*
X163901380Y-114688952D01*
X163901380Y-114927047D01*
X163853761Y-115022285D01*
X163806142Y-115069904D01*
X162901380Y-114165142D02*
X162901380Y-113498476D01*
X163901380Y-113927047D01*
X167666666Y-108032380D02*
X167666666Y-108746666D01*
X167619047Y-108889523D01*
X167523809Y-108984761D01*
X167380952Y-109032380D01*
X167285714Y-109032380D01*
X168666666Y-109032380D02*
X168095238Y-109032380D01*
X168380952Y-109032380D02*
X168380952Y-108032380D01*
X168285714Y-108175238D01*
X168190476Y-108270476D01*
X168095238Y-108318095D01*
X136048809Y-164441190D02*
X136048809Y-164917380D01*
X135715476Y-163917380D02*
X136048809Y-164441190D01*
X136382142Y-163917380D01*
X137239285Y-164917380D02*
X136667857Y-164917380D01*
X136953571Y-164917380D02*
X136953571Y-163917380D01*
X136858333Y-164060238D01*
X136763095Y-164155476D01*
X136667857Y-164203095D01*
X176337980Y-158743495D02*
X177147504Y-158743495D01*
X177242742Y-158695876D01*
X177290361Y-158648257D01*
X177337980Y-158553019D01*
X177337980Y-158362542D01*
X177290361Y-158267304D01*
X177242742Y-158219685D01*
X177147504Y-158172066D01*
X176337980Y-158172066D01*
X177337980Y-157172066D02*
X177337980Y-157743495D01*
X177337980Y-157457780D02*
X176337980Y-157457780D01*
X176480838Y-157553019D01*
X176576076Y-157648257D01*
X176623695Y-157743495D01*
X176337980Y-156553019D02*
X176337980Y-156457780D01*
X176385600Y-156362542D01*
X176433219Y-156314923D01*
X176528457Y-156267304D01*
X176718933Y-156219685D01*
X176957028Y-156219685D01*
X177147504Y-156267304D01*
X177242742Y-156314923D01*
X177290361Y-156362542D01*
X177337980Y-156457780D01*
X177337980Y-156553019D01*
X177290361Y-156648257D01*
X177242742Y-156695876D01*
X177147504Y-156743495D01*
X176957028Y-156791114D01*
X176718933Y-156791114D01*
X176528457Y-156743495D01*
X176433219Y-156695876D01*
X176385600Y-156648257D01*
X176337980Y-156553019D01*
X154180195Y-100891570D02*
X154180195Y-101701094D01*
X154227814Y-101796332D01*
X154275433Y-101843951D01*
X154370671Y-101891570D01*
X154561147Y-101891570D01*
X154656385Y-101843951D01*
X154704004Y-101796332D01*
X154751623Y-101701094D01*
X154751623Y-100891570D01*
X155370671Y-101320142D02*
X155275433Y-101272523D01*
X155227814Y-101224904D01*
X155180195Y-101129666D01*
X155180195Y-101082047D01*
X155227814Y-100986809D01*
X155275433Y-100939190D01*
X155370671Y-100891570D01*
X155561147Y-100891570D01*
X155656385Y-100939190D01*
X155704004Y-100986809D01*
X155751623Y-101082047D01*
X155751623Y-101129666D01*
X155704004Y-101224904D01*
X155656385Y-101272523D01*
X155561147Y-101320142D01*
X155370671Y-101320142D01*
X155275433Y-101367761D01*
X155227814Y-101415380D01*
X155180195Y-101510618D01*
X155180195Y-101701094D01*
X155227814Y-101796332D01*
X155275433Y-101843951D01*
X155370671Y-101891570D01*
X155561147Y-101891570D01*
X155656385Y-101843951D01*
X155704004Y-101796332D01*
X155751623Y-101701094D01*
X155751623Y-101510618D01*
X155704004Y-101415380D01*
X155656385Y-101367761D01*
X155561147Y-101320142D01*
X117284595Y-170715080D02*
X117284595Y-171524604D01*
X117332214Y-171619842D01*
X117379833Y-171667461D01*
X117475071Y-171715080D01*
X117665547Y-171715080D01*
X117760785Y-171667461D01*
X117808404Y-171619842D01*
X117856023Y-171524604D01*
X117856023Y-170715080D01*
X118760785Y-170715080D02*
X118570309Y-170715080D01*
X118475071Y-170762700D01*
X118427452Y-170810319D01*
X118332214Y-170953176D01*
X118284595Y-171143652D01*
X118284595Y-171524604D01*
X118332214Y-171619842D01*
X118379833Y-171667461D01*
X118475071Y-171715080D01*
X118665547Y-171715080D01*
X118760785Y-171667461D01*
X118808404Y-171619842D01*
X118856023Y-171524604D01*
X118856023Y-171286509D01*
X118808404Y-171191271D01*
X118760785Y-171143652D01*
X118665547Y-171096033D01*
X118475071Y-171096033D01*
X118379833Y-171143652D01*
X118332214Y-171191271D01*
X118284595Y-171286509D01*
X124193380Y-161328004D02*
X125002904Y-161328004D01*
X125098142Y-161280385D01*
X125145761Y-161232766D01*
X125193380Y-161137528D01*
X125193380Y-160947052D01*
X125145761Y-160851814D01*
X125098142Y-160804195D01*
X125002904Y-160756576D01*
X124193380Y-160756576D01*
X124193380Y-159804195D02*
X124193380Y-160280385D01*
X124669571Y-160328004D01*
X124621952Y-160280385D01*
X124574333Y-160185147D01*
X124574333Y-159947052D01*
X124621952Y-159851814D01*
X124669571Y-159804195D01*
X124764809Y-159756576D01*
X125002904Y-159756576D01*
X125098142Y-159804195D01*
X125145761Y-159851814D01*
X125193380Y-159947052D01*
X125193380Y-160185147D01*
X125145761Y-160280385D01*
X125098142Y-160328004D01*
X160655095Y-162753180D02*
X160655095Y-163562704D01*
X160702714Y-163657942D01*
X160750333Y-163705561D01*
X160845571Y-163753180D01*
X161036047Y-163753180D01*
X161131285Y-163705561D01*
X161178904Y-163657942D01*
X161226523Y-163562704D01*
X161226523Y-162753180D01*
X161607476Y-162753180D02*
X162226523Y-162753180D01*
X161893190Y-163134133D01*
X162036047Y-163134133D01*
X162131285Y-163181752D01*
X162178904Y-163229371D01*
X162226523Y-163324609D01*
X162226523Y-163562704D01*
X162178904Y-163657942D01*
X162131285Y-163705561D01*
X162036047Y-163753180D01*
X161750333Y-163753180D01*
X161655095Y-163705561D01*
X161607476Y-163657942D01*
X181824380Y-139699904D02*
X182633904Y-139699904D01*
X182729142Y-139652285D01*
X182776761Y-139604666D01*
X182824380Y-139509428D01*
X182824380Y-139318952D01*
X182776761Y-139223714D01*
X182729142Y-139176095D01*
X182633904Y-139128476D01*
X181824380Y-139128476D01*
X181919619Y-138699904D02*
X181872000Y-138652285D01*
X181824380Y-138557047D01*
X181824380Y-138318952D01*
X181872000Y-138223714D01*
X181919619Y-138176095D01*
X182014857Y-138128476D01*
X182110095Y-138128476D01*
X182252952Y-138176095D01*
X182824380Y-138747523D01*
X182824380Y-138128476D01*
X130037880Y-158000604D02*
X130847404Y-158000604D01*
X130942642Y-157952985D01*
X130990261Y-157905366D01*
X131037880Y-157810128D01*
X131037880Y-157619652D01*
X130990261Y-157524414D01*
X130942642Y-157476795D01*
X130847404Y-157429176D01*
X130037880Y-157429176D01*
X131037880Y-156429176D02*
X131037880Y-157000604D01*
X131037880Y-156714890D02*
X130037880Y-156714890D01*
X130180738Y-156810128D01*
X130275976Y-156905366D01*
X130323595Y-157000604D01*
X159224742Y-169832280D02*
X158891409Y-169356090D01*
X158653314Y-169832280D02*
X158653314Y-168832280D01*
X159034266Y-168832280D01*
X159129504Y-168879900D01*
X159177123Y-168927519D01*
X159224742Y-169022757D01*
X159224742Y-169165614D01*
X159177123Y-169260852D01*
X159129504Y-169308471D01*
X159034266Y-169356090D01*
X158653314Y-169356090D01*
X160081885Y-169165614D02*
X160081885Y-169832280D01*
X159843790Y-168784661D02*
X159605695Y-169498947D01*
X160224742Y-169498947D01*
X160558076Y-168927519D02*
X160605695Y-168879900D01*
X160700933Y-168832280D01*
X160939028Y-168832280D01*
X161034266Y-168879900D01*
X161081885Y-168927519D01*
X161129504Y-169022757D01*
X161129504Y-169117995D01*
X161081885Y-169260852D01*
X160510457Y-169832280D01*
X161129504Y-169832280D01*
X159173942Y-167584380D02*
X158840609Y-167108190D01*
X158602514Y-167584380D02*
X158602514Y-166584380D01*
X158983466Y-166584380D01*
X159078704Y-166632000D01*
X159126323Y-166679619D01*
X159173942Y-166774857D01*
X159173942Y-166917714D01*
X159126323Y-167012952D01*
X159078704Y-167060571D01*
X158983466Y-167108190D01*
X158602514Y-167108190D01*
X160031085Y-166917714D02*
X160031085Y-167584380D01*
X159792990Y-166536761D02*
X159554895Y-167251047D01*
X160173942Y-167251047D01*
X161078704Y-167584380D02*
X160507276Y-167584380D01*
X160792990Y-167584380D02*
X160792990Y-166584380D01*
X160697752Y-166727238D01*
X160602514Y-166822476D01*
X160507276Y-166870095D01*
X108909380Y-206205057D02*
X108433190Y-206538390D01*
X108909380Y-206776485D02*
X107909380Y-206776485D01*
X107909380Y-206395533D01*
X107957000Y-206300295D01*
X108004619Y-206252676D01*
X108099857Y-206205057D01*
X108242714Y-206205057D01*
X108337952Y-206252676D01*
X108385571Y-206300295D01*
X108433190Y-206395533D01*
X108433190Y-206776485D01*
X108242714Y-205347914D02*
X108909380Y-205347914D01*
X107861761Y-205586009D02*
X108576047Y-205824104D01*
X108576047Y-205205057D01*
X107909380Y-204633628D02*
X107909380Y-204538390D01*
X107957000Y-204443152D01*
X108004619Y-204395533D01*
X108099857Y-204347914D01*
X108290333Y-204300295D01*
X108528428Y-204300295D01*
X108718904Y-204347914D01*
X108814142Y-204395533D01*
X108861761Y-204443152D01*
X108909380Y-204538390D01*
X108909380Y-204633628D01*
X108861761Y-204728866D01*
X108814142Y-204776485D01*
X108718904Y-204824104D01*
X108528428Y-204871723D01*
X108290333Y-204871723D01*
X108099857Y-204824104D01*
X108004619Y-204776485D01*
X107957000Y-204728866D01*
X107909380Y-204633628D01*
X136612333Y-173751480D02*
X136279000Y-173275290D01*
X136040904Y-173751480D02*
X136040904Y-172751480D01*
X136421857Y-172751480D01*
X136517095Y-172799100D01*
X136564714Y-172846719D01*
X136612333Y-172941957D01*
X136612333Y-173084814D01*
X136564714Y-173180052D01*
X136517095Y-173227671D01*
X136421857Y-173275290D01*
X136040904Y-173275290D01*
X137469476Y-172751480D02*
X137279000Y-172751480D01*
X137183761Y-172799100D01*
X137136142Y-172846719D01*
X137040904Y-172989576D01*
X136993285Y-173180052D01*
X136993285Y-173561004D01*
X137040904Y-173656242D01*
X137088523Y-173703861D01*
X137183761Y-173751480D01*
X137374238Y-173751480D01*
X137469476Y-173703861D01*
X137517095Y-173656242D01*
X137564714Y-173561004D01*
X137564714Y-173322909D01*
X137517095Y-173227671D01*
X137469476Y-173180052D01*
X137374238Y-173132433D01*
X137183761Y-173132433D01*
X137088523Y-173180052D01*
X137040904Y-173227671D01*
X136993285Y-173322909D01*
X161869380Y-212383666D02*
X161393190Y-212717000D01*
X161869380Y-212955095D02*
X160869380Y-212955095D01*
X160869380Y-212574142D01*
X160917000Y-212478904D01*
X160964619Y-212431285D01*
X161059857Y-212383666D01*
X161202714Y-212383666D01*
X161297952Y-212431285D01*
X161345571Y-212478904D01*
X161393190Y-212574142D01*
X161393190Y-212955095D01*
X161202714Y-211526523D02*
X161869380Y-211526523D01*
X160821761Y-211764619D02*
X161536047Y-212002714D01*
X161536047Y-211383666D01*
X168126940Y-212551306D02*
X167650750Y-212884640D01*
X168126940Y-213122735D02*
X167126940Y-213122735D01*
X167126940Y-212741782D01*
X167174560Y-212646544D01*
X167222179Y-212598925D01*
X167317417Y-212551306D01*
X167460274Y-212551306D01*
X167555512Y-212598925D01*
X167603131Y-212646544D01*
X167650750Y-212741782D01*
X167650750Y-213122735D01*
X168126940Y-211598925D02*
X168126940Y-212170354D01*
X168126940Y-211884640D02*
X167126940Y-211884640D01*
X167269798Y-211979878D01*
X167365036Y-212075116D01*
X167412655Y-212170354D01*
X153025100Y-136767866D02*
X153025100Y-137244057D01*
X152025100Y-137244057D01*
X152025100Y-136529771D02*
X152025100Y-135910723D01*
X152406053Y-136244057D01*
X152406053Y-136101200D01*
X152453672Y-136005961D01*
X152501291Y-135958342D01*
X152596529Y-135910723D01*
X152834624Y-135910723D01*
X152929862Y-135958342D01*
X152977481Y-136005961D01*
X153025100Y-136101200D01*
X153025100Y-136386914D01*
X152977481Y-136482152D01*
X152929862Y-136529771D01*
X168600380Y-140247666D02*
X168600380Y-140723857D01*
X167600380Y-140723857D01*
X167695619Y-139961952D02*
X167648000Y-139914333D01*
X167600380Y-139819095D01*
X167600380Y-139581000D01*
X167648000Y-139485761D01*
X167695619Y-139438142D01*
X167790857Y-139390523D01*
X167886095Y-139390523D01*
X168028952Y-139438142D01*
X168600380Y-140009571D01*
X168600380Y-139390523D01*
X182484733Y-135559980D02*
X182008542Y-135559980D01*
X182008542Y-134559980D01*
X183341876Y-135559980D02*
X182770447Y-135559980D01*
X183056161Y-135559980D02*
X183056161Y-134559980D01*
X182960923Y-134702838D01*
X182865685Y-134798076D01*
X182770447Y-134845695D01*
X130452380Y-208683333D02*
X131166666Y-208683333D01*
X131309523Y-208730952D01*
X131404761Y-208826190D01*
X131452380Y-208969047D01*
X131452380Y-209064285D01*
X130452380Y-208302380D02*
X130452380Y-207683333D01*
X130833333Y-208016666D01*
X130833333Y-207873809D01*
X130880952Y-207778571D01*
X130928571Y-207730952D01*
X131023809Y-207683333D01*
X131261904Y-207683333D01*
X131357142Y-207730952D01*
X131404761Y-207778571D01*
X131452380Y-207873809D01*
X131452380Y-208159523D01*
X131404761Y-208254761D01*
X131357142Y-208302380D01*
X175534586Y-96202200D02*
X175534586Y-96916486D01*
X175486967Y-97059343D01*
X175391729Y-97154581D01*
X175248872Y-97202200D01*
X175153634Y-97202200D01*
X175963158Y-96297439D02*
X176010777Y-96249820D01*
X176106015Y-96202200D01*
X176344110Y-96202200D01*
X176439348Y-96249820D01*
X176486967Y-96297439D01*
X176534586Y-96392677D01*
X176534586Y-96487915D01*
X176486967Y-96630772D01*
X175915539Y-97202200D01*
X176534586Y-97202200D01*
X103238095Y-212252380D02*
X103238095Y-211252380D01*
X103238095Y-211728571D02*
X103809523Y-211728571D01*
X103809523Y-212252380D02*
X103809523Y-211252380D01*
X104428571Y-211680952D02*
X104333333Y-211633333D01*
X104285714Y-211585714D01*
X104238095Y-211490476D01*
X104238095Y-211442857D01*
X104285714Y-211347619D01*
X104333333Y-211300000D01*
X104428571Y-211252380D01*
X104619047Y-211252380D01*
X104714285Y-211300000D01*
X104761904Y-211347619D01*
X104809523Y-211442857D01*
X104809523Y-211490476D01*
X104761904Y-211585714D01*
X104714285Y-211633333D01*
X104619047Y-211680952D01*
X104428571Y-211680952D01*
X104333333Y-211728571D01*
X104285714Y-211776190D01*
X104238095Y-211871428D01*
X104238095Y-212061904D01*
X104285714Y-212157142D01*
X104333333Y-212204761D01*
X104428571Y-212252380D01*
X104619047Y-212252380D01*
X104714285Y-212204761D01*
X104761904Y-212157142D01*
X104809523Y-212061904D01*
X104809523Y-211871428D01*
X104761904Y-211776190D01*
X104714285Y-211728571D01*
X104619047Y-211680952D01*
X103238095Y-107752380D02*
X103238095Y-106752380D01*
X103238095Y-107228571D02*
X103809523Y-107228571D01*
X103809523Y-107752380D02*
X103809523Y-106752380D01*
X104190476Y-106752380D02*
X104857142Y-106752380D01*
X104428571Y-107752380D01*
X189238095Y-212252380D02*
X189238095Y-211252380D01*
X189238095Y-211728571D02*
X189809523Y-211728571D01*
X189809523Y-212252380D02*
X189809523Y-211252380D01*
X190714285Y-211252380D02*
X190523809Y-211252380D01*
X190428571Y-211300000D01*
X190380952Y-211347619D01*
X190285714Y-211490476D01*
X190238095Y-211680952D01*
X190238095Y-212061904D01*
X190285714Y-212157142D01*
X190333333Y-212204761D01*
X190428571Y-212252380D01*
X190619047Y-212252380D01*
X190714285Y-212204761D01*
X190761904Y-212157142D01*
X190809523Y-212061904D01*
X190809523Y-211823809D01*
X190761904Y-211728571D01*
X190714285Y-211680952D01*
X190619047Y-211633333D01*
X190428571Y-211633333D01*
X190333333Y-211680952D01*
X190285714Y-211728571D01*
X190238095Y-211823809D01*
X189238095Y-111252380D02*
X189238095Y-110252380D01*
X189238095Y-110728571D02*
X189809523Y-110728571D01*
X189809523Y-111252380D02*
X189809523Y-110252380D01*
X190761904Y-110252380D02*
X190285714Y-110252380D01*
X190238095Y-110728571D01*
X190285714Y-110680952D01*
X190380952Y-110633333D01*
X190619047Y-110633333D01*
X190714285Y-110680952D01*
X190761904Y-110728571D01*
X190809523Y-110823809D01*
X190809523Y-111061904D01*
X190761904Y-111157142D01*
X190714285Y-111204761D01*
X190619047Y-111252380D01*
X190380952Y-111252380D01*
X190285714Y-111204761D01*
X190238095Y-111157142D01*
X182522904Y-115260380D02*
X182522904Y-114260380D01*
X182761000Y-114260380D01*
X182903857Y-114308000D01*
X182999095Y-114403238D01*
X183046714Y-114498476D01*
X183094333Y-114688952D01*
X183094333Y-114831809D01*
X183046714Y-115022285D01*
X182999095Y-115117523D01*
X182903857Y-115212761D01*
X182761000Y-115260380D01*
X182522904Y-115260380D01*
X183999095Y-114260380D02*
X183522904Y-114260380D01*
X183475285Y-114736571D01*
X183522904Y-114688952D01*
X183618142Y-114641333D01*
X183856238Y-114641333D01*
X183951476Y-114688952D01*
X183999095Y-114736571D01*
X184046714Y-114831809D01*
X184046714Y-115069904D01*
X183999095Y-115165142D01*
X183951476Y-115212761D01*
X183856238Y-115260380D01*
X183618142Y-115260380D01*
X183522904Y-115212761D01*
X183475285Y-115165142D01*
X170367580Y-114047495D02*
X169367580Y-114047495D01*
X169367580Y-113809400D01*
X169415200Y-113666542D01*
X169510438Y-113571304D01*
X169605676Y-113523685D01*
X169796152Y-113476066D01*
X169939009Y-113476066D01*
X170129485Y-113523685D01*
X170224723Y-113571304D01*
X170319961Y-113666542D01*
X170367580Y-113809400D01*
X170367580Y-114047495D01*
X169700914Y-112618923D02*
X170367580Y-112618923D01*
X169319961Y-112857019D02*
X170034247Y-113095114D01*
X170034247Y-112476066D01*
X165708104Y-127263780D02*
X165708104Y-126263780D01*
X165946200Y-126263780D01*
X166089057Y-126311400D01*
X166184295Y-126406638D01*
X166231914Y-126501876D01*
X166279533Y-126692352D01*
X166279533Y-126835209D01*
X166231914Y-127025685D01*
X166184295Y-127120923D01*
X166089057Y-127216161D01*
X165946200Y-127263780D01*
X165708104Y-127263780D01*
X166612866Y-126263780D02*
X167231914Y-126263780D01*
X166898580Y-126644733D01*
X167041438Y-126644733D01*
X167136676Y-126692352D01*
X167184295Y-126739971D01*
X167231914Y-126835209D01*
X167231914Y-127073304D01*
X167184295Y-127168542D01*
X167136676Y-127216161D01*
X167041438Y-127263780D01*
X166755723Y-127263780D01*
X166660485Y-127216161D01*
X166612866Y-127168542D01*
X162022780Y-217044495D02*
X161022780Y-217044495D01*
X161022780Y-216806400D01*
X161070400Y-216663542D01*
X161165638Y-216568304D01*
X161260876Y-216520685D01*
X161451352Y-216473066D01*
X161594209Y-216473066D01*
X161784685Y-216520685D01*
X161879923Y-216568304D01*
X161975161Y-216663542D01*
X162022780Y-216806400D01*
X162022780Y-217044495D01*
X161118019Y-216092114D02*
X161070400Y-216044495D01*
X161022780Y-215949257D01*
X161022780Y-215711161D01*
X161070400Y-215615923D01*
X161118019Y-215568304D01*
X161213257Y-215520685D01*
X161308495Y-215520685D01*
X161451352Y-215568304D01*
X162022780Y-216139733D01*
X162022780Y-215520685D01*
X168092380Y-216892095D02*
X167092380Y-216892095D01*
X167092380Y-216654000D01*
X167140000Y-216511142D01*
X167235238Y-216415904D01*
X167330476Y-216368285D01*
X167520952Y-216320666D01*
X167663809Y-216320666D01*
X167854285Y-216368285D01*
X167949523Y-216415904D01*
X168044761Y-216511142D01*
X168092380Y-216654000D01*
X168092380Y-216892095D01*
X168092380Y-215368285D02*
X168092380Y-215939714D01*
X168092380Y-215654000D02*
X167092380Y-215654000D01*
X167235238Y-215749238D01*
X167330476Y-215844476D01*
X167378095Y-215939714D01*
X182691042Y-195473557D02*
X182738661Y-195521176D01*
X182786280Y-195664033D01*
X182786280Y-195759271D01*
X182738661Y-195902128D01*
X182643423Y-195997366D01*
X182548185Y-196044985D01*
X182357709Y-196092604D01*
X182214852Y-196092604D01*
X182024376Y-196044985D01*
X181929138Y-195997366D01*
X181833900Y-195902128D01*
X181786280Y-195759271D01*
X181786280Y-195664033D01*
X181833900Y-195521176D01*
X181881519Y-195473557D01*
X181786280Y-195140223D02*
X181786280Y-194473557D01*
X182786280Y-194902128D01*
X181881519Y-194140223D02*
X181833900Y-194092604D01*
X181786280Y-193997366D01*
X181786280Y-193759271D01*
X181833900Y-193664033D01*
X181881519Y-193616414D01*
X181976757Y-193568795D01*
X182071995Y-193568795D01*
X182214852Y-193616414D01*
X182786280Y-194187842D01*
X182786280Y-193568795D01*
X182754542Y-199512157D02*
X182802161Y-199559776D01*
X182849780Y-199702633D01*
X182849780Y-199797871D01*
X182802161Y-199940728D01*
X182706923Y-200035966D01*
X182611685Y-200083585D01*
X182421209Y-200131204D01*
X182278352Y-200131204D01*
X182087876Y-200083585D01*
X181992638Y-200035966D01*
X181897400Y-199940728D01*
X181849780Y-199797871D01*
X181849780Y-199702633D01*
X181897400Y-199559776D01*
X181945019Y-199512157D01*
X181849780Y-199178823D02*
X181849780Y-198512157D01*
X182849780Y-198940728D01*
X182849780Y-197607395D02*
X182849780Y-198178823D01*
X182849780Y-197893109D02*
X181849780Y-197893109D01*
X181992638Y-197988347D01*
X182087876Y-198083585D01*
X182135495Y-198178823D01*
X185869342Y-165914342D02*
X185821723Y-165961961D01*
X185678866Y-166009580D01*
X185583628Y-166009580D01*
X185440771Y-165961961D01*
X185345533Y-165866723D01*
X185297914Y-165771485D01*
X185250295Y-165581009D01*
X185250295Y-165438152D01*
X185297914Y-165247676D01*
X185345533Y-165152438D01*
X185440771Y-165057200D01*
X185583628Y-165009580D01*
X185678866Y-165009580D01*
X185821723Y-165057200D01*
X185869342Y-165104819D01*
X186774104Y-165009580D02*
X186297914Y-165009580D01*
X186250295Y-165485771D01*
X186297914Y-165438152D01*
X186393152Y-165390533D01*
X186631247Y-165390533D01*
X186726485Y-165438152D01*
X186774104Y-165485771D01*
X186821723Y-165581009D01*
X186821723Y-165819104D01*
X186774104Y-165914342D01*
X186726485Y-165961961D01*
X186631247Y-166009580D01*
X186393152Y-166009580D01*
X186297914Y-165961961D01*
X186250295Y-165914342D01*
X187155057Y-165009580D02*
X187821723Y-165009580D01*
X187393152Y-166009580D01*
X167781242Y-150134557D02*
X167828861Y-150182176D01*
X167876480Y-150325033D01*
X167876480Y-150420271D01*
X167828861Y-150563128D01*
X167733623Y-150658366D01*
X167638385Y-150705985D01*
X167447909Y-150753604D01*
X167305052Y-150753604D01*
X167114576Y-150705985D01*
X167019338Y-150658366D01*
X166924100Y-150563128D01*
X166876480Y-150420271D01*
X166876480Y-150325033D01*
X166924100Y-150182176D01*
X166971719Y-150134557D01*
X166971719Y-149753604D02*
X166924100Y-149705985D01*
X166876480Y-149610747D01*
X166876480Y-149372652D01*
X166924100Y-149277414D01*
X166971719Y-149229795D01*
X167066957Y-149182176D01*
X167162195Y-149182176D01*
X167305052Y-149229795D01*
X167876480Y-149801223D01*
X167876480Y-149182176D01*
X166971719Y-148801223D02*
X166924100Y-148753604D01*
X166876480Y-148658366D01*
X166876480Y-148420271D01*
X166924100Y-148325033D01*
X166971719Y-148277414D01*
X167066957Y-148229795D01*
X167162195Y-148229795D01*
X167305052Y-148277414D01*
X167876480Y-148848842D01*
X167876480Y-148229795D01*
X152757142Y-141422357D02*
X152804761Y-141469976D01*
X152852380Y-141612833D01*
X152852380Y-141708071D01*
X152804761Y-141850928D01*
X152709523Y-141946166D01*
X152614285Y-141993785D01*
X152423809Y-142041404D01*
X152280952Y-142041404D01*
X152090476Y-141993785D01*
X151995238Y-141946166D01*
X151900000Y-141850928D01*
X151852380Y-141708071D01*
X151852380Y-141612833D01*
X151900000Y-141469976D01*
X151947619Y-141422357D01*
X151947619Y-141041404D02*
X151900000Y-140993785D01*
X151852380Y-140898547D01*
X151852380Y-140660452D01*
X151900000Y-140565214D01*
X151947619Y-140517595D01*
X152042857Y-140469976D01*
X152138095Y-140469976D01*
X152280952Y-140517595D01*
X152852380Y-141089023D01*
X152852380Y-140469976D01*
X152852380Y-139517595D02*
X152852380Y-140089023D01*
X152852380Y-139803309D02*
X151852380Y-139803309D01*
X151995238Y-139898547D01*
X152090476Y-139993785D01*
X152138095Y-140089023D01*
X162536142Y-137421857D02*
X162583761Y-137469476D01*
X162631380Y-137612333D01*
X162631380Y-137707571D01*
X162583761Y-137850428D01*
X162488523Y-137945666D01*
X162393285Y-137993285D01*
X162202809Y-138040904D01*
X162059952Y-138040904D01*
X161869476Y-137993285D01*
X161774238Y-137945666D01*
X161679000Y-137850428D01*
X161631380Y-137707571D01*
X161631380Y-137612333D01*
X161679000Y-137469476D01*
X161726619Y-137421857D01*
X161726619Y-137040904D02*
X161679000Y-136993285D01*
X161631380Y-136898047D01*
X161631380Y-136659952D01*
X161679000Y-136564714D01*
X161726619Y-136517095D01*
X161821857Y-136469476D01*
X161917095Y-136469476D01*
X162059952Y-136517095D01*
X162631380Y-137088523D01*
X162631380Y-136469476D01*
X161631380Y-135850428D02*
X161631380Y-135755190D01*
X161679000Y-135659952D01*
X161726619Y-135612333D01*
X161821857Y-135564714D01*
X162012333Y-135517095D01*
X162250428Y-135517095D01*
X162440904Y-135564714D01*
X162536142Y-135612333D01*
X162583761Y-135659952D01*
X162631380Y-135755190D01*
X162631380Y-135850428D01*
X162583761Y-135945666D01*
X162536142Y-135993285D01*
X162440904Y-136040904D01*
X162250428Y-136088523D01*
X162012333Y-136088523D01*
X161821857Y-136040904D01*
X161726619Y-135993285D01*
X161679000Y-135945666D01*
X161631380Y-135850428D01*
X166600142Y-137294857D02*
X166647761Y-137342476D01*
X166695380Y-137485333D01*
X166695380Y-137580571D01*
X166647761Y-137723428D01*
X166552523Y-137818666D01*
X166457285Y-137866285D01*
X166266809Y-137913904D01*
X166123952Y-137913904D01*
X165933476Y-137866285D01*
X165838238Y-137818666D01*
X165743000Y-137723428D01*
X165695380Y-137580571D01*
X165695380Y-137485333D01*
X165743000Y-137342476D01*
X165790619Y-137294857D01*
X166695380Y-136342476D02*
X166695380Y-136913904D01*
X166695380Y-136628190D02*
X165695380Y-136628190D01*
X165838238Y-136723428D01*
X165933476Y-136818666D01*
X165981095Y-136913904D01*
X166695380Y-135866285D02*
X166695380Y-135675809D01*
X166647761Y-135580571D01*
X166600142Y-135532952D01*
X166457285Y-135437714D01*
X166266809Y-135390095D01*
X165885857Y-135390095D01*
X165790619Y-135437714D01*
X165743000Y-135485333D01*
X165695380Y-135580571D01*
X165695380Y-135771047D01*
X165743000Y-135866285D01*
X165790619Y-135913904D01*
X165885857Y-135961523D01*
X166123952Y-135961523D01*
X166219190Y-135913904D01*
X166266809Y-135866285D01*
X166314428Y-135771047D01*
X166314428Y-135580571D01*
X166266809Y-135485333D01*
X166219190Y-135437714D01*
X166123952Y-135390095D01*
X164568142Y-137294857D02*
X164615761Y-137342476D01*
X164663380Y-137485333D01*
X164663380Y-137580571D01*
X164615761Y-137723428D01*
X164520523Y-137818666D01*
X164425285Y-137866285D01*
X164234809Y-137913904D01*
X164091952Y-137913904D01*
X163901476Y-137866285D01*
X163806238Y-137818666D01*
X163711000Y-137723428D01*
X163663380Y-137580571D01*
X163663380Y-137485333D01*
X163711000Y-137342476D01*
X163758619Y-137294857D01*
X164663380Y-136342476D02*
X164663380Y-136913904D01*
X164663380Y-136628190D02*
X163663380Y-136628190D01*
X163806238Y-136723428D01*
X163901476Y-136818666D01*
X163949095Y-136913904D01*
X164091952Y-135771047D02*
X164044333Y-135866285D01*
X163996714Y-135913904D01*
X163901476Y-135961523D01*
X163853857Y-135961523D01*
X163758619Y-135913904D01*
X163711000Y-135866285D01*
X163663380Y-135771047D01*
X163663380Y-135580571D01*
X163711000Y-135485333D01*
X163758619Y-135437714D01*
X163853857Y-135390095D01*
X163901476Y-135390095D01*
X163996714Y-135437714D01*
X164044333Y-135485333D01*
X164091952Y-135580571D01*
X164091952Y-135771047D01*
X164139571Y-135866285D01*
X164187190Y-135913904D01*
X164282428Y-135961523D01*
X164472904Y-135961523D01*
X164568142Y-135913904D01*
X164615761Y-135866285D01*
X164663380Y-135771047D01*
X164663380Y-135580571D01*
X164615761Y-135485333D01*
X164568142Y-135437714D01*
X164472904Y-135390095D01*
X164282428Y-135390095D01*
X164187190Y-135437714D01*
X164139571Y-135485333D01*
X164091952Y-135580571D01*
X154621502Y-157861237D02*
X154669121Y-157908856D01*
X154716740Y-158051713D01*
X154716740Y-158146951D01*
X154669121Y-158289808D01*
X154573883Y-158385046D01*
X154478645Y-158432665D01*
X154288169Y-158480284D01*
X154145312Y-158480284D01*
X153954836Y-158432665D01*
X153859598Y-158385046D01*
X153764360Y-158289808D01*
X153716740Y-158146951D01*
X153716740Y-158051713D01*
X153764360Y-157908856D01*
X153811979Y-157861237D01*
X154716740Y-156908856D02*
X154716740Y-157480284D01*
X154716740Y-157194570D02*
X153716740Y-157194570D01*
X153859598Y-157289808D01*
X153954836Y-157385046D01*
X154002455Y-157480284D01*
X153716740Y-156575522D02*
X153716740Y-155908856D01*
X154716740Y-156337427D01*
X170197842Y-158199057D02*
X170245461Y-158246676D01*
X170293080Y-158389533D01*
X170293080Y-158484771D01*
X170245461Y-158627628D01*
X170150223Y-158722866D01*
X170054985Y-158770485D01*
X169864509Y-158818104D01*
X169721652Y-158818104D01*
X169531176Y-158770485D01*
X169435938Y-158722866D01*
X169340700Y-158627628D01*
X169293080Y-158484771D01*
X169293080Y-158389533D01*
X169340700Y-158246676D01*
X169388319Y-158199057D01*
X170293080Y-157246676D02*
X170293080Y-157818104D01*
X170293080Y-157532390D02*
X169293080Y-157532390D01*
X169435938Y-157627628D01*
X169531176Y-157722866D01*
X169578795Y-157818104D01*
X169293080Y-156341914D02*
X169293080Y-156818104D01*
X169769271Y-156865723D01*
X169721652Y-156818104D01*
X169674033Y-156722866D01*
X169674033Y-156484771D01*
X169721652Y-156389533D01*
X169769271Y-156341914D01*
X169864509Y-156294295D01*
X170102604Y-156294295D01*
X170197842Y-156341914D01*
X170245461Y-156389533D01*
X170293080Y-156484771D01*
X170293080Y-156722866D01*
X170245461Y-156818104D01*
X170197842Y-156865723D01*
X187406342Y-136786857D02*
X187453961Y-136834476D01*
X187501580Y-136977333D01*
X187501580Y-137072571D01*
X187453961Y-137215428D01*
X187358723Y-137310666D01*
X187263485Y-137358285D01*
X187073009Y-137405904D01*
X186930152Y-137405904D01*
X186739676Y-137358285D01*
X186644438Y-137310666D01*
X186549200Y-137215428D01*
X186501580Y-137072571D01*
X186501580Y-136977333D01*
X186549200Y-136834476D01*
X186596819Y-136786857D01*
X187501580Y-135834476D02*
X187501580Y-136405904D01*
X187501580Y-136120190D02*
X186501580Y-136120190D01*
X186644438Y-136215428D01*
X186739676Y-136310666D01*
X186787295Y-136405904D01*
X186596819Y-135453523D02*
X186549200Y-135405904D01*
X186501580Y-135310666D01*
X186501580Y-135072571D01*
X186549200Y-134977333D01*
X186596819Y-134929714D01*
X186692057Y-134882095D01*
X186787295Y-134882095D01*
X186930152Y-134929714D01*
X187501580Y-135501142D01*
X187501580Y-134882095D01*
X139184142Y-172188142D02*
X139136523Y-172235761D01*
X138993666Y-172283380D01*
X138898428Y-172283380D01*
X138755571Y-172235761D01*
X138660333Y-172140523D01*
X138612714Y-172045285D01*
X138565095Y-171854809D01*
X138565095Y-171711952D01*
X138612714Y-171521476D01*
X138660333Y-171426238D01*
X138755571Y-171331000D01*
X138898428Y-171283380D01*
X138993666Y-171283380D01*
X139136523Y-171331000D01*
X139184142Y-171378619D01*
X140136523Y-172283380D02*
X139565095Y-172283380D01*
X139850809Y-172283380D02*
X139850809Y-171283380D01*
X139755571Y-171426238D01*
X139660333Y-171521476D01*
X139565095Y-171569095D01*
X141088904Y-172283380D02*
X140517476Y-172283380D01*
X140803190Y-172283380D02*
X140803190Y-171283380D01*
X140707952Y-171426238D01*
X140612714Y-171521476D01*
X140517476Y-171569095D01*
X132453142Y-172188142D02*
X132405523Y-172235761D01*
X132262666Y-172283380D01*
X132167428Y-172283380D01*
X132024571Y-172235761D01*
X131929333Y-172140523D01*
X131881714Y-172045285D01*
X131834095Y-171854809D01*
X131834095Y-171711952D01*
X131881714Y-171521476D01*
X131929333Y-171426238D01*
X132024571Y-171331000D01*
X132167428Y-171283380D01*
X132262666Y-171283380D01*
X132405523Y-171331000D01*
X132453142Y-171378619D01*
X133405523Y-172283380D02*
X132834095Y-172283380D01*
X133119809Y-172283380D02*
X133119809Y-171283380D01*
X133024571Y-171426238D01*
X132929333Y-171521476D01*
X132834095Y-171569095D01*
X134024571Y-171283380D02*
X134119809Y-171283380D01*
X134215047Y-171331000D01*
X134262666Y-171378619D01*
X134310285Y-171473857D01*
X134357904Y-171664333D01*
X134357904Y-171902428D01*
X134310285Y-172092904D01*
X134262666Y-172188142D01*
X134215047Y-172235761D01*
X134119809Y-172283380D01*
X134024571Y-172283380D01*
X133929333Y-172235761D01*
X133881714Y-172188142D01*
X133834095Y-172092904D01*
X133786476Y-171902428D01*
X133786476Y-171664333D01*
X133834095Y-171473857D01*
X133881714Y-171378619D01*
X133929333Y-171331000D01*
X134024571Y-171283380D01*
M02*
