G04 #@! TF.GenerationSoftware,KiCad,Pcbnew,5.1.9*
G04 #@! TF.CreationDate,2021-06-24T12:15:12+08:00*
G04 #@! TF.ProjectId,digital-amplifier2,64696769-7461-46c2-9d61-6d706c696669,rev?*
G04 #@! TF.SameCoordinates,Original*
G04 #@! TF.FileFunction,Paste,Top*
G04 #@! TF.FilePolarity,Positive*
%FSLAX46Y46*%
G04 Gerber Fmt 4.6, Leading zero omitted, Abs format (unit mm)*
G04 Created by KiCad (PCBNEW 5.1.9) date 2021-06-24 12:15:12*
%MOMM*%
%LPD*%
G01*
G04 APERTURE LIST*
%ADD10C,0.152400*%
%ADD11R,2.000000X1.500000*%
%ADD12R,2.000000X3.800000*%
%ADD13R,3.810000X2.789999*%
%ADD14R,0.558000X1.969999*%
%ADD15R,2.400000X1.500000*%
%ADD16R,1.400000X1.400000*%
%ADD17R,0.400000X1.100000*%
%ADD18R,2.300000X3.100000*%
%ADD19R,0.300000X1.100000*%
%ADD20R,0.600000X1.160000*%
%ADD21R,0.300000X1.160000*%
%ADD22R,2.000000X2.400000*%
%ADD23R,0.450000X1.750000*%
%ADD24R,1.500000X2.400000*%
%ADD25R,2.500000X1.800000*%
%ADD26R,1.800000X2.500000*%
G04 APERTURE END LIST*
D10*
X141070000Y-184696830D02*
X141070000Y-184988079D01*
X141618970Y-184696830D02*
X141070000Y-184696830D01*
X141618970Y-185129500D02*
X141618970Y-184696830D01*
X141211421Y-185129500D02*
X141618970Y-185129500D01*
X141211421Y-185129500D02*
X141211421Y-185129500D01*
X141070000Y-184988079D02*
X141211421Y-185129500D01*
X141070000Y-184988079D02*
X141070000Y-184988079D01*
X140282600Y-184696830D02*
X140282600Y-184988079D01*
X140870000Y-184696830D02*
X140282600Y-184696830D01*
X140870000Y-184988079D02*
X140870000Y-184696830D01*
X140870000Y-184988079D02*
X140870000Y-184988079D01*
X140728579Y-185129500D02*
X140870000Y-184988079D01*
X140728579Y-185129500D02*
X140728579Y-185129500D01*
X140424021Y-185129500D02*
X140728579Y-185129500D01*
X140424021Y-185129500D02*
X140424021Y-185129500D01*
X140282600Y-184988079D02*
X140424021Y-185129500D01*
X140282600Y-184988079D02*
X140282600Y-184988079D01*
X139495200Y-184696830D02*
X139495200Y-184988079D01*
X140082600Y-184696830D02*
X139495200Y-184696830D01*
X140082600Y-184988079D02*
X140082600Y-184696830D01*
X140082600Y-184988079D02*
X140082600Y-184988079D01*
X139941179Y-185129500D02*
X140082600Y-184988079D01*
X139941179Y-185129500D02*
X139941179Y-185129500D01*
X139636621Y-185129500D02*
X139941179Y-185129500D01*
X139636621Y-185129500D02*
X139636621Y-185129500D01*
X139495200Y-184988079D02*
X139636621Y-185129500D01*
X139495200Y-184988079D02*
X139495200Y-184988079D01*
X138707800Y-184696830D02*
X138707800Y-184988079D01*
X139295200Y-184696830D02*
X138707800Y-184696830D01*
X139295200Y-184988079D02*
X139295200Y-184696830D01*
X139295200Y-184988079D02*
X139295200Y-184988079D01*
X139153779Y-185129500D02*
X139295200Y-184988079D01*
X139153779Y-185129500D02*
X139153779Y-185129500D01*
X138849221Y-185129500D02*
X139153779Y-185129500D01*
X138849221Y-185129500D02*
X138849221Y-185129500D01*
X138707800Y-184988079D02*
X138849221Y-185129500D01*
X138707800Y-184988079D02*
X138707800Y-184988079D01*
X137958830Y-184696830D02*
X137958830Y-185129500D01*
X138507800Y-184696830D02*
X137958830Y-184696830D01*
X138507800Y-184988079D02*
X138507800Y-184696830D01*
X138507800Y-184988079D02*
X138507800Y-184988079D01*
X138366379Y-185129500D02*
X138507800Y-184988079D01*
X138366379Y-185129500D02*
X138366379Y-185129500D01*
X137958830Y-185129500D02*
X138366379Y-185129500D01*
X141070000Y-185470921D02*
X141070000Y-185775479D01*
X141070000Y-185470921D02*
X141070000Y-185470921D01*
X141211421Y-185329500D02*
X141070000Y-185470921D01*
X141211421Y-185329500D02*
X141211421Y-185329500D01*
X141618970Y-185329500D02*
X141211421Y-185329500D01*
X141618970Y-185916900D02*
X141618970Y-185329500D01*
X141211421Y-185916900D02*
X141618970Y-185916900D01*
X141211421Y-185916900D02*
X141211421Y-185916900D01*
X141070000Y-185775479D02*
X141211421Y-185916900D01*
X141070000Y-185775479D02*
X141070000Y-185775479D01*
X140282600Y-185470921D02*
X140282600Y-185775479D01*
X140282600Y-185470921D02*
X140282600Y-185470921D01*
X140424021Y-185329500D02*
X140282600Y-185470921D01*
X140424021Y-185329500D02*
X140424021Y-185329500D01*
X140728579Y-185329500D02*
X140424021Y-185329500D01*
X140728579Y-185329500D02*
X140728579Y-185329500D01*
X140870000Y-185470921D02*
X140728579Y-185329500D01*
X140870000Y-185470921D02*
X140870000Y-185470921D01*
X140870000Y-185775479D02*
X140870000Y-185470921D01*
X140870000Y-185775479D02*
X140870000Y-185775479D01*
X140728579Y-185916900D02*
X140870000Y-185775479D01*
X140728579Y-185916900D02*
X140728579Y-185916900D01*
X140424021Y-185916900D02*
X140728579Y-185916900D01*
X140424021Y-185916900D02*
X140424021Y-185916900D01*
X140282600Y-185775479D02*
X140424021Y-185916900D01*
X140282600Y-185775479D02*
X140282600Y-185775479D01*
X139495200Y-185470921D02*
X139495200Y-185775479D01*
X139495200Y-185470921D02*
X139495200Y-185470921D01*
X139636621Y-185329500D02*
X139495200Y-185470921D01*
X139636621Y-185329500D02*
X139636621Y-185329500D01*
X139941179Y-185329500D02*
X139636621Y-185329500D01*
X139941179Y-185329500D02*
X139941179Y-185329500D01*
X140082600Y-185470921D02*
X139941179Y-185329500D01*
X140082600Y-185470921D02*
X140082600Y-185470921D01*
X140082600Y-185775479D02*
X140082600Y-185470921D01*
X140082600Y-185775479D02*
X140082600Y-185775479D01*
X139941179Y-185916900D02*
X140082600Y-185775479D01*
X139941179Y-185916900D02*
X139941179Y-185916900D01*
X139636621Y-185916900D02*
X139941179Y-185916900D01*
X139636621Y-185916900D02*
X139636621Y-185916900D01*
X139495200Y-185775479D02*
X139636621Y-185916900D01*
X139495200Y-185775479D02*
X139495200Y-185775479D01*
X138707800Y-185470921D02*
X138707800Y-185775479D01*
X138707800Y-185470921D02*
X138707800Y-185470921D01*
X138849221Y-185329500D02*
X138707800Y-185470921D01*
X138849221Y-185329500D02*
X138849221Y-185329500D01*
X139153779Y-185329500D02*
X138849221Y-185329500D01*
X139153779Y-185329500D02*
X139153779Y-185329500D01*
X139295200Y-185470921D02*
X139153779Y-185329500D01*
X139295200Y-185470921D02*
X139295200Y-185470921D01*
X139295200Y-185775479D02*
X139295200Y-185470921D01*
X139295200Y-185775479D02*
X139295200Y-185775479D01*
X139153779Y-185916900D02*
X139295200Y-185775479D01*
X139153779Y-185916900D02*
X139153779Y-185916900D01*
X138849221Y-185916900D02*
X139153779Y-185916900D01*
X138849221Y-185916900D02*
X138849221Y-185916900D01*
X138707800Y-185775479D02*
X138849221Y-185916900D01*
X138707800Y-185775479D02*
X138707800Y-185775479D01*
X137958830Y-185329500D02*
X137958830Y-185916900D01*
X138366379Y-185329500D02*
X137958830Y-185329500D01*
X138366379Y-185329500D02*
X138366379Y-185329500D01*
X138507800Y-185470921D02*
X138366379Y-185329500D01*
X138507800Y-185470921D02*
X138507800Y-185470921D01*
X138507800Y-185775479D02*
X138507800Y-185470921D01*
X138507800Y-185775479D02*
X138507800Y-185775479D01*
X138366379Y-185916900D02*
X138507800Y-185775479D01*
X138366379Y-185916900D02*
X138366379Y-185916900D01*
X137958830Y-185916900D02*
X138366379Y-185916900D01*
X141070000Y-186258321D02*
X141070000Y-186562879D01*
X141070000Y-186258321D02*
X141070000Y-186258321D01*
X141211421Y-186116900D02*
X141070000Y-186258321D01*
X141211421Y-186116900D02*
X141211421Y-186116900D01*
X141618970Y-186116900D02*
X141211421Y-186116900D01*
X141618970Y-186704300D02*
X141618970Y-186116900D01*
X141211421Y-186704300D02*
X141618970Y-186704300D01*
X141211421Y-186704300D02*
X141211421Y-186704300D01*
X141070000Y-186562879D02*
X141211421Y-186704300D01*
X141070000Y-186562879D02*
X141070000Y-186562879D01*
X140282600Y-186258321D02*
X140282600Y-186562879D01*
X140282600Y-186258321D02*
X140282600Y-186258321D01*
X140424021Y-186116900D02*
X140282600Y-186258321D01*
X140424021Y-186116900D02*
X140424021Y-186116900D01*
X140728579Y-186116900D02*
X140424021Y-186116900D01*
X140728579Y-186116900D02*
X140728579Y-186116900D01*
X140870000Y-186258321D02*
X140728579Y-186116900D01*
X140870000Y-186258321D02*
X140870000Y-186258321D01*
X140870000Y-186562879D02*
X140870000Y-186258321D01*
X140870000Y-186562879D02*
X140870000Y-186562879D01*
X140728579Y-186704300D02*
X140870000Y-186562879D01*
X140728579Y-186704300D02*
X140728579Y-186704300D01*
X140424021Y-186704300D02*
X140728579Y-186704300D01*
X140424021Y-186704300D02*
X140424021Y-186704300D01*
X140282600Y-186562879D02*
X140424021Y-186704300D01*
X140282600Y-186562879D02*
X140282600Y-186562879D01*
X139495200Y-186258321D02*
X139495200Y-186562879D01*
X139495200Y-186258321D02*
X139495200Y-186258321D01*
X139636621Y-186116900D02*
X139495200Y-186258321D01*
X139636621Y-186116900D02*
X139636621Y-186116900D01*
X139941179Y-186116900D02*
X139636621Y-186116900D01*
X139941179Y-186116900D02*
X139941179Y-186116900D01*
X140082600Y-186258321D02*
X139941179Y-186116900D01*
X140082600Y-186258321D02*
X140082600Y-186258321D01*
X140082600Y-186562879D02*
X140082600Y-186258321D01*
X140082600Y-186562879D02*
X140082600Y-186562879D01*
X139941179Y-186704300D02*
X140082600Y-186562879D01*
X139941179Y-186704300D02*
X139941179Y-186704300D01*
X139636621Y-186704300D02*
X139941179Y-186704300D01*
X139636621Y-186704300D02*
X139636621Y-186704300D01*
X139495200Y-186562879D02*
X139636621Y-186704300D01*
X139495200Y-186562879D02*
X139495200Y-186562879D01*
X138707800Y-186258321D02*
X138707800Y-186562879D01*
X138707800Y-186258321D02*
X138707800Y-186258321D01*
X138849221Y-186116900D02*
X138707800Y-186258321D01*
X138849221Y-186116900D02*
X138849221Y-186116900D01*
X139153779Y-186116900D02*
X138849221Y-186116900D01*
X139153779Y-186116900D02*
X139153779Y-186116900D01*
X139295200Y-186258321D02*
X139153779Y-186116900D01*
X139295200Y-186258321D02*
X139295200Y-186258321D01*
X139295200Y-186562879D02*
X139295200Y-186258321D01*
X139295200Y-186562879D02*
X139295200Y-186562879D01*
X139153779Y-186704300D02*
X139295200Y-186562879D01*
X139153779Y-186704300D02*
X139153779Y-186704300D01*
X138849221Y-186704300D02*
X139153779Y-186704300D01*
X138849221Y-186704300D02*
X138849221Y-186704300D01*
X138707800Y-186562879D02*
X138849221Y-186704300D01*
X138707800Y-186562879D02*
X138707800Y-186562879D01*
X137958830Y-186116900D02*
X137958830Y-186704300D01*
X138366379Y-186116900D02*
X137958830Y-186116900D01*
X138366379Y-186116900D02*
X138366379Y-186116900D01*
X138507800Y-186258321D02*
X138366379Y-186116900D01*
X138507800Y-186258321D02*
X138507800Y-186258321D01*
X138507800Y-186562879D02*
X138507800Y-186258321D01*
X138507800Y-186562879D02*
X138507800Y-186562879D01*
X138366379Y-186704300D02*
X138507800Y-186562879D01*
X138366379Y-186704300D02*
X138366379Y-186704300D01*
X137958830Y-186704300D02*
X138366379Y-186704300D01*
X141070000Y-187045721D02*
X141070000Y-187336970D01*
X141070000Y-187045721D02*
X141070000Y-187045721D01*
X141211421Y-186904300D02*
X141070000Y-187045721D01*
X141211421Y-186904300D02*
X141211421Y-186904300D01*
X141618970Y-186904300D02*
X141211421Y-186904300D01*
X141618970Y-187336970D02*
X141618970Y-186904300D01*
X141070000Y-187336970D02*
X141618970Y-187336970D01*
X140282600Y-187045721D02*
X140282600Y-187336970D01*
X140282600Y-187045721D02*
X140282600Y-187045721D01*
X140424021Y-186904300D02*
X140282600Y-187045721D01*
X140424021Y-186904300D02*
X140424021Y-186904300D01*
X140728579Y-186904300D02*
X140424021Y-186904300D01*
X140728579Y-186904300D02*
X140728579Y-186904300D01*
X140870000Y-187045721D02*
X140728579Y-186904300D01*
X140870000Y-187045721D02*
X140870000Y-187045721D01*
X140870000Y-187336970D02*
X140870000Y-187045721D01*
X140282600Y-187336970D02*
X140870000Y-187336970D01*
X139495200Y-187045721D02*
X139495200Y-187336970D01*
X139495200Y-187045721D02*
X139495200Y-187045721D01*
X139636621Y-186904300D02*
X139495200Y-187045721D01*
X139636621Y-186904300D02*
X139636621Y-186904300D01*
X139941179Y-186904300D02*
X139636621Y-186904300D01*
X139941179Y-186904300D02*
X139941179Y-186904300D01*
X140082600Y-187045721D02*
X139941179Y-186904300D01*
X140082600Y-187045721D02*
X140082600Y-187045721D01*
X140082600Y-187336970D02*
X140082600Y-187045721D01*
X139495200Y-187336970D02*
X140082600Y-187336970D01*
X138707800Y-187045721D02*
X138707800Y-187336970D01*
X138707800Y-187045721D02*
X138707800Y-187045721D01*
X138849221Y-186904300D02*
X138707800Y-187045721D01*
X138849221Y-186904300D02*
X138849221Y-186904300D01*
X139153779Y-186904300D02*
X138849221Y-186904300D01*
X139153779Y-186904300D02*
X139153779Y-186904300D01*
X139295200Y-187045721D02*
X139153779Y-186904300D01*
X139295200Y-187045721D02*
X139295200Y-187045721D01*
X139295200Y-187336970D02*
X139295200Y-187045721D01*
X138707800Y-187336970D02*
X139295200Y-187336970D01*
X137958830Y-186904300D02*
X137958830Y-187336970D01*
X138366379Y-186904300D02*
X137958830Y-186904300D01*
X138366379Y-186904300D02*
X138366379Y-186904300D01*
X138507800Y-187045721D02*
X138366379Y-186904300D01*
X138507800Y-187045721D02*
X138507800Y-187045721D01*
X138507800Y-187336970D02*
X138507800Y-187045721D01*
X137958830Y-187336970D02*
X138507800Y-187336970D01*
G36*
G01*
X165843900Y-152988600D02*
X165843900Y-153538600D01*
G75*
G02*
X165643900Y-153738600I-200000J0D01*
G01*
X165243900Y-153738600D01*
G75*
G02*
X165043900Y-153538600I0J200000D01*
G01*
X165043900Y-152988600D01*
G75*
G02*
X165243900Y-152788600I200000J0D01*
G01*
X165643900Y-152788600D01*
G75*
G02*
X165843900Y-152988600I0J-200000D01*
G01*
G37*
G36*
G01*
X167493900Y-152988600D02*
X167493900Y-153538600D01*
G75*
G02*
X167293900Y-153738600I-200000J0D01*
G01*
X166893900Y-153738600D01*
G75*
G02*
X166693900Y-153538600I0J200000D01*
G01*
X166693900Y-152988600D01*
G75*
G02*
X166893900Y-152788600I200000J0D01*
G01*
X167293900Y-152788600D01*
G75*
G02*
X167493900Y-152988600I0J-200000D01*
G01*
G37*
D11*
X164567000Y-149411720D03*
X164567000Y-144811720D03*
X164567000Y-147111720D03*
D12*
X158267000Y-147111720D03*
G36*
G01*
X154830800Y-144685600D02*
X153880800Y-144685600D01*
G75*
G02*
X153630800Y-144435600I0J250000D01*
G01*
X153630800Y-143935600D01*
G75*
G02*
X153880800Y-143685600I250000J0D01*
G01*
X154830800Y-143685600D01*
G75*
G02*
X155080800Y-143935600I0J-250000D01*
G01*
X155080800Y-144435600D01*
G75*
G02*
X154830800Y-144685600I-250000J0D01*
G01*
G37*
G36*
G01*
X154830800Y-146585600D02*
X153880800Y-146585600D01*
G75*
G02*
X153630800Y-146335600I0J250000D01*
G01*
X153630800Y-145835600D01*
G75*
G02*
X153880800Y-145585600I250000J0D01*
G01*
X154830800Y-145585600D01*
G75*
G02*
X155080800Y-145835600I0J-250000D01*
G01*
X155080800Y-146335600D01*
G75*
G02*
X154830800Y-146585600I-250000J0D01*
G01*
G37*
G36*
G01*
X123194000Y-153360000D02*
X123694000Y-153360000D01*
G75*
G02*
X123919000Y-153585000I0J-225000D01*
G01*
X123919000Y-154035000D01*
G75*
G02*
X123694000Y-154260000I-225000J0D01*
G01*
X123194000Y-154260000D01*
G75*
G02*
X122969000Y-154035000I0J225000D01*
G01*
X122969000Y-153585000D01*
G75*
G02*
X123194000Y-153360000I225000J0D01*
G01*
G37*
G36*
G01*
X123194000Y-151810000D02*
X123694000Y-151810000D01*
G75*
G02*
X123919000Y-152035000I0J-225000D01*
G01*
X123919000Y-152485000D01*
G75*
G02*
X123694000Y-152710000I-225000J0D01*
G01*
X123194000Y-152710000D01*
G75*
G02*
X122969000Y-152485000I0J225000D01*
G01*
X122969000Y-152035000D01*
G75*
G02*
X123194000Y-151810000I225000J0D01*
G01*
G37*
G36*
G01*
X151908700Y-154452200D02*
X152408700Y-154452200D01*
G75*
G02*
X152633700Y-154677200I0J-225000D01*
G01*
X152633700Y-155127200D01*
G75*
G02*
X152408700Y-155352200I-225000J0D01*
G01*
X151908700Y-155352200D01*
G75*
G02*
X151683700Y-155127200I0J225000D01*
G01*
X151683700Y-154677200D01*
G75*
G02*
X151908700Y-154452200I225000J0D01*
G01*
G37*
G36*
G01*
X151908700Y-152902200D02*
X152408700Y-152902200D01*
G75*
G02*
X152633700Y-153127200I0J-225000D01*
G01*
X152633700Y-153577200D01*
G75*
G02*
X152408700Y-153802200I-225000J0D01*
G01*
X151908700Y-153802200D01*
G75*
G02*
X151683700Y-153577200I0J225000D01*
G01*
X151683700Y-153127200D01*
G75*
G02*
X151908700Y-152902200I225000J0D01*
G01*
G37*
G36*
G01*
X133913200Y-206241200D02*
X134463200Y-206241200D01*
G75*
G02*
X134663200Y-206441200I0J-200000D01*
G01*
X134663200Y-206841200D01*
G75*
G02*
X134463200Y-207041200I-200000J0D01*
G01*
X133913200Y-207041200D01*
G75*
G02*
X133713200Y-206841200I0J200000D01*
G01*
X133713200Y-206441200D01*
G75*
G02*
X133913200Y-206241200I200000J0D01*
G01*
G37*
G36*
G01*
X133913200Y-204591200D02*
X134463200Y-204591200D01*
G75*
G02*
X134663200Y-204791200I0J-200000D01*
G01*
X134663200Y-205191200D01*
G75*
G02*
X134463200Y-205391200I-200000J0D01*
G01*
X133913200Y-205391200D01*
G75*
G02*
X133713200Y-205191200I0J200000D01*
G01*
X133713200Y-204791200D01*
G75*
G02*
X133913200Y-204591200I200000J0D01*
G01*
G37*
G36*
G01*
X128452200Y-170008100D02*
X129002200Y-170008100D01*
G75*
G02*
X129202200Y-170208100I0J-200000D01*
G01*
X129202200Y-170608100D01*
G75*
G02*
X129002200Y-170808100I-200000J0D01*
G01*
X128452200Y-170808100D01*
G75*
G02*
X128252200Y-170608100I0J200000D01*
G01*
X128252200Y-170208100D01*
G75*
G02*
X128452200Y-170008100I200000J0D01*
G01*
G37*
G36*
G01*
X128452200Y-168358100D02*
X129002200Y-168358100D01*
G75*
G02*
X129202200Y-168558100I0J-200000D01*
G01*
X129202200Y-168958100D01*
G75*
G02*
X129002200Y-169158100I-200000J0D01*
G01*
X128452200Y-169158100D01*
G75*
G02*
X128252200Y-168958100I0J200000D01*
G01*
X128252200Y-168558100D01*
G75*
G02*
X128452200Y-168358100I200000J0D01*
G01*
G37*
G36*
G01*
X145287320Y-199258480D02*
X145837320Y-199258480D01*
G75*
G02*
X146037320Y-199458480I0J-200000D01*
G01*
X146037320Y-199858480D01*
G75*
G02*
X145837320Y-200058480I-200000J0D01*
G01*
X145287320Y-200058480D01*
G75*
G02*
X145087320Y-199858480I0J200000D01*
G01*
X145087320Y-199458480D01*
G75*
G02*
X145287320Y-199258480I200000J0D01*
G01*
G37*
G36*
G01*
X145287320Y-197608480D02*
X145837320Y-197608480D01*
G75*
G02*
X146037320Y-197808480I0J-200000D01*
G01*
X146037320Y-198208480D01*
G75*
G02*
X145837320Y-198408480I-200000J0D01*
G01*
X145287320Y-198408480D01*
G75*
G02*
X145087320Y-198208480I0J200000D01*
G01*
X145087320Y-197808480D01*
G75*
G02*
X145287320Y-197608480I200000J0D01*
G01*
G37*
G36*
G01*
X143717600Y-199273720D02*
X144267600Y-199273720D01*
G75*
G02*
X144467600Y-199473720I0J-200000D01*
G01*
X144467600Y-199873720D01*
G75*
G02*
X144267600Y-200073720I-200000J0D01*
G01*
X143717600Y-200073720D01*
G75*
G02*
X143517600Y-199873720I0J200000D01*
G01*
X143517600Y-199473720D01*
G75*
G02*
X143717600Y-199273720I200000J0D01*
G01*
G37*
G36*
G01*
X143717600Y-197623720D02*
X144267600Y-197623720D01*
G75*
G02*
X144467600Y-197823720I0J-200000D01*
G01*
X144467600Y-198223720D01*
G75*
G02*
X144267600Y-198423720I-200000J0D01*
G01*
X143717600Y-198423720D01*
G75*
G02*
X143517600Y-198223720I0J200000D01*
G01*
X143517600Y-197823720D01*
G75*
G02*
X143717600Y-197623720I200000J0D01*
G01*
G37*
G36*
G01*
X147268520Y-199263560D02*
X147818520Y-199263560D01*
G75*
G02*
X148018520Y-199463560I0J-200000D01*
G01*
X148018520Y-199863560D01*
G75*
G02*
X147818520Y-200063560I-200000J0D01*
G01*
X147268520Y-200063560D01*
G75*
G02*
X147068520Y-199863560I0J200000D01*
G01*
X147068520Y-199463560D01*
G75*
G02*
X147268520Y-199263560I200000J0D01*
G01*
G37*
G36*
G01*
X147268520Y-197613560D02*
X147818520Y-197613560D01*
G75*
G02*
X148018520Y-197813560I0J-200000D01*
G01*
X148018520Y-198213560D01*
G75*
G02*
X147818520Y-198413560I-200000J0D01*
G01*
X147268520Y-198413560D01*
G75*
G02*
X147068520Y-198213560I0J200000D01*
G01*
X147068520Y-197813560D01*
G75*
G02*
X147268520Y-197613560I200000J0D01*
G01*
G37*
G36*
G01*
X150585760Y-199207680D02*
X151135760Y-199207680D01*
G75*
G02*
X151335760Y-199407680I0J-200000D01*
G01*
X151335760Y-199807680D01*
G75*
G02*
X151135760Y-200007680I-200000J0D01*
G01*
X150585760Y-200007680D01*
G75*
G02*
X150385760Y-199807680I0J200000D01*
G01*
X150385760Y-199407680D01*
G75*
G02*
X150585760Y-199207680I200000J0D01*
G01*
G37*
G36*
G01*
X150585760Y-197557680D02*
X151135760Y-197557680D01*
G75*
G02*
X151335760Y-197757680I0J-200000D01*
G01*
X151335760Y-198157680D01*
G75*
G02*
X151135760Y-198357680I-200000J0D01*
G01*
X150585760Y-198357680D01*
G75*
G02*
X150385760Y-198157680I0J200000D01*
G01*
X150385760Y-197757680D01*
G75*
G02*
X150585760Y-197557680I200000J0D01*
G01*
G37*
G36*
G01*
X132211000Y-206166600D02*
X132711000Y-206166600D01*
G75*
G02*
X132936000Y-206391600I0J-225000D01*
G01*
X132936000Y-206841600D01*
G75*
G02*
X132711000Y-207066600I-225000J0D01*
G01*
X132211000Y-207066600D01*
G75*
G02*
X131986000Y-206841600I0J225000D01*
G01*
X131986000Y-206391600D01*
G75*
G02*
X132211000Y-206166600I225000J0D01*
G01*
G37*
G36*
G01*
X132211000Y-204616600D02*
X132711000Y-204616600D01*
G75*
G02*
X132936000Y-204841600I0J-225000D01*
G01*
X132936000Y-205291600D01*
G75*
G02*
X132711000Y-205516600I-225000J0D01*
G01*
X132211000Y-205516600D01*
G75*
G02*
X131986000Y-205291600I0J225000D01*
G01*
X131986000Y-204841600D01*
G75*
G02*
X132211000Y-204616600I225000J0D01*
G01*
G37*
G36*
G01*
X136662280Y-199335320D02*
X136662280Y-199835320D01*
G75*
G02*
X136437280Y-200060320I-225000J0D01*
G01*
X135987280Y-200060320D01*
G75*
G02*
X135762280Y-199835320I0J225000D01*
G01*
X135762280Y-199335320D01*
G75*
G02*
X135987280Y-199110320I225000J0D01*
G01*
X136437280Y-199110320D01*
G75*
G02*
X136662280Y-199335320I0J-225000D01*
G01*
G37*
G36*
G01*
X138212280Y-199335320D02*
X138212280Y-199835320D01*
G75*
G02*
X137987280Y-200060320I-225000J0D01*
G01*
X137537280Y-200060320D01*
G75*
G02*
X137312280Y-199835320I0J225000D01*
G01*
X137312280Y-199335320D01*
G75*
G02*
X137537280Y-199110320I225000J0D01*
G01*
X137987280Y-199110320D01*
G75*
G02*
X138212280Y-199335320I0J-225000D01*
G01*
G37*
G36*
G01*
X140398380Y-199842940D02*
X140398380Y-199342940D01*
G75*
G02*
X140623380Y-199117940I225000J0D01*
G01*
X141073380Y-199117940D01*
G75*
G02*
X141298380Y-199342940I0J-225000D01*
G01*
X141298380Y-199842940D01*
G75*
G02*
X141073380Y-200067940I-225000J0D01*
G01*
X140623380Y-200067940D01*
G75*
G02*
X140398380Y-199842940I0J225000D01*
G01*
G37*
G36*
G01*
X138848380Y-199842940D02*
X138848380Y-199342940D01*
G75*
G02*
X139073380Y-199117940I225000J0D01*
G01*
X139523380Y-199117940D01*
G75*
G02*
X139748380Y-199342940I0J-225000D01*
G01*
X139748380Y-199842940D01*
G75*
G02*
X139523380Y-200067940I-225000J0D01*
G01*
X139073380Y-200067940D01*
G75*
G02*
X138848380Y-199842940I0J225000D01*
G01*
G37*
G36*
G01*
X111146000Y-157309000D02*
X110596000Y-157309000D01*
G75*
G02*
X110396000Y-157109000I0J200000D01*
G01*
X110396000Y-156709000D01*
G75*
G02*
X110596000Y-156509000I200000J0D01*
G01*
X111146000Y-156509000D01*
G75*
G02*
X111346000Y-156709000I0J-200000D01*
G01*
X111346000Y-157109000D01*
G75*
G02*
X111146000Y-157309000I-200000J0D01*
G01*
G37*
G36*
G01*
X111146000Y-158959000D02*
X110596000Y-158959000D01*
G75*
G02*
X110396000Y-158759000I0J200000D01*
G01*
X110396000Y-158359000D01*
G75*
G02*
X110596000Y-158159000I200000J0D01*
G01*
X111146000Y-158159000D01*
G75*
G02*
X111346000Y-158359000I0J-200000D01*
G01*
X111346000Y-158759000D01*
G75*
G02*
X111146000Y-158959000I-200000J0D01*
G01*
G37*
G36*
G01*
X133710000Y-141262920D02*
X134260000Y-141262920D01*
G75*
G02*
X134460000Y-141462920I0J-200000D01*
G01*
X134460000Y-141862920D01*
G75*
G02*
X134260000Y-142062920I-200000J0D01*
G01*
X133710000Y-142062920D01*
G75*
G02*
X133510000Y-141862920I0J200000D01*
G01*
X133510000Y-141462920D01*
G75*
G02*
X133710000Y-141262920I200000J0D01*
G01*
G37*
G36*
G01*
X133710000Y-139612920D02*
X134260000Y-139612920D01*
G75*
G02*
X134460000Y-139812920I0J-200000D01*
G01*
X134460000Y-140212920D01*
G75*
G02*
X134260000Y-140412920I-200000J0D01*
G01*
X133710000Y-140412920D01*
G75*
G02*
X133510000Y-140212920I0J200000D01*
G01*
X133510000Y-139812920D01*
G75*
G02*
X133710000Y-139612920I200000J0D01*
G01*
G37*
G36*
G01*
X126115000Y-140832720D02*
X126615000Y-140832720D01*
G75*
G02*
X126840000Y-141057720I0J-225000D01*
G01*
X126840000Y-141507720D01*
G75*
G02*
X126615000Y-141732720I-225000J0D01*
G01*
X126115000Y-141732720D01*
G75*
G02*
X125890000Y-141507720I0J225000D01*
G01*
X125890000Y-141057720D01*
G75*
G02*
X126115000Y-140832720I225000J0D01*
G01*
G37*
G36*
G01*
X126115000Y-139282720D02*
X126615000Y-139282720D01*
G75*
G02*
X126840000Y-139507720I0J-225000D01*
G01*
X126840000Y-139957720D01*
G75*
G02*
X126615000Y-140182720I-225000J0D01*
G01*
X126115000Y-140182720D01*
G75*
G02*
X125890000Y-139957720I0J225000D01*
G01*
X125890000Y-139507720D01*
G75*
G02*
X126115000Y-139282720I225000J0D01*
G01*
G37*
G36*
G01*
X132012880Y-141228960D02*
X132512880Y-141228960D01*
G75*
G02*
X132737880Y-141453960I0J-225000D01*
G01*
X132737880Y-141903960D01*
G75*
G02*
X132512880Y-142128960I-225000J0D01*
G01*
X132012880Y-142128960D01*
G75*
G02*
X131787880Y-141903960I0J225000D01*
G01*
X131787880Y-141453960D01*
G75*
G02*
X132012880Y-141228960I225000J0D01*
G01*
G37*
G36*
G01*
X132012880Y-139678960D02*
X132512880Y-139678960D01*
G75*
G02*
X132737880Y-139903960I0J-225000D01*
G01*
X132737880Y-140353960D01*
G75*
G02*
X132512880Y-140578960I-225000J0D01*
G01*
X132012880Y-140578960D01*
G75*
G02*
X131787880Y-140353960I0J225000D01*
G01*
X131787880Y-139903960D01*
G75*
G02*
X132012880Y-139678960I225000J0D01*
G01*
G37*
G36*
G01*
X111565880Y-140883520D02*
X112065880Y-140883520D01*
G75*
G02*
X112290880Y-141108520I0J-225000D01*
G01*
X112290880Y-141558520D01*
G75*
G02*
X112065880Y-141783520I-225000J0D01*
G01*
X111565880Y-141783520D01*
G75*
G02*
X111340880Y-141558520I0J225000D01*
G01*
X111340880Y-141108520D01*
G75*
G02*
X111565880Y-140883520I225000J0D01*
G01*
G37*
G36*
G01*
X111565880Y-139333520D02*
X112065880Y-139333520D01*
G75*
G02*
X112290880Y-139558520I0J-225000D01*
G01*
X112290880Y-140008520D01*
G75*
G02*
X112065880Y-140233520I-225000J0D01*
G01*
X111565880Y-140233520D01*
G75*
G02*
X111340880Y-140008520I0J225000D01*
G01*
X111340880Y-139558520D01*
G75*
G02*
X111565880Y-139333520I225000J0D01*
G01*
G37*
G36*
G01*
X117352000Y-141041000D02*
X117852000Y-141041000D01*
G75*
G02*
X118077000Y-141266000I0J-225000D01*
G01*
X118077000Y-141716000D01*
G75*
G02*
X117852000Y-141941000I-225000J0D01*
G01*
X117352000Y-141941000D01*
G75*
G02*
X117127000Y-141716000I0J225000D01*
G01*
X117127000Y-141266000D01*
G75*
G02*
X117352000Y-141041000I225000J0D01*
G01*
G37*
G36*
G01*
X117352000Y-139491000D02*
X117852000Y-139491000D01*
G75*
G02*
X118077000Y-139716000I0J-225000D01*
G01*
X118077000Y-140166000D01*
G75*
G02*
X117852000Y-140391000I-225000J0D01*
G01*
X117352000Y-140391000D01*
G75*
G02*
X117127000Y-140166000I0J225000D01*
G01*
X117127000Y-139716000D01*
G75*
G02*
X117352000Y-139491000I225000J0D01*
G01*
G37*
G36*
G01*
X122230000Y-141101000D02*
X122230000Y-141601000D01*
G75*
G02*
X122005000Y-141826000I-225000J0D01*
G01*
X121555000Y-141826000D01*
G75*
G02*
X121330000Y-141601000I0J225000D01*
G01*
X121330000Y-141101000D01*
G75*
G02*
X121555000Y-140876000I225000J0D01*
G01*
X122005000Y-140876000D01*
G75*
G02*
X122230000Y-141101000I0J-225000D01*
G01*
G37*
G36*
G01*
X123780000Y-141101000D02*
X123780000Y-141601000D01*
G75*
G02*
X123555000Y-141826000I-225000J0D01*
G01*
X123105000Y-141826000D01*
G75*
G02*
X122880000Y-141601000I0J225000D01*
G01*
X122880000Y-141101000D01*
G75*
G02*
X123105000Y-140876000I225000J0D01*
G01*
X123555000Y-140876000D01*
G75*
G02*
X123780000Y-141101000I0J-225000D01*
G01*
G37*
G36*
G01*
X107548800Y-141101000D02*
X107548800Y-141601000D01*
G75*
G02*
X107323800Y-141826000I-225000J0D01*
G01*
X106873800Y-141826000D01*
G75*
G02*
X106648800Y-141601000I0J225000D01*
G01*
X106648800Y-141101000D01*
G75*
G02*
X106873800Y-140876000I225000J0D01*
G01*
X107323800Y-140876000D01*
G75*
G02*
X107548800Y-141101000I0J-225000D01*
G01*
G37*
G36*
G01*
X109098800Y-141101000D02*
X109098800Y-141601000D01*
G75*
G02*
X108873800Y-141826000I-225000J0D01*
G01*
X108423800Y-141826000D01*
G75*
G02*
X108198800Y-141601000I0J225000D01*
G01*
X108198800Y-141101000D01*
G75*
G02*
X108423800Y-140876000I225000J0D01*
G01*
X108873800Y-140876000D01*
G75*
G02*
X109098800Y-141101000I0J-225000D01*
G01*
G37*
G36*
G01*
X186738680Y-124330480D02*
X186738680Y-123380480D01*
G75*
G02*
X186988680Y-123130480I250000J0D01*
G01*
X187488680Y-123130480D01*
G75*
G02*
X187738680Y-123380480I0J-250000D01*
G01*
X187738680Y-124330480D01*
G75*
G02*
X187488680Y-124580480I-250000J0D01*
G01*
X186988680Y-124580480D01*
G75*
G02*
X186738680Y-124330480I0J250000D01*
G01*
G37*
G36*
G01*
X184838680Y-124330480D02*
X184838680Y-123380480D01*
G75*
G02*
X185088680Y-123130480I250000J0D01*
G01*
X185588680Y-123130480D01*
G75*
G02*
X185838680Y-123380480I0J-250000D01*
G01*
X185838680Y-124330480D01*
G75*
G02*
X185588680Y-124580480I-250000J0D01*
G01*
X185088680Y-124580480D01*
G75*
G02*
X184838680Y-124330480I0J250000D01*
G01*
G37*
G36*
G01*
X111694080Y-176615280D02*
X111694080Y-177115280D01*
G75*
G02*
X111469080Y-177340280I-225000J0D01*
G01*
X111019080Y-177340280D01*
G75*
G02*
X110794080Y-177115280I0J225000D01*
G01*
X110794080Y-176615280D01*
G75*
G02*
X111019080Y-176390280I225000J0D01*
G01*
X111469080Y-176390280D01*
G75*
G02*
X111694080Y-176615280I0J-225000D01*
G01*
G37*
G36*
G01*
X113244080Y-176615280D02*
X113244080Y-177115280D01*
G75*
G02*
X113019080Y-177340280I-225000J0D01*
G01*
X112569080Y-177340280D01*
G75*
G02*
X112344080Y-177115280I0J225000D01*
G01*
X112344080Y-176615280D01*
G75*
G02*
X112569080Y-176390280I225000J0D01*
G01*
X113019080Y-176390280D01*
G75*
G02*
X113244080Y-176615280I0J-225000D01*
G01*
G37*
G36*
G01*
X124256680Y-177140680D02*
X124256680Y-176640680D01*
G75*
G02*
X124481680Y-176415680I225000J0D01*
G01*
X124931680Y-176415680D01*
G75*
G02*
X125156680Y-176640680I0J-225000D01*
G01*
X125156680Y-177140680D01*
G75*
G02*
X124931680Y-177365680I-225000J0D01*
G01*
X124481680Y-177365680D01*
G75*
G02*
X124256680Y-177140680I0J225000D01*
G01*
G37*
G36*
G01*
X122706680Y-177140680D02*
X122706680Y-176640680D01*
G75*
G02*
X122931680Y-176415680I225000J0D01*
G01*
X123381680Y-176415680D01*
G75*
G02*
X123606680Y-176640680I0J-225000D01*
G01*
X123606680Y-177140680D01*
G75*
G02*
X123381680Y-177365680I-225000J0D01*
G01*
X122931680Y-177365680D01*
G75*
G02*
X122706680Y-177140680I0J225000D01*
G01*
G37*
G36*
G01*
X134382320Y-177134640D02*
X133882320Y-177134640D01*
G75*
G02*
X133657320Y-176909640I0J225000D01*
G01*
X133657320Y-176459640D01*
G75*
G02*
X133882320Y-176234640I225000J0D01*
G01*
X134382320Y-176234640D01*
G75*
G02*
X134607320Y-176459640I0J-225000D01*
G01*
X134607320Y-176909640D01*
G75*
G02*
X134382320Y-177134640I-225000J0D01*
G01*
G37*
G36*
G01*
X134382320Y-178684640D02*
X133882320Y-178684640D01*
G75*
G02*
X133657320Y-178459640I0J225000D01*
G01*
X133657320Y-178009640D01*
G75*
G02*
X133882320Y-177784640I225000J0D01*
G01*
X134382320Y-177784640D01*
G75*
G02*
X134607320Y-178009640I0J-225000D01*
G01*
X134607320Y-178459640D01*
G75*
G02*
X134382320Y-178684640I-225000J0D01*
G01*
G37*
G36*
G01*
X133836600Y-194889000D02*
X134336600Y-194889000D01*
G75*
G02*
X134561600Y-195114000I0J-225000D01*
G01*
X134561600Y-195564000D01*
G75*
G02*
X134336600Y-195789000I-225000J0D01*
G01*
X133836600Y-195789000D01*
G75*
G02*
X133611600Y-195564000I0J225000D01*
G01*
X133611600Y-195114000D01*
G75*
G02*
X133836600Y-194889000I225000J0D01*
G01*
G37*
G36*
G01*
X133836600Y-193339000D02*
X134336600Y-193339000D01*
G75*
G02*
X134561600Y-193564000I0J-225000D01*
G01*
X134561600Y-194014000D01*
G75*
G02*
X134336600Y-194239000I-225000J0D01*
G01*
X133836600Y-194239000D01*
G75*
G02*
X133611600Y-194014000I0J225000D01*
G01*
X133611600Y-193564000D01*
G75*
G02*
X133836600Y-193339000I225000J0D01*
G01*
G37*
G36*
G01*
X136335960Y-194919480D02*
X136835960Y-194919480D01*
G75*
G02*
X137060960Y-195144480I0J-225000D01*
G01*
X137060960Y-195594480D01*
G75*
G02*
X136835960Y-195819480I-225000J0D01*
G01*
X136335960Y-195819480D01*
G75*
G02*
X136110960Y-195594480I0J225000D01*
G01*
X136110960Y-195144480D01*
G75*
G02*
X136335960Y-194919480I225000J0D01*
G01*
G37*
G36*
G01*
X136335960Y-193369480D02*
X136835960Y-193369480D01*
G75*
G02*
X137060960Y-193594480I0J-225000D01*
G01*
X137060960Y-194044480D01*
G75*
G02*
X136835960Y-194269480I-225000J0D01*
G01*
X136335960Y-194269480D01*
G75*
G02*
X136110960Y-194044480I0J225000D01*
G01*
X136110960Y-193594480D01*
G75*
G02*
X136335960Y-193369480I225000J0D01*
G01*
G37*
G36*
G01*
X136942640Y-177139720D02*
X136442640Y-177139720D01*
G75*
G02*
X136217640Y-176914720I0J225000D01*
G01*
X136217640Y-176464720D01*
G75*
G02*
X136442640Y-176239720I225000J0D01*
G01*
X136942640Y-176239720D01*
G75*
G02*
X137167640Y-176464720I0J-225000D01*
G01*
X137167640Y-176914720D01*
G75*
G02*
X136942640Y-177139720I-225000J0D01*
G01*
G37*
G36*
G01*
X136942640Y-178689720D02*
X136442640Y-178689720D01*
G75*
G02*
X136217640Y-178464720I0J225000D01*
G01*
X136217640Y-178014720D01*
G75*
G02*
X136442640Y-177789720I225000J0D01*
G01*
X136942640Y-177789720D01*
G75*
G02*
X137167640Y-178014720I0J-225000D01*
G01*
X137167640Y-178464720D01*
G75*
G02*
X136942640Y-178689720I-225000J0D01*
G01*
G37*
G36*
G01*
X122345000Y-144547000D02*
X122345000Y-143997000D01*
G75*
G02*
X122545000Y-143797000I200000J0D01*
G01*
X122945000Y-143797000D01*
G75*
G02*
X123145000Y-143997000I0J-200000D01*
G01*
X123145000Y-144547000D01*
G75*
G02*
X122945000Y-144747000I-200000J0D01*
G01*
X122545000Y-144747000D01*
G75*
G02*
X122345000Y-144547000I0J200000D01*
G01*
G37*
G36*
G01*
X120695000Y-144547000D02*
X120695000Y-143997000D01*
G75*
G02*
X120895000Y-143797000I200000J0D01*
G01*
X121295000Y-143797000D01*
G75*
G02*
X121495000Y-143997000I0J-200000D01*
G01*
X121495000Y-144547000D01*
G75*
G02*
X121295000Y-144747000I-200000J0D01*
G01*
X120895000Y-144747000D01*
G75*
G02*
X120695000Y-144547000I0J200000D01*
G01*
G37*
G36*
G01*
X115170400Y-147883200D02*
X115170400Y-148433200D01*
G75*
G02*
X114970400Y-148633200I-200000J0D01*
G01*
X114570400Y-148633200D01*
G75*
G02*
X114370400Y-148433200I0J200000D01*
G01*
X114370400Y-147883200D01*
G75*
G02*
X114570400Y-147683200I200000J0D01*
G01*
X114970400Y-147683200D01*
G75*
G02*
X115170400Y-147883200I0J-200000D01*
G01*
G37*
G36*
G01*
X116820400Y-147883200D02*
X116820400Y-148433200D01*
G75*
G02*
X116620400Y-148633200I-200000J0D01*
G01*
X116220400Y-148633200D01*
G75*
G02*
X116020400Y-148433200I0J200000D01*
G01*
X116020400Y-147883200D01*
G75*
G02*
X116220400Y-147683200I200000J0D01*
G01*
X116620400Y-147683200D01*
G75*
G02*
X116820400Y-147883200I0J-200000D01*
G01*
G37*
G36*
G01*
X116897600Y-146257600D02*
X116897600Y-146807600D01*
G75*
G02*
X116697600Y-147007600I-200000J0D01*
G01*
X116297600Y-147007600D01*
G75*
G02*
X116097600Y-146807600I0J200000D01*
G01*
X116097600Y-146257600D01*
G75*
G02*
X116297600Y-146057600I200000J0D01*
G01*
X116697600Y-146057600D01*
G75*
G02*
X116897600Y-146257600I0J-200000D01*
G01*
G37*
G36*
G01*
X118547600Y-146257600D02*
X118547600Y-146807600D01*
G75*
G02*
X118347600Y-147007600I-200000J0D01*
G01*
X117947600Y-147007600D01*
G75*
G02*
X117747600Y-146807600I0J200000D01*
G01*
X117747600Y-146257600D01*
G75*
G02*
X117947600Y-146057600I200000J0D01*
G01*
X118347600Y-146057600D01*
G75*
G02*
X118547600Y-146257600I0J-200000D01*
G01*
G37*
G36*
G01*
X141534560Y-169038720D02*
X140984560Y-169038720D01*
G75*
G02*
X140784560Y-168838720I0J200000D01*
G01*
X140784560Y-168438720D01*
G75*
G02*
X140984560Y-168238720I200000J0D01*
G01*
X141534560Y-168238720D01*
G75*
G02*
X141734560Y-168438720I0J-200000D01*
G01*
X141734560Y-168838720D01*
G75*
G02*
X141534560Y-169038720I-200000J0D01*
G01*
G37*
G36*
G01*
X141534560Y-170688720D02*
X140984560Y-170688720D01*
G75*
G02*
X140784560Y-170488720I0J200000D01*
G01*
X140784560Y-170088720D01*
G75*
G02*
X140984560Y-169888720I200000J0D01*
G01*
X141534560Y-169888720D01*
G75*
G02*
X141734560Y-170088720I0J-200000D01*
G01*
X141734560Y-170488720D01*
G75*
G02*
X141534560Y-170688720I-200000J0D01*
G01*
G37*
G36*
G01*
X152446400Y-150501800D02*
X151896400Y-150501800D01*
G75*
G02*
X151696400Y-150301800I0J200000D01*
G01*
X151696400Y-149901800D01*
G75*
G02*
X151896400Y-149701800I200000J0D01*
G01*
X152446400Y-149701800D01*
G75*
G02*
X152646400Y-149901800I0J-200000D01*
G01*
X152646400Y-150301800D01*
G75*
G02*
X152446400Y-150501800I-200000J0D01*
G01*
G37*
G36*
G01*
X152446400Y-152151800D02*
X151896400Y-152151800D01*
G75*
G02*
X151696400Y-151951800I0J200000D01*
G01*
X151696400Y-151551800D01*
G75*
G02*
X151896400Y-151351800I200000J0D01*
G01*
X152446400Y-151351800D01*
G75*
G02*
X152646400Y-151551800I0J-200000D01*
G01*
X152646400Y-151951800D01*
G75*
G02*
X152446400Y-152151800I-200000J0D01*
G01*
G37*
G36*
G01*
X129041340Y-162945400D02*
X129041340Y-163495400D01*
G75*
G02*
X128841340Y-163695400I-200000J0D01*
G01*
X128441340Y-163695400D01*
G75*
G02*
X128241340Y-163495400I0J200000D01*
G01*
X128241340Y-162945400D01*
G75*
G02*
X128441340Y-162745400I200000J0D01*
G01*
X128841340Y-162745400D01*
G75*
G02*
X129041340Y-162945400I0J-200000D01*
G01*
G37*
G36*
G01*
X130691340Y-162945400D02*
X130691340Y-163495400D01*
G75*
G02*
X130491340Y-163695400I-200000J0D01*
G01*
X130091340Y-163695400D01*
G75*
G02*
X129891340Y-163495400I0J200000D01*
G01*
X129891340Y-162945400D01*
G75*
G02*
X130091340Y-162745400I200000J0D01*
G01*
X130491340Y-162745400D01*
G75*
G02*
X130691340Y-162945400I0J-200000D01*
G01*
G37*
G36*
G01*
X117379560Y-152928440D02*
X116879560Y-152928440D01*
G75*
G02*
X116654560Y-152703440I0J225000D01*
G01*
X116654560Y-152253440D01*
G75*
G02*
X116879560Y-152028440I225000J0D01*
G01*
X117379560Y-152028440D01*
G75*
G02*
X117604560Y-152253440I0J-225000D01*
G01*
X117604560Y-152703440D01*
G75*
G02*
X117379560Y-152928440I-225000J0D01*
G01*
G37*
G36*
G01*
X117379560Y-154478440D02*
X116879560Y-154478440D01*
G75*
G02*
X116654560Y-154253440I0J225000D01*
G01*
X116654560Y-153803440D01*
G75*
G02*
X116879560Y-153578440I225000J0D01*
G01*
X117379560Y-153578440D01*
G75*
G02*
X117604560Y-153803440I0J-225000D01*
G01*
X117604560Y-154253440D01*
G75*
G02*
X117379560Y-154478440I-225000J0D01*
G01*
G37*
D13*
X139788900Y-186016900D03*
D14*
X134073900Y-181330600D03*
X135343900Y-181330600D03*
X136613900Y-181330600D03*
X137883900Y-181330600D03*
X139153900Y-181330600D03*
X140423900Y-181330600D03*
X141693900Y-181330600D03*
X142963900Y-181330600D03*
X144233900Y-181330600D03*
X145503900Y-181330600D03*
X145503900Y-190703200D03*
X144233900Y-190703200D03*
X142963900Y-190703200D03*
X141693900Y-190703200D03*
X140423900Y-190703200D03*
X139153900Y-190703200D03*
X137883900Y-190703200D03*
X136613900Y-190703200D03*
X135343900Y-190703200D03*
X134073900Y-190703200D03*
G36*
G01*
X175372600Y-130063001D02*
X175372600Y-128762999D01*
G75*
G02*
X175622599Y-128513000I249999J0D01*
G01*
X176272601Y-128513000D01*
G75*
G02*
X176522600Y-128762999I0J-249999D01*
G01*
X176522600Y-130063001D01*
G75*
G02*
X176272601Y-130313000I-249999J0D01*
G01*
X175622599Y-130313000D01*
G75*
G02*
X175372600Y-130063001I0J249999D01*
G01*
G37*
G36*
G01*
X172422600Y-130063001D02*
X172422600Y-128762999D01*
G75*
G02*
X172672599Y-128513000I249999J0D01*
G01*
X173322601Y-128513000D01*
G75*
G02*
X173572600Y-128762999I0J-249999D01*
G01*
X173572600Y-130063001D01*
G75*
G02*
X173322601Y-130313000I-249999J0D01*
G01*
X172672599Y-130313000D01*
G75*
G02*
X172422600Y-130063001I0J249999D01*
G01*
G37*
G36*
G01*
X183684500Y-151326400D02*
X184234500Y-151326400D01*
G75*
G02*
X184434500Y-151526400I0J-200000D01*
G01*
X184434500Y-151926400D01*
G75*
G02*
X184234500Y-152126400I-200000J0D01*
G01*
X183684500Y-152126400D01*
G75*
G02*
X183484500Y-151926400I0J200000D01*
G01*
X183484500Y-151526400D01*
G75*
G02*
X183684500Y-151326400I200000J0D01*
G01*
G37*
G36*
G01*
X183684500Y-149676400D02*
X184234500Y-149676400D01*
G75*
G02*
X184434500Y-149876400I0J-200000D01*
G01*
X184434500Y-150276400D01*
G75*
G02*
X184234500Y-150476400I-200000J0D01*
G01*
X183684500Y-150476400D01*
G75*
G02*
X183484500Y-150276400I0J200000D01*
G01*
X183484500Y-149876400D01*
G75*
G02*
X183684500Y-149676400I200000J0D01*
G01*
G37*
G36*
G01*
X182659700Y-150476400D02*
X182109700Y-150476400D01*
G75*
G02*
X181909700Y-150276400I0J200000D01*
G01*
X181909700Y-149876400D01*
G75*
G02*
X182109700Y-149676400I200000J0D01*
G01*
X182659700Y-149676400D01*
G75*
G02*
X182859700Y-149876400I0J-200000D01*
G01*
X182859700Y-150276400D01*
G75*
G02*
X182659700Y-150476400I-200000J0D01*
G01*
G37*
G36*
G01*
X182659700Y-152126400D02*
X182109700Y-152126400D01*
G75*
G02*
X181909700Y-151926400I0J200000D01*
G01*
X181909700Y-151526400D01*
G75*
G02*
X182109700Y-151326400I200000J0D01*
G01*
X182659700Y-151326400D01*
G75*
G02*
X182859700Y-151526400I0J-200000D01*
G01*
X182859700Y-151926400D01*
G75*
G02*
X182659700Y-152126400I-200000J0D01*
G01*
G37*
G36*
G01*
X185809300Y-153588400D02*
X185259300Y-153588400D01*
G75*
G02*
X185059300Y-153388400I0J200000D01*
G01*
X185059300Y-152988400D01*
G75*
G02*
X185259300Y-152788400I200000J0D01*
G01*
X185809300Y-152788400D01*
G75*
G02*
X186009300Y-152988400I0J-200000D01*
G01*
X186009300Y-153388400D01*
G75*
G02*
X185809300Y-153588400I-200000J0D01*
G01*
G37*
G36*
G01*
X185809300Y-155238400D02*
X185259300Y-155238400D01*
G75*
G02*
X185059300Y-155038400I0J200000D01*
G01*
X185059300Y-154638400D01*
G75*
G02*
X185259300Y-154438400I200000J0D01*
G01*
X185809300Y-154438400D01*
G75*
G02*
X186009300Y-154638400I0J-200000D01*
G01*
X186009300Y-155038400D01*
G75*
G02*
X185809300Y-155238400I-200000J0D01*
G01*
G37*
G36*
G01*
X181084900Y-150476400D02*
X180534900Y-150476400D01*
G75*
G02*
X180334900Y-150276400I0J200000D01*
G01*
X180334900Y-149876400D01*
G75*
G02*
X180534900Y-149676400I200000J0D01*
G01*
X181084900Y-149676400D01*
G75*
G02*
X181284900Y-149876400I0J-200000D01*
G01*
X181284900Y-150276400D01*
G75*
G02*
X181084900Y-150476400I-200000J0D01*
G01*
G37*
G36*
G01*
X181084900Y-152126400D02*
X180534900Y-152126400D01*
G75*
G02*
X180334900Y-151926400I0J200000D01*
G01*
X180334900Y-151526400D01*
G75*
G02*
X180534900Y-151326400I200000J0D01*
G01*
X181084900Y-151326400D01*
G75*
G02*
X181284900Y-151526400I0J-200000D01*
G01*
X181284900Y-151926400D01*
G75*
G02*
X181084900Y-152126400I-200000J0D01*
G01*
G37*
G36*
G01*
X175636600Y-145244000D02*
X175086600Y-145244000D01*
G75*
G02*
X174886600Y-145044000I0J200000D01*
G01*
X174886600Y-144644000D01*
G75*
G02*
X175086600Y-144444000I200000J0D01*
G01*
X175636600Y-144444000D01*
G75*
G02*
X175836600Y-144644000I0J-200000D01*
G01*
X175836600Y-145044000D01*
G75*
G02*
X175636600Y-145244000I-200000J0D01*
G01*
G37*
G36*
G01*
X175636600Y-146894000D02*
X175086600Y-146894000D01*
G75*
G02*
X174886600Y-146694000I0J200000D01*
G01*
X174886600Y-146294000D01*
G75*
G02*
X175086600Y-146094000I200000J0D01*
G01*
X175636600Y-146094000D01*
G75*
G02*
X175836600Y-146294000I0J-200000D01*
G01*
X175836600Y-146694000D01*
G75*
G02*
X175636600Y-146894000I-200000J0D01*
G01*
G37*
G36*
G01*
X176661400Y-146081800D02*
X177211400Y-146081800D01*
G75*
G02*
X177411400Y-146281800I0J-200000D01*
G01*
X177411400Y-146681800D01*
G75*
G02*
X177211400Y-146881800I-200000J0D01*
G01*
X176661400Y-146881800D01*
G75*
G02*
X176461400Y-146681800I0J200000D01*
G01*
X176461400Y-146281800D01*
G75*
G02*
X176661400Y-146081800I200000J0D01*
G01*
G37*
G36*
G01*
X176661400Y-144431800D02*
X177211400Y-144431800D01*
G75*
G02*
X177411400Y-144631800I0J-200000D01*
G01*
X177411400Y-145031800D01*
G75*
G02*
X177211400Y-145231800I-200000J0D01*
G01*
X176661400Y-145231800D01*
G75*
G02*
X176461400Y-145031800I0J200000D01*
G01*
X176461400Y-144631800D01*
G75*
G02*
X176661400Y-144431800I200000J0D01*
G01*
G37*
G36*
G01*
X173384800Y-142995200D02*
X173934800Y-142995200D01*
G75*
G02*
X174134800Y-143195200I0J-200000D01*
G01*
X174134800Y-143595200D01*
G75*
G02*
X173934800Y-143795200I-200000J0D01*
G01*
X173384800Y-143795200D01*
G75*
G02*
X173184800Y-143595200I0J200000D01*
G01*
X173184800Y-143195200D01*
G75*
G02*
X173384800Y-142995200I200000J0D01*
G01*
G37*
G36*
G01*
X173384800Y-141345200D02*
X173934800Y-141345200D01*
G75*
G02*
X174134800Y-141545200I0J-200000D01*
G01*
X174134800Y-141945200D01*
G75*
G02*
X173934800Y-142145200I-200000J0D01*
G01*
X173384800Y-142145200D01*
G75*
G02*
X173184800Y-141945200I0J200000D01*
G01*
X173184800Y-141545200D01*
G75*
G02*
X173384800Y-141345200I200000J0D01*
G01*
G37*
G36*
G01*
X178236200Y-146094000D02*
X178786200Y-146094000D01*
G75*
G02*
X178986200Y-146294000I0J-200000D01*
G01*
X178986200Y-146694000D01*
G75*
G02*
X178786200Y-146894000I-200000J0D01*
G01*
X178236200Y-146894000D01*
G75*
G02*
X178036200Y-146694000I0J200000D01*
G01*
X178036200Y-146294000D01*
G75*
G02*
X178236200Y-146094000I200000J0D01*
G01*
G37*
G36*
G01*
X178236200Y-144444000D02*
X178786200Y-144444000D01*
G75*
G02*
X178986200Y-144644000I0J-200000D01*
G01*
X178986200Y-145044000D01*
G75*
G02*
X178786200Y-145244000I-200000J0D01*
G01*
X178236200Y-145244000D01*
G75*
G02*
X178036200Y-145044000I0J200000D01*
G01*
X178036200Y-144644000D01*
G75*
G02*
X178236200Y-144444000I200000J0D01*
G01*
G37*
G36*
G01*
X171835000Y-142895200D02*
X172335000Y-142895200D01*
G75*
G02*
X172560000Y-143120200I0J-225000D01*
G01*
X172560000Y-143570200D01*
G75*
G02*
X172335000Y-143795200I-225000J0D01*
G01*
X171835000Y-143795200D01*
G75*
G02*
X171610000Y-143570200I0J225000D01*
G01*
X171610000Y-143120200D01*
G75*
G02*
X171835000Y-142895200I225000J0D01*
G01*
G37*
G36*
G01*
X171835000Y-141345200D02*
X172335000Y-141345200D01*
G75*
G02*
X172560000Y-141570200I0J-225000D01*
G01*
X172560000Y-142020200D01*
G75*
G02*
X172335000Y-142245200I-225000J0D01*
G01*
X171835000Y-142245200D01*
G75*
G02*
X171610000Y-142020200I0J225000D01*
G01*
X171610000Y-141570200D01*
G75*
G02*
X171835000Y-141345200I225000J0D01*
G01*
G37*
G36*
G01*
X187384500Y-153700600D02*
X186884500Y-153700600D01*
G75*
G02*
X186659500Y-153475600I0J225000D01*
G01*
X186659500Y-153025600D01*
G75*
G02*
X186884500Y-152800600I225000J0D01*
G01*
X187384500Y-152800600D01*
G75*
G02*
X187609500Y-153025600I0J-225000D01*
G01*
X187609500Y-153475600D01*
G75*
G02*
X187384500Y-153700600I-225000J0D01*
G01*
G37*
G36*
G01*
X187384500Y-155250600D02*
X186884500Y-155250600D01*
G75*
G02*
X186659500Y-155025600I0J225000D01*
G01*
X186659500Y-154575600D01*
G75*
G02*
X186884500Y-154350600I225000J0D01*
G01*
X187384500Y-154350600D01*
G75*
G02*
X187609500Y-154575600I0J-225000D01*
G01*
X187609500Y-155025600D01*
G75*
G02*
X187384500Y-155250600I-225000J0D01*
G01*
G37*
G36*
G01*
X185809700Y-150601800D02*
X185309700Y-150601800D01*
G75*
G02*
X185084700Y-150376800I0J225000D01*
G01*
X185084700Y-149926800D01*
G75*
G02*
X185309700Y-149701800I225000J0D01*
G01*
X185809700Y-149701800D01*
G75*
G02*
X186034700Y-149926800I0J-225000D01*
G01*
X186034700Y-150376800D01*
G75*
G02*
X185809700Y-150601800I-225000J0D01*
G01*
G37*
G36*
G01*
X185809700Y-152151800D02*
X185309700Y-152151800D01*
G75*
G02*
X185084700Y-151926800I0J225000D01*
G01*
X185084700Y-151476800D01*
G75*
G02*
X185309700Y-151251800I225000J0D01*
G01*
X185809700Y-151251800D01*
G75*
G02*
X186034700Y-151476800I0J-225000D01*
G01*
X186034700Y-151926800D01*
G75*
G02*
X185809700Y-152151800I-225000J0D01*
G01*
G37*
G36*
G01*
X186735600Y-161717800D02*
X186735600Y-161217800D01*
G75*
G02*
X186960600Y-160992800I225000J0D01*
G01*
X187410600Y-160992800D01*
G75*
G02*
X187635600Y-161217800I0J-225000D01*
G01*
X187635600Y-161717800D01*
G75*
G02*
X187410600Y-161942800I-225000J0D01*
G01*
X186960600Y-161942800D01*
G75*
G02*
X186735600Y-161717800I0J225000D01*
G01*
G37*
G36*
G01*
X185185600Y-161717800D02*
X185185600Y-161217800D01*
G75*
G02*
X185410600Y-160992800I225000J0D01*
G01*
X185860600Y-160992800D01*
G75*
G02*
X186085600Y-161217800I0J-225000D01*
G01*
X186085600Y-161717800D01*
G75*
G02*
X185860600Y-161942800I-225000J0D01*
G01*
X185410600Y-161942800D01*
G75*
G02*
X185185600Y-161717800I0J225000D01*
G01*
G37*
G36*
G01*
X173409800Y-145981000D02*
X173909800Y-145981000D01*
G75*
G02*
X174134800Y-146206000I0J-225000D01*
G01*
X174134800Y-146656000D01*
G75*
G02*
X173909800Y-146881000I-225000J0D01*
G01*
X173409800Y-146881000D01*
G75*
G02*
X173184800Y-146656000I0J225000D01*
G01*
X173184800Y-146206000D01*
G75*
G02*
X173409800Y-145981000I225000J0D01*
G01*
G37*
G36*
G01*
X173409800Y-144431000D02*
X173909800Y-144431000D01*
G75*
G02*
X174134800Y-144656000I0J-225000D01*
G01*
X174134800Y-145106000D01*
G75*
G02*
X173909800Y-145331000I-225000J0D01*
G01*
X173409800Y-145331000D01*
G75*
G02*
X173184800Y-145106000I0J225000D01*
G01*
X173184800Y-144656000D01*
G75*
G02*
X173409800Y-144431000I225000J0D01*
G01*
G37*
G36*
G01*
X176052600Y-133049200D02*
X176052600Y-133549200D01*
G75*
G02*
X175827600Y-133774200I-225000J0D01*
G01*
X175377600Y-133774200D01*
G75*
G02*
X175152600Y-133549200I0J225000D01*
G01*
X175152600Y-133049200D01*
G75*
G02*
X175377600Y-132824200I225000J0D01*
G01*
X175827600Y-132824200D01*
G75*
G02*
X176052600Y-133049200I0J-225000D01*
G01*
G37*
G36*
G01*
X177602600Y-133049200D02*
X177602600Y-133549200D01*
G75*
G02*
X177377600Y-133774200I-225000J0D01*
G01*
X176927600Y-133774200D01*
G75*
G02*
X176702600Y-133549200I0J225000D01*
G01*
X176702600Y-133049200D01*
G75*
G02*
X176927600Y-132824200I225000J0D01*
G01*
X177377600Y-132824200D01*
G75*
G02*
X177602600Y-133049200I0J-225000D01*
G01*
G37*
D15*
X180568600Y-123781000D03*
X180568600Y-118281000D03*
G36*
G01*
X124566000Y-140927640D02*
X125116000Y-140927640D01*
G75*
G02*
X125316000Y-141127640I0J-200000D01*
G01*
X125316000Y-141527640D01*
G75*
G02*
X125116000Y-141727640I-200000J0D01*
G01*
X124566000Y-141727640D01*
G75*
G02*
X124366000Y-141527640I0J200000D01*
G01*
X124366000Y-141127640D01*
G75*
G02*
X124566000Y-140927640I200000J0D01*
G01*
G37*
G36*
G01*
X124566000Y-139277640D02*
X125116000Y-139277640D01*
G75*
G02*
X125316000Y-139477640I0J-200000D01*
G01*
X125316000Y-139877640D01*
G75*
G02*
X125116000Y-140077640I-200000J0D01*
G01*
X124566000Y-140077640D01*
G75*
G02*
X124366000Y-139877640I0J200000D01*
G01*
X124366000Y-139477640D01*
G75*
G02*
X124566000Y-139277640I200000J0D01*
G01*
G37*
G36*
G01*
X109920360Y-140973360D02*
X110470360Y-140973360D01*
G75*
G02*
X110670360Y-141173360I0J-200000D01*
G01*
X110670360Y-141573360D01*
G75*
G02*
X110470360Y-141773360I-200000J0D01*
G01*
X109920360Y-141773360D01*
G75*
G02*
X109720360Y-141573360I0J200000D01*
G01*
X109720360Y-141173360D01*
G75*
G02*
X109920360Y-140973360I200000J0D01*
G01*
G37*
G36*
G01*
X109920360Y-139323360D02*
X110470360Y-139323360D01*
G75*
G02*
X110670360Y-139523360I0J-200000D01*
G01*
X110670360Y-139923360D01*
G75*
G02*
X110470360Y-140123360I-200000J0D01*
G01*
X109920360Y-140123360D01*
G75*
G02*
X109720360Y-139923360I0J200000D01*
G01*
X109720360Y-139523360D01*
G75*
G02*
X109920360Y-139323360I200000J0D01*
G01*
G37*
D16*
X132261800Y-135495400D03*
X132261800Y-133795400D03*
X130481800Y-135495400D03*
X130481800Y-133795400D03*
X128701800Y-135495400D03*
X128701800Y-133795400D03*
X126921800Y-135495400D03*
X126921800Y-133795400D03*
X125141800Y-133795400D03*
X125141800Y-135495400D03*
D17*
X124476800Y-131795400D03*
X125126800Y-131795400D03*
X125776800Y-131795400D03*
X126426800Y-131795400D03*
X127076800Y-131795400D03*
X127726800Y-131795400D03*
X128376800Y-131795400D03*
X129026800Y-131795400D03*
X129676800Y-131795400D03*
X130326800Y-131795400D03*
X130976800Y-131795400D03*
X131626800Y-131795400D03*
X132276800Y-131795400D03*
X132926800Y-131795400D03*
X132926800Y-137495400D03*
X132276800Y-137495400D03*
X131626800Y-137495400D03*
X130976800Y-137495400D03*
X130326800Y-137495400D03*
X129676800Y-137495400D03*
X129026800Y-137495400D03*
X128376800Y-137495400D03*
X127726800Y-137495400D03*
X127076800Y-137495400D03*
X126426800Y-137495400D03*
X125776800Y-137495400D03*
X125126800Y-137495400D03*
X124476800Y-137495400D03*
D16*
X117682200Y-135546200D03*
X117682200Y-133846200D03*
X115902200Y-135546200D03*
X115902200Y-133846200D03*
X114122200Y-135546200D03*
X114122200Y-133846200D03*
X112342200Y-135546200D03*
X112342200Y-133846200D03*
X110562200Y-133846200D03*
X110562200Y-135546200D03*
D17*
X109897200Y-131846200D03*
X110547200Y-131846200D03*
X111197200Y-131846200D03*
X111847200Y-131846200D03*
X112497200Y-131846200D03*
X113147200Y-131846200D03*
X113797200Y-131846200D03*
X114447200Y-131846200D03*
X115097200Y-131846200D03*
X115747200Y-131846200D03*
X116397200Y-131846200D03*
X117047200Y-131846200D03*
X117697200Y-131846200D03*
X118347200Y-131846200D03*
X118347200Y-137546200D03*
X117697200Y-137546200D03*
X117047200Y-137546200D03*
X116397200Y-137546200D03*
X115747200Y-137546200D03*
X115097200Y-137546200D03*
X114447200Y-137546200D03*
X113797200Y-137546200D03*
X113147200Y-137546200D03*
X112497200Y-137546200D03*
X111847200Y-137546200D03*
X111197200Y-137546200D03*
X110547200Y-137546200D03*
X109897200Y-137546200D03*
D15*
X131089400Y-121088600D03*
X131089400Y-115588600D03*
X116763800Y-121139400D03*
X116763800Y-115639400D03*
X123875800Y-121088600D03*
X123875800Y-115588600D03*
X109601000Y-121139400D03*
X109601000Y-115639400D03*
D18*
X155920000Y-204350000D03*
X138080000Y-204350000D03*
D19*
X154250000Y-202650000D03*
X153750000Y-202650000D03*
X153250000Y-202650000D03*
X152750000Y-202650000D03*
X152250000Y-202650000D03*
X151750000Y-202650000D03*
X151250000Y-202650000D03*
X150750000Y-202650000D03*
X150250000Y-202650000D03*
X149750000Y-202650000D03*
X149250000Y-202650000D03*
X148750000Y-202650000D03*
X148250000Y-202650000D03*
X147750000Y-202650000D03*
X147250000Y-202650000D03*
X146750000Y-202650000D03*
X146250000Y-202650000D03*
X145750000Y-202650000D03*
X145250000Y-202650000D03*
X144750000Y-202650000D03*
X144250000Y-202650000D03*
X143750000Y-202650000D03*
X143250000Y-202650000D03*
X142750000Y-202650000D03*
X142250000Y-202650000D03*
X141750000Y-202650000D03*
X141250000Y-202650000D03*
X140750000Y-202650000D03*
X140250000Y-202650000D03*
X139750000Y-202650000D03*
G36*
G01*
X129366200Y-126537600D02*
X129866200Y-126537600D01*
G75*
G02*
X130091200Y-126762600I0J-225000D01*
G01*
X130091200Y-127212600D01*
G75*
G02*
X129866200Y-127437600I-225000J0D01*
G01*
X129366200Y-127437600D01*
G75*
G02*
X129141200Y-127212600I0J225000D01*
G01*
X129141200Y-126762600D01*
G75*
G02*
X129366200Y-126537600I225000J0D01*
G01*
G37*
G36*
G01*
X129366200Y-124987600D02*
X129866200Y-124987600D01*
G75*
G02*
X130091200Y-125212600I0J-225000D01*
G01*
X130091200Y-125662600D01*
G75*
G02*
X129866200Y-125887600I-225000J0D01*
G01*
X129366200Y-125887600D01*
G75*
G02*
X129141200Y-125662600I0J225000D01*
G01*
X129141200Y-125212600D01*
G75*
G02*
X129366200Y-124987600I225000J0D01*
G01*
G37*
G36*
G01*
X132566600Y-126486800D02*
X133066600Y-126486800D01*
G75*
G02*
X133291600Y-126711800I0J-225000D01*
G01*
X133291600Y-127161800D01*
G75*
G02*
X133066600Y-127386800I-225000J0D01*
G01*
X132566600Y-127386800D01*
G75*
G02*
X132341600Y-127161800I0J225000D01*
G01*
X132341600Y-126711800D01*
G75*
G02*
X132566600Y-126486800I225000J0D01*
G01*
G37*
G36*
G01*
X132566600Y-124936800D02*
X133066600Y-124936800D01*
G75*
G02*
X133291600Y-125161800I0J-225000D01*
G01*
X133291600Y-125611800D01*
G75*
G02*
X133066600Y-125836800I-225000J0D01*
G01*
X132566600Y-125836800D01*
G75*
G02*
X132341600Y-125611800I0J225000D01*
G01*
X132341600Y-125161800D01*
G75*
G02*
X132566600Y-124936800I225000J0D01*
G01*
G37*
G36*
G01*
X127740600Y-126537600D02*
X128240600Y-126537600D01*
G75*
G02*
X128465600Y-126762600I0J-225000D01*
G01*
X128465600Y-127212600D01*
G75*
G02*
X128240600Y-127437600I-225000J0D01*
G01*
X127740600Y-127437600D01*
G75*
G02*
X127515600Y-127212600I0J225000D01*
G01*
X127515600Y-126762600D01*
G75*
G02*
X127740600Y-126537600I225000J0D01*
G01*
G37*
G36*
G01*
X127740600Y-124987600D02*
X128240600Y-124987600D01*
G75*
G02*
X128465600Y-125212600I0J-225000D01*
G01*
X128465600Y-125662600D01*
G75*
G02*
X128240600Y-125887600I-225000J0D01*
G01*
X127740600Y-125887600D01*
G75*
G02*
X127515600Y-125662600I0J225000D01*
G01*
X127515600Y-125212600D01*
G75*
G02*
X127740600Y-124987600I225000J0D01*
G01*
G37*
G36*
G01*
X124977080Y-126568080D02*
X125477080Y-126568080D01*
G75*
G02*
X125702080Y-126793080I0J-225000D01*
G01*
X125702080Y-127243080D01*
G75*
G02*
X125477080Y-127468080I-225000J0D01*
G01*
X124977080Y-127468080D01*
G75*
G02*
X124752080Y-127243080I0J225000D01*
G01*
X124752080Y-126793080D01*
G75*
G02*
X124977080Y-126568080I225000J0D01*
G01*
G37*
G36*
G01*
X124977080Y-125018080D02*
X125477080Y-125018080D01*
G75*
G02*
X125702080Y-125243080I0J-225000D01*
G01*
X125702080Y-125693080D01*
G75*
G02*
X125477080Y-125918080I-225000J0D01*
G01*
X124977080Y-125918080D01*
G75*
G02*
X124752080Y-125693080I0J225000D01*
G01*
X124752080Y-125243080D01*
G75*
G02*
X124977080Y-125018080I225000J0D01*
G01*
G37*
G36*
G01*
X114939000Y-126486800D02*
X115439000Y-126486800D01*
G75*
G02*
X115664000Y-126711800I0J-225000D01*
G01*
X115664000Y-127161800D01*
G75*
G02*
X115439000Y-127386800I-225000J0D01*
G01*
X114939000Y-127386800D01*
G75*
G02*
X114714000Y-127161800I0J225000D01*
G01*
X114714000Y-126711800D01*
G75*
G02*
X114939000Y-126486800I225000J0D01*
G01*
G37*
G36*
G01*
X114939000Y-124936800D02*
X115439000Y-124936800D01*
G75*
G02*
X115664000Y-125161800I0J-225000D01*
G01*
X115664000Y-125611800D01*
G75*
G02*
X115439000Y-125836800I-225000J0D01*
G01*
X114939000Y-125836800D01*
G75*
G02*
X114714000Y-125611800I0J225000D01*
G01*
X114714000Y-125161800D01*
G75*
G02*
X114939000Y-124936800I225000J0D01*
G01*
G37*
G36*
G01*
X117768560Y-126476640D02*
X118268560Y-126476640D01*
G75*
G02*
X118493560Y-126701640I0J-225000D01*
G01*
X118493560Y-127151640D01*
G75*
G02*
X118268560Y-127376640I-225000J0D01*
G01*
X117768560Y-127376640D01*
G75*
G02*
X117543560Y-127151640I0J225000D01*
G01*
X117543560Y-126701640D01*
G75*
G02*
X117768560Y-126476640I225000J0D01*
G01*
G37*
G36*
G01*
X117768560Y-124926640D02*
X118268560Y-124926640D01*
G75*
G02*
X118493560Y-125151640I0J-225000D01*
G01*
X118493560Y-125601640D01*
G75*
G02*
X118268560Y-125826640I-225000J0D01*
G01*
X117768560Y-125826640D01*
G75*
G02*
X117543560Y-125601640I0J225000D01*
G01*
X117543560Y-125151640D01*
G75*
G02*
X117768560Y-124926640I225000J0D01*
G01*
G37*
G36*
G01*
X113313400Y-126486800D02*
X113813400Y-126486800D01*
G75*
G02*
X114038400Y-126711800I0J-225000D01*
G01*
X114038400Y-127161800D01*
G75*
G02*
X113813400Y-127386800I-225000J0D01*
G01*
X113313400Y-127386800D01*
G75*
G02*
X113088400Y-127161800I0J225000D01*
G01*
X113088400Y-126711800D01*
G75*
G02*
X113313400Y-126486800I225000J0D01*
G01*
G37*
G36*
G01*
X113313400Y-124936800D02*
X113813400Y-124936800D01*
G75*
G02*
X114038400Y-125161800I0J-225000D01*
G01*
X114038400Y-125611800D01*
G75*
G02*
X113813400Y-125836800I-225000J0D01*
G01*
X113313400Y-125836800D01*
G75*
G02*
X113088400Y-125611800I0J225000D01*
G01*
X113088400Y-125161800D01*
G75*
G02*
X113313400Y-124936800I225000J0D01*
G01*
G37*
G36*
G01*
X110443200Y-126461400D02*
X110943200Y-126461400D01*
G75*
G02*
X111168200Y-126686400I0J-225000D01*
G01*
X111168200Y-127136400D01*
G75*
G02*
X110943200Y-127361400I-225000J0D01*
G01*
X110443200Y-127361400D01*
G75*
G02*
X110218200Y-127136400I0J225000D01*
G01*
X110218200Y-126686400D01*
G75*
G02*
X110443200Y-126461400I225000J0D01*
G01*
G37*
G36*
G01*
X110443200Y-124911400D02*
X110943200Y-124911400D01*
G75*
G02*
X111168200Y-125136400I0J-225000D01*
G01*
X111168200Y-125586400D01*
G75*
G02*
X110943200Y-125811400I-225000J0D01*
G01*
X110443200Y-125811400D01*
G75*
G02*
X110218200Y-125586400I0J225000D01*
G01*
X110218200Y-125136400D01*
G75*
G02*
X110443200Y-124911400I225000J0D01*
G01*
G37*
G36*
G01*
X122230000Y-139577000D02*
X122230000Y-140077000D01*
G75*
G02*
X122005000Y-140302000I-225000J0D01*
G01*
X121555000Y-140302000D01*
G75*
G02*
X121330000Y-140077000I0J225000D01*
G01*
X121330000Y-139577000D01*
G75*
G02*
X121555000Y-139352000I225000J0D01*
G01*
X122005000Y-139352000D01*
G75*
G02*
X122230000Y-139577000I0J-225000D01*
G01*
G37*
G36*
G01*
X123780000Y-139577000D02*
X123780000Y-140077000D01*
G75*
G02*
X123555000Y-140302000I-225000J0D01*
G01*
X123105000Y-140302000D01*
G75*
G02*
X122880000Y-140077000I0J225000D01*
G01*
X122880000Y-139577000D01*
G75*
G02*
X123105000Y-139352000I225000J0D01*
G01*
X123555000Y-139352000D01*
G75*
G02*
X123780000Y-139577000I0J-225000D01*
G01*
G37*
G36*
G01*
X107354560Y-132852040D02*
X107854560Y-132852040D01*
G75*
G02*
X108079560Y-133077040I0J-225000D01*
G01*
X108079560Y-133527040D01*
G75*
G02*
X107854560Y-133752040I-225000J0D01*
G01*
X107354560Y-133752040D01*
G75*
G02*
X107129560Y-133527040I0J225000D01*
G01*
X107129560Y-133077040D01*
G75*
G02*
X107354560Y-132852040I225000J0D01*
G01*
G37*
G36*
G01*
X107354560Y-131302040D02*
X107854560Y-131302040D01*
G75*
G02*
X108079560Y-131527040I0J-225000D01*
G01*
X108079560Y-131977040D01*
G75*
G02*
X107854560Y-132202040I-225000J0D01*
G01*
X107354560Y-132202040D01*
G75*
G02*
X107129560Y-131977040I0J225000D01*
G01*
X107129560Y-131527040D01*
G75*
G02*
X107354560Y-131302040I225000J0D01*
G01*
G37*
G36*
G01*
X121969720Y-131856360D02*
X122469720Y-131856360D01*
G75*
G02*
X122694720Y-132081360I0J-225000D01*
G01*
X122694720Y-132531360D01*
G75*
G02*
X122469720Y-132756360I-225000J0D01*
G01*
X121969720Y-132756360D01*
G75*
G02*
X121744720Y-132531360I0J225000D01*
G01*
X121744720Y-132081360D01*
G75*
G02*
X121969720Y-131856360I225000J0D01*
G01*
G37*
G36*
G01*
X121969720Y-130306360D02*
X122469720Y-130306360D01*
G75*
G02*
X122694720Y-130531360I0J-225000D01*
G01*
X122694720Y-130981360D01*
G75*
G02*
X122469720Y-131206360I-225000J0D01*
G01*
X121969720Y-131206360D01*
G75*
G02*
X121744720Y-130981360I0J225000D01*
G01*
X121744720Y-130531360D01*
G75*
G02*
X121969720Y-130306360I225000J0D01*
G01*
G37*
G36*
G01*
X120313640Y-131866520D02*
X120813640Y-131866520D01*
G75*
G02*
X121038640Y-132091520I0J-225000D01*
G01*
X121038640Y-132541520D01*
G75*
G02*
X120813640Y-132766520I-225000J0D01*
G01*
X120313640Y-132766520D01*
G75*
G02*
X120088640Y-132541520I0J225000D01*
G01*
X120088640Y-132091520D01*
G75*
G02*
X120313640Y-131866520I225000J0D01*
G01*
G37*
G36*
G01*
X120313640Y-130316520D02*
X120813640Y-130316520D01*
G75*
G02*
X121038640Y-130541520I0J-225000D01*
G01*
X121038640Y-130991520D01*
G75*
G02*
X120813640Y-131216520I-225000J0D01*
G01*
X120313640Y-131216520D01*
G75*
G02*
X120088640Y-130991520I0J225000D01*
G01*
X120088640Y-130541520D01*
G75*
G02*
X120313640Y-130316520I225000J0D01*
G01*
G37*
G36*
G01*
X134730680Y-132780920D02*
X135230680Y-132780920D01*
G75*
G02*
X135455680Y-133005920I0J-225000D01*
G01*
X135455680Y-133455920D01*
G75*
G02*
X135230680Y-133680920I-225000J0D01*
G01*
X134730680Y-133680920D01*
G75*
G02*
X134505680Y-133455920I0J225000D01*
G01*
X134505680Y-133005920D01*
G75*
G02*
X134730680Y-132780920I225000J0D01*
G01*
G37*
G36*
G01*
X134730680Y-131230920D02*
X135230680Y-131230920D01*
G75*
G02*
X135455680Y-131455920I0J-225000D01*
G01*
X135455680Y-131905920D01*
G75*
G02*
X135230680Y-132130920I-225000J0D01*
G01*
X134730680Y-132130920D01*
G75*
G02*
X134505680Y-131905920I0J225000D01*
G01*
X134505680Y-131455920D01*
G75*
G02*
X134730680Y-131230920I225000J0D01*
G01*
G37*
G36*
G01*
X107551340Y-139577000D02*
X107551340Y-140077000D01*
G75*
G02*
X107326340Y-140302000I-225000J0D01*
G01*
X106876340Y-140302000D01*
G75*
G02*
X106651340Y-140077000I0J225000D01*
G01*
X106651340Y-139577000D01*
G75*
G02*
X106876340Y-139352000I225000J0D01*
G01*
X107326340Y-139352000D01*
G75*
G02*
X107551340Y-139577000I0J-225000D01*
G01*
G37*
G36*
G01*
X109101340Y-139577000D02*
X109101340Y-140077000D01*
G75*
G02*
X108876340Y-140302000I-225000J0D01*
G01*
X108426340Y-140302000D01*
G75*
G02*
X108201340Y-140077000I0J225000D01*
G01*
X108201340Y-139577000D01*
G75*
G02*
X108426340Y-139352000I225000J0D01*
G01*
X108876340Y-139352000D01*
G75*
G02*
X109101340Y-139577000I0J-225000D01*
G01*
G37*
G36*
G01*
X105239800Y-133195480D02*
X106189800Y-133195480D01*
G75*
G02*
X106439800Y-133445480I0J-250000D01*
G01*
X106439800Y-133945480D01*
G75*
G02*
X106189800Y-134195480I-250000J0D01*
G01*
X105239800Y-134195480D01*
G75*
G02*
X104989800Y-133945480I0J250000D01*
G01*
X104989800Y-133445480D01*
G75*
G02*
X105239800Y-133195480I250000J0D01*
G01*
G37*
G36*
G01*
X105239800Y-131295480D02*
X106189800Y-131295480D01*
G75*
G02*
X106439800Y-131545480I0J-250000D01*
G01*
X106439800Y-132045480D01*
G75*
G02*
X106189800Y-132295480I-250000J0D01*
G01*
X105239800Y-132295480D01*
G75*
G02*
X104989800Y-132045480I0J250000D01*
G01*
X104989800Y-131545480D01*
G75*
G02*
X105239800Y-131295480I250000J0D01*
G01*
G37*
G36*
G01*
X123151920Y-126981800D02*
X122201920Y-126981800D01*
G75*
G02*
X121951920Y-126731800I0J250000D01*
G01*
X121951920Y-126231800D01*
G75*
G02*
X122201920Y-125981800I250000J0D01*
G01*
X123151920Y-125981800D01*
G75*
G02*
X123401920Y-126231800I0J-250000D01*
G01*
X123401920Y-126731800D01*
G75*
G02*
X123151920Y-126981800I-250000J0D01*
G01*
G37*
G36*
G01*
X123151920Y-128881800D02*
X122201920Y-128881800D01*
G75*
G02*
X121951920Y-128631800I0J250000D01*
G01*
X121951920Y-128131800D01*
G75*
G02*
X122201920Y-127881800I250000J0D01*
G01*
X123151920Y-127881800D01*
G75*
G02*
X123401920Y-128131800I0J-250000D01*
G01*
X123401920Y-128631800D01*
G75*
G02*
X123151920Y-128881800I-250000J0D01*
G01*
G37*
G36*
G01*
X121069120Y-126986880D02*
X120119120Y-126986880D01*
G75*
G02*
X119869120Y-126736880I0J250000D01*
G01*
X119869120Y-126236880D01*
G75*
G02*
X120119120Y-125986880I250000J0D01*
G01*
X121069120Y-125986880D01*
G75*
G02*
X121319120Y-126236880I0J-250000D01*
G01*
X121319120Y-126736880D01*
G75*
G02*
X121069120Y-126986880I-250000J0D01*
G01*
G37*
G36*
G01*
X121069120Y-128886880D02*
X120119120Y-128886880D01*
G75*
G02*
X119869120Y-128636880I0J250000D01*
G01*
X119869120Y-128136880D01*
G75*
G02*
X120119120Y-127886880I250000J0D01*
G01*
X121069120Y-127886880D01*
G75*
G02*
X121319120Y-128136880I0J-250000D01*
G01*
X121319120Y-128636880D01*
G75*
G02*
X121069120Y-128886880I-250000J0D01*
G01*
G37*
G36*
G01*
X136349720Y-133114200D02*
X137299720Y-133114200D01*
G75*
G02*
X137549720Y-133364200I0J-250000D01*
G01*
X137549720Y-133864200D01*
G75*
G02*
X137299720Y-134114200I-250000J0D01*
G01*
X136349720Y-134114200D01*
G75*
G02*
X136099720Y-133864200I0J250000D01*
G01*
X136099720Y-133364200D01*
G75*
G02*
X136349720Y-133114200I250000J0D01*
G01*
G37*
G36*
G01*
X136349720Y-131214200D02*
X137299720Y-131214200D01*
G75*
G02*
X137549720Y-131464200I0J-250000D01*
G01*
X137549720Y-131964200D01*
G75*
G02*
X137299720Y-132214200I-250000J0D01*
G01*
X136349720Y-132214200D01*
G75*
G02*
X136099720Y-131964200I0J250000D01*
G01*
X136099720Y-131464200D01*
G75*
G02*
X136349720Y-131214200I250000J0D01*
G01*
G37*
G36*
G01*
X142683040Y-198523720D02*
X142183040Y-198523720D01*
G75*
G02*
X141958040Y-198298720I0J225000D01*
G01*
X141958040Y-197848720D01*
G75*
G02*
X142183040Y-197623720I225000J0D01*
G01*
X142683040Y-197623720D01*
G75*
G02*
X142908040Y-197848720I0J-225000D01*
G01*
X142908040Y-198298720D01*
G75*
G02*
X142683040Y-198523720I-225000J0D01*
G01*
G37*
G36*
G01*
X142683040Y-200073720D02*
X142183040Y-200073720D01*
G75*
G02*
X141958040Y-199848720I0J225000D01*
G01*
X141958040Y-199398720D01*
G75*
G02*
X142183040Y-199173720I225000J0D01*
G01*
X142683040Y-199173720D01*
G75*
G02*
X142908040Y-199398720I0J-225000D01*
G01*
X142908040Y-199848720D01*
G75*
G02*
X142683040Y-200073720I-225000J0D01*
G01*
G37*
G36*
G01*
X154365940Y-199222520D02*
X155315940Y-199222520D01*
G75*
G02*
X155565940Y-199472520I0J-250000D01*
G01*
X155565940Y-199972520D01*
G75*
G02*
X155315940Y-200222520I-250000J0D01*
G01*
X154365940Y-200222520D01*
G75*
G02*
X154115940Y-199972520I0J250000D01*
G01*
X154115940Y-199472520D01*
G75*
G02*
X154365940Y-199222520I250000J0D01*
G01*
G37*
G36*
G01*
X154365940Y-197322520D02*
X155315940Y-197322520D01*
G75*
G02*
X155565940Y-197572520I0J-250000D01*
G01*
X155565940Y-198072520D01*
G75*
G02*
X155315940Y-198322520I-250000J0D01*
G01*
X154365940Y-198322520D01*
G75*
G02*
X154115940Y-198072520I0J250000D01*
G01*
X154115940Y-197572520D01*
G75*
G02*
X154365940Y-197322520I250000J0D01*
G01*
G37*
G36*
G01*
X152245040Y-199209820D02*
X153195040Y-199209820D01*
G75*
G02*
X153445040Y-199459820I0J-250000D01*
G01*
X153445040Y-199959820D01*
G75*
G02*
X153195040Y-200209820I-250000J0D01*
G01*
X152245040Y-200209820D01*
G75*
G02*
X151995040Y-199959820I0J250000D01*
G01*
X151995040Y-199459820D01*
G75*
G02*
X152245040Y-199209820I250000J0D01*
G01*
G37*
G36*
G01*
X152245040Y-197309820D02*
X153195040Y-197309820D01*
G75*
G02*
X153445040Y-197559820I0J-250000D01*
G01*
X153445040Y-198059820D01*
G75*
G02*
X153195040Y-198309820I-250000J0D01*
G01*
X152245040Y-198309820D01*
G75*
G02*
X151995040Y-198059820I0J250000D01*
G01*
X151995040Y-197559820D01*
G75*
G02*
X152245040Y-197309820I250000J0D01*
G01*
G37*
G36*
G01*
X124515200Y-173729200D02*
X125065200Y-173729200D01*
G75*
G02*
X125265200Y-173929200I0J-200000D01*
G01*
X125265200Y-174329200D01*
G75*
G02*
X125065200Y-174529200I-200000J0D01*
G01*
X124515200Y-174529200D01*
G75*
G02*
X124315200Y-174329200I0J200000D01*
G01*
X124315200Y-173929200D01*
G75*
G02*
X124515200Y-173729200I200000J0D01*
G01*
G37*
G36*
G01*
X124515200Y-172079200D02*
X125065200Y-172079200D01*
G75*
G02*
X125265200Y-172279200I0J-200000D01*
G01*
X125265200Y-172679200D01*
G75*
G02*
X125065200Y-172879200I-200000J0D01*
G01*
X124515200Y-172879200D01*
G75*
G02*
X124315200Y-172679200I0J200000D01*
G01*
X124315200Y-172279200D01*
G75*
G02*
X124515200Y-172079200I200000J0D01*
G01*
G37*
G36*
G01*
X110951600Y-173729200D02*
X111501600Y-173729200D01*
G75*
G02*
X111701600Y-173929200I0J-200000D01*
G01*
X111701600Y-174329200D01*
G75*
G02*
X111501600Y-174529200I-200000J0D01*
G01*
X110951600Y-174529200D01*
G75*
G02*
X110751600Y-174329200I0J200000D01*
G01*
X110751600Y-173929200D01*
G75*
G02*
X110951600Y-173729200I200000J0D01*
G01*
G37*
G36*
G01*
X110951600Y-172079200D02*
X111501600Y-172079200D01*
G75*
G02*
X111701600Y-172279200I0J-200000D01*
G01*
X111701600Y-172679200D01*
G75*
G02*
X111501600Y-172879200I-200000J0D01*
G01*
X110951600Y-172879200D01*
G75*
G02*
X110751600Y-172679200I0J200000D01*
G01*
X110751600Y-172279200D01*
G75*
G02*
X110951600Y-172079200I200000J0D01*
G01*
G37*
G36*
G01*
X113051000Y-179318100D02*
X112501000Y-179318100D01*
G75*
G02*
X112301000Y-179118100I0J200000D01*
G01*
X112301000Y-178718100D01*
G75*
G02*
X112501000Y-178518100I200000J0D01*
G01*
X113051000Y-178518100D01*
G75*
G02*
X113251000Y-178718100I0J-200000D01*
G01*
X113251000Y-179118100D01*
G75*
G02*
X113051000Y-179318100I-200000J0D01*
G01*
G37*
G36*
G01*
X113051000Y-180968100D02*
X112501000Y-180968100D01*
G75*
G02*
X112301000Y-180768100I0J200000D01*
G01*
X112301000Y-180368100D01*
G75*
G02*
X112501000Y-180168100I200000J0D01*
G01*
X113051000Y-180168100D01*
G75*
G02*
X113251000Y-180368100I0J-200000D01*
G01*
X113251000Y-180768100D01*
G75*
G02*
X113051000Y-180968100I-200000J0D01*
G01*
G37*
G36*
G01*
X123477700Y-179343500D02*
X122927700Y-179343500D01*
G75*
G02*
X122727700Y-179143500I0J200000D01*
G01*
X122727700Y-178743500D01*
G75*
G02*
X122927700Y-178543500I200000J0D01*
G01*
X123477700Y-178543500D01*
G75*
G02*
X123677700Y-178743500I0J-200000D01*
G01*
X123677700Y-179143500D01*
G75*
G02*
X123477700Y-179343500I-200000J0D01*
G01*
G37*
G36*
G01*
X123477700Y-180993500D02*
X122927700Y-180993500D01*
G75*
G02*
X122727700Y-180793500I0J200000D01*
G01*
X122727700Y-180393500D01*
G75*
G02*
X122927700Y-180193500I200000J0D01*
G01*
X123477700Y-180193500D01*
G75*
G02*
X123677700Y-180393500I0J-200000D01*
G01*
X123677700Y-180793500D01*
G75*
G02*
X123477700Y-180993500I-200000J0D01*
G01*
G37*
G36*
G01*
X108778720Y-159051440D02*
X108228720Y-159051440D01*
G75*
G02*
X108028720Y-158851440I0J200000D01*
G01*
X108028720Y-158451440D01*
G75*
G02*
X108228720Y-158251440I200000J0D01*
G01*
X108778720Y-158251440D01*
G75*
G02*
X108978720Y-158451440I0J-200000D01*
G01*
X108978720Y-158851440D01*
G75*
G02*
X108778720Y-159051440I-200000J0D01*
G01*
G37*
G36*
G01*
X108778720Y-160701440D02*
X108228720Y-160701440D01*
G75*
G02*
X108028720Y-160501440I0J200000D01*
G01*
X108028720Y-160101440D01*
G75*
G02*
X108228720Y-159901440I200000J0D01*
G01*
X108778720Y-159901440D01*
G75*
G02*
X108978720Y-160101440I0J-200000D01*
G01*
X108978720Y-160501440D01*
G75*
G02*
X108778720Y-160701440I-200000J0D01*
G01*
G37*
G36*
G01*
X110596000Y-161461000D02*
X111146000Y-161461000D01*
G75*
G02*
X111346000Y-161661000I0J-200000D01*
G01*
X111346000Y-162061000D01*
G75*
G02*
X111146000Y-162261000I-200000J0D01*
G01*
X110596000Y-162261000D01*
G75*
G02*
X110396000Y-162061000I0J200000D01*
G01*
X110396000Y-161661000D01*
G75*
G02*
X110596000Y-161461000I200000J0D01*
G01*
G37*
G36*
G01*
X110596000Y-159811000D02*
X111146000Y-159811000D01*
G75*
G02*
X111346000Y-160011000I0J-200000D01*
G01*
X111346000Y-160411000D01*
G75*
G02*
X111146000Y-160611000I-200000J0D01*
G01*
X110596000Y-160611000D01*
G75*
G02*
X110396000Y-160411000I0J200000D01*
G01*
X110396000Y-160011000D01*
G75*
G02*
X110596000Y-159811000I200000J0D01*
G01*
G37*
G36*
G01*
X123719000Y-149308000D02*
X123169000Y-149308000D01*
G75*
G02*
X122969000Y-149108000I0J200000D01*
G01*
X122969000Y-148708000D01*
G75*
G02*
X123169000Y-148508000I200000J0D01*
G01*
X123719000Y-148508000D01*
G75*
G02*
X123919000Y-148708000I0J-200000D01*
G01*
X123919000Y-149108000D01*
G75*
G02*
X123719000Y-149308000I-200000J0D01*
G01*
G37*
G36*
G01*
X123719000Y-150958000D02*
X123169000Y-150958000D01*
G75*
G02*
X122969000Y-150758000I0J200000D01*
G01*
X122969000Y-150358000D01*
G75*
G02*
X123169000Y-150158000I200000J0D01*
G01*
X123719000Y-150158000D01*
G75*
G02*
X123919000Y-150358000I0J-200000D01*
G01*
X123919000Y-150758000D01*
G75*
G02*
X123719000Y-150958000I-200000J0D01*
G01*
G37*
G36*
G01*
X129688000Y-183725000D02*
X129138000Y-183725000D01*
G75*
G02*
X128938000Y-183525000I0J200000D01*
G01*
X128938000Y-183125000D01*
G75*
G02*
X129138000Y-182925000I200000J0D01*
G01*
X129688000Y-182925000D01*
G75*
G02*
X129888000Y-183125000I0J-200000D01*
G01*
X129888000Y-183525000D01*
G75*
G02*
X129688000Y-183725000I-200000J0D01*
G01*
G37*
G36*
G01*
X129688000Y-185375000D02*
X129138000Y-185375000D01*
G75*
G02*
X128938000Y-185175000I0J200000D01*
G01*
X128938000Y-184775000D01*
G75*
G02*
X129138000Y-184575000I200000J0D01*
G01*
X129688000Y-184575000D01*
G75*
G02*
X129888000Y-184775000I0J-200000D01*
G01*
X129888000Y-185175000D01*
G75*
G02*
X129688000Y-185375000I-200000J0D01*
G01*
G37*
G36*
G01*
X129138000Y-188385000D02*
X129688000Y-188385000D01*
G75*
G02*
X129888000Y-188585000I0J-200000D01*
G01*
X129888000Y-188985000D01*
G75*
G02*
X129688000Y-189185000I-200000J0D01*
G01*
X129138000Y-189185000D01*
G75*
G02*
X128938000Y-188985000I0J200000D01*
G01*
X128938000Y-188585000D01*
G75*
G02*
X129138000Y-188385000I200000J0D01*
G01*
G37*
G36*
G01*
X129138000Y-186735000D02*
X129688000Y-186735000D01*
G75*
G02*
X129888000Y-186935000I0J-200000D01*
G01*
X129888000Y-187335000D01*
G75*
G02*
X129688000Y-187535000I-200000J0D01*
G01*
X129138000Y-187535000D01*
G75*
G02*
X128938000Y-187335000I0J200000D01*
G01*
X128938000Y-186935000D01*
G75*
G02*
X129138000Y-186735000I200000J0D01*
G01*
G37*
G36*
G01*
X141986320Y-178537280D02*
X141986320Y-177987280D01*
G75*
G02*
X142186320Y-177787280I200000J0D01*
G01*
X142586320Y-177787280D01*
G75*
G02*
X142786320Y-177987280I0J-200000D01*
G01*
X142786320Y-178537280D01*
G75*
G02*
X142586320Y-178737280I-200000J0D01*
G01*
X142186320Y-178737280D01*
G75*
G02*
X141986320Y-178537280I0J200000D01*
G01*
G37*
G36*
G01*
X140336320Y-178537280D02*
X140336320Y-177987280D01*
G75*
G02*
X140536320Y-177787280I200000J0D01*
G01*
X140936320Y-177787280D01*
G75*
G02*
X141136320Y-177987280I0J-200000D01*
G01*
X141136320Y-178537280D01*
G75*
G02*
X140936320Y-178737280I-200000J0D01*
G01*
X140536320Y-178737280D01*
G75*
G02*
X140336320Y-178537280I0J200000D01*
G01*
G37*
G36*
G01*
X141999520Y-194082080D02*
X141999520Y-193532080D01*
G75*
G02*
X142199520Y-193332080I200000J0D01*
G01*
X142599520Y-193332080D01*
G75*
G02*
X142799520Y-193532080I0J-200000D01*
G01*
X142799520Y-194082080D01*
G75*
G02*
X142599520Y-194282080I-200000J0D01*
G01*
X142199520Y-194282080D01*
G75*
G02*
X141999520Y-194082080I0J200000D01*
G01*
G37*
G36*
G01*
X140349520Y-194082080D02*
X140349520Y-193532080D01*
G75*
G02*
X140549520Y-193332080I200000J0D01*
G01*
X140949520Y-193332080D01*
G75*
G02*
X141149520Y-193532080I0J-200000D01*
G01*
X141149520Y-194082080D01*
G75*
G02*
X140949520Y-194282080I-200000J0D01*
G01*
X140549520Y-194282080D01*
G75*
G02*
X140349520Y-194082080I0J200000D01*
G01*
G37*
G36*
G01*
X124924000Y-184002000D02*
X124924000Y-184552000D01*
G75*
G02*
X124724000Y-184752000I-200000J0D01*
G01*
X124324000Y-184752000D01*
G75*
G02*
X124124000Y-184552000I0J200000D01*
G01*
X124124000Y-184002000D01*
G75*
G02*
X124324000Y-183802000I200000J0D01*
G01*
X124724000Y-183802000D01*
G75*
G02*
X124924000Y-184002000I0J-200000D01*
G01*
G37*
G36*
G01*
X126574000Y-184002000D02*
X126574000Y-184552000D01*
G75*
G02*
X126374000Y-184752000I-200000J0D01*
G01*
X125974000Y-184752000D01*
G75*
G02*
X125774000Y-184552000I0J200000D01*
G01*
X125774000Y-184002000D01*
G75*
G02*
X125974000Y-183802000I200000J0D01*
G01*
X126374000Y-183802000D01*
G75*
G02*
X126574000Y-184002000I0J-200000D01*
G01*
G37*
G36*
G01*
X128037000Y-183725000D02*
X127487000Y-183725000D01*
G75*
G02*
X127287000Y-183525000I0J200000D01*
G01*
X127287000Y-183125000D01*
G75*
G02*
X127487000Y-182925000I200000J0D01*
G01*
X128037000Y-182925000D01*
G75*
G02*
X128237000Y-183125000I0J-200000D01*
G01*
X128237000Y-183525000D01*
G75*
G02*
X128037000Y-183725000I-200000J0D01*
G01*
G37*
G36*
G01*
X128037000Y-185375000D02*
X127487000Y-185375000D01*
G75*
G02*
X127287000Y-185175000I0J200000D01*
G01*
X127287000Y-184775000D01*
G75*
G02*
X127487000Y-184575000I200000J0D01*
G01*
X128037000Y-184575000D01*
G75*
G02*
X128237000Y-184775000I0J-200000D01*
G01*
X128237000Y-185175000D01*
G75*
G02*
X128037000Y-185375000I-200000J0D01*
G01*
G37*
G36*
G01*
X124924000Y-185907000D02*
X124924000Y-186457000D01*
G75*
G02*
X124724000Y-186657000I-200000J0D01*
G01*
X124324000Y-186657000D01*
G75*
G02*
X124124000Y-186457000I0J200000D01*
G01*
X124124000Y-185907000D01*
G75*
G02*
X124324000Y-185707000I200000J0D01*
G01*
X124724000Y-185707000D01*
G75*
G02*
X124924000Y-185907000I0J-200000D01*
G01*
G37*
G36*
G01*
X126574000Y-185907000D02*
X126574000Y-186457000D01*
G75*
G02*
X126374000Y-186657000I-200000J0D01*
G01*
X125974000Y-186657000D01*
G75*
G02*
X125774000Y-186457000I0J200000D01*
G01*
X125774000Y-185907000D01*
G75*
G02*
X125974000Y-185707000I200000J0D01*
G01*
X126374000Y-185707000D01*
G75*
G02*
X126574000Y-185907000I0J-200000D01*
G01*
G37*
G36*
G01*
X124924000Y-187685000D02*
X124924000Y-188235000D01*
G75*
G02*
X124724000Y-188435000I-200000J0D01*
G01*
X124324000Y-188435000D01*
G75*
G02*
X124124000Y-188235000I0J200000D01*
G01*
X124124000Y-187685000D01*
G75*
G02*
X124324000Y-187485000I200000J0D01*
G01*
X124724000Y-187485000D01*
G75*
G02*
X124924000Y-187685000I0J-200000D01*
G01*
G37*
G36*
G01*
X126574000Y-187685000D02*
X126574000Y-188235000D01*
G75*
G02*
X126374000Y-188435000I-200000J0D01*
G01*
X125974000Y-188435000D01*
G75*
G02*
X125774000Y-188235000I0J200000D01*
G01*
X125774000Y-187685000D01*
G75*
G02*
X125974000Y-187485000I200000J0D01*
G01*
X126374000Y-187485000D01*
G75*
G02*
X126574000Y-187685000I0J-200000D01*
G01*
G37*
G36*
G01*
X122889200Y-173629200D02*
X123389200Y-173629200D01*
G75*
G02*
X123614200Y-173854200I0J-225000D01*
G01*
X123614200Y-174304200D01*
G75*
G02*
X123389200Y-174529200I-225000J0D01*
G01*
X122889200Y-174529200D01*
G75*
G02*
X122664200Y-174304200I0J225000D01*
G01*
X122664200Y-173854200D01*
G75*
G02*
X122889200Y-173629200I225000J0D01*
G01*
G37*
G36*
G01*
X122889200Y-172079200D02*
X123389200Y-172079200D01*
G75*
G02*
X123614200Y-172304200I0J-225000D01*
G01*
X123614200Y-172754200D01*
G75*
G02*
X123389200Y-172979200I-225000J0D01*
G01*
X122889200Y-172979200D01*
G75*
G02*
X122664200Y-172754200I0J225000D01*
G01*
X122664200Y-172304200D01*
G75*
G02*
X122889200Y-172079200I225000J0D01*
G01*
G37*
G36*
G01*
X112576800Y-173641900D02*
X113076800Y-173641900D01*
G75*
G02*
X113301800Y-173866900I0J-225000D01*
G01*
X113301800Y-174316900D01*
G75*
G02*
X113076800Y-174541900I-225000J0D01*
G01*
X112576800Y-174541900D01*
G75*
G02*
X112351800Y-174316900I0J225000D01*
G01*
X112351800Y-173866900D01*
G75*
G02*
X112576800Y-173641900I225000J0D01*
G01*
G37*
G36*
G01*
X112576800Y-172091900D02*
X113076800Y-172091900D01*
G75*
G02*
X113301800Y-172316900I0J-225000D01*
G01*
X113301800Y-172766900D01*
G75*
G02*
X113076800Y-172991900I-225000J0D01*
G01*
X112576800Y-172991900D01*
G75*
G02*
X112351800Y-172766900I0J225000D01*
G01*
X112351800Y-172316900D01*
G75*
G02*
X112576800Y-172091900I225000J0D01*
G01*
G37*
G36*
G01*
X111413100Y-179405100D02*
X110913100Y-179405100D01*
G75*
G02*
X110688100Y-179180100I0J225000D01*
G01*
X110688100Y-178730100D01*
G75*
G02*
X110913100Y-178505100I225000J0D01*
G01*
X111413100Y-178505100D01*
G75*
G02*
X111638100Y-178730100I0J-225000D01*
G01*
X111638100Y-179180100D01*
G75*
G02*
X111413100Y-179405100I-225000J0D01*
G01*
G37*
G36*
G01*
X111413100Y-180955100D02*
X110913100Y-180955100D01*
G75*
G02*
X110688100Y-180730100I0J225000D01*
G01*
X110688100Y-180280100D01*
G75*
G02*
X110913100Y-180055100I225000J0D01*
G01*
X111413100Y-180055100D01*
G75*
G02*
X111638100Y-180280100I0J-225000D01*
G01*
X111638100Y-180730100D01*
G75*
G02*
X111413100Y-180955100I-225000J0D01*
G01*
G37*
G36*
G01*
X125116400Y-179443500D02*
X124616400Y-179443500D01*
G75*
G02*
X124391400Y-179218500I0J225000D01*
G01*
X124391400Y-178768500D01*
G75*
G02*
X124616400Y-178543500I225000J0D01*
G01*
X125116400Y-178543500D01*
G75*
G02*
X125341400Y-178768500I0J-225000D01*
G01*
X125341400Y-179218500D01*
G75*
G02*
X125116400Y-179443500I-225000J0D01*
G01*
G37*
G36*
G01*
X125116400Y-180993500D02*
X124616400Y-180993500D01*
G75*
G02*
X124391400Y-180768500I0J225000D01*
G01*
X124391400Y-180318500D01*
G75*
G02*
X124616400Y-180093500I225000J0D01*
G01*
X125116400Y-180093500D01*
G75*
G02*
X125341400Y-180318500I0J-225000D01*
G01*
X125341400Y-180768500D01*
G75*
G02*
X125116400Y-180993500I-225000J0D01*
G01*
G37*
G36*
G01*
X122903100Y-168291700D02*
X122903100Y-168791700D01*
G75*
G02*
X122678100Y-169016700I-225000J0D01*
G01*
X122228100Y-169016700D01*
G75*
G02*
X122003100Y-168791700I0J225000D01*
G01*
X122003100Y-168291700D01*
G75*
G02*
X122228100Y-168066700I225000J0D01*
G01*
X122678100Y-168066700D01*
G75*
G02*
X122903100Y-168291700I0J-225000D01*
G01*
G37*
G36*
G01*
X124453100Y-168291700D02*
X124453100Y-168791700D01*
G75*
G02*
X124228100Y-169016700I-225000J0D01*
G01*
X123778100Y-169016700D01*
G75*
G02*
X123553100Y-168791700I0J225000D01*
G01*
X123553100Y-168291700D01*
G75*
G02*
X123778100Y-168066700I225000J0D01*
G01*
X124228100Y-168066700D01*
G75*
G02*
X124453100Y-168291700I0J-225000D01*
G01*
G37*
G36*
G01*
X114053500Y-167255000D02*
X114053500Y-166755000D01*
G75*
G02*
X114278500Y-166530000I225000J0D01*
G01*
X114728500Y-166530000D01*
G75*
G02*
X114953500Y-166755000I0J-225000D01*
G01*
X114953500Y-167255000D01*
G75*
G02*
X114728500Y-167480000I-225000J0D01*
G01*
X114278500Y-167480000D01*
G75*
G02*
X114053500Y-167255000I0J225000D01*
G01*
G37*
G36*
G01*
X112503500Y-167255000D02*
X112503500Y-166755000D01*
G75*
G02*
X112728500Y-166530000I225000J0D01*
G01*
X113178500Y-166530000D01*
G75*
G02*
X113403500Y-166755000I0J-225000D01*
G01*
X113403500Y-167255000D01*
G75*
G02*
X113178500Y-167480000I-225000J0D01*
G01*
X112728500Y-167480000D01*
G75*
G02*
X112503500Y-167255000I0J225000D01*
G01*
G37*
G36*
G01*
X107299880Y-163336160D02*
X107299880Y-163836160D01*
G75*
G02*
X107074880Y-164061160I-225000J0D01*
G01*
X106624880Y-164061160D01*
G75*
G02*
X106399880Y-163836160I0J225000D01*
G01*
X106399880Y-163336160D01*
G75*
G02*
X106624880Y-163111160I225000J0D01*
G01*
X107074880Y-163111160D01*
G75*
G02*
X107299880Y-163336160I0J-225000D01*
G01*
G37*
G36*
G01*
X108849880Y-163336160D02*
X108849880Y-163836160D01*
G75*
G02*
X108624880Y-164061160I-225000J0D01*
G01*
X108174880Y-164061160D01*
G75*
G02*
X107949880Y-163836160I0J225000D01*
G01*
X107949880Y-163336160D01*
G75*
G02*
X108174880Y-163111160I225000J0D01*
G01*
X108624880Y-163111160D01*
G75*
G02*
X108849880Y-163336160I0J-225000D01*
G01*
G37*
G36*
G01*
X107284640Y-161695320D02*
X107284640Y-162195320D01*
G75*
G02*
X107059640Y-162420320I-225000J0D01*
G01*
X106609640Y-162420320D01*
G75*
G02*
X106384640Y-162195320I0J225000D01*
G01*
X106384640Y-161695320D01*
G75*
G02*
X106609640Y-161470320I225000J0D01*
G01*
X107059640Y-161470320D01*
G75*
G02*
X107284640Y-161695320I0J-225000D01*
G01*
G37*
G36*
G01*
X108834640Y-161695320D02*
X108834640Y-162195320D01*
G75*
G02*
X108609640Y-162420320I-225000J0D01*
G01*
X108159640Y-162420320D01*
G75*
G02*
X107934640Y-162195320I0J225000D01*
G01*
X107934640Y-161695320D01*
G75*
G02*
X108159640Y-161470320I225000J0D01*
G01*
X108609640Y-161470320D01*
G75*
G02*
X108834640Y-161695320I0J-225000D01*
G01*
G37*
G36*
G01*
X122928500Y-166742300D02*
X122928500Y-167242300D01*
G75*
G02*
X122703500Y-167467300I-225000J0D01*
G01*
X122253500Y-167467300D01*
G75*
G02*
X122028500Y-167242300I0J225000D01*
G01*
X122028500Y-166742300D01*
G75*
G02*
X122253500Y-166517300I225000J0D01*
G01*
X122703500Y-166517300D01*
G75*
G02*
X122928500Y-166742300I0J-225000D01*
G01*
G37*
G36*
G01*
X124478500Y-166742300D02*
X124478500Y-167242300D01*
G75*
G02*
X124253500Y-167467300I-225000J0D01*
G01*
X123803500Y-167467300D01*
G75*
G02*
X123578500Y-167242300I0J225000D01*
G01*
X123578500Y-166742300D01*
G75*
G02*
X123803500Y-166517300I225000J0D01*
G01*
X124253500Y-166517300D01*
G75*
G02*
X124478500Y-166742300I0J-225000D01*
G01*
G37*
G36*
G01*
X114040800Y-168779000D02*
X114040800Y-168279000D01*
G75*
G02*
X114265800Y-168054000I225000J0D01*
G01*
X114715800Y-168054000D01*
G75*
G02*
X114940800Y-168279000I0J-225000D01*
G01*
X114940800Y-168779000D01*
G75*
G02*
X114715800Y-169004000I-225000J0D01*
G01*
X114265800Y-169004000D01*
G75*
G02*
X114040800Y-168779000I0J225000D01*
G01*
G37*
G36*
G01*
X112490800Y-168779000D02*
X112490800Y-168279000D01*
G75*
G02*
X112715800Y-168054000I225000J0D01*
G01*
X113165800Y-168054000D01*
G75*
G02*
X113390800Y-168279000I0J-225000D01*
G01*
X113390800Y-168779000D01*
G75*
G02*
X113165800Y-169004000I-225000J0D01*
G01*
X112715800Y-169004000D01*
G75*
G02*
X112490800Y-168779000I0J225000D01*
G01*
G37*
G36*
G01*
X117212300Y-168028500D02*
X117712300Y-168028500D01*
G75*
G02*
X117937300Y-168253500I0J-225000D01*
G01*
X117937300Y-168703500D01*
G75*
G02*
X117712300Y-168928500I-225000J0D01*
G01*
X117212300Y-168928500D01*
G75*
G02*
X116987300Y-168703500I0J225000D01*
G01*
X116987300Y-168253500D01*
G75*
G02*
X117212300Y-168028500I225000J0D01*
G01*
G37*
G36*
G01*
X117212300Y-166478500D02*
X117712300Y-166478500D01*
G75*
G02*
X117937300Y-166703500I0J-225000D01*
G01*
X117937300Y-167153500D01*
G75*
G02*
X117712300Y-167378500I-225000J0D01*
G01*
X117212300Y-167378500D01*
G75*
G02*
X116987300Y-167153500I0J225000D01*
G01*
X116987300Y-166703500D01*
G75*
G02*
X117212300Y-166478500I225000J0D01*
G01*
G37*
G36*
G01*
X118736300Y-168028500D02*
X119236300Y-168028500D01*
G75*
G02*
X119461300Y-168253500I0J-225000D01*
G01*
X119461300Y-168703500D01*
G75*
G02*
X119236300Y-168928500I-225000J0D01*
G01*
X118736300Y-168928500D01*
G75*
G02*
X118511300Y-168703500I0J225000D01*
G01*
X118511300Y-168253500D01*
G75*
G02*
X118736300Y-168028500I225000J0D01*
G01*
G37*
G36*
G01*
X118736300Y-166478500D02*
X119236300Y-166478500D01*
G75*
G02*
X119461300Y-166703500I0J-225000D01*
G01*
X119461300Y-167153500D01*
G75*
G02*
X119236300Y-167378500I-225000J0D01*
G01*
X118736300Y-167378500D01*
G75*
G02*
X118511300Y-167153500I0J225000D01*
G01*
X118511300Y-166703500D01*
G75*
G02*
X118736300Y-166478500I225000J0D01*
G01*
G37*
G36*
G01*
X180970040Y-207877600D02*
X180970040Y-208377600D01*
G75*
G02*
X180745040Y-208602600I-225000J0D01*
G01*
X180295040Y-208602600D01*
G75*
G02*
X180070040Y-208377600I0J225000D01*
G01*
X180070040Y-207877600D01*
G75*
G02*
X180295040Y-207652600I225000J0D01*
G01*
X180745040Y-207652600D01*
G75*
G02*
X180970040Y-207877600I0J-225000D01*
G01*
G37*
G36*
G01*
X182520040Y-207877600D02*
X182520040Y-208377600D01*
G75*
G02*
X182295040Y-208602600I-225000J0D01*
G01*
X181845040Y-208602600D01*
G75*
G02*
X181620040Y-208377600I0J225000D01*
G01*
X181620040Y-207877600D01*
G75*
G02*
X181845040Y-207652600I225000J0D01*
G01*
X182295040Y-207652600D01*
G75*
G02*
X182520040Y-207877600I0J-225000D01*
G01*
G37*
G36*
G01*
X140994320Y-166689920D02*
X141494320Y-166689920D01*
G75*
G02*
X141719320Y-166914920I0J-225000D01*
G01*
X141719320Y-167364920D01*
G75*
G02*
X141494320Y-167589920I-225000J0D01*
G01*
X140994320Y-167589920D01*
G75*
G02*
X140769320Y-167364920I0J225000D01*
G01*
X140769320Y-166914920D01*
G75*
G02*
X140994320Y-166689920I225000J0D01*
G01*
G37*
G36*
G01*
X140994320Y-165139920D02*
X141494320Y-165139920D01*
G75*
G02*
X141719320Y-165364920I0J-225000D01*
G01*
X141719320Y-165814920D01*
G75*
G02*
X141494320Y-166039920I-225000J0D01*
G01*
X140994320Y-166039920D01*
G75*
G02*
X140769320Y-165814920I0J225000D01*
G01*
X140769320Y-165364920D01*
G75*
G02*
X140994320Y-165139920I225000J0D01*
G01*
G37*
G36*
G01*
X132490400Y-166750880D02*
X132990400Y-166750880D01*
G75*
G02*
X133215400Y-166975880I0J-225000D01*
G01*
X133215400Y-167425880D01*
G75*
G02*
X132990400Y-167650880I-225000J0D01*
G01*
X132490400Y-167650880D01*
G75*
G02*
X132265400Y-167425880I0J225000D01*
G01*
X132265400Y-166975880D01*
G75*
G02*
X132490400Y-166750880I225000J0D01*
G01*
G37*
G36*
G01*
X132490400Y-165200880D02*
X132990400Y-165200880D01*
G75*
G02*
X133215400Y-165425880I0J-225000D01*
G01*
X133215400Y-165875880D01*
G75*
G02*
X132990400Y-166100880I-225000J0D01*
G01*
X132490400Y-166100880D01*
G75*
G02*
X132265400Y-165875880I0J225000D01*
G01*
X132265400Y-165425880D01*
G75*
G02*
X132490400Y-165200880I225000J0D01*
G01*
G37*
G36*
G01*
X133216460Y-148646000D02*
X132716460Y-148646000D01*
G75*
G02*
X132491460Y-148421000I0J225000D01*
G01*
X132491460Y-147971000D01*
G75*
G02*
X132716460Y-147746000I225000J0D01*
G01*
X133216460Y-147746000D01*
G75*
G02*
X133441460Y-147971000I0J-225000D01*
G01*
X133441460Y-148421000D01*
G75*
G02*
X133216460Y-148646000I-225000J0D01*
G01*
G37*
G36*
G01*
X133216460Y-150196000D02*
X132716460Y-150196000D01*
G75*
G02*
X132491460Y-149971000I0J225000D01*
G01*
X132491460Y-149521000D01*
G75*
G02*
X132716460Y-149296000I225000J0D01*
G01*
X133216460Y-149296000D01*
G75*
G02*
X133441460Y-149521000I0J-225000D01*
G01*
X133441460Y-149971000D01*
G75*
G02*
X133216460Y-150196000I-225000J0D01*
G01*
G37*
G36*
G01*
X128519040Y-161375280D02*
X128519040Y-161875280D01*
G75*
G02*
X128294040Y-162100280I-225000J0D01*
G01*
X127844040Y-162100280D01*
G75*
G02*
X127619040Y-161875280I0J225000D01*
G01*
X127619040Y-161375280D01*
G75*
G02*
X127844040Y-161150280I225000J0D01*
G01*
X128294040Y-161150280D01*
G75*
G02*
X128519040Y-161375280I0J-225000D01*
G01*
G37*
G36*
G01*
X130069040Y-161375280D02*
X130069040Y-161875280D01*
G75*
G02*
X129844040Y-162100280I-225000J0D01*
G01*
X129394040Y-162100280D01*
G75*
G02*
X129169040Y-161875280I0J225000D01*
G01*
X129169040Y-161375280D01*
G75*
G02*
X129394040Y-161150280I225000J0D01*
G01*
X129844040Y-161150280D01*
G75*
G02*
X130069040Y-161375280I0J-225000D01*
G01*
G37*
G36*
G01*
X146363880Y-158991180D02*
X146863880Y-158991180D01*
G75*
G02*
X147088880Y-159216180I0J-225000D01*
G01*
X147088880Y-159666180D01*
G75*
G02*
X146863880Y-159891180I-225000J0D01*
G01*
X146363880Y-159891180D01*
G75*
G02*
X146138880Y-159666180I0J225000D01*
G01*
X146138880Y-159216180D01*
G75*
G02*
X146363880Y-158991180I225000J0D01*
G01*
G37*
G36*
G01*
X146363880Y-157441180D02*
X146863880Y-157441180D01*
G75*
G02*
X147088880Y-157666180I0J-225000D01*
G01*
X147088880Y-158116180D01*
G75*
G02*
X146863880Y-158341180I-225000J0D01*
G01*
X146363880Y-158341180D01*
G75*
G02*
X146138880Y-158116180I0J225000D01*
G01*
X146138880Y-157666180D01*
G75*
G02*
X146363880Y-157441180I225000J0D01*
G01*
G37*
G36*
G01*
X144455960Y-150337640D02*
X143955960Y-150337640D01*
G75*
G02*
X143730960Y-150112640I0J225000D01*
G01*
X143730960Y-149662640D01*
G75*
G02*
X143955960Y-149437640I225000J0D01*
G01*
X144455960Y-149437640D01*
G75*
G02*
X144680960Y-149662640I0J-225000D01*
G01*
X144680960Y-150112640D01*
G75*
G02*
X144455960Y-150337640I-225000J0D01*
G01*
G37*
G36*
G01*
X144455960Y-151887640D02*
X143955960Y-151887640D01*
G75*
G02*
X143730960Y-151662640I0J225000D01*
G01*
X143730960Y-151212640D01*
G75*
G02*
X143955960Y-150987640I225000J0D01*
G01*
X144455960Y-150987640D01*
G75*
G02*
X144680960Y-151212640I0J-225000D01*
G01*
X144680960Y-151662640D01*
G75*
G02*
X144455960Y-151887640I-225000J0D01*
G01*
G37*
G36*
G01*
X163799942Y-110956140D02*
X162899938Y-110956140D01*
G75*
G02*
X162649940Y-110706142I0J249998D01*
G01*
X162649940Y-110181138D01*
G75*
G02*
X162899938Y-109931140I249998J0D01*
G01*
X163799942Y-109931140D01*
G75*
G02*
X164049940Y-110181138I0J-249998D01*
G01*
X164049940Y-110706142D01*
G75*
G02*
X163799942Y-110956140I-249998J0D01*
G01*
G37*
G36*
G01*
X163799942Y-112781140D02*
X162899938Y-112781140D01*
G75*
G02*
X162649940Y-112531142I0J249998D01*
G01*
X162649940Y-112006138D01*
G75*
G02*
X162899938Y-111756140I249998J0D01*
G01*
X163799942Y-111756140D01*
G75*
G02*
X164049940Y-112006138I0J-249998D01*
G01*
X164049940Y-112531142D01*
G75*
G02*
X163799942Y-112781140I-249998J0D01*
G01*
G37*
D20*
X164800000Y-106510000D03*
X165600000Y-106510000D03*
X164800000Y-106510000D03*
X165600000Y-106510000D03*
X171200000Y-106510000D03*
X171200000Y-106510000D03*
X170400000Y-106510000D03*
X170400000Y-106510000D03*
D21*
X166250000Y-106510000D03*
X167250000Y-106510000D03*
X166750000Y-106510000D03*
X169250000Y-106510000D03*
X169750000Y-106510000D03*
X167750000Y-106510000D03*
X168250000Y-106510000D03*
X168750000Y-106510000D03*
D22*
X138806800Y-166865300D03*
X135106800Y-166865300D03*
G36*
G01*
X182315500Y-157360400D02*
X181565500Y-157360400D01*
G75*
G02*
X181315500Y-157110400I0J250000D01*
G01*
X181315500Y-156400400D01*
G75*
G02*
X181565500Y-156150400I250000J0D01*
G01*
X182315500Y-156150400D01*
G75*
G02*
X182565500Y-156400400I0J-250000D01*
G01*
X182565500Y-157110400D01*
G75*
G02*
X182315500Y-157360400I-250000J0D01*
G01*
G37*
G36*
G01*
X180765500Y-157360400D02*
X180015500Y-157360400D01*
G75*
G02*
X179765500Y-157110400I0J250000D01*
G01*
X179765500Y-156400400D01*
G75*
G02*
X180015500Y-156150400I250000J0D01*
G01*
X180765500Y-156150400D01*
G75*
G02*
X181015500Y-156400400I0J-250000D01*
G01*
X181015500Y-157110400D01*
G75*
G02*
X180765500Y-157360400I-250000J0D01*
G01*
G37*
G36*
G01*
X182315500Y-158860400D02*
X181565500Y-158860400D01*
G75*
G02*
X181315500Y-158610400I0J250000D01*
G01*
X181315500Y-157900400D01*
G75*
G02*
X181565500Y-157650400I250000J0D01*
G01*
X182315500Y-157650400D01*
G75*
G02*
X182565500Y-157900400I0J-250000D01*
G01*
X182565500Y-158610400D01*
G75*
G02*
X182315500Y-158860400I-250000J0D01*
G01*
G37*
G36*
G01*
X180765500Y-158860400D02*
X180015500Y-158860400D01*
G75*
G02*
X179765500Y-158610400I0J250000D01*
G01*
X179765500Y-157900400D01*
G75*
G02*
X180015500Y-157650400I250000J0D01*
G01*
X180765500Y-157650400D01*
G75*
G02*
X181015500Y-157900400I0J-250000D01*
G01*
X181015500Y-158610400D01*
G75*
G02*
X180765500Y-158860400I-250000J0D01*
G01*
G37*
G36*
G01*
X179315500Y-155430400D02*
X179115500Y-155430400D01*
G75*
G02*
X179015500Y-155330400I0J100000D01*
G01*
X179015500Y-153955400D01*
G75*
G02*
X179115500Y-153855400I100000J0D01*
G01*
X179315500Y-153855400D01*
G75*
G02*
X179415500Y-153955400I0J-100000D01*
G01*
X179415500Y-155330400D01*
G75*
G02*
X179315500Y-155430400I-100000J0D01*
G01*
G37*
G36*
G01*
X179965500Y-155430400D02*
X179765500Y-155430400D01*
G75*
G02*
X179665500Y-155330400I0J100000D01*
G01*
X179665500Y-153955400D01*
G75*
G02*
X179765500Y-153855400I100000J0D01*
G01*
X179965500Y-153855400D01*
G75*
G02*
X180065500Y-153955400I0J-100000D01*
G01*
X180065500Y-155330400D01*
G75*
G02*
X179965500Y-155430400I-100000J0D01*
G01*
G37*
G36*
G01*
X180615500Y-155430400D02*
X180415500Y-155430400D01*
G75*
G02*
X180315500Y-155330400I0J100000D01*
G01*
X180315500Y-153955400D01*
G75*
G02*
X180415500Y-153855400I100000J0D01*
G01*
X180615500Y-153855400D01*
G75*
G02*
X180715500Y-153955400I0J-100000D01*
G01*
X180715500Y-155330400D01*
G75*
G02*
X180615500Y-155430400I-100000J0D01*
G01*
G37*
G36*
G01*
X181265500Y-155430400D02*
X181065500Y-155430400D01*
G75*
G02*
X180965500Y-155330400I0J100000D01*
G01*
X180965500Y-153955400D01*
G75*
G02*
X181065500Y-153855400I100000J0D01*
G01*
X181265500Y-153855400D01*
G75*
G02*
X181365500Y-153955400I0J-100000D01*
G01*
X181365500Y-155330400D01*
G75*
G02*
X181265500Y-155430400I-100000J0D01*
G01*
G37*
G36*
G01*
X181915500Y-155430400D02*
X181715500Y-155430400D01*
G75*
G02*
X181615500Y-155330400I0J100000D01*
G01*
X181615500Y-153955400D01*
G75*
G02*
X181715500Y-153855400I100000J0D01*
G01*
X181915500Y-153855400D01*
G75*
G02*
X182015500Y-153955400I0J-100000D01*
G01*
X182015500Y-155330400D01*
G75*
G02*
X181915500Y-155430400I-100000J0D01*
G01*
G37*
G36*
G01*
X182565500Y-155430400D02*
X182365500Y-155430400D01*
G75*
G02*
X182265500Y-155330400I0J100000D01*
G01*
X182265500Y-153955400D01*
G75*
G02*
X182365500Y-153855400I100000J0D01*
G01*
X182565500Y-153855400D01*
G75*
G02*
X182665500Y-153955400I0J-100000D01*
G01*
X182665500Y-155330400D01*
G75*
G02*
X182565500Y-155430400I-100000J0D01*
G01*
G37*
G36*
G01*
X183215500Y-155430400D02*
X183015500Y-155430400D01*
G75*
G02*
X182915500Y-155330400I0J100000D01*
G01*
X182915500Y-153955400D01*
G75*
G02*
X183015500Y-153855400I100000J0D01*
G01*
X183215500Y-153855400D01*
G75*
G02*
X183315500Y-153955400I0J-100000D01*
G01*
X183315500Y-155330400D01*
G75*
G02*
X183215500Y-155430400I-100000J0D01*
G01*
G37*
G36*
G01*
X183215500Y-161155400D02*
X183015500Y-161155400D01*
G75*
G02*
X182915500Y-161055400I0J100000D01*
G01*
X182915500Y-159680400D01*
G75*
G02*
X183015500Y-159580400I100000J0D01*
G01*
X183215500Y-159580400D01*
G75*
G02*
X183315500Y-159680400I0J-100000D01*
G01*
X183315500Y-161055400D01*
G75*
G02*
X183215500Y-161155400I-100000J0D01*
G01*
G37*
G36*
G01*
X182565500Y-161155400D02*
X182365500Y-161155400D01*
G75*
G02*
X182265500Y-161055400I0J100000D01*
G01*
X182265500Y-159680400D01*
G75*
G02*
X182365500Y-159580400I100000J0D01*
G01*
X182565500Y-159580400D01*
G75*
G02*
X182665500Y-159680400I0J-100000D01*
G01*
X182665500Y-161055400D01*
G75*
G02*
X182565500Y-161155400I-100000J0D01*
G01*
G37*
G36*
G01*
X181915500Y-161155400D02*
X181715500Y-161155400D01*
G75*
G02*
X181615500Y-161055400I0J100000D01*
G01*
X181615500Y-159680400D01*
G75*
G02*
X181715500Y-159580400I100000J0D01*
G01*
X181915500Y-159580400D01*
G75*
G02*
X182015500Y-159680400I0J-100000D01*
G01*
X182015500Y-161055400D01*
G75*
G02*
X181915500Y-161155400I-100000J0D01*
G01*
G37*
G36*
G01*
X181265500Y-161155400D02*
X181065500Y-161155400D01*
G75*
G02*
X180965500Y-161055400I0J100000D01*
G01*
X180965500Y-159680400D01*
G75*
G02*
X181065500Y-159580400I100000J0D01*
G01*
X181265500Y-159580400D01*
G75*
G02*
X181365500Y-159680400I0J-100000D01*
G01*
X181365500Y-161055400D01*
G75*
G02*
X181265500Y-161155400I-100000J0D01*
G01*
G37*
G36*
G01*
X180615500Y-161155400D02*
X180415500Y-161155400D01*
G75*
G02*
X180315500Y-161055400I0J100000D01*
G01*
X180315500Y-159680400D01*
G75*
G02*
X180415500Y-159580400I100000J0D01*
G01*
X180615500Y-159580400D01*
G75*
G02*
X180715500Y-159680400I0J-100000D01*
G01*
X180715500Y-161055400D01*
G75*
G02*
X180615500Y-161155400I-100000J0D01*
G01*
G37*
G36*
G01*
X179965500Y-161155400D02*
X179765500Y-161155400D01*
G75*
G02*
X179665500Y-161055400I0J100000D01*
G01*
X179665500Y-159680400D01*
G75*
G02*
X179765500Y-159580400I100000J0D01*
G01*
X179965500Y-159580400D01*
G75*
G02*
X180065500Y-159680400I0J-100000D01*
G01*
X180065500Y-161055400D01*
G75*
G02*
X179965500Y-161155400I-100000J0D01*
G01*
G37*
G36*
G01*
X179315500Y-161155400D02*
X179115500Y-161155400D01*
G75*
G02*
X179015500Y-161055400I0J100000D01*
G01*
X179015500Y-159680400D01*
G75*
G02*
X179115500Y-159580400I100000J0D01*
G01*
X179315500Y-159580400D01*
G75*
G02*
X179415500Y-159680400I0J-100000D01*
G01*
X179415500Y-161055400D01*
G75*
G02*
X179315500Y-161155400I-100000J0D01*
G01*
G37*
G36*
G01*
X119546500Y-172882700D02*
X119546500Y-172582700D01*
G75*
G02*
X119696500Y-172432700I150000J0D01*
G01*
X121346500Y-172432700D01*
G75*
G02*
X121496500Y-172582700I0J-150000D01*
G01*
X121496500Y-172882700D01*
G75*
G02*
X121346500Y-173032700I-150000J0D01*
G01*
X119696500Y-173032700D01*
G75*
G02*
X119546500Y-172882700I0J150000D01*
G01*
G37*
G36*
G01*
X119546500Y-174152700D02*
X119546500Y-173852700D01*
G75*
G02*
X119696500Y-173702700I150000J0D01*
G01*
X121346500Y-173702700D01*
G75*
G02*
X121496500Y-173852700I0J-150000D01*
G01*
X121496500Y-174152700D01*
G75*
G02*
X121346500Y-174302700I-150000J0D01*
G01*
X119696500Y-174302700D01*
G75*
G02*
X119546500Y-174152700I0J150000D01*
G01*
G37*
G36*
G01*
X119546500Y-175422700D02*
X119546500Y-175122700D01*
G75*
G02*
X119696500Y-174972700I150000J0D01*
G01*
X121346500Y-174972700D01*
G75*
G02*
X121496500Y-175122700I0J-150000D01*
G01*
X121496500Y-175422700D01*
G75*
G02*
X121346500Y-175572700I-150000J0D01*
G01*
X119696500Y-175572700D01*
G75*
G02*
X119546500Y-175422700I0J150000D01*
G01*
G37*
G36*
G01*
X119546500Y-176692700D02*
X119546500Y-176392700D01*
G75*
G02*
X119696500Y-176242700I150000J0D01*
G01*
X121346500Y-176242700D01*
G75*
G02*
X121496500Y-176392700I0J-150000D01*
G01*
X121496500Y-176692700D01*
G75*
G02*
X121346500Y-176842700I-150000J0D01*
G01*
X119696500Y-176842700D01*
G75*
G02*
X119546500Y-176692700I0J150000D01*
G01*
G37*
G36*
G01*
X119546500Y-177962700D02*
X119546500Y-177662700D01*
G75*
G02*
X119696500Y-177512700I150000J0D01*
G01*
X121346500Y-177512700D01*
G75*
G02*
X121496500Y-177662700I0J-150000D01*
G01*
X121496500Y-177962700D01*
G75*
G02*
X121346500Y-178112700I-150000J0D01*
G01*
X119696500Y-178112700D01*
G75*
G02*
X119546500Y-177962700I0J150000D01*
G01*
G37*
G36*
G01*
X119546500Y-179232700D02*
X119546500Y-178932700D01*
G75*
G02*
X119696500Y-178782700I150000J0D01*
G01*
X121346500Y-178782700D01*
G75*
G02*
X121496500Y-178932700I0J-150000D01*
G01*
X121496500Y-179232700D01*
G75*
G02*
X121346500Y-179382700I-150000J0D01*
G01*
X119696500Y-179382700D01*
G75*
G02*
X119546500Y-179232700I0J150000D01*
G01*
G37*
G36*
G01*
X119546500Y-180502700D02*
X119546500Y-180202700D01*
G75*
G02*
X119696500Y-180052700I150000J0D01*
G01*
X121346500Y-180052700D01*
G75*
G02*
X121496500Y-180202700I0J-150000D01*
G01*
X121496500Y-180502700D01*
G75*
G02*
X121346500Y-180652700I-150000J0D01*
G01*
X119696500Y-180652700D01*
G75*
G02*
X119546500Y-180502700I0J150000D01*
G01*
G37*
G36*
G01*
X114596500Y-180502700D02*
X114596500Y-180202700D01*
G75*
G02*
X114746500Y-180052700I150000J0D01*
G01*
X116396500Y-180052700D01*
G75*
G02*
X116546500Y-180202700I0J-150000D01*
G01*
X116546500Y-180502700D01*
G75*
G02*
X116396500Y-180652700I-150000J0D01*
G01*
X114746500Y-180652700D01*
G75*
G02*
X114596500Y-180502700I0J150000D01*
G01*
G37*
G36*
G01*
X114596500Y-179232700D02*
X114596500Y-178932700D01*
G75*
G02*
X114746500Y-178782700I150000J0D01*
G01*
X116396500Y-178782700D01*
G75*
G02*
X116546500Y-178932700I0J-150000D01*
G01*
X116546500Y-179232700D01*
G75*
G02*
X116396500Y-179382700I-150000J0D01*
G01*
X114746500Y-179382700D01*
G75*
G02*
X114596500Y-179232700I0J150000D01*
G01*
G37*
G36*
G01*
X114596500Y-177962700D02*
X114596500Y-177662700D01*
G75*
G02*
X114746500Y-177512700I150000J0D01*
G01*
X116396500Y-177512700D01*
G75*
G02*
X116546500Y-177662700I0J-150000D01*
G01*
X116546500Y-177962700D01*
G75*
G02*
X116396500Y-178112700I-150000J0D01*
G01*
X114746500Y-178112700D01*
G75*
G02*
X114596500Y-177962700I0J150000D01*
G01*
G37*
G36*
G01*
X114596500Y-176692700D02*
X114596500Y-176392700D01*
G75*
G02*
X114746500Y-176242700I150000J0D01*
G01*
X116396500Y-176242700D01*
G75*
G02*
X116546500Y-176392700I0J-150000D01*
G01*
X116546500Y-176692700D01*
G75*
G02*
X116396500Y-176842700I-150000J0D01*
G01*
X114746500Y-176842700D01*
G75*
G02*
X114596500Y-176692700I0J150000D01*
G01*
G37*
G36*
G01*
X114596500Y-175422700D02*
X114596500Y-175122700D01*
G75*
G02*
X114746500Y-174972700I150000J0D01*
G01*
X116396500Y-174972700D01*
G75*
G02*
X116546500Y-175122700I0J-150000D01*
G01*
X116546500Y-175422700D01*
G75*
G02*
X116396500Y-175572700I-150000J0D01*
G01*
X114746500Y-175572700D01*
G75*
G02*
X114596500Y-175422700I0J150000D01*
G01*
G37*
G36*
G01*
X114596500Y-174152700D02*
X114596500Y-173852700D01*
G75*
G02*
X114746500Y-173702700I150000J0D01*
G01*
X116396500Y-173702700D01*
G75*
G02*
X116546500Y-173852700I0J-150000D01*
G01*
X116546500Y-174152700D01*
G75*
G02*
X116396500Y-174302700I-150000J0D01*
G01*
X114746500Y-174302700D01*
G75*
G02*
X114596500Y-174152700I0J150000D01*
G01*
G37*
G36*
G01*
X114596500Y-172882700D02*
X114596500Y-172582700D01*
G75*
G02*
X114746500Y-172432700I150000J0D01*
G01*
X116396500Y-172432700D01*
G75*
G02*
X116546500Y-172582700I0J-150000D01*
G01*
X116546500Y-172882700D01*
G75*
G02*
X116396500Y-173032700I-150000J0D01*
G01*
X114746500Y-173032700D01*
G75*
G02*
X114596500Y-172882700I0J150000D01*
G01*
G37*
D23*
X122716000Y-164166100D03*
X122066000Y-164166100D03*
X121416000Y-164166100D03*
X120766000Y-164166100D03*
X120116000Y-164166100D03*
X119466000Y-164166100D03*
X118816000Y-164166100D03*
X118166000Y-164166100D03*
X117516000Y-164166100D03*
X116866000Y-164166100D03*
X116216000Y-164166100D03*
X115566000Y-164166100D03*
X114916000Y-164166100D03*
X114266000Y-164166100D03*
X114266000Y-156966100D03*
X114916000Y-156966100D03*
X115566000Y-156966100D03*
X116216000Y-156966100D03*
X116866000Y-156966100D03*
X117516000Y-156966100D03*
X118166000Y-156966100D03*
X118816000Y-156966100D03*
X119466000Y-156966100D03*
X120116000Y-156966100D03*
X120766000Y-156966100D03*
X121416000Y-156966100D03*
X122066000Y-156966100D03*
X122716000Y-156966100D03*
D11*
X164567000Y-161100800D03*
X164567000Y-156500800D03*
X164567000Y-158800800D03*
D12*
X158267000Y-158800800D03*
G36*
G01*
X177081800Y-139159200D02*
X177831800Y-139159200D01*
G75*
G02*
X178081800Y-139409200I0J-250000D01*
G01*
X178081800Y-140119200D01*
G75*
G02*
X177831800Y-140369200I-250000J0D01*
G01*
X177081800Y-140369200D01*
G75*
G02*
X176831800Y-140119200I0J250000D01*
G01*
X176831800Y-139409200D01*
G75*
G02*
X177081800Y-139159200I250000J0D01*
G01*
G37*
G36*
G01*
X178631800Y-139159200D02*
X179381800Y-139159200D01*
G75*
G02*
X179631800Y-139409200I0J-250000D01*
G01*
X179631800Y-140119200D01*
G75*
G02*
X179381800Y-140369200I-250000J0D01*
G01*
X178631800Y-140369200D01*
G75*
G02*
X178381800Y-140119200I0J250000D01*
G01*
X178381800Y-139409200D01*
G75*
G02*
X178631800Y-139159200I250000J0D01*
G01*
G37*
G36*
G01*
X177081800Y-137659200D02*
X177831800Y-137659200D01*
G75*
G02*
X178081800Y-137909200I0J-250000D01*
G01*
X178081800Y-138619200D01*
G75*
G02*
X177831800Y-138869200I-250000J0D01*
G01*
X177081800Y-138869200D01*
G75*
G02*
X176831800Y-138619200I0J250000D01*
G01*
X176831800Y-137909200D01*
G75*
G02*
X177081800Y-137659200I250000J0D01*
G01*
G37*
G36*
G01*
X178631800Y-137659200D02*
X179381800Y-137659200D01*
G75*
G02*
X179631800Y-137909200I0J-250000D01*
G01*
X179631800Y-138619200D01*
G75*
G02*
X179381800Y-138869200I-250000J0D01*
G01*
X178631800Y-138869200D01*
G75*
G02*
X178381800Y-138619200I0J250000D01*
G01*
X178381800Y-137909200D01*
G75*
G02*
X178631800Y-137659200I250000J0D01*
G01*
G37*
G36*
G01*
X180081800Y-141089200D02*
X180281800Y-141089200D01*
G75*
G02*
X180381800Y-141189200I0J-100000D01*
G01*
X180381800Y-142564200D01*
G75*
G02*
X180281800Y-142664200I-100000J0D01*
G01*
X180081800Y-142664200D01*
G75*
G02*
X179981800Y-142564200I0J100000D01*
G01*
X179981800Y-141189200D01*
G75*
G02*
X180081800Y-141089200I100000J0D01*
G01*
G37*
G36*
G01*
X179431800Y-141089200D02*
X179631800Y-141089200D01*
G75*
G02*
X179731800Y-141189200I0J-100000D01*
G01*
X179731800Y-142564200D01*
G75*
G02*
X179631800Y-142664200I-100000J0D01*
G01*
X179431800Y-142664200D01*
G75*
G02*
X179331800Y-142564200I0J100000D01*
G01*
X179331800Y-141189200D01*
G75*
G02*
X179431800Y-141089200I100000J0D01*
G01*
G37*
G36*
G01*
X178781800Y-141089200D02*
X178981800Y-141089200D01*
G75*
G02*
X179081800Y-141189200I0J-100000D01*
G01*
X179081800Y-142564200D01*
G75*
G02*
X178981800Y-142664200I-100000J0D01*
G01*
X178781800Y-142664200D01*
G75*
G02*
X178681800Y-142564200I0J100000D01*
G01*
X178681800Y-141189200D01*
G75*
G02*
X178781800Y-141089200I100000J0D01*
G01*
G37*
G36*
G01*
X178131800Y-141089200D02*
X178331800Y-141089200D01*
G75*
G02*
X178431800Y-141189200I0J-100000D01*
G01*
X178431800Y-142564200D01*
G75*
G02*
X178331800Y-142664200I-100000J0D01*
G01*
X178131800Y-142664200D01*
G75*
G02*
X178031800Y-142564200I0J100000D01*
G01*
X178031800Y-141189200D01*
G75*
G02*
X178131800Y-141089200I100000J0D01*
G01*
G37*
G36*
G01*
X177481800Y-141089200D02*
X177681800Y-141089200D01*
G75*
G02*
X177781800Y-141189200I0J-100000D01*
G01*
X177781800Y-142564200D01*
G75*
G02*
X177681800Y-142664200I-100000J0D01*
G01*
X177481800Y-142664200D01*
G75*
G02*
X177381800Y-142564200I0J100000D01*
G01*
X177381800Y-141189200D01*
G75*
G02*
X177481800Y-141089200I100000J0D01*
G01*
G37*
G36*
G01*
X176831800Y-141089200D02*
X177031800Y-141089200D01*
G75*
G02*
X177131800Y-141189200I0J-100000D01*
G01*
X177131800Y-142564200D01*
G75*
G02*
X177031800Y-142664200I-100000J0D01*
G01*
X176831800Y-142664200D01*
G75*
G02*
X176731800Y-142564200I0J100000D01*
G01*
X176731800Y-141189200D01*
G75*
G02*
X176831800Y-141089200I100000J0D01*
G01*
G37*
G36*
G01*
X176181800Y-141089200D02*
X176381800Y-141089200D01*
G75*
G02*
X176481800Y-141189200I0J-100000D01*
G01*
X176481800Y-142564200D01*
G75*
G02*
X176381800Y-142664200I-100000J0D01*
G01*
X176181800Y-142664200D01*
G75*
G02*
X176081800Y-142564200I0J100000D01*
G01*
X176081800Y-141189200D01*
G75*
G02*
X176181800Y-141089200I100000J0D01*
G01*
G37*
G36*
G01*
X176181800Y-135364200D02*
X176381800Y-135364200D01*
G75*
G02*
X176481800Y-135464200I0J-100000D01*
G01*
X176481800Y-136839200D01*
G75*
G02*
X176381800Y-136939200I-100000J0D01*
G01*
X176181800Y-136939200D01*
G75*
G02*
X176081800Y-136839200I0J100000D01*
G01*
X176081800Y-135464200D01*
G75*
G02*
X176181800Y-135364200I100000J0D01*
G01*
G37*
G36*
G01*
X176831800Y-135364200D02*
X177031800Y-135364200D01*
G75*
G02*
X177131800Y-135464200I0J-100000D01*
G01*
X177131800Y-136839200D01*
G75*
G02*
X177031800Y-136939200I-100000J0D01*
G01*
X176831800Y-136939200D01*
G75*
G02*
X176731800Y-136839200I0J100000D01*
G01*
X176731800Y-135464200D01*
G75*
G02*
X176831800Y-135364200I100000J0D01*
G01*
G37*
G36*
G01*
X177481800Y-135364200D02*
X177681800Y-135364200D01*
G75*
G02*
X177781800Y-135464200I0J-100000D01*
G01*
X177781800Y-136839200D01*
G75*
G02*
X177681800Y-136939200I-100000J0D01*
G01*
X177481800Y-136939200D01*
G75*
G02*
X177381800Y-136839200I0J100000D01*
G01*
X177381800Y-135464200D01*
G75*
G02*
X177481800Y-135364200I100000J0D01*
G01*
G37*
G36*
G01*
X178131800Y-135364200D02*
X178331800Y-135364200D01*
G75*
G02*
X178431800Y-135464200I0J-100000D01*
G01*
X178431800Y-136839200D01*
G75*
G02*
X178331800Y-136939200I-100000J0D01*
G01*
X178131800Y-136939200D01*
G75*
G02*
X178031800Y-136839200I0J100000D01*
G01*
X178031800Y-135464200D01*
G75*
G02*
X178131800Y-135364200I100000J0D01*
G01*
G37*
G36*
G01*
X178781800Y-135364200D02*
X178981800Y-135364200D01*
G75*
G02*
X179081800Y-135464200I0J-100000D01*
G01*
X179081800Y-136839200D01*
G75*
G02*
X178981800Y-136939200I-100000J0D01*
G01*
X178781800Y-136939200D01*
G75*
G02*
X178681800Y-136839200I0J100000D01*
G01*
X178681800Y-135464200D01*
G75*
G02*
X178781800Y-135364200I100000J0D01*
G01*
G37*
G36*
G01*
X179431800Y-135364200D02*
X179631800Y-135364200D01*
G75*
G02*
X179731800Y-135464200I0J-100000D01*
G01*
X179731800Y-136839200D01*
G75*
G02*
X179631800Y-136939200I-100000J0D01*
G01*
X179431800Y-136939200D01*
G75*
G02*
X179331800Y-136839200I0J100000D01*
G01*
X179331800Y-135464200D01*
G75*
G02*
X179431800Y-135364200I100000J0D01*
G01*
G37*
G36*
G01*
X180081800Y-135364200D02*
X180281800Y-135364200D01*
G75*
G02*
X180381800Y-135464200I0J-100000D01*
G01*
X180381800Y-136839200D01*
G75*
G02*
X180281800Y-136939200I-100000J0D01*
G01*
X180081800Y-136939200D01*
G75*
G02*
X179981800Y-136839200I0J100000D01*
G01*
X179981800Y-135464200D01*
G75*
G02*
X180081800Y-135364200I100000J0D01*
G01*
G37*
G36*
G01*
X133010500Y-161138700D02*
X131610500Y-161138700D01*
G75*
G02*
X131535500Y-161063700I0J75000D01*
G01*
X131535500Y-160913700D01*
G75*
G02*
X131610500Y-160838700I75000J0D01*
G01*
X133010500Y-160838700D01*
G75*
G02*
X133085500Y-160913700I0J-75000D01*
G01*
X133085500Y-161063700D01*
G75*
G02*
X133010500Y-161138700I-75000J0D01*
G01*
G37*
G36*
G01*
X133010500Y-160638700D02*
X131610500Y-160638700D01*
G75*
G02*
X131535500Y-160563700I0J75000D01*
G01*
X131535500Y-160413700D01*
G75*
G02*
X131610500Y-160338700I75000J0D01*
G01*
X133010500Y-160338700D01*
G75*
G02*
X133085500Y-160413700I0J-75000D01*
G01*
X133085500Y-160563700D01*
G75*
G02*
X133010500Y-160638700I-75000J0D01*
G01*
G37*
G36*
G01*
X133010500Y-160138700D02*
X131610500Y-160138700D01*
G75*
G02*
X131535500Y-160063700I0J75000D01*
G01*
X131535500Y-159913700D01*
G75*
G02*
X131610500Y-159838700I75000J0D01*
G01*
X133010500Y-159838700D01*
G75*
G02*
X133085500Y-159913700I0J-75000D01*
G01*
X133085500Y-160063700D01*
G75*
G02*
X133010500Y-160138700I-75000J0D01*
G01*
G37*
G36*
G01*
X133010500Y-159638700D02*
X131610500Y-159638700D01*
G75*
G02*
X131535500Y-159563700I0J75000D01*
G01*
X131535500Y-159413700D01*
G75*
G02*
X131610500Y-159338700I75000J0D01*
G01*
X133010500Y-159338700D01*
G75*
G02*
X133085500Y-159413700I0J-75000D01*
G01*
X133085500Y-159563700D01*
G75*
G02*
X133010500Y-159638700I-75000J0D01*
G01*
G37*
G36*
G01*
X133010500Y-159138700D02*
X131610500Y-159138700D01*
G75*
G02*
X131535500Y-159063700I0J75000D01*
G01*
X131535500Y-158913700D01*
G75*
G02*
X131610500Y-158838700I75000J0D01*
G01*
X133010500Y-158838700D01*
G75*
G02*
X133085500Y-158913700I0J-75000D01*
G01*
X133085500Y-159063700D01*
G75*
G02*
X133010500Y-159138700I-75000J0D01*
G01*
G37*
G36*
G01*
X133010500Y-158638700D02*
X131610500Y-158638700D01*
G75*
G02*
X131535500Y-158563700I0J75000D01*
G01*
X131535500Y-158413700D01*
G75*
G02*
X131610500Y-158338700I75000J0D01*
G01*
X133010500Y-158338700D01*
G75*
G02*
X133085500Y-158413700I0J-75000D01*
G01*
X133085500Y-158563700D01*
G75*
G02*
X133010500Y-158638700I-75000J0D01*
G01*
G37*
G36*
G01*
X133010500Y-158138700D02*
X131610500Y-158138700D01*
G75*
G02*
X131535500Y-158063700I0J75000D01*
G01*
X131535500Y-157913700D01*
G75*
G02*
X131610500Y-157838700I75000J0D01*
G01*
X133010500Y-157838700D01*
G75*
G02*
X133085500Y-157913700I0J-75000D01*
G01*
X133085500Y-158063700D01*
G75*
G02*
X133010500Y-158138700I-75000J0D01*
G01*
G37*
G36*
G01*
X133010500Y-157638700D02*
X131610500Y-157638700D01*
G75*
G02*
X131535500Y-157563700I0J75000D01*
G01*
X131535500Y-157413700D01*
G75*
G02*
X131610500Y-157338700I75000J0D01*
G01*
X133010500Y-157338700D01*
G75*
G02*
X133085500Y-157413700I0J-75000D01*
G01*
X133085500Y-157563700D01*
G75*
G02*
X133010500Y-157638700I-75000J0D01*
G01*
G37*
G36*
G01*
X133010500Y-157138700D02*
X131610500Y-157138700D01*
G75*
G02*
X131535500Y-157063700I0J75000D01*
G01*
X131535500Y-156913700D01*
G75*
G02*
X131610500Y-156838700I75000J0D01*
G01*
X133010500Y-156838700D01*
G75*
G02*
X133085500Y-156913700I0J-75000D01*
G01*
X133085500Y-157063700D01*
G75*
G02*
X133010500Y-157138700I-75000J0D01*
G01*
G37*
G36*
G01*
X133010500Y-156638700D02*
X131610500Y-156638700D01*
G75*
G02*
X131535500Y-156563700I0J75000D01*
G01*
X131535500Y-156413700D01*
G75*
G02*
X131610500Y-156338700I75000J0D01*
G01*
X133010500Y-156338700D01*
G75*
G02*
X133085500Y-156413700I0J-75000D01*
G01*
X133085500Y-156563700D01*
G75*
G02*
X133010500Y-156638700I-75000J0D01*
G01*
G37*
G36*
G01*
X133010500Y-156138700D02*
X131610500Y-156138700D01*
G75*
G02*
X131535500Y-156063700I0J75000D01*
G01*
X131535500Y-155913700D01*
G75*
G02*
X131610500Y-155838700I75000J0D01*
G01*
X133010500Y-155838700D01*
G75*
G02*
X133085500Y-155913700I0J-75000D01*
G01*
X133085500Y-156063700D01*
G75*
G02*
X133010500Y-156138700I-75000J0D01*
G01*
G37*
G36*
G01*
X133010500Y-155638700D02*
X131610500Y-155638700D01*
G75*
G02*
X131535500Y-155563700I0J75000D01*
G01*
X131535500Y-155413700D01*
G75*
G02*
X131610500Y-155338700I75000J0D01*
G01*
X133010500Y-155338700D01*
G75*
G02*
X133085500Y-155413700I0J-75000D01*
G01*
X133085500Y-155563700D01*
G75*
G02*
X133010500Y-155638700I-75000J0D01*
G01*
G37*
G36*
G01*
X133010500Y-155138700D02*
X131610500Y-155138700D01*
G75*
G02*
X131535500Y-155063700I0J75000D01*
G01*
X131535500Y-154913700D01*
G75*
G02*
X131610500Y-154838700I75000J0D01*
G01*
X133010500Y-154838700D01*
G75*
G02*
X133085500Y-154913700I0J-75000D01*
G01*
X133085500Y-155063700D01*
G75*
G02*
X133010500Y-155138700I-75000J0D01*
G01*
G37*
G36*
G01*
X133010500Y-154638700D02*
X131610500Y-154638700D01*
G75*
G02*
X131535500Y-154563700I0J75000D01*
G01*
X131535500Y-154413700D01*
G75*
G02*
X131610500Y-154338700I75000J0D01*
G01*
X133010500Y-154338700D01*
G75*
G02*
X133085500Y-154413700I0J-75000D01*
G01*
X133085500Y-154563700D01*
G75*
G02*
X133010500Y-154638700I-75000J0D01*
G01*
G37*
G36*
G01*
X133010500Y-154138700D02*
X131610500Y-154138700D01*
G75*
G02*
X131535500Y-154063700I0J75000D01*
G01*
X131535500Y-153913700D01*
G75*
G02*
X131610500Y-153838700I75000J0D01*
G01*
X133010500Y-153838700D01*
G75*
G02*
X133085500Y-153913700I0J-75000D01*
G01*
X133085500Y-154063700D01*
G75*
G02*
X133010500Y-154138700I-75000J0D01*
G01*
G37*
G36*
G01*
X133010500Y-153638700D02*
X131610500Y-153638700D01*
G75*
G02*
X131535500Y-153563700I0J75000D01*
G01*
X131535500Y-153413700D01*
G75*
G02*
X131610500Y-153338700I75000J0D01*
G01*
X133010500Y-153338700D01*
G75*
G02*
X133085500Y-153413700I0J-75000D01*
G01*
X133085500Y-153563700D01*
G75*
G02*
X133010500Y-153638700I-75000J0D01*
G01*
G37*
G36*
G01*
X134310500Y-152338700D02*
X134160500Y-152338700D01*
G75*
G02*
X134085500Y-152263700I0J75000D01*
G01*
X134085500Y-150863700D01*
G75*
G02*
X134160500Y-150788700I75000J0D01*
G01*
X134310500Y-150788700D01*
G75*
G02*
X134385500Y-150863700I0J-75000D01*
G01*
X134385500Y-152263700D01*
G75*
G02*
X134310500Y-152338700I-75000J0D01*
G01*
G37*
G36*
G01*
X134810500Y-152338700D02*
X134660500Y-152338700D01*
G75*
G02*
X134585500Y-152263700I0J75000D01*
G01*
X134585500Y-150863700D01*
G75*
G02*
X134660500Y-150788700I75000J0D01*
G01*
X134810500Y-150788700D01*
G75*
G02*
X134885500Y-150863700I0J-75000D01*
G01*
X134885500Y-152263700D01*
G75*
G02*
X134810500Y-152338700I-75000J0D01*
G01*
G37*
G36*
G01*
X135310500Y-152338700D02*
X135160500Y-152338700D01*
G75*
G02*
X135085500Y-152263700I0J75000D01*
G01*
X135085500Y-150863700D01*
G75*
G02*
X135160500Y-150788700I75000J0D01*
G01*
X135310500Y-150788700D01*
G75*
G02*
X135385500Y-150863700I0J-75000D01*
G01*
X135385500Y-152263700D01*
G75*
G02*
X135310500Y-152338700I-75000J0D01*
G01*
G37*
G36*
G01*
X135810500Y-152338700D02*
X135660500Y-152338700D01*
G75*
G02*
X135585500Y-152263700I0J75000D01*
G01*
X135585500Y-150863700D01*
G75*
G02*
X135660500Y-150788700I75000J0D01*
G01*
X135810500Y-150788700D01*
G75*
G02*
X135885500Y-150863700I0J-75000D01*
G01*
X135885500Y-152263700D01*
G75*
G02*
X135810500Y-152338700I-75000J0D01*
G01*
G37*
G36*
G01*
X136310500Y-152338700D02*
X136160500Y-152338700D01*
G75*
G02*
X136085500Y-152263700I0J75000D01*
G01*
X136085500Y-150863700D01*
G75*
G02*
X136160500Y-150788700I75000J0D01*
G01*
X136310500Y-150788700D01*
G75*
G02*
X136385500Y-150863700I0J-75000D01*
G01*
X136385500Y-152263700D01*
G75*
G02*
X136310500Y-152338700I-75000J0D01*
G01*
G37*
G36*
G01*
X136810500Y-152338700D02*
X136660500Y-152338700D01*
G75*
G02*
X136585500Y-152263700I0J75000D01*
G01*
X136585500Y-150863700D01*
G75*
G02*
X136660500Y-150788700I75000J0D01*
G01*
X136810500Y-150788700D01*
G75*
G02*
X136885500Y-150863700I0J-75000D01*
G01*
X136885500Y-152263700D01*
G75*
G02*
X136810500Y-152338700I-75000J0D01*
G01*
G37*
G36*
G01*
X137310500Y-152338700D02*
X137160500Y-152338700D01*
G75*
G02*
X137085500Y-152263700I0J75000D01*
G01*
X137085500Y-150863700D01*
G75*
G02*
X137160500Y-150788700I75000J0D01*
G01*
X137310500Y-150788700D01*
G75*
G02*
X137385500Y-150863700I0J-75000D01*
G01*
X137385500Y-152263700D01*
G75*
G02*
X137310500Y-152338700I-75000J0D01*
G01*
G37*
G36*
G01*
X137810500Y-152338700D02*
X137660500Y-152338700D01*
G75*
G02*
X137585500Y-152263700I0J75000D01*
G01*
X137585500Y-150863700D01*
G75*
G02*
X137660500Y-150788700I75000J0D01*
G01*
X137810500Y-150788700D01*
G75*
G02*
X137885500Y-150863700I0J-75000D01*
G01*
X137885500Y-152263700D01*
G75*
G02*
X137810500Y-152338700I-75000J0D01*
G01*
G37*
G36*
G01*
X138310500Y-152338700D02*
X138160500Y-152338700D01*
G75*
G02*
X138085500Y-152263700I0J75000D01*
G01*
X138085500Y-150863700D01*
G75*
G02*
X138160500Y-150788700I75000J0D01*
G01*
X138310500Y-150788700D01*
G75*
G02*
X138385500Y-150863700I0J-75000D01*
G01*
X138385500Y-152263700D01*
G75*
G02*
X138310500Y-152338700I-75000J0D01*
G01*
G37*
G36*
G01*
X138810500Y-152338700D02*
X138660500Y-152338700D01*
G75*
G02*
X138585500Y-152263700I0J75000D01*
G01*
X138585500Y-150863700D01*
G75*
G02*
X138660500Y-150788700I75000J0D01*
G01*
X138810500Y-150788700D01*
G75*
G02*
X138885500Y-150863700I0J-75000D01*
G01*
X138885500Y-152263700D01*
G75*
G02*
X138810500Y-152338700I-75000J0D01*
G01*
G37*
G36*
G01*
X139310500Y-152338700D02*
X139160500Y-152338700D01*
G75*
G02*
X139085500Y-152263700I0J75000D01*
G01*
X139085500Y-150863700D01*
G75*
G02*
X139160500Y-150788700I75000J0D01*
G01*
X139310500Y-150788700D01*
G75*
G02*
X139385500Y-150863700I0J-75000D01*
G01*
X139385500Y-152263700D01*
G75*
G02*
X139310500Y-152338700I-75000J0D01*
G01*
G37*
G36*
G01*
X139810500Y-152338700D02*
X139660500Y-152338700D01*
G75*
G02*
X139585500Y-152263700I0J75000D01*
G01*
X139585500Y-150863700D01*
G75*
G02*
X139660500Y-150788700I75000J0D01*
G01*
X139810500Y-150788700D01*
G75*
G02*
X139885500Y-150863700I0J-75000D01*
G01*
X139885500Y-152263700D01*
G75*
G02*
X139810500Y-152338700I-75000J0D01*
G01*
G37*
G36*
G01*
X140310500Y-152338700D02*
X140160500Y-152338700D01*
G75*
G02*
X140085500Y-152263700I0J75000D01*
G01*
X140085500Y-150863700D01*
G75*
G02*
X140160500Y-150788700I75000J0D01*
G01*
X140310500Y-150788700D01*
G75*
G02*
X140385500Y-150863700I0J-75000D01*
G01*
X140385500Y-152263700D01*
G75*
G02*
X140310500Y-152338700I-75000J0D01*
G01*
G37*
G36*
G01*
X140810500Y-152338700D02*
X140660500Y-152338700D01*
G75*
G02*
X140585500Y-152263700I0J75000D01*
G01*
X140585500Y-150863700D01*
G75*
G02*
X140660500Y-150788700I75000J0D01*
G01*
X140810500Y-150788700D01*
G75*
G02*
X140885500Y-150863700I0J-75000D01*
G01*
X140885500Y-152263700D01*
G75*
G02*
X140810500Y-152338700I-75000J0D01*
G01*
G37*
G36*
G01*
X141310500Y-152338700D02*
X141160500Y-152338700D01*
G75*
G02*
X141085500Y-152263700I0J75000D01*
G01*
X141085500Y-150863700D01*
G75*
G02*
X141160500Y-150788700I75000J0D01*
G01*
X141310500Y-150788700D01*
G75*
G02*
X141385500Y-150863700I0J-75000D01*
G01*
X141385500Y-152263700D01*
G75*
G02*
X141310500Y-152338700I-75000J0D01*
G01*
G37*
G36*
G01*
X141810500Y-152338700D02*
X141660500Y-152338700D01*
G75*
G02*
X141585500Y-152263700I0J75000D01*
G01*
X141585500Y-150863700D01*
G75*
G02*
X141660500Y-150788700I75000J0D01*
G01*
X141810500Y-150788700D01*
G75*
G02*
X141885500Y-150863700I0J-75000D01*
G01*
X141885500Y-152263700D01*
G75*
G02*
X141810500Y-152338700I-75000J0D01*
G01*
G37*
G36*
G01*
X144360500Y-153638700D02*
X142960500Y-153638700D01*
G75*
G02*
X142885500Y-153563700I0J75000D01*
G01*
X142885500Y-153413700D01*
G75*
G02*
X142960500Y-153338700I75000J0D01*
G01*
X144360500Y-153338700D01*
G75*
G02*
X144435500Y-153413700I0J-75000D01*
G01*
X144435500Y-153563700D01*
G75*
G02*
X144360500Y-153638700I-75000J0D01*
G01*
G37*
G36*
G01*
X144360500Y-154138700D02*
X142960500Y-154138700D01*
G75*
G02*
X142885500Y-154063700I0J75000D01*
G01*
X142885500Y-153913700D01*
G75*
G02*
X142960500Y-153838700I75000J0D01*
G01*
X144360500Y-153838700D01*
G75*
G02*
X144435500Y-153913700I0J-75000D01*
G01*
X144435500Y-154063700D01*
G75*
G02*
X144360500Y-154138700I-75000J0D01*
G01*
G37*
G36*
G01*
X144360500Y-154638700D02*
X142960500Y-154638700D01*
G75*
G02*
X142885500Y-154563700I0J75000D01*
G01*
X142885500Y-154413700D01*
G75*
G02*
X142960500Y-154338700I75000J0D01*
G01*
X144360500Y-154338700D01*
G75*
G02*
X144435500Y-154413700I0J-75000D01*
G01*
X144435500Y-154563700D01*
G75*
G02*
X144360500Y-154638700I-75000J0D01*
G01*
G37*
G36*
G01*
X144360500Y-155138700D02*
X142960500Y-155138700D01*
G75*
G02*
X142885500Y-155063700I0J75000D01*
G01*
X142885500Y-154913700D01*
G75*
G02*
X142960500Y-154838700I75000J0D01*
G01*
X144360500Y-154838700D01*
G75*
G02*
X144435500Y-154913700I0J-75000D01*
G01*
X144435500Y-155063700D01*
G75*
G02*
X144360500Y-155138700I-75000J0D01*
G01*
G37*
G36*
G01*
X144360500Y-155638700D02*
X142960500Y-155638700D01*
G75*
G02*
X142885500Y-155563700I0J75000D01*
G01*
X142885500Y-155413700D01*
G75*
G02*
X142960500Y-155338700I75000J0D01*
G01*
X144360500Y-155338700D01*
G75*
G02*
X144435500Y-155413700I0J-75000D01*
G01*
X144435500Y-155563700D01*
G75*
G02*
X144360500Y-155638700I-75000J0D01*
G01*
G37*
G36*
G01*
X144360500Y-156138700D02*
X142960500Y-156138700D01*
G75*
G02*
X142885500Y-156063700I0J75000D01*
G01*
X142885500Y-155913700D01*
G75*
G02*
X142960500Y-155838700I75000J0D01*
G01*
X144360500Y-155838700D01*
G75*
G02*
X144435500Y-155913700I0J-75000D01*
G01*
X144435500Y-156063700D01*
G75*
G02*
X144360500Y-156138700I-75000J0D01*
G01*
G37*
G36*
G01*
X144360500Y-156638700D02*
X142960500Y-156638700D01*
G75*
G02*
X142885500Y-156563700I0J75000D01*
G01*
X142885500Y-156413700D01*
G75*
G02*
X142960500Y-156338700I75000J0D01*
G01*
X144360500Y-156338700D01*
G75*
G02*
X144435500Y-156413700I0J-75000D01*
G01*
X144435500Y-156563700D01*
G75*
G02*
X144360500Y-156638700I-75000J0D01*
G01*
G37*
G36*
G01*
X144360500Y-157138700D02*
X142960500Y-157138700D01*
G75*
G02*
X142885500Y-157063700I0J75000D01*
G01*
X142885500Y-156913700D01*
G75*
G02*
X142960500Y-156838700I75000J0D01*
G01*
X144360500Y-156838700D01*
G75*
G02*
X144435500Y-156913700I0J-75000D01*
G01*
X144435500Y-157063700D01*
G75*
G02*
X144360500Y-157138700I-75000J0D01*
G01*
G37*
G36*
G01*
X144360500Y-157638700D02*
X142960500Y-157638700D01*
G75*
G02*
X142885500Y-157563700I0J75000D01*
G01*
X142885500Y-157413700D01*
G75*
G02*
X142960500Y-157338700I75000J0D01*
G01*
X144360500Y-157338700D01*
G75*
G02*
X144435500Y-157413700I0J-75000D01*
G01*
X144435500Y-157563700D01*
G75*
G02*
X144360500Y-157638700I-75000J0D01*
G01*
G37*
G36*
G01*
X144360500Y-158138700D02*
X142960500Y-158138700D01*
G75*
G02*
X142885500Y-158063700I0J75000D01*
G01*
X142885500Y-157913700D01*
G75*
G02*
X142960500Y-157838700I75000J0D01*
G01*
X144360500Y-157838700D01*
G75*
G02*
X144435500Y-157913700I0J-75000D01*
G01*
X144435500Y-158063700D01*
G75*
G02*
X144360500Y-158138700I-75000J0D01*
G01*
G37*
G36*
G01*
X144360500Y-158638700D02*
X142960500Y-158638700D01*
G75*
G02*
X142885500Y-158563700I0J75000D01*
G01*
X142885500Y-158413700D01*
G75*
G02*
X142960500Y-158338700I75000J0D01*
G01*
X144360500Y-158338700D01*
G75*
G02*
X144435500Y-158413700I0J-75000D01*
G01*
X144435500Y-158563700D01*
G75*
G02*
X144360500Y-158638700I-75000J0D01*
G01*
G37*
G36*
G01*
X144360500Y-159138700D02*
X142960500Y-159138700D01*
G75*
G02*
X142885500Y-159063700I0J75000D01*
G01*
X142885500Y-158913700D01*
G75*
G02*
X142960500Y-158838700I75000J0D01*
G01*
X144360500Y-158838700D01*
G75*
G02*
X144435500Y-158913700I0J-75000D01*
G01*
X144435500Y-159063700D01*
G75*
G02*
X144360500Y-159138700I-75000J0D01*
G01*
G37*
G36*
G01*
X144360500Y-159638700D02*
X142960500Y-159638700D01*
G75*
G02*
X142885500Y-159563700I0J75000D01*
G01*
X142885500Y-159413700D01*
G75*
G02*
X142960500Y-159338700I75000J0D01*
G01*
X144360500Y-159338700D01*
G75*
G02*
X144435500Y-159413700I0J-75000D01*
G01*
X144435500Y-159563700D01*
G75*
G02*
X144360500Y-159638700I-75000J0D01*
G01*
G37*
G36*
G01*
X144360500Y-160138700D02*
X142960500Y-160138700D01*
G75*
G02*
X142885500Y-160063700I0J75000D01*
G01*
X142885500Y-159913700D01*
G75*
G02*
X142960500Y-159838700I75000J0D01*
G01*
X144360500Y-159838700D01*
G75*
G02*
X144435500Y-159913700I0J-75000D01*
G01*
X144435500Y-160063700D01*
G75*
G02*
X144360500Y-160138700I-75000J0D01*
G01*
G37*
G36*
G01*
X144360500Y-160638700D02*
X142960500Y-160638700D01*
G75*
G02*
X142885500Y-160563700I0J75000D01*
G01*
X142885500Y-160413700D01*
G75*
G02*
X142960500Y-160338700I75000J0D01*
G01*
X144360500Y-160338700D01*
G75*
G02*
X144435500Y-160413700I0J-75000D01*
G01*
X144435500Y-160563700D01*
G75*
G02*
X144360500Y-160638700I-75000J0D01*
G01*
G37*
G36*
G01*
X144360500Y-161138700D02*
X142960500Y-161138700D01*
G75*
G02*
X142885500Y-161063700I0J75000D01*
G01*
X142885500Y-160913700D01*
G75*
G02*
X142960500Y-160838700I75000J0D01*
G01*
X144360500Y-160838700D01*
G75*
G02*
X144435500Y-160913700I0J-75000D01*
G01*
X144435500Y-161063700D01*
G75*
G02*
X144360500Y-161138700I-75000J0D01*
G01*
G37*
G36*
G01*
X141810500Y-163688700D02*
X141660500Y-163688700D01*
G75*
G02*
X141585500Y-163613700I0J75000D01*
G01*
X141585500Y-162213700D01*
G75*
G02*
X141660500Y-162138700I75000J0D01*
G01*
X141810500Y-162138700D01*
G75*
G02*
X141885500Y-162213700I0J-75000D01*
G01*
X141885500Y-163613700D01*
G75*
G02*
X141810500Y-163688700I-75000J0D01*
G01*
G37*
G36*
G01*
X141310500Y-163688700D02*
X141160500Y-163688700D01*
G75*
G02*
X141085500Y-163613700I0J75000D01*
G01*
X141085500Y-162213700D01*
G75*
G02*
X141160500Y-162138700I75000J0D01*
G01*
X141310500Y-162138700D01*
G75*
G02*
X141385500Y-162213700I0J-75000D01*
G01*
X141385500Y-163613700D01*
G75*
G02*
X141310500Y-163688700I-75000J0D01*
G01*
G37*
G36*
G01*
X140810500Y-163688700D02*
X140660500Y-163688700D01*
G75*
G02*
X140585500Y-163613700I0J75000D01*
G01*
X140585500Y-162213700D01*
G75*
G02*
X140660500Y-162138700I75000J0D01*
G01*
X140810500Y-162138700D01*
G75*
G02*
X140885500Y-162213700I0J-75000D01*
G01*
X140885500Y-163613700D01*
G75*
G02*
X140810500Y-163688700I-75000J0D01*
G01*
G37*
G36*
G01*
X140310500Y-163688700D02*
X140160500Y-163688700D01*
G75*
G02*
X140085500Y-163613700I0J75000D01*
G01*
X140085500Y-162213700D01*
G75*
G02*
X140160500Y-162138700I75000J0D01*
G01*
X140310500Y-162138700D01*
G75*
G02*
X140385500Y-162213700I0J-75000D01*
G01*
X140385500Y-163613700D01*
G75*
G02*
X140310500Y-163688700I-75000J0D01*
G01*
G37*
G36*
G01*
X139810500Y-163688700D02*
X139660500Y-163688700D01*
G75*
G02*
X139585500Y-163613700I0J75000D01*
G01*
X139585500Y-162213700D01*
G75*
G02*
X139660500Y-162138700I75000J0D01*
G01*
X139810500Y-162138700D01*
G75*
G02*
X139885500Y-162213700I0J-75000D01*
G01*
X139885500Y-163613700D01*
G75*
G02*
X139810500Y-163688700I-75000J0D01*
G01*
G37*
G36*
G01*
X139310500Y-163688700D02*
X139160500Y-163688700D01*
G75*
G02*
X139085500Y-163613700I0J75000D01*
G01*
X139085500Y-162213700D01*
G75*
G02*
X139160500Y-162138700I75000J0D01*
G01*
X139310500Y-162138700D01*
G75*
G02*
X139385500Y-162213700I0J-75000D01*
G01*
X139385500Y-163613700D01*
G75*
G02*
X139310500Y-163688700I-75000J0D01*
G01*
G37*
G36*
G01*
X138810500Y-163688700D02*
X138660500Y-163688700D01*
G75*
G02*
X138585500Y-163613700I0J75000D01*
G01*
X138585500Y-162213700D01*
G75*
G02*
X138660500Y-162138700I75000J0D01*
G01*
X138810500Y-162138700D01*
G75*
G02*
X138885500Y-162213700I0J-75000D01*
G01*
X138885500Y-163613700D01*
G75*
G02*
X138810500Y-163688700I-75000J0D01*
G01*
G37*
G36*
G01*
X138310500Y-163688700D02*
X138160500Y-163688700D01*
G75*
G02*
X138085500Y-163613700I0J75000D01*
G01*
X138085500Y-162213700D01*
G75*
G02*
X138160500Y-162138700I75000J0D01*
G01*
X138310500Y-162138700D01*
G75*
G02*
X138385500Y-162213700I0J-75000D01*
G01*
X138385500Y-163613700D01*
G75*
G02*
X138310500Y-163688700I-75000J0D01*
G01*
G37*
G36*
G01*
X137810500Y-163688700D02*
X137660500Y-163688700D01*
G75*
G02*
X137585500Y-163613700I0J75000D01*
G01*
X137585500Y-162213700D01*
G75*
G02*
X137660500Y-162138700I75000J0D01*
G01*
X137810500Y-162138700D01*
G75*
G02*
X137885500Y-162213700I0J-75000D01*
G01*
X137885500Y-163613700D01*
G75*
G02*
X137810500Y-163688700I-75000J0D01*
G01*
G37*
G36*
G01*
X137310500Y-163688700D02*
X137160500Y-163688700D01*
G75*
G02*
X137085500Y-163613700I0J75000D01*
G01*
X137085500Y-162213700D01*
G75*
G02*
X137160500Y-162138700I75000J0D01*
G01*
X137310500Y-162138700D01*
G75*
G02*
X137385500Y-162213700I0J-75000D01*
G01*
X137385500Y-163613700D01*
G75*
G02*
X137310500Y-163688700I-75000J0D01*
G01*
G37*
G36*
G01*
X136810500Y-163688700D02*
X136660500Y-163688700D01*
G75*
G02*
X136585500Y-163613700I0J75000D01*
G01*
X136585500Y-162213700D01*
G75*
G02*
X136660500Y-162138700I75000J0D01*
G01*
X136810500Y-162138700D01*
G75*
G02*
X136885500Y-162213700I0J-75000D01*
G01*
X136885500Y-163613700D01*
G75*
G02*
X136810500Y-163688700I-75000J0D01*
G01*
G37*
G36*
G01*
X136310500Y-163688700D02*
X136160500Y-163688700D01*
G75*
G02*
X136085500Y-163613700I0J75000D01*
G01*
X136085500Y-162213700D01*
G75*
G02*
X136160500Y-162138700I75000J0D01*
G01*
X136310500Y-162138700D01*
G75*
G02*
X136385500Y-162213700I0J-75000D01*
G01*
X136385500Y-163613700D01*
G75*
G02*
X136310500Y-163688700I-75000J0D01*
G01*
G37*
G36*
G01*
X135810500Y-163688700D02*
X135660500Y-163688700D01*
G75*
G02*
X135585500Y-163613700I0J75000D01*
G01*
X135585500Y-162213700D01*
G75*
G02*
X135660500Y-162138700I75000J0D01*
G01*
X135810500Y-162138700D01*
G75*
G02*
X135885500Y-162213700I0J-75000D01*
G01*
X135885500Y-163613700D01*
G75*
G02*
X135810500Y-163688700I-75000J0D01*
G01*
G37*
G36*
G01*
X135310500Y-163688700D02*
X135160500Y-163688700D01*
G75*
G02*
X135085500Y-163613700I0J75000D01*
G01*
X135085500Y-162213700D01*
G75*
G02*
X135160500Y-162138700I75000J0D01*
G01*
X135310500Y-162138700D01*
G75*
G02*
X135385500Y-162213700I0J-75000D01*
G01*
X135385500Y-163613700D01*
G75*
G02*
X135310500Y-163688700I-75000J0D01*
G01*
G37*
G36*
G01*
X134810500Y-163688700D02*
X134660500Y-163688700D01*
G75*
G02*
X134585500Y-163613700I0J75000D01*
G01*
X134585500Y-162213700D01*
G75*
G02*
X134660500Y-162138700I75000J0D01*
G01*
X134810500Y-162138700D01*
G75*
G02*
X134885500Y-162213700I0J-75000D01*
G01*
X134885500Y-163613700D01*
G75*
G02*
X134810500Y-163688700I-75000J0D01*
G01*
G37*
G36*
G01*
X134310500Y-163688700D02*
X134160500Y-163688700D01*
G75*
G02*
X134085500Y-163613700I0J75000D01*
G01*
X134085500Y-162213700D01*
G75*
G02*
X134160500Y-162138700I75000J0D01*
G01*
X134310500Y-162138700D01*
G75*
G02*
X134385500Y-162213700I0J-75000D01*
G01*
X134385500Y-163613700D01*
G75*
G02*
X134310500Y-163688700I-75000J0D01*
G01*
G37*
G36*
G01*
X156089400Y-168917198D02*
X156089400Y-169817202D01*
G75*
G02*
X155839402Y-170067200I-249998J0D01*
G01*
X155314398Y-170067200D01*
G75*
G02*
X155064400Y-169817202I0J249998D01*
G01*
X155064400Y-168917198D01*
G75*
G02*
X155314398Y-168667200I249998J0D01*
G01*
X155839402Y-168667200D01*
G75*
G02*
X156089400Y-168917198I0J-249998D01*
G01*
G37*
G36*
G01*
X157914400Y-168917198D02*
X157914400Y-169817202D01*
G75*
G02*
X157664402Y-170067200I-249998J0D01*
G01*
X157139398Y-170067200D01*
G75*
G02*
X156889400Y-169817202I0J249998D01*
G01*
X156889400Y-168917198D01*
G75*
G02*
X157139398Y-168667200I249998J0D01*
G01*
X157664402Y-168667200D01*
G75*
G02*
X157914400Y-168917198I0J-249998D01*
G01*
G37*
G36*
G01*
X156940200Y-167734402D02*
X156940200Y-166834398D01*
G75*
G02*
X157190198Y-166584400I249998J0D01*
G01*
X157715202Y-166584400D01*
G75*
G02*
X157965200Y-166834398I0J-249998D01*
G01*
X157965200Y-167734402D01*
G75*
G02*
X157715202Y-167984400I-249998J0D01*
G01*
X157190198Y-167984400D01*
G75*
G02*
X156940200Y-167734402I0J249998D01*
G01*
G37*
G36*
G01*
X155115200Y-167734402D02*
X155115200Y-166834398D01*
G75*
G02*
X155365198Y-166584400I249998J0D01*
G01*
X155890202Y-166584400D01*
G75*
G02*
X156140200Y-166834398I0J-249998D01*
G01*
X156140200Y-167734402D01*
G75*
G02*
X155890202Y-167984400I-249998J0D01*
G01*
X155365198Y-167984400D01*
G75*
G02*
X155115200Y-167734402I0J249998D01*
G01*
G37*
G36*
G01*
X106356998Y-205962200D02*
X107257002Y-205962200D01*
G75*
G02*
X107507000Y-206212198I0J-249998D01*
G01*
X107507000Y-206737202D01*
G75*
G02*
X107257002Y-206987200I-249998J0D01*
G01*
X106356998Y-206987200D01*
G75*
G02*
X106107000Y-206737202I0J249998D01*
G01*
X106107000Y-206212198D01*
G75*
G02*
X106356998Y-205962200I249998J0D01*
G01*
G37*
G36*
G01*
X106356998Y-204137200D02*
X107257002Y-204137200D01*
G75*
G02*
X107507000Y-204387198I0J-249998D01*
G01*
X107507000Y-204912202D01*
G75*
G02*
X107257002Y-205162200I-249998J0D01*
G01*
X106356998Y-205162200D01*
G75*
G02*
X106107000Y-204912202I0J249998D01*
G01*
X106107000Y-204387198D01*
G75*
G02*
X106356998Y-204137200I249998J0D01*
G01*
G37*
G36*
G01*
X136354000Y-171594100D02*
X136354000Y-172144100D01*
G75*
G02*
X136154000Y-172344100I-200000J0D01*
G01*
X135754000Y-172344100D01*
G75*
G02*
X135554000Y-172144100I0J200000D01*
G01*
X135554000Y-171594100D01*
G75*
G02*
X135754000Y-171394100I200000J0D01*
G01*
X136154000Y-171394100D01*
G75*
G02*
X136354000Y-171594100I0J-200000D01*
G01*
G37*
G36*
G01*
X138004000Y-171594100D02*
X138004000Y-172144100D01*
G75*
G02*
X137804000Y-172344100I-200000J0D01*
G01*
X137404000Y-172344100D01*
G75*
G02*
X137204000Y-172144100I0J200000D01*
G01*
X137204000Y-171594100D01*
G75*
G02*
X137404000Y-171394100I200000J0D01*
G01*
X137804000Y-171394100D01*
G75*
G02*
X138004000Y-171594100I0J-200000D01*
G01*
G37*
G36*
G01*
X162859298Y-212680500D02*
X163759302Y-212680500D01*
G75*
G02*
X164009300Y-212930498I0J-249998D01*
G01*
X164009300Y-213455502D01*
G75*
G02*
X163759302Y-213705500I-249998J0D01*
G01*
X162859298Y-213705500D01*
G75*
G02*
X162609300Y-213455502I0J249998D01*
G01*
X162609300Y-212930498D01*
G75*
G02*
X162859298Y-212680500I249998J0D01*
G01*
G37*
G36*
G01*
X162859298Y-210855500D02*
X163759302Y-210855500D01*
G75*
G02*
X164009300Y-211105498I0J-249998D01*
G01*
X164009300Y-211630502D01*
G75*
G02*
X163759302Y-211880500I-249998J0D01*
G01*
X162859298Y-211880500D01*
G75*
G02*
X162609300Y-211630502I0J249998D01*
G01*
X162609300Y-211105498D01*
G75*
G02*
X162859298Y-210855500I249998J0D01*
G01*
G37*
G36*
G01*
X165574558Y-212784640D02*
X166474562Y-212784640D01*
G75*
G02*
X166724560Y-213034638I0J-249998D01*
G01*
X166724560Y-213559642D01*
G75*
G02*
X166474562Y-213809640I-249998J0D01*
G01*
X165574558Y-213809640D01*
G75*
G02*
X165324560Y-213559642I0J249998D01*
G01*
X165324560Y-213034638D01*
G75*
G02*
X165574558Y-212784640I249998J0D01*
G01*
G37*
G36*
G01*
X165574558Y-210959640D02*
X166474562Y-210959640D01*
G75*
G02*
X166724560Y-211209638I0J-249998D01*
G01*
X166724560Y-211734642D01*
G75*
G02*
X166474562Y-211984640I-249998J0D01*
G01*
X165574558Y-211984640D01*
G75*
G02*
X165324560Y-211734642I0J249998D01*
G01*
X165324560Y-211209638D01*
G75*
G02*
X165574558Y-210959640I249998J0D01*
G01*
G37*
G36*
G01*
X153949150Y-137353200D02*
X154711650Y-137353200D01*
G75*
G02*
X154930400Y-137571950I0J-218750D01*
G01*
X154930400Y-138009450D01*
G75*
G02*
X154711650Y-138228200I-218750J0D01*
G01*
X153949150Y-138228200D01*
G75*
G02*
X153730400Y-138009450I0J218750D01*
G01*
X153730400Y-137571950D01*
G75*
G02*
X153949150Y-137353200I218750J0D01*
G01*
G37*
G36*
G01*
X153949150Y-135228200D02*
X154711650Y-135228200D01*
G75*
G02*
X154930400Y-135446950I0J-218750D01*
G01*
X154930400Y-135884450D01*
G75*
G02*
X154711650Y-136103200I-218750J0D01*
G01*
X153949150Y-136103200D01*
G75*
G02*
X153730400Y-135884450I0J218750D01*
G01*
X153730400Y-135446950D01*
G75*
G02*
X153949150Y-135228200I218750J0D01*
G01*
G37*
D15*
X170891200Y-137878000D03*
X170891200Y-132378000D03*
D24*
X179901400Y-130657600D03*
X185401400Y-130657600D03*
D25*
X176384200Y-115011200D03*
X180384200Y-115011200D03*
D26*
X172415200Y-111309400D03*
X172415200Y-115309400D03*
D25*
X168446200Y-129311400D03*
X164446200Y-129311400D03*
G36*
G01*
X163676650Y-215856400D02*
X162764150Y-215856400D01*
G75*
G02*
X162520400Y-215612650I0J243750D01*
G01*
X162520400Y-215125150D01*
G75*
G02*
X162764150Y-214881400I243750J0D01*
G01*
X163676650Y-214881400D01*
G75*
G02*
X163920400Y-215125150I0J-243750D01*
G01*
X163920400Y-215612650D01*
G75*
G02*
X163676650Y-215856400I-243750J0D01*
G01*
G37*
G36*
G01*
X163676650Y-217731400D02*
X162764150Y-217731400D01*
G75*
G02*
X162520400Y-217487650I0J243750D01*
G01*
X162520400Y-217000150D01*
G75*
G02*
X162764150Y-216756400I243750J0D01*
G01*
X163676650Y-216756400D01*
G75*
G02*
X163920400Y-217000150I0J-243750D01*
G01*
X163920400Y-217487650D01*
G75*
G02*
X163676650Y-217731400I-243750J0D01*
G01*
G37*
G36*
G01*
X166419850Y-215894500D02*
X165507350Y-215894500D01*
G75*
G02*
X165263600Y-215650750I0J243750D01*
G01*
X165263600Y-215163250D01*
G75*
G02*
X165507350Y-214919500I243750J0D01*
G01*
X166419850Y-214919500D01*
G75*
G02*
X166663600Y-215163250I0J-243750D01*
G01*
X166663600Y-215650750D01*
G75*
G02*
X166419850Y-215894500I-243750J0D01*
G01*
G37*
G36*
G01*
X166419850Y-217769500D02*
X165507350Y-217769500D01*
G75*
G02*
X165263600Y-217525750I0J243750D01*
G01*
X165263600Y-217038250D01*
G75*
G02*
X165507350Y-216794500I243750J0D01*
G01*
X166419850Y-216794500D01*
G75*
G02*
X166663600Y-217038250I0J-243750D01*
G01*
X166663600Y-217525750D01*
G75*
G02*
X166419850Y-217769500I-243750J0D01*
G01*
G37*
G36*
G01*
X179890400Y-195534700D02*
X180840400Y-195534700D01*
G75*
G02*
X181090400Y-195784700I0J-250000D01*
G01*
X181090400Y-196284700D01*
G75*
G02*
X180840400Y-196534700I-250000J0D01*
G01*
X179890400Y-196534700D01*
G75*
G02*
X179640400Y-196284700I0J250000D01*
G01*
X179640400Y-195784700D01*
G75*
G02*
X179890400Y-195534700I250000J0D01*
G01*
G37*
G36*
G01*
X179890400Y-193634700D02*
X180840400Y-193634700D01*
G75*
G02*
X181090400Y-193884700I0J-250000D01*
G01*
X181090400Y-194384700D01*
G75*
G02*
X180840400Y-194634700I-250000J0D01*
G01*
X179890400Y-194634700D01*
G75*
G02*
X179640400Y-194384700I0J250000D01*
G01*
X179640400Y-193884700D01*
G75*
G02*
X179890400Y-193634700I250000J0D01*
G01*
G37*
G36*
G01*
X180840400Y-198444700D02*
X179890400Y-198444700D01*
G75*
G02*
X179640400Y-198194700I0J250000D01*
G01*
X179640400Y-197694700D01*
G75*
G02*
X179890400Y-197444700I250000J0D01*
G01*
X180840400Y-197444700D01*
G75*
G02*
X181090400Y-197694700I0J-250000D01*
G01*
X181090400Y-198194700D01*
G75*
G02*
X180840400Y-198444700I-250000J0D01*
G01*
G37*
G36*
G01*
X180840400Y-200344700D02*
X179890400Y-200344700D01*
G75*
G02*
X179640400Y-200094700I0J250000D01*
G01*
X179640400Y-199594700D01*
G75*
G02*
X179890400Y-199344700I250000J0D01*
G01*
X180840400Y-199344700D01*
G75*
G02*
X181090400Y-199594700I0J-250000D01*
G01*
X181090400Y-200094700D01*
G75*
G02*
X180840400Y-200344700I-250000J0D01*
G01*
G37*
G36*
G01*
X187063800Y-163822400D02*
X187063800Y-162872400D01*
G75*
G02*
X187313800Y-162622400I250000J0D01*
G01*
X187813800Y-162622400D01*
G75*
G02*
X188063800Y-162872400I0J-250000D01*
G01*
X188063800Y-163822400D01*
G75*
G02*
X187813800Y-164072400I-250000J0D01*
G01*
X187313800Y-164072400D01*
G75*
G02*
X187063800Y-163822400I0J250000D01*
G01*
G37*
G36*
G01*
X185163800Y-163822400D02*
X185163800Y-162872400D01*
G75*
G02*
X185413800Y-162622400I250000J0D01*
G01*
X185913800Y-162622400D01*
G75*
G02*
X186163800Y-162872400I0J-250000D01*
G01*
X186163800Y-163822400D01*
G75*
G02*
X185913800Y-164072400I-250000J0D01*
G01*
X185413800Y-164072400D01*
G75*
G02*
X185163800Y-163822400I0J250000D01*
G01*
G37*
G36*
G01*
X167025300Y-146487300D02*
X167975300Y-146487300D01*
G75*
G02*
X168225300Y-146737300I0J-250000D01*
G01*
X168225300Y-147237300D01*
G75*
G02*
X167975300Y-147487300I-250000J0D01*
G01*
X167025300Y-147487300D01*
G75*
G02*
X166775300Y-147237300I0J250000D01*
G01*
X166775300Y-146737300D01*
G75*
G02*
X167025300Y-146487300I250000J0D01*
G01*
G37*
G36*
G01*
X167025300Y-144587300D02*
X167975300Y-144587300D01*
G75*
G02*
X168225300Y-144837300I0J-250000D01*
G01*
X168225300Y-145337300D01*
G75*
G02*
X167975300Y-145587300I-250000J0D01*
G01*
X167025300Y-145587300D01*
G75*
G02*
X166775300Y-145337300I0J250000D01*
G01*
X166775300Y-144837300D01*
G75*
G02*
X167025300Y-144587300I250000J0D01*
G01*
G37*
G36*
G01*
X153880800Y-141229500D02*
X154830800Y-141229500D01*
G75*
G02*
X155080800Y-141479500I0J-250000D01*
G01*
X155080800Y-141979500D01*
G75*
G02*
X154830800Y-142229500I-250000J0D01*
G01*
X153880800Y-142229500D01*
G75*
G02*
X153630800Y-141979500I0J250000D01*
G01*
X153630800Y-141479500D01*
G75*
G02*
X153880800Y-141229500I250000J0D01*
G01*
G37*
G36*
G01*
X153880800Y-139329500D02*
X154830800Y-139329500D01*
G75*
G02*
X155080800Y-139579500I0J-250000D01*
G01*
X155080800Y-140079500D01*
G75*
G02*
X154830800Y-140329500I-250000J0D01*
G01*
X153880800Y-140329500D01*
G75*
G02*
X153630800Y-140079500I0J250000D01*
G01*
X153630800Y-139579500D01*
G75*
G02*
X153880800Y-139329500I250000J0D01*
G01*
G37*
G36*
G01*
X161373800Y-133546000D02*
X162323800Y-133546000D01*
G75*
G02*
X162573800Y-133796000I0J-250000D01*
G01*
X162573800Y-134296000D01*
G75*
G02*
X162323800Y-134546000I-250000J0D01*
G01*
X161373800Y-134546000D01*
G75*
G02*
X161123800Y-134296000I0J250000D01*
G01*
X161123800Y-133796000D01*
G75*
G02*
X161373800Y-133546000I250000J0D01*
G01*
G37*
G36*
G01*
X161373800Y-131646000D02*
X162323800Y-131646000D01*
G75*
G02*
X162573800Y-131896000I0J-250000D01*
G01*
X162573800Y-132396000D01*
G75*
G02*
X162323800Y-132646000I-250000J0D01*
G01*
X161373800Y-132646000D01*
G75*
G02*
X161123800Y-132396000I0J250000D01*
G01*
X161123800Y-131896000D01*
G75*
G02*
X161373800Y-131646000I250000J0D01*
G01*
G37*
G36*
G01*
X165700600Y-133529200D02*
X166650600Y-133529200D01*
G75*
G02*
X166900600Y-133779200I0J-250000D01*
G01*
X166900600Y-134279200D01*
G75*
G02*
X166650600Y-134529200I-250000J0D01*
G01*
X165700600Y-134529200D01*
G75*
G02*
X165450600Y-134279200I0J250000D01*
G01*
X165450600Y-133779200D01*
G75*
G02*
X165700600Y-133529200I250000J0D01*
G01*
G37*
G36*
G01*
X165700600Y-131629200D02*
X166650600Y-131629200D01*
G75*
G02*
X166900600Y-131879200I0J-250000D01*
G01*
X166900600Y-132379200D01*
G75*
G02*
X166650600Y-132629200I-250000J0D01*
G01*
X165700600Y-132629200D01*
G75*
G02*
X165450600Y-132379200I0J250000D01*
G01*
X165450600Y-131879200D01*
G75*
G02*
X165700600Y-131629200I250000J0D01*
G01*
G37*
G36*
G01*
X163583600Y-133546000D02*
X164533600Y-133546000D01*
G75*
G02*
X164783600Y-133796000I0J-250000D01*
G01*
X164783600Y-134296000D01*
G75*
G02*
X164533600Y-134546000I-250000J0D01*
G01*
X163583600Y-134546000D01*
G75*
G02*
X163333600Y-134296000I0J250000D01*
G01*
X163333600Y-133796000D01*
G75*
G02*
X163583600Y-133546000I250000J0D01*
G01*
G37*
G36*
G01*
X163583600Y-131646000D02*
X164533600Y-131646000D01*
G75*
G02*
X164783600Y-131896000I0J-250000D01*
G01*
X164783600Y-132396000D01*
G75*
G02*
X164533600Y-132646000I-250000J0D01*
G01*
X163583600Y-132646000D01*
G75*
G02*
X163333600Y-132396000I0J250000D01*
G01*
X163333600Y-131896000D01*
G75*
G02*
X163583600Y-131646000I250000J0D01*
G01*
G37*
G36*
G01*
X153804600Y-161117700D02*
X154754600Y-161117700D01*
G75*
G02*
X155004600Y-161367700I0J-250000D01*
G01*
X155004600Y-161867700D01*
G75*
G02*
X154754600Y-162117700I-250000J0D01*
G01*
X153804600Y-162117700D01*
G75*
G02*
X153554600Y-161867700I0J250000D01*
G01*
X153554600Y-161367700D01*
G75*
G02*
X153804600Y-161117700I250000J0D01*
G01*
G37*
G36*
G01*
X153804600Y-159217700D02*
X154754600Y-159217700D01*
G75*
G02*
X155004600Y-159467700I0J-250000D01*
G01*
X155004600Y-159967700D01*
G75*
G02*
X154754600Y-160217700I-250000J0D01*
G01*
X153804600Y-160217700D01*
G75*
G02*
X153554600Y-159967700I0J250000D01*
G01*
X153554600Y-159467700D01*
G75*
G02*
X153804600Y-159217700I250000J0D01*
G01*
G37*
G36*
G01*
X167685700Y-158006200D02*
X168635700Y-158006200D01*
G75*
G02*
X168885700Y-158256200I0J-250000D01*
G01*
X168885700Y-158756200D01*
G75*
G02*
X168635700Y-159006200I-250000J0D01*
G01*
X167685700Y-159006200D01*
G75*
G02*
X167435700Y-158756200I0J250000D01*
G01*
X167435700Y-158256200D01*
G75*
G02*
X167685700Y-158006200I250000J0D01*
G01*
G37*
G36*
G01*
X167685700Y-156106200D02*
X168635700Y-156106200D01*
G75*
G02*
X168885700Y-156356200I0J-250000D01*
G01*
X168885700Y-156856200D01*
G75*
G02*
X168635700Y-157106200I-250000J0D01*
G01*
X167685700Y-157106200D01*
G75*
G02*
X167435700Y-156856200I0J250000D01*
G01*
X167435700Y-156356200D01*
G75*
G02*
X167685700Y-156106200I250000J0D01*
G01*
G37*
G36*
G01*
X184894200Y-136594000D02*
X185844200Y-136594000D01*
G75*
G02*
X186094200Y-136844000I0J-250000D01*
G01*
X186094200Y-137344000D01*
G75*
G02*
X185844200Y-137594000I-250000J0D01*
G01*
X184894200Y-137594000D01*
G75*
G02*
X184644200Y-137344000I0J250000D01*
G01*
X184644200Y-136844000D01*
G75*
G02*
X184894200Y-136594000I250000J0D01*
G01*
G37*
G36*
G01*
X184894200Y-134694000D02*
X185844200Y-134694000D01*
G75*
G02*
X186094200Y-134944000I0J-250000D01*
G01*
X186094200Y-135444000D01*
G75*
G02*
X185844200Y-135694000I-250000J0D01*
G01*
X184894200Y-135694000D01*
G75*
G02*
X184644200Y-135444000I0J250000D01*
G01*
X184644200Y-134944000D01*
G75*
G02*
X184894200Y-134694000I250000J0D01*
G01*
G37*
G36*
G01*
X139060300Y-170489900D02*
X139060300Y-169539900D01*
G75*
G02*
X139310300Y-169289900I250000J0D01*
G01*
X139810300Y-169289900D01*
G75*
G02*
X140060300Y-169539900I0J-250000D01*
G01*
X140060300Y-170489900D01*
G75*
G02*
X139810300Y-170739900I-250000J0D01*
G01*
X139310300Y-170739900D01*
G75*
G02*
X139060300Y-170489900I0J250000D01*
G01*
G37*
G36*
G01*
X137160300Y-170489900D02*
X137160300Y-169539900D01*
G75*
G02*
X137410300Y-169289900I250000J0D01*
G01*
X137910300Y-169289900D01*
G75*
G02*
X138160300Y-169539900I0J-250000D01*
G01*
X138160300Y-170489900D01*
G75*
G02*
X137910300Y-170739900I-250000J0D01*
G01*
X137410300Y-170739900D01*
G75*
G02*
X137160300Y-170489900I0J250000D01*
G01*
G37*
G36*
G01*
X134652600Y-169539900D02*
X134652600Y-170489900D01*
G75*
G02*
X134402600Y-170739900I-250000J0D01*
G01*
X133902600Y-170739900D01*
G75*
G02*
X133652600Y-170489900I0J250000D01*
G01*
X133652600Y-169539900D01*
G75*
G02*
X133902600Y-169289900I250000J0D01*
G01*
X134402600Y-169289900D01*
G75*
G02*
X134652600Y-169539900I0J-250000D01*
G01*
G37*
G36*
G01*
X136552600Y-169539900D02*
X136552600Y-170489900D01*
G75*
G02*
X136302600Y-170739900I-250000J0D01*
G01*
X135802600Y-170739900D01*
G75*
G02*
X135552600Y-170489900I0J250000D01*
G01*
X135552600Y-169539900D01*
G75*
G02*
X135802600Y-169289900I250000J0D01*
G01*
X136302600Y-169289900D01*
G75*
G02*
X136552600Y-169539900I0J-250000D01*
G01*
G37*
M02*
