G04 #@! TF.GenerationSoftware,KiCad,Pcbnew,5.1.9*
G04 #@! TF.CreationDate,2021-07-18T14:13:42+08:00*
G04 #@! TF.ProjectId,digital-amplifier2,64696769-7461-46c2-9d61-6d706c696669,rev?*
G04 #@! TF.SameCoordinates,Original*
G04 #@! TF.FileFunction,Soldermask,Bot*
G04 #@! TF.FilePolarity,Negative*
%FSLAX46Y46*%
G04 Gerber Fmt 4.6, Leading zero omitted, Abs format (unit mm)*
G04 Created by KiCad (PCBNEW 5.1.9) date 2021-07-18 14:13:42*
%MOMM*%
%LPD*%
G01*
G04 APERTURE LIST*
%ADD10C,2.502000*%
%ADD11C,1.702000*%
%ADD12C,1.202000*%
%ADD13C,2.102000*%
%ADD14C,1.802000*%
%ADD15C,2.352000*%
%ADD16O,1.902000X3.702000*%
%ADD17C,1.602000*%
%ADD18C,0.702000*%
%ADD19O,1.002000X1.802000*%
%ADD20O,1.002000X2.102000*%
%ADD21R,3.100000X3.000000*%
%ADD22C,1.902000*%
%ADD23C,2.602000*%
%ADD24R,3.000000X3.100000*%
%ADD25C,3.102000*%
%ADD26C,1.952000*%
%ADD27O,1.102000X2.302000*%
%ADD28C,6.502000*%
%ADD29C,0.100000*%
G04 APERTURE END LIST*
G36*
G01*
X186287500Y-134137080D02*
X186838500Y-134137080D01*
G75*
G02*
X187089000Y-134387580I0J-250500D01*
G01*
X187089000Y-134888580D01*
G75*
G02*
X186838500Y-135139080I-250500J0D01*
G01*
X186287500Y-135139080D01*
G75*
G02*
X186037000Y-134888580I0J250500D01*
G01*
X186037000Y-134387580D01*
G75*
G02*
X186287500Y-134137080I250500J0D01*
G01*
G37*
G36*
G01*
X186287500Y-132587080D02*
X186838500Y-132587080D01*
G75*
G02*
X187089000Y-132837580I0J-250500D01*
G01*
X187089000Y-133338580D01*
G75*
G02*
X186838500Y-133589080I-250500J0D01*
G01*
X186287500Y-133589080D01*
G75*
G02*
X186037000Y-133338580I0J250500D01*
G01*
X186037000Y-132837580D01*
G75*
G02*
X186287500Y-132587080I250500J0D01*
G01*
G37*
G36*
G01*
X186838500Y-140904280D02*
X186287500Y-140904280D01*
G75*
G02*
X186037000Y-140653780I0J250500D01*
G01*
X186037000Y-140152780D01*
G75*
G02*
X186287500Y-139902280I250500J0D01*
G01*
X186838500Y-139902280D01*
G75*
G02*
X187089000Y-140152780I0J-250500D01*
G01*
X187089000Y-140653780D01*
G75*
G02*
X186838500Y-140904280I-250500J0D01*
G01*
G37*
G36*
G01*
X186838500Y-142454280D02*
X186287500Y-142454280D01*
G75*
G02*
X186037000Y-142203780I0J250500D01*
G01*
X186037000Y-141702780D01*
G75*
G02*
X186287500Y-141452280I250500J0D01*
G01*
X186838500Y-141452280D01*
G75*
G02*
X187089000Y-141702780I0J-250500D01*
G01*
X187089000Y-142203780D01*
G75*
G02*
X186838500Y-142454280I-250500J0D01*
G01*
G37*
G36*
G01*
X159356740Y-164647280D02*
X159356740Y-164096280D01*
G75*
G02*
X159607240Y-163845780I250500J0D01*
G01*
X160108240Y-163845780D01*
G75*
G02*
X160358740Y-164096280I0J-250500D01*
G01*
X160358740Y-164647280D01*
G75*
G02*
X160108240Y-164897780I-250500J0D01*
G01*
X159607240Y-164897780D01*
G75*
G02*
X159356740Y-164647280I0J250500D01*
G01*
G37*
G36*
G01*
X157806740Y-164647280D02*
X157806740Y-164096280D01*
G75*
G02*
X158057240Y-163845780I250500J0D01*
G01*
X158558240Y-163845780D01*
G75*
G02*
X158808740Y-164096280I0J-250500D01*
G01*
X158808740Y-164647280D01*
G75*
G02*
X158558240Y-164897780I-250500J0D01*
G01*
X158057240Y-164897780D01*
G75*
G02*
X157806740Y-164647280I0J250500D01*
G01*
G37*
G36*
G01*
X159336420Y-161274160D02*
X159336420Y-160723160D01*
G75*
G02*
X159586920Y-160472660I250500J0D01*
G01*
X160087920Y-160472660D01*
G75*
G02*
X160338420Y-160723160I0J-250500D01*
G01*
X160338420Y-161274160D01*
G75*
G02*
X160087920Y-161524660I-250500J0D01*
G01*
X159586920Y-161524660D01*
G75*
G02*
X159336420Y-161274160I0J250500D01*
G01*
G37*
G36*
G01*
X157786420Y-161274160D02*
X157786420Y-160723160D01*
G75*
G02*
X158036920Y-160472660I250500J0D01*
G01*
X158537920Y-160472660D01*
G75*
G02*
X158788420Y-160723160I0J-250500D01*
G01*
X158788420Y-161274160D01*
G75*
G02*
X158537920Y-161524660I-250500J0D01*
G01*
X158036920Y-161524660D01*
G75*
G02*
X157786420Y-161274160I0J250500D01*
G01*
G37*
G36*
G01*
X159379600Y-162940400D02*
X159379600Y-162389400D01*
G75*
G02*
X159630100Y-162138900I250500J0D01*
G01*
X160131100Y-162138900D01*
G75*
G02*
X160381600Y-162389400I0J-250500D01*
G01*
X160381600Y-162940400D01*
G75*
G02*
X160131100Y-163190900I-250500J0D01*
G01*
X159630100Y-163190900D01*
G75*
G02*
X159379600Y-162940400I0J250500D01*
G01*
G37*
G36*
G01*
X157829600Y-162940400D02*
X157829600Y-162389400D01*
G75*
G02*
X158080100Y-162138900I250500J0D01*
G01*
X158581100Y-162138900D01*
G75*
G02*
X158831600Y-162389400I0J-250500D01*
G01*
X158831600Y-162940400D01*
G75*
G02*
X158581100Y-163190900I-250500J0D01*
G01*
X158080100Y-163190900D01*
G75*
G02*
X157829600Y-162940400I0J250500D01*
G01*
G37*
G36*
G01*
X158749680Y-152177660D02*
X158749680Y-151626660D01*
G75*
G02*
X159000180Y-151376160I250500J0D01*
G01*
X159501180Y-151376160D01*
G75*
G02*
X159751680Y-151626660I0J-250500D01*
G01*
X159751680Y-152177660D01*
G75*
G02*
X159501180Y-152428160I-250500J0D01*
G01*
X159000180Y-152428160D01*
G75*
G02*
X158749680Y-152177660I0J250500D01*
G01*
G37*
G36*
G01*
X157199680Y-152177660D02*
X157199680Y-151626660D01*
G75*
G02*
X157450180Y-151376160I250500J0D01*
G01*
X157951180Y-151376160D01*
G75*
G02*
X158201680Y-151626660I0J-250500D01*
G01*
X158201680Y-152177660D01*
G75*
G02*
X157951180Y-152428160I-250500J0D01*
G01*
X157450180Y-152428160D01*
G75*
G02*
X157199680Y-152177660I0J250500D01*
G01*
G37*
G36*
G01*
X133430100Y-204937040D02*
X133981100Y-204937040D01*
G75*
G02*
X134231600Y-205187540I0J-250500D01*
G01*
X134231600Y-205688540D01*
G75*
G02*
X133981100Y-205939040I-250500J0D01*
G01*
X133430100Y-205939040D01*
G75*
G02*
X133179600Y-205688540I0J250500D01*
G01*
X133179600Y-205187540D01*
G75*
G02*
X133430100Y-204937040I250500J0D01*
G01*
G37*
G36*
G01*
X133430100Y-203387040D02*
X133981100Y-203387040D01*
G75*
G02*
X134231600Y-203637540I0J-250500D01*
G01*
X134231600Y-204138540D01*
G75*
G02*
X133981100Y-204389040I-250500J0D01*
G01*
X133430100Y-204389040D01*
G75*
G02*
X133179600Y-204138540I0J250500D01*
G01*
X133179600Y-203637540D01*
G75*
G02*
X133430100Y-203387040I250500J0D01*
G01*
G37*
G36*
G01*
X184012520Y-150181220D02*
X184012520Y-149630220D01*
G75*
G02*
X184263020Y-149379720I250500J0D01*
G01*
X184764020Y-149379720D01*
G75*
G02*
X185014520Y-149630220I0J-250500D01*
G01*
X185014520Y-150181220D01*
G75*
G02*
X184764020Y-150431720I-250500J0D01*
G01*
X184263020Y-150431720D01*
G75*
G02*
X184012520Y-150181220I0J250500D01*
G01*
G37*
G36*
G01*
X182462520Y-150181220D02*
X182462520Y-149630220D01*
G75*
G02*
X182713020Y-149379720I250500J0D01*
G01*
X183214020Y-149379720D01*
G75*
G02*
X183464520Y-149630220I0J-250500D01*
G01*
X183464520Y-150181220D01*
G75*
G02*
X183214020Y-150431720I-250500J0D01*
G01*
X182713020Y-150431720D01*
G75*
G02*
X182462520Y-150181220I0J250500D01*
G01*
G37*
G36*
G01*
X172030300Y-167447280D02*
X171479300Y-167447280D01*
G75*
G02*
X171228800Y-167196780I0J250500D01*
G01*
X171228800Y-166695780D01*
G75*
G02*
X171479300Y-166445280I250500J0D01*
G01*
X172030300Y-166445280D01*
G75*
G02*
X172280800Y-166695780I0J-250500D01*
G01*
X172280800Y-167196780D01*
G75*
G02*
X172030300Y-167447280I-250500J0D01*
G01*
G37*
G36*
G01*
X172030300Y-168997280D02*
X171479300Y-168997280D01*
G75*
G02*
X171228800Y-168746780I0J250500D01*
G01*
X171228800Y-168245780D01*
G75*
G02*
X171479300Y-167995280I250500J0D01*
G01*
X172030300Y-167995280D01*
G75*
G02*
X172280800Y-168245780I0J-250500D01*
G01*
X172280800Y-168746780D01*
G75*
G02*
X172030300Y-168997280I-250500J0D01*
G01*
G37*
G36*
G01*
X173605100Y-164348480D02*
X173054100Y-164348480D01*
G75*
G02*
X172803600Y-164097980I0J250500D01*
G01*
X172803600Y-163596980D01*
G75*
G02*
X173054100Y-163346480I250500J0D01*
G01*
X173605100Y-163346480D01*
G75*
G02*
X173855600Y-163596980I0J-250500D01*
G01*
X173855600Y-164097980D01*
G75*
G02*
X173605100Y-164348480I-250500J0D01*
G01*
G37*
G36*
G01*
X173605100Y-165898480D02*
X173054100Y-165898480D01*
G75*
G02*
X172803600Y-165647980I0J250500D01*
G01*
X172803600Y-165146980D01*
G75*
G02*
X173054100Y-164896480I250500J0D01*
G01*
X173605100Y-164896480D01*
G75*
G02*
X173855600Y-165146980I0J-250500D01*
G01*
X173855600Y-165647980D01*
G75*
G02*
X173605100Y-165898480I-250500J0D01*
G01*
G37*
G36*
G01*
X172204700Y-174887980D02*
X172204700Y-175438980D01*
G75*
G02*
X171954200Y-175689480I-250500J0D01*
G01*
X171453200Y-175689480D01*
G75*
G02*
X171202700Y-175438980I0J250500D01*
G01*
X171202700Y-174887980D01*
G75*
G02*
X171453200Y-174637480I250500J0D01*
G01*
X171954200Y-174637480D01*
G75*
G02*
X172204700Y-174887980I0J-250500D01*
G01*
G37*
G36*
G01*
X173754700Y-174887980D02*
X173754700Y-175438980D01*
G75*
G02*
X173504200Y-175689480I-250500J0D01*
G01*
X173003200Y-175689480D01*
G75*
G02*
X172752700Y-175438980I0J250500D01*
G01*
X172752700Y-174887980D01*
G75*
G02*
X173003200Y-174637480I250500J0D01*
G01*
X173504200Y-174637480D01*
G75*
G02*
X173754700Y-174887980I0J-250500D01*
G01*
G37*
G36*
G01*
X187098320Y-151756020D02*
X187098320Y-151205020D01*
G75*
G02*
X187348820Y-150954520I250500J0D01*
G01*
X187849820Y-150954520D01*
G75*
G02*
X188100320Y-151205020I0J-250500D01*
G01*
X188100320Y-151756020D01*
G75*
G02*
X187849820Y-152006520I-250500J0D01*
G01*
X187348820Y-152006520D01*
G75*
G02*
X187098320Y-151756020I0J250500D01*
G01*
G37*
G36*
G01*
X185548320Y-151756020D02*
X185548320Y-151205020D01*
G75*
G02*
X185798820Y-150954520I250500J0D01*
G01*
X186299820Y-150954520D01*
G75*
G02*
X186550320Y-151205020I0J-250500D01*
G01*
X186550320Y-151756020D01*
G75*
G02*
X186299820Y-152006520I-250500J0D01*
G01*
X185798820Y-152006520D01*
G75*
G02*
X185548320Y-151756020I0J250500D01*
G01*
G37*
G36*
G01*
X174885260Y-151882160D02*
X174334260Y-151882160D01*
G75*
G02*
X174083760Y-151631660I0J250500D01*
G01*
X174083760Y-151130660D01*
G75*
G02*
X174334260Y-150880160I250500J0D01*
G01*
X174885260Y-150880160D01*
G75*
G02*
X175135760Y-151130660I0J-250500D01*
G01*
X175135760Y-151631660D01*
G75*
G02*
X174885260Y-151882160I-250500J0D01*
G01*
G37*
G36*
G01*
X174885260Y-153432160D02*
X174334260Y-153432160D01*
G75*
G02*
X174083760Y-153181660I0J250500D01*
G01*
X174083760Y-152680660D01*
G75*
G02*
X174334260Y-152430160I250500J0D01*
G01*
X174885260Y-152430160D01*
G75*
G02*
X175135760Y-152680660I0J-250500D01*
G01*
X175135760Y-153181660D01*
G75*
G02*
X174885260Y-153432160I-250500J0D01*
G01*
G37*
G36*
G01*
X126284900Y-111409800D02*
X125733900Y-111409800D01*
G75*
G02*
X125483400Y-111159300I0J250500D01*
G01*
X125483400Y-110658300D01*
G75*
G02*
X125733900Y-110407800I250500J0D01*
G01*
X126284900Y-110407800D01*
G75*
G02*
X126535400Y-110658300I0J-250500D01*
G01*
X126535400Y-111159300D01*
G75*
G02*
X126284900Y-111409800I-250500J0D01*
G01*
G37*
G36*
G01*
X126284900Y-112959800D02*
X125733900Y-112959800D01*
G75*
G02*
X125483400Y-112709300I0J250500D01*
G01*
X125483400Y-112208300D01*
G75*
G02*
X125733900Y-111957800I250500J0D01*
G01*
X126284900Y-111957800D01*
G75*
G02*
X126535400Y-112208300I0J-250500D01*
G01*
X126535400Y-112709300D01*
G75*
G02*
X126284900Y-112959800I-250500J0D01*
G01*
G37*
G36*
G01*
X118664900Y-111460600D02*
X118113900Y-111460600D01*
G75*
G02*
X117863400Y-111210100I0J250500D01*
G01*
X117863400Y-110709100D01*
G75*
G02*
X118113900Y-110458600I250500J0D01*
G01*
X118664900Y-110458600D01*
G75*
G02*
X118915400Y-110709100I0J-250500D01*
G01*
X118915400Y-111210100D01*
G75*
G02*
X118664900Y-111460600I-250500J0D01*
G01*
G37*
G36*
G01*
X118664900Y-113010600D02*
X118113900Y-113010600D01*
G75*
G02*
X117863400Y-112760100I0J250500D01*
G01*
X117863400Y-112259100D01*
G75*
G02*
X118113900Y-112008600I250500J0D01*
G01*
X118664900Y-112008600D01*
G75*
G02*
X118915400Y-112259100I0J-250500D01*
G01*
X118915400Y-112760100D01*
G75*
G02*
X118664900Y-113010600I-250500J0D01*
G01*
G37*
G36*
G01*
X122474900Y-111460600D02*
X121923900Y-111460600D01*
G75*
G02*
X121673400Y-111210100I0J250500D01*
G01*
X121673400Y-110709100D01*
G75*
G02*
X121923900Y-110458600I250500J0D01*
G01*
X122474900Y-110458600D01*
G75*
G02*
X122725400Y-110709100I0J-250500D01*
G01*
X122725400Y-111210100D01*
G75*
G02*
X122474900Y-111460600I-250500J0D01*
G01*
G37*
G36*
G01*
X122474900Y-113010600D02*
X121923900Y-113010600D01*
G75*
G02*
X121673400Y-112760100I0J250500D01*
G01*
X121673400Y-112259100D01*
G75*
G02*
X121923900Y-112008600I250500J0D01*
G01*
X122474900Y-112008600D01*
G75*
G02*
X122725400Y-112259100I0J-250500D01*
G01*
X122725400Y-112760100D01*
G75*
G02*
X122474900Y-113010600I-250500J0D01*
G01*
G37*
G36*
G01*
X114804100Y-111409800D02*
X114253100Y-111409800D01*
G75*
G02*
X114002600Y-111159300I0J250500D01*
G01*
X114002600Y-110658300D01*
G75*
G02*
X114253100Y-110407800I250500J0D01*
G01*
X114804100Y-110407800D01*
G75*
G02*
X115054600Y-110658300I0J-250500D01*
G01*
X115054600Y-111159300D01*
G75*
G02*
X114804100Y-111409800I-250500J0D01*
G01*
G37*
G36*
G01*
X114804100Y-112959800D02*
X114253100Y-112959800D01*
G75*
G02*
X114002600Y-112709300I0J250500D01*
G01*
X114002600Y-112208300D01*
G75*
G02*
X114253100Y-111957800I250500J0D01*
G01*
X114804100Y-111957800D01*
G75*
G02*
X115054600Y-112208300I0J-250500D01*
G01*
X115054600Y-112709300D01*
G75*
G02*
X114804100Y-112959800I-250500J0D01*
G01*
G37*
G36*
G01*
X122757020Y-156357000D02*
X123308020Y-156357000D01*
G75*
G02*
X123558520Y-156607500I0J-250500D01*
G01*
X123558520Y-157108500D01*
G75*
G02*
X123308020Y-157359000I-250500J0D01*
G01*
X122757020Y-157359000D01*
G75*
G02*
X122506520Y-157108500I0J250500D01*
G01*
X122506520Y-156607500D01*
G75*
G02*
X122757020Y-156357000I250500J0D01*
G01*
G37*
G36*
G01*
X122757020Y-154807000D02*
X123308020Y-154807000D01*
G75*
G02*
X123558520Y-155057500I0J-250500D01*
G01*
X123558520Y-155558500D01*
G75*
G02*
X123308020Y-155809000I-250500J0D01*
G01*
X122757020Y-155809000D01*
G75*
G02*
X122506520Y-155558500I0J250500D01*
G01*
X122506520Y-155057500D01*
G75*
G02*
X122757020Y-154807000I250500J0D01*
G01*
G37*
G36*
G01*
X124344520Y-156369700D02*
X124895520Y-156369700D01*
G75*
G02*
X125146020Y-156620200I0J-250500D01*
G01*
X125146020Y-157121200D01*
G75*
G02*
X124895520Y-157371700I-250500J0D01*
G01*
X124344520Y-157371700D01*
G75*
G02*
X124094020Y-157121200I0J250500D01*
G01*
X124094020Y-156620200D01*
G75*
G02*
X124344520Y-156369700I250500J0D01*
G01*
G37*
G36*
G01*
X124344520Y-154819700D02*
X124895520Y-154819700D01*
G75*
G02*
X125146020Y-155070200I0J-250500D01*
G01*
X125146020Y-155571200D01*
G75*
G02*
X124895520Y-155821700I-250500J0D01*
G01*
X124344520Y-155821700D01*
G75*
G02*
X124094020Y-155571200I0J250500D01*
G01*
X124094020Y-155070200D01*
G75*
G02*
X124344520Y-154819700I250500J0D01*
G01*
G37*
D10*
X181936400Y-122316240D03*
G36*
G01*
X175685400Y-123516240D02*
X175685400Y-121116240D01*
G75*
G02*
X175736400Y-121065240I51000J0D01*
G01*
X178136400Y-121065240D01*
G75*
G02*
X178187400Y-121116240I0J-51000D01*
G01*
X178187400Y-123516240D01*
G75*
G02*
X178136400Y-123567240I-51000J0D01*
G01*
X175736400Y-123567240D01*
G75*
G02*
X175685400Y-123516240I0J51000D01*
G01*
G37*
G36*
G01*
X143665040Y-191868960D02*
X145265040Y-191868960D01*
G75*
G02*
X145316040Y-191919960I0J-51000D01*
G01*
X145316040Y-193519960D01*
G75*
G02*
X145265040Y-193570960I-51000J0D01*
G01*
X143665040Y-193570960D01*
G75*
G02*
X143614040Y-193519960I0J51000D01*
G01*
X143614040Y-191919960D01*
G75*
G02*
X143665040Y-191868960I51000J0D01*
G01*
G37*
D11*
X144465040Y-195219960D03*
G36*
G01*
X143665040Y-184501180D02*
X145265040Y-184501180D01*
G75*
G02*
X145316040Y-184552180I0J-51000D01*
G01*
X145316040Y-186152180D01*
G75*
G02*
X145265040Y-186203180I-51000J0D01*
G01*
X143665040Y-186203180D01*
G75*
G02*
X143614040Y-186152180I0J51000D01*
G01*
X143614040Y-184552180D01*
G75*
G02*
X143665040Y-184501180I51000J0D01*
G01*
G37*
X144465040Y-187852180D03*
D12*
X159918400Y-166856280D03*
G36*
G01*
X160468400Y-168957280D02*
X159368400Y-168957280D01*
G75*
G02*
X159317400Y-168906280I0J51000D01*
G01*
X159317400Y-167806280D01*
G75*
G02*
X159368400Y-167755280I51000J0D01*
G01*
X160468400Y-167755280D01*
G75*
G02*
X160519400Y-167806280I0J-51000D01*
G01*
X160519400Y-168906280D01*
G75*
G02*
X160468400Y-168957280I-51000J0D01*
G01*
G37*
G36*
G01*
X156282140Y-171072685D02*
X156282140Y-170120435D01*
G75*
G02*
X156557015Y-169845560I274875J0D01*
G01*
X157134265Y-169845560D01*
G75*
G02*
X157409140Y-170120435I0J-274875D01*
G01*
X157409140Y-171072685D01*
G75*
G02*
X157134265Y-171347560I-274875J0D01*
G01*
X156557015Y-171347560D01*
G75*
G02*
X156282140Y-171072685I0J274875D01*
G01*
G37*
G36*
G01*
X154457140Y-171072685D02*
X154457140Y-170120435D01*
G75*
G02*
X154732015Y-169845560I274875J0D01*
G01*
X155309265Y-169845560D01*
G75*
G02*
X155584140Y-170120435I0J-274875D01*
G01*
X155584140Y-171072685D01*
G75*
G02*
X155309265Y-171347560I-274875J0D01*
G01*
X154732015Y-171347560D01*
G75*
G02*
X154457140Y-171072685I0J274875D01*
G01*
G37*
G36*
G01*
X156539140Y-166643820D02*
X156089140Y-166643820D01*
G75*
G02*
X156038140Y-166592820I0J51000D01*
G01*
X156038140Y-165992820D01*
G75*
G02*
X156089140Y-165941820I51000J0D01*
G01*
X156539140Y-165941820D01*
G75*
G02*
X156590140Y-165992820I0J-51000D01*
G01*
X156590140Y-166592820D01*
G75*
G02*
X156539140Y-166643820I-51000J0D01*
G01*
G37*
G36*
G01*
X156539140Y-168743820D02*
X156089140Y-168743820D01*
G75*
G02*
X156038140Y-168692820I0J51000D01*
G01*
X156038140Y-168092820D01*
G75*
G02*
X156089140Y-168041820I51000J0D01*
G01*
X156539140Y-168041820D01*
G75*
G02*
X156590140Y-168092820I0J-51000D01*
G01*
X156590140Y-168692820D01*
G75*
G02*
X156539140Y-168743820I-51000J0D01*
G01*
G37*
G36*
G01*
X185098800Y-137242600D02*
X185098800Y-138042600D01*
G75*
G02*
X185047800Y-138093600I-51000J0D01*
G01*
X184147800Y-138093600D01*
G75*
G02*
X184096800Y-138042600I0J51000D01*
G01*
X184096800Y-137242600D01*
G75*
G02*
X184147800Y-137191600I51000J0D01*
G01*
X185047800Y-137191600D01*
G75*
G02*
X185098800Y-137242600I0J-51000D01*
G01*
G37*
G36*
G01*
X187098800Y-138192600D02*
X187098800Y-138992600D01*
G75*
G02*
X187047800Y-139043600I-51000J0D01*
G01*
X186147800Y-139043600D01*
G75*
G02*
X186096800Y-138992600I0J51000D01*
G01*
X186096800Y-138192600D01*
G75*
G02*
X186147800Y-138141600I51000J0D01*
G01*
X187047800Y-138141600D01*
G75*
G02*
X187098800Y-138192600I0J-51000D01*
G01*
G37*
G36*
G01*
X187098800Y-136292600D02*
X187098800Y-137092600D01*
G75*
G02*
X187047800Y-137143600I-51000J0D01*
G01*
X186147800Y-137143600D01*
G75*
G02*
X186096800Y-137092600I0J51000D01*
G01*
X186096800Y-136292600D01*
G75*
G02*
X186147800Y-136241600I51000J0D01*
G01*
X187047800Y-136241600D01*
G75*
G02*
X187098800Y-136292600I0J-51000D01*
G01*
G37*
G36*
G01*
X160371020Y-191476200D02*
X160371020Y-189676200D01*
G75*
G02*
X160422020Y-189625200I51000J0D01*
G01*
X162922020Y-189625200D01*
G75*
G02*
X162973020Y-189676200I0J-51000D01*
G01*
X162973020Y-191476200D01*
G75*
G02*
X162922020Y-191527200I-51000J0D01*
G01*
X160422020Y-191527200D01*
G75*
G02*
X160371020Y-191476200I0J51000D01*
G01*
G37*
G36*
G01*
X156371020Y-191476200D02*
X156371020Y-189676200D01*
G75*
G02*
X156422020Y-189625200I51000J0D01*
G01*
X158922020Y-189625200D01*
G75*
G02*
X158973020Y-189676200I0J-51000D01*
G01*
X158973020Y-191476200D01*
G75*
G02*
X158922020Y-191527200I-51000J0D01*
G01*
X156422020Y-191527200D01*
G75*
G02*
X156371020Y-191476200I0J51000D01*
G01*
G37*
D13*
X164589460Y-185689240D03*
X170177460Y-192991740D03*
X165541960Y-198833740D03*
X174558960Y-197055740D03*
X179829460Y-187848240D03*
X187893960Y-194007740D03*
X180337460Y-194515740D03*
X176717960Y-204040740D03*
X172590460Y-186832240D03*
X178940460Y-179402740D03*
G36*
G01*
X153200140Y-175361250D02*
X153200140Y-176174750D01*
G75*
G02*
X152955890Y-176419000I-244250J0D01*
G01*
X152467390Y-176419000D01*
G75*
G02*
X152223140Y-176174750I0J244250D01*
G01*
X152223140Y-175361250D01*
G75*
G02*
X152467390Y-175117000I244250J0D01*
G01*
X152955890Y-175117000D01*
G75*
G02*
X153200140Y-175361250I0J-244250D01*
G01*
G37*
G36*
G01*
X155325140Y-175361250D02*
X155325140Y-176174750D01*
G75*
G02*
X155080890Y-176419000I-244250J0D01*
G01*
X154592390Y-176419000D01*
G75*
G02*
X154348140Y-176174750I0J244250D01*
G01*
X154348140Y-175361250D01*
G75*
G02*
X154592390Y-175117000I244250J0D01*
G01*
X155080890Y-175117000D01*
G75*
G02*
X155325140Y-175361250I0J-244250D01*
G01*
G37*
G36*
G01*
X153494780Y-182833930D02*
X153494780Y-183647430D01*
G75*
G02*
X153250530Y-183891680I-244250J0D01*
G01*
X152762030Y-183891680D01*
G75*
G02*
X152517780Y-183647430I0J244250D01*
G01*
X152517780Y-182833930D01*
G75*
G02*
X152762030Y-182589680I244250J0D01*
G01*
X153250530Y-182589680D01*
G75*
G02*
X153494780Y-182833930I0J-244250D01*
G01*
G37*
G36*
G01*
X155619780Y-182833930D02*
X155619780Y-183647430D01*
G75*
G02*
X155375530Y-183891680I-244250J0D01*
G01*
X154887030Y-183891680D01*
G75*
G02*
X154642780Y-183647430I0J244250D01*
G01*
X154642780Y-182833930D01*
G75*
G02*
X154887030Y-182589680I244250J0D01*
G01*
X155375530Y-182589680D01*
G75*
G02*
X155619780Y-182833930I0J-244250D01*
G01*
G37*
G36*
G01*
X158927300Y-173912960D02*
X158927300Y-175712960D01*
G75*
G02*
X158876300Y-175763960I-51000J0D01*
G01*
X156376300Y-175763960D01*
G75*
G02*
X156325300Y-175712960I0J51000D01*
G01*
X156325300Y-173912960D01*
G75*
G02*
X156376300Y-173861960I51000J0D01*
G01*
X158876300Y-173861960D01*
G75*
G02*
X158927300Y-173912960I0J-51000D01*
G01*
G37*
G36*
G01*
X162927300Y-173912960D02*
X162927300Y-175712960D01*
G75*
G02*
X162876300Y-175763960I-51000J0D01*
G01*
X160376300Y-175763960D01*
G75*
G02*
X160325300Y-175712960I0J51000D01*
G01*
X160325300Y-173912960D01*
G75*
G02*
X160376300Y-173861960I51000J0D01*
G01*
X162876300Y-173861960D01*
G75*
G02*
X162927300Y-173912960I0J-51000D01*
G01*
G37*
G36*
G01*
X160386260Y-183185640D02*
X160386260Y-181385640D01*
G75*
G02*
X160437260Y-181334640I51000J0D01*
G01*
X162937260Y-181334640D01*
G75*
G02*
X162988260Y-181385640I0J-51000D01*
G01*
X162988260Y-183185640D01*
G75*
G02*
X162937260Y-183236640I-51000J0D01*
G01*
X160437260Y-183236640D01*
G75*
G02*
X160386260Y-183185640I0J51000D01*
G01*
G37*
G36*
G01*
X156386260Y-183185640D02*
X156386260Y-181385640D01*
G75*
G02*
X156437260Y-181334640I51000J0D01*
G01*
X158937260Y-181334640D01*
G75*
G02*
X158988260Y-181385640I0J-51000D01*
G01*
X158988260Y-183185640D01*
G75*
G02*
X158937260Y-183236640I-51000J0D01*
G01*
X156437260Y-183236640D01*
G75*
G02*
X156386260Y-183185640I0J51000D01*
G01*
G37*
G36*
G01*
X150215480Y-178935600D02*
X151216480Y-178935600D01*
G75*
G02*
X151491980Y-179211100I0J-275500D01*
G01*
X151491980Y-179762100D01*
G75*
G02*
X151216480Y-180037600I-275500J0D01*
G01*
X150215480Y-180037600D01*
G75*
G02*
X149939980Y-179762100I0J275500D01*
G01*
X149939980Y-179211100D01*
G75*
G02*
X150215480Y-178935600I275500J0D01*
G01*
G37*
G36*
G01*
X150215480Y-177035600D02*
X151216480Y-177035600D01*
G75*
G02*
X151491980Y-177311100I0J-275500D01*
G01*
X151491980Y-177862100D01*
G75*
G02*
X151216480Y-178137600I-275500J0D01*
G01*
X150215480Y-178137600D01*
G75*
G02*
X149939980Y-177862100I0J275500D01*
G01*
X149939980Y-177311100D01*
G75*
G02*
X150215480Y-177035600I275500J0D01*
G01*
G37*
G36*
G01*
X152362415Y-186359400D02*
X153363415Y-186359400D01*
G75*
G02*
X153638915Y-186634900I0J-275500D01*
G01*
X153638915Y-187185900D01*
G75*
G02*
X153363415Y-187461400I-275500J0D01*
G01*
X152362415Y-187461400D01*
G75*
G02*
X152086915Y-187185900I0J275500D01*
G01*
X152086915Y-186634900D01*
G75*
G02*
X152362415Y-186359400I275500J0D01*
G01*
G37*
G36*
G01*
X152362415Y-184459400D02*
X153363415Y-184459400D01*
G75*
G02*
X153638915Y-184734900I0J-275500D01*
G01*
X153638915Y-185285900D01*
G75*
G02*
X153363415Y-185561400I-275500J0D01*
G01*
X152362415Y-185561400D01*
G75*
G02*
X152086915Y-185285900I0J275500D01*
G01*
X152086915Y-184734900D01*
G75*
G02*
X152362415Y-184459400I275500J0D01*
G01*
G37*
G36*
G01*
X152353200Y-178924000D02*
X153354200Y-178924000D01*
G75*
G02*
X153629700Y-179199500I0J-275500D01*
G01*
X153629700Y-179750500D01*
G75*
G02*
X153354200Y-180026000I-275500J0D01*
G01*
X152353200Y-180026000D01*
G75*
G02*
X152077700Y-179750500I0J275500D01*
G01*
X152077700Y-179199500D01*
G75*
G02*
X152353200Y-178924000I275500J0D01*
G01*
G37*
G36*
G01*
X152353200Y-177024000D02*
X153354200Y-177024000D01*
G75*
G02*
X153629700Y-177299500I0J-275500D01*
G01*
X153629700Y-177850500D01*
G75*
G02*
X153354200Y-178126000I-275500J0D01*
G01*
X152353200Y-178126000D01*
G75*
G02*
X152077700Y-177850500I0J275500D01*
G01*
X152077700Y-177299500D01*
G75*
G02*
X152353200Y-177024000I275500J0D01*
G01*
G37*
G36*
G01*
X150220560Y-186321920D02*
X151221560Y-186321920D01*
G75*
G02*
X151497060Y-186597420I0J-275500D01*
G01*
X151497060Y-187148420D01*
G75*
G02*
X151221560Y-187423920I-275500J0D01*
G01*
X150220560Y-187423920D01*
G75*
G02*
X149945060Y-187148420I0J275500D01*
G01*
X149945060Y-186597420D01*
G75*
G02*
X150220560Y-186321920I275500J0D01*
G01*
G37*
G36*
G01*
X150220560Y-184421920D02*
X151221560Y-184421920D01*
G75*
G02*
X151497060Y-184697420I0J-275500D01*
G01*
X151497060Y-185248420D01*
G75*
G02*
X151221560Y-185523920I-275500J0D01*
G01*
X150220560Y-185523920D01*
G75*
G02*
X149945060Y-185248420I0J275500D01*
G01*
X149945060Y-184697420D01*
G75*
G02*
X150220560Y-184421920I275500J0D01*
G01*
G37*
G36*
G01*
X154513160Y-178910200D02*
X155514160Y-178910200D01*
G75*
G02*
X155789660Y-179185700I0J-275500D01*
G01*
X155789660Y-179736700D01*
G75*
G02*
X155514160Y-180012200I-275500J0D01*
G01*
X154513160Y-180012200D01*
G75*
G02*
X154237660Y-179736700I0J275500D01*
G01*
X154237660Y-179185700D01*
G75*
G02*
X154513160Y-178910200I275500J0D01*
G01*
G37*
G36*
G01*
X154513160Y-177010200D02*
X155514160Y-177010200D01*
G75*
G02*
X155789660Y-177285700I0J-275500D01*
G01*
X155789660Y-177836700D01*
G75*
G02*
X155514160Y-178112200I-275500J0D01*
G01*
X154513160Y-178112200D01*
G75*
G02*
X154237660Y-177836700I0J275500D01*
G01*
X154237660Y-177285700D01*
G75*
G02*
X154513160Y-177010200I275500J0D01*
G01*
G37*
G36*
G01*
X154504270Y-186357480D02*
X155505270Y-186357480D01*
G75*
G02*
X155780770Y-186632980I0J-275500D01*
G01*
X155780770Y-187183980D01*
G75*
G02*
X155505270Y-187459480I-275500J0D01*
G01*
X154504270Y-187459480D01*
G75*
G02*
X154228770Y-187183980I0J275500D01*
G01*
X154228770Y-186632980D01*
G75*
G02*
X154504270Y-186357480I275500J0D01*
G01*
G37*
G36*
G01*
X154504270Y-184457480D02*
X155505270Y-184457480D01*
G75*
G02*
X155780770Y-184732980I0J-275500D01*
G01*
X155780770Y-185283980D01*
G75*
G02*
X155505270Y-185559480I-275500J0D01*
G01*
X154504270Y-185559480D01*
G75*
G02*
X154228770Y-185283980I0J275500D01*
G01*
X154228770Y-184732980D01*
G75*
G02*
X154504270Y-184457480I275500J0D01*
G01*
G37*
G36*
G01*
X158793060Y-178922900D02*
X159794060Y-178922900D01*
G75*
G02*
X160069560Y-179198400I0J-275500D01*
G01*
X160069560Y-179749400D01*
G75*
G02*
X159794060Y-180024900I-275500J0D01*
G01*
X158793060Y-180024900D01*
G75*
G02*
X158517560Y-179749400I0J275500D01*
G01*
X158517560Y-179198400D01*
G75*
G02*
X158793060Y-178922900I275500J0D01*
G01*
G37*
G36*
G01*
X158793060Y-177022900D02*
X159794060Y-177022900D01*
G75*
G02*
X160069560Y-177298400I0J-275500D01*
G01*
X160069560Y-177849400D01*
G75*
G02*
X159794060Y-178124900I-275500J0D01*
G01*
X158793060Y-178124900D01*
G75*
G02*
X158517560Y-177849400I0J275500D01*
G01*
X158517560Y-177298400D01*
G75*
G02*
X158793060Y-177022900I275500J0D01*
G01*
G37*
G36*
G01*
X158787980Y-186357480D02*
X159788980Y-186357480D01*
G75*
G02*
X160064480Y-186632980I0J-275500D01*
G01*
X160064480Y-187183980D01*
G75*
G02*
X159788980Y-187459480I-275500J0D01*
G01*
X158787980Y-187459480D01*
G75*
G02*
X158512480Y-187183980I0J275500D01*
G01*
X158512480Y-186632980D01*
G75*
G02*
X158787980Y-186357480I275500J0D01*
G01*
G37*
G36*
G01*
X158787980Y-184457480D02*
X159788980Y-184457480D01*
G75*
G02*
X160064480Y-184732980I0J-275500D01*
G01*
X160064480Y-185283980D01*
G75*
G02*
X159788980Y-185559480I-275500J0D01*
G01*
X158787980Y-185559480D01*
G75*
G02*
X158512480Y-185283980I0J275500D01*
G01*
X158512480Y-184732980D01*
G75*
G02*
X158787980Y-184457480I275500J0D01*
G01*
G37*
G36*
G01*
X156634060Y-178922900D02*
X157635060Y-178922900D01*
G75*
G02*
X157910560Y-179198400I0J-275500D01*
G01*
X157910560Y-179749400D01*
G75*
G02*
X157635060Y-180024900I-275500J0D01*
G01*
X156634060Y-180024900D01*
G75*
G02*
X156358560Y-179749400I0J275500D01*
G01*
X156358560Y-179198400D01*
G75*
G02*
X156634060Y-178922900I275500J0D01*
G01*
G37*
G36*
G01*
X156634060Y-177022900D02*
X157635060Y-177022900D01*
G75*
G02*
X157910560Y-177298400I0J-275500D01*
G01*
X157910560Y-177849400D01*
G75*
G02*
X157635060Y-178124900I-275500J0D01*
G01*
X156634060Y-178124900D01*
G75*
G02*
X156358560Y-177849400I0J275500D01*
G01*
X156358560Y-177298400D01*
G75*
G02*
X156634060Y-177022900I275500J0D01*
G01*
G37*
G36*
G01*
X156646125Y-186357480D02*
X157647125Y-186357480D01*
G75*
G02*
X157922625Y-186632980I0J-275500D01*
G01*
X157922625Y-187183980D01*
G75*
G02*
X157647125Y-187459480I-275500J0D01*
G01*
X156646125Y-187459480D01*
G75*
G02*
X156370625Y-187183980I0J275500D01*
G01*
X156370625Y-186632980D01*
G75*
G02*
X156646125Y-186357480I275500J0D01*
G01*
G37*
G36*
G01*
X156646125Y-184457480D02*
X157647125Y-184457480D01*
G75*
G02*
X157922625Y-184732980I0J-275500D01*
G01*
X157922625Y-185283980D01*
G75*
G02*
X157647125Y-185559480I-275500J0D01*
G01*
X156646125Y-185559480D01*
G75*
G02*
X156370625Y-185283980I0J275500D01*
G01*
X156370625Y-184732980D01*
G75*
G02*
X156646125Y-184457480I275500J0D01*
G01*
G37*
G36*
G01*
X108421372Y-166544100D02*
X110679028Y-166544100D01*
G75*
G02*
X110951200Y-166816272I0J-272172D01*
G01*
X110951200Y-167523928D01*
G75*
G02*
X110679028Y-167796100I-272172J0D01*
G01*
X108421372Y-167796100D01*
G75*
G02*
X108149200Y-167523928I0J272172D01*
G01*
X108149200Y-166816272D01*
G75*
G02*
X108421372Y-166544100I272172J0D01*
G01*
G37*
G36*
G01*
X108421372Y-163594100D02*
X110679028Y-163594100D01*
G75*
G02*
X110951200Y-163866272I0J-272172D01*
G01*
X110951200Y-164573928D01*
G75*
G02*
X110679028Y-164846100I-272172J0D01*
G01*
X108421372Y-164846100D01*
G75*
G02*
X108149200Y-164573928I0J272172D01*
G01*
X108149200Y-163866272D01*
G75*
G02*
X108421372Y-163594100I272172J0D01*
G01*
G37*
G36*
G01*
X132119572Y-166500180D02*
X134377228Y-166500180D01*
G75*
G02*
X134649400Y-166772352I0J-272172D01*
G01*
X134649400Y-167480008D01*
G75*
G02*
X134377228Y-167752180I-272172J0D01*
G01*
X132119572Y-167752180D01*
G75*
G02*
X131847400Y-167480008I0J272172D01*
G01*
X131847400Y-166772352D01*
G75*
G02*
X132119572Y-166500180I272172J0D01*
G01*
G37*
G36*
G01*
X132119572Y-163550180D02*
X134377228Y-163550180D01*
G75*
G02*
X134649400Y-163822352I0J-272172D01*
G01*
X134649400Y-164530008D01*
G75*
G02*
X134377228Y-164802180I-272172J0D01*
G01*
X132119572Y-164802180D01*
G75*
G02*
X131847400Y-164530008I0J272172D01*
G01*
X131847400Y-163822352D01*
G75*
G02*
X132119572Y-163550180I272172J0D01*
G01*
G37*
G36*
G01*
X107696780Y-205482340D02*
X107095780Y-205482340D01*
G75*
G02*
X106870280Y-205256840I0J225500D01*
G01*
X106870280Y-204805840D01*
G75*
G02*
X107095780Y-204580340I225500J0D01*
G01*
X107696780Y-204580340D01*
G75*
G02*
X107922280Y-204805840I0J-225500D01*
G01*
X107922280Y-205256840D01*
G75*
G02*
X107696780Y-205482340I-225500J0D01*
G01*
G37*
G36*
G01*
X107696780Y-207132340D02*
X107095780Y-207132340D01*
G75*
G02*
X106870280Y-206906840I0J225500D01*
G01*
X106870280Y-206455840D01*
G75*
G02*
X107095780Y-206230340I225500J0D01*
G01*
X107696780Y-206230340D01*
G75*
G02*
X107922280Y-206455840I0J-225500D01*
G01*
X107922280Y-206906840D01*
G75*
G02*
X107696780Y-207132340I-225500J0D01*
G01*
G37*
G36*
G01*
X105520980Y-206230840D02*
X106121980Y-206230840D01*
G75*
G02*
X106347480Y-206456340I0J-225500D01*
G01*
X106347480Y-206907340D01*
G75*
G02*
X106121980Y-207132840I-225500J0D01*
G01*
X105520980Y-207132840D01*
G75*
G02*
X105295480Y-206907340I0J225500D01*
G01*
X105295480Y-206456340D01*
G75*
G02*
X105520980Y-206230840I225500J0D01*
G01*
G37*
G36*
G01*
X105520980Y-204580840D02*
X106121980Y-204580840D01*
G75*
G02*
X106347480Y-204806340I0J-225500D01*
G01*
X106347480Y-205257340D01*
G75*
G02*
X106121980Y-205482840I-225500J0D01*
G01*
X105520980Y-205482840D01*
G75*
G02*
X105295480Y-205257340I0J225500D01*
G01*
X105295480Y-204806340D01*
G75*
G02*
X105520980Y-204580840I225500J0D01*
G01*
G37*
G36*
G01*
X163543600Y-212720700D02*
X163543600Y-212119700D01*
G75*
G02*
X163769100Y-211894200I225500J0D01*
G01*
X164220100Y-211894200D01*
G75*
G02*
X164445600Y-212119700I0J-225500D01*
G01*
X164445600Y-212720700D01*
G75*
G02*
X164220100Y-212946200I-225500J0D01*
G01*
X163769100Y-212946200D01*
G75*
G02*
X163543600Y-212720700I0J225500D01*
G01*
G37*
G36*
G01*
X161893600Y-212720700D02*
X161893600Y-212119700D01*
G75*
G02*
X162119100Y-211894200I225500J0D01*
G01*
X162570100Y-211894200D01*
G75*
G02*
X162795600Y-212119700I0J-225500D01*
G01*
X162795600Y-212720700D01*
G75*
G02*
X162570100Y-212946200I-225500J0D01*
G01*
X162119100Y-212946200D01*
G75*
G02*
X161893600Y-212720700I0J225500D01*
G01*
G37*
G36*
G01*
X163556300Y-215908400D02*
X163556300Y-215307400D01*
G75*
G02*
X163781800Y-215081900I225500J0D01*
G01*
X164232800Y-215081900D01*
G75*
G02*
X164458300Y-215307400I0J-225500D01*
G01*
X164458300Y-215908400D01*
G75*
G02*
X164232800Y-216133900I-225500J0D01*
G01*
X163781800Y-216133900D01*
G75*
G02*
X163556300Y-215908400I0J225500D01*
G01*
G37*
G36*
G01*
X161906300Y-215908400D02*
X161906300Y-215307400D01*
G75*
G02*
X162131800Y-215081900I225500J0D01*
G01*
X162582800Y-215081900D01*
G75*
G02*
X162808300Y-215307400I0J-225500D01*
G01*
X162808300Y-215908400D01*
G75*
G02*
X162582800Y-216133900I-225500J0D01*
G01*
X162131800Y-216133900D01*
G75*
G02*
X161906300Y-215908400I0J225500D01*
G01*
G37*
G36*
G01*
X163543600Y-214308200D02*
X163543600Y-213707200D01*
G75*
G02*
X163769100Y-213481700I225500J0D01*
G01*
X164220100Y-213481700D01*
G75*
G02*
X164445600Y-213707200I0J-225500D01*
G01*
X164445600Y-214308200D01*
G75*
G02*
X164220100Y-214533700I-225500J0D01*
G01*
X163769100Y-214533700D01*
G75*
G02*
X163543600Y-214308200I0J225500D01*
G01*
G37*
G36*
G01*
X161893600Y-214308200D02*
X161893600Y-213707200D01*
G75*
G02*
X162119100Y-213481700I225500J0D01*
G01*
X162570100Y-213481700D01*
G75*
G02*
X162795600Y-213707200I0J-225500D01*
G01*
X162795600Y-214308200D01*
G75*
G02*
X162570100Y-214533700I-225500J0D01*
G01*
X162119100Y-214533700D01*
G75*
G02*
X161893600Y-214308200I0J225500D01*
G01*
G37*
D14*
X187667900Y-170345100D03*
X185127900Y-170345100D03*
X187667900Y-167805100D03*
X185127900Y-167805100D03*
X187667900Y-165265100D03*
X185127900Y-165265100D03*
D15*
X153725880Y-107115280D03*
X153725880Y-102035280D03*
X158805880Y-102035280D03*
X158805880Y-107115280D03*
X156265880Y-104575280D03*
D16*
X114570000Y-106500000D03*
X118380000Y-106500000D03*
X122190000Y-106500000D03*
G36*
G01*
X126951000Y-104913166D02*
X126951000Y-108086834D01*
G75*
G02*
X126686834Y-108351000I-264166J0D01*
G01*
X125313166Y-108351000D01*
G75*
G02*
X125049000Y-108086834I0J264166D01*
G01*
X125049000Y-104913166D01*
G75*
G02*
X125313166Y-104649000I264166J0D01*
G01*
X126686834Y-104649000D01*
G75*
G02*
X126951000Y-104913166I0J-264166D01*
G01*
G37*
G36*
G01*
X164722560Y-143211425D02*
X164722560Y-142259175D01*
G75*
G02*
X164997435Y-141984300I274875J0D01*
G01*
X165574685Y-141984300D01*
G75*
G02*
X165849560Y-142259175I0J-274875D01*
G01*
X165849560Y-143211425D01*
G75*
G02*
X165574685Y-143486300I-274875J0D01*
G01*
X164997435Y-143486300D01*
G75*
G02*
X164722560Y-143211425I0J274875D01*
G01*
G37*
G36*
G01*
X162897560Y-143211425D02*
X162897560Y-142259175D01*
G75*
G02*
X163172435Y-141984300I274875J0D01*
G01*
X163749685Y-141984300D01*
G75*
G02*
X164024560Y-142259175I0J-274875D01*
G01*
X164024560Y-143211425D01*
G75*
G02*
X163749685Y-143486300I-274875J0D01*
G01*
X163172435Y-143486300D01*
G75*
G02*
X162897560Y-143211425I0J274875D01*
G01*
G37*
G36*
G01*
X131677900Y-205011640D02*
X132278900Y-205011640D01*
G75*
G02*
X132504400Y-205237140I0J-225500D01*
G01*
X132504400Y-205688140D01*
G75*
G02*
X132278900Y-205913640I-225500J0D01*
G01*
X131677900Y-205913640D01*
G75*
G02*
X131452400Y-205688140I0J225500D01*
G01*
X131452400Y-205237140D01*
G75*
G02*
X131677900Y-205011640I225500J0D01*
G01*
G37*
G36*
G01*
X131677900Y-203361640D02*
X132278900Y-203361640D01*
G75*
G02*
X132504400Y-203587140I0J-225500D01*
G01*
X132504400Y-204038140D01*
G75*
G02*
X132278900Y-204263640I-225500J0D01*
G01*
X131677900Y-204263640D01*
G75*
G02*
X131452400Y-204038140I0J225500D01*
G01*
X131452400Y-203587140D01*
G75*
G02*
X131677900Y-203361640I225500J0D01*
G01*
G37*
G36*
G01*
X145801860Y-207897640D02*
X145200860Y-207897640D01*
G75*
G02*
X144975360Y-207672140I0J225500D01*
G01*
X144975360Y-207221140D01*
G75*
G02*
X145200860Y-206995640I225500J0D01*
G01*
X145801860Y-206995640D01*
G75*
G02*
X146027360Y-207221140I0J-225500D01*
G01*
X146027360Y-207672140D01*
G75*
G02*
X145801860Y-207897640I-225500J0D01*
G01*
G37*
G36*
G01*
X145801860Y-206247640D02*
X145200860Y-206247640D01*
G75*
G02*
X144975360Y-206022140I0J225500D01*
G01*
X144975360Y-205571140D01*
G75*
G02*
X145200860Y-205345640I225500J0D01*
G01*
X145801860Y-205345640D01*
G75*
G02*
X146027360Y-205571140I0J-225500D01*
G01*
X146027360Y-206022140D01*
G75*
G02*
X145801860Y-206247640I-225500J0D01*
G01*
G37*
G36*
G01*
X144232140Y-207882400D02*
X143631140Y-207882400D01*
G75*
G02*
X143405640Y-207656900I0J225500D01*
G01*
X143405640Y-207205900D01*
G75*
G02*
X143631140Y-206980400I225500J0D01*
G01*
X144232140Y-206980400D01*
G75*
G02*
X144457640Y-207205900I0J-225500D01*
G01*
X144457640Y-207656900D01*
G75*
G02*
X144232140Y-207882400I-225500J0D01*
G01*
G37*
G36*
G01*
X144232140Y-206232400D02*
X143631140Y-206232400D01*
G75*
G02*
X143405640Y-206006900I0J225500D01*
G01*
X143405640Y-205555900D01*
G75*
G02*
X143631140Y-205330400I225500J0D01*
G01*
X144232140Y-205330400D01*
G75*
G02*
X144457640Y-205555900I0J-225500D01*
G01*
X144457640Y-206006900D01*
G75*
G02*
X144232140Y-206232400I-225500J0D01*
G01*
G37*
G36*
G01*
X147783060Y-207892560D02*
X147182060Y-207892560D01*
G75*
G02*
X146956560Y-207667060I0J225500D01*
G01*
X146956560Y-207216060D01*
G75*
G02*
X147182060Y-206990560I225500J0D01*
G01*
X147783060Y-206990560D01*
G75*
G02*
X148008560Y-207216060I0J-225500D01*
G01*
X148008560Y-207667060D01*
G75*
G02*
X147783060Y-207892560I-225500J0D01*
G01*
G37*
G36*
G01*
X147783060Y-206242560D02*
X147182060Y-206242560D01*
G75*
G02*
X146956560Y-206017060I0J225500D01*
G01*
X146956560Y-205566060D01*
G75*
G02*
X147182060Y-205340560I225500J0D01*
G01*
X147783060Y-205340560D01*
G75*
G02*
X148008560Y-205566060I0J-225500D01*
G01*
X148008560Y-206017060D01*
G75*
G02*
X147783060Y-206242560I-225500J0D01*
G01*
G37*
G36*
G01*
X179773800Y-126596260D02*
X179773800Y-125595260D01*
G75*
G02*
X180049300Y-125319760I275500J0D01*
G01*
X180600300Y-125319760D01*
G75*
G02*
X180875800Y-125595260I0J-275500D01*
G01*
X180875800Y-126596260D01*
G75*
G02*
X180600300Y-126871760I-275500J0D01*
G01*
X180049300Y-126871760D01*
G75*
G02*
X179773800Y-126596260I0J275500D01*
G01*
G37*
G36*
G01*
X177873800Y-126596260D02*
X177873800Y-125595260D01*
G75*
G02*
X178149300Y-125319760I275500J0D01*
G01*
X178700300Y-125319760D01*
G75*
G02*
X178975800Y-125595260I0J-275500D01*
G01*
X178975800Y-126596260D01*
G75*
G02*
X178700300Y-126871760I-275500J0D01*
G01*
X178149300Y-126871760D01*
G75*
G02*
X177873800Y-126596260I0J275500D01*
G01*
G37*
G36*
G01*
X171106452Y-152918800D02*
X172464108Y-152918800D01*
G75*
G02*
X172736280Y-153190972I0J-272172D01*
G01*
X172736280Y-153898628D01*
G75*
G02*
X172464108Y-154170800I-272172J0D01*
G01*
X171106452Y-154170800D01*
G75*
G02*
X170834280Y-153898628I0J272172D01*
G01*
X170834280Y-153190972D01*
G75*
G02*
X171106452Y-152918800I272172J0D01*
G01*
G37*
G36*
G01*
X171106452Y-149968800D02*
X172464108Y-149968800D01*
G75*
G02*
X172736280Y-150240972I0J-272172D01*
G01*
X172736280Y-150948628D01*
G75*
G02*
X172464108Y-151220800I-272172J0D01*
G01*
X171106452Y-151220800D01*
G75*
G02*
X170834280Y-150948628I0J272172D01*
G01*
X170834280Y-150240972D01*
G75*
G02*
X171106452Y-149968800I272172J0D01*
G01*
G37*
G36*
G01*
X174629300Y-164971080D02*
X175230300Y-164971080D01*
G75*
G02*
X175455800Y-165196580I0J-225500D01*
G01*
X175455800Y-165647580D01*
G75*
G02*
X175230300Y-165873080I-225500J0D01*
G01*
X174629300Y-165873080D01*
G75*
G02*
X174403800Y-165647580I0J225500D01*
G01*
X174403800Y-165196580D01*
G75*
G02*
X174629300Y-164971080I225500J0D01*
G01*
G37*
G36*
G01*
X174629300Y-163321080D02*
X175230300Y-163321080D01*
G75*
G02*
X175455800Y-163546580I0J-225500D01*
G01*
X175455800Y-163997580D01*
G75*
G02*
X175230300Y-164223080I-225500J0D01*
G01*
X174629300Y-164223080D01*
G75*
G02*
X174403800Y-163997580I0J225500D01*
G01*
X174403800Y-163546580D01*
G75*
G02*
X174629300Y-163321080I225500J0D01*
G01*
G37*
G36*
G01*
X176805100Y-164223080D02*
X176204100Y-164223080D01*
G75*
G02*
X175978600Y-163997580I0J225500D01*
G01*
X175978600Y-163546580D01*
G75*
G02*
X176204100Y-163321080I225500J0D01*
G01*
X176805100Y-163321080D01*
G75*
G02*
X177030600Y-163546580I0J-225500D01*
G01*
X177030600Y-163997580D01*
G75*
G02*
X176805100Y-164223080I-225500J0D01*
G01*
G37*
G36*
G01*
X176805100Y-165873080D02*
X176204100Y-165873080D01*
G75*
G02*
X175978600Y-165647580I0J225500D01*
G01*
X175978600Y-165196580D01*
G75*
G02*
X176204100Y-164971080I225500J0D01*
G01*
X176805100Y-164971080D01*
G75*
G02*
X177030600Y-165196580I0J-225500D01*
G01*
X177030600Y-165647580D01*
G75*
G02*
X176805100Y-165873080I-225500J0D01*
G01*
G37*
G36*
G01*
X173655500Y-167335080D02*
X173054500Y-167335080D01*
G75*
G02*
X172829000Y-167109580I0J225500D01*
G01*
X172829000Y-166658580D01*
G75*
G02*
X173054500Y-166433080I225500J0D01*
G01*
X173655500Y-166433080D01*
G75*
G02*
X173881000Y-166658580I0J-225500D01*
G01*
X173881000Y-167109580D01*
G75*
G02*
X173655500Y-167335080I-225500J0D01*
G01*
G37*
G36*
G01*
X173655500Y-168985080D02*
X173054500Y-168985080D01*
G75*
G02*
X172829000Y-168759580I0J225500D01*
G01*
X172829000Y-168308580D01*
G75*
G02*
X173054500Y-168083080I225500J0D01*
G01*
X173655500Y-168083080D01*
G75*
G02*
X173881000Y-168308580I0J-225500D01*
G01*
X173881000Y-168759580D01*
G75*
G02*
X173655500Y-168985080I-225500J0D01*
G01*
G37*
G36*
G01*
X178379900Y-164223080D02*
X177778900Y-164223080D01*
G75*
G02*
X177553400Y-163997580I0J225500D01*
G01*
X177553400Y-163546580D01*
G75*
G02*
X177778900Y-163321080I225500J0D01*
G01*
X178379900Y-163321080D01*
G75*
G02*
X178605400Y-163546580I0J-225500D01*
G01*
X178605400Y-163997580D01*
G75*
G02*
X178379900Y-164223080I-225500J0D01*
G01*
G37*
G36*
G01*
X178379900Y-165873080D02*
X177778900Y-165873080D01*
G75*
G02*
X177553400Y-165647580I0J225500D01*
G01*
X177553400Y-165196580D01*
G75*
G02*
X177778900Y-164971080I225500J0D01*
G01*
X178379900Y-164971080D01*
G75*
G02*
X178605400Y-165196580I0J-225500D01*
G01*
X178605400Y-165647580D01*
G75*
G02*
X178379900Y-165873080I-225500J0D01*
G01*
G37*
G36*
G01*
X186463320Y-152881820D02*
X186463320Y-153482820D01*
G75*
G02*
X186237820Y-153708320I-225500J0D01*
G01*
X185786820Y-153708320D01*
G75*
G02*
X185561320Y-153482820I0J225500D01*
G01*
X185561320Y-152881820D01*
G75*
G02*
X185786820Y-152656320I225500J0D01*
G01*
X186237820Y-152656320D01*
G75*
G02*
X186463320Y-152881820I0J-225500D01*
G01*
G37*
G36*
G01*
X188113320Y-152881820D02*
X188113320Y-153482820D01*
G75*
G02*
X187887820Y-153708320I-225500J0D01*
G01*
X187436820Y-153708320D01*
G75*
G02*
X187211320Y-153482820I0J225500D01*
G01*
X187211320Y-152881820D01*
G75*
G02*
X187436820Y-152656320I225500J0D01*
G01*
X187887820Y-152656320D01*
G75*
G02*
X188113320Y-152881820I0J-225500D01*
G01*
G37*
G36*
G01*
X187199120Y-155057620D02*
X187199120Y-154456620D01*
G75*
G02*
X187424620Y-154231120I225500J0D01*
G01*
X187875620Y-154231120D01*
G75*
G02*
X188101120Y-154456620I0J-225500D01*
G01*
X188101120Y-155057620D01*
G75*
G02*
X187875620Y-155283120I-225500J0D01*
G01*
X187424620Y-155283120D01*
G75*
G02*
X187199120Y-155057620I0J225500D01*
G01*
G37*
G36*
G01*
X185549120Y-155057620D02*
X185549120Y-154456620D01*
G75*
G02*
X185774620Y-154231120I225500J0D01*
G01*
X186225620Y-154231120D01*
G75*
G02*
X186451120Y-154456620I0J-225500D01*
G01*
X186451120Y-155057620D01*
G75*
G02*
X186225620Y-155283120I-225500J0D01*
G01*
X185774620Y-155283120D01*
G75*
G02*
X185549120Y-155057620I0J225500D01*
G01*
G37*
G36*
G01*
X184112520Y-151781020D02*
X184112520Y-151180020D01*
G75*
G02*
X184338020Y-150954520I225500J0D01*
G01*
X184789020Y-150954520D01*
G75*
G02*
X185014520Y-151180020I0J-225500D01*
G01*
X185014520Y-151781020D01*
G75*
G02*
X184789020Y-152006520I-225500J0D01*
G01*
X184338020Y-152006520D01*
G75*
G02*
X184112520Y-151781020I0J225500D01*
G01*
G37*
G36*
G01*
X182462520Y-151781020D02*
X182462520Y-151180020D01*
G75*
G02*
X182688020Y-150954520I225500J0D01*
G01*
X183139020Y-150954520D01*
G75*
G02*
X183364520Y-151180020I0J-225500D01*
G01*
X183364520Y-151781020D01*
G75*
G02*
X183139020Y-152006520I-225500J0D01*
G01*
X182688020Y-152006520D01*
G75*
G02*
X182462520Y-151781020I0J225500D01*
G01*
G37*
G36*
G01*
X187211320Y-156632420D02*
X187211320Y-156031420D01*
G75*
G02*
X187436820Y-155805920I225500J0D01*
G01*
X187887820Y-155805920D01*
G75*
G02*
X188113320Y-156031420I0J-225500D01*
G01*
X188113320Y-156632420D01*
G75*
G02*
X187887820Y-156857920I-225500J0D01*
G01*
X187436820Y-156857920D01*
G75*
G02*
X187211320Y-156632420I0J225500D01*
G01*
G37*
G36*
G01*
X185561320Y-156632420D02*
X185561320Y-156031420D01*
G75*
G02*
X185786820Y-155805920I225500J0D01*
G01*
X186237820Y-155805920D01*
G75*
G02*
X186463320Y-156031420I0J-225500D01*
G01*
X186463320Y-156632420D01*
G75*
G02*
X186237820Y-156857920I-225500J0D01*
G01*
X185786820Y-156857920D01*
G75*
G02*
X185561320Y-156632420I0J225500D01*
G01*
G37*
G36*
G01*
X180150920Y-117331040D02*
X182550920Y-117331040D01*
G75*
G02*
X182601920Y-117382040I0J-51000D01*
G01*
X182601920Y-118882040D01*
G75*
G02*
X182550920Y-118933040I-51000J0D01*
G01*
X180150920Y-118933040D01*
G75*
G02*
X180099920Y-118882040I0J51000D01*
G01*
X180099920Y-117382040D01*
G75*
G02*
X180150920Y-117331040I51000J0D01*
G01*
G37*
G36*
G01*
X180150920Y-111831040D02*
X182550920Y-111831040D01*
G75*
G02*
X182601920Y-111882040I0J-51000D01*
G01*
X182601920Y-113382040D01*
G75*
G02*
X182550920Y-113433040I-51000J0D01*
G01*
X180150920Y-113433040D01*
G75*
G02*
X180099920Y-113382040I0J51000D01*
G01*
X180099920Y-111882040D01*
G75*
G02*
X180150920Y-111831040I51000J0D01*
G01*
G37*
G36*
G01*
X181149000Y-217000000D02*
X181149000Y-214500000D01*
G75*
G02*
X181200000Y-214449000I51000J0D01*
G01*
X183800000Y-214449000D01*
G75*
G02*
X183851000Y-214500000I0J-51000D01*
G01*
X183851000Y-217000000D01*
G75*
G02*
X183800000Y-217051000I-51000J0D01*
G01*
X181200000Y-217051000D01*
G75*
G02*
X181149000Y-217000000I0J51000D01*
G01*
G37*
G36*
G01*
X170149000Y-217000000D02*
X170149000Y-214500000D01*
G75*
G02*
X170200000Y-214449000I51000J0D01*
G01*
X172800000Y-214449000D01*
G75*
G02*
X172851000Y-214500000I0J-51000D01*
G01*
X172851000Y-217000000D01*
G75*
G02*
X172800000Y-217051000I-51000J0D01*
G01*
X170200000Y-217051000D01*
G75*
G02*
X170149000Y-217000000I0J51000D01*
G01*
G37*
D17*
X179500000Y-214500000D03*
X174500000Y-214500000D03*
X177000000Y-217000000D03*
X179500000Y-217000000D03*
X174500000Y-217000000D03*
D18*
X170890000Y-105450000D03*
X165110000Y-105450000D03*
D19*
X163680000Y-101760000D03*
X172320000Y-101760000D03*
D20*
X163680000Y-105930000D03*
X172320000Y-105930000D03*
D21*
X177723800Y-171201080D03*
G36*
G01*
X179799300Y-169177080D02*
X179548300Y-169177080D01*
G75*
G02*
X179422800Y-169051580I0J125500D01*
G01*
X179422800Y-167625580D01*
G75*
G02*
X179548300Y-167500080I125500J0D01*
G01*
X179799300Y-167500080D01*
G75*
G02*
X179924800Y-167625580I0J-125500D01*
G01*
X179924800Y-169051580D01*
G75*
G02*
X179799300Y-169177080I-125500J0D01*
G01*
G37*
G36*
G01*
X179149300Y-169177080D02*
X178898300Y-169177080D01*
G75*
G02*
X178772800Y-169051580I0J125500D01*
G01*
X178772800Y-167625580D01*
G75*
G02*
X178898300Y-167500080I125500J0D01*
G01*
X179149300Y-167500080D01*
G75*
G02*
X179274800Y-167625580I0J-125500D01*
G01*
X179274800Y-169051580D01*
G75*
G02*
X179149300Y-169177080I-125500J0D01*
G01*
G37*
G36*
G01*
X178499300Y-169177080D02*
X178248300Y-169177080D01*
G75*
G02*
X178122800Y-169051580I0J125500D01*
G01*
X178122800Y-167625580D01*
G75*
G02*
X178248300Y-167500080I125500J0D01*
G01*
X178499300Y-167500080D01*
G75*
G02*
X178624800Y-167625580I0J-125500D01*
G01*
X178624800Y-169051580D01*
G75*
G02*
X178499300Y-169177080I-125500J0D01*
G01*
G37*
G36*
G01*
X177849300Y-169177080D02*
X177598300Y-169177080D01*
G75*
G02*
X177472800Y-169051580I0J125500D01*
G01*
X177472800Y-167625580D01*
G75*
G02*
X177598300Y-167500080I125500J0D01*
G01*
X177849300Y-167500080D01*
G75*
G02*
X177974800Y-167625580I0J-125500D01*
G01*
X177974800Y-169051580D01*
G75*
G02*
X177849300Y-169177080I-125500J0D01*
G01*
G37*
G36*
G01*
X177199300Y-169177080D02*
X176948300Y-169177080D01*
G75*
G02*
X176822800Y-169051580I0J125500D01*
G01*
X176822800Y-167625580D01*
G75*
G02*
X176948300Y-167500080I125500J0D01*
G01*
X177199300Y-167500080D01*
G75*
G02*
X177324800Y-167625580I0J-125500D01*
G01*
X177324800Y-169051580D01*
G75*
G02*
X177199300Y-169177080I-125500J0D01*
G01*
G37*
G36*
G01*
X176549300Y-169177080D02*
X176298300Y-169177080D01*
G75*
G02*
X176172800Y-169051580I0J125500D01*
G01*
X176172800Y-167625580D01*
G75*
G02*
X176298300Y-167500080I125500J0D01*
G01*
X176549300Y-167500080D01*
G75*
G02*
X176674800Y-167625580I0J-125500D01*
G01*
X176674800Y-169051580D01*
G75*
G02*
X176549300Y-169177080I-125500J0D01*
G01*
G37*
G36*
G01*
X175899300Y-169177080D02*
X175648300Y-169177080D01*
G75*
G02*
X175522800Y-169051580I0J125500D01*
G01*
X175522800Y-167625580D01*
G75*
G02*
X175648300Y-167500080I125500J0D01*
G01*
X175899300Y-167500080D01*
G75*
G02*
X176024800Y-167625580I0J-125500D01*
G01*
X176024800Y-169051580D01*
G75*
G02*
X175899300Y-169177080I-125500J0D01*
G01*
G37*
G36*
G01*
X175899300Y-174902080D02*
X175648300Y-174902080D01*
G75*
G02*
X175522800Y-174776580I0J125500D01*
G01*
X175522800Y-173350580D01*
G75*
G02*
X175648300Y-173225080I125500J0D01*
G01*
X175899300Y-173225080D01*
G75*
G02*
X176024800Y-173350580I0J-125500D01*
G01*
X176024800Y-174776580D01*
G75*
G02*
X175899300Y-174902080I-125500J0D01*
G01*
G37*
G36*
G01*
X176549300Y-174902080D02*
X176298300Y-174902080D01*
G75*
G02*
X176172800Y-174776580I0J125500D01*
G01*
X176172800Y-173350580D01*
G75*
G02*
X176298300Y-173225080I125500J0D01*
G01*
X176549300Y-173225080D01*
G75*
G02*
X176674800Y-173350580I0J-125500D01*
G01*
X176674800Y-174776580D01*
G75*
G02*
X176549300Y-174902080I-125500J0D01*
G01*
G37*
G36*
G01*
X177199300Y-174902080D02*
X176948300Y-174902080D01*
G75*
G02*
X176822800Y-174776580I0J125500D01*
G01*
X176822800Y-173350580D01*
G75*
G02*
X176948300Y-173225080I125500J0D01*
G01*
X177199300Y-173225080D01*
G75*
G02*
X177324800Y-173350580I0J-125500D01*
G01*
X177324800Y-174776580D01*
G75*
G02*
X177199300Y-174902080I-125500J0D01*
G01*
G37*
G36*
G01*
X177849300Y-174902080D02*
X177598300Y-174902080D01*
G75*
G02*
X177472800Y-174776580I0J125500D01*
G01*
X177472800Y-173350580D01*
G75*
G02*
X177598300Y-173225080I125500J0D01*
G01*
X177849300Y-173225080D01*
G75*
G02*
X177974800Y-173350580I0J-125500D01*
G01*
X177974800Y-174776580D01*
G75*
G02*
X177849300Y-174902080I-125500J0D01*
G01*
G37*
G36*
G01*
X178499300Y-174902080D02*
X178248300Y-174902080D01*
G75*
G02*
X178122800Y-174776580I0J125500D01*
G01*
X178122800Y-173350580D01*
G75*
G02*
X178248300Y-173225080I125500J0D01*
G01*
X178499300Y-173225080D01*
G75*
G02*
X178624800Y-173350580I0J-125500D01*
G01*
X178624800Y-174776580D01*
G75*
G02*
X178499300Y-174902080I-125500J0D01*
G01*
G37*
G36*
G01*
X179149300Y-174902080D02*
X178898300Y-174902080D01*
G75*
G02*
X178772800Y-174776580I0J125500D01*
G01*
X178772800Y-173350580D01*
G75*
G02*
X178898300Y-173225080I125500J0D01*
G01*
X179149300Y-173225080D01*
G75*
G02*
X179274800Y-173350580I0J-125500D01*
G01*
X179274800Y-174776580D01*
G75*
G02*
X179149300Y-174902080I-125500J0D01*
G01*
G37*
G36*
G01*
X179799300Y-174902080D02*
X179548300Y-174902080D01*
G75*
G02*
X179422800Y-174776580I0J125500D01*
G01*
X179422800Y-173350580D01*
G75*
G02*
X179548300Y-173225080I125500J0D01*
G01*
X179799300Y-173225080D01*
G75*
G02*
X179924800Y-173350580I0J-125500D01*
G01*
X179924800Y-174776580D01*
G75*
G02*
X179799300Y-174902080I-125500J0D01*
G01*
G37*
D22*
X145540000Y-108383250D03*
X140460000Y-108383250D03*
X143000000Y-108383250D03*
D23*
X143000000Y-104433250D03*
X138400000Y-110433250D03*
X147600000Y-110433250D03*
G36*
G01*
X166829560Y-112774160D02*
X166829560Y-113274160D01*
G75*
G02*
X166778560Y-113325160I-51000J0D01*
G01*
X165778560Y-113325160D01*
G75*
G02*
X165727560Y-113274160I0J51000D01*
G01*
X165727560Y-112774160D01*
G75*
G02*
X165778560Y-112723160I51000J0D01*
G01*
X166778560Y-112723160D01*
G75*
G02*
X166829560Y-112774160I0J-51000D01*
G01*
G37*
G36*
G01*
X166829560Y-113774160D02*
X166829560Y-114274160D01*
G75*
G02*
X166778560Y-114325160I-51000J0D01*
G01*
X165778560Y-114325160D01*
G75*
G02*
X165727560Y-114274160I0J51000D01*
G01*
X165727560Y-113774160D01*
G75*
G02*
X165778560Y-113723160I51000J0D01*
G01*
X166778560Y-113723160D01*
G75*
G02*
X166829560Y-113774160I0J-51000D01*
G01*
G37*
G36*
G01*
X166829560Y-114774160D02*
X166829560Y-115274160D01*
G75*
G02*
X166778560Y-115325160I-51000J0D01*
G01*
X165778560Y-115325160D01*
G75*
G02*
X165727560Y-115274160I0J51000D01*
G01*
X165727560Y-114774160D01*
G75*
G02*
X165778560Y-114723160I51000J0D01*
G01*
X166778560Y-114723160D01*
G75*
G02*
X166829560Y-114774160I0J-51000D01*
G01*
G37*
G36*
G01*
X166829560Y-115774160D02*
X166829560Y-116274160D01*
G75*
G02*
X166778560Y-116325160I-51000J0D01*
G01*
X165778560Y-116325160D01*
G75*
G02*
X165727560Y-116274160I0J51000D01*
G01*
X165727560Y-115774160D01*
G75*
G02*
X165778560Y-115723160I51000J0D01*
G01*
X166778560Y-115723160D01*
G75*
G02*
X166829560Y-115774160I0J-51000D01*
G01*
G37*
G36*
G01*
X166829560Y-116774160D02*
X166829560Y-117274160D01*
G75*
G02*
X166778560Y-117325160I-51000J0D01*
G01*
X165778560Y-117325160D01*
G75*
G02*
X165727560Y-117274160I0J51000D01*
G01*
X165727560Y-116774160D01*
G75*
G02*
X165778560Y-116723160I51000J0D01*
G01*
X166778560Y-116723160D01*
G75*
G02*
X166829560Y-116774160I0J-51000D01*
G01*
G37*
G36*
G01*
X166829560Y-117774160D02*
X166829560Y-118274160D01*
G75*
G02*
X166778560Y-118325160I-51000J0D01*
G01*
X165778560Y-118325160D01*
G75*
G02*
X165727560Y-118274160I0J51000D01*
G01*
X165727560Y-117774160D01*
G75*
G02*
X165778560Y-117723160I51000J0D01*
G01*
X166778560Y-117723160D01*
G75*
G02*
X166829560Y-117774160I0J-51000D01*
G01*
G37*
G36*
G01*
X166829560Y-118774160D02*
X166829560Y-119274160D01*
G75*
G02*
X166778560Y-119325160I-51000J0D01*
G01*
X165778560Y-119325160D01*
G75*
G02*
X165727560Y-119274160I0J51000D01*
G01*
X165727560Y-118774160D01*
G75*
G02*
X165778560Y-118723160I51000J0D01*
G01*
X166778560Y-118723160D01*
G75*
G02*
X166829560Y-118774160I0J-51000D01*
G01*
G37*
G36*
G01*
X166829560Y-119774160D02*
X166829560Y-120274160D01*
G75*
G02*
X166778560Y-120325160I-51000J0D01*
G01*
X165778560Y-120325160D01*
G75*
G02*
X165727560Y-120274160I0J51000D01*
G01*
X165727560Y-119774160D01*
G75*
G02*
X165778560Y-119723160I51000J0D01*
G01*
X166778560Y-119723160D01*
G75*
G02*
X166829560Y-119774160I0J-51000D01*
G01*
G37*
G36*
G01*
X166829560Y-120774160D02*
X166829560Y-121274160D01*
G75*
G02*
X166778560Y-121325160I-51000J0D01*
G01*
X165778560Y-121325160D01*
G75*
G02*
X165727560Y-121274160I0J51000D01*
G01*
X165727560Y-120774160D01*
G75*
G02*
X165778560Y-120723160I51000J0D01*
G01*
X166778560Y-120723160D01*
G75*
G02*
X166829560Y-120774160I0J-51000D01*
G01*
G37*
G36*
G01*
X166829560Y-121774160D02*
X166829560Y-122274160D01*
G75*
G02*
X166778560Y-122325160I-51000J0D01*
G01*
X165778560Y-122325160D01*
G75*
G02*
X165727560Y-122274160I0J51000D01*
G01*
X165727560Y-121774160D01*
G75*
G02*
X165778560Y-121723160I51000J0D01*
G01*
X166778560Y-121723160D01*
G75*
G02*
X166829560Y-121774160I0J-51000D01*
G01*
G37*
G36*
G01*
X166829560Y-122774160D02*
X166829560Y-123274160D01*
G75*
G02*
X166778560Y-123325160I-51000J0D01*
G01*
X165778560Y-123325160D01*
G75*
G02*
X165727560Y-123274160I0J51000D01*
G01*
X165727560Y-122774160D01*
G75*
G02*
X165778560Y-122723160I51000J0D01*
G01*
X166778560Y-122723160D01*
G75*
G02*
X166829560Y-122774160I0J-51000D01*
G01*
G37*
G36*
G01*
X166829560Y-123774160D02*
X166829560Y-124274160D01*
G75*
G02*
X166778560Y-124325160I-51000J0D01*
G01*
X165778560Y-124325160D01*
G75*
G02*
X165727560Y-124274160I0J51000D01*
G01*
X165727560Y-123774160D01*
G75*
G02*
X165778560Y-123723160I51000J0D01*
G01*
X166778560Y-123723160D01*
G75*
G02*
X166829560Y-123774160I0J-51000D01*
G01*
G37*
G36*
G01*
X166829560Y-124774160D02*
X166829560Y-125274160D01*
G75*
G02*
X166778560Y-125325160I-51000J0D01*
G01*
X165778560Y-125325160D01*
G75*
G02*
X165727560Y-125274160I0J51000D01*
G01*
X165727560Y-124774160D01*
G75*
G02*
X165778560Y-124723160I51000J0D01*
G01*
X166778560Y-124723160D01*
G75*
G02*
X166829560Y-124774160I0J-51000D01*
G01*
G37*
G36*
G01*
X166829560Y-125774160D02*
X166829560Y-126274160D01*
G75*
G02*
X166778560Y-126325160I-51000J0D01*
G01*
X165778560Y-126325160D01*
G75*
G02*
X165727560Y-126274160I0J51000D01*
G01*
X165727560Y-125774160D01*
G75*
G02*
X165778560Y-125723160I51000J0D01*
G01*
X166778560Y-125723160D01*
G75*
G02*
X166829560Y-125774160I0J-51000D01*
G01*
G37*
G36*
G01*
X166829560Y-126774160D02*
X166829560Y-127274160D01*
G75*
G02*
X166778560Y-127325160I-51000J0D01*
G01*
X165778560Y-127325160D01*
G75*
G02*
X165727560Y-127274160I0J51000D01*
G01*
X165727560Y-126774160D01*
G75*
G02*
X165778560Y-126723160I51000J0D01*
G01*
X166778560Y-126723160D01*
G75*
G02*
X166829560Y-126774160I0J-51000D01*
G01*
G37*
G36*
G01*
X166829560Y-127774160D02*
X166829560Y-128274160D01*
G75*
G02*
X166778560Y-128325160I-51000J0D01*
G01*
X165778560Y-128325160D01*
G75*
G02*
X165727560Y-128274160I0J51000D01*
G01*
X165727560Y-127774160D01*
G75*
G02*
X165778560Y-127723160I51000J0D01*
G01*
X166778560Y-127723160D01*
G75*
G02*
X166829560Y-127774160I0J-51000D01*
G01*
G37*
G36*
G01*
X166829560Y-128774160D02*
X166829560Y-129274160D01*
G75*
G02*
X166778560Y-129325160I-51000J0D01*
G01*
X165778560Y-129325160D01*
G75*
G02*
X165727560Y-129274160I0J51000D01*
G01*
X165727560Y-128774160D01*
G75*
G02*
X165778560Y-128723160I51000J0D01*
G01*
X166778560Y-128723160D01*
G75*
G02*
X166829560Y-128774160I0J-51000D01*
G01*
G37*
G36*
G01*
X164579560Y-129524160D02*
X164579560Y-130524160D01*
G75*
G02*
X164528560Y-130575160I-51000J0D01*
G01*
X164028560Y-130575160D01*
G75*
G02*
X163977560Y-130524160I0J51000D01*
G01*
X163977560Y-129524160D01*
G75*
G02*
X164028560Y-129473160I51000J0D01*
G01*
X164528560Y-129473160D01*
G75*
G02*
X164579560Y-129524160I0J-51000D01*
G01*
G37*
G36*
G01*
X163579560Y-129524160D02*
X163579560Y-130524160D01*
G75*
G02*
X163528560Y-130575160I-51000J0D01*
G01*
X163028560Y-130575160D01*
G75*
G02*
X162977560Y-130524160I0J51000D01*
G01*
X162977560Y-129524160D01*
G75*
G02*
X163028560Y-129473160I51000J0D01*
G01*
X163528560Y-129473160D01*
G75*
G02*
X163579560Y-129524160I0J-51000D01*
G01*
G37*
G36*
G01*
X162579560Y-129524160D02*
X162579560Y-130524160D01*
G75*
G02*
X162528560Y-130575160I-51000J0D01*
G01*
X162028560Y-130575160D01*
G75*
G02*
X161977560Y-130524160I0J51000D01*
G01*
X161977560Y-129524160D01*
G75*
G02*
X162028560Y-129473160I51000J0D01*
G01*
X162528560Y-129473160D01*
G75*
G02*
X162579560Y-129524160I0J-51000D01*
G01*
G37*
G36*
G01*
X161579560Y-129524160D02*
X161579560Y-130524160D01*
G75*
G02*
X161528560Y-130575160I-51000J0D01*
G01*
X161028560Y-130575160D01*
G75*
G02*
X160977560Y-130524160I0J51000D01*
G01*
X160977560Y-129524160D01*
G75*
G02*
X161028560Y-129473160I51000J0D01*
G01*
X161528560Y-129473160D01*
G75*
G02*
X161579560Y-129524160I0J-51000D01*
G01*
G37*
G36*
G01*
X160579560Y-129524160D02*
X160579560Y-130524160D01*
G75*
G02*
X160528560Y-130575160I-51000J0D01*
G01*
X160028560Y-130575160D01*
G75*
G02*
X159977560Y-130524160I0J51000D01*
G01*
X159977560Y-129524160D01*
G75*
G02*
X160028560Y-129473160I51000J0D01*
G01*
X160528560Y-129473160D01*
G75*
G02*
X160579560Y-129524160I0J-51000D01*
G01*
G37*
G36*
G01*
X159579560Y-129524160D02*
X159579560Y-130524160D01*
G75*
G02*
X159528560Y-130575160I-51000J0D01*
G01*
X159028560Y-130575160D01*
G75*
G02*
X158977560Y-130524160I0J51000D01*
G01*
X158977560Y-129524160D01*
G75*
G02*
X159028560Y-129473160I51000J0D01*
G01*
X159528560Y-129473160D01*
G75*
G02*
X159579560Y-129524160I0J-51000D01*
G01*
G37*
G36*
G01*
X158579560Y-129524160D02*
X158579560Y-130524160D01*
G75*
G02*
X158528560Y-130575160I-51000J0D01*
G01*
X158028560Y-130575160D01*
G75*
G02*
X157977560Y-130524160I0J51000D01*
G01*
X157977560Y-129524160D01*
G75*
G02*
X158028560Y-129473160I51000J0D01*
G01*
X158528560Y-129473160D01*
G75*
G02*
X158579560Y-129524160I0J-51000D01*
G01*
G37*
G36*
G01*
X157579560Y-129524160D02*
X157579560Y-130524160D01*
G75*
G02*
X157528560Y-130575160I-51000J0D01*
G01*
X157028560Y-130575160D01*
G75*
G02*
X156977560Y-130524160I0J51000D01*
G01*
X156977560Y-129524160D01*
G75*
G02*
X157028560Y-129473160I51000J0D01*
G01*
X157528560Y-129473160D01*
G75*
G02*
X157579560Y-129524160I0J-51000D01*
G01*
G37*
G36*
G01*
X156579560Y-129524160D02*
X156579560Y-130524160D01*
G75*
G02*
X156528560Y-130575160I-51000J0D01*
G01*
X156028560Y-130575160D01*
G75*
G02*
X155977560Y-130524160I0J51000D01*
G01*
X155977560Y-129524160D01*
G75*
G02*
X156028560Y-129473160I51000J0D01*
G01*
X156528560Y-129473160D01*
G75*
G02*
X156579560Y-129524160I0J-51000D01*
G01*
G37*
G36*
G01*
X155579560Y-129524160D02*
X155579560Y-130524160D01*
G75*
G02*
X155528560Y-130575160I-51000J0D01*
G01*
X155028560Y-130575160D01*
G75*
G02*
X154977560Y-130524160I0J51000D01*
G01*
X154977560Y-129524160D01*
G75*
G02*
X155028560Y-129473160I51000J0D01*
G01*
X155528560Y-129473160D01*
G75*
G02*
X155579560Y-129524160I0J-51000D01*
G01*
G37*
G36*
G01*
X155579560Y-111524160D02*
X155579560Y-112524160D01*
G75*
G02*
X155528560Y-112575160I-51000J0D01*
G01*
X155028560Y-112575160D01*
G75*
G02*
X154977560Y-112524160I0J51000D01*
G01*
X154977560Y-111524160D01*
G75*
G02*
X155028560Y-111473160I51000J0D01*
G01*
X155528560Y-111473160D01*
G75*
G02*
X155579560Y-111524160I0J-51000D01*
G01*
G37*
G36*
G01*
X162579560Y-111524160D02*
X162579560Y-112524160D01*
G75*
G02*
X162528560Y-112575160I-51000J0D01*
G01*
X162028560Y-112575160D01*
G75*
G02*
X161977560Y-112524160I0J51000D01*
G01*
X161977560Y-111524160D01*
G75*
G02*
X162028560Y-111473160I51000J0D01*
G01*
X162528560Y-111473160D01*
G75*
G02*
X162579560Y-111524160I0J-51000D01*
G01*
G37*
G36*
G01*
X159579560Y-111524160D02*
X159579560Y-112524160D01*
G75*
G02*
X159528560Y-112575160I-51000J0D01*
G01*
X159028560Y-112575160D01*
G75*
G02*
X158977560Y-112524160I0J51000D01*
G01*
X158977560Y-111524160D01*
G75*
G02*
X159028560Y-111473160I51000J0D01*
G01*
X159528560Y-111473160D01*
G75*
G02*
X159579560Y-111524160I0J-51000D01*
G01*
G37*
G36*
G01*
X161579560Y-111524160D02*
X161579560Y-112524160D01*
G75*
G02*
X161528560Y-112575160I-51000J0D01*
G01*
X161028560Y-112575160D01*
G75*
G02*
X160977560Y-112524160I0J51000D01*
G01*
X160977560Y-111524160D01*
G75*
G02*
X161028560Y-111473160I51000J0D01*
G01*
X161528560Y-111473160D01*
G75*
G02*
X161579560Y-111524160I0J-51000D01*
G01*
G37*
G36*
G01*
X156579560Y-111524160D02*
X156579560Y-112524160D01*
G75*
G02*
X156528560Y-112575160I-51000J0D01*
G01*
X156028560Y-112575160D01*
G75*
G02*
X155977560Y-112524160I0J51000D01*
G01*
X155977560Y-111524160D01*
G75*
G02*
X156028560Y-111473160I51000J0D01*
G01*
X156528560Y-111473160D01*
G75*
G02*
X156579560Y-111524160I0J-51000D01*
G01*
G37*
G36*
G01*
X160579560Y-111524160D02*
X160579560Y-112524160D01*
G75*
G02*
X160528560Y-112575160I-51000J0D01*
G01*
X160028560Y-112575160D01*
G75*
G02*
X159977560Y-112524160I0J51000D01*
G01*
X159977560Y-111524160D01*
G75*
G02*
X160028560Y-111473160I51000J0D01*
G01*
X160528560Y-111473160D01*
G75*
G02*
X160579560Y-111524160I0J-51000D01*
G01*
G37*
G36*
G01*
X163579560Y-111524160D02*
X163579560Y-112524160D01*
G75*
G02*
X163528560Y-112575160I-51000J0D01*
G01*
X163028560Y-112575160D01*
G75*
G02*
X162977560Y-112524160I0J51000D01*
G01*
X162977560Y-111524160D01*
G75*
G02*
X163028560Y-111473160I51000J0D01*
G01*
X163528560Y-111473160D01*
G75*
G02*
X163579560Y-111524160I0J-51000D01*
G01*
G37*
G36*
G01*
X158579560Y-111524160D02*
X158579560Y-112524160D01*
G75*
G02*
X158528560Y-112575160I-51000J0D01*
G01*
X158028560Y-112575160D01*
G75*
G02*
X157977560Y-112524160I0J51000D01*
G01*
X157977560Y-111524160D01*
G75*
G02*
X158028560Y-111473160I51000J0D01*
G01*
X158528560Y-111473160D01*
G75*
G02*
X158579560Y-111524160I0J-51000D01*
G01*
G37*
G36*
G01*
X157579560Y-111524160D02*
X157579560Y-112524160D01*
G75*
G02*
X157528560Y-112575160I-51000J0D01*
G01*
X157028560Y-112575160D01*
G75*
G02*
X156977560Y-112524160I0J51000D01*
G01*
X156977560Y-111524160D01*
G75*
G02*
X157028560Y-111473160I51000J0D01*
G01*
X157528560Y-111473160D01*
G75*
G02*
X157579560Y-111524160I0J-51000D01*
G01*
G37*
G36*
G01*
X164579560Y-111524160D02*
X164579560Y-112524160D01*
G75*
G02*
X164528560Y-112575160I-51000J0D01*
G01*
X164028560Y-112575160D01*
G75*
G02*
X163977560Y-112524160I0J51000D01*
G01*
X163977560Y-111524160D01*
G75*
G02*
X164028560Y-111473160I51000J0D01*
G01*
X164528560Y-111473160D01*
G75*
G02*
X164579560Y-111524160I0J-51000D01*
G01*
G37*
G36*
G01*
X153829560Y-123774160D02*
X153829560Y-124274160D01*
G75*
G02*
X153778560Y-124325160I-51000J0D01*
G01*
X152778560Y-124325160D01*
G75*
G02*
X152727560Y-124274160I0J51000D01*
G01*
X152727560Y-123774160D01*
G75*
G02*
X152778560Y-123723160I51000J0D01*
G01*
X153778560Y-123723160D01*
G75*
G02*
X153829560Y-123774160I0J-51000D01*
G01*
G37*
G36*
G01*
X153829560Y-127774160D02*
X153829560Y-128274160D01*
G75*
G02*
X153778560Y-128325160I-51000J0D01*
G01*
X152778560Y-128325160D01*
G75*
G02*
X152727560Y-128274160I0J51000D01*
G01*
X152727560Y-127774160D01*
G75*
G02*
X152778560Y-127723160I51000J0D01*
G01*
X153778560Y-127723160D01*
G75*
G02*
X153829560Y-127774160I0J-51000D01*
G01*
G37*
G36*
G01*
X153829560Y-115774160D02*
X153829560Y-116274160D01*
G75*
G02*
X153778560Y-116325160I-51000J0D01*
G01*
X152778560Y-116325160D01*
G75*
G02*
X152727560Y-116274160I0J51000D01*
G01*
X152727560Y-115774160D01*
G75*
G02*
X152778560Y-115723160I51000J0D01*
G01*
X153778560Y-115723160D01*
G75*
G02*
X153829560Y-115774160I0J-51000D01*
G01*
G37*
G36*
G01*
X153829560Y-116774160D02*
X153829560Y-117274160D01*
G75*
G02*
X153778560Y-117325160I-51000J0D01*
G01*
X152778560Y-117325160D01*
G75*
G02*
X152727560Y-117274160I0J51000D01*
G01*
X152727560Y-116774160D01*
G75*
G02*
X152778560Y-116723160I51000J0D01*
G01*
X153778560Y-116723160D01*
G75*
G02*
X153829560Y-116774160I0J-51000D01*
G01*
G37*
G36*
G01*
X153829560Y-113774160D02*
X153829560Y-114274160D01*
G75*
G02*
X153778560Y-114325160I-51000J0D01*
G01*
X152778560Y-114325160D01*
G75*
G02*
X152727560Y-114274160I0J51000D01*
G01*
X152727560Y-113774160D01*
G75*
G02*
X152778560Y-113723160I51000J0D01*
G01*
X153778560Y-113723160D01*
G75*
G02*
X153829560Y-113774160I0J-51000D01*
G01*
G37*
G36*
G01*
X153829560Y-118774160D02*
X153829560Y-119274160D01*
G75*
G02*
X153778560Y-119325160I-51000J0D01*
G01*
X152778560Y-119325160D01*
G75*
G02*
X152727560Y-119274160I0J51000D01*
G01*
X152727560Y-118774160D01*
G75*
G02*
X152778560Y-118723160I51000J0D01*
G01*
X153778560Y-118723160D01*
G75*
G02*
X153829560Y-118774160I0J-51000D01*
G01*
G37*
G36*
G01*
X153829560Y-122774160D02*
X153829560Y-123274160D01*
G75*
G02*
X153778560Y-123325160I-51000J0D01*
G01*
X152778560Y-123325160D01*
G75*
G02*
X152727560Y-123274160I0J51000D01*
G01*
X152727560Y-122774160D01*
G75*
G02*
X152778560Y-122723160I51000J0D01*
G01*
X153778560Y-122723160D01*
G75*
G02*
X153829560Y-122774160I0J-51000D01*
G01*
G37*
G36*
G01*
X153829560Y-125774160D02*
X153829560Y-126274160D01*
G75*
G02*
X153778560Y-126325160I-51000J0D01*
G01*
X152778560Y-126325160D01*
G75*
G02*
X152727560Y-126274160I0J51000D01*
G01*
X152727560Y-125774160D01*
G75*
G02*
X152778560Y-125723160I51000J0D01*
G01*
X153778560Y-125723160D01*
G75*
G02*
X153829560Y-125774160I0J-51000D01*
G01*
G37*
G36*
G01*
X153829560Y-114774160D02*
X153829560Y-115274160D01*
G75*
G02*
X153778560Y-115325160I-51000J0D01*
G01*
X152778560Y-115325160D01*
G75*
G02*
X152727560Y-115274160I0J51000D01*
G01*
X152727560Y-114774160D01*
G75*
G02*
X152778560Y-114723160I51000J0D01*
G01*
X153778560Y-114723160D01*
G75*
G02*
X153829560Y-114774160I0J-51000D01*
G01*
G37*
G36*
G01*
X153829560Y-126774160D02*
X153829560Y-127274160D01*
G75*
G02*
X153778560Y-127325160I-51000J0D01*
G01*
X152778560Y-127325160D01*
G75*
G02*
X152727560Y-127274160I0J51000D01*
G01*
X152727560Y-126774160D01*
G75*
G02*
X152778560Y-126723160I51000J0D01*
G01*
X153778560Y-126723160D01*
G75*
G02*
X153829560Y-126774160I0J-51000D01*
G01*
G37*
G36*
G01*
X153829560Y-117774160D02*
X153829560Y-118274160D01*
G75*
G02*
X153778560Y-118325160I-51000J0D01*
G01*
X152778560Y-118325160D01*
G75*
G02*
X152727560Y-118274160I0J51000D01*
G01*
X152727560Y-117774160D01*
G75*
G02*
X152778560Y-117723160I51000J0D01*
G01*
X153778560Y-117723160D01*
G75*
G02*
X153829560Y-117774160I0J-51000D01*
G01*
G37*
G36*
G01*
X153829560Y-119774160D02*
X153829560Y-120274160D01*
G75*
G02*
X153778560Y-120325160I-51000J0D01*
G01*
X152778560Y-120325160D01*
G75*
G02*
X152727560Y-120274160I0J51000D01*
G01*
X152727560Y-119774160D01*
G75*
G02*
X152778560Y-119723160I51000J0D01*
G01*
X153778560Y-119723160D01*
G75*
G02*
X153829560Y-119774160I0J-51000D01*
G01*
G37*
G36*
G01*
X153829560Y-112774160D02*
X153829560Y-113274160D01*
G75*
G02*
X153778560Y-113325160I-51000J0D01*
G01*
X152778560Y-113325160D01*
G75*
G02*
X152727560Y-113274160I0J51000D01*
G01*
X152727560Y-112774160D01*
G75*
G02*
X152778560Y-112723160I51000J0D01*
G01*
X153778560Y-112723160D01*
G75*
G02*
X153829560Y-112774160I0J-51000D01*
G01*
G37*
G36*
G01*
X153829560Y-120774160D02*
X153829560Y-121274160D01*
G75*
G02*
X153778560Y-121325160I-51000J0D01*
G01*
X152778560Y-121325160D01*
G75*
G02*
X152727560Y-121274160I0J51000D01*
G01*
X152727560Y-120774160D01*
G75*
G02*
X152778560Y-120723160I51000J0D01*
G01*
X153778560Y-120723160D01*
G75*
G02*
X153829560Y-120774160I0J-51000D01*
G01*
G37*
G36*
G01*
X153829560Y-121774160D02*
X153829560Y-122274160D01*
G75*
G02*
X153778560Y-122325160I-51000J0D01*
G01*
X152778560Y-122325160D01*
G75*
G02*
X152727560Y-122274160I0J51000D01*
G01*
X152727560Y-121774160D01*
G75*
G02*
X152778560Y-121723160I51000J0D01*
G01*
X153778560Y-121723160D01*
G75*
G02*
X153829560Y-121774160I0J-51000D01*
G01*
G37*
G36*
G01*
X153829560Y-128774160D02*
X153829560Y-129274160D01*
G75*
G02*
X153778560Y-129325160I-51000J0D01*
G01*
X152778560Y-129325160D01*
G75*
G02*
X152727560Y-129274160I0J51000D01*
G01*
X152727560Y-128774160D01*
G75*
G02*
X152778560Y-128723160I51000J0D01*
G01*
X153778560Y-128723160D01*
G75*
G02*
X153829560Y-128774160I0J-51000D01*
G01*
G37*
G36*
G01*
X153829560Y-124774160D02*
X153829560Y-125274160D01*
G75*
G02*
X153778560Y-125325160I-51000J0D01*
G01*
X152778560Y-125325160D01*
G75*
G02*
X152727560Y-125274160I0J51000D01*
G01*
X152727560Y-124774160D01*
G75*
G02*
X152778560Y-124723160I51000J0D01*
G01*
X153778560Y-124723160D01*
G75*
G02*
X153829560Y-124774160I0J-51000D01*
G01*
G37*
D24*
X180182520Y-156052520D03*
G36*
G01*
X182206520Y-158128020D02*
X182206520Y-157877020D01*
G75*
G02*
X182332020Y-157751520I125500J0D01*
G01*
X183758020Y-157751520D01*
G75*
G02*
X183883520Y-157877020I0J-125500D01*
G01*
X183883520Y-158128020D01*
G75*
G02*
X183758020Y-158253520I-125500J0D01*
G01*
X182332020Y-158253520D01*
G75*
G02*
X182206520Y-158128020I0J125500D01*
G01*
G37*
G36*
G01*
X182206520Y-157478020D02*
X182206520Y-157227020D01*
G75*
G02*
X182332020Y-157101520I125500J0D01*
G01*
X183758020Y-157101520D01*
G75*
G02*
X183883520Y-157227020I0J-125500D01*
G01*
X183883520Y-157478020D01*
G75*
G02*
X183758020Y-157603520I-125500J0D01*
G01*
X182332020Y-157603520D01*
G75*
G02*
X182206520Y-157478020I0J125500D01*
G01*
G37*
G36*
G01*
X182206520Y-156828020D02*
X182206520Y-156577020D01*
G75*
G02*
X182332020Y-156451520I125500J0D01*
G01*
X183758020Y-156451520D01*
G75*
G02*
X183883520Y-156577020I0J-125500D01*
G01*
X183883520Y-156828020D01*
G75*
G02*
X183758020Y-156953520I-125500J0D01*
G01*
X182332020Y-156953520D01*
G75*
G02*
X182206520Y-156828020I0J125500D01*
G01*
G37*
G36*
G01*
X182206520Y-156178020D02*
X182206520Y-155927020D01*
G75*
G02*
X182332020Y-155801520I125500J0D01*
G01*
X183758020Y-155801520D01*
G75*
G02*
X183883520Y-155927020I0J-125500D01*
G01*
X183883520Y-156178020D01*
G75*
G02*
X183758020Y-156303520I-125500J0D01*
G01*
X182332020Y-156303520D01*
G75*
G02*
X182206520Y-156178020I0J125500D01*
G01*
G37*
G36*
G01*
X182206520Y-155528020D02*
X182206520Y-155277020D01*
G75*
G02*
X182332020Y-155151520I125500J0D01*
G01*
X183758020Y-155151520D01*
G75*
G02*
X183883520Y-155277020I0J-125500D01*
G01*
X183883520Y-155528020D01*
G75*
G02*
X183758020Y-155653520I-125500J0D01*
G01*
X182332020Y-155653520D01*
G75*
G02*
X182206520Y-155528020I0J125500D01*
G01*
G37*
G36*
G01*
X182206520Y-154878020D02*
X182206520Y-154627020D01*
G75*
G02*
X182332020Y-154501520I125500J0D01*
G01*
X183758020Y-154501520D01*
G75*
G02*
X183883520Y-154627020I0J-125500D01*
G01*
X183883520Y-154878020D01*
G75*
G02*
X183758020Y-155003520I-125500J0D01*
G01*
X182332020Y-155003520D01*
G75*
G02*
X182206520Y-154878020I0J125500D01*
G01*
G37*
G36*
G01*
X182206520Y-154228020D02*
X182206520Y-153977020D01*
G75*
G02*
X182332020Y-153851520I125500J0D01*
G01*
X183758020Y-153851520D01*
G75*
G02*
X183883520Y-153977020I0J-125500D01*
G01*
X183883520Y-154228020D01*
G75*
G02*
X183758020Y-154353520I-125500J0D01*
G01*
X182332020Y-154353520D01*
G75*
G02*
X182206520Y-154228020I0J125500D01*
G01*
G37*
G36*
G01*
X176481520Y-154228020D02*
X176481520Y-153977020D01*
G75*
G02*
X176607020Y-153851520I125500J0D01*
G01*
X178033020Y-153851520D01*
G75*
G02*
X178158520Y-153977020I0J-125500D01*
G01*
X178158520Y-154228020D01*
G75*
G02*
X178033020Y-154353520I-125500J0D01*
G01*
X176607020Y-154353520D01*
G75*
G02*
X176481520Y-154228020I0J125500D01*
G01*
G37*
G36*
G01*
X176481520Y-154878020D02*
X176481520Y-154627020D01*
G75*
G02*
X176607020Y-154501520I125500J0D01*
G01*
X178033020Y-154501520D01*
G75*
G02*
X178158520Y-154627020I0J-125500D01*
G01*
X178158520Y-154878020D01*
G75*
G02*
X178033020Y-155003520I-125500J0D01*
G01*
X176607020Y-155003520D01*
G75*
G02*
X176481520Y-154878020I0J125500D01*
G01*
G37*
G36*
G01*
X176481520Y-155528020D02*
X176481520Y-155277020D01*
G75*
G02*
X176607020Y-155151520I125500J0D01*
G01*
X178033020Y-155151520D01*
G75*
G02*
X178158520Y-155277020I0J-125500D01*
G01*
X178158520Y-155528020D01*
G75*
G02*
X178033020Y-155653520I-125500J0D01*
G01*
X176607020Y-155653520D01*
G75*
G02*
X176481520Y-155528020I0J125500D01*
G01*
G37*
G36*
G01*
X176481520Y-156178020D02*
X176481520Y-155927020D01*
G75*
G02*
X176607020Y-155801520I125500J0D01*
G01*
X178033020Y-155801520D01*
G75*
G02*
X178158520Y-155927020I0J-125500D01*
G01*
X178158520Y-156178020D01*
G75*
G02*
X178033020Y-156303520I-125500J0D01*
G01*
X176607020Y-156303520D01*
G75*
G02*
X176481520Y-156178020I0J125500D01*
G01*
G37*
G36*
G01*
X176481520Y-156828020D02*
X176481520Y-156577020D01*
G75*
G02*
X176607020Y-156451520I125500J0D01*
G01*
X178033020Y-156451520D01*
G75*
G02*
X178158520Y-156577020I0J-125500D01*
G01*
X178158520Y-156828020D01*
G75*
G02*
X178033020Y-156953520I-125500J0D01*
G01*
X176607020Y-156953520D01*
G75*
G02*
X176481520Y-156828020I0J125500D01*
G01*
G37*
G36*
G01*
X176481520Y-157478020D02*
X176481520Y-157227020D01*
G75*
G02*
X176607020Y-157101520I125500J0D01*
G01*
X178033020Y-157101520D01*
G75*
G02*
X178158520Y-157227020I0J-125500D01*
G01*
X178158520Y-157478020D01*
G75*
G02*
X178033020Y-157603520I-125500J0D01*
G01*
X176607020Y-157603520D01*
G75*
G02*
X176481520Y-157478020I0J125500D01*
G01*
G37*
G36*
G01*
X176481520Y-158128020D02*
X176481520Y-157877020D01*
G75*
G02*
X176607020Y-157751520I125500J0D01*
G01*
X178033020Y-157751520D01*
G75*
G02*
X178158520Y-157877020I0J-125500D01*
G01*
X178158520Y-158128020D01*
G75*
G02*
X178033020Y-158253520I-125500J0D01*
G01*
X176607020Y-158253520D01*
G75*
G02*
X176481520Y-158128020I0J125500D01*
G01*
G37*
G36*
G01*
X168634285Y-171527720D02*
X167682035Y-171527720D01*
G75*
G02*
X167407160Y-171252845I0J274875D01*
G01*
X167407160Y-170675595D01*
G75*
G02*
X167682035Y-170400720I274875J0D01*
G01*
X168634285Y-170400720D01*
G75*
G02*
X168909160Y-170675595I0J-274875D01*
G01*
X168909160Y-171252845D01*
G75*
G02*
X168634285Y-171527720I-274875J0D01*
G01*
G37*
G36*
G01*
X168634285Y-173352720D02*
X167682035Y-173352720D01*
G75*
G02*
X167407160Y-173077845I0J274875D01*
G01*
X167407160Y-172500595D01*
G75*
G02*
X167682035Y-172225720I274875J0D01*
G01*
X168634285Y-172225720D01*
G75*
G02*
X168909160Y-172500595I0J-274875D01*
G01*
X168909160Y-173077845D01*
G75*
G02*
X168634285Y-173352720I-274875J0D01*
G01*
G37*
G36*
G01*
X165533195Y-172195240D02*
X166485445Y-172195240D01*
G75*
G02*
X166760320Y-172470115I0J-274875D01*
G01*
X166760320Y-173047365D01*
G75*
G02*
X166485445Y-173322240I-274875J0D01*
G01*
X165533195Y-173322240D01*
G75*
G02*
X165258320Y-173047365I0J274875D01*
G01*
X165258320Y-172470115D01*
G75*
G02*
X165533195Y-172195240I274875J0D01*
G01*
G37*
G36*
G01*
X165533195Y-170370240D02*
X166485445Y-170370240D01*
G75*
G02*
X166760320Y-170645115I0J-274875D01*
G01*
X166760320Y-171222365D01*
G75*
G02*
X166485445Y-171497240I-274875J0D01*
G01*
X165533195Y-171497240D01*
G75*
G02*
X165258320Y-171222365I0J274875D01*
G01*
X165258320Y-170645115D01*
G75*
G02*
X165533195Y-170370240I274875J0D01*
G01*
G37*
G36*
G01*
X165949505Y-150283160D02*
X164997255Y-150283160D01*
G75*
G02*
X164722380Y-150008285I0J274875D01*
G01*
X164722380Y-149431035D01*
G75*
G02*
X164997255Y-149156160I274875J0D01*
G01*
X165949505Y-149156160D01*
G75*
G02*
X166224380Y-149431035I0J-274875D01*
G01*
X166224380Y-150008285D01*
G75*
G02*
X165949505Y-150283160I-274875J0D01*
G01*
G37*
G36*
G01*
X165949505Y-152108160D02*
X164997255Y-152108160D01*
G75*
G02*
X164722380Y-151833285I0J274875D01*
G01*
X164722380Y-151256035D01*
G75*
G02*
X164997255Y-150981160I274875J0D01*
G01*
X165949505Y-150981160D01*
G75*
G02*
X166224380Y-151256035I0J-274875D01*
G01*
X166224380Y-151833285D01*
G75*
G02*
X165949505Y-152108160I-274875J0D01*
G01*
G37*
G36*
G01*
X162675695Y-151011640D02*
X163627945Y-151011640D01*
G75*
G02*
X163902820Y-151286515I0J-274875D01*
G01*
X163902820Y-151863765D01*
G75*
G02*
X163627945Y-152138640I-274875J0D01*
G01*
X162675695Y-152138640D01*
G75*
G02*
X162400820Y-151863765I0J274875D01*
G01*
X162400820Y-151286515D01*
G75*
G02*
X162675695Y-151011640I274875J0D01*
G01*
G37*
G36*
G01*
X162675695Y-149186640D02*
X163627945Y-149186640D01*
G75*
G02*
X163902820Y-149461515I0J-274875D01*
G01*
X163902820Y-150038765D01*
G75*
G02*
X163627945Y-150313640I-274875J0D01*
G01*
X162675695Y-150313640D01*
G75*
G02*
X162400820Y-150038765I0J274875D01*
G01*
X162400820Y-149461515D01*
G75*
G02*
X162675695Y-149186640I274875J0D01*
G01*
G37*
G36*
G01*
X164737800Y-141057505D02*
X164737800Y-140105255D01*
G75*
G02*
X165012675Y-139830380I274875J0D01*
G01*
X165589925Y-139830380D01*
G75*
G02*
X165864800Y-140105255I0J-274875D01*
G01*
X165864800Y-141057505D01*
G75*
G02*
X165589925Y-141332380I-274875J0D01*
G01*
X165012675Y-141332380D01*
G75*
G02*
X164737800Y-141057505I0J274875D01*
G01*
G37*
G36*
G01*
X162912800Y-141057505D02*
X162912800Y-140105255D01*
G75*
G02*
X163187675Y-139830380I274875J0D01*
G01*
X163764925Y-139830380D01*
G75*
G02*
X164039800Y-140105255I0J-274875D01*
G01*
X164039800Y-141057505D01*
G75*
G02*
X163764925Y-141332380I-274875J0D01*
G01*
X163187675Y-141332380D01*
G75*
G02*
X162912800Y-141057505I0J274875D01*
G01*
G37*
G36*
G01*
X167705020Y-140082395D02*
X167705020Y-141034645D01*
G75*
G02*
X167430145Y-141309520I-274875J0D01*
G01*
X166852895Y-141309520D01*
G75*
G02*
X166578020Y-141034645I0J274875D01*
G01*
X166578020Y-140082395D01*
G75*
G02*
X166852895Y-139807520I274875J0D01*
G01*
X167430145Y-139807520D01*
G75*
G02*
X167705020Y-140082395I0J-274875D01*
G01*
G37*
G36*
G01*
X169530020Y-140082395D02*
X169530020Y-141034645D01*
G75*
G02*
X169255145Y-141309520I-274875J0D01*
G01*
X168677895Y-141309520D01*
G75*
G02*
X168403020Y-141034645I0J274875D01*
G01*
X168403020Y-140082395D01*
G75*
G02*
X168677895Y-139807520I274875J0D01*
G01*
X169255145Y-139807520D01*
G75*
G02*
X169530020Y-140082395I0J-274875D01*
G01*
G37*
G36*
G01*
X161230435Y-133702800D02*
X162182685Y-133702800D01*
G75*
G02*
X162457560Y-133977675I0J-274875D01*
G01*
X162457560Y-134554925D01*
G75*
G02*
X162182685Y-134829800I-274875J0D01*
G01*
X161230435Y-134829800D01*
G75*
G02*
X160955560Y-134554925I0J274875D01*
G01*
X160955560Y-133977675D01*
G75*
G02*
X161230435Y-133702800I274875J0D01*
G01*
G37*
G36*
G01*
X161230435Y-135527800D02*
X162182685Y-135527800D01*
G75*
G02*
X162457560Y-135802675I0J-274875D01*
G01*
X162457560Y-136379925D01*
G75*
G02*
X162182685Y-136654800I-274875J0D01*
G01*
X161230435Y-136654800D01*
G75*
G02*
X160955560Y-136379925I0J274875D01*
G01*
X160955560Y-135802675D01*
G75*
G02*
X161230435Y-135527800I274875J0D01*
G01*
G37*
G36*
G01*
X170859200Y-126963045D02*
X170859200Y-126010795D01*
G75*
G02*
X171134075Y-125735920I274875J0D01*
G01*
X171711325Y-125735920D01*
G75*
G02*
X171986200Y-126010795I0J-274875D01*
G01*
X171986200Y-126963045D01*
G75*
G02*
X171711325Y-127237920I-274875J0D01*
G01*
X171134075Y-127237920D01*
G75*
G02*
X170859200Y-126963045I0J274875D01*
G01*
G37*
G36*
G01*
X169034200Y-126963045D02*
X169034200Y-126010795D01*
G75*
G02*
X169309075Y-125735920I274875J0D01*
G01*
X169886325Y-125735920D01*
G75*
G02*
X170161200Y-126010795I0J-274875D01*
G01*
X170161200Y-126963045D01*
G75*
G02*
X169886325Y-127237920I-274875J0D01*
G01*
X169309075Y-127237920D01*
G75*
G02*
X169034200Y-126963045I0J274875D01*
G01*
G37*
G36*
G01*
X123168285Y-193478400D02*
X122216035Y-193478400D01*
G75*
G02*
X121941160Y-193203525I0J274875D01*
G01*
X121941160Y-192626275D01*
G75*
G02*
X122216035Y-192351400I274875J0D01*
G01*
X123168285Y-192351400D01*
G75*
G02*
X123443160Y-192626275I0J-274875D01*
G01*
X123443160Y-193203525D01*
G75*
G02*
X123168285Y-193478400I-274875J0D01*
G01*
G37*
G36*
G01*
X123168285Y-195303400D02*
X122216035Y-195303400D01*
G75*
G02*
X121941160Y-195028525I0J274875D01*
G01*
X121941160Y-194451275D01*
G75*
G02*
X122216035Y-194176400I274875J0D01*
G01*
X123168285Y-194176400D01*
G75*
G02*
X123443160Y-194451275I0J-274875D01*
G01*
X123443160Y-195028525D01*
G75*
G02*
X123168285Y-195303400I-274875J0D01*
G01*
G37*
G36*
G01*
X119216045Y-193478400D02*
X118263795Y-193478400D01*
G75*
G02*
X117988920Y-193203525I0J274875D01*
G01*
X117988920Y-192626275D01*
G75*
G02*
X118263795Y-192351400I274875J0D01*
G01*
X119216045Y-192351400D01*
G75*
G02*
X119490920Y-192626275I0J-274875D01*
G01*
X119490920Y-193203525D01*
G75*
G02*
X119216045Y-193478400I-274875J0D01*
G01*
G37*
G36*
G01*
X119216045Y-195303400D02*
X118263795Y-195303400D01*
G75*
G02*
X117988920Y-195028525I0J274875D01*
G01*
X117988920Y-194451275D01*
G75*
G02*
X118263795Y-194176400I274875J0D01*
G01*
X119216045Y-194176400D01*
G75*
G02*
X119490920Y-194451275I0J-274875D01*
G01*
X119490920Y-195028525D01*
G75*
G02*
X119216045Y-195303400I-274875J0D01*
G01*
G37*
G36*
G01*
X164727840Y-146401900D02*
X163927840Y-146401900D01*
G75*
G02*
X163876840Y-146350900I0J51000D01*
G01*
X163876840Y-145450900D01*
G75*
G02*
X163927840Y-145399900I51000J0D01*
G01*
X164727840Y-145399900D01*
G75*
G02*
X164778840Y-145450900I0J-51000D01*
G01*
X164778840Y-146350900D01*
G75*
G02*
X164727840Y-146401900I-51000J0D01*
G01*
G37*
G36*
G01*
X163777840Y-148401900D02*
X162977840Y-148401900D01*
G75*
G02*
X162926840Y-148350900I0J51000D01*
G01*
X162926840Y-147450900D01*
G75*
G02*
X162977840Y-147399900I51000J0D01*
G01*
X163777840Y-147399900D01*
G75*
G02*
X163828840Y-147450900I0J-51000D01*
G01*
X163828840Y-148350900D01*
G75*
G02*
X163777840Y-148401900I-51000J0D01*
G01*
G37*
G36*
G01*
X165677840Y-148401900D02*
X164877840Y-148401900D01*
G75*
G02*
X164826840Y-148350900I0J51000D01*
G01*
X164826840Y-147450900D01*
G75*
G02*
X164877840Y-147399900I51000J0D01*
G01*
X165677840Y-147399900D01*
G75*
G02*
X165728840Y-147450900I0J-51000D01*
G01*
X165728840Y-148350900D01*
G75*
G02*
X165677840Y-148401900I-51000J0D01*
G01*
G37*
G36*
G01*
X153383020Y-190860330D02*
X153383020Y-191673830D01*
G75*
G02*
X153138770Y-191918080I-244250J0D01*
G01*
X152650270Y-191918080D01*
G75*
G02*
X152406020Y-191673830I0J244250D01*
G01*
X152406020Y-190860330D01*
G75*
G02*
X152650270Y-190616080I244250J0D01*
G01*
X153138770Y-190616080D01*
G75*
G02*
X153383020Y-190860330I0J-244250D01*
G01*
G37*
G36*
G01*
X155508020Y-190860330D02*
X155508020Y-191673830D01*
G75*
G02*
X155263770Y-191918080I-244250J0D01*
G01*
X154775270Y-191918080D01*
G75*
G02*
X154531020Y-191673830I0J244250D01*
G01*
X154531020Y-190860330D01*
G75*
G02*
X154775270Y-190616080I244250J0D01*
G01*
X155263770Y-190616080D01*
G75*
G02*
X155508020Y-190860330I0J-244250D01*
G01*
G37*
G36*
G01*
X170101300Y-209219450D02*
X170101300Y-210032950D01*
G75*
G02*
X169857050Y-210277200I-244250J0D01*
G01*
X169368550Y-210277200D01*
G75*
G02*
X169124300Y-210032950I0J244250D01*
G01*
X169124300Y-209219450D01*
G75*
G02*
X169368550Y-208975200I244250J0D01*
G01*
X169857050Y-208975200D01*
G75*
G02*
X170101300Y-209219450I0J-244250D01*
G01*
G37*
G36*
G01*
X172226300Y-209219450D02*
X172226300Y-210032950D01*
G75*
G02*
X171982050Y-210277200I-244250J0D01*
G01*
X171493550Y-210277200D01*
G75*
G02*
X171249300Y-210032950I0J244250D01*
G01*
X171249300Y-209219450D01*
G75*
G02*
X171493550Y-208975200I244250J0D01*
G01*
X171982050Y-208975200D01*
G75*
G02*
X172226300Y-209219450I0J-244250D01*
G01*
G37*
G36*
G01*
X175443230Y-130911640D02*
X174629730Y-130911640D01*
G75*
G02*
X174385480Y-130667390I0J244250D01*
G01*
X174385480Y-130178890D01*
G75*
G02*
X174629730Y-129934640I244250J0D01*
G01*
X175443230Y-129934640D01*
G75*
G02*
X175687480Y-130178890I0J-244250D01*
G01*
X175687480Y-130667390D01*
G75*
G02*
X175443230Y-130911640I-244250J0D01*
G01*
G37*
G36*
G01*
X175443230Y-133036640D02*
X174629730Y-133036640D01*
G75*
G02*
X174385480Y-132792390I0J244250D01*
G01*
X174385480Y-132303890D01*
G75*
G02*
X174629730Y-132059640I244250J0D01*
G01*
X175443230Y-132059640D01*
G75*
G02*
X175687480Y-132303890I0J-244250D01*
G01*
X175687480Y-132792390D01*
G75*
G02*
X175443230Y-133036640I-244250J0D01*
G01*
G37*
G36*
G01*
X176330160Y-147183960D02*
X176330160Y-144783960D01*
G75*
G02*
X176381160Y-144732960I51000J0D01*
G01*
X177881160Y-144732960D01*
G75*
G02*
X177932160Y-144783960I0J-51000D01*
G01*
X177932160Y-147183960D01*
G75*
G02*
X177881160Y-147234960I-51000J0D01*
G01*
X176381160Y-147234960D01*
G75*
G02*
X176330160Y-147183960I0J51000D01*
G01*
G37*
G36*
G01*
X170830160Y-147183960D02*
X170830160Y-144783960D01*
G75*
G02*
X170881160Y-144732960I51000J0D01*
G01*
X172381160Y-144732960D01*
G75*
G02*
X172432160Y-144783960I0J-51000D01*
G01*
X172432160Y-147183960D01*
G75*
G02*
X172381160Y-147234960I-51000J0D01*
G01*
X170881160Y-147234960D01*
G75*
G02*
X170830160Y-147183960I0J51000D01*
G01*
G37*
G36*
G01*
X173168160Y-156480960D02*
X170768160Y-156480960D01*
G75*
G02*
X170717160Y-156429960I0J51000D01*
G01*
X170717160Y-154929960D01*
G75*
G02*
X170768160Y-154878960I51000J0D01*
G01*
X173168160Y-154878960D01*
G75*
G02*
X173219160Y-154929960I0J-51000D01*
G01*
X173219160Y-156429960D01*
G75*
G02*
X173168160Y-156480960I-51000J0D01*
G01*
G37*
G36*
G01*
X173168160Y-161980960D02*
X170768160Y-161980960D01*
G75*
G02*
X170717160Y-161929960I0J51000D01*
G01*
X170717160Y-160429960D01*
G75*
G02*
X170768160Y-160378960I51000J0D01*
G01*
X173168160Y-160378960D01*
G75*
G02*
X173219160Y-160429960I0J-51000D01*
G01*
X173219160Y-161929960D01*
G75*
G02*
X173168160Y-161980960I-51000J0D01*
G01*
G37*
D25*
X111770000Y-202800000D03*
X111770000Y-215500000D03*
X111770000Y-209150000D03*
X128000000Y-202800000D03*
X128000000Y-215500000D03*
X128000000Y-209150000D03*
D26*
X179700000Y-103100000D03*
D27*
X186100000Y-102000000D03*
X184900000Y-109300000D03*
X179700000Y-109300000D03*
X176500000Y-109300000D03*
X176000000Y-102000000D03*
D28*
X104000000Y-216000000D03*
X104000000Y-111500000D03*
X190000000Y-216000000D03*
X190000000Y-115000000D03*
G36*
G01*
X182214020Y-207966740D02*
X182214020Y-209766740D01*
G75*
G02*
X182163020Y-209817740I-51000J0D01*
G01*
X179663020Y-209817740D01*
G75*
G02*
X179612020Y-209766740I0J51000D01*
G01*
X179612020Y-207966740D01*
G75*
G02*
X179663020Y-207915740I51000J0D01*
G01*
X182163020Y-207915740D01*
G75*
G02*
X182214020Y-207966740I0J-51000D01*
G01*
G37*
G36*
G01*
X186214020Y-207966740D02*
X186214020Y-209766740D01*
G75*
G02*
X186163020Y-209817740I-51000J0D01*
G01*
X183663020Y-209817740D01*
G75*
G02*
X183612020Y-209766740I0J51000D01*
G01*
X183612020Y-207966740D01*
G75*
G02*
X183663020Y-207915740I51000J0D01*
G01*
X186163020Y-207915740D01*
G75*
G02*
X186214020Y-207966740I0J-51000D01*
G01*
G37*
G36*
G01*
X176068560Y-113951520D02*
X174268560Y-113951520D01*
G75*
G02*
X174217560Y-113900520I0J51000D01*
G01*
X174217560Y-111400520D01*
G75*
G02*
X174268560Y-111349520I51000J0D01*
G01*
X176068560Y-111349520D01*
G75*
G02*
X176119560Y-111400520I0J-51000D01*
G01*
X176119560Y-113900520D01*
G75*
G02*
X176068560Y-113951520I-51000J0D01*
G01*
G37*
G36*
G01*
X176068560Y-117951520D02*
X174268560Y-117951520D01*
G75*
G02*
X174217560Y-117900520I0J51000D01*
G01*
X174217560Y-115400520D01*
G75*
G02*
X174268560Y-115349520I51000J0D01*
G01*
X176068560Y-115349520D01*
G75*
G02*
X176119560Y-115400520I0J-51000D01*
G01*
X176119560Y-117900520D01*
G75*
G02*
X176068560Y-117951520I-51000J0D01*
G01*
G37*
G36*
G01*
X172156960Y-113951520D02*
X170356960Y-113951520D01*
G75*
G02*
X170305960Y-113900520I0J51000D01*
G01*
X170305960Y-111400520D01*
G75*
G02*
X170356960Y-111349520I51000J0D01*
G01*
X172156960Y-111349520D01*
G75*
G02*
X172207960Y-111400520I0J-51000D01*
G01*
X172207960Y-113900520D01*
G75*
G02*
X172156960Y-113951520I-51000J0D01*
G01*
G37*
G36*
G01*
X172156960Y-117951520D02*
X170356960Y-117951520D01*
G75*
G02*
X170305960Y-117900520I0J51000D01*
G01*
X170305960Y-115400520D01*
G75*
G02*
X170356960Y-115349520I51000J0D01*
G01*
X172156960Y-115349520D01*
G75*
G02*
X172207960Y-115400520I0J-51000D01*
G01*
X172207960Y-117900520D01*
G75*
G02*
X172156960Y-117951520I-51000J0D01*
G01*
G37*
G36*
G01*
X171129120Y-139291560D02*
X172929120Y-139291560D01*
G75*
G02*
X172980120Y-139342560I0J-51000D01*
G01*
X172980120Y-141842560D01*
G75*
G02*
X172929120Y-141893560I-51000J0D01*
G01*
X171129120Y-141893560D01*
G75*
G02*
X171078120Y-141842560I0J51000D01*
G01*
X171078120Y-139342560D01*
G75*
G02*
X171129120Y-139291560I51000J0D01*
G01*
G37*
G36*
G01*
X171129120Y-135291560D02*
X172929120Y-135291560D01*
G75*
G02*
X172980120Y-135342560I0J-51000D01*
G01*
X172980120Y-137842560D01*
G75*
G02*
X172929120Y-137893560I-51000J0D01*
G01*
X171129120Y-137893560D01*
G75*
G02*
X171078120Y-137842560I0J51000D01*
G01*
X171078120Y-135342560D01*
G75*
G02*
X171129120Y-135291560I51000J0D01*
G01*
G37*
G36*
G01*
X152084920Y-194617560D02*
X153085920Y-194617560D01*
G75*
G02*
X153361420Y-194893060I0J-275500D01*
G01*
X153361420Y-195444060D01*
G75*
G02*
X153085920Y-195719560I-275500J0D01*
G01*
X152084920Y-195719560D01*
G75*
G02*
X151809420Y-195444060I0J275500D01*
G01*
X151809420Y-194893060D01*
G75*
G02*
X152084920Y-194617560I275500J0D01*
G01*
G37*
G36*
G01*
X152084920Y-192717560D02*
X153085920Y-192717560D01*
G75*
G02*
X153361420Y-192993060I0J-275500D01*
G01*
X153361420Y-193544060D01*
G75*
G02*
X153085920Y-193819560I-275500J0D01*
G01*
X152084920Y-193819560D01*
G75*
G02*
X151809420Y-193544060I0J275500D01*
G01*
X151809420Y-192993060D01*
G75*
G02*
X152084920Y-192717560I275500J0D01*
G01*
G37*
G36*
G01*
X168259880Y-208406780D02*
X167258880Y-208406780D01*
G75*
G02*
X166983380Y-208131280I0J275500D01*
G01*
X166983380Y-207580280D01*
G75*
G02*
X167258880Y-207304780I275500J0D01*
G01*
X168259880Y-207304780D01*
G75*
G02*
X168535380Y-207580280I0J-275500D01*
G01*
X168535380Y-208131280D01*
G75*
G02*
X168259880Y-208406780I-275500J0D01*
G01*
G37*
G36*
G01*
X168259880Y-210306780D02*
X167258880Y-210306780D01*
G75*
G02*
X166983380Y-210031280I0J275500D01*
G01*
X166983380Y-209480280D01*
G75*
G02*
X167258880Y-209204780I275500J0D01*
G01*
X168259880Y-209204780D01*
G75*
G02*
X168535380Y-209480280I0J-275500D01*
G01*
X168535380Y-210031280D01*
G75*
G02*
X168259880Y-210306780I-275500J0D01*
G01*
G37*
G36*
G01*
X154543640Y-194622640D02*
X155544640Y-194622640D01*
G75*
G02*
X155820140Y-194898140I0J-275500D01*
G01*
X155820140Y-195449140D01*
G75*
G02*
X155544640Y-195724640I-275500J0D01*
G01*
X154543640Y-195724640D01*
G75*
G02*
X154268140Y-195449140I0J275500D01*
G01*
X154268140Y-194898140D01*
G75*
G02*
X154543640Y-194622640I275500J0D01*
G01*
G37*
G36*
G01*
X154543640Y-192722640D02*
X155544640Y-192722640D01*
G75*
G02*
X155820140Y-192998140I0J-275500D01*
G01*
X155820140Y-193549140D01*
G75*
G02*
X155544640Y-193824640I-275500J0D01*
G01*
X154543640Y-193824640D01*
G75*
G02*
X154268140Y-193549140I0J275500D01*
G01*
X154268140Y-192998140D01*
G75*
G02*
X154543640Y-192722640I275500J0D01*
G01*
G37*
G36*
G01*
X174091720Y-208416940D02*
X173090720Y-208416940D01*
G75*
G02*
X172815220Y-208141440I0J275500D01*
G01*
X172815220Y-207590440D01*
G75*
G02*
X173090720Y-207314940I275500J0D01*
G01*
X174091720Y-207314940D01*
G75*
G02*
X174367220Y-207590440I0J-275500D01*
G01*
X174367220Y-208141440D01*
G75*
G02*
X174091720Y-208416940I-275500J0D01*
G01*
G37*
G36*
G01*
X174091720Y-210316940D02*
X173090720Y-210316940D01*
G75*
G02*
X172815220Y-210041440I0J275500D01*
G01*
X172815220Y-209490440D01*
G75*
G02*
X173090720Y-209214940I275500J0D01*
G01*
X174091720Y-209214940D01*
G75*
G02*
X174367220Y-209490440I0J-275500D01*
G01*
X174367220Y-210041440D01*
G75*
G02*
X174091720Y-210316940I-275500J0D01*
G01*
G37*
G36*
G01*
X158848940Y-194622640D02*
X159849940Y-194622640D01*
G75*
G02*
X160125440Y-194898140I0J-275500D01*
G01*
X160125440Y-195449140D01*
G75*
G02*
X159849940Y-195724640I-275500J0D01*
G01*
X158848940Y-195724640D01*
G75*
G02*
X158573440Y-195449140I0J275500D01*
G01*
X158573440Y-194898140D01*
G75*
G02*
X158848940Y-194622640I275500J0D01*
G01*
G37*
G36*
G01*
X158848940Y-192722640D02*
X159849940Y-192722640D01*
G75*
G02*
X160125440Y-192998140I0J-275500D01*
G01*
X160125440Y-193549140D01*
G75*
G02*
X159849940Y-193824640I-275500J0D01*
G01*
X158848940Y-193824640D01*
G75*
G02*
X158573440Y-193549140I0J275500D01*
G01*
X158573440Y-192998140D01*
G75*
G02*
X158848940Y-192722640I275500J0D01*
G01*
G37*
G36*
G01*
X178371620Y-208416940D02*
X177370620Y-208416940D01*
G75*
G02*
X177095120Y-208141440I0J275500D01*
G01*
X177095120Y-207590440D01*
G75*
G02*
X177370620Y-207314940I275500J0D01*
G01*
X178371620Y-207314940D01*
G75*
G02*
X178647120Y-207590440I0J-275500D01*
G01*
X178647120Y-208141440D01*
G75*
G02*
X178371620Y-208416940I-275500J0D01*
G01*
G37*
G36*
G01*
X178371620Y-210316940D02*
X177370620Y-210316940D01*
G75*
G02*
X177095120Y-210041440I0J275500D01*
G01*
X177095120Y-209490440D01*
G75*
G02*
X177370620Y-209214940I275500J0D01*
G01*
X178371620Y-209214940D01*
G75*
G02*
X178647120Y-209490440I0J-275500D01*
G01*
X178647120Y-210041440D01*
G75*
G02*
X178371620Y-210316940I-275500J0D01*
G01*
G37*
G36*
G01*
X156651840Y-194622640D02*
X157652840Y-194622640D01*
G75*
G02*
X157928340Y-194898140I0J-275500D01*
G01*
X157928340Y-195449140D01*
G75*
G02*
X157652840Y-195724640I-275500J0D01*
G01*
X156651840Y-195724640D01*
G75*
G02*
X156376340Y-195449140I0J275500D01*
G01*
X156376340Y-194898140D01*
G75*
G02*
X156651840Y-194622640I275500J0D01*
G01*
G37*
G36*
G01*
X156651840Y-192722640D02*
X157652840Y-192722640D01*
G75*
G02*
X157928340Y-192998140I0J-275500D01*
G01*
X157928340Y-193549140D01*
G75*
G02*
X157652840Y-193824640I-275500J0D01*
G01*
X156651840Y-193824640D01*
G75*
G02*
X156376340Y-193549140I0J275500D01*
G01*
X156376340Y-192998140D01*
G75*
G02*
X156651840Y-192722640I275500J0D01*
G01*
G37*
G36*
G01*
X176212620Y-208416940D02*
X175211620Y-208416940D01*
G75*
G02*
X174936120Y-208141440I0J275500D01*
G01*
X174936120Y-207590440D01*
G75*
G02*
X175211620Y-207314940I275500J0D01*
G01*
X176212620Y-207314940D01*
G75*
G02*
X176488120Y-207590440I0J-275500D01*
G01*
X176488120Y-208141440D01*
G75*
G02*
X176212620Y-208416940I-275500J0D01*
G01*
G37*
G36*
G01*
X176212620Y-210316940D02*
X175211620Y-210316940D01*
G75*
G02*
X174936120Y-210041440I0J275500D01*
G01*
X174936120Y-209490440D01*
G75*
G02*
X175211620Y-209214940I275500J0D01*
G01*
X176212620Y-209214940D01*
G75*
G02*
X176488120Y-209490440I0J-275500D01*
G01*
X176488120Y-210041440D01*
G75*
G02*
X176212620Y-210316940I-275500J0D01*
G01*
G37*
G36*
G01*
X171876500Y-176542580D02*
X171876500Y-177543580D01*
G75*
G02*
X171601000Y-177819080I-275500J0D01*
G01*
X171050000Y-177819080D01*
G75*
G02*
X170774500Y-177543580I0J275500D01*
G01*
X170774500Y-176542580D01*
G75*
G02*
X171050000Y-176267080I275500J0D01*
G01*
X171601000Y-176267080D01*
G75*
G02*
X171876500Y-176542580I0J-275500D01*
G01*
G37*
G36*
G01*
X173776500Y-176542580D02*
X173776500Y-177543580D01*
G75*
G02*
X173501000Y-177819080I-275500J0D01*
G01*
X172950000Y-177819080D01*
G75*
G02*
X172674500Y-177543580I0J275500D01*
G01*
X172674500Y-176542580D01*
G75*
G02*
X172950000Y-176267080I275500J0D01*
G01*
X173501000Y-176267080D01*
G75*
G02*
X173776500Y-176542580I0J-275500D01*
G01*
G37*
G36*
G01*
X158544140Y-135620980D02*
X159545140Y-135620980D01*
G75*
G02*
X159820640Y-135896480I0J-275500D01*
G01*
X159820640Y-136447480D01*
G75*
G02*
X159545140Y-136722980I-275500J0D01*
G01*
X158544140Y-136722980D01*
G75*
G02*
X158268640Y-136447480I0J275500D01*
G01*
X158268640Y-135896480D01*
G75*
G02*
X158544140Y-135620980I275500J0D01*
G01*
G37*
G36*
G01*
X158544140Y-133720980D02*
X159545140Y-133720980D01*
G75*
G02*
X159820640Y-133996480I0J-275500D01*
G01*
X159820640Y-134547480D01*
G75*
G02*
X159545140Y-134822980I-275500J0D01*
G01*
X158544140Y-134822980D01*
G75*
G02*
X158268640Y-134547480I0J275500D01*
G01*
X158268640Y-133996480D01*
G75*
G02*
X158544140Y-133720980I275500J0D01*
G01*
G37*
G36*
G01*
X170929520Y-129430900D02*
X170929520Y-128429900D01*
G75*
G02*
X171205020Y-128154400I275500J0D01*
G01*
X171756020Y-128154400D01*
G75*
G02*
X172031520Y-128429900I0J-275500D01*
G01*
X172031520Y-129430900D01*
G75*
G02*
X171756020Y-129706400I-275500J0D01*
G01*
X171205020Y-129706400D01*
G75*
G02*
X170929520Y-129430900I0J275500D01*
G01*
G37*
G36*
G01*
X169029520Y-129430900D02*
X169029520Y-128429900D01*
G75*
G02*
X169305020Y-128154400I275500J0D01*
G01*
X169856020Y-128154400D01*
G75*
G02*
X170131520Y-128429900I0J-275500D01*
G01*
X170131520Y-129430900D01*
G75*
G02*
X169856020Y-129706400I-275500J0D01*
G01*
X169305020Y-129706400D01*
G75*
G02*
X169029520Y-129430900I0J275500D01*
G01*
G37*
G36*
G01*
X111864020Y-165514240D02*
X112865020Y-165514240D01*
G75*
G02*
X113140520Y-165789740I0J-275500D01*
G01*
X113140520Y-166340740D01*
G75*
G02*
X112865020Y-166616240I-275500J0D01*
G01*
X111864020Y-166616240D01*
G75*
G02*
X111588520Y-166340740I0J275500D01*
G01*
X111588520Y-165789740D01*
G75*
G02*
X111864020Y-165514240I275500J0D01*
G01*
G37*
G36*
G01*
X111864020Y-163614240D02*
X112865020Y-163614240D01*
G75*
G02*
X113140520Y-163889740I0J-275500D01*
G01*
X113140520Y-164440740D01*
G75*
G02*
X112865020Y-164716240I-275500J0D01*
G01*
X111864020Y-164716240D01*
G75*
G02*
X111588520Y-164440740I0J275500D01*
G01*
X111588520Y-163889740D01*
G75*
G02*
X111864020Y-163614240I275500J0D01*
G01*
G37*
G36*
G01*
X129715140Y-165448160D02*
X130716140Y-165448160D01*
G75*
G02*
X130991640Y-165723660I0J-275500D01*
G01*
X130991640Y-166274660D01*
G75*
G02*
X130716140Y-166550160I-275500J0D01*
G01*
X129715140Y-166550160D01*
G75*
G02*
X129439640Y-166274660I0J275500D01*
G01*
X129439640Y-165723660D01*
G75*
G02*
X129715140Y-165448160I275500J0D01*
G01*
G37*
G36*
G01*
X129715140Y-163548160D02*
X130716140Y-163548160D01*
G75*
G02*
X130991640Y-163823660I0J-275500D01*
G01*
X130991640Y-164374660D01*
G75*
G02*
X130716140Y-164650160I-275500J0D01*
G01*
X129715140Y-164650160D01*
G75*
G02*
X129439640Y-164374660I0J275500D01*
G01*
X129439640Y-163823660D01*
G75*
G02*
X129715140Y-163548160I275500J0D01*
G01*
G37*
G36*
G01*
X178346320Y-131219060D02*
X178346320Y-130218060D01*
G75*
G02*
X178621820Y-129942560I275500J0D01*
G01*
X179172820Y-129942560D01*
G75*
G02*
X179448320Y-130218060I0J-275500D01*
G01*
X179448320Y-131219060D01*
G75*
G02*
X179172820Y-131494560I-275500J0D01*
G01*
X178621820Y-131494560D01*
G75*
G02*
X178346320Y-131219060I0J275500D01*
G01*
G37*
G36*
G01*
X176446320Y-131219060D02*
X176446320Y-130218060D01*
G75*
G02*
X176721820Y-129942560I275500J0D01*
G01*
X177272820Y-129942560D01*
G75*
G02*
X177548320Y-130218060I0J-275500D01*
G01*
X177548320Y-131219060D01*
G75*
G02*
X177272820Y-131494560I-275500J0D01*
G01*
X176721820Y-131494560D01*
G75*
G02*
X176446320Y-131219060I0J275500D01*
G01*
G37*
G36*
G01*
X176309240Y-134932540D02*
X176309240Y-133931540D01*
G75*
G02*
X176584740Y-133656040I275500J0D01*
G01*
X177135740Y-133656040D01*
G75*
G02*
X177411240Y-133931540I0J-275500D01*
G01*
X177411240Y-134932540D01*
G75*
G02*
X177135740Y-135208040I-275500J0D01*
G01*
X176584740Y-135208040D01*
G75*
G02*
X176309240Y-134932540I0J275500D01*
G01*
G37*
G36*
G01*
X174409240Y-134932540D02*
X174409240Y-133931540D01*
G75*
G02*
X174684740Y-133656040I275500J0D01*
G01*
X175235740Y-133656040D01*
G75*
G02*
X175511240Y-133931540I0J-275500D01*
G01*
X175511240Y-134932540D01*
G75*
G02*
X175235740Y-135208040I-275500J0D01*
G01*
X174684740Y-135208040D01*
G75*
G02*
X174409240Y-134932540I0J275500D01*
G01*
G37*
G36*
G01*
X176292440Y-139259340D02*
X176292440Y-138258340D01*
G75*
G02*
X176567940Y-137982840I275500J0D01*
G01*
X177118940Y-137982840D01*
G75*
G02*
X177394440Y-138258340I0J-275500D01*
G01*
X177394440Y-139259340D01*
G75*
G02*
X177118940Y-139534840I-275500J0D01*
G01*
X176567940Y-139534840D01*
G75*
G02*
X176292440Y-139259340I0J275500D01*
G01*
G37*
G36*
G01*
X174392440Y-139259340D02*
X174392440Y-138258340D01*
G75*
G02*
X174667940Y-137982840I275500J0D01*
G01*
X175218940Y-137982840D01*
G75*
G02*
X175494440Y-138258340I0J-275500D01*
G01*
X175494440Y-139259340D01*
G75*
G02*
X175218940Y-139534840I-275500J0D01*
G01*
X174667940Y-139534840D01*
G75*
G02*
X174392440Y-139259340I0J275500D01*
G01*
G37*
G36*
G01*
X176309240Y-137142340D02*
X176309240Y-136141340D01*
G75*
G02*
X176584740Y-135865840I275500J0D01*
G01*
X177135740Y-135865840D01*
G75*
G02*
X177411240Y-136141340I0J-275500D01*
G01*
X177411240Y-137142340D01*
G75*
G02*
X177135740Y-137417840I-275500J0D01*
G01*
X176584740Y-137417840D01*
G75*
G02*
X176309240Y-137142340I0J275500D01*
G01*
G37*
G36*
G01*
X174409240Y-137142340D02*
X174409240Y-136141340D01*
G75*
G02*
X174684740Y-135865840I275500J0D01*
G01*
X175235740Y-135865840D01*
G75*
G02*
X175511240Y-136141340I0J-275500D01*
G01*
X175511240Y-137142340D01*
G75*
G02*
X175235740Y-137417840I-275500J0D01*
G01*
X174684740Y-137417840D01*
G75*
G02*
X174409240Y-137142340I0J275500D01*
G01*
G37*
G36*
G01*
X178356480Y-161638100D02*
X178356480Y-160637100D01*
G75*
G02*
X178631980Y-160361600I275500J0D01*
G01*
X179182980Y-160361600D01*
G75*
G02*
X179458480Y-160637100I0J-275500D01*
G01*
X179458480Y-161638100D01*
G75*
G02*
X179182980Y-161913600I-275500J0D01*
G01*
X178631980Y-161913600D01*
G75*
G02*
X178356480Y-161638100I0J275500D01*
G01*
G37*
G36*
G01*
X176456480Y-161638100D02*
X176456480Y-160637100D01*
G75*
G02*
X176731980Y-160361600I275500J0D01*
G01*
X177282980Y-160361600D01*
G75*
G02*
X177558480Y-160637100I0J-275500D01*
G01*
X177558480Y-161638100D01*
G75*
G02*
X177282980Y-161913600I-275500J0D01*
G01*
X176731980Y-161913600D01*
G75*
G02*
X176456480Y-161638100I0J275500D01*
G01*
G37*
D29*
G36*
X177255858Y-173223090D02*
G01*
X177274166Y-173224893D01*
X177274551Y-173224969D01*
X177286256Y-173228520D01*
X177286618Y-173228670D01*
X177297408Y-173234437D01*
X177297734Y-173234655D01*
X177311757Y-173246164D01*
X177311902Y-173246296D01*
X177320778Y-173255171D01*
X177340825Y-173268566D01*
X177363099Y-173277791D01*
X177386750Y-173282495D01*
X177410856Y-173282495D01*
X177434506Y-173277790D01*
X177456779Y-173268563D01*
X177476827Y-173255168D01*
X177485703Y-173246292D01*
X177485848Y-173246160D01*
X177499866Y-173234655D01*
X177500192Y-173234437D01*
X177510982Y-173228670D01*
X177511344Y-173228520D01*
X177523049Y-173224969D01*
X177523434Y-173224893D01*
X177541742Y-173223090D01*
X177541938Y-173223080D01*
X177598300Y-173223080D01*
X177600032Y-173224080D01*
X177600032Y-173226080D01*
X177598496Y-173227070D01*
X177574211Y-173229461D01*
X177551042Y-173236490D01*
X177529692Y-173247902D01*
X177510979Y-173263259D01*
X177495622Y-173281972D01*
X177484210Y-173303322D01*
X177477181Y-173326491D01*
X177474800Y-173350674D01*
X177474800Y-174776486D01*
X177477181Y-174800669D01*
X177484210Y-174823838D01*
X177495622Y-174845188D01*
X177510979Y-174863901D01*
X177529692Y-174879258D01*
X177551042Y-174890670D01*
X177574211Y-174897699D01*
X177598496Y-174900090D01*
X177600122Y-174901255D01*
X177599926Y-174903245D01*
X177598300Y-174904080D01*
X177541938Y-174904080D01*
X177541742Y-174904070D01*
X177523434Y-174902267D01*
X177523049Y-174902191D01*
X177511344Y-174898640D01*
X177510982Y-174898490D01*
X177500192Y-174892723D01*
X177499866Y-174892505D01*
X177485843Y-174880996D01*
X177485698Y-174880864D01*
X177476822Y-174871989D01*
X177456775Y-174858594D01*
X177434501Y-174849369D01*
X177410850Y-174844665D01*
X177386744Y-174844665D01*
X177363094Y-174849370D01*
X177340821Y-174858597D01*
X177320773Y-174871992D01*
X177311897Y-174880868D01*
X177311752Y-174881000D01*
X177297734Y-174892505D01*
X177297408Y-174892723D01*
X177286618Y-174898490D01*
X177286256Y-174898640D01*
X177274551Y-174902191D01*
X177274166Y-174902267D01*
X177255858Y-174904070D01*
X177255662Y-174904080D01*
X177199300Y-174904080D01*
X177197568Y-174903080D01*
X177197568Y-174901080D01*
X177199104Y-174900090D01*
X177223389Y-174897699D01*
X177246558Y-174890670D01*
X177267908Y-174879258D01*
X177286621Y-174863901D01*
X177301978Y-174845188D01*
X177313390Y-174823838D01*
X177320419Y-174800669D01*
X177322800Y-174776486D01*
X177322800Y-173350674D01*
X177320419Y-173326491D01*
X177313390Y-173303322D01*
X177301978Y-173281972D01*
X177286621Y-173263259D01*
X177267908Y-173247902D01*
X177246558Y-173236490D01*
X177223389Y-173229461D01*
X177199104Y-173227070D01*
X177197478Y-173225905D01*
X177197674Y-173223915D01*
X177199300Y-173223080D01*
X177255662Y-173223080D01*
X177255858Y-173223090D01*
G37*
G36*
X176605858Y-173223090D02*
G01*
X176624166Y-173224893D01*
X176624551Y-173224969D01*
X176636256Y-173228520D01*
X176636618Y-173228670D01*
X176647408Y-173234437D01*
X176647734Y-173234655D01*
X176661757Y-173246164D01*
X176661902Y-173246296D01*
X176670778Y-173255171D01*
X176690825Y-173268566D01*
X176713099Y-173277791D01*
X176736750Y-173282495D01*
X176760856Y-173282495D01*
X176784506Y-173277790D01*
X176806779Y-173268563D01*
X176826827Y-173255168D01*
X176835703Y-173246292D01*
X176835848Y-173246160D01*
X176849866Y-173234655D01*
X176850192Y-173234437D01*
X176860982Y-173228670D01*
X176861344Y-173228520D01*
X176873049Y-173224969D01*
X176873434Y-173224893D01*
X176891742Y-173223090D01*
X176891938Y-173223080D01*
X176948300Y-173223080D01*
X176950032Y-173224080D01*
X176950032Y-173226080D01*
X176948496Y-173227070D01*
X176924211Y-173229461D01*
X176901042Y-173236490D01*
X176879692Y-173247902D01*
X176860979Y-173263259D01*
X176845622Y-173281972D01*
X176834210Y-173303322D01*
X176827181Y-173326491D01*
X176824800Y-173350674D01*
X176824800Y-174776486D01*
X176827181Y-174800669D01*
X176834210Y-174823838D01*
X176845622Y-174845188D01*
X176860979Y-174863901D01*
X176879692Y-174879258D01*
X176901042Y-174890670D01*
X176924211Y-174897699D01*
X176948496Y-174900090D01*
X176950122Y-174901255D01*
X176949926Y-174903245D01*
X176948300Y-174904080D01*
X176891938Y-174904080D01*
X176891742Y-174904070D01*
X176873434Y-174902267D01*
X176873049Y-174902191D01*
X176861344Y-174898640D01*
X176860982Y-174898490D01*
X176850192Y-174892723D01*
X176849866Y-174892505D01*
X176835843Y-174880996D01*
X176835698Y-174880864D01*
X176826822Y-174871989D01*
X176806775Y-174858594D01*
X176784501Y-174849369D01*
X176760850Y-174844665D01*
X176736744Y-174844665D01*
X176713094Y-174849370D01*
X176690821Y-174858597D01*
X176670773Y-174871992D01*
X176661897Y-174880868D01*
X176661752Y-174881000D01*
X176647734Y-174892505D01*
X176647408Y-174892723D01*
X176636618Y-174898490D01*
X176636256Y-174898640D01*
X176624551Y-174902191D01*
X176624166Y-174902267D01*
X176605858Y-174904070D01*
X176605662Y-174904080D01*
X176549300Y-174904080D01*
X176547568Y-174903080D01*
X176547568Y-174901080D01*
X176549104Y-174900090D01*
X176573389Y-174897699D01*
X176596558Y-174890670D01*
X176617908Y-174879258D01*
X176636621Y-174863901D01*
X176651978Y-174845188D01*
X176663390Y-174823838D01*
X176670419Y-174800669D01*
X176672800Y-174776486D01*
X176672800Y-173350674D01*
X176670419Y-173326491D01*
X176663390Y-173303322D01*
X176651978Y-173281972D01*
X176636621Y-173263259D01*
X176617908Y-173247902D01*
X176596558Y-173236490D01*
X176573389Y-173229461D01*
X176549104Y-173227070D01*
X176547478Y-173225905D01*
X176547674Y-173223915D01*
X176549300Y-173223080D01*
X176605662Y-173223080D01*
X176605858Y-173223090D01*
G37*
G36*
X175955858Y-173223090D02*
G01*
X175974166Y-173224893D01*
X175974551Y-173224969D01*
X175986256Y-173228520D01*
X175986618Y-173228670D01*
X175997408Y-173234437D01*
X175997734Y-173234655D01*
X176011757Y-173246164D01*
X176011902Y-173246296D01*
X176020778Y-173255171D01*
X176040825Y-173268566D01*
X176063099Y-173277791D01*
X176086750Y-173282495D01*
X176110856Y-173282495D01*
X176134506Y-173277790D01*
X176156779Y-173268563D01*
X176176827Y-173255168D01*
X176185703Y-173246292D01*
X176185848Y-173246160D01*
X176199866Y-173234655D01*
X176200192Y-173234437D01*
X176210982Y-173228670D01*
X176211344Y-173228520D01*
X176223049Y-173224969D01*
X176223434Y-173224893D01*
X176241742Y-173223090D01*
X176241938Y-173223080D01*
X176298300Y-173223080D01*
X176300032Y-173224080D01*
X176300032Y-173226080D01*
X176298496Y-173227070D01*
X176274211Y-173229461D01*
X176251042Y-173236490D01*
X176229692Y-173247902D01*
X176210979Y-173263259D01*
X176195622Y-173281972D01*
X176184210Y-173303322D01*
X176177181Y-173326491D01*
X176174800Y-173350674D01*
X176174800Y-174776486D01*
X176177181Y-174800669D01*
X176184210Y-174823838D01*
X176195622Y-174845188D01*
X176210979Y-174863901D01*
X176229692Y-174879258D01*
X176251042Y-174890670D01*
X176274211Y-174897699D01*
X176298496Y-174900090D01*
X176300122Y-174901255D01*
X176299926Y-174903245D01*
X176298300Y-174904080D01*
X176241938Y-174904080D01*
X176241742Y-174904070D01*
X176223434Y-174902267D01*
X176223049Y-174902191D01*
X176211344Y-174898640D01*
X176210982Y-174898490D01*
X176200192Y-174892723D01*
X176199866Y-174892505D01*
X176185843Y-174880996D01*
X176185698Y-174880864D01*
X176176822Y-174871989D01*
X176156775Y-174858594D01*
X176134501Y-174849369D01*
X176110850Y-174844665D01*
X176086744Y-174844665D01*
X176063094Y-174849370D01*
X176040821Y-174858597D01*
X176020773Y-174871992D01*
X176011897Y-174880868D01*
X176011752Y-174881000D01*
X175997734Y-174892505D01*
X175997408Y-174892723D01*
X175986618Y-174898490D01*
X175986256Y-174898640D01*
X175974551Y-174902191D01*
X175974166Y-174902267D01*
X175955858Y-174904070D01*
X175955662Y-174904080D01*
X175899300Y-174904080D01*
X175897568Y-174903080D01*
X175897568Y-174901080D01*
X175899104Y-174900090D01*
X175923389Y-174897699D01*
X175946558Y-174890670D01*
X175967908Y-174879258D01*
X175986621Y-174863901D01*
X176001978Y-174845188D01*
X176013390Y-174823838D01*
X176020419Y-174800669D01*
X176022800Y-174776486D01*
X176022800Y-173350674D01*
X176020419Y-173326491D01*
X176013390Y-173303322D01*
X176001978Y-173281972D01*
X175986621Y-173263259D01*
X175967908Y-173247902D01*
X175946558Y-173236490D01*
X175923389Y-173229461D01*
X175899104Y-173227070D01*
X175897478Y-173225905D01*
X175897674Y-173223915D01*
X175899300Y-173223080D01*
X175955662Y-173223080D01*
X175955858Y-173223090D01*
G37*
G36*
X178555858Y-173223090D02*
G01*
X178574166Y-173224893D01*
X178574551Y-173224969D01*
X178586256Y-173228520D01*
X178586618Y-173228670D01*
X178597408Y-173234437D01*
X178597734Y-173234655D01*
X178611757Y-173246164D01*
X178611902Y-173246296D01*
X178620778Y-173255171D01*
X178640825Y-173268566D01*
X178663099Y-173277791D01*
X178686750Y-173282495D01*
X178710856Y-173282495D01*
X178734506Y-173277790D01*
X178756779Y-173268563D01*
X178776827Y-173255168D01*
X178785703Y-173246292D01*
X178785848Y-173246160D01*
X178799866Y-173234655D01*
X178800192Y-173234437D01*
X178810982Y-173228670D01*
X178811344Y-173228520D01*
X178823049Y-173224969D01*
X178823434Y-173224893D01*
X178841742Y-173223090D01*
X178841938Y-173223080D01*
X178898300Y-173223080D01*
X178900032Y-173224080D01*
X178900032Y-173226080D01*
X178898496Y-173227070D01*
X178874211Y-173229461D01*
X178851042Y-173236490D01*
X178829692Y-173247902D01*
X178810979Y-173263259D01*
X178795622Y-173281972D01*
X178784210Y-173303322D01*
X178777181Y-173326491D01*
X178774800Y-173350674D01*
X178774800Y-174776486D01*
X178777181Y-174800669D01*
X178784210Y-174823838D01*
X178795622Y-174845188D01*
X178810979Y-174863901D01*
X178829692Y-174879258D01*
X178851042Y-174890670D01*
X178874211Y-174897699D01*
X178898496Y-174900090D01*
X178900122Y-174901255D01*
X178899926Y-174903245D01*
X178898300Y-174904080D01*
X178841938Y-174904080D01*
X178841742Y-174904070D01*
X178823434Y-174902267D01*
X178823049Y-174902191D01*
X178811344Y-174898640D01*
X178810982Y-174898490D01*
X178800192Y-174892723D01*
X178799866Y-174892505D01*
X178785843Y-174880996D01*
X178785698Y-174880864D01*
X178776822Y-174871989D01*
X178756775Y-174858594D01*
X178734501Y-174849369D01*
X178710850Y-174844665D01*
X178686744Y-174844665D01*
X178663094Y-174849370D01*
X178640821Y-174858597D01*
X178620773Y-174871992D01*
X178611897Y-174880868D01*
X178611752Y-174881000D01*
X178597734Y-174892505D01*
X178597408Y-174892723D01*
X178586618Y-174898490D01*
X178586256Y-174898640D01*
X178574551Y-174902191D01*
X178574166Y-174902267D01*
X178555858Y-174904070D01*
X178555662Y-174904080D01*
X178499300Y-174904080D01*
X178497568Y-174903080D01*
X178497568Y-174901080D01*
X178499104Y-174900090D01*
X178523389Y-174897699D01*
X178546558Y-174890670D01*
X178567908Y-174879258D01*
X178586621Y-174863901D01*
X178601978Y-174845188D01*
X178613390Y-174823838D01*
X178620419Y-174800669D01*
X178622800Y-174776486D01*
X178622800Y-173350674D01*
X178620419Y-173326491D01*
X178613390Y-173303322D01*
X178601978Y-173281972D01*
X178586621Y-173263259D01*
X178567908Y-173247902D01*
X178546558Y-173236490D01*
X178523389Y-173229461D01*
X178499104Y-173227070D01*
X178497478Y-173225905D01*
X178497674Y-173223915D01*
X178499300Y-173223080D01*
X178555662Y-173223080D01*
X178555858Y-173223090D01*
G37*
G36*
X177905858Y-173223090D02*
G01*
X177924166Y-173224893D01*
X177924551Y-173224969D01*
X177936256Y-173228520D01*
X177936618Y-173228670D01*
X177947408Y-173234437D01*
X177947734Y-173234655D01*
X177961757Y-173246164D01*
X177961902Y-173246296D01*
X177970778Y-173255171D01*
X177990825Y-173268566D01*
X178013099Y-173277791D01*
X178036750Y-173282495D01*
X178060856Y-173282495D01*
X178084506Y-173277790D01*
X178106779Y-173268563D01*
X178126827Y-173255168D01*
X178135703Y-173246292D01*
X178135848Y-173246160D01*
X178149866Y-173234655D01*
X178150192Y-173234437D01*
X178160982Y-173228670D01*
X178161344Y-173228520D01*
X178173049Y-173224969D01*
X178173434Y-173224893D01*
X178191742Y-173223090D01*
X178191938Y-173223080D01*
X178248300Y-173223080D01*
X178250032Y-173224080D01*
X178250032Y-173226080D01*
X178248496Y-173227070D01*
X178224211Y-173229461D01*
X178201042Y-173236490D01*
X178179692Y-173247902D01*
X178160979Y-173263259D01*
X178145622Y-173281972D01*
X178134210Y-173303322D01*
X178127181Y-173326491D01*
X178124800Y-173350674D01*
X178124800Y-174776486D01*
X178127181Y-174800669D01*
X178134210Y-174823838D01*
X178145622Y-174845188D01*
X178160979Y-174863901D01*
X178179692Y-174879258D01*
X178201042Y-174890670D01*
X178224211Y-174897699D01*
X178248496Y-174900090D01*
X178250122Y-174901255D01*
X178249926Y-174903245D01*
X178248300Y-174904080D01*
X178191938Y-174904080D01*
X178191742Y-174904070D01*
X178173434Y-174902267D01*
X178173049Y-174902191D01*
X178161344Y-174898640D01*
X178160982Y-174898490D01*
X178150192Y-174892723D01*
X178149866Y-174892505D01*
X178135843Y-174880996D01*
X178135698Y-174880864D01*
X178126822Y-174871989D01*
X178106775Y-174858594D01*
X178084501Y-174849369D01*
X178060850Y-174844665D01*
X178036744Y-174844665D01*
X178013094Y-174849370D01*
X177990821Y-174858597D01*
X177970773Y-174871992D01*
X177961897Y-174880868D01*
X177961752Y-174881000D01*
X177947734Y-174892505D01*
X177947408Y-174892723D01*
X177936618Y-174898490D01*
X177936256Y-174898640D01*
X177924551Y-174902191D01*
X177924166Y-174902267D01*
X177905858Y-174904070D01*
X177905662Y-174904080D01*
X177849300Y-174904080D01*
X177847568Y-174903080D01*
X177847568Y-174901080D01*
X177849104Y-174900090D01*
X177873389Y-174897699D01*
X177896558Y-174890670D01*
X177917908Y-174879258D01*
X177936621Y-174863901D01*
X177951978Y-174845188D01*
X177963390Y-174823838D01*
X177970419Y-174800669D01*
X177972800Y-174776486D01*
X177972800Y-173350674D01*
X177970419Y-173326491D01*
X177963390Y-173303322D01*
X177951978Y-173281972D01*
X177936621Y-173263259D01*
X177917908Y-173247902D01*
X177896558Y-173236490D01*
X177873389Y-173229461D01*
X177849104Y-173227070D01*
X177847478Y-173225905D01*
X177847674Y-173223915D01*
X177849300Y-173223080D01*
X177905662Y-173223080D01*
X177905858Y-173223090D01*
G37*
G36*
X179205858Y-173223090D02*
G01*
X179224166Y-173224893D01*
X179224551Y-173224969D01*
X179236256Y-173228520D01*
X179236618Y-173228670D01*
X179247408Y-173234437D01*
X179247734Y-173234655D01*
X179261757Y-173246164D01*
X179261902Y-173246296D01*
X179270778Y-173255171D01*
X179290825Y-173268566D01*
X179313099Y-173277791D01*
X179336750Y-173282495D01*
X179360856Y-173282495D01*
X179384506Y-173277790D01*
X179406779Y-173268563D01*
X179426827Y-173255168D01*
X179435703Y-173246292D01*
X179435848Y-173246160D01*
X179449866Y-173234655D01*
X179450192Y-173234437D01*
X179460982Y-173228670D01*
X179461344Y-173228520D01*
X179473049Y-173224969D01*
X179473434Y-173224893D01*
X179491742Y-173223090D01*
X179491938Y-173223080D01*
X179548300Y-173223080D01*
X179550032Y-173224080D01*
X179550032Y-173226080D01*
X179548496Y-173227070D01*
X179524211Y-173229461D01*
X179501042Y-173236490D01*
X179479692Y-173247902D01*
X179460979Y-173263259D01*
X179445622Y-173281972D01*
X179434210Y-173303322D01*
X179427181Y-173326491D01*
X179424800Y-173350674D01*
X179424800Y-174776486D01*
X179427181Y-174800669D01*
X179434210Y-174823838D01*
X179445622Y-174845188D01*
X179460979Y-174863901D01*
X179479692Y-174879258D01*
X179501042Y-174890670D01*
X179524211Y-174897699D01*
X179548496Y-174900090D01*
X179550122Y-174901255D01*
X179549926Y-174903245D01*
X179548300Y-174904080D01*
X179491938Y-174904080D01*
X179491742Y-174904070D01*
X179473434Y-174902267D01*
X179473049Y-174902191D01*
X179461344Y-174898640D01*
X179460982Y-174898490D01*
X179450192Y-174892723D01*
X179449866Y-174892505D01*
X179435843Y-174880996D01*
X179435698Y-174880864D01*
X179426822Y-174871989D01*
X179406775Y-174858594D01*
X179384501Y-174849369D01*
X179360850Y-174844665D01*
X179336744Y-174844665D01*
X179313094Y-174849370D01*
X179290821Y-174858597D01*
X179270773Y-174871992D01*
X179261897Y-174880868D01*
X179261752Y-174881000D01*
X179247734Y-174892505D01*
X179247408Y-174892723D01*
X179236618Y-174898490D01*
X179236256Y-174898640D01*
X179224551Y-174902191D01*
X179224166Y-174902267D01*
X179205858Y-174904070D01*
X179205662Y-174904080D01*
X179149300Y-174904080D01*
X179147568Y-174903080D01*
X179147568Y-174901080D01*
X179149104Y-174900090D01*
X179173389Y-174897699D01*
X179196558Y-174890670D01*
X179217908Y-174879258D01*
X179236621Y-174863901D01*
X179251978Y-174845188D01*
X179263390Y-174823838D01*
X179270419Y-174800669D01*
X179272800Y-174776486D01*
X179272800Y-173350674D01*
X179270419Y-173326491D01*
X179263390Y-173303322D01*
X179251978Y-173281972D01*
X179236621Y-173263259D01*
X179217908Y-173247902D01*
X179196558Y-173236490D01*
X179173389Y-173229461D01*
X179149104Y-173227070D01*
X179147478Y-173225905D01*
X179147674Y-173223915D01*
X179149300Y-173223080D01*
X179205662Y-173223080D01*
X179205858Y-173223090D01*
G37*
G36*
X179205858Y-167498090D02*
G01*
X179224166Y-167499893D01*
X179224551Y-167499969D01*
X179236256Y-167503520D01*
X179236618Y-167503670D01*
X179247408Y-167509437D01*
X179247734Y-167509655D01*
X179261757Y-167521164D01*
X179261902Y-167521296D01*
X179270778Y-167530171D01*
X179290825Y-167543566D01*
X179313099Y-167552791D01*
X179336750Y-167557495D01*
X179360856Y-167557495D01*
X179384506Y-167552790D01*
X179406779Y-167543563D01*
X179426827Y-167530168D01*
X179435703Y-167521292D01*
X179435848Y-167521160D01*
X179449866Y-167509655D01*
X179450192Y-167509437D01*
X179460982Y-167503670D01*
X179461344Y-167503520D01*
X179473049Y-167499969D01*
X179473434Y-167499893D01*
X179491742Y-167498090D01*
X179491938Y-167498080D01*
X179548300Y-167498080D01*
X179550032Y-167499080D01*
X179550032Y-167501080D01*
X179548496Y-167502070D01*
X179524211Y-167504461D01*
X179501042Y-167511490D01*
X179479692Y-167522902D01*
X179460979Y-167538259D01*
X179445622Y-167556972D01*
X179434210Y-167578322D01*
X179427181Y-167601491D01*
X179424800Y-167625674D01*
X179424800Y-169051486D01*
X179427181Y-169075669D01*
X179434210Y-169098838D01*
X179445622Y-169120188D01*
X179460979Y-169138901D01*
X179479692Y-169154258D01*
X179501042Y-169165670D01*
X179524211Y-169172699D01*
X179548496Y-169175090D01*
X179550122Y-169176255D01*
X179549926Y-169178245D01*
X179548300Y-169179080D01*
X179491938Y-169179080D01*
X179491742Y-169179070D01*
X179473434Y-169177267D01*
X179473049Y-169177191D01*
X179461344Y-169173640D01*
X179460982Y-169173490D01*
X179450192Y-169167723D01*
X179449866Y-169167505D01*
X179435843Y-169155996D01*
X179435698Y-169155864D01*
X179426822Y-169146989D01*
X179406775Y-169133594D01*
X179384501Y-169124369D01*
X179360850Y-169119665D01*
X179336744Y-169119665D01*
X179313094Y-169124370D01*
X179290821Y-169133597D01*
X179270773Y-169146992D01*
X179261897Y-169155868D01*
X179261752Y-169156000D01*
X179247734Y-169167505D01*
X179247408Y-169167723D01*
X179236618Y-169173490D01*
X179236256Y-169173640D01*
X179224551Y-169177191D01*
X179224166Y-169177267D01*
X179205858Y-169179070D01*
X179205662Y-169179080D01*
X179149300Y-169179080D01*
X179147568Y-169178080D01*
X179147568Y-169176080D01*
X179149104Y-169175090D01*
X179173389Y-169172699D01*
X179196558Y-169165670D01*
X179217908Y-169154258D01*
X179236621Y-169138901D01*
X179251978Y-169120188D01*
X179263390Y-169098838D01*
X179270419Y-169075669D01*
X179272800Y-169051486D01*
X179272800Y-167625674D01*
X179270419Y-167601491D01*
X179263390Y-167578322D01*
X179251978Y-167556972D01*
X179236621Y-167538259D01*
X179217908Y-167522902D01*
X179196558Y-167511490D01*
X179173389Y-167504461D01*
X179149104Y-167502070D01*
X179147478Y-167500905D01*
X179147674Y-167498915D01*
X179149300Y-167498080D01*
X179205662Y-167498080D01*
X179205858Y-167498090D01*
G37*
G36*
X176605858Y-167498090D02*
G01*
X176624166Y-167499893D01*
X176624551Y-167499969D01*
X176636256Y-167503520D01*
X176636618Y-167503670D01*
X176647408Y-167509437D01*
X176647734Y-167509655D01*
X176661757Y-167521164D01*
X176661902Y-167521296D01*
X176670778Y-167530171D01*
X176690825Y-167543566D01*
X176713099Y-167552791D01*
X176736750Y-167557495D01*
X176760856Y-167557495D01*
X176784506Y-167552790D01*
X176806779Y-167543563D01*
X176826827Y-167530168D01*
X176835703Y-167521292D01*
X176835848Y-167521160D01*
X176849866Y-167509655D01*
X176850192Y-167509437D01*
X176860982Y-167503670D01*
X176861344Y-167503520D01*
X176873049Y-167499969D01*
X176873434Y-167499893D01*
X176891742Y-167498090D01*
X176891938Y-167498080D01*
X176948300Y-167498080D01*
X176950032Y-167499080D01*
X176950032Y-167501080D01*
X176948496Y-167502070D01*
X176924211Y-167504461D01*
X176901042Y-167511490D01*
X176879692Y-167522902D01*
X176860979Y-167538259D01*
X176845622Y-167556972D01*
X176834210Y-167578322D01*
X176827181Y-167601491D01*
X176824800Y-167625674D01*
X176824800Y-169051486D01*
X176827181Y-169075669D01*
X176834210Y-169098838D01*
X176845622Y-169120188D01*
X176860979Y-169138901D01*
X176879692Y-169154258D01*
X176901042Y-169165670D01*
X176924211Y-169172699D01*
X176948496Y-169175090D01*
X176950122Y-169176255D01*
X176949926Y-169178245D01*
X176948300Y-169179080D01*
X176891938Y-169179080D01*
X176891742Y-169179070D01*
X176873434Y-169177267D01*
X176873049Y-169177191D01*
X176861344Y-169173640D01*
X176860982Y-169173490D01*
X176850192Y-169167723D01*
X176849866Y-169167505D01*
X176835843Y-169155996D01*
X176835698Y-169155864D01*
X176826822Y-169146989D01*
X176806775Y-169133594D01*
X176784501Y-169124369D01*
X176760850Y-169119665D01*
X176736744Y-169119665D01*
X176713094Y-169124370D01*
X176690821Y-169133597D01*
X176670773Y-169146992D01*
X176661897Y-169155868D01*
X176661752Y-169156000D01*
X176647734Y-169167505D01*
X176647408Y-169167723D01*
X176636618Y-169173490D01*
X176636256Y-169173640D01*
X176624551Y-169177191D01*
X176624166Y-169177267D01*
X176605858Y-169179070D01*
X176605662Y-169179080D01*
X176549300Y-169179080D01*
X176547568Y-169178080D01*
X176547568Y-169176080D01*
X176549104Y-169175090D01*
X176573389Y-169172699D01*
X176596558Y-169165670D01*
X176617908Y-169154258D01*
X176636621Y-169138901D01*
X176651978Y-169120188D01*
X176663390Y-169098838D01*
X176670419Y-169075669D01*
X176672800Y-169051486D01*
X176672800Y-167625674D01*
X176670419Y-167601491D01*
X176663390Y-167578322D01*
X176651978Y-167556972D01*
X176636621Y-167538259D01*
X176617908Y-167522902D01*
X176596558Y-167511490D01*
X176573389Y-167504461D01*
X176549104Y-167502070D01*
X176547478Y-167500905D01*
X176547674Y-167498915D01*
X176549300Y-167498080D01*
X176605662Y-167498080D01*
X176605858Y-167498090D01*
G37*
G36*
X175955858Y-167498090D02*
G01*
X175974166Y-167499893D01*
X175974551Y-167499969D01*
X175986256Y-167503520D01*
X175986618Y-167503670D01*
X175997408Y-167509437D01*
X175997734Y-167509655D01*
X176011757Y-167521164D01*
X176011902Y-167521296D01*
X176020778Y-167530171D01*
X176040825Y-167543566D01*
X176063099Y-167552791D01*
X176086750Y-167557495D01*
X176110856Y-167557495D01*
X176134506Y-167552790D01*
X176156779Y-167543563D01*
X176176827Y-167530168D01*
X176185703Y-167521292D01*
X176185848Y-167521160D01*
X176199866Y-167509655D01*
X176200192Y-167509437D01*
X176210982Y-167503670D01*
X176211344Y-167503520D01*
X176223049Y-167499969D01*
X176223434Y-167499893D01*
X176241742Y-167498090D01*
X176241938Y-167498080D01*
X176298300Y-167498080D01*
X176300032Y-167499080D01*
X176300032Y-167501080D01*
X176298496Y-167502070D01*
X176274211Y-167504461D01*
X176251042Y-167511490D01*
X176229692Y-167522902D01*
X176210979Y-167538259D01*
X176195622Y-167556972D01*
X176184210Y-167578322D01*
X176177181Y-167601491D01*
X176174800Y-167625674D01*
X176174800Y-169051486D01*
X176177181Y-169075669D01*
X176184210Y-169098838D01*
X176195622Y-169120188D01*
X176210979Y-169138901D01*
X176229692Y-169154258D01*
X176251042Y-169165670D01*
X176274211Y-169172699D01*
X176298496Y-169175090D01*
X176300122Y-169176255D01*
X176299926Y-169178245D01*
X176298300Y-169179080D01*
X176241938Y-169179080D01*
X176241742Y-169179070D01*
X176223434Y-169177267D01*
X176223049Y-169177191D01*
X176211344Y-169173640D01*
X176210982Y-169173490D01*
X176200192Y-169167723D01*
X176199866Y-169167505D01*
X176185843Y-169155996D01*
X176185698Y-169155864D01*
X176176822Y-169146989D01*
X176156775Y-169133594D01*
X176134501Y-169124369D01*
X176110850Y-169119665D01*
X176086744Y-169119665D01*
X176063094Y-169124370D01*
X176040821Y-169133597D01*
X176020773Y-169146992D01*
X176011897Y-169155868D01*
X176011752Y-169156000D01*
X175997734Y-169167505D01*
X175997408Y-169167723D01*
X175986618Y-169173490D01*
X175986256Y-169173640D01*
X175974551Y-169177191D01*
X175974166Y-169177267D01*
X175955858Y-169179070D01*
X175955662Y-169179080D01*
X175899300Y-169179080D01*
X175897568Y-169178080D01*
X175897568Y-169176080D01*
X175899104Y-169175090D01*
X175923389Y-169172699D01*
X175946558Y-169165670D01*
X175967908Y-169154258D01*
X175986621Y-169138901D01*
X176001978Y-169120188D01*
X176013390Y-169098838D01*
X176020419Y-169075669D01*
X176022800Y-169051486D01*
X176022800Y-167625674D01*
X176020419Y-167601491D01*
X176013390Y-167578322D01*
X176001978Y-167556972D01*
X175986621Y-167538259D01*
X175967908Y-167522902D01*
X175946558Y-167511490D01*
X175923389Y-167504461D01*
X175899104Y-167502070D01*
X175897478Y-167500905D01*
X175897674Y-167498915D01*
X175899300Y-167498080D01*
X175955662Y-167498080D01*
X175955858Y-167498090D01*
G37*
G36*
X177255858Y-167498090D02*
G01*
X177274166Y-167499893D01*
X177274551Y-167499969D01*
X177286256Y-167503520D01*
X177286618Y-167503670D01*
X177297408Y-167509437D01*
X177297734Y-167509655D01*
X177311757Y-167521164D01*
X177311902Y-167521296D01*
X177320778Y-167530171D01*
X177340825Y-167543566D01*
X177363099Y-167552791D01*
X177386750Y-167557495D01*
X177410856Y-167557495D01*
X177434506Y-167552790D01*
X177456779Y-167543563D01*
X177476827Y-167530168D01*
X177485703Y-167521292D01*
X177485848Y-167521160D01*
X177499866Y-167509655D01*
X177500192Y-167509437D01*
X177510982Y-167503670D01*
X177511344Y-167503520D01*
X177523049Y-167499969D01*
X177523434Y-167499893D01*
X177541742Y-167498090D01*
X177541938Y-167498080D01*
X177598300Y-167498080D01*
X177600032Y-167499080D01*
X177600032Y-167501080D01*
X177598496Y-167502070D01*
X177574211Y-167504461D01*
X177551042Y-167511490D01*
X177529692Y-167522902D01*
X177510979Y-167538259D01*
X177495622Y-167556972D01*
X177484210Y-167578322D01*
X177477181Y-167601491D01*
X177474800Y-167625674D01*
X177474800Y-169051486D01*
X177477181Y-169075669D01*
X177484210Y-169098838D01*
X177495622Y-169120188D01*
X177510979Y-169138901D01*
X177529692Y-169154258D01*
X177551042Y-169165670D01*
X177574211Y-169172699D01*
X177598496Y-169175090D01*
X177600122Y-169176255D01*
X177599926Y-169178245D01*
X177598300Y-169179080D01*
X177541938Y-169179080D01*
X177541742Y-169179070D01*
X177523434Y-169177267D01*
X177523049Y-169177191D01*
X177511344Y-169173640D01*
X177510982Y-169173490D01*
X177500192Y-169167723D01*
X177499866Y-169167505D01*
X177485843Y-169155996D01*
X177485698Y-169155864D01*
X177476822Y-169146989D01*
X177456775Y-169133594D01*
X177434501Y-169124369D01*
X177410850Y-169119665D01*
X177386744Y-169119665D01*
X177363094Y-169124370D01*
X177340821Y-169133597D01*
X177320773Y-169146992D01*
X177311897Y-169155868D01*
X177311752Y-169156000D01*
X177297734Y-169167505D01*
X177297408Y-169167723D01*
X177286618Y-169173490D01*
X177286256Y-169173640D01*
X177274551Y-169177191D01*
X177274166Y-169177267D01*
X177255858Y-169179070D01*
X177255662Y-169179080D01*
X177199300Y-169179080D01*
X177197568Y-169178080D01*
X177197568Y-169176080D01*
X177199104Y-169175090D01*
X177223389Y-169172699D01*
X177246558Y-169165670D01*
X177267908Y-169154258D01*
X177286621Y-169138901D01*
X177301978Y-169120188D01*
X177313390Y-169098838D01*
X177320419Y-169075669D01*
X177322800Y-169051486D01*
X177322800Y-167625674D01*
X177320419Y-167601491D01*
X177313390Y-167578322D01*
X177301978Y-167556972D01*
X177286621Y-167538259D01*
X177267908Y-167522902D01*
X177246558Y-167511490D01*
X177223389Y-167504461D01*
X177199104Y-167502070D01*
X177197478Y-167500905D01*
X177197674Y-167498915D01*
X177199300Y-167498080D01*
X177255662Y-167498080D01*
X177255858Y-167498090D01*
G37*
G36*
X177905858Y-167498090D02*
G01*
X177924166Y-167499893D01*
X177924551Y-167499969D01*
X177936256Y-167503520D01*
X177936618Y-167503670D01*
X177947408Y-167509437D01*
X177947734Y-167509655D01*
X177961757Y-167521164D01*
X177961902Y-167521296D01*
X177970778Y-167530171D01*
X177990825Y-167543566D01*
X178013099Y-167552791D01*
X178036750Y-167557495D01*
X178060856Y-167557495D01*
X178084506Y-167552790D01*
X178106779Y-167543563D01*
X178126827Y-167530168D01*
X178135703Y-167521292D01*
X178135848Y-167521160D01*
X178149866Y-167509655D01*
X178150192Y-167509437D01*
X178160982Y-167503670D01*
X178161344Y-167503520D01*
X178173049Y-167499969D01*
X178173434Y-167499893D01*
X178191742Y-167498090D01*
X178191938Y-167498080D01*
X178248300Y-167498080D01*
X178250032Y-167499080D01*
X178250032Y-167501080D01*
X178248496Y-167502070D01*
X178224211Y-167504461D01*
X178201042Y-167511490D01*
X178179692Y-167522902D01*
X178160979Y-167538259D01*
X178145622Y-167556972D01*
X178134210Y-167578322D01*
X178127181Y-167601491D01*
X178124800Y-167625674D01*
X178124800Y-169051486D01*
X178127181Y-169075669D01*
X178134210Y-169098838D01*
X178145622Y-169120188D01*
X178160979Y-169138901D01*
X178179692Y-169154258D01*
X178201042Y-169165670D01*
X178224211Y-169172699D01*
X178248496Y-169175090D01*
X178250122Y-169176255D01*
X178249926Y-169178245D01*
X178248300Y-169179080D01*
X178191938Y-169179080D01*
X178191742Y-169179070D01*
X178173434Y-169177267D01*
X178173049Y-169177191D01*
X178161344Y-169173640D01*
X178160982Y-169173490D01*
X178150192Y-169167723D01*
X178149866Y-169167505D01*
X178135843Y-169155996D01*
X178135698Y-169155864D01*
X178126822Y-169146989D01*
X178106775Y-169133594D01*
X178084501Y-169124369D01*
X178060850Y-169119665D01*
X178036744Y-169119665D01*
X178013094Y-169124370D01*
X177990821Y-169133597D01*
X177970773Y-169146992D01*
X177961897Y-169155868D01*
X177961752Y-169156000D01*
X177947734Y-169167505D01*
X177947408Y-169167723D01*
X177936618Y-169173490D01*
X177936256Y-169173640D01*
X177924551Y-169177191D01*
X177924166Y-169177267D01*
X177905858Y-169179070D01*
X177905662Y-169179080D01*
X177849300Y-169179080D01*
X177847568Y-169178080D01*
X177847568Y-169176080D01*
X177849104Y-169175090D01*
X177873389Y-169172699D01*
X177896558Y-169165670D01*
X177917908Y-169154258D01*
X177936621Y-169138901D01*
X177951978Y-169120188D01*
X177963390Y-169098838D01*
X177970419Y-169075669D01*
X177972800Y-169051486D01*
X177972800Y-167625674D01*
X177970419Y-167601491D01*
X177963390Y-167578322D01*
X177951978Y-167556972D01*
X177936621Y-167538259D01*
X177917908Y-167522902D01*
X177896558Y-167511490D01*
X177873389Y-167504461D01*
X177849104Y-167502070D01*
X177847478Y-167500905D01*
X177847674Y-167498915D01*
X177849300Y-167498080D01*
X177905662Y-167498080D01*
X177905858Y-167498090D01*
G37*
G36*
X178555858Y-167498090D02*
G01*
X178574166Y-167499893D01*
X178574551Y-167499969D01*
X178586256Y-167503520D01*
X178586618Y-167503670D01*
X178597408Y-167509437D01*
X178597734Y-167509655D01*
X178611757Y-167521164D01*
X178611902Y-167521296D01*
X178620778Y-167530171D01*
X178640825Y-167543566D01*
X178663099Y-167552791D01*
X178686750Y-167557495D01*
X178710856Y-167557495D01*
X178734506Y-167552790D01*
X178756779Y-167543563D01*
X178776827Y-167530168D01*
X178785703Y-167521292D01*
X178785848Y-167521160D01*
X178799866Y-167509655D01*
X178800192Y-167509437D01*
X178810982Y-167503670D01*
X178811344Y-167503520D01*
X178823049Y-167499969D01*
X178823434Y-167499893D01*
X178841742Y-167498090D01*
X178841938Y-167498080D01*
X178898300Y-167498080D01*
X178900032Y-167499080D01*
X178900032Y-167501080D01*
X178898496Y-167502070D01*
X178874211Y-167504461D01*
X178851042Y-167511490D01*
X178829692Y-167522902D01*
X178810979Y-167538259D01*
X178795622Y-167556972D01*
X178784210Y-167578322D01*
X178777181Y-167601491D01*
X178774800Y-167625674D01*
X178774800Y-169051486D01*
X178777181Y-169075669D01*
X178784210Y-169098838D01*
X178795622Y-169120188D01*
X178810979Y-169138901D01*
X178829692Y-169154258D01*
X178851042Y-169165670D01*
X178874211Y-169172699D01*
X178898496Y-169175090D01*
X178900122Y-169176255D01*
X178899926Y-169178245D01*
X178898300Y-169179080D01*
X178841938Y-169179080D01*
X178841742Y-169179070D01*
X178823434Y-169177267D01*
X178823049Y-169177191D01*
X178811344Y-169173640D01*
X178810982Y-169173490D01*
X178800192Y-169167723D01*
X178799866Y-169167505D01*
X178785843Y-169155996D01*
X178785698Y-169155864D01*
X178776822Y-169146989D01*
X178756775Y-169133594D01*
X178734501Y-169124369D01*
X178710850Y-169119665D01*
X178686744Y-169119665D01*
X178663094Y-169124370D01*
X178640821Y-169133597D01*
X178620773Y-169146992D01*
X178611897Y-169155868D01*
X178611752Y-169156000D01*
X178597734Y-169167505D01*
X178597408Y-169167723D01*
X178586618Y-169173490D01*
X178586256Y-169173640D01*
X178574551Y-169177191D01*
X178574166Y-169177267D01*
X178555858Y-169179070D01*
X178555662Y-169179080D01*
X178499300Y-169179080D01*
X178497568Y-169178080D01*
X178497568Y-169176080D01*
X178499104Y-169175090D01*
X178523389Y-169172699D01*
X178546558Y-169165670D01*
X178567908Y-169154258D01*
X178586621Y-169138901D01*
X178601978Y-169120188D01*
X178613390Y-169098838D01*
X178620419Y-169075669D01*
X178622800Y-169051486D01*
X178622800Y-167625674D01*
X178620419Y-167601491D01*
X178613390Y-167578322D01*
X178601978Y-167556972D01*
X178586621Y-167538259D01*
X178567908Y-167522902D01*
X178546558Y-167511490D01*
X178523389Y-167504461D01*
X178499104Y-167502070D01*
X178497478Y-167500905D01*
X178497674Y-167498915D01*
X178499300Y-167498080D01*
X178555662Y-167498080D01*
X178555858Y-167498090D01*
G37*
G36*
X183884685Y-157476394D02*
G01*
X183885520Y-157478020D01*
X183885520Y-157534382D01*
X183885510Y-157534578D01*
X183883707Y-157552886D01*
X183883631Y-157553271D01*
X183880080Y-157564976D01*
X183879930Y-157565338D01*
X183874163Y-157576128D01*
X183873945Y-157576454D01*
X183862436Y-157590477D01*
X183862304Y-157590622D01*
X183853429Y-157599498D01*
X183840034Y-157619545D01*
X183830809Y-157641819D01*
X183826105Y-157665470D01*
X183826105Y-157689576D01*
X183830810Y-157713226D01*
X183840037Y-157735499D01*
X183853432Y-157755547D01*
X183862308Y-157764423D01*
X183862440Y-157764568D01*
X183873945Y-157778586D01*
X183874163Y-157778912D01*
X183879930Y-157789702D01*
X183880080Y-157790064D01*
X183883631Y-157801769D01*
X183883707Y-157802154D01*
X183885510Y-157820462D01*
X183885520Y-157820658D01*
X183885520Y-157877020D01*
X183884520Y-157878752D01*
X183882520Y-157878752D01*
X183881530Y-157877216D01*
X183879139Y-157852931D01*
X183872110Y-157829762D01*
X183860698Y-157808412D01*
X183845341Y-157789699D01*
X183826628Y-157774342D01*
X183805278Y-157762930D01*
X183782109Y-157755901D01*
X183757926Y-157753520D01*
X182332114Y-157753520D01*
X182307931Y-157755901D01*
X182284762Y-157762930D01*
X182263412Y-157774342D01*
X182244699Y-157789699D01*
X182229342Y-157808412D01*
X182217930Y-157829762D01*
X182210901Y-157852931D01*
X182208510Y-157877216D01*
X182207345Y-157878842D01*
X182205355Y-157878646D01*
X182204520Y-157877020D01*
X182204520Y-157820658D01*
X182204530Y-157820462D01*
X182206333Y-157802154D01*
X182206409Y-157801769D01*
X182209960Y-157790064D01*
X182210110Y-157789702D01*
X182215877Y-157778912D01*
X182216095Y-157778586D01*
X182227604Y-157764563D01*
X182227736Y-157764418D01*
X182236611Y-157755542D01*
X182250006Y-157735495D01*
X182259231Y-157713221D01*
X182263935Y-157689570D01*
X182263935Y-157665464D01*
X182259230Y-157641814D01*
X182250003Y-157619541D01*
X182236608Y-157599493D01*
X182227732Y-157590617D01*
X182227600Y-157590472D01*
X182216095Y-157576454D01*
X182215877Y-157576128D01*
X182210110Y-157565338D01*
X182209960Y-157564976D01*
X182206409Y-157553271D01*
X182206333Y-157552886D01*
X182204530Y-157534578D01*
X182204520Y-157534382D01*
X182204520Y-157478020D01*
X182205520Y-157476288D01*
X182207520Y-157476288D01*
X182208510Y-157477824D01*
X182210901Y-157502109D01*
X182217930Y-157525278D01*
X182229342Y-157546628D01*
X182244699Y-157565341D01*
X182263412Y-157580698D01*
X182284762Y-157592110D01*
X182307931Y-157599139D01*
X182332114Y-157601520D01*
X183757926Y-157601520D01*
X183782109Y-157599139D01*
X183805278Y-157592110D01*
X183826628Y-157580698D01*
X183845341Y-157565341D01*
X183860698Y-157546628D01*
X183872110Y-157525278D01*
X183879139Y-157502109D01*
X183881530Y-157477824D01*
X183882695Y-157476198D01*
X183884685Y-157476394D01*
G37*
G36*
X178159685Y-157476394D02*
G01*
X178160520Y-157478020D01*
X178160520Y-157534382D01*
X178160510Y-157534578D01*
X178158707Y-157552886D01*
X178158631Y-157553271D01*
X178155080Y-157564976D01*
X178154930Y-157565338D01*
X178149163Y-157576128D01*
X178148945Y-157576454D01*
X178137436Y-157590477D01*
X178137304Y-157590622D01*
X178128429Y-157599498D01*
X178115034Y-157619545D01*
X178105809Y-157641819D01*
X178101105Y-157665470D01*
X178101105Y-157689576D01*
X178105810Y-157713226D01*
X178115037Y-157735499D01*
X178128432Y-157755547D01*
X178137308Y-157764423D01*
X178137440Y-157764568D01*
X178148945Y-157778586D01*
X178149163Y-157778912D01*
X178154930Y-157789702D01*
X178155080Y-157790064D01*
X178158631Y-157801769D01*
X178158707Y-157802154D01*
X178160510Y-157820462D01*
X178160520Y-157820658D01*
X178160520Y-157877020D01*
X178159520Y-157878752D01*
X178157520Y-157878752D01*
X178156530Y-157877216D01*
X178154139Y-157852931D01*
X178147110Y-157829762D01*
X178135698Y-157808412D01*
X178120341Y-157789699D01*
X178101628Y-157774342D01*
X178080278Y-157762930D01*
X178057109Y-157755901D01*
X178032926Y-157753520D01*
X176607114Y-157753520D01*
X176582931Y-157755901D01*
X176559762Y-157762930D01*
X176538412Y-157774342D01*
X176519699Y-157789699D01*
X176504342Y-157808412D01*
X176492930Y-157829762D01*
X176485901Y-157852931D01*
X176483510Y-157877216D01*
X176482345Y-157878842D01*
X176480355Y-157878646D01*
X176479520Y-157877020D01*
X176479520Y-157820658D01*
X176479530Y-157820462D01*
X176481333Y-157802154D01*
X176481409Y-157801769D01*
X176484960Y-157790064D01*
X176485110Y-157789702D01*
X176490877Y-157778912D01*
X176491095Y-157778586D01*
X176502604Y-157764563D01*
X176502736Y-157764418D01*
X176511611Y-157755542D01*
X176525006Y-157735495D01*
X176534231Y-157713221D01*
X176538935Y-157689570D01*
X176538935Y-157665464D01*
X176534230Y-157641814D01*
X176525003Y-157619541D01*
X176511608Y-157599493D01*
X176502732Y-157590617D01*
X176502600Y-157590472D01*
X176491095Y-157576454D01*
X176490877Y-157576128D01*
X176485110Y-157565338D01*
X176484960Y-157564976D01*
X176481409Y-157553271D01*
X176481333Y-157552886D01*
X176479530Y-157534578D01*
X176479520Y-157534382D01*
X176479520Y-157478020D01*
X176480520Y-157476288D01*
X176482520Y-157476288D01*
X176483510Y-157477824D01*
X176485901Y-157502109D01*
X176492930Y-157525278D01*
X176504342Y-157546628D01*
X176519699Y-157565341D01*
X176538412Y-157580698D01*
X176559762Y-157592110D01*
X176582931Y-157599139D01*
X176607114Y-157601520D01*
X178032926Y-157601520D01*
X178057109Y-157599139D01*
X178080278Y-157592110D01*
X178101628Y-157580698D01*
X178120341Y-157565341D01*
X178135698Y-157546628D01*
X178147110Y-157525278D01*
X178154139Y-157502109D01*
X178156530Y-157477824D01*
X178157695Y-157476198D01*
X178159685Y-157476394D01*
G37*
G36*
X178159685Y-156826394D02*
G01*
X178160520Y-156828020D01*
X178160520Y-156884382D01*
X178160510Y-156884578D01*
X178158707Y-156902886D01*
X178158631Y-156903271D01*
X178155080Y-156914976D01*
X178154930Y-156915338D01*
X178149163Y-156926128D01*
X178148945Y-156926454D01*
X178137436Y-156940477D01*
X178137304Y-156940622D01*
X178128429Y-156949498D01*
X178115034Y-156969545D01*
X178105809Y-156991819D01*
X178101105Y-157015470D01*
X178101105Y-157039576D01*
X178105810Y-157063226D01*
X178115037Y-157085499D01*
X178128432Y-157105547D01*
X178137308Y-157114423D01*
X178137440Y-157114568D01*
X178148945Y-157128586D01*
X178149163Y-157128912D01*
X178154930Y-157139702D01*
X178155080Y-157140064D01*
X178158631Y-157151769D01*
X178158707Y-157152154D01*
X178160510Y-157170462D01*
X178160520Y-157170658D01*
X178160520Y-157227020D01*
X178159520Y-157228752D01*
X178157520Y-157228752D01*
X178156530Y-157227216D01*
X178154139Y-157202931D01*
X178147110Y-157179762D01*
X178135698Y-157158412D01*
X178120341Y-157139699D01*
X178101628Y-157124342D01*
X178080278Y-157112930D01*
X178057109Y-157105901D01*
X178032926Y-157103520D01*
X176607114Y-157103520D01*
X176582931Y-157105901D01*
X176559762Y-157112930D01*
X176538412Y-157124342D01*
X176519699Y-157139699D01*
X176504342Y-157158412D01*
X176492930Y-157179762D01*
X176485901Y-157202931D01*
X176483510Y-157227216D01*
X176482345Y-157228842D01*
X176480355Y-157228646D01*
X176479520Y-157227020D01*
X176479520Y-157170658D01*
X176479530Y-157170462D01*
X176481333Y-157152154D01*
X176481409Y-157151769D01*
X176484960Y-157140064D01*
X176485110Y-157139702D01*
X176490877Y-157128912D01*
X176491095Y-157128586D01*
X176502604Y-157114563D01*
X176502736Y-157114418D01*
X176511611Y-157105542D01*
X176525006Y-157085495D01*
X176534231Y-157063221D01*
X176538935Y-157039570D01*
X176538935Y-157015464D01*
X176534230Y-156991814D01*
X176525003Y-156969541D01*
X176511608Y-156949493D01*
X176502732Y-156940617D01*
X176502600Y-156940472D01*
X176491095Y-156926454D01*
X176490877Y-156926128D01*
X176485110Y-156915338D01*
X176484960Y-156914976D01*
X176481409Y-156903271D01*
X176481333Y-156902886D01*
X176479530Y-156884578D01*
X176479520Y-156884382D01*
X176479520Y-156828020D01*
X176480520Y-156826288D01*
X176482520Y-156826288D01*
X176483510Y-156827824D01*
X176485901Y-156852109D01*
X176492930Y-156875278D01*
X176504342Y-156896628D01*
X176519699Y-156915341D01*
X176538412Y-156930698D01*
X176559762Y-156942110D01*
X176582931Y-156949139D01*
X176607114Y-156951520D01*
X178032926Y-156951520D01*
X178057109Y-156949139D01*
X178080278Y-156942110D01*
X178101628Y-156930698D01*
X178120341Y-156915341D01*
X178135698Y-156896628D01*
X178147110Y-156875278D01*
X178154139Y-156852109D01*
X178156530Y-156827824D01*
X178157695Y-156826198D01*
X178159685Y-156826394D01*
G37*
G36*
X183884685Y-156826394D02*
G01*
X183885520Y-156828020D01*
X183885520Y-156884382D01*
X183885510Y-156884578D01*
X183883707Y-156902886D01*
X183883631Y-156903271D01*
X183880080Y-156914976D01*
X183879930Y-156915338D01*
X183874163Y-156926128D01*
X183873945Y-156926454D01*
X183862436Y-156940477D01*
X183862304Y-156940622D01*
X183853429Y-156949498D01*
X183840034Y-156969545D01*
X183830809Y-156991819D01*
X183826105Y-157015470D01*
X183826105Y-157039576D01*
X183830810Y-157063226D01*
X183840037Y-157085499D01*
X183853432Y-157105547D01*
X183862308Y-157114423D01*
X183862440Y-157114568D01*
X183873945Y-157128586D01*
X183874163Y-157128912D01*
X183879930Y-157139702D01*
X183880080Y-157140064D01*
X183883631Y-157151769D01*
X183883707Y-157152154D01*
X183885510Y-157170462D01*
X183885520Y-157170658D01*
X183885520Y-157227020D01*
X183884520Y-157228752D01*
X183882520Y-157228752D01*
X183881530Y-157227216D01*
X183879139Y-157202931D01*
X183872110Y-157179762D01*
X183860698Y-157158412D01*
X183845341Y-157139699D01*
X183826628Y-157124342D01*
X183805278Y-157112930D01*
X183782109Y-157105901D01*
X183757926Y-157103520D01*
X182332114Y-157103520D01*
X182307931Y-157105901D01*
X182284762Y-157112930D01*
X182263412Y-157124342D01*
X182244699Y-157139699D01*
X182229342Y-157158412D01*
X182217930Y-157179762D01*
X182210901Y-157202931D01*
X182208510Y-157227216D01*
X182207345Y-157228842D01*
X182205355Y-157228646D01*
X182204520Y-157227020D01*
X182204520Y-157170658D01*
X182204530Y-157170462D01*
X182206333Y-157152154D01*
X182206409Y-157151769D01*
X182209960Y-157140064D01*
X182210110Y-157139702D01*
X182215877Y-157128912D01*
X182216095Y-157128586D01*
X182227604Y-157114563D01*
X182227736Y-157114418D01*
X182236611Y-157105542D01*
X182250006Y-157085495D01*
X182259231Y-157063221D01*
X182263935Y-157039570D01*
X182263935Y-157015464D01*
X182259230Y-156991814D01*
X182250003Y-156969541D01*
X182236608Y-156949493D01*
X182227732Y-156940617D01*
X182227600Y-156940472D01*
X182216095Y-156926454D01*
X182215877Y-156926128D01*
X182210110Y-156915338D01*
X182209960Y-156914976D01*
X182206409Y-156903271D01*
X182206333Y-156902886D01*
X182204530Y-156884578D01*
X182204520Y-156884382D01*
X182204520Y-156828020D01*
X182205520Y-156826288D01*
X182207520Y-156826288D01*
X182208510Y-156827824D01*
X182210901Y-156852109D01*
X182217930Y-156875278D01*
X182229342Y-156896628D01*
X182244699Y-156915341D01*
X182263412Y-156930698D01*
X182284762Y-156942110D01*
X182307931Y-156949139D01*
X182332114Y-156951520D01*
X183757926Y-156951520D01*
X183782109Y-156949139D01*
X183805278Y-156942110D01*
X183826628Y-156930698D01*
X183845341Y-156915341D01*
X183860698Y-156896628D01*
X183872110Y-156875278D01*
X183879139Y-156852109D01*
X183881530Y-156827824D01*
X183882695Y-156826198D01*
X183884685Y-156826394D01*
G37*
G36*
X183884685Y-156176394D02*
G01*
X183885520Y-156178020D01*
X183885520Y-156234382D01*
X183885510Y-156234578D01*
X183883707Y-156252886D01*
X183883631Y-156253271D01*
X183880080Y-156264976D01*
X183879930Y-156265338D01*
X183874163Y-156276128D01*
X183873945Y-156276454D01*
X183862436Y-156290477D01*
X183862304Y-156290622D01*
X183853429Y-156299498D01*
X183840034Y-156319545D01*
X183830809Y-156341819D01*
X183826105Y-156365470D01*
X183826105Y-156389576D01*
X183830810Y-156413226D01*
X183840037Y-156435499D01*
X183853432Y-156455547D01*
X183862308Y-156464423D01*
X183862440Y-156464568D01*
X183873945Y-156478586D01*
X183874163Y-156478912D01*
X183879930Y-156489702D01*
X183880080Y-156490064D01*
X183883631Y-156501769D01*
X183883707Y-156502154D01*
X183885510Y-156520462D01*
X183885520Y-156520658D01*
X183885520Y-156577020D01*
X183884520Y-156578752D01*
X183882520Y-156578752D01*
X183881530Y-156577216D01*
X183879139Y-156552931D01*
X183872110Y-156529762D01*
X183860698Y-156508412D01*
X183845341Y-156489699D01*
X183826628Y-156474342D01*
X183805278Y-156462930D01*
X183782109Y-156455901D01*
X183757926Y-156453520D01*
X182332114Y-156453520D01*
X182307931Y-156455901D01*
X182284762Y-156462930D01*
X182263412Y-156474342D01*
X182244699Y-156489699D01*
X182229342Y-156508412D01*
X182217930Y-156529762D01*
X182210901Y-156552931D01*
X182208510Y-156577216D01*
X182207345Y-156578842D01*
X182205355Y-156578646D01*
X182204520Y-156577020D01*
X182204520Y-156520658D01*
X182204530Y-156520462D01*
X182206333Y-156502154D01*
X182206409Y-156501769D01*
X182209960Y-156490064D01*
X182210110Y-156489702D01*
X182215877Y-156478912D01*
X182216095Y-156478586D01*
X182227604Y-156464563D01*
X182227736Y-156464418D01*
X182236611Y-156455542D01*
X182250006Y-156435495D01*
X182259231Y-156413221D01*
X182263935Y-156389570D01*
X182263935Y-156365464D01*
X182259230Y-156341814D01*
X182250003Y-156319541D01*
X182236608Y-156299493D01*
X182227732Y-156290617D01*
X182227600Y-156290472D01*
X182216095Y-156276454D01*
X182215877Y-156276128D01*
X182210110Y-156265338D01*
X182209960Y-156264976D01*
X182206409Y-156253271D01*
X182206333Y-156252886D01*
X182204530Y-156234578D01*
X182204520Y-156234382D01*
X182204520Y-156178020D01*
X182205520Y-156176288D01*
X182207520Y-156176288D01*
X182208510Y-156177824D01*
X182210901Y-156202109D01*
X182217930Y-156225278D01*
X182229342Y-156246628D01*
X182244699Y-156265341D01*
X182263412Y-156280698D01*
X182284762Y-156292110D01*
X182307931Y-156299139D01*
X182332114Y-156301520D01*
X183757926Y-156301520D01*
X183782109Y-156299139D01*
X183805278Y-156292110D01*
X183826628Y-156280698D01*
X183845341Y-156265341D01*
X183860698Y-156246628D01*
X183872110Y-156225278D01*
X183879139Y-156202109D01*
X183881530Y-156177824D01*
X183882695Y-156176198D01*
X183884685Y-156176394D01*
G37*
G36*
X178159685Y-156176394D02*
G01*
X178160520Y-156178020D01*
X178160520Y-156234382D01*
X178160510Y-156234578D01*
X178158707Y-156252886D01*
X178158631Y-156253271D01*
X178155080Y-156264976D01*
X178154930Y-156265338D01*
X178149163Y-156276128D01*
X178148945Y-156276454D01*
X178137436Y-156290477D01*
X178137304Y-156290622D01*
X178128429Y-156299498D01*
X178115034Y-156319545D01*
X178105809Y-156341819D01*
X178101105Y-156365470D01*
X178101105Y-156389576D01*
X178105810Y-156413226D01*
X178115037Y-156435499D01*
X178128432Y-156455547D01*
X178137308Y-156464423D01*
X178137440Y-156464568D01*
X178148945Y-156478586D01*
X178149163Y-156478912D01*
X178154930Y-156489702D01*
X178155080Y-156490064D01*
X178158631Y-156501769D01*
X178158707Y-156502154D01*
X178160510Y-156520462D01*
X178160520Y-156520658D01*
X178160520Y-156577020D01*
X178159520Y-156578752D01*
X178157520Y-156578752D01*
X178156530Y-156577216D01*
X178154139Y-156552931D01*
X178147110Y-156529762D01*
X178135698Y-156508412D01*
X178120341Y-156489699D01*
X178101628Y-156474342D01*
X178080278Y-156462930D01*
X178057109Y-156455901D01*
X178032926Y-156453520D01*
X176607114Y-156453520D01*
X176582931Y-156455901D01*
X176559762Y-156462930D01*
X176538412Y-156474342D01*
X176519699Y-156489699D01*
X176504342Y-156508412D01*
X176492930Y-156529762D01*
X176485901Y-156552931D01*
X176483510Y-156577216D01*
X176482345Y-156578842D01*
X176480355Y-156578646D01*
X176479520Y-156577020D01*
X176479520Y-156520658D01*
X176479530Y-156520462D01*
X176481333Y-156502154D01*
X176481409Y-156501769D01*
X176484960Y-156490064D01*
X176485110Y-156489702D01*
X176490877Y-156478912D01*
X176491095Y-156478586D01*
X176502604Y-156464563D01*
X176502736Y-156464418D01*
X176511611Y-156455542D01*
X176525006Y-156435495D01*
X176534231Y-156413221D01*
X176538935Y-156389570D01*
X176538935Y-156365464D01*
X176534230Y-156341814D01*
X176525003Y-156319541D01*
X176511608Y-156299493D01*
X176502732Y-156290617D01*
X176502600Y-156290472D01*
X176491095Y-156276454D01*
X176490877Y-156276128D01*
X176485110Y-156265338D01*
X176484960Y-156264976D01*
X176481409Y-156253271D01*
X176481333Y-156252886D01*
X176479530Y-156234578D01*
X176479520Y-156234382D01*
X176479520Y-156178020D01*
X176480520Y-156176288D01*
X176482520Y-156176288D01*
X176483510Y-156177824D01*
X176485901Y-156202109D01*
X176492930Y-156225278D01*
X176504342Y-156246628D01*
X176519699Y-156265341D01*
X176538412Y-156280698D01*
X176559762Y-156292110D01*
X176582931Y-156299139D01*
X176607114Y-156301520D01*
X178032926Y-156301520D01*
X178057109Y-156299139D01*
X178080278Y-156292110D01*
X178101628Y-156280698D01*
X178120341Y-156265341D01*
X178135698Y-156246628D01*
X178147110Y-156225278D01*
X178154139Y-156202109D01*
X178156530Y-156177824D01*
X178157695Y-156176198D01*
X178159685Y-156176394D01*
G37*
G36*
X178159685Y-155526394D02*
G01*
X178160520Y-155528020D01*
X178160520Y-155584382D01*
X178160510Y-155584578D01*
X178158707Y-155602886D01*
X178158631Y-155603271D01*
X178155080Y-155614976D01*
X178154930Y-155615338D01*
X178149163Y-155626128D01*
X178148945Y-155626454D01*
X178137436Y-155640477D01*
X178137304Y-155640622D01*
X178128429Y-155649498D01*
X178115034Y-155669545D01*
X178105809Y-155691819D01*
X178101105Y-155715470D01*
X178101105Y-155739576D01*
X178105810Y-155763226D01*
X178115037Y-155785499D01*
X178128432Y-155805547D01*
X178137308Y-155814423D01*
X178137440Y-155814568D01*
X178148945Y-155828586D01*
X178149163Y-155828912D01*
X178154930Y-155839702D01*
X178155080Y-155840064D01*
X178158631Y-155851769D01*
X178158707Y-155852154D01*
X178160510Y-155870462D01*
X178160520Y-155870658D01*
X178160520Y-155927020D01*
X178159520Y-155928752D01*
X178157520Y-155928752D01*
X178156530Y-155927216D01*
X178154139Y-155902931D01*
X178147110Y-155879762D01*
X178135698Y-155858412D01*
X178120341Y-155839699D01*
X178101628Y-155824342D01*
X178080278Y-155812930D01*
X178057109Y-155805901D01*
X178032926Y-155803520D01*
X176607114Y-155803520D01*
X176582931Y-155805901D01*
X176559762Y-155812930D01*
X176538412Y-155824342D01*
X176519699Y-155839699D01*
X176504342Y-155858412D01*
X176492930Y-155879762D01*
X176485901Y-155902931D01*
X176483510Y-155927216D01*
X176482345Y-155928842D01*
X176480355Y-155928646D01*
X176479520Y-155927020D01*
X176479520Y-155870658D01*
X176479530Y-155870462D01*
X176481333Y-155852154D01*
X176481409Y-155851769D01*
X176484960Y-155840064D01*
X176485110Y-155839702D01*
X176490877Y-155828912D01*
X176491095Y-155828586D01*
X176502604Y-155814563D01*
X176502736Y-155814418D01*
X176511611Y-155805542D01*
X176525006Y-155785495D01*
X176534231Y-155763221D01*
X176538935Y-155739570D01*
X176538935Y-155715464D01*
X176534230Y-155691814D01*
X176525003Y-155669541D01*
X176511608Y-155649493D01*
X176502732Y-155640617D01*
X176502600Y-155640472D01*
X176491095Y-155626454D01*
X176490877Y-155626128D01*
X176485110Y-155615338D01*
X176484960Y-155614976D01*
X176481409Y-155603271D01*
X176481333Y-155602886D01*
X176479530Y-155584578D01*
X176479520Y-155584382D01*
X176479520Y-155528020D01*
X176480520Y-155526288D01*
X176482520Y-155526288D01*
X176483510Y-155527824D01*
X176485901Y-155552109D01*
X176492930Y-155575278D01*
X176504342Y-155596628D01*
X176519699Y-155615341D01*
X176538412Y-155630698D01*
X176559762Y-155642110D01*
X176582931Y-155649139D01*
X176607114Y-155651520D01*
X178032926Y-155651520D01*
X178057109Y-155649139D01*
X178080278Y-155642110D01*
X178101628Y-155630698D01*
X178120341Y-155615341D01*
X178135698Y-155596628D01*
X178147110Y-155575278D01*
X178154139Y-155552109D01*
X178156530Y-155527824D01*
X178157695Y-155526198D01*
X178159685Y-155526394D01*
G37*
G36*
X183884685Y-155526394D02*
G01*
X183885520Y-155528020D01*
X183885520Y-155584382D01*
X183885510Y-155584578D01*
X183883707Y-155602886D01*
X183883631Y-155603271D01*
X183880080Y-155614976D01*
X183879930Y-155615338D01*
X183874163Y-155626128D01*
X183873945Y-155626454D01*
X183862436Y-155640477D01*
X183862304Y-155640622D01*
X183853429Y-155649498D01*
X183840034Y-155669545D01*
X183830809Y-155691819D01*
X183826105Y-155715470D01*
X183826105Y-155739576D01*
X183830810Y-155763226D01*
X183840037Y-155785499D01*
X183853432Y-155805547D01*
X183862308Y-155814423D01*
X183862440Y-155814568D01*
X183873945Y-155828586D01*
X183874163Y-155828912D01*
X183879930Y-155839702D01*
X183880080Y-155840064D01*
X183883631Y-155851769D01*
X183883707Y-155852154D01*
X183885510Y-155870462D01*
X183885520Y-155870658D01*
X183885520Y-155927020D01*
X183884520Y-155928752D01*
X183882520Y-155928752D01*
X183881530Y-155927216D01*
X183879139Y-155902931D01*
X183872110Y-155879762D01*
X183860698Y-155858412D01*
X183845341Y-155839699D01*
X183826628Y-155824342D01*
X183805278Y-155812930D01*
X183782109Y-155805901D01*
X183757926Y-155803520D01*
X182332114Y-155803520D01*
X182307931Y-155805901D01*
X182284762Y-155812930D01*
X182263412Y-155824342D01*
X182244699Y-155839699D01*
X182229342Y-155858412D01*
X182217930Y-155879762D01*
X182210901Y-155902931D01*
X182208510Y-155927216D01*
X182207345Y-155928842D01*
X182205355Y-155928646D01*
X182204520Y-155927020D01*
X182204520Y-155870658D01*
X182204530Y-155870462D01*
X182206333Y-155852154D01*
X182206409Y-155851769D01*
X182209960Y-155840064D01*
X182210110Y-155839702D01*
X182215877Y-155828912D01*
X182216095Y-155828586D01*
X182227604Y-155814563D01*
X182227736Y-155814418D01*
X182236611Y-155805542D01*
X182250006Y-155785495D01*
X182259231Y-155763221D01*
X182263935Y-155739570D01*
X182263935Y-155715464D01*
X182259230Y-155691814D01*
X182250003Y-155669541D01*
X182236608Y-155649493D01*
X182227732Y-155640617D01*
X182227600Y-155640472D01*
X182216095Y-155626454D01*
X182215877Y-155626128D01*
X182210110Y-155615338D01*
X182209960Y-155614976D01*
X182206409Y-155603271D01*
X182206333Y-155602886D01*
X182204530Y-155584578D01*
X182204520Y-155584382D01*
X182204520Y-155528020D01*
X182205520Y-155526288D01*
X182207520Y-155526288D01*
X182208510Y-155527824D01*
X182210901Y-155552109D01*
X182217930Y-155575278D01*
X182229342Y-155596628D01*
X182244699Y-155615341D01*
X182263412Y-155630698D01*
X182284762Y-155642110D01*
X182307931Y-155649139D01*
X182332114Y-155651520D01*
X183757926Y-155651520D01*
X183782109Y-155649139D01*
X183805278Y-155642110D01*
X183826628Y-155630698D01*
X183845341Y-155615341D01*
X183860698Y-155596628D01*
X183872110Y-155575278D01*
X183879139Y-155552109D01*
X183881530Y-155527824D01*
X183882695Y-155526198D01*
X183884685Y-155526394D01*
G37*
G36*
X178159685Y-154876394D02*
G01*
X178160520Y-154878020D01*
X178160520Y-154934382D01*
X178160510Y-154934578D01*
X178158707Y-154952886D01*
X178158631Y-154953271D01*
X178155080Y-154964976D01*
X178154930Y-154965338D01*
X178149163Y-154976128D01*
X178148945Y-154976454D01*
X178137436Y-154990477D01*
X178137304Y-154990622D01*
X178128429Y-154999498D01*
X178115034Y-155019545D01*
X178105809Y-155041819D01*
X178101105Y-155065470D01*
X178101105Y-155089576D01*
X178105810Y-155113226D01*
X178115037Y-155135499D01*
X178128432Y-155155547D01*
X178137308Y-155164423D01*
X178137440Y-155164568D01*
X178148945Y-155178586D01*
X178149163Y-155178912D01*
X178154930Y-155189702D01*
X178155080Y-155190064D01*
X178158631Y-155201769D01*
X178158707Y-155202154D01*
X178160510Y-155220462D01*
X178160520Y-155220658D01*
X178160520Y-155277020D01*
X178159520Y-155278752D01*
X178157520Y-155278752D01*
X178156530Y-155277216D01*
X178154139Y-155252931D01*
X178147110Y-155229762D01*
X178135698Y-155208412D01*
X178120341Y-155189699D01*
X178101628Y-155174342D01*
X178080278Y-155162930D01*
X178057109Y-155155901D01*
X178032926Y-155153520D01*
X176607114Y-155153520D01*
X176582931Y-155155901D01*
X176559762Y-155162930D01*
X176538412Y-155174342D01*
X176519699Y-155189699D01*
X176504342Y-155208412D01*
X176492930Y-155229762D01*
X176485901Y-155252931D01*
X176483510Y-155277216D01*
X176482345Y-155278842D01*
X176480355Y-155278646D01*
X176479520Y-155277020D01*
X176479520Y-155220658D01*
X176479530Y-155220462D01*
X176481333Y-155202154D01*
X176481409Y-155201769D01*
X176484960Y-155190064D01*
X176485110Y-155189702D01*
X176490877Y-155178912D01*
X176491095Y-155178586D01*
X176502604Y-155164563D01*
X176502736Y-155164418D01*
X176511611Y-155155542D01*
X176525006Y-155135495D01*
X176534231Y-155113221D01*
X176538935Y-155089570D01*
X176538935Y-155065464D01*
X176534230Y-155041814D01*
X176525003Y-155019541D01*
X176511608Y-154999493D01*
X176502732Y-154990617D01*
X176502600Y-154990472D01*
X176491095Y-154976454D01*
X176490877Y-154976128D01*
X176485110Y-154965338D01*
X176484960Y-154964976D01*
X176481409Y-154953271D01*
X176481333Y-154952886D01*
X176479530Y-154934578D01*
X176479520Y-154934382D01*
X176479520Y-154878020D01*
X176480520Y-154876288D01*
X176482520Y-154876288D01*
X176483510Y-154877824D01*
X176485901Y-154902109D01*
X176492930Y-154925278D01*
X176504342Y-154946628D01*
X176519699Y-154965341D01*
X176538412Y-154980698D01*
X176559762Y-154992110D01*
X176582931Y-154999139D01*
X176607114Y-155001520D01*
X178032926Y-155001520D01*
X178057109Y-154999139D01*
X178080278Y-154992110D01*
X178101628Y-154980698D01*
X178120341Y-154965341D01*
X178135698Y-154946628D01*
X178147110Y-154925278D01*
X178154139Y-154902109D01*
X178156530Y-154877824D01*
X178157695Y-154876198D01*
X178159685Y-154876394D01*
G37*
G36*
X183884685Y-154876394D02*
G01*
X183885520Y-154878020D01*
X183885520Y-154934382D01*
X183885510Y-154934578D01*
X183883707Y-154952886D01*
X183883631Y-154953271D01*
X183880080Y-154964976D01*
X183879930Y-154965338D01*
X183874163Y-154976128D01*
X183873945Y-154976454D01*
X183862436Y-154990477D01*
X183862304Y-154990622D01*
X183853429Y-154999498D01*
X183840034Y-155019545D01*
X183830809Y-155041819D01*
X183826105Y-155065470D01*
X183826105Y-155089576D01*
X183830810Y-155113226D01*
X183840037Y-155135499D01*
X183853432Y-155155547D01*
X183862308Y-155164423D01*
X183862440Y-155164568D01*
X183873945Y-155178586D01*
X183874163Y-155178912D01*
X183879930Y-155189702D01*
X183880080Y-155190064D01*
X183883631Y-155201769D01*
X183883707Y-155202154D01*
X183885510Y-155220462D01*
X183885520Y-155220658D01*
X183885520Y-155277020D01*
X183884520Y-155278752D01*
X183882520Y-155278752D01*
X183881530Y-155277216D01*
X183879139Y-155252931D01*
X183872110Y-155229762D01*
X183860698Y-155208412D01*
X183845341Y-155189699D01*
X183826628Y-155174342D01*
X183805278Y-155162930D01*
X183782109Y-155155901D01*
X183757926Y-155153520D01*
X182332114Y-155153520D01*
X182307931Y-155155901D01*
X182284762Y-155162930D01*
X182263412Y-155174342D01*
X182244699Y-155189699D01*
X182229342Y-155208412D01*
X182217930Y-155229762D01*
X182210901Y-155252931D01*
X182208510Y-155277216D01*
X182207345Y-155278842D01*
X182205355Y-155278646D01*
X182204520Y-155277020D01*
X182204520Y-155220658D01*
X182204530Y-155220462D01*
X182206333Y-155202154D01*
X182206409Y-155201769D01*
X182209960Y-155190064D01*
X182210110Y-155189702D01*
X182215877Y-155178912D01*
X182216095Y-155178586D01*
X182227604Y-155164563D01*
X182227736Y-155164418D01*
X182236611Y-155155542D01*
X182250006Y-155135495D01*
X182259231Y-155113221D01*
X182263935Y-155089570D01*
X182263935Y-155065464D01*
X182259230Y-155041814D01*
X182250003Y-155019541D01*
X182236608Y-154999493D01*
X182227732Y-154990617D01*
X182227600Y-154990472D01*
X182216095Y-154976454D01*
X182215877Y-154976128D01*
X182210110Y-154965338D01*
X182209960Y-154964976D01*
X182206409Y-154953271D01*
X182206333Y-154952886D01*
X182204530Y-154934578D01*
X182204520Y-154934382D01*
X182204520Y-154878020D01*
X182205520Y-154876288D01*
X182207520Y-154876288D01*
X182208510Y-154877824D01*
X182210901Y-154902109D01*
X182217930Y-154925278D01*
X182229342Y-154946628D01*
X182244699Y-154965341D01*
X182263412Y-154980698D01*
X182284762Y-154992110D01*
X182307931Y-154999139D01*
X182332114Y-155001520D01*
X183757926Y-155001520D01*
X183782109Y-154999139D01*
X183805278Y-154992110D01*
X183826628Y-154980698D01*
X183845341Y-154965341D01*
X183860698Y-154946628D01*
X183872110Y-154925278D01*
X183879139Y-154902109D01*
X183881530Y-154877824D01*
X183882695Y-154876198D01*
X183884685Y-154876394D01*
G37*
G36*
X183884685Y-154226394D02*
G01*
X183885520Y-154228020D01*
X183885520Y-154284382D01*
X183885510Y-154284578D01*
X183883707Y-154302886D01*
X183883631Y-154303271D01*
X183880080Y-154314976D01*
X183879930Y-154315338D01*
X183874163Y-154326128D01*
X183873945Y-154326454D01*
X183862436Y-154340477D01*
X183862304Y-154340622D01*
X183853429Y-154349498D01*
X183840034Y-154369545D01*
X183830809Y-154391819D01*
X183826105Y-154415470D01*
X183826105Y-154439576D01*
X183830810Y-154463226D01*
X183840037Y-154485499D01*
X183853432Y-154505547D01*
X183862308Y-154514423D01*
X183862440Y-154514568D01*
X183873945Y-154528586D01*
X183874163Y-154528912D01*
X183879930Y-154539702D01*
X183880080Y-154540064D01*
X183883631Y-154551769D01*
X183883707Y-154552154D01*
X183885510Y-154570462D01*
X183885520Y-154570658D01*
X183885520Y-154627020D01*
X183884520Y-154628752D01*
X183882520Y-154628752D01*
X183881530Y-154627216D01*
X183879139Y-154602931D01*
X183872110Y-154579762D01*
X183860698Y-154558412D01*
X183845341Y-154539699D01*
X183826628Y-154524342D01*
X183805278Y-154512930D01*
X183782109Y-154505901D01*
X183757926Y-154503520D01*
X182332114Y-154503520D01*
X182307931Y-154505901D01*
X182284762Y-154512930D01*
X182263412Y-154524342D01*
X182244699Y-154539699D01*
X182229342Y-154558412D01*
X182217930Y-154579762D01*
X182210901Y-154602931D01*
X182208510Y-154627216D01*
X182207345Y-154628842D01*
X182205355Y-154628646D01*
X182204520Y-154627020D01*
X182204520Y-154570658D01*
X182204530Y-154570462D01*
X182206333Y-154552154D01*
X182206409Y-154551769D01*
X182209960Y-154540064D01*
X182210110Y-154539702D01*
X182215877Y-154528912D01*
X182216095Y-154528586D01*
X182227604Y-154514563D01*
X182227736Y-154514418D01*
X182236611Y-154505542D01*
X182250006Y-154485495D01*
X182259231Y-154463221D01*
X182263935Y-154439570D01*
X182263935Y-154415464D01*
X182259230Y-154391814D01*
X182250003Y-154369541D01*
X182236608Y-154349493D01*
X182227732Y-154340617D01*
X182227600Y-154340472D01*
X182216095Y-154326454D01*
X182215877Y-154326128D01*
X182210110Y-154315338D01*
X182209960Y-154314976D01*
X182206409Y-154303271D01*
X182206333Y-154302886D01*
X182204530Y-154284578D01*
X182204520Y-154284382D01*
X182204520Y-154228020D01*
X182205520Y-154226288D01*
X182207520Y-154226288D01*
X182208510Y-154227824D01*
X182210901Y-154252109D01*
X182217930Y-154275278D01*
X182229342Y-154296628D01*
X182244699Y-154315341D01*
X182263412Y-154330698D01*
X182284762Y-154342110D01*
X182307931Y-154349139D01*
X182332114Y-154351520D01*
X183757926Y-154351520D01*
X183782109Y-154349139D01*
X183805278Y-154342110D01*
X183826628Y-154330698D01*
X183845341Y-154315341D01*
X183860698Y-154296628D01*
X183872110Y-154275278D01*
X183879139Y-154252109D01*
X183881530Y-154227824D01*
X183882695Y-154226198D01*
X183884685Y-154226394D01*
G37*
G36*
X178159685Y-154226394D02*
G01*
X178160520Y-154228020D01*
X178160520Y-154284382D01*
X178160510Y-154284578D01*
X178158707Y-154302886D01*
X178158631Y-154303271D01*
X178155080Y-154314976D01*
X178154930Y-154315338D01*
X178149163Y-154326128D01*
X178148945Y-154326454D01*
X178137436Y-154340477D01*
X178137304Y-154340622D01*
X178128429Y-154349498D01*
X178115034Y-154369545D01*
X178105809Y-154391819D01*
X178101105Y-154415470D01*
X178101105Y-154439576D01*
X178105810Y-154463226D01*
X178115037Y-154485499D01*
X178128432Y-154505547D01*
X178137308Y-154514423D01*
X178137440Y-154514568D01*
X178148945Y-154528586D01*
X178149163Y-154528912D01*
X178154930Y-154539702D01*
X178155080Y-154540064D01*
X178158631Y-154551769D01*
X178158707Y-154552154D01*
X178160510Y-154570462D01*
X178160520Y-154570658D01*
X178160520Y-154627020D01*
X178159520Y-154628752D01*
X178157520Y-154628752D01*
X178156530Y-154627216D01*
X178154139Y-154602931D01*
X178147110Y-154579762D01*
X178135698Y-154558412D01*
X178120341Y-154539699D01*
X178101628Y-154524342D01*
X178080278Y-154512930D01*
X178057109Y-154505901D01*
X178032926Y-154503520D01*
X176607114Y-154503520D01*
X176582931Y-154505901D01*
X176559762Y-154512930D01*
X176538412Y-154524342D01*
X176519699Y-154539699D01*
X176504342Y-154558412D01*
X176492930Y-154579762D01*
X176485901Y-154602931D01*
X176483510Y-154627216D01*
X176482345Y-154628842D01*
X176480355Y-154628646D01*
X176479520Y-154627020D01*
X176479520Y-154570658D01*
X176479530Y-154570462D01*
X176481333Y-154552154D01*
X176481409Y-154551769D01*
X176484960Y-154540064D01*
X176485110Y-154539702D01*
X176490877Y-154528912D01*
X176491095Y-154528586D01*
X176502604Y-154514563D01*
X176502736Y-154514418D01*
X176511611Y-154505542D01*
X176525006Y-154485495D01*
X176534231Y-154463221D01*
X176538935Y-154439570D01*
X176538935Y-154415464D01*
X176534230Y-154391814D01*
X176525003Y-154369541D01*
X176511608Y-154349493D01*
X176502732Y-154340617D01*
X176502600Y-154340472D01*
X176491095Y-154326454D01*
X176490877Y-154326128D01*
X176485110Y-154315338D01*
X176484960Y-154314976D01*
X176481409Y-154303271D01*
X176481333Y-154302886D01*
X176479530Y-154284578D01*
X176479520Y-154284382D01*
X176479520Y-154228020D01*
X176480520Y-154226288D01*
X176482520Y-154226288D01*
X176483510Y-154227824D01*
X176485901Y-154252109D01*
X176492930Y-154275278D01*
X176504342Y-154296628D01*
X176519699Y-154315341D01*
X176538412Y-154330698D01*
X176559762Y-154342110D01*
X176582931Y-154349139D01*
X176607114Y-154351520D01*
X178032926Y-154351520D01*
X178057109Y-154349139D01*
X178080278Y-154342110D01*
X178101628Y-154330698D01*
X178120341Y-154315341D01*
X178135698Y-154296628D01*
X178147110Y-154275278D01*
X178154139Y-154252109D01*
X178156530Y-154227824D01*
X178157695Y-154226198D01*
X178159685Y-154226394D01*
G37*
G36*
X126952165Y-108085208D02*
G01*
X126953000Y-108086834D01*
X126953000Y-108170971D01*
X126952990Y-108171167D01*
X126949056Y-108211111D01*
X126948980Y-108211496D01*
X126939119Y-108244005D01*
X126938969Y-108244367D01*
X126922955Y-108274325D01*
X126922737Y-108274651D01*
X126901187Y-108300910D01*
X126900910Y-108301187D01*
X126874651Y-108322737D01*
X126874325Y-108322955D01*
X126844367Y-108338969D01*
X126844005Y-108339119D01*
X126811496Y-108348980D01*
X126811111Y-108349056D01*
X126771167Y-108352990D01*
X126770971Y-108353000D01*
X126686834Y-108353000D01*
X126685102Y-108352000D01*
X126685102Y-108350000D01*
X126686638Y-108349010D01*
X126737975Y-108343954D01*
X126787157Y-108329035D01*
X126832481Y-108304809D01*
X126872207Y-108272207D01*
X126904809Y-108232481D01*
X126929035Y-108187157D01*
X126943954Y-108137975D01*
X126949010Y-108086638D01*
X126950175Y-108085012D01*
X126952165Y-108085208D01*
G37*
G36*
X125050990Y-108086638D02*
G01*
X125056046Y-108137975D01*
X125070965Y-108187157D01*
X125095191Y-108232481D01*
X125127793Y-108272207D01*
X125167519Y-108304809D01*
X125212843Y-108329035D01*
X125262025Y-108343954D01*
X125313362Y-108349010D01*
X125314988Y-108350175D01*
X125314792Y-108352165D01*
X125313166Y-108353000D01*
X125229029Y-108353000D01*
X125228833Y-108352990D01*
X125188889Y-108349056D01*
X125188504Y-108348980D01*
X125155995Y-108339119D01*
X125155633Y-108338969D01*
X125125675Y-108322955D01*
X125125349Y-108322737D01*
X125099090Y-108301187D01*
X125098813Y-108300910D01*
X125077263Y-108274651D01*
X125077045Y-108274325D01*
X125061031Y-108244367D01*
X125060881Y-108244005D01*
X125051020Y-108211496D01*
X125050944Y-108211111D01*
X125047010Y-108171167D01*
X125047000Y-108170971D01*
X125047000Y-108086834D01*
X125048000Y-108085102D01*
X125050000Y-108085102D01*
X125050990Y-108086638D01*
G37*
G36*
X125314898Y-104648000D02*
G01*
X125314898Y-104650000D01*
X125313362Y-104650990D01*
X125262025Y-104656046D01*
X125212843Y-104670965D01*
X125167519Y-104695191D01*
X125127793Y-104727793D01*
X125095191Y-104767519D01*
X125070965Y-104812843D01*
X125056046Y-104862025D01*
X125050990Y-104913362D01*
X125049825Y-104914988D01*
X125047835Y-104914792D01*
X125047000Y-104913166D01*
X125047000Y-104829029D01*
X125047010Y-104828833D01*
X125050944Y-104788889D01*
X125051020Y-104788504D01*
X125060881Y-104755995D01*
X125061031Y-104755633D01*
X125077045Y-104725675D01*
X125077263Y-104725349D01*
X125098813Y-104699090D01*
X125099090Y-104698813D01*
X125125349Y-104677263D01*
X125125675Y-104677045D01*
X125155633Y-104661031D01*
X125155995Y-104660881D01*
X125188504Y-104651020D01*
X125188889Y-104650944D01*
X125228833Y-104647010D01*
X125229029Y-104647000D01*
X125313166Y-104647000D01*
X125314898Y-104648000D01*
G37*
G36*
X126771167Y-104647010D02*
G01*
X126811111Y-104650944D01*
X126811496Y-104651020D01*
X126844005Y-104660881D01*
X126844367Y-104661031D01*
X126874325Y-104677045D01*
X126874651Y-104677263D01*
X126900910Y-104698813D01*
X126901187Y-104699090D01*
X126922737Y-104725349D01*
X126922955Y-104725675D01*
X126938969Y-104755633D01*
X126939119Y-104755995D01*
X126948980Y-104788504D01*
X126949056Y-104788889D01*
X126952990Y-104828833D01*
X126953000Y-104829029D01*
X126953000Y-104913166D01*
X126952000Y-104914898D01*
X126950000Y-104914898D01*
X126949010Y-104913362D01*
X126943954Y-104862025D01*
X126929035Y-104812843D01*
X126904809Y-104767519D01*
X126872207Y-104727793D01*
X126832481Y-104695191D01*
X126787157Y-104670965D01*
X126737975Y-104656046D01*
X126686638Y-104650990D01*
X126685012Y-104649825D01*
X126685208Y-104647835D01*
X126686834Y-104647000D01*
X126770971Y-104647000D01*
X126771167Y-104647010D01*
G37*
M02*
