G04 #@! TF.GenerationSoftware,KiCad,Pcbnew,5.1.9*
G04 #@! TF.CreationDate,2021-07-18T14:13:42+08:00*
G04 #@! TF.ProjectId,digital-amplifier2,64696769-7461-46c2-9d61-6d706c696669,rev?*
G04 #@! TF.SameCoordinates,Original*
G04 #@! TF.FileFunction,Paste,Bot*
G04 #@! TF.FilePolarity,Positive*
%FSLAX46Y46*%
G04 Gerber Fmt 4.6, Leading zero omitted, Abs format (unit mm)*
G04 Created by KiCad (PCBNEW 5.1.9) date 2021-07-18 14:13:42*
%MOMM*%
%LPD*%
G01*
G04 APERTURE LIST*
%ADD10R,0.450000X0.600000*%
%ADD11R,0.900000X0.800000*%
%ADD12R,2.500000X1.800000*%
%ADD13R,2.400000X1.500000*%
%ADD14R,1.000000X0.500000*%
%ADD15R,0.500000X1.000000*%
%ADD16R,0.800000X0.900000*%
%ADD17R,1.500000X2.400000*%
%ADD18R,1.800000X2.500000*%
G04 APERTURE END LIST*
G36*
G01*
X186313000Y-134188080D02*
X186813000Y-134188080D01*
G75*
G02*
X187038000Y-134413080I0J-225000D01*
G01*
X187038000Y-134863080D01*
G75*
G02*
X186813000Y-135088080I-225000J0D01*
G01*
X186313000Y-135088080D01*
G75*
G02*
X186088000Y-134863080I0J225000D01*
G01*
X186088000Y-134413080D01*
G75*
G02*
X186313000Y-134188080I225000J0D01*
G01*
G37*
G36*
G01*
X186313000Y-132638080D02*
X186813000Y-132638080D01*
G75*
G02*
X187038000Y-132863080I0J-225000D01*
G01*
X187038000Y-133313080D01*
G75*
G02*
X186813000Y-133538080I-225000J0D01*
G01*
X186313000Y-133538080D01*
G75*
G02*
X186088000Y-133313080I0J225000D01*
G01*
X186088000Y-132863080D01*
G75*
G02*
X186313000Y-132638080I225000J0D01*
G01*
G37*
G36*
G01*
X186813000Y-140853280D02*
X186313000Y-140853280D01*
G75*
G02*
X186088000Y-140628280I0J225000D01*
G01*
X186088000Y-140178280D01*
G75*
G02*
X186313000Y-139953280I225000J0D01*
G01*
X186813000Y-139953280D01*
G75*
G02*
X187038000Y-140178280I0J-225000D01*
G01*
X187038000Y-140628280D01*
G75*
G02*
X186813000Y-140853280I-225000J0D01*
G01*
G37*
G36*
G01*
X186813000Y-142403280D02*
X186313000Y-142403280D01*
G75*
G02*
X186088000Y-142178280I0J225000D01*
G01*
X186088000Y-141728280D01*
G75*
G02*
X186313000Y-141503280I225000J0D01*
G01*
X186813000Y-141503280D01*
G75*
G02*
X187038000Y-141728280I0J-225000D01*
G01*
X187038000Y-142178280D01*
G75*
G02*
X186813000Y-142403280I-225000J0D01*
G01*
G37*
G36*
G01*
X159407740Y-164621780D02*
X159407740Y-164121780D01*
G75*
G02*
X159632740Y-163896780I225000J0D01*
G01*
X160082740Y-163896780D01*
G75*
G02*
X160307740Y-164121780I0J-225000D01*
G01*
X160307740Y-164621780D01*
G75*
G02*
X160082740Y-164846780I-225000J0D01*
G01*
X159632740Y-164846780D01*
G75*
G02*
X159407740Y-164621780I0J225000D01*
G01*
G37*
G36*
G01*
X157857740Y-164621780D02*
X157857740Y-164121780D01*
G75*
G02*
X158082740Y-163896780I225000J0D01*
G01*
X158532740Y-163896780D01*
G75*
G02*
X158757740Y-164121780I0J-225000D01*
G01*
X158757740Y-164621780D01*
G75*
G02*
X158532740Y-164846780I-225000J0D01*
G01*
X158082740Y-164846780D01*
G75*
G02*
X157857740Y-164621780I0J225000D01*
G01*
G37*
G36*
G01*
X159387420Y-161248660D02*
X159387420Y-160748660D01*
G75*
G02*
X159612420Y-160523660I225000J0D01*
G01*
X160062420Y-160523660D01*
G75*
G02*
X160287420Y-160748660I0J-225000D01*
G01*
X160287420Y-161248660D01*
G75*
G02*
X160062420Y-161473660I-225000J0D01*
G01*
X159612420Y-161473660D01*
G75*
G02*
X159387420Y-161248660I0J225000D01*
G01*
G37*
G36*
G01*
X157837420Y-161248660D02*
X157837420Y-160748660D01*
G75*
G02*
X158062420Y-160523660I225000J0D01*
G01*
X158512420Y-160523660D01*
G75*
G02*
X158737420Y-160748660I0J-225000D01*
G01*
X158737420Y-161248660D01*
G75*
G02*
X158512420Y-161473660I-225000J0D01*
G01*
X158062420Y-161473660D01*
G75*
G02*
X157837420Y-161248660I0J225000D01*
G01*
G37*
G36*
G01*
X159430600Y-162914900D02*
X159430600Y-162414900D01*
G75*
G02*
X159655600Y-162189900I225000J0D01*
G01*
X160105600Y-162189900D01*
G75*
G02*
X160330600Y-162414900I0J-225000D01*
G01*
X160330600Y-162914900D01*
G75*
G02*
X160105600Y-163139900I-225000J0D01*
G01*
X159655600Y-163139900D01*
G75*
G02*
X159430600Y-162914900I0J225000D01*
G01*
G37*
G36*
G01*
X157880600Y-162914900D02*
X157880600Y-162414900D01*
G75*
G02*
X158105600Y-162189900I225000J0D01*
G01*
X158555600Y-162189900D01*
G75*
G02*
X158780600Y-162414900I0J-225000D01*
G01*
X158780600Y-162914900D01*
G75*
G02*
X158555600Y-163139900I-225000J0D01*
G01*
X158105600Y-163139900D01*
G75*
G02*
X157880600Y-162914900I0J225000D01*
G01*
G37*
G36*
G01*
X158800680Y-152152160D02*
X158800680Y-151652160D01*
G75*
G02*
X159025680Y-151427160I225000J0D01*
G01*
X159475680Y-151427160D01*
G75*
G02*
X159700680Y-151652160I0J-225000D01*
G01*
X159700680Y-152152160D01*
G75*
G02*
X159475680Y-152377160I-225000J0D01*
G01*
X159025680Y-152377160D01*
G75*
G02*
X158800680Y-152152160I0J225000D01*
G01*
G37*
G36*
G01*
X157250680Y-152152160D02*
X157250680Y-151652160D01*
G75*
G02*
X157475680Y-151427160I225000J0D01*
G01*
X157925680Y-151427160D01*
G75*
G02*
X158150680Y-151652160I0J-225000D01*
G01*
X158150680Y-152152160D01*
G75*
G02*
X157925680Y-152377160I-225000J0D01*
G01*
X157475680Y-152377160D01*
G75*
G02*
X157250680Y-152152160I0J225000D01*
G01*
G37*
G36*
G01*
X133455600Y-204988040D02*
X133955600Y-204988040D01*
G75*
G02*
X134180600Y-205213040I0J-225000D01*
G01*
X134180600Y-205663040D01*
G75*
G02*
X133955600Y-205888040I-225000J0D01*
G01*
X133455600Y-205888040D01*
G75*
G02*
X133230600Y-205663040I0J225000D01*
G01*
X133230600Y-205213040D01*
G75*
G02*
X133455600Y-204988040I225000J0D01*
G01*
G37*
G36*
G01*
X133455600Y-203438040D02*
X133955600Y-203438040D01*
G75*
G02*
X134180600Y-203663040I0J-225000D01*
G01*
X134180600Y-204113040D01*
G75*
G02*
X133955600Y-204338040I-225000J0D01*
G01*
X133455600Y-204338040D01*
G75*
G02*
X133230600Y-204113040I0J225000D01*
G01*
X133230600Y-203663040D01*
G75*
G02*
X133455600Y-203438040I225000J0D01*
G01*
G37*
G36*
G01*
X184063520Y-150155720D02*
X184063520Y-149655720D01*
G75*
G02*
X184288520Y-149430720I225000J0D01*
G01*
X184738520Y-149430720D01*
G75*
G02*
X184963520Y-149655720I0J-225000D01*
G01*
X184963520Y-150155720D01*
G75*
G02*
X184738520Y-150380720I-225000J0D01*
G01*
X184288520Y-150380720D01*
G75*
G02*
X184063520Y-150155720I0J225000D01*
G01*
G37*
G36*
G01*
X182513520Y-150155720D02*
X182513520Y-149655720D01*
G75*
G02*
X182738520Y-149430720I225000J0D01*
G01*
X183188520Y-149430720D01*
G75*
G02*
X183413520Y-149655720I0J-225000D01*
G01*
X183413520Y-150155720D01*
G75*
G02*
X183188520Y-150380720I-225000J0D01*
G01*
X182738520Y-150380720D01*
G75*
G02*
X182513520Y-150155720I0J225000D01*
G01*
G37*
G36*
G01*
X172004800Y-167396280D02*
X171504800Y-167396280D01*
G75*
G02*
X171279800Y-167171280I0J225000D01*
G01*
X171279800Y-166721280D01*
G75*
G02*
X171504800Y-166496280I225000J0D01*
G01*
X172004800Y-166496280D01*
G75*
G02*
X172229800Y-166721280I0J-225000D01*
G01*
X172229800Y-167171280D01*
G75*
G02*
X172004800Y-167396280I-225000J0D01*
G01*
G37*
G36*
G01*
X172004800Y-168946280D02*
X171504800Y-168946280D01*
G75*
G02*
X171279800Y-168721280I0J225000D01*
G01*
X171279800Y-168271280D01*
G75*
G02*
X171504800Y-168046280I225000J0D01*
G01*
X172004800Y-168046280D01*
G75*
G02*
X172229800Y-168271280I0J-225000D01*
G01*
X172229800Y-168721280D01*
G75*
G02*
X172004800Y-168946280I-225000J0D01*
G01*
G37*
G36*
G01*
X173579600Y-164297480D02*
X173079600Y-164297480D01*
G75*
G02*
X172854600Y-164072480I0J225000D01*
G01*
X172854600Y-163622480D01*
G75*
G02*
X173079600Y-163397480I225000J0D01*
G01*
X173579600Y-163397480D01*
G75*
G02*
X173804600Y-163622480I0J-225000D01*
G01*
X173804600Y-164072480D01*
G75*
G02*
X173579600Y-164297480I-225000J0D01*
G01*
G37*
G36*
G01*
X173579600Y-165847480D02*
X173079600Y-165847480D01*
G75*
G02*
X172854600Y-165622480I0J225000D01*
G01*
X172854600Y-165172480D01*
G75*
G02*
X173079600Y-164947480I225000J0D01*
G01*
X173579600Y-164947480D01*
G75*
G02*
X173804600Y-165172480I0J-225000D01*
G01*
X173804600Y-165622480D01*
G75*
G02*
X173579600Y-165847480I-225000J0D01*
G01*
G37*
G36*
G01*
X172153700Y-174913480D02*
X172153700Y-175413480D01*
G75*
G02*
X171928700Y-175638480I-225000J0D01*
G01*
X171478700Y-175638480D01*
G75*
G02*
X171253700Y-175413480I0J225000D01*
G01*
X171253700Y-174913480D01*
G75*
G02*
X171478700Y-174688480I225000J0D01*
G01*
X171928700Y-174688480D01*
G75*
G02*
X172153700Y-174913480I0J-225000D01*
G01*
G37*
G36*
G01*
X173703700Y-174913480D02*
X173703700Y-175413480D01*
G75*
G02*
X173478700Y-175638480I-225000J0D01*
G01*
X173028700Y-175638480D01*
G75*
G02*
X172803700Y-175413480I0J225000D01*
G01*
X172803700Y-174913480D01*
G75*
G02*
X173028700Y-174688480I225000J0D01*
G01*
X173478700Y-174688480D01*
G75*
G02*
X173703700Y-174913480I0J-225000D01*
G01*
G37*
G36*
G01*
X187149320Y-151730520D02*
X187149320Y-151230520D01*
G75*
G02*
X187374320Y-151005520I225000J0D01*
G01*
X187824320Y-151005520D01*
G75*
G02*
X188049320Y-151230520I0J-225000D01*
G01*
X188049320Y-151730520D01*
G75*
G02*
X187824320Y-151955520I-225000J0D01*
G01*
X187374320Y-151955520D01*
G75*
G02*
X187149320Y-151730520I0J225000D01*
G01*
G37*
G36*
G01*
X185599320Y-151730520D02*
X185599320Y-151230520D01*
G75*
G02*
X185824320Y-151005520I225000J0D01*
G01*
X186274320Y-151005520D01*
G75*
G02*
X186499320Y-151230520I0J-225000D01*
G01*
X186499320Y-151730520D01*
G75*
G02*
X186274320Y-151955520I-225000J0D01*
G01*
X185824320Y-151955520D01*
G75*
G02*
X185599320Y-151730520I0J225000D01*
G01*
G37*
G36*
G01*
X174859760Y-151831160D02*
X174359760Y-151831160D01*
G75*
G02*
X174134760Y-151606160I0J225000D01*
G01*
X174134760Y-151156160D01*
G75*
G02*
X174359760Y-150931160I225000J0D01*
G01*
X174859760Y-150931160D01*
G75*
G02*
X175084760Y-151156160I0J-225000D01*
G01*
X175084760Y-151606160D01*
G75*
G02*
X174859760Y-151831160I-225000J0D01*
G01*
G37*
G36*
G01*
X174859760Y-153381160D02*
X174359760Y-153381160D01*
G75*
G02*
X174134760Y-153156160I0J225000D01*
G01*
X174134760Y-152706160D01*
G75*
G02*
X174359760Y-152481160I225000J0D01*
G01*
X174859760Y-152481160D01*
G75*
G02*
X175084760Y-152706160I0J-225000D01*
G01*
X175084760Y-153156160D01*
G75*
G02*
X174859760Y-153381160I-225000J0D01*
G01*
G37*
G36*
G01*
X126259400Y-111358800D02*
X125759400Y-111358800D01*
G75*
G02*
X125534400Y-111133800I0J225000D01*
G01*
X125534400Y-110683800D01*
G75*
G02*
X125759400Y-110458800I225000J0D01*
G01*
X126259400Y-110458800D01*
G75*
G02*
X126484400Y-110683800I0J-225000D01*
G01*
X126484400Y-111133800D01*
G75*
G02*
X126259400Y-111358800I-225000J0D01*
G01*
G37*
G36*
G01*
X126259400Y-112908800D02*
X125759400Y-112908800D01*
G75*
G02*
X125534400Y-112683800I0J225000D01*
G01*
X125534400Y-112233800D01*
G75*
G02*
X125759400Y-112008800I225000J0D01*
G01*
X126259400Y-112008800D01*
G75*
G02*
X126484400Y-112233800I0J-225000D01*
G01*
X126484400Y-112683800D01*
G75*
G02*
X126259400Y-112908800I-225000J0D01*
G01*
G37*
G36*
G01*
X118639400Y-111409600D02*
X118139400Y-111409600D01*
G75*
G02*
X117914400Y-111184600I0J225000D01*
G01*
X117914400Y-110734600D01*
G75*
G02*
X118139400Y-110509600I225000J0D01*
G01*
X118639400Y-110509600D01*
G75*
G02*
X118864400Y-110734600I0J-225000D01*
G01*
X118864400Y-111184600D01*
G75*
G02*
X118639400Y-111409600I-225000J0D01*
G01*
G37*
G36*
G01*
X118639400Y-112959600D02*
X118139400Y-112959600D01*
G75*
G02*
X117914400Y-112734600I0J225000D01*
G01*
X117914400Y-112284600D01*
G75*
G02*
X118139400Y-112059600I225000J0D01*
G01*
X118639400Y-112059600D01*
G75*
G02*
X118864400Y-112284600I0J-225000D01*
G01*
X118864400Y-112734600D01*
G75*
G02*
X118639400Y-112959600I-225000J0D01*
G01*
G37*
G36*
G01*
X122449400Y-111409600D02*
X121949400Y-111409600D01*
G75*
G02*
X121724400Y-111184600I0J225000D01*
G01*
X121724400Y-110734600D01*
G75*
G02*
X121949400Y-110509600I225000J0D01*
G01*
X122449400Y-110509600D01*
G75*
G02*
X122674400Y-110734600I0J-225000D01*
G01*
X122674400Y-111184600D01*
G75*
G02*
X122449400Y-111409600I-225000J0D01*
G01*
G37*
G36*
G01*
X122449400Y-112959600D02*
X121949400Y-112959600D01*
G75*
G02*
X121724400Y-112734600I0J225000D01*
G01*
X121724400Y-112284600D01*
G75*
G02*
X121949400Y-112059600I225000J0D01*
G01*
X122449400Y-112059600D01*
G75*
G02*
X122674400Y-112284600I0J-225000D01*
G01*
X122674400Y-112734600D01*
G75*
G02*
X122449400Y-112959600I-225000J0D01*
G01*
G37*
G36*
G01*
X114778600Y-111358800D02*
X114278600Y-111358800D01*
G75*
G02*
X114053600Y-111133800I0J225000D01*
G01*
X114053600Y-110683800D01*
G75*
G02*
X114278600Y-110458800I225000J0D01*
G01*
X114778600Y-110458800D01*
G75*
G02*
X115003600Y-110683800I0J-225000D01*
G01*
X115003600Y-111133800D01*
G75*
G02*
X114778600Y-111358800I-225000J0D01*
G01*
G37*
G36*
G01*
X114778600Y-112908800D02*
X114278600Y-112908800D01*
G75*
G02*
X114053600Y-112683800I0J225000D01*
G01*
X114053600Y-112233800D01*
G75*
G02*
X114278600Y-112008800I225000J0D01*
G01*
X114778600Y-112008800D01*
G75*
G02*
X115003600Y-112233800I0J-225000D01*
G01*
X115003600Y-112683800D01*
G75*
G02*
X114778600Y-112908800I-225000J0D01*
G01*
G37*
G36*
G01*
X122782520Y-156408000D02*
X123282520Y-156408000D01*
G75*
G02*
X123507520Y-156633000I0J-225000D01*
G01*
X123507520Y-157083000D01*
G75*
G02*
X123282520Y-157308000I-225000J0D01*
G01*
X122782520Y-157308000D01*
G75*
G02*
X122557520Y-157083000I0J225000D01*
G01*
X122557520Y-156633000D01*
G75*
G02*
X122782520Y-156408000I225000J0D01*
G01*
G37*
G36*
G01*
X122782520Y-154858000D02*
X123282520Y-154858000D01*
G75*
G02*
X123507520Y-155083000I0J-225000D01*
G01*
X123507520Y-155533000D01*
G75*
G02*
X123282520Y-155758000I-225000J0D01*
G01*
X122782520Y-155758000D01*
G75*
G02*
X122557520Y-155533000I0J225000D01*
G01*
X122557520Y-155083000D01*
G75*
G02*
X122782520Y-154858000I225000J0D01*
G01*
G37*
G36*
G01*
X124370020Y-156420700D02*
X124870020Y-156420700D01*
G75*
G02*
X125095020Y-156645700I0J-225000D01*
G01*
X125095020Y-157095700D01*
G75*
G02*
X124870020Y-157320700I-225000J0D01*
G01*
X124370020Y-157320700D01*
G75*
G02*
X124145020Y-157095700I0J225000D01*
G01*
X124145020Y-156645700D01*
G75*
G02*
X124370020Y-156420700I225000J0D01*
G01*
G37*
G36*
G01*
X124370020Y-154870700D02*
X124870020Y-154870700D01*
G75*
G02*
X125095020Y-155095700I0J-225000D01*
G01*
X125095020Y-155545700D01*
G75*
G02*
X124870020Y-155770700I-225000J0D01*
G01*
X124370020Y-155770700D01*
G75*
G02*
X124145020Y-155545700I0J225000D01*
G01*
X124145020Y-155095700D01*
G75*
G02*
X124370020Y-154870700I225000J0D01*
G01*
G37*
G36*
G01*
X156333140Y-171046562D02*
X156333140Y-170146558D01*
G75*
G02*
X156583138Y-169896560I249998J0D01*
G01*
X157108142Y-169896560D01*
G75*
G02*
X157358140Y-170146558I0J-249998D01*
G01*
X157358140Y-171046562D01*
G75*
G02*
X157108142Y-171296560I-249998J0D01*
G01*
X156583138Y-171296560D01*
G75*
G02*
X156333140Y-171046562I0J249998D01*
G01*
G37*
G36*
G01*
X154508140Y-171046562D02*
X154508140Y-170146558D01*
G75*
G02*
X154758138Y-169896560I249998J0D01*
G01*
X155283142Y-169896560D01*
G75*
G02*
X155533140Y-170146558I0J-249998D01*
G01*
X155533140Y-171046562D01*
G75*
G02*
X155283142Y-171296560I-249998J0D01*
G01*
X154758138Y-171296560D01*
G75*
G02*
X154508140Y-171046562I0J249998D01*
G01*
G37*
D10*
X156314140Y-166292820D03*
X156314140Y-168392820D03*
D11*
X184597800Y-137642600D03*
X186597800Y-138592600D03*
X186597800Y-136692600D03*
D12*
X161672020Y-190576200D03*
X157672020Y-190576200D03*
G36*
G01*
X153149140Y-175386750D02*
X153149140Y-176149250D01*
G75*
G02*
X152930390Y-176368000I-218750J0D01*
G01*
X152492890Y-176368000D01*
G75*
G02*
X152274140Y-176149250I0J218750D01*
G01*
X152274140Y-175386750D01*
G75*
G02*
X152492890Y-175168000I218750J0D01*
G01*
X152930390Y-175168000D01*
G75*
G02*
X153149140Y-175386750I0J-218750D01*
G01*
G37*
G36*
G01*
X155274140Y-175386750D02*
X155274140Y-176149250D01*
G75*
G02*
X155055390Y-176368000I-218750J0D01*
G01*
X154617890Y-176368000D01*
G75*
G02*
X154399140Y-176149250I0J218750D01*
G01*
X154399140Y-175386750D01*
G75*
G02*
X154617890Y-175168000I218750J0D01*
G01*
X155055390Y-175168000D01*
G75*
G02*
X155274140Y-175386750I0J-218750D01*
G01*
G37*
G36*
G01*
X153443780Y-182859430D02*
X153443780Y-183621930D01*
G75*
G02*
X153225030Y-183840680I-218750J0D01*
G01*
X152787530Y-183840680D01*
G75*
G02*
X152568780Y-183621930I0J218750D01*
G01*
X152568780Y-182859430D01*
G75*
G02*
X152787530Y-182640680I218750J0D01*
G01*
X153225030Y-182640680D01*
G75*
G02*
X153443780Y-182859430I0J-218750D01*
G01*
G37*
G36*
G01*
X155568780Y-182859430D02*
X155568780Y-183621930D01*
G75*
G02*
X155350030Y-183840680I-218750J0D01*
G01*
X154912530Y-183840680D01*
G75*
G02*
X154693780Y-183621930I0J218750D01*
G01*
X154693780Y-182859430D01*
G75*
G02*
X154912530Y-182640680I218750J0D01*
G01*
X155350030Y-182640680D01*
G75*
G02*
X155568780Y-182859430I0J-218750D01*
G01*
G37*
X157626300Y-174812960D03*
X161626300Y-174812960D03*
X161687260Y-182285640D03*
X157687260Y-182285640D03*
G36*
G01*
X150240980Y-178986600D02*
X151190980Y-178986600D01*
G75*
G02*
X151440980Y-179236600I0J-250000D01*
G01*
X151440980Y-179736600D01*
G75*
G02*
X151190980Y-179986600I-250000J0D01*
G01*
X150240980Y-179986600D01*
G75*
G02*
X149990980Y-179736600I0J250000D01*
G01*
X149990980Y-179236600D01*
G75*
G02*
X150240980Y-178986600I250000J0D01*
G01*
G37*
G36*
G01*
X150240980Y-177086600D02*
X151190980Y-177086600D01*
G75*
G02*
X151440980Y-177336600I0J-250000D01*
G01*
X151440980Y-177836600D01*
G75*
G02*
X151190980Y-178086600I-250000J0D01*
G01*
X150240980Y-178086600D01*
G75*
G02*
X149990980Y-177836600I0J250000D01*
G01*
X149990980Y-177336600D01*
G75*
G02*
X150240980Y-177086600I250000J0D01*
G01*
G37*
G36*
G01*
X152387915Y-186410400D02*
X153337915Y-186410400D01*
G75*
G02*
X153587915Y-186660400I0J-250000D01*
G01*
X153587915Y-187160400D01*
G75*
G02*
X153337915Y-187410400I-250000J0D01*
G01*
X152387915Y-187410400D01*
G75*
G02*
X152137915Y-187160400I0J250000D01*
G01*
X152137915Y-186660400D01*
G75*
G02*
X152387915Y-186410400I250000J0D01*
G01*
G37*
G36*
G01*
X152387915Y-184510400D02*
X153337915Y-184510400D01*
G75*
G02*
X153587915Y-184760400I0J-250000D01*
G01*
X153587915Y-185260400D01*
G75*
G02*
X153337915Y-185510400I-250000J0D01*
G01*
X152387915Y-185510400D01*
G75*
G02*
X152137915Y-185260400I0J250000D01*
G01*
X152137915Y-184760400D01*
G75*
G02*
X152387915Y-184510400I250000J0D01*
G01*
G37*
G36*
G01*
X152378700Y-178975000D02*
X153328700Y-178975000D01*
G75*
G02*
X153578700Y-179225000I0J-250000D01*
G01*
X153578700Y-179725000D01*
G75*
G02*
X153328700Y-179975000I-250000J0D01*
G01*
X152378700Y-179975000D01*
G75*
G02*
X152128700Y-179725000I0J250000D01*
G01*
X152128700Y-179225000D01*
G75*
G02*
X152378700Y-178975000I250000J0D01*
G01*
G37*
G36*
G01*
X152378700Y-177075000D02*
X153328700Y-177075000D01*
G75*
G02*
X153578700Y-177325000I0J-250000D01*
G01*
X153578700Y-177825000D01*
G75*
G02*
X153328700Y-178075000I-250000J0D01*
G01*
X152378700Y-178075000D01*
G75*
G02*
X152128700Y-177825000I0J250000D01*
G01*
X152128700Y-177325000D01*
G75*
G02*
X152378700Y-177075000I250000J0D01*
G01*
G37*
G36*
G01*
X150246060Y-186372920D02*
X151196060Y-186372920D01*
G75*
G02*
X151446060Y-186622920I0J-250000D01*
G01*
X151446060Y-187122920D01*
G75*
G02*
X151196060Y-187372920I-250000J0D01*
G01*
X150246060Y-187372920D01*
G75*
G02*
X149996060Y-187122920I0J250000D01*
G01*
X149996060Y-186622920D01*
G75*
G02*
X150246060Y-186372920I250000J0D01*
G01*
G37*
G36*
G01*
X150246060Y-184472920D02*
X151196060Y-184472920D01*
G75*
G02*
X151446060Y-184722920I0J-250000D01*
G01*
X151446060Y-185222920D01*
G75*
G02*
X151196060Y-185472920I-250000J0D01*
G01*
X150246060Y-185472920D01*
G75*
G02*
X149996060Y-185222920I0J250000D01*
G01*
X149996060Y-184722920D01*
G75*
G02*
X150246060Y-184472920I250000J0D01*
G01*
G37*
G36*
G01*
X154538660Y-178961200D02*
X155488660Y-178961200D01*
G75*
G02*
X155738660Y-179211200I0J-250000D01*
G01*
X155738660Y-179711200D01*
G75*
G02*
X155488660Y-179961200I-250000J0D01*
G01*
X154538660Y-179961200D01*
G75*
G02*
X154288660Y-179711200I0J250000D01*
G01*
X154288660Y-179211200D01*
G75*
G02*
X154538660Y-178961200I250000J0D01*
G01*
G37*
G36*
G01*
X154538660Y-177061200D02*
X155488660Y-177061200D01*
G75*
G02*
X155738660Y-177311200I0J-250000D01*
G01*
X155738660Y-177811200D01*
G75*
G02*
X155488660Y-178061200I-250000J0D01*
G01*
X154538660Y-178061200D01*
G75*
G02*
X154288660Y-177811200I0J250000D01*
G01*
X154288660Y-177311200D01*
G75*
G02*
X154538660Y-177061200I250000J0D01*
G01*
G37*
G36*
G01*
X154529770Y-186408480D02*
X155479770Y-186408480D01*
G75*
G02*
X155729770Y-186658480I0J-250000D01*
G01*
X155729770Y-187158480D01*
G75*
G02*
X155479770Y-187408480I-250000J0D01*
G01*
X154529770Y-187408480D01*
G75*
G02*
X154279770Y-187158480I0J250000D01*
G01*
X154279770Y-186658480D01*
G75*
G02*
X154529770Y-186408480I250000J0D01*
G01*
G37*
G36*
G01*
X154529770Y-184508480D02*
X155479770Y-184508480D01*
G75*
G02*
X155729770Y-184758480I0J-250000D01*
G01*
X155729770Y-185258480D01*
G75*
G02*
X155479770Y-185508480I-250000J0D01*
G01*
X154529770Y-185508480D01*
G75*
G02*
X154279770Y-185258480I0J250000D01*
G01*
X154279770Y-184758480D01*
G75*
G02*
X154529770Y-184508480I250000J0D01*
G01*
G37*
G36*
G01*
X158818560Y-178973900D02*
X159768560Y-178973900D01*
G75*
G02*
X160018560Y-179223900I0J-250000D01*
G01*
X160018560Y-179723900D01*
G75*
G02*
X159768560Y-179973900I-250000J0D01*
G01*
X158818560Y-179973900D01*
G75*
G02*
X158568560Y-179723900I0J250000D01*
G01*
X158568560Y-179223900D01*
G75*
G02*
X158818560Y-178973900I250000J0D01*
G01*
G37*
G36*
G01*
X158818560Y-177073900D02*
X159768560Y-177073900D01*
G75*
G02*
X160018560Y-177323900I0J-250000D01*
G01*
X160018560Y-177823900D01*
G75*
G02*
X159768560Y-178073900I-250000J0D01*
G01*
X158818560Y-178073900D01*
G75*
G02*
X158568560Y-177823900I0J250000D01*
G01*
X158568560Y-177323900D01*
G75*
G02*
X158818560Y-177073900I250000J0D01*
G01*
G37*
G36*
G01*
X158813480Y-186408480D02*
X159763480Y-186408480D01*
G75*
G02*
X160013480Y-186658480I0J-250000D01*
G01*
X160013480Y-187158480D01*
G75*
G02*
X159763480Y-187408480I-250000J0D01*
G01*
X158813480Y-187408480D01*
G75*
G02*
X158563480Y-187158480I0J250000D01*
G01*
X158563480Y-186658480D01*
G75*
G02*
X158813480Y-186408480I250000J0D01*
G01*
G37*
G36*
G01*
X158813480Y-184508480D02*
X159763480Y-184508480D01*
G75*
G02*
X160013480Y-184758480I0J-250000D01*
G01*
X160013480Y-185258480D01*
G75*
G02*
X159763480Y-185508480I-250000J0D01*
G01*
X158813480Y-185508480D01*
G75*
G02*
X158563480Y-185258480I0J250000D01*
G01*
X158563480Y-184758480D01*
G75*
G02*
X158813480Y-184508480I250000J0D01*
G01*
G37*
G36*
G01*
X156659560Y-178973900D02*
X157609560Y-178973900D01*
G75*
G02*
X157859560Y-179223900I0J-250000D01*
G01*
X157859560Y-179723900D01*
G75*
G02*
X157609560Y-179973900I-250000J0D01*
G01*
X156659560Y-179973900D01*
G75*
G02*
X156409560Y-179723900I0J250000D01*
G01*
X156409560Y-179223900D01*
G75*
G02*
X156659560Y-178973900I250000J0D01*
G01*
G37*
G36*
G01*
X156659560Y-177073900D02*
X157609560Y-177073900D01*
G75*
G02*
X157859560Y-177323900I0J-250000D01*
G01*
X157859560Y-177823900D01*
G75*
G02*
X157609560Y-178073900I-250000J0D01*
G01*
X156659560Y-178073900D01*
G75*
G02*
X156409560Y-177823900I0J250000D01*
G01*
X156409560Y-177323900D01*
G75*
G02*
X156659560Y-177073900I250000J0D01*
G01*
G37*
G36*
G01*
X156671625Y-186408480D02*
X157621625Y-186408480D01*
G75*
G02*
X157871625Y-186658480I0J-250000D01*
G01*
X157871625Y-187158480D01*
G75*
G02*
X157621625Y-187408480I-250000J0D01*
G01*
X156671625Y-187408480D01*
G75*
G02*
X156421625Y-187158480I0J250000D01*
G01*
X156421625Y-186658480D01*
G75*
G02*
X156671625Y-186408480I250000J0D01*
G01*
G37*
G36*
G01*
X156671625Y-184508480D02*
X157621625Y-184508480D01*
G75*
G02*
X157871625Y-184758480I0J-250000D01*
G01*
X157871625Y-185258480D01*
G75*
G02*
X157621625Y-185508480I-250000J0D01*
G01*
X156671625Y-185508480D01*
G75*
G02*
X156421625Y-185258480I0J250000D01*
G01*
X156421625Y-184758480D01*
G75*
G02*
X156671625Y-184508480I250000J0D01*
G01*
G37*
G36*
G01*
X108450199Y-166595100D02*
X110650201Y-166595100D01*
G75*
G02*
X110900200Y-166845099I0J-249999D01*
G01*
X110900200Y-167495101D01*
G75*
G02*
X110650201Y-167745100I-249999J0D01*
G01*
X108450199Y-167745100D01*
G75*
G02*
X108200200Y-167495101I0J249999D01*
G01*
X108200200Y-166845099D01*
G75*
G02*
X108450199Y-166595100I249999J0D01*
G01*
G37*
G36*
G01*
X108450199Y-163645100D02*
X110650201Y-163645100D01*
G75*
G02*
X110900200Y-163895099I0J-249999D01*
G01*
X110900200Y-164545101D01*
G75*
G02*
X110650201Y-164795100I-249999J0D01*
G01*
X108450199Y-164795100D01*
G75*
G02*
X108200200Y-164545101I0J249999D01*
G01*
X108200200Y-163895099D01*
G75*
G02*
X108450199Y-163645100I249999J0D01*
G01*
G37*
G36*
G01*
X132148399Y-166551180D02*
X134348401Y-166551180D01*
G75*
G02*
X134598400Y-166801179I0J-249999D01*
G01*
X134598400Y-167451181D01*
G75*
G02*
X134348401Y-167701180I-249999J0D01*
G01*
X132148399Y-167701180D01*
G75*
G02*
X131898400Y-167451181I0J249999D01*
G01*
X131898400Y-166801179D01*
G75*
G02*
X132148399Y-166551180I249999J0D01*
G01*
G37*
G36*
G01*
X132148399Y-163601180D02*
X134348401Y-163601180D01*
G75*
G02*
X134598400Y-163851179I0J-249999D01*
G01*
X134598400Y-164501181D01*
G75*
G02*
X134348401Y-164751180I-249999J0D01*
G01*
X132148399Y-164751180D01*
G75*
G02*
X131898400Y-164501181I0J249999D01*
G01*
X131898400Y-163851179D01*
G75*
G02*
X132148399Y-163601180I249999J0D01*
G01*
G37*
G36*
G01*
X107671280Y-205431340D02*
X107121280Y-205431340D01*
G75*
G02*
X106921280Y-205231340I0J200000D01*
G01*
X106921280Y-204831340D01*
G75*
G02*
X107121280Y-204631340I200000J0D01*
G01*
X107671280Y-204631340D01*
G75*
G02*
X107871280Y-204831340I0J-200000D01*
G01*
X107871280Y-205231340D01*
G75*
G02*
X107671280Y-205431340I-200000J0D01*
G01*
G37*
G36*
G01*
X107671280Y-207081340D02*
X107121280Y-207081340D01*
G75*
G02*
X106921280Y-206881340I0J200000D01*
G01*
X106921280Y-206481340D01*
G75*
G02*
X107121280Y-206281340I200000J0D01*
G01*
X107671280Y-206281340D01*
G75*
G02*
X107871280Y-206481340I0J-200000D01*
G01*
X107871280Y-206881340D01*
G75*
G02*
X107671280Y-207081340I-200000J0D01*
G01*
G37*
G36*
G01*
X105546480Y-206281840D02*
X106096480Y-206281840D01*
G75*
G02*
X106296480Y-206481840I0J-200000D01*
G01*
X106296480Y-206881840D01*
G75*
G02*
X106096480Y-207081840I-200000J0D01*
G01*
X105546480Y-207081840D01*
G75*
G02*
X105346480Y-206881840I0J200000D01*
G01*
X105346480Y-206481840D01*
G75*
G02*
X105546480Y-206281840I200000J0D01*
G01*
G37*
G36*
G01*
X105546480Y-204631840D02*
X106096480Y-204631840D01*
G75*
G02*
X106296480Y-204831840I0J-200000D01*
G01*
X106296480Y-205231840D01*
G75*
G02*
X106096480Y-205431840I-200000J0D01*
G01*
X105546480Y-205431840D01*
G75*
G02*
X105346480Y-205231840I0J200000D01*
G01*
X105346480Y-204831840D01*
G75*
G02*
X105546480Y-204631840I200000J0D01*
G01*
G37*
G36*
G01*
X163594600Y-212695200D02*
X163594600Y-212145200D01*
G75*
G02*
X163794600Y-211945200I200000J0D01*
G01*
X164194600Y-211945200D01*
G75*
G02*
X164394600Y-212145200I0J-200000D01*
G01*
X164394600Y-212695200D01*
G75*
G02*
X164194600Y-212895200I-200000J0D01*
G01*
X163794600Y-212895200D01*
G75*
G02*
X163594600Y-212695200I0J200000D01*
G01*
G37*
G36*
G01*
X161944600Y-212695200D02*
X161944600Y-212145200D01*
G75*
G02*
X162144600Y-211945200I200000J0D01*
G01*
X162544600Y-211945200D01*
G75*
G02*
X162744600Y-212145200I0J-200000D01*
G01*
X162744600Y-212695200D01*
G75*
G02*
X162544600Y-212895200I-200000J0D01*
G01*
X162144600Y-212895200D01*
G75*
G02*
X161944600Y-212695200I0J200000D01*
G01*
G37*
G36*
G01*
X163607300Y-215882900D02*
X163607300Y-215332900D01*
G75*
G02*
X163807300Y-215132900I200000J0D01*
G01*
X164207300Y-215132900D01*
G75*
G02*
X164407300Y-215332900I0J-200000D01*
G01*
X164407300Y-215882900D01*
G75*
G02*
X164207300Y-216082900I-200000J0D01*
G01*
X163807300Y-216082900D01*
G75*
G02*
X163607300Y-215882900I0J200000D01*
G01*
G37*
G36*
G01*
X161957300Y-215882900D02*
X161957300Y-215332900D01*
G75*
G02*
X162157300Y-215132900I200000J0D01*
G01*
X162557300Y-215132900D01*
G75*
G02*
X162757300Y-215332900I0J-200000D01*
G01*
X162757300Y-215882900D01*
G75*
G02*
X162557300Y-216082900I-200000J0D01*
G01*
X162157300Y-216082900D01*
G75*
G02*
X161957300Y-215882900I0J200000D01*
G01*
G37*
G36*
G01*
X163594600Y-214282700D02*
X163594600Y-213732700D01*
G75*
G02*
X163794600Y-213532700I200000J0D01*
G01*
X164194600Y-213532700D01*
G75*
G02*
X164394600Y-213732700I0J-200000D01*
G01*
X164394600Y-214282700D01*
G75*
G02*
X164194600Y-214482700I-200000J0D01*
G01*
X163794600Y-214482700D01*
G75*
G02*
X163594600Y-214282700I0J200000D01*
G01*
G37*
G36*
G01*
X161944600Y-214282700D02*
X161944600Y-213732700D01*
G75*
G02*
X162144600Y-213532700I200000J0D01*
G01*
X162544600Y-213532700D01*
G75*
G02*
X162744600Y-213732700I0J-200000D01*
G01*
X162744600Y-214282700D01*
G75*
G02*
X162544600Y-214482700I-200000J0D01*
G01*
X162144600Y-214482700D01*
G75*
G02*
X161944600Y-214282700I0J200000D01*
G01*
G37*
G36*
G01*
X164773560Y-143185302D02*
X164773560Y-142285298D01*
G75*
G02*
X165023558Y-142035300I249998J0D01*
G01*
X165548562Y-142035300D01*
G75*
G02*
X165798560Y-142285298I0J-249998D01*
G01*
X165798560Y-143185302D01*
G75*
G02*
X165548562Y-143435300I-249998J0D01*
G01*
X165023558Y-143435300D01*
G75*
G02*
X164773560Y-143185302I0J249998D01*
G01*
G37*
G36*
G01*
X162948560Y-143185302D02*
X162948560Y-142285298D01*
G75*
G02*
X163198558Y-142035300I249998J0D01*
G01*
X163723562Y-142035300D01*
G75*
G02*
X163973560Y-142285298I0J-249998D01*
G01*
X163973560Y-143185302D01*
G75*
G02*
X163723562Y-143435300I-249998J0D01*
G01*
X163198558Y-143435300D01*
G75*
G02*
X162948560Y-143185302I0J249998D01*
G01*
G37*
G36*
G01*
X131703400Y-205062640D02*
X132253400Y-205062640D01*
G75*
G02*
X132453400Y-205262640I0J-200000D01*
G01*
X132453400Y-205662640D01*
G75*
G02*
X132253400Y-205862640I-200000J0D01*
G01*
X131703400Y-205862640D01*
G75*
G02*
X131503400Y-205662640I0J200000D01*
G01*
X131503400Y-205262640D01*
G75*
G02*
X131703400Y-205062640I200000J0D01*
G01*
G37*
G36*
G01*
X131703400Y-203412640D02*
X132253400Y-203412640D01*
G75*
G02*
X132453400Y-203612640I0J-200000D01*
G01*
X132453400Y-204012640D01*
G75*
G02*
X132253400Y-204212640I-200000J0D01*
G01*
X131703400Y-204212640D01*
G75*
G02*
X131503400Y-204012640I0J200000D01*
G01*
X131503400Y-203612640D01*
G75*
G02*
X131703400Y-203412640I200000J0D01*
G01*
G37*
G36*
G01*
X145776360Y-207846640D02*
X145226360Y-207846640D01*
G75*
G02*
X145026360Y-207646640I0J200000D01*
G01*
X145026360Y-207246640D01*
G75*
G02*
X145226360Y-207046640I200000J0D01*
G01*
X145776360Y-207046640D01*
G75*
G02*
X145976360Y-207246640I0J-200000D01*
G01*
X145976360Y-207646640D01*
G75*
G02*
X145776360Y-207846640I-200000J0D01*
G01*
G37*
G36*
G01*
X145776360Y-206196640D02*
X145226360Y-206196640D01*
G75*
G02*
X145026360Y-205996640I0J200000D01*
G01*
X145026360Y-205596640D01*
G75*
G02*
X145226360Y-205396640I200000J0D01*
G01*
X145776360Y-205396640D01*
G75*
G02*
X145976360Y-205596640I0J-200000D01*
G01*
X145976360Y-205996640D01*
G75*
G02*
X145776360Y-206196640I-200000J0D01*
G01*
G37*
G36*
G01*
X144206640Y-207831400D02*
X143656640Y-207831400D01*
G75*
G02*
X143456640Y-207631400I0J200000D01*
G01*
X143456640Y-207231400D01*
G75*
G02*
X143656640Y-207031400I200000J0D01*
G01*
X144206640Y-207031400D01*
G75*
G02*
X144406640Y-207231400I0J-200000D01*
G01*
X144406640Y-207631400D01*
G75*
G02*
X144206640Y-207831400I-200000J0D01*
G01*
G37*
G36*
G01*
X144206640Y-206181400D02*
X143656640Y-206181400D01*
G75*
G02*
X143456640Y-205981400I0J200000D01*
G01*
X143456640Y-205581400D01*
G75*
G02*
X143656640Y-205381400I200000J0D01*
G01*
X144206640Y-205381400D01*
G75*
G02*
X144406640Y-205581400I0J-200000D01*
G01*
X144406640Y-205981400D01*
G75*
G02*
X144206640Y-206181400I-200000J0D01*
G01*
G37*
G36*
G01*
X147757560Y-207841560D02*
X147207560Y-207841560D01*
G75*
G02*
X147007560Y-207641560I0J200000D01*
G01*
X147007560Y-207241560D01*
G75*
G02*
X147207560Y-207041560I200000J0D01*
G01*
X147757560Y-207041560D01*
G75*
G02*
X147957560Y-207241560I0J-200000D01*
G01*
X147957560Y-207641560D01*
G75*
G02*
X147757560Y-207841560I-200000J0D01*
G01*
G37*
G36*
G01*
X147757560Y-206191560D02*
X147207560Y-206191560D01*
G75*
G02*
X147007560Y-205991560I0J200000D01*
G01*
X147007560Y-205591560D01*
G75*
G02*
X147207560Y-205391560I200000J0D01*
G01*
X147757560Y-205391560D01*
G75*
G02*
X147957560Y-205591560I0J-200000D01*
G01*
X147957560Y-205991560D01*
G75*
G02*
X147757560Y-206191560I-200000J0D01*
G01*
G37*
G36*
G01*
X179824800Y-126570760D02*
X179824800Y-125620760D01*
G75*
G02*
X180074800Y-125370760I250000J0D01*
G01*
X180574800Y-125370760D01*
G75*
G02*
X180824800Y-125620760I0J-250000D01*
G01*
X180824800Y-126570760D01*
G75*
G02*
X180574800Y-126820760I-250000J0D01*
G01*
X180074800Y-126820760D01*
G75*
G02*
X179824800Y-126570760I0J250000D01*
G01*
G37*
G36*
G01*
X177924800Y-126570760D02*
X177924800Y-125620760D01*
G75*
G02*
X178174800Y-125370760I250000J0D01*
G01*
X178674800Y-125370760D01*
G75*
G02*
X178924800Y-125620760I0J-250000D01*
G01*
X178924800Y-126570760D01*
G75*
G02*
X178674800Y-126820760I-250000J0D01*
G01*
X178174800Y-126820760D01*
G75*
G02*
X177924800Y-126570760I0J250000D01*
G01*
G37*
G36*
G01*
X171135279Y-152969800D02*
X172435281Y-152969800D01*
G75*
G02*
X172685280Y-153219799I0J-249999D01*
G01*
X172685280Y-153869801D01*
G75*
G02*
X172435281Y-154119800I-249999J0D01*
G01*
X171135279Y-154119800D01*
G75*
G02*
X170885280Y-153869801I0J249999D01*
G01*
X170885280Y-153219799D01*
G75*
G02*
X171135279Y-152969800I249999J0D01*
G01*
G37*
G36*
G01*
X171135279Y-150019800D02*
X172435281Y-150019800D01*
G75*
G02*
X172685280Y-150269799I0J-249999D01*
G01*
X172685280Y-150919801D01*
G75*
G02*
X172435281Y-151169800I-249999J0D01*
G01*
X171135279Y-151169800D01*
G75*
G02*
X170885280Y-150919801I0J249999D01*
G01*
X170885280Y-150269799D01*
G75*
G02*
X171135279Y-150019800I249999J0D01*
G01*
G37*
G36*
G01*
X174654800Y-165022080D02*
X175204800Y-165022080D01*
G75*
G02*
X175404800Y-165222080I0J-200000D01*
G01*
X175404800Y-165622080D01*
G75*
G02*
X175204800Y-165822080I-200000J0D01*
G01*
X174654800Y-165822080D01*
G75*
G02*
X174454800Y-165622080I0J200000D01*
G01*
X174454800Y-165222080D01*
G75*
G02*
X174654800Y-165022080I200000J0D01*
G01*
G37*
G36*
G01*
X174654800Y-163372080D02*
X175204800Y-163372080D01*
G75*
G02*
X175404800Y-163572080I0J-200000D01*
G01*
X175404800Y-163972080D01*
G75*
G02*
X175204800Y-164172080I-200000J0D01*
G01*
X174654800Y-164172080D01*
G75*
G02*
X174454800Y-163972080I0J200000D01*
G01*
X174454800Y-163572080D01*
G75*
G02*
X174654800Y-163372080I200000J0D01*
G01*
G37*
G36*
G01*
X176779600Y-164172080D02*
X176229600Y-164172080D01*
G75*
G02*
X176029600Y-163972080I0J200000D01*
G01*
X176029600Y-163572080D01*
G75*
G02*
X176229600Y-163372080I200000J0D01*
G01*
X176779600Y-163372080D01*
G75*
G02*
X176979600Y-163572080I0J-200000D01*
G01*
X176979600Y-163972080D01*
G75*
G02*
X176779600Y-164172080I-200000J0D01*
G01*
G37*
G36*
G01*
X176779600Y-165822080D02*
X176229600Y-165822080D01*
G75*
G02*
X176029600Y-165622080I0J200000D01*
G01*
X176029600Y-165222080D01*
G75*
G02*
X176229600Y-165022080I200000J0D01*
G01*
X176779600Y-165022080D01*
G75*
G02*
X176979600Y-165222080I0J-200000D01*
G01*
X176979600Y-165622080D01*
G75*
G02*
X176779600Y-165822080I-200000J0D01*
G01*
G37*
G36*
G01*
X173630000Y-167284080D02*
X173080000Y-167284080D01*
G75*
G02*
X172880000Y-167084080I0J200000D01*
G01*
X172880000Y-166684080D01*
G75*
G02*
X173080000Y-166484080I200000J0D01*
G01*
X173630000Y-166484080D01*
G75*
G02*
X173830000Y-166684080I0J-200000D01*
G01*
X173830000Y-167084080D01*
G75*
G02*
X173630000Y-167284080I-200000J0D01*
G01*
G37*
G36*
G01*
X173630000Y-168934080D02*
X173080000Y-168934080D01*
G75*
G02*
X172880000Y-168734080I0J200000D01*
G01*
X172880000Y-168334080D01*
G75*
G02*
X173080000Y-168134080I200000J0D01*
G01*
X173630000Y-168134080D01*
G75*
G02*
X173830000Y-168334080I0J-200000D01*
G01*
X173830000Y-168734080D01*
G75*
G02*
X173630000Y-168934080I-200000J0D01*
G01*
G37*
G36*
G01*
X178354400Y-164172080D02*
X177804400Y-164172080D01*
G75*
G02*
X177604400Y-163972080I0J200000D01*
G01*
X177604400Y-163572080D01*
G75*
G02*
X177804400Y-163372080I200000J0D01*
G01*
X178354400Y-163372080D01*
G75*
G02*
X178554400Y-163572080I0J-200000D01*
G01*
X178554400Y-163972080D01*
G75*
G02*
X178354400Y-164172080I-200000J0D01*
G01*
G37*
G36*
G01*
X178354400Y-165822080D02*
X177804400Y-165822080D01*
G75*
G02*
X177604400Y-165622080I0J200000D01*
G01*
X177604400Y-165222080D01*
G75*
G02*
X177804400Y-165022080I200000J0D01*
G01*
X178354400Y-165022080D01*
G75*
G02*
X178554400Y-165222080I0J-200000D01*
G01*
X178554400Y-165622080D01*
G75*
G02*
X178354400Y-165822080I-200000J0D01*
G01*
G37*
G36*
G01*
X186412320Y-152907320D02*
X186412320Y-153457320D01*
G75*
G02*
X186212320Y-153657320I-200000J0D01*
G01*
X185812320Y-153657320D01*
G75*
G02*
X185612320Y-153457320I0J200000D01*
G01*
X185612320Y-152907320D01*
G75*
G02*
X185812320Y-152707320I200000J0D01*
G01*
X186212320Y-152707320D01*
G75*
G02*
X186412320Y-152907320I0J-200000D01*
G01*
G37*
G36*
G01*
X188062320Y-152907320D02*
X188062320Y-153457320D01*
G75*
G02*
X187862320Y-153657320I-200000J0D01*
G01*
X187462320Y-153657320D01*
G75*
G02*
X187262320Y-153457320I0J200000D01*
G01*
X187262320Y-152907320D01*
G75*
G02*
X187462320Y-152707320I200000J0D01*
G01*
X187862320Y-152707320D01*
G75*
G02*
X188062320Y-152907320I0J-200000D01*
G01*
G37*
G36*
G01*
X187250120Y-155032120D02*
X187250120Y-154482120D01*
G75*
G02*
X187450120Y-154282120I200000J0D01*
G01*
X187850120Y-154282120D01*
G75*
G02*
X188050120Y-154482120I0J-200000D01*
G01*
X188050120Y-155032120D01*
G75*
G02*
X187850120Y-155232120I-200000J0D01*
G01*
X187450120Y-155232120D01*
G75*
G02*
X187250120Y-155032120I0J200000D01*
G01*
G37*
G36*
G01*
X185600120Y-155032120D02*
X185600120Y-154482120D01*
G75*
G02*
X185800120Y-154282120I200000J0D01*
G01*
X186200120Y-154282120D01*
G75*
G02*
X186400120Y-154482120I0J-200000D01*
G01*
X186400120Y-155032120D01*
G75*
G02*
X186200120Y-155232120I-200000J0D01*
G01*
X185800120Y-155232120D01*
G75*
G02*
X185600120Y-155032120I0J200000D01*
G01*
G37*
G36*
G01*
X184163520Y-151755520D02*
X184163520Y-151205520D01*
G75*
G02*
X184363520Y-151005520I200000J0D01*
G01*
X184763520Y-151005520D01*
G75*
G02*
X184963520Y-151205520I0J-200000D01*
G01*
X184963520Y-151755520D01*
G75*
G02*
X184763520Y-151955520I-200000J0D01*
G01*
X184363520Y-151955520D01*
G75*
G02*
X184163520Y-151755520I0J200000D01*
G01*
G37*
G36*
G01*
X182513520Y-151755520D02*
X182513520Y-151205520D01*
G75*
G02*
X182713520Y-151005520I200000J0D01*
G01*
X183113520Y-151005520D01*
G75*
G02*
X183313520Y-151205520I0J-200000D01*
G01*
X183313520Y-151755520D01*
G75*
G02*
X183113520Y-151955520I-200000J0D01*
G01*
X182713520Y-151955520D01*
G75*
G02*
X182513520Y-151755520I0J200000D01*
G01*
G37*
G36*
G01*
X187262320Y-156606920D02*
X187262320Y-156056920D01*
G75*
G02*
X187462320Y-155856920I200000J0D01*
G01*
X187862320Y-155856920D01*
G75*
G02*
X188062320Y-156056920I0J-200000D01*
G01*
X188062320Y-156606920D01*
G75*
G02*
X187862320Y-156806920I-200000J0D01*
G01*
X187462320Y-156806920D01*
G75*
G02*
X187262320Y-156606920I0J200000D01*
G01*
G37*
G36*
G01*
X185612320Y-156606920D02*
X185612320Y-156056920D01*
G75*
G02*
X185812320Y-155856920I200000J0D01*
G01*
X186212320Y-155856920D01*
G75*
G02*
X186412320Y-156056920I0J-200000D01*
G01*
X186412320Y-156606920D01*
G75*
G02*
X186212320Y-156806920I-200000J0D01*
G01*
X185812320Y-156806920D01*
G75*
G02*
X185612320Y-156606920I0J200000D01*
G01*
G37*
D13*
X181350920Y-118132040D03*
X181350920Y-112632040D03*
G36*
G01*
X177323800Y-171056080D02*
X176573800Y-171056080D01*
G75*
G02*
X176323800Y-170806080I0J250000D01*
G01*
X176323800Y-170096080D01*
G75*
G02*
X176573800Y-169846080I250000J0D01*
G01*
X177323800Y-169846080D01*
G75*
G02*
X177573800Y-170096080I0J-250000D01*
G01*
X177573800Y-170806080D01*
G75*
G02*
X177323800Y-171056080I-250000J0D01*
G01*
G37*
G36*
G01*
X178873800Y-171056080D02*
X178123800Y-171056080D01*
G75*
G02*
X177873800Y-170806080I0J250000D01*
G01*
X177873800Y-170096080D01*
G75*
G02*
X178123800Y-169846080I250000J0D01*
G01*
X178873800Y-169846080D01*
G75*
G02*
X179123800Y-170096080I0J-250000D01*
G01*
X179123800Y-170806080D01*
G75*
G02*
X178873800Y-171056080I-250000J0D01*
G01*
G37*
G36*
G01*
X177323800Y-172556080D02*
X176573800Y-172556080D01*
G75*
G02*
X176323800Y-172306080I0J250000D01*
G01*
X176323800Y-171596080D01*
G75*
G02*
X176573800Y-171346080I250000J0D01*
G01*
X177323800Y-171346080D01*
G75*
G02*
X177573800Y-171596080I0J-250000D01*
G01*
X177573800Y-172306080D01*
G75*
G02*
X177323800Y-172556080I-250000J0D01*
G01*
G37*
G36*
G01*
X178873800Y-172556080D02*
X178123800Y-172556080D01*
G75*
G02*
X177873800Y-172306080I0J250000D01*
G01*
X177873800Y-171596080D01*
G75*
G02*
X178123800Y-171346080I250000J0D01*
G01*
X178873800Y-171346080D01*
G75*
G02*
X179123800Y-171596080I0J-250000D01*
G01*
X179123800Y-172306080D01*
G75*
G02*
X178873800Y-172556080I-250000J0D01*
G01*
G37*
G36*
G01*
X179773800Y-169126080D02*
X179573800Y-169126080D01*
G75*
G02*
X179473800Y-169026080I0J100000D01*
G01*
X179473800Y-167651080D01*
G75*
G02*
X179573800Y-167551080I100000J0D01*
G01*
X179773800Y-167551080D01*
G75*
G02*
X179873800Y-167651080I0J-100000D01*
G01*
X179873800Y-169026080D01*
G75*
G02*
X179773800Y-169126080I-100000J0D01*
G01*
G37*
G36*
G01*
X179123800Y-169126080D02*
X178923800Y-169126080D01*
G75*
G02*
X178823800Y-169026080I0J100000D01*
G01*
X178823800Y-167651080D01*
G75*
G02*
X178923800Y-167551080I100000J0D01*
G01*
X179123800Y-167551080D01*
G75*
G02*
X179223800Y-167651080I0J-100000D01*
G01*
X179223800Y-169026080D01*
G75*
G02*
X179123800Y-169126080I-100000J0D01*
G01*
G37*
G36*
G01*
X178473800Y-169126080D02*
X178273800Y-169126080D01*
G75*
G02*
X178173800Y-169026080I0J100000D01*
G01*
X178173800Y-167651080D01*
G75*
G02*
X178273800Y-167551080I100000J0D01*
G01*
X178473800Y-167551080D01*
G75*
G02*
X178573800Y-167651080I0J-100000D01*
G01*
X178573800Y-169026080D01*
G75*
G02*
X178473800Y-169126080I-100000J0D01*
G01*
G37*
G36*
G01*
X177823800Y-169126080D02*
X177623800Y-169126080D01*
G75*
G02*
X177523800Y-169026080I0J100000D01*
G01*
X177523800Y-167651080D01*
G75*
G02*
X177623800Y-167551080I100000J0D01*
G01*
X177823800Y-167551080D01*
G75*
G02*
X177923800Y-167651080I0J-100000D01*
G01*
X177923800Y-169026080D01*
G75*
G02*
X177823800Y-169126080I-100000J0D01*
G01*
G37*
G36*
G01*
X177173800Y-169126080D02*
X176973800Y-169126080D01*
G75*
G02*
X176873800Y-169026080I0J100000D01*
G01*
X176873800Y-167651080D01*
G75*
G02*
X176973800Y-167551080I100000J0D01*
G01*
X177173800Y-167551080D01*
G75*
G02*
X177273800Y-167651080I0J-100000D01*
G01*
X177273800Y-169026080D01*
G75*
G02*
X177173800Y-169126080I-100000J0D01*
G01*
G37*
G36*
G01*
X176523800Y-169126080D02*
X176323800Y-169126080D01*
G75*
G02*
X176223800Y-169026080I0J100000D01*
G01*
X176223800Y-167651080D01*
G75*
G02*
X176323800Y-167551080I100000J0D01*
G01*
X176523800Y-167551080D01*
G75*
G02*
X176623800Y-167651080I0J-100000D01*
G01*
X176623800Y-169026080D01*
G75*
G02*
X176523800Y-169126080I-100000J0D01*
G01*
G37*
G36*
G01*
X175873800Y-169126080D02*
X175673800Y-169126080D01*
G75*
G02*
X175573800Y-169026080I0J100000D01*
G01*
X175573800Y-167651080D01*
G75*
G02*
X175673800Y-167551080I100000J0D01*
G01*
X175873800Y-167551080D01*
G75*
G02*
X175973800Y-167651080I0J-100000D01*
G01*
X175973800Y-169026080D01*
G75*
G02*
X175873800Y-169126080I-100000J0D01*
G01*
G37*
G36*
G01*
X175873800Y-174851080D02*
X175673800Y-174851080D01*
G75*
G02*
X175573800Y-174751080I0J100000D01*
G01*
X175573800Y-173376080D01*
G75*
G02*
X175673800Y-173276080I100000J0D01*
G01*
X175873800Y-173276080D01*
G75*
G02*
X175973800Y-173376080I0J-100000D01*
G01*
X175973800Y-174751080D01*
G75*
G02*
X175873800Y-174851080I-100000J0D01*
G01*
G37*
G36*
G01*
X176523800Y-174851080D02*
X176323800Y-174851080D01*
G75*
G02*
X176223800Y-174751080I0J100000D01*
G01*
X176223800Y-173376080D01*
G75*
G02*
X176323800Y-173276080I100000J0D01*
G01*
X176523800Y-173276080D01*
G75*
G02*
X176623800Y-173376080I0J-100000D01*
G01*
X176623800Y-174751080D01*
G75*
G02*
X176523800Y-174851080I-100000J0D01*
G01*
G37*
G36*
G01*
X177173800Y-174851080D02*
X176973800Y-174851080D01*
G75*
G02*
X176873800Y-174751080I0J100000D01*
G01*
X176873800Y-173376080D01*
G75*
G02*
X176973800Y-173276080I100000J0D01*
G01*
X177173800Y-173276080D01*
G75*
G02*
X177273800Y-173376080I0J-100000D01*
G01*
X177273800Y-174751080D01*
G75*
G02*
X177173800Y-174851080I-100000J0D01*
G01*
G37*
G36*
G01*
X177823800Y-174851080D02*
X177623800Y-174851080D01*
G75*
G02*
X177523800Y-174751080I0J100000D01*
G01*
X177523800Y-173376080D01*
G75*
G02*
X177623800Y-173276080I100000J0D01*
G01*
X177823800Y-173276080D01*
G75*
G02*
X177923800Y-173376080I0J-100000D01*
G01*
X177923800Y-174751080D01*
G75*
G02*
X177823800Y-174851080I-100000J0D01*
G01*
G37*
G36*
G01*
X178473800Y-174851080D02*
X178273800Y-174851080D01*
G75*
G02*
X178173800Y-174751080I0J100000D01*
G01*
X178173800Y-173376080D01*
G75*
G02*
X178273800Y-173276080I100000J0D01*
G01*
X178473800Y-173276080D01*
G75*
G02*
X178573800Y-173376080I0J-100000D01*
G01*
X178573800Y-174751080D01*
G75*
G02*
X178473800Y-174851080I-100000J0D01*
G01*
G37*
G36*
G01*
X179123800Y-174851080D02*
X178923800Y-174851080D01*
G75*
G02*
X178823800Y-174751080I0J100000D01*
G01*
X178823800Y-173376080D01*
G75*
G02*
X178923800Y-173276080I100000J0D01*
G01*
X179123800Y-173276080D01*
G75*
G02*
X179223800Y-173376080I0J-100000D01*
G01*
X179223800Y-174751080D01*
G75*
G02*
X179123800Y-174851080I-100000J0D01*
G01*
G37*
G36*
G01*
X179773800Y-174851080D02*
X179573800Y-174851080D01*
G75*
G02*
X179473800Y-174751080I0J100000D01*
G01*
X179473800Y-173376080D01*
G75*
G02*
X179573800Y-173276080I100000J0D01*
G01*
X179773800Y-173276080D01*
G75*
G02*
X179873800Y-173376080I0J-100000D01*
G01*
X179873800Y-174751080D01*
G75*
G02*
X179773800Y-174851080I-100000J0D01*
G01*
G37*
D14*
X166278560Y-113024160D03*
X166278560Y-114024160D03*
X166278560Y-115024160D03*
X166278560Y-116024160D03*
X166278560Y-117024160D03*
X166278560Y-118024160D03*
X166278560Y-119024160D03*
X166278560Y-120024160D03*
X166278560Y-121024160D03*
X166278560Y-122024160D03*
X166278560Y-123024160D03*
X166278560Y-124024160D03*
X166278560Y-125024160D03*
X166278560Y-126024160D03*
X166278560Y-127024160D03*
X166278560Y-128024160D03*
X166278560Y-129024160D03*
D15*
X164278560Y-130024160D03*
X163278560Y-130024160D03*
X162278560Y-130024160D03*
X161278560Y-130024160D03*
X160278560Y-130024160D03*
X159278560Y-130024160D03*
X158278560Y-130024160D03*
X157278560Y-130024160D03*
X156278560Y-130024160D03*
X155278560Y-130024160D03*
X155278560Y-112024160D03*
X162278560Y-112024160D03*
X159278560Y-112024160D03*
X161278560Y-112024160D03*
X156278560Y-112024160D03*
X160278560Y-112024160D03*
X163278560Y-112024160D03*
X158278560Y-112024160D03*
X157278560Y-112024160D03*
X164278560Y-112024160D03*
D14*
X153278560Y-124024160D03*
X153278560Y-128024160D03*
X153278560Y-116024160D03*
X153278560Y-117024160D03*
X153278560Y-114024160D03*
X153278560Y-119024160D03*
X153278560Y-123024160D03*
X153278560Y-126024160D03*
X153278560Y-115024160D03*
X153278560Y-127024160D03*
X153278560Y-118024160D03*
X153278560Y-120024160D03*
X153278560Y-113024160D03*
X153278560Y-121024160D03*
X153278560Y-122024160D03*
X153278560Y-129024160D03*
X153278560Y-125024160D03*
G36*
G01*
X180327520Y-155652520D02*
X180327520Y-154902520D01*
G75*
G02*
X180577520Y-154652520I250000J0D01*
G01*
X181287520Y-154652520D01*
G75*
G02*
X181537520Y-154902520I0J-250000D01*
G01*
X181537520Y-155652520D01*
G75*
G02*
X181287520Y-155902520I-250000J0D01*
G01*
X180577520Y-155902520D01*
G75*
G02*
X180327520Y-155652520I0J250000D01*
G01*
G37*
G36*
G01*
X180327520Y-157202520D02*
X180327520Y-156452520D01*
G75*
G02*
X180577520Y-156202520I250000J0D01*
G01*
X181287520Y-156202520D01*
G75*
G02*
X181537520Y-156452520I0J-250000D01*
G01*
X181537520Y-157202520D01*
G75*
G02*
X181287520Y-157452520I-250000J0D01*
G01*
X180577520Y-157452520D01*
G75*
G02*
X180327520Y-157202520I0J250000D01*
G01*
G37*
G36*
G01*
X178827520Y-155652520D02*
X178827520Y-154902520D01*
G75*
G02*
X179077520Y-154652520I250000J0D01*
G01*
X179787520Y-154652520D01*
G75*
G02*
X180037520Y-154902520I0J-250000D01*
G01*
X180037520Y-155652520D01*
G75*
G02*
X179787520Y-155902520I-250000J0D01*
G01*
X179077520Y-155902520D01*
G75*
G02*
X178827520Y-155652520I0J250000D01*
G01*
G37*
G36*
G01*
X178827520Y-157202520D02*
X178827520Y-156452520D01*
G75*
G02*
X179077520Y-156202520I250000J0D01*
G01*
X179787520Y-156202520D01*
G75*
G02*
X180037520Y-156452520I0J-250000D01*
G01*
X180037520Y-157202520D01*
G75*
G02*
X179787520Y-157452520I-250000J0D01*
G01*
X179077520Y-157452520D01*
G75*
G02*
X178827520Y-157202520I0J250000D01*
G01*
G37*
G36*
G01*
X182257520Y-158102520D02*
X182257520Y-157902520D01*
G75*
G02*
X182357520Y-157802520I100000J0D01*
G01*
X183732520Y-157802520D01*
G75*
G02*
X183832520Y-157902520I0J-100000D01*
G01*
X183832520Y-158102520D01*
G75*
G02*
X183732520Y-158202520I-100000J0D01*
G01*
X182357520Y-158202520D01*
G75*
G02*
X182257520Y-158102520I0J100000D01*
G01*
G37*
G36*
G01*
X182257520Y-157452520D02*
X182257520Y-157252520D01*
G75*
G02*
X182357520Y-157152520I100000J0D01*
G01*
X183732520Y-157152520D01*
G75*
G02*
X183832520Y-157252520I0J-100000D01*
G01*
X183832520Y-157452520D01*
G75*
G02*
X183732520Y-157552520I-100000J0D01*
G01*
X182357520Y-157552520D01*
G75*
G02*
X182257520Y-157452520I0J100000D01*
G01*
G37*
G36*
G01*
X182257520Y-156802520D02*
X182257520Y-156602520D01*
G75*
G02*
X182357520Y-156502520I100000J0D01*
G01*
X183732520Y-156502520D01*
G75*
G02*
X183832520Y-156602520I0J-100000D01*
G01*
X183832520Y-156802520D01*
G75*
G02*
X183732520Y-156902520I-100000J0D01*
G01*
X182357520Y-156902520D01*
G75*
G02*
X182257520Y-156802520I0J100000D01*
G01*
G37*
G36*
G01*
X182257520Y-156152520D02*
X182257520Y-155952520D01*
G75*
G02*
X182357520Y-155852520I100000J0D01*
G01*
X183732520Y-155852520D01*
G75*
G02*
X183832520Y-155952520I0J-100000D01*
G01*
X183832520Y-156152520D01*
G75*
G02*
X183732520Y-156252520I-100000J0D01*
G01*
X182357520Y-156252520D01*
G75*
G02*
X182257520Y-156152520I0J100000D01*
G01*
G37*
G36*
G01*
X182257520Y-155502520D02*
X182257520Y-155302520D01*
G75*
G02*
X182357520Y-155202520I100000J0D01*
G01*
X183732520Y-155202520D01*
G75*
G02*
X183832520Y-155302520I0J-100000D01*
G01*
X183832520Y-155502520D01*
G75*
G02*
X183732520Y-155602520I-100000J0D01*
G01*
X182357520Y-155602520D01*
G75*
G02*
X182257520Y-155502520I0J100000D01*
G01*
G37*
G36*
G01*
X182257520Y-154852520D02*
X182257520Y-154652520D01*
G75*
G02*
X182357520Y-154552520I100000J0D01*
G01*
X183732520Y-154552520D01*
G75*
G02*
X183832520Y-154652520I0J-100000D01*
G01*
X183832520Y-154852520D01*
G75*
G02*
X183732520Y-154952520I-100000J0D01*
G01*
X182357520Y-154952520D01*
G75*
G02*
X182257520Y-154852520I0J100000D01*
G01*
G37*
G36*
G01*
X182257520Y-154202520D02*
X182257520Y-154002520D01*
G75*
G02*
X182357520Y-153902520I100000J0D01*
G01*
X183732520Y-153902520D01*
G75*
G02*
X183832520Y-154002520I0J-100000D01*
G01*
X183832520Y-154202520D01*
G75*
G02*
X183732520Y-154302520I-100000J0D01*
G01*
X182357520Y-154302520D01*
G75*
G02*
X182257520Y-154202520I0J100000D01*
G01*
G37*
G36*
G01*
X176532520Y-154202520D02*
X176532520Y-154002520D01*
G75*
G02*
X176632520Y-153902520I100000J0D01*
G01*
X178007520Y-153902520D01*
G75*
G02*
X178107520Y-154002520I0J-100000D01*
G01*
X178107520Y-154202520D01*
G75*
G02*
X178007520Y-154302520I-100000J0D01*
G01*
X176632520Y-154302520D01*
G75*
G02*
X176532520Y-154202520I0J100000D01*
G01*
G37*
G36*
G01*
X176532520Y-154852520D02*
X176532520Y-154652520D01*
G75*
G02*
X176632520Y-154552520I100000J0D01*
G01*
X178007520Y-154552520D01*
G75*
G02*
X178107520Y-154652520I0J-100000D01*
G01*
X178107520Y-154852520D01*
G75*
G02*
X178007520Y-154952520I-100000J0D01*
G01*
X176632520Y-154952520D01*
G75*
G02*
X176532520Y-154852520I0J100000D01*
G01*
G37*
G36*
G01*
X176532520Y-155502520D02*
X176532520Y-155302520D01*
G75*
G02*
X176632520Y-155202520I100000J0D01*
G01*
X178007520Y-155202520D01*
G75*
G02*
X178107520Y-155302520I0J-100000D01*
G01*
X178107520Y-155502520D01*
G75*
G02*
X178007520Y-155602520I-100000J0D01*
G01*
X176632520Y-155602520D01*
G75*
G02*
X176532520Y-155502520I0J100000D01*
G01*
G37*
G36*
G01*
X176532520Y-156152520D02*
X176532520Y-155952520D01*
G75*
G02*
X176632520Y-155852520I100000J0D01*
G01*
X178007520Y-155852520D01*
G75*
G02*
X178107520Y-155952520I0J-100000D01*
G01*
X178107520Y-156152520D01*
G75*
G02*
X178007520Y-156252520I-100000J0D01*
G01*
X176632520Y-156252520D01*
G75*
G02*
X176532520Y-156152520I0J100000D01*
G01*
G37*
G36*
G01*
X176532520Y-156802520D02*
X176532520Y-156602520D01*
G75*
G02*
X176632520Y-156502520I100000J0D01*
G01*
X178007520Y-156502520D01*
G75*
G02*
X178107520Y-156602520I0J-100000D01*
G01*
X178107520Y-156802520D01*
G75*
G02*
X178007520Y-156902520I-100000J0D01*
G01*
X176632520Y-156902520D01*
G75*
G02*
X176532520Y-156802520I0J100000D01*
G01*
G37*
G36*
G01*
X176532520Y-157452520D02*
X176532520Y-157252520D01*
G75*
G02*
X176632520Y-157152520I100000J0D01*
G01*
X178007520Y-157152520D01*
G75*
G02*
X178107520Y-157252520I0J-100000D01*
G01*
X178107520Y-157452520D01*
G75*
G02*
X178007520Y-157552520I-100000J0D01*
G01*
X176632520Y-157552520D01*
G75*
G02*
X176532520Y-157452520I0J100000D01*
G01*
G37*
G36*
G01*
X176532520Y-158102520D02*
X176532520Y-157902520D01*
G75*
G02*
X176632520Y-157802520I100000J0D01*
G01*
X178007520Y-157802520D01*
G75*
G02*
X178107520Y-157902520I0J-100000D01*
G01*
X178107520Y-158102520D01*
G75*
G02*
X178007520Y-158202520I-100000J0D01*
G01*
X176632520Y-158202520D01*
G75*
G02*
X176532520Y-158102520I0J100000D01*
G01*
G37*
G36*
G01*
X168608162Y-171476720D02*
X167708158Y-171476720D01*
G75*
G02*
X167458160Y-171226722I0J249998D01*
G01*
X167458160Y-170701718D01*
G75*
G02*
X167708158Y-170451720I249998J0D01*
G01*
X168608162Y-170451720D01*
G75*
G02*
X168858160Y-170701718I0J-249998D01*
G01*
X168858160Y-171226722D01*
G75*
G02*
X168608162Y-171476720I-249998J0D01*
G01*
G37*
G36*
G01*
X168608162Y-173301720D02*
X167708158Y-173301720D01*
G75*
G02*
X167458160Y-173051722I0J249998D01*
G01*
X167458160Y-172526718D01*
G75*
G02*
X167708158Y-172276720I249998J0D01*
G01*
X168608162Y-172276720D01*
G75*
G02*
X168858160Y-172526718I0J-249998D01*
G01*
X168858160Y-173051722D01*
G75*
G02*
X168608162Y-173301720I-249998J0D01*
G01*
G37*
G36*
G01*
X165559318Y-172246240D02*
X166459322Y-172246240D01*
G75*
G02*
X166709320Y-172496238I0J-249998D01*
G01*
X166709320Y-173021242D01*
G75*
G02*
X166459322Y-173271240I-249998J0D01*
G01*
X165559318Y-173271240D01*
G75*
G02*
X165309320Y-173021242I0J249998D01*
G01*
X165309320Y-172496238D01*
G75*
G02*
X165559318Y-172246240I249998J0D01*
G01*
G37*
G36*
G01*
X165559318Y-170421240D02*
X166459322Y-170421240D01*
G75*
G02*
X166709320Y-170671238I0J-249998D01*
G01*
X166709320Y-171196242D01*
G75*
G02*
X166459322Y-171446240I-249998J0D01*
G01*
X165559318Y-171446240D01*
G75*
G02*
X165309320Y-171196242I0J249998D01*
G01*
X165309320Y-170671238D01*
G75*
G02*
X165559318Y-170421240I249998J0D01*
G01*
G37*
G36*
G01*
X165923382Y-150232160D02*
X165023378Y-150232160D01*
G75*
G02*
X164773380Y-149982162I0J249998D01*
G01*
X164773380Y-149457158D01*
G75*
G02*
X165023378Y-149207160I249998J0D01*
G01*
X165923382Y-149207160D01*
G75*
G02*
X166173380Y-149457158I0J-249998D01*
G01*
X166173380Y-149982162D01*
G75*
G02*
X165923382Y-150232160I-249998J0D01*
G01*
G37*
G36*
G01*
X165923382Y-152057160D02*
X165023378Y-152057160D01*
G75*
G02*
X164773380Y-151807162I0J249998D01*
G01*
X164773380Y-151282158D01*
G75*
G02*
X165023378Y-151032160I249998J0D01*
G01*
X165923382Y-151032160D01*
G75*
G02*
X166173380Y-151282158I0J-249998D01*
G01*
X166173380Y-151807162D01*
G75*
G02*
X165923382Y-152057160I-249998J0D01*
G01*
G37*
G36*
G01*
X162701818Y-151062640D02*
X163601822Y-151062640D01*
G75*
G02*
X163851820Y-151312638I0J-249998D01*
G01*
X163851820Y-151837642D01*
G75*
G02*
X163601822Y-152087640I-249998J0D01*
G01*
X162701818Y-152087640D01*
G75*
G02*
X162451820Y-151837642I0J249998D01*
G01*
X162451820Y-151312638D01*
G75*
G02*
X162701818Y-151062640I249998J0D01*
G01*
G37*
G36*
G01*
X162701818Y-149237640D02*
X163601822Y-149237640D01*
G75*
G02*
X163851820Y-149487638I0J-249998D01*
G01*
X163851820Y-150012642D01*
G75*
G02*
X163601822Y-150262640I-249998J0D01*
G01*
X162701818Y-150262640D01*
G75*
G02*
X162451820Y-150012642I0J249998D01*
G01*
X162451820Y-149487638D01*
G75*
G02*
X162701818Y-149237640I249998J0D01*
G01*
G37*
G36*
G01*
X164788800Y-141031382D02*
X164788800Y-140131378D01*
G75*
G02*
X165038798Y-139881380I249998J0D01*
G01*
X165563802Y-139881380D01*
G75*
G02*
X165813800Y-140131378I0J-249998D01*
G01*
X165813800Y-141031382D01*
G75*
G02*
X165563802Y-141281380I-249998J0D01*
G01*
X165038798Y-141281380D01*
G75*
G02*
X164788800Y-141031382I0J249998D01*
G01*
G37*
G36*
G01*
X162963800Y-141031382D02*
X162963800Y-140131378D01*
G75*
G02*
X163213798Y-139881380I249998J0D01*
G01*
X163738802Y-139881380D01*
G75*
G02*
X163988800Y-140131378I0J-249998D01*
G01*
X163988800Y-141031382D01*
G75*
G02*
X163738802Y-141281380I-249998J0D01*
G01*
X163213798Y-141281380D01*
G75*
G02*
X162963800Y-141031382I0J249998D01*
G01*
G37*
G36*
G01*
X167654020Y-140108518D02*
X167654020Y-141008522D01*
G75*
G02*
X167404022Y-141258520I-249998J0D01*
G01*
X166879018Y-141258520D01*
G75*
G02*
X166629020Y-141008522I0J249998D01*
G01*
X166629020Y-140108518D01*
G75*
G02*
X166879018Y-139858520I249998J0D01*
G01*
X167404022Y-139858520D01*
G75*
G02*
X167654020Y-140108518I0J-249998D01*
G01*
G37*
G36*
G01*
X169479020Y-140108518D02*
X169479020Y-141008522D01*
G75*
G02*
X169229022Y-141258520I-249998J0D01*
G01*
X168704018Y-141258520D01*
G75*
G02*
X168454020Y-141008522I0J249998D01*
G01*
X168454020Y-140108518D01*
G75*
G02*
X168704018Y-139858520I249998J0D01*
G01*
X169229022Y-139858520D01*
G75*
G02*
X169479020Y-140108518I0J-249998D01*
G01*
G37*
G36*
G01*
X161256558Y-133753800D02*
X162156562Y-133753800D01*
G75*
G02*
X162406560Y-134003798I0J-249998D01*
G01*
X162406560Y-134528802D01*
G75*
G02*
X162156562Y-134778800I-249998J0D01*
G01*
X161256558Y-134778800D01*
G75*
G02*
X161006560Y-134528802I0J249998D01*
G01*
X161006560Y-134003798D01*
G75*
G02*
X161256558Y-133753800I249998J0D01*
G01*
G37*
G36*
G01*
X161256558Y-135578800D02*
X162156562Y-135578800D01*
G75*
G02*
X162406560Y-135828798I0J-249998D01*
G01*
X162406560Y-136353802D01*
G75*
G02*
X162156562Y-136603800I-249998J0D01*
G01*
X161256558Y-136603800D01*
G75*
G02*
X161006560Y-136353802I0J249998D01*
G01*
X161006560Y-135828798D01*
G75*
G02*
X161256558Y-135578800I249998J0D01*
G01*
G37*
G36*
G01*
X170910200Y-126936922D02*
X170910200Y-126036918D01*
G75*
G02*
X171160198Y-125786920I249998J0D01*
G01*
X171685202Y-125786920D01*
G75*
G02*
X171935200Y-126036918I0J-249998D01*
G01*
X171935200Y-126936922D01*
G75*
G02*
X171685202Y-127186920I-249998J0D01*
G01*
X171160198Y-127186920D01*
G75*
G02*
X170910200Y-126936922I0J249998D01*
G01*
G37*
G36*
G01*
X169085200Y-126936922D02*
X169085200Y-126036918D01*
G75*
G02*
X169335198Y-125786920I249998J0D01*
G01*
X169860202Y-125786920D01*
G75*
G02*
X170110200Y-126036918I0J-249998D01*
G01*
X170110200Y-126936922D01*
G75*
G02*
X169860202Y-127186920I-249998J0D01*
G01*
X169335198Y-127186920D01*
G75*
G02*
X169085200Y-126936922I0J249998D01*
G01*
G37*
G36*
G01*
X123142162Y-193427400D02*
X122242158Y-193427400D01*
G75*
G02*
X121992160Y-193177402I0J249998D01*
G01*
X121992160Y-192652398D01*
G75*
G02*
X122242158Y-192402400I249998J0D01*
G01*
X123142162Y-192402400D01*
G75*
G02*
X123392160Y-192652398I0J-249998D01*
G01*
X123392160Y-193177402D01*
G75*
G02*
X123142162Y-193427400I-249998J0D01*
G01*
G37*
G36*
G01*
X123142162Y-195252400D02*
X122242158Y-195252400D01*
G75*
G02*
X121992160Y-195002402I0J249998D01*
G01*
X121992160Y-194477398D01*
G75*
G02*
X122242158Y-194227400I249998J0D01*
G01*
X123142162Y-194227400D01*
G75*
G02*
X123392160Y-194477398I0J-249998D01*
G01*
X123392160Y-195002402D01*
G75*
G02*
X123142162Y-195252400I-249998J0D01*
G01*
G37*
G36*
G01*
X119189922Y-193427400D02*
X118289918Y-193427400D01*
G75*
G02*
X118039920Y-193177402I0J249998D01*
G01*
X118039920Y-192652398D01*
G75*
G02*
X118289918Y-192402400I249998J0D01*
G01*
X119189922Y-192402400D01*
G75*
G02*
X119439920Y-192652398I0J-249998D01*
G01*
X119439920Y-193177402D01*
G75*
G02*
X119189922Y-193427400I-249998J0D01*
G01*
G37*
G36*
G01*
X119189922Y-195252400D02*
X118289918Y-195252400D01*
G75*
G02*
X118039920Y-195002402I0J249998D01*
G01*
X118039920Y-194477398D01*
G75*
G02*
X118289918Y-194227400I249998J0D01*
G01*
X119189922Y-194227400D01*
G75*
G02*
X119439920Y-194477398I0J-249998D01*
G01*
X119439920Y-195002402D01*
G75*
G02*
X119189922Y-195252400I-249998J0D01*
G01*
G37*
D16*
X164327840Y-145900900D03*
X163377840Y-147900900D03*
X165277840Y-147900900D03*
G36*
G01*
X153332020Y-190885830D02*
X153332020Y-191648330D01*
G75*
G02*
X153113270Y-191867080I-218750J0D01*
G01*
X152675770Y-191867080D01*
G75*
G02*
X152457020Y-191648330I0J218750D01*
G01*
X152457020Y-190885830D01*
G75*
G02*
X152675770Y-190667080I218750J0D01*
G01*
X153113270Y-190667080D01*
G75*
G02*
X153332020Y-190885830I0J-218750D01*
G01*
G37*
G36*
G01*
X155457020Y-190885830D02*
X155457020Y-191648330D01*
G75*
G02*
X155238270Y-191867080I-218750J0D01*
G01*
X154800770Y-191867080D01*
G75*
G02*
X154582020Y-191648330I0J218750D01*
G01*
X154582020Y-190885830D01*
G75*
G02*
X154800770Y-190667080I218750J0D01*
G01*
X155238270Y-190667080D01*
G75*
G02*
X155457020Y-190885830I0J-218750D01*
G01*
G37*
G36*
G01*
X170050300Y-209244950D02*
X170050300Y-210007450D01*
G75*
G02*
X169831550Y-210226200I-218750J0D01*
G01*
X169394050Y-210226200D01*
G75*
G02*
X169175300Y-210007450I0J218750D01*
G01*
X169175300Y-209244950D01*
G75*
G02*
X169394050Y-209026200I218750J0D01*
G01*
X169831550Y-209026200D01*
G75*
G02*
X170050300Y-209244950I0J-218750D01*
G01*
G37*
G36*
G01*
X172175300Y-209244950D02*
X172175300Y-210007450D01*
G75*
G02*
X171956550Y-210226200I-218750J0D01*
G01*
X171519050Y-210226200D01*
G75*
G02*
X171300300Y-210007450I0J218750D01*
G01*
X171300300Y-209244950D01*
G75*
G02*
X171519050Y-209026200I218750J0D01*
G01*
X171956550Y-209026200D01*
G75*
G02*
X172175300Y-209244950I0J-218750D01*
G01*
G37*
G36*
G01*
X175417730Y-130860640D02*
X174655230Y-130860640D01*
G75*
G02*
X174436480Y-130641890I0J218750D01*
G01*
X174436480Y-130204390D01*
G75*
G02*
X174655230Y-129985640I218750J0D01*
G01*
X175417730Y-129985640D01*
G75*
G02*
X175636480Y-130204390I0J-218750D01*
G01*
X175636480Y-130641890D01*
G75*
G02*
X175417730Y-130860640I-218750J0D01*
G01*
G37*
G36*
G01*
X175417730Y-132985640D02*
X174655230Y-132985640D01*
G75*
G02*
X174436480Y-132766890I0J218750D01*
G01*
X174436480Y-132329390D01*
G75*
G02*
X174655230Y-132110640I218750J0D01*
G01*
X175417730Y-132110640D01*
G75*
G02*
X175636480Y-132329390I0J-218750D01*
G01*
X175636480Y-132766890D01*
G75*
G02*
X175417730Y-132985640I-218750J0D01*
G01*
G37*
D17*
X177131160Y-145983960D03*
X171631160Y-145983960D03*
D13*
X171968160Y-155679960D03*
X171968160Y-161179960D03*
D12*
X180913020Y-208866740D03*
X184913020Y-208866740D03*
D18*
X175168560Y-112650520D03*
X175168560Y-116650520D03*
X171256960Y-112650520D03*
X171256960Y-116650520D03*
X172029120Y-140592560D03*
X172029120Y-136592560D03*
G36*
G01*
X152110420Y-194668560D02*
X153060420Y-194668560D01*
G75*
G02*
X153310420Y-194918560I0J-250000D01*
G01*
X153310420Y-195418560D01*
G75*
G02*
X153060420Y-195668560I-250000J0D01*
G01*
X152110420Y-195668560D01*
G75*
G02*
X151860420Y-195418560I0J250000D01*
G01*
X151860420Y-194918560D01*
G75*
G02*
X152110420Y-194668560I250000J0D01*
G01*
G37*
G36*
G01*
X152110420Y-192768560D02*
X153060420Y-192768560D01*
G75*
G02*
X153310420Y-193018560I0J-250000D01*
G01*
X153310420Y-193518560D01*
G75*
G02*
X153060420Y-193768560I-250000J0D01*
G01*
X152110420Y-193768560D01*
G75*
G02*
X151860420Y-193518560I0J250000D01*
G01*
X151860420Y-193018560D01*
G75*
G02*
X152110420Y-192768560I250000J0D01*
G01*
G37*
G36*
G01*
X168234380Y-208355780D02*
X167284380Y-208355780D01*
G75*
G02*
X167034380Y-208105780I0J250000D01*
G01*
X167034380Y-207605780D01*
G75*
G02*
X167284380Y-207355780I250000J0D01*
G01*
X168234380Y-207355780D01*
G75*
G02*
X168484380Y-207605780I0J-250000D01*
G01*
X168484380Y-208105780D01*
G75*
G02*
X168234380Y-208355780I-250000J0D01*
G01*
G37*
G36*
G01*
X168234380Y-210255780D02*
X167284380Y-210255780D01*
G75*
G02*
X167034380Y-210005780I0J250000D01*
G01*
X167034380Y-209505780D01*
G75*
G02*
X167284380Y-209255780I250000J0D01*
G01*
X168234380Y-209255780D01*
G75*
G02*
X168484380Y-209505780I0J-250000D01*
G01*
X168484380Y-210005780D01*
G75*
G02*
X168234380Y-210255780I-250000J0D01*
G01*
G37*
G36*
G01*
X154569140Y-194673640D02*
X155519140Y-194673640D01*
G75*
G02*
X155769140Y-194923640I0J-250000D01*
G01*
X155769140Y-195423640D01*
G75*
G02*
X155519140Y-195673640I-250000J0D01*
G01*
X154569140Y-195673640D01*
G75*
G02*
X154319140Y-195423640I0J250000D01*
G01*
X154319140Y-194923640D01*
G75*
G02*
X154569140Y-194673640I250000J0D01*
G01*
G37*
G36*
G01*
X154569140Y-192773640D02*
X155519140Y-192773640D01*
G75*
G02*
X155769140Y-193023640I0J-250000D01*
G01*
X155769140Y-193523640D01*
G75*
G02*
X155519140Y-193773640I-250000J0D01*
G01*
X154569140Y-193773640D01*
G75*
G02*
X154319140Y-193523640I0J250000D01*
G01*
X154319140Y-193023640D01*
G75*
G02*
X154569140Y-192773640I250000J0D01*
G01*
G37*
G36*
G01*
X174066220Y-208365940D02*
X173116220Y-208365940D01*
G75*
G02*
X172866220Y-208115940I0J250000D01*
G01*
X172866220Y-207615940D01*
G75*
G02*
X173116220Y-207365940I250000J0D01*
G01*
X174066220Y-207365940D01*
G75*
G02*
X174316220Y-207615940I0J-250000D01*
G01*
X174316220Y-208115940D01*
G75*
G02*
X174066220Y-208365940I-250000J0D01*
G01*
G37*
G36*
G01*
X174066220Y-210265940D02*
X173116220Y-210265940D01*
G75*
G02*
X172866220Y-210015940I0J250000D01*
G01*
X172866220Y-209515940D01*
G75*
G02*
X173116220Y-209265940I250000J0D01*
G01*
X174066220Y-209265940D01*
G75*
G02*
X174316220Y-209515940I0J-250000D01*
G01*
X174316220Y-210015940D01*
G75*
G02*
X174066220Y-210265940I-250000J0D01*
G01*
G37*
G36*
G01*
X158874440Y-194673640D02*
X159824440Y-194673640D01*
G75*
G02*
X160074440Y-194923640I0J-250000D01*
G01*
X160074440Y-195423640D01*
G75*
G02*
X159824440Y-195673640I-250000J0D01*
G01*
X158874440Y-195673640D01*
G75*
G02*
X158624440Y-195423640I0J250000D01*
G01*
X158624440Y-194923640D01*
G75*
G02*
X158874440Y-194673640I250000J0D01*
G01*
G37*
G36*
G01*
X158874440Y-192773640D02*
X159824440Y-192773640D01*
G75*
G02*
X160074440Y-193023640I0J-250000D01*
G01*
X160074440Y-193523640D01*
G75*
G02*
X159824440Y-193773640I-250000J0D01*
G01*
X158874440Y-193773640D01*
G75*
G02*
X158624440Y-193523640I0J250000D01*
G01*
X158624440Y-193023640D01*
G75*
G02*
X158874440Y-192773640I250000J0D01*
G01*
G37*
G36*
G01*
X178346120Y-208365940D02*
X177396120Y-208365940D01*
G75*
G02*
X177146120Y-208115940I0J250000D01*
G01*
X177146120Y-207615940D01*
G75*
G02*
X177396120Y-207365940I250000J0D01*
G01*
X178346120Y-207365940D01*
G75*
G02*
X178596120Y-207615940I0J-250000D01*
G01*
X178596120Y-208115940D01*
G75*
G02*
X178346120Y-208365940I-250000J0D01*
G01*
G37*
G36*
G01*
X178346120Y-210265940D02*
X177396120Y-210265940D01*
G75*
G02*
X177146120Y-210015940I0J250000D01*
G01*
X177146120Y-209515940D01*
G75*
G02*
X177396120Y-209265940I250000J0D01*
G01*
X178346120Y-209265940D01*
G75*
G02*
X178596120Y-209515940I0J-250000D01*
G01*
X178596120Y-210015940D01*
G75*
G02*
X178346120Y-210265940I-250000J0D01*
G01*
G37*
G36*
G01*
X156677340Y-194673640D02*
X157627340Y-194673640D01*
G75*
G02*
X157877340Y-194923640I0J-250000D01*
G01*
X157877340Y-195423640D01*
G75*
G02*
X157627340Y-195673640I-250000J0D01*
G01*
X156677340Y-195673640D01*
G75*
G02*
X156427340Y-195423640I0J250000D01*
G01*
X156427340Y-194923640D01*
G75*
G02*
X156677340Y-194673640I250000J0D01*
G01*
G37*
G36*
G01*
X156677340Y-192773640D02*
X157627340Y-192773640D01*
G75*
G02*
X157877340Y-193023640I0J-250000D01*
G01*
X157877340Y-193523640D01*
G75*
G02*
X157627340Y-193773640I-250000J0D01*
G01*
X156677340Y-193773640D01*
G75*
G02*
X156427340Y-193523640I0J250000D01*
G01*
X156427340Y-193023640D01*
G75*
G02*
X156677340Y-192773640I250000J0D01*
G01*
G37*
G36*
G01*
X176187120Y-208365940D02*
X175237120Y-208365940D01*
G75*
G02*
X174987120Y-208115940I0J250000D01*
G01*
X174987120Y-207615940D01*
G75*
G02*
X175237120Y-207365940I250000J0D01*
G01*
X176187120Y-207365940D01*
G75*
G02*
X176437120Y-207615940I0J-250000D01*
G01*
X176437120Y-208115940D01*
G75*
G02*
X176187120Y-208365940I-250000J0D01*
G01*
G37*
G36*
G01*
X176187120Y-210265940D02*
X175237120Y-210265940D01*
G75*
G02*
X174987120Y-210015940I0J250000D01*
G01*
X174987120Y-209515940D01*
G75*
G02*
X175237120Y-209265940I250000J0D01*
G01*
X176187120Y-209265940D01*
G75*
G02*
X176437120Y-209515940I0J-250000D01*
G01*
X176437120Y-210015940D01*
G75*
G02*
X176187120Y-210265940I-250000J0D01*
G01*
G37*
G36*
G01*
X171825500Y-176568080D02*
X171825500Y-177518080D01*
G75*
G02*
X171575500Y-177768080I-250000J0D01*
G01*
X171075500Y-177768080D01*
G75*
G02*
X170825500Y-177518080I0J250000D01*
G01*
X170825500Y-176568080D01*
G75*
G02*
X171075500Y-176318080I250000J0D01*
G01*
X171575500Y-176318080D01*
G75*
G02*
X171825500Y-176568080I0J-250000D01*
G01*
G37*
G36*
G01*
X173725500Y-176568080D02*
X173725500Y-177518080D01*
G75*
G02*
X173475500Y-177768080I-250000J0D01*
G01*
X172975500Y-177768080D01*
G75*
G02*
X172725500Y-177518080I0J250000D01*
G01*
X172725500Y-176568080D01*
G75*
G02*
X172975500Y-176318080I250000J0D01*
G01*
X173475500Y-176318080D01*
G75*
G02*
X173725500Y-176568080I0J-250000D01*
G01*
G37*
G36*
G01*
X158569640Y-135671980D02*
X159519640Y-135671980D01*
G75*
G02*
X159769640Y-135921980I0J-250000D01*
G01*
X159769640Y-136421980D01*
G75*
G02*
X159519640Y-136671980I-250000J0D01*
G01*
X158569640Y-136671980D01*
G75*
G02*
X158319640Y-136421980I0J250000D01*
G01*
X158319640Y-135921980D01*
G75*
G02*
X158569640Y-135671980I250000J0D01*
G01*
G37*
G36*
G01*
X158569640Y-133771980D02*
X159519640Y-133771980D01*
G75*
G02*
X159769640Y-134021980I0J-250000D01*
G01*
X159769640Y-134521980D01*
G75*
G02*
X159519640Y-134771980I-250000J0D01*
G01*
X158569640Y-134771980D01*
G75*
G02*
X158319640Y-134521980I0J250000D01*
G01*
X158319640Y-134021980D01*
G75*
G02*
X158569640Y-133771980I250000J0D01*
G01*
G37*
G36*
G01*
X170980520Y-129405400D02*
X170980520Y-128455400D01*
G75*
G02*
X171230520Y-128205400I250000J0D01*
G01*
X171730520Y-128205400D01*
G75*
G02*
X171980520Y-128455400I0J-250000D01*
G01*
X171980520Y-129405400D01*
G75*
G02*
X171730520Y-129655400I-250000J0D01*
G01*
X171230520Y-129655400D01*
G75*
G02*
X170980520Y-129405400I0J250000D01*
G01*
G37*
G36*
G01*
X169080520Y-129405400D02*
X169080520Y-128455400D01*
G75*
G02*
X169330520Y-128205400I250000J0D01*
G01*
X169830520Y-128205400D01*
G75*
G02*
X170080520Y-128455400I0J-250000D01*
G01*
X170080520Y-129405400D01*
G75*
G02*
X169830520Y-129655400I-250000J0D01*
G01*
X169330520Y-129655400D01*
G75*
G02*
X169080520Y-129405400I0J250000D01*
G01*
G37*
G36*
G01*
X111889520Y-165565240D02*
X112839520Y-165565240D01*
G75*
G02*
X113089520Y-165815240I0J-250000D01*
G01*
X113089520Y-166315240D01*
G75*
G02*
X112839520Y-166565240I-250000J0D01*
G01*
X111889520Y-166565240D01*
G75*
G02*
X111639520Y-166315240I0J250000D01*
G01*
X111639520Y-165815240D01*
G75*
G02*
X111889520Y-165565240I250000J0D01*
G01*
G37*
G36*
G01*
X111889520Y-163665240D02*
X112839520Y-163665240D01*
G75*
G02*
X113089520Y-163915240I0J-250000D01*
G01*
X113089520Y-164415240D01*
G75*
G02*
X112839520Y-164665240I-250000J0D01*
G01*
X111889520Y-164665240D01*
G75*
G02*
X111639520Y-164415240I0J250000D01*
G01*
X111639520Y-163915240D01*
G75*
G02*
X111889520Y-163665240I250000J0D01*
G01*
G37*
G36*
G01*
X129740640Y-165499160D02*
X130690640Y-165499160D01*
G75*
G02*
X130940640Y-165749160I0J-250000D01*
G01*
X130940640Y-166249160D01*
G75*
G02*
X130690640Y-166499160I-250000J0D01*
G01*
X129740640Y-166499160D01*
G75*
G02*
X129490640Y-166249160I0J250000D01*
G01*
X129490640Y-165749160D01*
G75*
G02*
X129740640Y-165499160I250000J0D01*
G01*
G37*
G36*
G01*
X129740640Y-163599160D02*
X130690640Y-163599160D01*
G75*
G02*
X130940640Y-163849160I0J-250000D01*
G01*
X130940640Y-164349160D01*
G75*
G02*
X130690640Y-164599160I-250000J0D01*
G01*
X129740640Y-164599160D01*
G75*
G02*
X129490640Y-164349160I0J250000D01*
G01*
X129490640Y-163849160D01*
G75*
G02*
X129740640Y-163599160I250000J0D01*
G01*
G37*
G36*
G01*
X178397320Y-131193560D02*
X178397320Y-130243560D01*
G75*
G02*
X178647320Y-129993560I250000J0D01*
G01*
X179147320Y-129993560D01*
G75*
G02*
X179397320Y-130243560I0J-250000D01*
G01*
X179397320Y-131193560D01*
G75*
G02*
X179147320Y-131443560I-250000J0D01*
G01*
X178647320Y-131443560D01*
G75*
G02*
X178397320Y-131193560I0J250000D01*
G01*
G37*
G36*
G01*
X176497320Y-131193560D02*
X176497320Y-130243560D01*
G75*
G02*
X176747320Y-129993560I250000J0D01*
G01*
X177247320Y-129993560D01*
G75*
G02*
X177497320Y-130243560I0J-250000D01*
G01*
X177497320Y-131193560D01*
G75*
G02*
X177247320Y-131443560I-250000J0D01*
G01*
X176747320Y-131443560D01*
G75*
G02*
X176497320Y-131193560I0J250000D01*
G01*
G37*
G36*
G01*
X176360240Y-134907040D02*
X176360240Y-133957040D01*
G75*
G02*
X176610240Y-133707040I250000J0D01*
G01*
X177110240Y-133707040D01*
G75*
G02*
X177360240Y-133957040I0J-250000D01*
G01*
X177360240Y-134907040D01*
G75*
G02*
X177110240Y-135157040I-250000J0D01*
G01*
X176610240Y-135157040D01*
G75*
G02*
X176360240Y-134907040I0J250000D01*
G01*
G37*
G36*
G01*
X174460240Y-134907040D02*
X174460240Y-133957040D01*
G75*
G02*
X174710240Y-133707040I250000J0D01*
G01*
X175210240Y-133707040D01*
G75*
G02*
X175460240Y-133957040I0J-250000D01*
G01*
X175460240Y-134907040D01*
G75*
G02*
X175210240Y-135157040I-250000J0D01*
G01*
X174710240Y-135157040D01*
G75*
G02*
X174460240Y-134907040I0J250000D01*
G01*
G37*
G36*
G01*
X176343440Y-139233840D02*
X176343440Y-138283840D01*
G75*
G02*
X176593440Y-138033840I250000J0D01*
G01*
X177093440Y-138033840D01*
G75*
G02*
X177343440Y-138283840I0J-250000D01*
G01*
X177343440Y-139233840D01*
G75*
G02*
X177093440Y-139483840I-250000J0D01*
G01*
X176593440Y-139483840D01*
G75*
G02*
X176343440Y-139233840I0J250000D01*
G01*
G37*
G36*
G01*
X174443440Y-139233840D02*
X174443440Y-138283840D01*
G75*
G02*
X174693440Y-138033840I250000J0D01*
G01*
X175193440Y-138033840D01*
G75*
G02*
X175443440Y-138283840I0J-250000D01*
G01*
X175443440Y-139233840D01*
G75*
G02*
X175193440Y-139483840I-250000J0D01*
G01*
X174693440Y-139483840D01*
G75*
G02*
X174443440Y-139233840I0J250000D01*
G01*
G37*
G36*
G01*
X176360240Y-137116840D02*
X176360240Y-136166840D01*
G75*
G02*
X176610240Y-135916840I250000J0D01*
G01*
X177110240Y-135916840D01*
G75*
G02*
X177360240Y-136166840I0J-250000D01*
G01*
X177360240Y-137116840D01*
G75*
G02*
X177110240Y-137366840I-250000J0D01*
G01*
X176610240Y-137366840D01*
G75*
G02*
X176360240Y-137116840I0J250000D01*
G01*
G37*
G36*
G01*
X174460240Y-137116840D02*
X174460240Y-136166840D01*
G75*
G02*
X174710240Y-135916840I250000J0D01*
G01*
X175210240Y-135916840D01*
G75*
G02*
X175460240Y-136166840I0J-250000D01*
G01*
X175460240Y-137116840D01*
G75*
G02*
X175210240Y-137366840I-250000J0D01*
G01*
X174710240Y-137366840D01*
G75*
G02*
X174460240Y-137116840I0J250000D01*
G01*
G37*
G36*
G01*
X178407480Y-161612600D02*
X178407480Y-160662600D01*
G75*
G02*
X178657480Y-160412600I250000J0D01*
G01*
X179157480Y-160412600D01*
G75*
G02*
X179407480Y-160662600I0J-250000D01*
G01*
X179407480Y-161612600D01*
G75*
G02*
X179157480Y-161862600I-250000J0D01*
G01*
X178657480Y-161862600D01*
G75*
G02*
X178407480Y-161612600I0J250000D01*
G01*
G37*
G36*
G01*
X176507480Y-161612600D02*
X176507480Y-160662600D01*
G75*
G02*
X176757480Y-160412600I250000J0D01*
G01*
X177257480Y-160412600D01*
G75*
G02*
X177507480Y-160662600I0J-250000D01*
G01*
X177507480Y-161612600D01*
G75*
G02*
X177257480Y-161862600I-250000J0D01*
G01*
X176757480Y-161862600D01*
G75*
G02*
X176507480Y-161612600I0J250000D01*
G01*
G37*
M02*
