G04 #@! TF.GenerationSoftware,KiCad,Pcbnew,5.1.9*
G04 #@! TF.CreationDate,2021-07-18T14:13:42+08:00*
G04 #@! TF.ProjectId,digital-amplifier2,64696769-7461-46c2-9d61-6d706c696669,rev?*
G04 #@! TF.SameCoordinates,Original*
G04 #@! TF.FileFunction,Paste,Top*
G04 #@! TF.FilePolarity,Positive*
%FSLAX46Y46*%
G04 Gerber Fmt 4.6, Leading zero omitted, Abs format (unit mm)*
G04 Created by KiCad (PCBNEW 5.1.9) date 2021-07-18 14:13:42*
%MOMM*%
%LPD*%
G01*
G04 APERTURE LIST*
%ADD10C,0.152400*%
%ADD11R,1.969999X0.558000*%
%ADD12R,2.789999X3.810000*%
%ADD13R,2.000000X1.500000*%
%ADD14R,2.000000X3.800000*%
%ADD15R,1.400000X1.400000*%
%ADD16R,0.400000X1.100000*%
%ADD17R,2.400000X1.500000*%
%ADD18R,2.300000X3.100000*%
%ADD19R,0.300000X1.100000*%
%ADD20R,0.600000X1.160000*%
%ADD21R,0.300000X1.160000*%
%ADD22R,2.000000X2.400000*%
%ADD23R,0.450000X1.750000*%
G04 APERTURE END LIST*
D10*
X122592370Y-184163640D02*
X122301121Y-184163640D01*
X122592370Y-184712610D02*
X122592370Y-184163640D01*
X122159700Y-184712610D02*
X122592370Y-184712610D01*
X122159700Y-184305061D02*
X122159700Y-184712610D01*
X122159700Y-184305061D02*
X122159700Y-184305061D01*
X122301121Y-184163640D02*
X122159700Y-184305061D01*
X122301121Y-184163640D02*
X122301121Y-184163640D01*
X122592370Y-183376240D02*
X122301121Y-183376240D01*
X122592370Y-183963640D02*
X122592370Y-183376240D01*
X122301121Y-183963640D02*
X122592370Y-183963640D01*
X122301121Y-183963640D02*
X122301121Y-183963640D01*
X122159700Y-183822219D02*
X122301121Y-183963640D01*
X122159700Y-183822219D02*
X122159700Y-183822219D01*
X122159700Y-183517661D02*
X122159700Y-183822219D01*
X122159700Y-183517661D02*
X122159700Y-183517661D01*
X122301121Y-183376240D02*
X122159700Y-183517661D01*
X122301121Y-183376240D02*
X122301121Y-183376240D01*
X122592370Y-182588840D02*
X122301121Y-182588840D01*
X122592370Y-183176240D02*
X122592370Y-182588840D01*
X122301121Y-183176240D02*
X122592370Y-183176240D01*
X122301121Y-183176240D02*
X122301121Y-183176240D01*
X122159700Y-183034819D02*
X122301121Y-183176240D01*
X122159700Y-183034819D02*
X122159700Y-183034819D01*
X122159700Y-182730261D02*
X122159700Y-183034819D01*
X122159700Y-182730261D02*
X122159700Y-182730261D01*
X122301121Y-182588840D02*
X122159700Y-182730261D01*
X122301121Y-182588840D02*
X122301121Y-182588840D01*
X122592370Y-181801440D02*
X122301121Y-181801440D01*
X122592370Y-182388840D02*
X122592370Y-181801440D01*
X122301121Y-182388840D02*
X122592370Y-182388840D01*
X122301121Y-182388840D02*
X122301121Y-182388840D01*
X122159700Y-182247419D02*
X122301121Y-182388840D01*
X122159700Y-182247419D02*
X122159700Y-182247419D01*
X122159700Y-181942861D02*
X122159700Y-182247419D01*
X122159700Y-181942861D02*
X122159700Y-181942861D01*
X122301121Y-181801440D02*
X122159700Y-181942861D01*
X122301121Y-181801440D02*
X122301121Y-181801440D01*
X122592370Y-181052470D02*
X122159700Y-181052470D01*
X122592370Y-181601440D02*
X122592370Y-181052470D01*
X122301121Y-181601440D02*
X122592370Y-181601440D01*
X122301121Y-181601440D02*
X122301121Y-181601440D01*
X122159700Y-181460019D02*
X122301121Y-181601440D01*
X122159700Y-181460019D02*
X122159700Y-181460019D01*
X122159700Y-181052470D02*
X122159700Y-181460019D01*
X121818279Y-184163640D02*
X121513721Y-184163640D01*
X121818279Y-184163640D02*
X121818279Y-184163640D01*
X121959700Y-184305061D02*
X121818279Y-184163640D01*
X121959700Y-184305061D02*
X121959700Y-184305061D01*
X121959700Y-184712610D02*
X121959700Y-184305061D01*
X121372300Y-184712610D02*
X121959700Y-184712610D01*
X121372300Y-184305061D02*
X121372300Y-184712610D01*
X121372300Y-184305061D02*
X121372300Y-184305061D01*
X121513721Y-184163640D02*
X121372300Y-184305061D01*
X121513721Y-184163640D02*
X121513721Y-184163640D01*
X121818279Y-183376240D02*
X121513721Y-183376240D01*
X121818279Y-183376240D02*
X121818279Y-183376240D01*
X121959700Y-183517661D02*
X121818279Y-183376240D01*
X121959700Y-183517661D02*
X121959700Y-183517661D01*
X121959700Y-183822219D02*
X121959700Y-183517661D01*
X121959700Y-183822219D02*
X121959700Y-183822219D01*
X121818279Y-183963640D02*
X121959700Y-183822219D01*
X121818279Y-183963640D02*
X121818279Y-183963640D01*
X121513721Y-183963640D02*
X121818279Y-183963640D01*
X121513721Y-183963640D02*
X121513721Y-183963640D01*
X121372300Y-183822219D02*
X121513721Y-183963640D01*
X121372300Y-183822219D02*
X121372300Y-183822219D01*
X121372300Y-183517661D02*
X121372300Y-183822219D01*
X121372300Y-183517661D02*
X121372300Y-183517661D01*
X121513721Y-183376240D02*
X121372300Y-183517661D01*
X121513721Y-183376240D02*
X121513721Y-183376240D01*
X121818279Y-182588840D02*
X121513721Y-182588840D01*
X121818279Y-182588840D02*
X121818279Y-182588840D01*
X121959700Y-182730261D02*
X121818279Y-182588840D01*
X121959700Y-182730261D02*
X121959700Y-182730261D01*
X121959700Y-183034819D02*
X121959700Y-182730261D01*
X121959700Y-183034819D02*
X121959700Y-183034819D01*
X121818279Y-183176240D02*
X121959700Y-183034819D01*
X121818279Y-183176240D02*
X121818279Y-183176240D01*
X121513721Y-183176240D02*
X121818279Y-183176240D01*
X121513721Y-183176240D02*
X121513721Y-183176240D01*
X121372300Y-183034819D02*
X121513721Y-183176240D01*
X121372300Y-183034819D02*
X121372300Y-183034819D01*
X121372300Y-182730261D02*
X121372300Y-183034819D01*
X121372300Y-182730261D02*
X121372300Y-182730261D01*
X121513721Y-182588840D02*
X121372300Y-182730261D01*
X121513721Y-182588840D02*
X121513721Y-182588840D01*
X121818279Y-181801440D02*
X121513721Y-181801440D01*
X121818279Y-181801440D02*
X121818279Y-181801440D01*
X121959700Y-181942861D02*
X121818279Y-181801440D01*
X121959700Y-181942861D02*
X121959700Y-181942861D01*
X121959700Y-182247419D02*
X121959700Y-181942861D01*
X121959700Y-182247419D02*
X121959700Y-182247419D01*
X121818279Y-182388840D02*
X121959700Y-182247419D01*
X121818279Y-182388840D02*
X121818279Y-182388840D01*
X121513721Y-182388840D02*
X121818279Y-182388840D01*
X121513721Y-182388840D02*
X121513721Y-182388840D01*
X121372300Y-182247419D02*
X121513721Y-182388840D01*
X121372300Y-182247419D02*
X121372300Y-182247419D01*
X121372300Y-181942861D02*
X121372300Y-182247419D01*
X121372300Y-181942861D02*
X121372300Y-181942861D01*
X121513721Y-181801440D02*
X121372300Y-181942861D01*
X121513721Y-181801440D02*
X121513721Y-181801440D01*
X121959700Y-181052470D02*
X121372300Y-181052470D01*
X121959700Y-181460019D02*
X121959700Y-181052470D01*
X121959700Y-181460019D02*
X121959700Y-181460019D01*
X121818279Y-181601440D02*
X121959700Y-181460019D01*
X121818279Y-181601440D02*
X121818279Y-181601440D01*
X121513721Y-181601440D02*
X121818279Y-181601440D01*
X121513721Y-181601440D02*
X121513721Y-181601440D01*
X121372300Y-181460019D02*
X121513721Y-181601440D01*
X121372300Y-181460019D02*
X121372300Y-181460019D01*
X121372300Y-181052470D02*
X121372300Y-181460019D01*
X121030879Y-184163640D02*
X120726321Y-184163640D01*
X121030879Y-184163640D02*
X121030879Y-184163640D01*
X121172300Y-184305061D02*
X121030879Y-184163640D01*
X121172300Y-184305061D02*
X121172300Y-184305061D01*
X121172300Y-184712610D02*
X121172300Y-184305061D01*
X120584900Y-184712610D02*
X121172300Y-184712610D01*
X120584900Y-184305061D02*
X120584900Y-184712610D01*
X120584900Y-184305061D02*
X120584900Y-184305061D01*
X120726321Y-184163640D02*
X120584900Y-184305061D01*
X120726321Y-184163640D02*
X120726321Y-184163640D01*
X121030879Y-183376240D02*
X120726321Y-183376240D01*
X121030879Y-183376240D02*
X121030879Y-183376240D01*
X121172300Y-183517661D02*
X121030879Y-183376240D01*
X121172300Y-183517661D02*
X121172300Y-183517661D01*
X121172300Y-183822219D02*
X121172300Y-183517661D01*
X121172300Y-183822219D02*
X121172300Y-183822219D01*
X121030879Y-183963640D02*
X121172300Y-183822219D01*
X121030879Y-183963640D02*
X121030879Y-183963640D01*
X120726321Y-183963640D02*
X121030879Y-183963640D01*
X120726321Y-183963640D02*
X120726321Y-183963640D01*
X120584900Y-183822219D02*
X120726321Y-183963640D01*
X120584900Y-183822219D02*
X120584900Y-183822219D01*
X120584900Y-183517661D02*
X120584900Y-183822219D01*
X120584900Y-183517661D02*
X120584900Y-183517661D01*
X120726321Y-183376240D02*
X120584900Y-183517661D01*
X120726321Y-183376240D02*
X120726321Y-183376240D01*
X121030879Y-182588840D02*
X120726321Y-182588840D01*
X121030879Y-182588840D02*
X121030879Y-182588840D01*
X121172300Y-182730261D02*
X121030879Y-182588840D01*
X121172300Y-182730261D02*
X121172300Y-182730261D01*
X121172300Y-183034819D02*
X121172300Y-182730261D01*
X121172300Y-183034819D02*
X121172300Y-183034819D01*
X121030879Y-183176240D02*
X121172300Y-183034819D01*
X121030879Y-183176240D02*
X121030879Y-183176240D01*
X120726321Y-183176240D02*
X121030879Y-183176240D01*
X120726321Y-183176240D02*
X120726321Y-183176240D01*
X120584900Y-183034819D02*
X120726321Y-183176240D01*
X120584900Y-183034819D02*
X120584900Y-183034819D01*
X120584900Y-182730261D02*
X120584900Y-183034819D01*
X120584900Y-182730261D02*
X120584900Y-182730261D01*
X120726321Y-182588840D02*
X120584900Y-182730261D01*
X120726321Y-182588840D02*
X120726321Y-182588840D01*
X121030879Y-181801440D02*
X120726321Y-181801440D01*
X121030879Y-181801440D02*
X121030879Y-181801440D01*
X121172300Y-181942861D02*
X121030879Y-181801440D01*
X121172300Y-181942861D02*
X121172300Y-181942861D01*
X121172300Y-182247419D02*
X121172300Y-181942861D01*
X121172300Y-182247419D02*
X121172300Y-182247419D01*
X121030879Y-182388840D02*
X121172300Y-182247419D01*
X121030879Y-182388840D02*
X121030879Y-182388840D01*
X120726321Y-182388840D02*
X121030879Y-182388840D01*
X120726321Y-182388840D02*
X120726321Y-182388840D01*
X120584900Y-182247419D02*
X120726321Y-182388840D01*
X120584900Y-182247419D02*
X120584900Y-182247419D01*
X120584900Y-181942861D02*
X120584900Y-182247419D01*
X120584900Y-181942861D02*
X120584900Y-181942861D01*
X120726321Y-181801440D02*
X120584900Y-181942861D01*
X120726321Y-181801440D02*
X120726321Y-181801440D01*
X121172300Y-181052470D02*
X120584900Y-181052470D01*
X121172300Y-181460019D02*
X121172300Y-181052470D01*
X121172300Y-181460019D02*
X121172300Y-181460019D01*
X121030879Y-181601440D02*
X121172300Y-181460019D01*
X121030879Y-181601440D02*
X121030879Y-181601440D01*
X120726321Y-181601440D02*
X121030879Y-181601440D01*
X120726321Y-181601440D02*
X120726321Y-181601440D01*
X120584900Y-181460019D02*
X120726321Y-181601440D01*
X120584900Y-181460019D02*
X120584900Y-181460019D01*
X120584900Y-181052470D02*
X120584900Y-181460019D01*
X120243479Y-184163640D02*
X119952230Y-184163640D01*
X120243479Y-184163640D02*
X120243479Y-184163640D01*
X120384900Y-184305061D02*
X120243479Y-184163640D01*
X120384900Y-184305061D02*
X120384900Y-184305061D01*
X120384900Y-184712610D02*
X120384900Y-184305061D01*
X119952230Y-184712610D02*
X120384900Y-184712610D01*
X119952230Y-184163640D02*
X119952230Y-184712610D01*
X120243479Y-183376240D02*
X119952230Y-183376240D01*
X120243479Y-183376240D02*
X120243479Y-183376240D01*
X120384900Y-183517661D02*
X120243479Y-183376240D01*
X120384900Y-183517661D02*
X120384900Y-183517661D01*
X120384900Y-183822219D02*
X120384900Y-183517661D01*
X120384900Y-183822219D02*
X120384900Y-183822219D01*
X120243479Y-183963640D02*
X120384900Y-183822219D01*
X120243479Y-183963640D02*
X120243479Y-183963640D01*
X119952230Y-183963640D02*
X120243479Y-183963640D01*
X119952230Y-183376240D02*
X119952230Y-183963640D01*
X120243479Y-182588840D02*
X119952230Y-182588840D01*
X120243479Y-182588840D02*
X120243479Y-182588840D01*
X120384900Y-182730261D02*
X120243479Y-182588840D01*
X120384900Y-182730261D02*
X120384900Y-182730261D01*
X120384900Y-183034819D02*
X120384900Y-182730261D01*
X120384900Y-183034819D02*
X120384900Y-183034819D01*
X120243479Y-183176240D02*
X120384900Y-183034819D01*
X120243479Y-183176240D02*
X120243479Y-183176240D01*
X119952230Y-183176240D02*
X120243479Y-183176240D01*
X119952230Y-182588840D02*
X119952230Y-183176240D01*
X120243479Y-181801440D02*
X119952230Y-181801440D01*
X120243479Y-181801440D02*
X120243479Y-181801440D01*
X120384900Y-181942861D02*
X120243479Y-181801440D01*
X120384900Y-181942861D02*
X120384900Y-181942861D01*
X120384900Y-182247419D02*
X120384900Y-181942861D01*
X120384900Y-182247419D02*
X120384900Y-182247419D01*
X120243479Y-182388840D02*
X120384900Y-182247419D01*
X120243479Y-182388840D02*
X120243479Y-182388840D01*
X119952230Y-182388840D02*
X120243479Y-182388840D01*
X119952230Y-181801440D02*
X119952230Y-182388840D01*
X120384900Y-181052470D02*
X119952230Y-181052470D01*
X120384900Y-181460019D02*
X120384900Y-181052470D01*
X120384900Y-181460019D02*
X120384900Y-181460019D01*
X120243479Y-181601440D02*
X120384900Y-181460019D01*
X120243479Y-181601440D02*
X120243479Y-181601440D01*
X119952230Y-181601440D02*
X120243479Y-181601440D01*
X119952230Y-181052470D02*
X119952230Y-181601440D01*
G36*
G01*
X118372700Y-141252060D02*
X117872700Y-141252060D01*
G75*
G02*
X117647700Y-141027060I0J225000D01*
G01*
X117647700Y-140577060D01*
G75*
G02*
X117872700Y-140352060I225000J0D01*
G01*
X118372700Y-140352060D01*
G75*
G02*
X118597700Y-140577060I0J-225000D01*
G01*
X118597700Y-141027060D01*
G75*
G02*
X118372700Y-141252060I-225000J0D01*
G01*
G37*
G36*
G01*
X118372700Y-142802060D02*
X117872700Y-142802060D01*
G75*
G02*
X117647700Y-142577060I0J225000D01*
G01*
X117647700Y-142127060D01*
G75*
G02*
X117872700Y-141902060I225000J0D01*
G01*
X118372700Y-141902060D01*
G75*
G02*
X118597700Y-142127060I0J-225000D01*
G01*
X118597700Y-142577060D01*
G75*
G02*
X118372700Y-142802060I-225000J0D01*
G01*
G37*
G36*
G01*
X155861900Y-145779300D02*
X155861900Y-145279300D01*
G75*
G02*
X156086900Y-145054300I225000J0D01*
G01*
X156536900Y-145054300D01*
G75*
G02*
X156761900Y-145279300I0J-225000D01*
G01*
X156761900Y-145779300D01*
G75*
G02*
X156536900Y-146004300I-225000J0D01*
G01*
X156086900Y-146004300D01*
G75*
G02*
X155861900Y-145779300I0J225000D01*
G01*
G37*
G36*
G01*
X154311900Y-145779300D02*
X154311900Y-145279300D01*
G75*
G02*
X154536900Y-145054300I225000J0D01*
G01*
X154986900Y-145054300D01*
G75*
G02*
X155211900Y-145279300I0J-225000D01*
G01*
X155211900Y-145779300D01*
G75*
G02*
X154986900Y-146004300I-225000J0D01*
G01*
X154536900Y-146004300D01*
G75*
G02*
X154311900Y-145779300I0J225000D01*
G01*
G37*
G36*
G01*
X137353160Y-199386120D02*
X137353160Y-199886120D01*
G75*
G02*
X137128160Y-200111120I-225000J0D01*
G01*
X136678160Y-200111120D01*
G75*
G02*
X136453160Y-199886120I0J225000D01*
G01*
X136453160Y-199386120D01*
G75*
G02*
X136678160Y-199161120I225000J0D01*
G01*
X137128160Y-199161120D01*
G75*
G02*
X137353160Y-199386120I0J-225000D01*
G01*
G37*
G36*
G01*
X138903160Y-199386120D02*
X138903160Y-199886120D01*
G75*
G02*
X138678160Y-200111120I-225000J0D01*
G01*
X138228160Y-200111120D01*
G75*
G02*
X138003160Y-199886120I0J225000D01*
G01*
X138003160Y-199386120D01*
G75*
G02*
X138228160Y-199161120I225000J0D01*
G01*
X138678160Y-199161120D01*
G75*
G02*
X138903160Y-199386120I0J-225000D01*
G01*
G37*
G36*
G01*
X141193400Y-199883840D02*
X141193400Y-199383840D01*
G75*
G02*
X141418400Y-199158840I225000J0D01*
G01*
X141868400Y-199158840D01*
G75*
G02*
X142093400Y-199383840I0J-225000D01*
G01*
X142093400Y-199883840D01*
G75*
G02*
X141868400Y-200108840I-225000J0D01*
G01*
X141418400Y-200108840D01*
G75*
G02*
X141193400Y-199883840I0J225000D01*
G01*
G37*
G36*
G01*
X139643400Y-199883840D02*
X139643400Y-199383840D01*
G75*
G02*
X139868400Y-199158840I225000J0D01*
G01*
X140318400Y-199158840D01*
G75*
G02*
X140543400Y-199383840I0J-225000D01*
G01*
X140543400Y-199883840D01*
G75*
G02*
X140318400Y-200108840I-225000J0D01*
G01*
X139868400Y-200108840D01*
G75*
G02*
X139643400Y-199883840I0J225000D01*
G01*
G37*
G36*
G01*
X136564560Y-136179440D02*
X137064560Y-136179440D01*
G75*
G02*
X137289560Y-136404440I0J-225000D01*
G01*
X137289560Y-136854440D01*
G75*
G02*
X137064560Y-137079440I-225000J0D01*
G01*
X136564560Y-137079440D01*
G75*
G02*
X136339560Y-136854440I0J225000D01*
G01*
X136339560Y-136404440D01*
G75*
G02*
X136564560Y-136179440I225000J0D01*
G01*
G37*
G36*
G01*
X136564560Y-134629440D02*
X137064560Y-134629440D01*
G75*
G02*
X137289560Y-134854440I0J-225000D01*
G01*
X137289560Y-135304440D01*
G75*
G02*
X137064560Y-135529440I-225000J0D01*
G01*
X136564560Y-135529440D01*
G75*
G02*
X136339560Y-135304440I0J225000D01*
G01*
X136339560Y-134854440D01*
G75*
G02*
X136564560Y-134629440I225000J0D01*
G01*
G37*
G36*
G01*
X144462440Y-136179440D02*
X144962440Y-136179440D01*
G75*
G02*
X145187440Y-136404440I0J-225000D01*
G01*
X145187440Y-136854440D01*
G75*
G02*
X144962440Y-137079440I-225000J0D01*
G01*
X144462440Y-137079440D01*
G75*
G02*
X144237440Y-136854440I0J225000D01*
G01*
X144237440Y-136404440D01*
G75*
G02*
X144462440Y-136179440I225000J0D01*
G01*
G37*
G36*
G01*
X144462440Y-134629440D02*
X144962440Y-134629440D01*
G75*
G02*
X145187440Y-134854440I0J-225000D01*
G01*
X145187440Y-135304440D01*
G75*
G02*
X144962440Y-135529440I-225000J0D01*
G01*
X144462440Y-135529440D01*
G75*
G02*
X144237440Y-135304440I0J225000D01*
G01*
X144237440Y-134854440D01*
G75*
G02*
X144462440Y-134629440I225000J0D01*
G01*
G37*
G36*
G01*
X113105120Y-136179440D02*
X113605120Y-136179440D01*
G75*
G02*
X113830120Y-136404440I0J-225000D01*
G01*
X113830120Y-136854440D01*
G75*
G02*
X113605120Y-137079440I-225000J0D01*
G01*
X113105120Y-137079440D01*
G75*
G02*
X112880120Y-136854440I0J225000D01*
G01*
X112880120Y-136404440D01*
G75*
G02*
X113105120Y-136179440I225000J0D01*
G01*
G37*
G36*
G01*
X113105120Y-134629440D02*
X113605120Y-134629440D01*
G75*
G02*
X113830120Y-134854440I0J-225000D01*
G01*
X113830120Y-135304440D01*
G75*
G02*
X113605120Y-135529440I-225000J0D01*
G01*
X113105120Y-135529440D01*
G75*
G02*
X112880120Y-135304440I0J225000D01*
G01*
X112880120Y-134854440D01*
G75*
G02*
X113105120Y-134629440I225000J0D01*
G01*
G37*
G36*
G01*
X118985220Y-136179440D02*
X119485220Y-136179440D01*
G75*
G02*
X119710220Y-136404440I0J-225000D01*
G01*
X119710220Y-136854440D01*
G75*
G02*
X119485220Y-137079440I-225000J0D01*
G01*
X118985220Y-137079440D01*
G75*
G02*
X118760220Y-136854440I0J225000D01*
G01*
X118760220Y-136404440D01*
G75*
G02*
X118985220Y-136179440I225000J0D01*
G01*
G37*
G36*
G01*
X118985220Y-134629440D02*
X119485220Y-134629440D01*
G75*
G02*
X119710220Y-134854440I0J-225000D01*
G01*
X119710220Y-135304440D01*
G75*
G02*
X119485220Y-135529440I-225000J0D01*
G01*
X118985220Y-135529440D01*
G75*
G02*
X118760220Y-135304440I0J225000D01*
G01*
X118760220Y-134854440D01*
G75*
G02*
X118985220Y-134629440I225000J0D01*
G01*
G37*
G36*
G01*
X132331580Y-136390000D02*
X132331580Y-136890000D01*
G75*
G02*
X132106580Y-137115000I-225000J0D01*
G01*
X131656580Y-137115000D01*
G75*
G02*
X131431580Y-136890000I0J225000D01*
G01*
X131431580Y-136390000D01*
G75*
G02*
X131656580Y-136165000I225000J0D01*
G01*
X132106580Y-136165000D01*
G75*
G02*
X132331580Y-136390000I0J-225000D01*
G01*
G37*
G36*
G01*
X133881580Y-136390000D02*
X133881580Y-136890000D01*
G75*
G02*
X133656580Y-137115000I-225000J0D01*
G01*
X133206580Y-137115000D01*
G75*
G02*
X132981580Y-136890000I0J225000D01*
G01*
X132981580Y-136390000D01*
G75*
G02*
X133206580Y-136165000I225000J0D01*
G01*
X133656580Y-136165000D01*
G75*
G02*
X133881580Y-136390000I0J-225000D01*
G01*
G37*
G36*
G01*
X109088040Y-136354440D02*
X109088040Y-136854440D01*
G75*
G02*
X108863040Y-137079440I-225000J0D01*
G01*
X108413040Y-137079440D01*
G75*
G02*
X108188040Y-136854440I0J225000D01*
G01*
X108188040Y-136354440D01*
G75*
G02*
X108413040Y-136129440I225000J0D01*
G01*
X108863040Y-136129440D01*
G75*
G02*
X109088040Y-136354440I0J-225000D01*
G01*
G37*
G36*
G01*
X110638040Y-136354440D02*
X110638040Y-136854440D01*
G75*
G02*
X110413040Y-137079440I-225000J0D01*
G01*
X109963040Y-137079440D01*
G75*
G02*
X109738040Y-136854440I0J225000D01*
G01*
X109738040Y-136354440D01*
G75*
G02*
X109963040Y-136129440I225000J0D01*
G01*
X110413040Y-136129440D01*
G75*
G02*
X110638040Y-136354440I0J-225000D01*
G01*
G37*
G36*
G01*
X115546060Y-165226880D02*
X116046060Y-165226880D01*
G75*
G02*
X116271060Y-165451880I0J-225000D01*
G01*
X116271060Y-165901880D01*
G75*
G02*
X116046060Y-166126880I-225000J0D01*
G01*
X115546060Y-166126880D01*
G75*
G02*
X115321060Y-165901880I0J225000D01*
G01*
X115321060Y-165451880D01*
G75*
G02*
X115546060Y-165226880I225000J0D01*
G01*
G37*
G36*
G01*
X115546060Y-163676880D02*
X116046060Y-163676880D01*
G75*
G02*
X116271060Y-163901880I0J-225000D01*
G01*
X116271060Y-164351880D01*
G75*
G02*
X116046060Y-164576880I-225000J0D01*
G01*
X115546060Y-164576880D01*
G75*
G02*
X115321060Y-164351880I0J225000D01*
G01*
X115321060Y-163901880D01*
G75*
G02*
X115546060Y-163676880I225000J0D01*
G01*
G37*
G36*
G01*
X126617920Y-165226880D02*
X127117920Y-165226880D01*
G75*
G02*
X127342920Y-165451880I0J-225000D01*
G01*
X127342920Y-165901880D01*
G75*
G02*
X127117920Y-166126880I-225000J0D01*
G01*
X126617920Y-166126880D01*
G75*
G02*
X126392920Y-165901880I0J225000D01*
G01*
X126392920Y-165451880D01*
G75*
G02*
X126617920Y-165226880I225000J0D01*
G01*
G37*
G36*
G01*
X126617920Y-163676880D02*
X127117920Y-163676880D01*
G75*
G02*
X127342920Y-163901880I0J-225000D01*
G01*
X127342920Y-164351880D01*
G75*
G02*
X127117920Y-164576880I-225000J0D01*
G01*
X126617920Y-164576880D01*
G75*
G02*
X126392920Y-164351880I0J225000D01*
G01*
X126392920Y-163901880D01*
G75*
G02*
X126617920Y-163676880I225000J0D01*
G01*
G37*
G36*
G01*
X129886520Y-175793520D02*
X129386520Y-175793520D01*
G75*
G02*
X129161520Y-175568520I0J225000D01*
G01*
X129161520Y-175118520D01*
G75*
G02*
X129386520Y-174893520I225000J0D01*
G01*
X129886520Y-174893520D01*
G75*
G02*
X130111520Y-175118520I0J-225000D01*
G01*
X130111520Y-175568520D01*
G75*
G02*
X129886520Y-175793520I-225000J0D01*
G01*
G37*
G36*
G01*
X129886520Y-177343520D02*
X129386520Y-177343520D01*
G75*
G02*
X129161520Y-177118520I0J225000D01*
G01*
X129161520Y-176668520D01*
G75*
G02*
X129386520Y-176443520I225000J0D01*
G01*
X129886520Y-176443520D01*
G75*
G02*
X130111520Y-176668520I0J-225000D01*
G01*
X130111520Y-177118520D01*
G75*
G02*
X129886520Y-177343520I-225000J0D01*
G01*
G37*
G36*
G01*
X113234280Y-175671600D02*
X112734280Y-175671600D01*
G75*
G02*
X112509280Y-175446600I0J225000D01*
G01*
X112509280Y-174996600D01*
G75*
G02*
X112734280Y-174771600I225000J0D01*
G01*
X113234280Y-174771600D01*
G75*
G02*
X113459280Y-174996600I0J-225000D01*
G01*
X113459280Y-175446600D01*
G75*
G02*
X113234280Y-175671600I-225000J0D01*
G01*
G37*
G36*
G01*
X113234280Y-177221600D02*
X112734280Y-177221600D01*
G75*
G02*
X112509280Y-176996600I0J225000D01*
G01*
X112509280Y-176546600D01*
G75*
G02*
X112734280Y-176321600I225000J0D01*
G01*
X113234280Y-176321600D01*
G75*
G02*
X113459280Y-176546600I0J-225000D01*
G01*
X113459280Y-176996600D01*
G75*
G02*
X113234280Y-177221600I-225000J0D01*
G01*
G37*
G36*
G01*
X112693640Y-181157760D02*
X113193640Y-181157760D01*
G75*
G02*
X113418640Y-181382760I0J-225000D01*
G01*
X113418640Y-181832760D01*
G75*
G02*
X113193640Y-182057760I-225000J0D01*
G01*
X112693640Y-182057760D01*
G75*
G02*
X112468640Y-181832760I0J225000D01*
G01*
X112468640Y-181382760D01*
G75*
G02*
X112693640Y-181157760I225000J0D01*
G01*
G37*
G36*
G01*
X112693640Y-179607760D02*
X113193640Y-179607760D01*
G75*
G02*
X113418640Y-179832760I0J-225000D01*
G01*
X113418640Y-180282760D01*
G75*
G02*
X113193640Y-180507760I-225000J0D01*
G01*
X112693640Y-180507760D01*
G75*
G02*
X112468640Y-180282760I0J225000D01*
G01*
X112468640Y-179832760D01*
G75*
G02*
X112693640Y-179607760I225000J0D01*
G01*
G37*
G36*
G01*
X129406840Y-180883440D02*
X129906840Y-180883440D01*
G75*
G02*
X130131840Y-181108440I0J-225000D01*
G01*
X130131840Y-181558440D01*
G75*
G02*
X129906840Y-181783440I-225000J0D01*
G01*
X129406840Y-181783440D01*
G75*
G02*
X129181840Y-181558440I0J225000D01*
G01*
X129181840Y-181108440D01*
G75*
G02*
X129406840Y-180883440I225000J0D01*
G01*
G37*
G36*
G01*
X129406840Y-179333440D02*
X129906840Y-179333440D01*
G75*
G02*
X130131840Y-179558440I0J-225000D01*
G01*
X130131840Y-180008440D01*
G75*
G02*
X129906840Y-180233440I-225000J0D01*
G01*
X129406840Y-180233440D01*
G75*
G02*
X129181840Y-180008440I0J225000D01*
G01*
X129181840Y-179558440D01*
G75*
G02*
X129406840Y-179333440I225000J0D01*
G01*
G37*
G36*
G01*
X120041480Y-141269840D02*
X119541480Y-141269840D01*
G75*
G02*
X119316480Y-141044840I0J225000D01*
G01*
X119316480Y-140594840D01*
G75*
G02*
X119541480Y-140369840I225000J0D01*
G01*
X120041480Y-140369840D01*
G75*
G02*
X120266480Y-140594840I0J-225000D01*
G01*
X120266480Y-141044840D01*
G75*
G02*
X120041480Y-141269840I-225000J0D01*
G01*
G37*
G36*
G01*
X120041480Y-142819840D02*
X119541480Y-142819840D01*
G75*
G02*
X119316480Y-142594840I0J225000D01*
G01*
X119316480Y-142144840D01*
G75*
G02*
X119541480Y-141919840I225000J0D01*
G01*
X120041480Y-141919840D01*
G75*
G02*
X120266480Y-142144840I0J-225000D01*
G01*
X120266480Y-142594840D01*
G75*
G02*
X120041480Y-142819840I-225000J0D01*
G01*
G37*
G36*
G01*
X140380840Y-123030740D02*
X140380840Y-123530740D01*
G75*
G02*
X140155840Y-123755740I-225000J0D01*
G01*
X139705840Y-123755740D01*
G75*
G02*
X139480840Y-123530740I0J225000D01*
G01*
X139480840Y-123030740D01*
G75*
G02*
X139705840Y-122805740I225000J0D01*
G01*
X140155840Y-122805740D01*
G75*
G02*
X140380840Y-123030740I0J-225000D01*
G01*
G37*
G36*
G01*
X141930840Y-123030740D02*
X141930840Y-123530740D01*
G75*
G02*
X141705840Y-123755740I-225000J0D01*
G01*
X141255840Y-123755740D01*
G75*
G02*
X141030840Y-123530740I0J225000D01*
G01*
X141030840Y-123030740D01*
G75*
G02*
X141255840Y-122805740I225000J0D01*
G01*
X141705840Y-122805740D01*
G75*
G02*
X141930840Y-123030740I0J-225000D01*
G01*
G37*
G36*
G01*
X143366300Y-123705740D02*
X142866300Y-123705740D01*
G75*
G02*
X142641300Y-123480740I0J225000D01*
G01*
X142641300Y-123030740D01*
G75*
G02*
X142866300Y-122805740I225000J0D01*
G01*
X143366300Y-122805740D01*
G75*
G02*
X143591300Y-123030740I0J-225000D01*
G01*
X143591300Y-123480740D01*
G75*
G02*
X143366300Y-123705740I-225000J0D01*
G01*
G37*
G36*
G01*
X143366300Y-125255740D02*
X142866300Y-125255740D01*
G75*
G02*
X142641300Y-125030740I0J225000D01*
G01*
X142641300Y-124580740D01*
G75*
G02*
X142866300Y-124355740I225000J0D01*
G01*
X143366300Y-124355740D01*
G75*
G02*
X143591300Y-124580740I0J-225000D01*
G01*
X143591300Y-125030740D01*
G75*
G02*
X143366300Y-125255740I-225000J0D01*
G01*
G37*
G36*
G01*
X137904100Y-123530740D02*
X137904100Y-123030740D01*
G75*
G02*
X138129100Y-122805740I225000J0D01*
G01*
X138579100Y-122805740D01*
G75*
G02*
X138804100Y-123030740I0J-225000D01*
G01*
X138804100Y-123530740D01*
G75*
G02*
X138579100Y-123755740I-225000J0D01*
G01*
X138129100Y-123755740D01*
G75*
G02*
X137904100Y-123530740I0J225000D01*
G01*
G37*
G36*
G01*
X136354100Y-123530740D02*
X136354100Y-123030740D01*
G75*
G02*
X136579100Y-122805740I225000J0D01*
G01*
X137029100Y-122805740D01*
G75*
G02*
X137254100Y-123030740I0J-225000D01*
G01*
X137254100Y-123530740D01*
G75*
G02*
X137029100Y-123755740I-225000J0D01*
G01*
X136579100Y-123755740D01*
G75*
G02*
X136354100Y-123530740I0J225000D01*
G01*
G37*
G36*
G01*
X135441500Y-123705740D02*
X134941500Y-123705740D01*
G75*
G02*
X134716500Y-123480740I0J225000D01*
G01*
X134716500Y-123030740D01*
G75*
G02*
X134941500Y-122805740I225000J0D01*
G01*
X135441500Y-122805740D01*
G75*
G02*
X135666500Y-123030740I0J-225000D01*
G01*
X135666500Y-123480740D01*
G75*
G02*
X135441500Y-123705740I-225000J0D01*
G01*
G37*
G36*
G01*
X135441500Y-125255740D02*
X134941500Y-125255740D01*
G75*
G02*
X134716500Y-125030740I0J225000D01*
G01*
X134716500Y-124580740D01*
G75*
G02*
X134941500Y-124355740I225000J0D01*
G01*
X135441500Y-124355740D01*
G75*
G02*
X135666500Y-124580740I0J-225000D01*
G01*
X135666500Y-125030740D01*
G75*
G02*
X135441500Y-125255740I-225000J0D01*
G01*
G37*
G36*
G01*
X116880760Y-123028900D02*
X116880760Y-123528900D01*
G75*
G02*
X116655760Y-123753900I-225000J0D01*
G01*
X116205760Y-123753900D01*
G75*
G02*
X115980760Y-123528900I0J225000D01*
G01*
X115980760Y-123028900D01*
G75*
G02*
X116205760Y-122803900I225000J0D01*
G01*
X116655760Y-122803900D01*
G75*
G02*
X116880760Y-123028900I0J-225000D01*
G01*
G37*
G36*
G01*
X118430760Y-123028900D02*
X118430760Y-123528900D01*
G75*
G02*
X118205760Y-123753900I-225000J0D01*
G01*
X117755760Y-123753900D01*
G75*
G02*
X117530760Y-123528900I0J225000D01*
G01*
X117530760Y-123028900D01*
G75*
G02*
X117755760Y-122803900I225000J0D01*
G01*
X118205760Y-122803900D01*
G75*
G02*
X118430760Y-123028900I0J-225000D01*
G01*
G37*
G36*
G01*
X119837520Y-123705740D02*
X119337520Y-123705740D01*
G75*
G02*
X119112520Y-123480740I0J225000D01*
G01*
X119112520Y-123030740D01*
G75*
G02*
X119337520Y-122805740I225000J0D01*
G01*
X119837520Y-122805740D01*
G75*
G02*
X120062520Y-123030740I0J-225000D01*
G01*
X120062520Y-123480740D01*
G75*
G02*
X119837520Y-123705740I-225000J0D01*
G01*
G37*
G36*
G01*
X119837520Y-125255740D02*
X119337520Y-125255740D01*
G75*
G02*
X119112520Y-125030740I0J225000D01*
G01*
X119112520Y-124580740D01*
G75*
G02*
X119337520Y-124355740I225000J0D01*
G01*
X119837520Y-124355740D01*
G75*
G02*
X120062520Y-124580740I0J-225000D01*
G01*
X120062520Y-125030740D01*
G75*
G02*
X119837520Y-125255740I-225000J0D01*
G01*
G37*
G36*
G01*
X114442120Y-123528900D02*
X114442120Y-123028900D01*
G75*
G02*
X114667120Y-122803900I225000J0D01*
G01*
X115117120Y-122803900D01*
G75*
G02*
X115342120Y-123028900I0J-225000D01*
G01*
X115342120Y-123528900D01*
G75*
G02*
X115117120Y-123753900I-225000J0D01*
G01*
X114667120Y-123753900D01*
G75*
G02*
X114442120Y-123528900I0J225000D01*
G01*
G37*
G36*
G01*
X112892120Y-123528900D02*
X112892120Y-123028900D01*
G75*
G02*
X113117120Y-122803900I225000J0D01*
G01*
X113567120Y-122803900D01*
G75*
G02*
X113792120Y-123028900I0J-225000D01*
G01*
X113792120Y-123528900D01*
G75*
G02*
X113567120Y-123753900I-225000J0D01*
G01*
X113117120Y-123753900D01*
G75*
G02*
X112892120Y-123528900I0J225000D01*
G01*
G37*
G36*
G01*
X111982820Y-123705740D02*
X111482820Y-123705740D01*
G75*
G02*
X111257820Y-123480740I0J225000D01*
G01*
X111257820Y-123030740D01*
G75*
G02*
X111482820Y-122805740I225000J0D01*
G01*
X111982820Y-122805740D01*
G75*
G02*
X112207820Y-123030740I0J-225000D01*
G01*
X112207820Y-123480740D01*
G75*
G02*
X111982820Y-123705740I-225000J0D01*
G01*
G37*
G36*
G01*
X111982820Y-125255740D02*
X111482820Y-125255740D01*
G75*
G02*
X111257820Y-125030740I0J225000D01*
G01*
X111257820Y-124580740D01*
G75*
G02*
X111482820Y-124355740I225000J0D01*
G01*
X111982820Y-124355740D01*
G75*
G02*
X112207820Y-124580740I0J-225000D01*
G01*
X112207820Y-125030740D01*
G75*
G02*
X111982820Y-125255740I-225000J0D01*
G01*
G37*
G36*
G01*
X132331580Y-134781480D02*
X132331580Y-135281480D01*
G75*
G02*
X132106580Y-135506480I-225000J0D01*
G01*
X131656580Y-135506480D01*
G75*
G02*
X131431580Y-135281480I0J225000D01*
G01*
X131431580Y-134781480D01*
G75*
G02*
X131656580Y-134556480I225000J0D01*
G01*
X132106580Y-134556480D01*
G75*
G02*
X132331580Y-134781480I0J-225000D01*
G01*
G37*
G36*
G01*
X133881580Y-134781480D02*
X133881580Y-135281480D01*
G75*
G02*
X133656580Y-135506480I-225000J0D01*
G01*
X133206580Y-135506480D01*
G75*
G02*
X132981580Y-135281480I0J225000D01*
G01*
X132981580Y-134781480D01*
G75*
G02*
X133206580Y-134556480I225000J0D01*
G01*
X133656580Y-134556480D01*
G75*
G02*
X133881580Y-134781480I0J-225000D01*
G01*
G37*
G36*
G01*
X108832840Y-126524480D02*
X109332840Y-126524480D01*
G75*
G02*
X109557840Y-126749480I0J-225000D01*
G01*
X109557840Y-127199480D01*
G75*
G02*
X109332840Y-127424480I-225000J0D01*
G01*
X108832840Y-127424480D01*
G75*
G02*
X108607840Y-127199480I0J225000D01*
G01*
X108607840Y-126749480D01*
G75*
G02*
X108832840Y-126524480I225000J0D01*
G01*
G37*
G36*
G01*
X108832840Y-124974480D02*
X109332840Y-124974480D01*
G75*
G02*
X109557840Y-125199480I0J-225000D01*
G01*
X109557840Y-125649480D01*
G75*
G02*
X109332840Y-125874480I-225000J0D01*
G01*
X108832840Y-125874480D01*
G75*
G02*
X108607840Y-125649480I0J225000D01*
G01*
X108607840Y-125199480D01*
G75*
G02*
X108832840Y-124974480I225000J0D01*
G01*
G37*
G36*
G01*
X132058600Y-126524480D02*
X132558600Y-126524480D01*
G75*
G02*
X132783600Y-126749480I0J-225000D01*
G01*
X132783600Y-127199480D01*
G75*
G02*
X132558600Y-127424480I-225000J0D01*
G01*
X132058600Y-127424480D01*
G75*
G02*
X131833600Y-127199480I0J225000D01*
G01*
X131833600Y-126749480D01*
G75*
G02*
X132058600Y-126524480I225000J0D01*
G01*
G37*
G36*
G01*
X132058600Y-124974480D02*
X132558600Y-124974480D01*
G75*
G02*
X132783600Y-125199480I0J-225000D01*
G01*
X132783600Y-125649480D01*
G75*
G02*
X132558600Y-125874480I-225000J0D01*
G01*
X132058600Y-125874480D01*
G75*
G02*
X131833600Y-125649480I0J225000D01*
G01*
X131833600Y-125199480D01*
G75*
G02*
X132058600Y-124974480I225000J0D01*
G01*
G37*
G36*
G01*
X121868120Y-126524480D02*
X122368120Y-126524480D01*
G75*
G02*
X122593120Y-126749480I0J-225000D01*
G01*
X122593120Y-127199480D01*
G75*
G02*
X122368120Y-127424480I-225000J0D01*
G01*
X121868120Y-127424480D01*
G75*
G02*
X121643120Y-127199480I0J225000D01*
G01*
X121643120Y-126749480D01*
G75*
G02*
X121868120Y-126524480I225000J0D01*
G01*
G37*
G36*
G01*
X121868120Y-124974480D02*
X122368120Y-124974480D01*
G75*
G02*
X122593120Y-125199480I0J-225000D01*
G01*
X122593120Y-125649480D01*
G75*
G02*
X122368120Y-125874480I-225000J0D01*
G01*
X121868120Y-125874480D01*
G75*
G02*
X121643120Y-125649480I0J225000D01*
G01*
X121643120Y-125199480D01*
G75*
G02*
X121868120Y-124974480I225000J0D01*
G01*
G37*
G36*
G01*
X145540920Y-126524480D02*
X146040920Y-126524480D01*
G75*
G02*
X146265920Y-126749480I0J-225000D01*
G01*
X146265920Y-127199480D01*
G75*
G02*
X146040920Y-127424480I-225000J0D01*
G01*
X145540920Y-127424480D01*
G75*
G02*
X145315920Y-127199480I0J225000D01*
G01*
X145315920Y-126749480D01*
G75*
G02*
X145540920Y-126524480I225000J0D01*
G01*
G37*
G36*
G01*
X145540920Y-124974480D02*
X146040920Y-124974480D01*
G75*
G02*
X146265920Y-125199480I0J-225000D01*
G01*
X146265920Y-125649480D01*
G75*
G02*
X146040920Y-125874480I-225000J0D01*
G01*
X145540920Y-125874480D01*
G75*
G02*
X145315920Y-125649480I0J225000D01*
G01*
X145315920Y-125199480D01*
G75*
G02*
X145540920Y-124974480I225000J0D01*
G01*
G37*
G36*
G01*
X109090580Y-134715440D02*
X109090580Y-135215440D01*
G75*
G02*
X108865580Y-135440440I-225000J0D01*
G01*
X108415580Y-135440440D01*
G75*
G02*
X108190580Y-135215440I0J225000D01*
G01*
X108190580Y-134715440D01*
G75*
G02*
X108415580Y-134490440I225000J0D01*
G01*
X108865580Y-134490440D01*
G75*
G02*
X109090580Y-134715440I0J-225000D01*
G01*
G37*
G36*
G01*
X110640580Y-134715440D02*
X110640580Y-135215440D01*
G75*
G02*
X110415580Y-135440440I-225000J0D01*
G01*
X109965580Y-135440440D01*
G75*
G02*
X109740580Y-135215440I0J225000D01*
G01*
X109740580Y-134715440D01*
G75*
G02*
X109965580Y-134490440I225000J0D01*
G01*
X110415580Y-134490440D01*
G75*
G02*
X110640580Y-134715440I0J-225000D01*
G01*
G37*
G36*
G01*
X144353160Y-199883840D02*
X144353160Y-199383840D01*
G75*
G02*
X144578160Y-199158840I225000J0D01*
G01*
X145028160Y-199158840D01*
G75*
G02*
X145253160Y-199383840I0J-225000D01*
G01*
X145253160Y-199883840D01*
G75*
G02*
X145028160Y-200108840I-225000J0D01*
G01*
X144578160Y-200108840D01*
G75*
G02*
X144353160Y-199883840I0J225000D01*
G01*
G37*
G36*
G01*
X142803160Y-199883840D02*
X142803160Y-199383840D01*
G75*
G02*
X143028160Y-199158840I225000J0D01*
G01*
X143478160Y-199158840D01*
G75*
G02*
X143703160Y-199383840I0J-225000D01*
G01*
X143703160Y-199883840D01*
G75*
G02*
X143478160Y-200108840I-225000J0D01*
G01*
X143028160Y-200108840D01*
G75*
G02*
X142803160Y-199883840I0J225000D01*
G01*
G37*
G36*
G01*
X126513780Y-161509660D02*
X127013780Y-161509660D01*
G75*
G02*
X127238780Y-161734660I0J-225000D01*
G01*
X127238780Y-162184660D01*
G75*
G02*
X127013780Y-162409660I-225000J0D01*
G01*
X126513780Y-162409660D01*
G75*
G02*
X126288780Y-162184660I0J225000D01*
G01*
X126288780Y-161734660D01*
G75*
G02*
X126513780Y-161509660I225000J0D01*
G01*
G37*
G36*
G01*
X126513780Y-159959660D02*
X127013780Y-159959660D01*
G75*
G02*
X127238780Y-160184660I0J-225000D01*
G01*
X127238780Y-160634660D01*
G75*
G02*
X127013780Y-160859660I-225000J0D01*
G01*
X126513780Y-160859660D01*
G75*
G02*
X126288780Y-160634660I0J225000D01*
G01*
X126288780Y-160184660D01*
G75*
G02*
X126513780Y-159959660I225000J0D01*
G01*
G37*
G36*
G01*
X115505420Y-161509660D02*
X116005420Y-161509660D01*
G75*
G02*
X116230420Y-161734660I0J-225000D01*
G01*
X116230420Y-162184660D01*
G75*
G02*
X116005420Y-162409660I-225000J0D01*
G01*
X115505420Y-162409660D01*
G75*
G02*
X115280420Y-162184660I0J225000D01*
G01*
X115280420Y-161734660D01*
G75*
G02*
X115505420Y-161509660I225000J0D01*
G01*
G37*
G36*
G01*
X115505420Y-159959660D02*
X116005420Y-159959660D01*
G75*
G02*
X116230420Y-160184660I0J-225000D01*
G01*
X116230420Y-160634660D01*
G75*
G02*
X116005420Y-160859660I-225000J0D01*
G01*
X115505420Y-160859660D01*
G75*
G02*
X115280420Y-160634660I0J225000D01*
G01*
X115280420Y-160184660D01*
G75*
G02*
X115505420Y-159959660I225000J0D01*
G01*
G37*
G36*
G01*
X114412840Y-167777280D02*
X113912840Y-167777280D01*
G75*
G02*
X113687840Y-167552280I0J225000D01*
G01*
X113687840Y-167102280D01*
G75*
G02*
X113912840Y-166877280I225000J0D01*
G01*
X114412840Y-166877280D01*
G75*
G02*
X114637840Y-167102280I0J-225000D01*
G01*
X114637840Y-167552280D01*
G75*
G02*
X114412840Y-167777280I-225000J0D01*
G01*
G37*
G36*
G01*
X114412840Y-169327280D02*
X113912840Y-169327280D01*
G75*
G02*
X113687840Y-169102280I0J225000D01*
G01*
X113687840Y-168652280D01*
G75*
G02*
X113912840Y-168427280I225000J0D01*
G01*
X114412840Y-168427280D01*
G75*
G02*
X114637840Y-168652280I0J-225000D01*
G01*
X114637840Y-169102280D01*
G75*
G02*
X114412840Y-169327280I-225000J0D01*
G01*
G37*
G36*
G01*
X128776540Y-167777280D02*
X128276540Y-167777280D01*
G75*
G02*
X128051540Y-167552280I0J225000D01*
G01*
X128051540Y-167102280D01*
G75*
G02*
X128276540Y-166877280I225000J0D01*
G01*
X128776540Y-166877280D01*
G75*
G02*
X129001540Y-167102280I0J-225000D01*
G01*
X129001540Y-167552280D01*
G75*
G02*
X128776540Y-167777280I-225000J0D01*
G01*
G37*
G36*
G01*
X128776540Y-169327280D02*
X128276540Y-169327280D01*
G75*
G02*
X128051540Y-169102280I0J225000D01*
G01*
X128051540Y-168652280D01*
G75*
G02*
X128276540Y-168427280I225000J0D01*
G01*
X128776540Y-168427280D01*
G75*
G02*
X129001540Y-168652280I0J-225000D01*
G01*
X129001540Y-169102280D01*
G75*
G02*
X128776540Y-169327280I-225000J0D01*
G01*
G37*
G36*
G01*
X125565020Y-156633100D02*
X125565020Y-157133100D01*
G75*
G02*
X125340020Y-157358100I-225000J0D01*
G01*
X124890020Y-157358100D01*
G75*
G02*
X124665020Y-157133100I0J225000D01*
G01*
X124665020Y-156633100D01*
G75*
G02*
X124890020Y-156408100I225000J0D01*
G01*
X125340020Y-156408100D01*
G75*
G02*
X125565020Y-156633100I0J-225000D01*
G01*
G37*
G36*
G01*
X127115020Y-156633100D02*
X127115020Y-157133100D01*
G75*
G02*
X126890020Y-157358100I-225000J0D01*
G01*
X126440020Y-157358100D01*
G75*
G02*
X126215020Y-157133100I0J225000D01*
G01*
X126215020Y-156633100D01*
G75*
G02*
X126440020Y-156408100I225000J0D01*
G01*
X126890020Y-156408100D01*
G75*
G02*
X127115020Y-156633100I0J-225000D01*
G01*
G37*
G36*
G01*
X116715420Y-155596400D02*
X116715420Y-155096400D01*
G75*
G02*
X116940420Y-154871400I225000J0D01*
G01*
X117390420Y-154871400D01*
G75*
G02*
X117615420Y-155096400I0J-225000D01*
G01*
X117615420Y-155596400D01*
G75*
G02*
X117390420Y-155821400I-225000J0D01*
G01*
X116940420Y-155821400D01*
G75*
G02*
X116715420Y-155596400I0J225000D01*
G01*
G37*
G36*
G01*
X115165420Y-155596400D02*
X115165420Y-155096400D01*
G75*
G02*
X115390420Y-154871400I225000J0D01*
G01*
X115840420Y-154871400D01*
G75*
G02*
X116065420Y-155096400I0J-225000D01*
G01*
X116065420Y-155596400D01*
G75*
G02*
X115840420Y-155821400I-225000J0D01*
G01*
X115390420Y-155821400D01*
G75*
G02*
X115165420Y-155596400I0J225000D01*
G01*
G37*
G36*
G01*
X109961800Y-151677560D02*
X109961800Y-152177560D01*
G75*
G02*
X109736800Y-152402560I-225000J0D01*
G01*
X109286800Y-152402560D01*
G75*
G02*
X109061800Y-152177560I0J225000D01*
G01*
X109061800Y-151677560D01*
G75*
G02*
X109286800Y-151452560I225000J0D01*
G01*
X109736800Y-151452560D01*
G75*
G02*
X109961800Y-151677560I0J-225000D01*
G01*
G37*
G36*
G01*
X111511800Y-151677560D02*
X111511800Y-152177560D01*
G75*
G02*
X111286800Y-152402560I-225000J0D01*
G01*
X110836800Y-152402560D01*
G75*
G02*
X110611800Y-152177560I0J225000D01*
G01*
X110611800Y-151677560D01*
G75*
G02*
X110836800Y-151452560I225000J0D01*
G01*
X111286800Y-151452560D01*
G75*
G02*
X111511800Y-151677560I0J-225000D01*
G01*
G37*
G36*
G01*
X109946560Y-150036720D02*
X109946560Y-150536720D01*
G75*
G02*
X109721560Y-150761720I-225000J0D01*
G01*
X109271560Y-150761720D01*
G75*
G02*
X109046560Y-150536720I0J225000D01*
G01*
X109046560Y-150036720D01*
G75*
G02*
X109271560Y-149811720I225000J0D01*
G01*
X109721560Y-149811720D01*
G75*
G02*
X109946560Y-150036720I0J-225000D01*
G01*
G37*
G36*
G01*
X111496560Y-150036720D02*
X111496560Y-150536720D01*
G75*
G02*
X111271560Y-150761720I-225000J0D01*
G01*
X110821560Y-150761720D01*
G75*
G02*
X110596560Y-150536720I0J225000D01*
G01*
X110596560Y-150036720D01*
G75*
G02*
X110821560Y-149811720I225000J0D01*
G01*
X111271560Y-149811720D01*
G75*
G02*
X111496560Y-150036720I0J-225000D01*
G01*
G37*
G36*
G01*
X125590420Y-155083700D02*
X125590420Y-155583700D01*
G75*
G02*
X125365420Y-155808700I-225000J0D01*
G01*
X124915420Y-155808700D01*
G75*
G02*
X124690420Y-155583700I0J225000D01*
G01*
X124690420Y-155083700D01*
G75*
G02*
X124915420Y-154858700I225000J0D01*
G01*
X125365420Y-154858700D01*
G75*
G02*
X125590420Y-155083700I0J-225000D01*
G01*
G37*
G36*
G01*
X127140420Y-155083700D02*
X127140420Y-155583700D01*
G75*
G02*
X126915420Y-155808700I-225000J0D01*
G01*
X126465420Y-155808700D01*
G75*
G02*
X126240420Y-155583700I0J225000D01*
G01*
X126240420Y-155083700D01*
G75*
G02*
X126465420Y-154858700I225000J0D01*
G01*
X126915420Y-154858700D01*
G75*
G02*
X127140420Y-155083700I0J-225000D01*
G01*
G37*
G36*
G01*
X116702720Y-157120400D02*
X116702720Y-156620400D01*
G75*
G02*
X116927720Y-156395400I225000J0D01*
G01*
X117377720Y-156395400D01*
G75*
G02*
X117602720Y-156620400I0J-225000D01*
G01*
X117602720Y-157120400D01*
G75*
G02*
X117377720Y-157345400I-225000J0D01*
G01*
X116927720Y-157345400D01*
G75*
G02*
X116702720Y-157120400I0J225000D01*
G01*
G37*
G36*
G01*
X115152720Y-157120400D02*
X115152720Y-156620400D01*
G75*
G02*
X115377720Y-156395400I225000J0D01*
G01*
X115827720Y-156395400D01*
G75*
G02*
X116052720Y-156620400I0J-225000D01*
G01*
X116052720Y-157120400D01*
G75*
G02*
X115827720Y-157345400I-225000J0D01*
G01*
X115377720Y-157345400D01*
G75*
G02*
X115152720Y-157120400I0J225000D01*
G01*
G37*
G36*
G01*
X119874220Y-156369900D02*
X120374220Y-156369900D01*
G75*
G02*
X120599220Y-156594900I0J-225000D01*
G01*
X120599220Y-157044900D01*
G75*
G02*
X120374220Y-157269900I-225000J0D01*
G01*
X119874220Y-157269900D01*
G75*
G02*
X119649220Y-157044900I0J225000D01*
G01*
X119649220Y-156594900D01*
G75*
G02*
X119874220Y-156369900I225000J0D01*
G01*
G37*
G36*
G01*
X119874220Y-154819900D02*
X120374220Y-154819900D01*
G75*
G02*
X120599220Y-155044900I0J-225000D01*
G01*
X120599220Y-155494900D01*
G75*
G02*
X120374220Y-155719900I-225000J0D01*
G01*
X119874220Y-155719900D01*
G75*
G02*
X119649220Y-155494900I0J225000D01*
G01*
X119649220Y-155044900D01*
G75*
G02*
X119874220Y-154819900I225000J0D01*
G01*
G37*
G36*
G01*
X121398220Y-156369900D02*
X121898220Y-156369900D01*
G75*
G02*
X122123220Y-156594900I0J-225000D01*
G01*
X122123220Y-157044900D01*
G75*
G02*
X121898220Y-157269900I-225000J0D01*
G01*
X121398220Y-157269900D01*
G75*
G02*
X121173220Y-157044900I0J225000D01*
G01*
X121173220Y-156594900D01*
G75*
G02*
X121398220Y-156369900I225000J0D01*
G01*
G37*
G36*
G01*
X121398220Y-154819900D02*
X121898220Y-154819900D01*
G75*
G02*
X122123220Y-155044900I0J-225000D01*
G01*
X122123220Y-155494900D01*
G75*
G02*
X121898220Y-155719900I-225000J0D01*
G01*
X121398220Y-155719900D01*
G75*
G02*
X121173220Y-155494900I0J225000D01*
G01*
X121173220Y-155044900D01*
G75*
G02*
X121398220Y-154819900I225000J0D01*
G01*
G37*
G36*
G01*
X153953400Y-167307140D02*
X154453400Y-167307140D01*
G75*
G02*
X154678400Y-167532140I0J-225000D01*
G01*
X154678400Y-167982140D01*
G75*
G02*
X154453400Y-168207140I-225000J0D01*
G01*
X153953400Y-168207140D01*
G75*
G02*
X153728400Y-167982140I0J225000D01*
G01*
X153728400Y-167532140D01*
G75*
G02*
X153953400Y-167307140I225000J0D01*
G01*
G37*
G36*
G01*
X153953400Y-165757140D02*
X154453400Y-165757140D01*
G75*
G02*
X154678400Y-165982140I0J-225000D01*
G01*
X154678400Y-166432140D01*
G75*
G02*
X154453400Y-166657140I-225000J0D01*
G01*
X153953400Y-166657140D01*
G75*
G02*
X153728400Y-166432140I0J225000D01*
G01*
X153728400Y-165982140D01*
G75*
G02*
X153953400Y-165757140I225000J0D01*
G01*
G37*
G36*
G01*
X143064420Y-164193100D02*
X143564420Y-164193100D01*
G75*
G02*
X143789420Y-164418100I0J-225000D01*
G01*
X143789420Y-164868100D01*
G75*
G02*
X143564420Y-165093100I-225000J0D01*
G01*
X143064420Y-165093100D01*
G75*
G02*
X142839420Y-164868100I0J225000D01*
G01*
X142839420Y-164418100D01*
G75*
G02*
X143064420Y-164193100I225000J0D01*
G01*
G37*
G36*
G01*
X143064420Y-162643100D02*
X143564420Y-162643100D01*
G75*
G02*
X143789420Y-162868100I0J-225000D01*
G01*
X143789420Y-163318100D01*
G75*
G02*
X143564420Y-163543100I-225000J0D01*
G01*
X143064420Y-163543100D01*
G75*
G02*
X142839420Y-163318100I0J225000D01*
G01*
X142839420Y-162868100D01*
G75*
G02*
X143064420Y-162643100I225000J0D01*
G01*
G37*
G36*
G01*
X152299860Y-164188020D02*
X152799860Y-164188020D01*
G75*
G02*
X153024860Y-164413020I0J-225000D01*
G01*
X153024860Y-164863020D01*
G75*
G02*
X152799860Y-165088020I-225000J0D01*
G01*
X152299860Y-165088020D01*
G75*
G02*
X152074860Y-164863020I0J225000D01*
G01*
X152074860Y-164413020D01*
G75*
G02*
X152299860Y-164188020I225000J0D01*
G01*
G37*
G36*
G01*
X152299860Y-162638020D02*
X152799860Y-162638020D01*
G75*
G02*
X153024860Y-162863020I0J-225000D01*
G01*
X153024860Y-163313020D01*
G75*
G02*
X152799860Y-163538020I-225000J0D01*
G01*
X152299860Y-163538020D01*
G75*
G02*
X152074860Y-163313020I0J225000D01*
G01*
X152074860Y-162863020D01*
G75*
G02*
X152299860Y-162638020I225000J0D01*
G01*
G37*
G36*
G01*
X144107980Y-146080600D02*
X143607980Y-146080600D01*
G75*
G02*
X143382980Y-145855600I0J225000D01*
G01*
X143382980Y-145405600D01*
G75*
G02*
X143607980Y-145180600I225000J0D01*
G01*
X144107980Y-145180600D01*
G75*
G02*
X144332980Y-145405600I0J-225000D01*
G01*
X144332980Y-145855600D01*
G75*
G02*
X144107980Y-146080600I-225000J0D01*
G01*
G37*
G36*
G01*
X144107980Y-147630600D02*
X143607980Y-147630600D01*
G75*
G02*
X143382980Y-147405600I0J225000D01*
G01*
X143382980Y-146955600D01*
G75*
G02*
X143607980Y-146730600I225000J0D01*
G01*
X144107980Y-146730600D01*
G75*
G02*
X144332980Y-146955600I0J-225000D01*
G01*
X144332980Y-147405600D01*
G75*
G02*
X144107980Y-147630600I-225000J0D01*
G01*
G37*
G36*
G01*
X139410560Y-158809880D02*
X139410560Y-159309880D01*
G75*
G02*
X139185560Y-159534880I-225000J0D01*
G01*
X138735560Y-159534880D01*
G75*
G02*
X138510560Y-159309880I0J225000D01*
G01*
X138510560Y-158809880D01*
G75*
G02*
X138735560Y-158584880I225000J0D01*
G01*
X139185560Y-158584880D01*
G75*
G02*
X139410560Y-158809880I0J-225000D01*
G01*
G37*
G36*
G01*
X140960560Y-158809880D02*
X140960560Y-159309880D01*
G75*
G02*
X140735560Y-159534880I-225000J0D01*
G01*
X140285560Y-159534880D01*
G75*
G02*
X140060560Y-159309880I0J225000D01*
G01*
X140060560Y-158809880D01*
G75*
G02*
X140285560Y-158584880I225000J0D01*
G01*
X140735560Y-158584880D01*
G75*
G02*
X140960560Y-158809880I0J-225000D01*
G01*
G37*
G36*
G01*
X158747340Y-156674120D02*
X158747340Y-156174120D01*
G75*
G02*
X158972340Y-155949120I225000J0D01*
G01*
X159422340Y-155949120D01*
G75*
G02*
X159647340Y-156174120I0J-225000D01*
G01*
X159647340Y-156674120D01*
G75*
G02*
X159422340Y-156899120I-225000J0D01*
G01*
X158972340Y-156899120D01*
G75*
G02*
X158747340Y-156674120I0J225000D01*
G01*
G37*
G36*
G01*
X157197340Y-156674120D02*
X157197340Y-156174120D01*
G75*
G02*
X157422340Y-155949120I225000J0D01*
G01*
X157872340Y-155949120D01*
G75*
G02*
X158097340Y-156174120I0J-225000D01*
G01*
X158097340Y-156674120D01*
G75*
G02*
X157872340Y-156899120I-225000J0D01*
G01*
X157422340Y-156899120D01*
G75*
G02*
X157197340Y-156674120I0J225000D01*
G01*
G37*
G36*
G01*
X158808300Y-150531640D02*
X158808300Y-150031640D01*
G75*
G02*
X159033300Y-149806640I225000J0D01*
G01*
X159483300Y-149806640D01*
G75*
G02*
X159708300Y-150031640I0J-225000D01*
G01*
X159708300Y-150531640D01*
G75*
G02*
X159483300Y-150756640I-225000J0D01*
G01*
X159033300Y-150756640D01*
G75*
G02*
X158808300Y-150531640I0J225000D01*
G01*
G37*
G36*
G01*
X157258300Y-150531640D02*
X157258300Y-150031640D01*
G75*
G02*
X157483300Y-149806640I225000J0D01*
G01*
X157933300Y-149806640D01*
G75*
G02*
X158158300Y-150031640I0J-225000D01*
G01*
X158158300Y-150531640D01*
G75*
G02*
X157933300Y-150756640I-225000J0D01*
G01*
X157483300Y-150756640D01*
G75*
G02*
X157258300Y-150531640I0J225000D01*
G01*
G37*
G36*
G01*
X128312999Y-126279480D02*
X130513001Y-126279480D01*
G75*
G02*
X130763000Y-126529479I0J-249999D01*
G01*
X130763000Y-127179481D01*
G75*
G02*
X130513001Y-127429480I-249999J0D01*
G01*
X128312999Y-127429480D01*
G75*
G02*
X128063000Y-127179481I0J249999D01*
G01*
X128063000Y-126529479D01*
G75*
G02*
X128312999Y-126279480I249999J0D01*
G01*
G37*
G36*
G01*
X128312999Y-123329480D02*
X130513001Y-123329480D01*
G75*
G02*
X130763000Y-123579479I0J-249999D01*
G01*
X130763000Y-124229481D01*
G75*
G02*
X130513001Y-124479480I-249999J0D01*
G01*
X128312999Y-124479480D01*
G75*
G02*
X128063000Y-124229481I0J249999D01*
G01*
X128063000Y-123579479D01*
G75*
G02*
X128312999Y-123329480I249999J0D01*
G01*
G37*
G36*
G01*
X105148199Y-126554481D02*
X107348201Y-126554481D01*
G75*
G02*
X107598200Y-126804480I0J-249999D01*
G01*
X107598200Y-127454482D01*
G75*
G02*
X107348201Y-127704481I-249999J0D01*
G01*
X105148199Y-127704481D01*
G75*
G02*
X104898200Y-127454482I0J249999D01*
G01*
X104898200Y-126804480D01*
G75*
G02*
X105148199Y-126554481I249999J0D01*
G01*
G37*
G36*
G01*
X105148199Y-123604481D02*
X107348201Y-123604481D01*
G75*
G02*
X107598200Y-123854480I0J-249999D01*
G01*
X107598200Y-124504482D01*
G75*
G02*
X107348201Y-124754481I-249999J0D01*
G01*
X105148199Y-124754481D01*
G75*
G02*
X104898200Y-124504482I0J249999D01*
G01*
X104898200Y-123854480D01*
G75*
G02*
X105148199Y-123604481I249999J0D01*
G01*
G37*
G36*
G01*
X123867999Y-126279480D02*
X126068001Y-126279480D01*
G75*
G02*
X126318000Y-126529479I0J-249999D01*
G01*
X126318000Y-127179481D01*
G75*
G02*
X126068001Y-127429480I-249999J0D01*
G01*
X123867999Y-127429480D01*
G75*
G02*
X123618000Y-127179481I0J249999D01*
G01*
X123618000Y-126529479D01*
G75*
G02*
X123867999Y-126279480I249999J0D01*
G01*
G37*
G36*
G01*
X123867999Y-123329480D02*
X126068001Y-123329480D01*
G75*
G02*
X126318000Y-123579479I0J-249999D01*
G01*
X126318000Y-124229481D01*
G75*
G02*
X126068001Y-124479480I-249999J0D01*
G01*
X123867999Y-124479480D01*
G75*
G02*
X123618000Y-124229481I0J249999D01*
G01*
X123618000Y-123579479D01*
G75*
G02*
X123867999Y-123329480I249999J0D01*
G01*
G37*
G36*
G01*
X147662719Y-126279480D02*
X149862721Y-126279480D01*
G75*
G02*
X150112720Y-126529479I0J-249999D01*
G01*
X150112720Y-127179481D01*
G75*
G02*
X149862721Y-127429480I-249999J0D01*
G01*
X147662719Y-127429480D01*
G75*
G02*
X147412720Y-127179481I0J249999D01*
G01*
X147412720Y-126529479D01*
G75*
G02*
X147662719Y-126279480I249999J0D01*
G01*
G37*
G36*
G01*
X147662719Y-123329480D02*
X149862721Y-123329480D01*
G75*
G02*
X150112720Y-123579479I0J-249999D01*
G01*
X150112720Y-124229481D01*
G75*
G02*
X149862721Y-124479480I-249999J0D01*
G01*
X147662719Y-124479480D01*
G75*
G02*
X147412720Y-124229481I0J249999D01*
G01*
X147412720Y-123579479D01*
G75*
G02*
X147662719Y-123329480I249999J0D01*
G01*
G37*
D11*
X116586000Y-177167540D03*
X116586000Y-178437540D03*
X116586000Y-179707540D03*
X116586000Y-180977540D03*
X116586000Y-182247540D03*
X116586000Y-183517540D03*
X116586000Y-184787540D03*
X116586000Y-186057540D03*
X116586000Y-187327540D03*
X116586000Y-188597540D03*
X125958600Y-188597540D03*
X125958600Y-187327540D03*
X125958600Y-186057540D03*
X125958600Y-184787540D03*
X125958600Y-183517540D03*
X125958600Y-182247540D03*
X125958600Y-180977540D03*
X125958600Y-179707540D03*
X125958600Y-178437540D03*
X125958600Y-177167540D03*
D12*
X121272300Y-182882540D03*
G36*
G01*
X167330800Y-127387800D02*
X166780800Y-127387800D01*
G75*
G02*
X166580800Y-127187800I0J200000D01*
G01*
X166580800Y-126787800D01*
G75*
G02*
X166780800Y-126587800I200000J0D01*
G01*
X167330800Y-126587800D01*
G75*
G02*
X167530800Y-126787800I0J-200000D01*
G01*
X167530800Y-127187800D01*
G75*
G02*
X167330800Y-127387800I-200000J0D01*
G01*
G37*
G36*
G01*
X167330800Y-129037800D02*
X166780800Y-129037800D01*
G75*
G02*
X166580800Y-128837800I0J200000D01*
G01*
X166580800Y-128437800D01*
G75*
G02*
X166780800Y-128237800I200000J0D01*
G01*
X167330800Y-128237800D01*
G75*
G02*
X167530800Y-128437800I0J-200000D01*
G01*
X167530800Y-128837800D01*
G75*
G02*
X167330800Y-129037800I-200000J0D01*
G01*
G37*
D13*
X163815160Y-125514640D03*
X163815160Y-120914640D03*
X163815160Y-123214640D03*
D14*
X157515160Y-123214640D03*
G36*
G01*
X158415160Y-128910100D02*
X158415160Y-127960100D01*
G75*
G02*
X158665160Y-127710100I250000J0D01*
G01*
X159165160Y-127710100D01*
G75*
G02*
X159415160Y-127960100I0J-250000D01*
G01*
X159415160Y-128910100D01*
G75*
G02*
X159165160Y-129160100I-250000J0D01*
G01*
X158665160Y-129160100D01*
G75*
G02*
X158415160Y-128910100I0J250000D01*
G01*
G37*
G36*
G01*
X156515160Y-128910100D02*
X156515160Y-127960100D01*
G75*
G02*
X156765160Y-127710100I250000J0D01*
G01*
X157265160Y-127710100D01*
G75*
G02*
X157515160Y-127960100I0J-250000D01*
G01*
X157515160Y-128910100D01*
G75*
G02*
X157265160Y-129160100I-250000J0D01*
G01*
X156765160Y-129160100D01*
G75*
G02*
X156515160Y-128910100I0J250000D01*
G01*
G37*
G36*
G01*
X143034340Y-167501120D02*
X143584340Y-167501120D01*
G75*
G02*
X143784340Y-167701120I0J-200000D01*
G01*
X143784340Y-168101120D01*
G75*
G02*
X143584340Y-168301120I-200000J0D01*
G01*
X143034340Y-168301120D01*
G75*
G02*
X142834340Y-168101120I0J200000D01*
G01*
X142834340Y-167701120D01*
G75*
G02*
X143034340Y-167501120I200000J0D01*
G01*
G37*
G36*
G01*
X143034340Y-165851120D02*
X143584340Y-165851120D01*
G75*
G02*
X143784340Y-166051120I0J-200000D01*
G01*
X143784340Y-166451120D01*
G75*
G02*
X143584340Y-166651120I-200000J0D01*
G01*
X143034340Y-166651120D01*
G75*
G02*
X142834340Y-166451120I0J200000D01*
G01*
X142834340Y-166051120D01*
G75*
G02*
X143034340Y-165851120I200000J0D01*
G01*
G37*
G36*
G01*
X150585760Y-199207680D02*
X151135760Y-199207680D01*
G75*
G02*
X151335760Y-199407680I0J-200000D01*
G01*
X151335760Y-199807680D01*
G75*
G02*
X151135760Y-200007680I-200000J0D01*
G01*
X150585760Y-200007680D01*
G75*
G02*
X150385760Y-199807680I0J200000D01*
G01*
X150385760Y-199407680D01*
G75*
G02*
X150585760Y-199207680I200000J0D01*
G01*
G37*
G36*
G01*
X150585760Y-197557680D02*
X151135760Y-197557680D01*
G75*
G02*
X151335760Y-197757680I0J-200000D01*
G01*
X151335760Y-198157680D01*
G75*
G02*
X151135760Y-198357680I-200000J0D01*
G01*
X150585760Y-198357680D01*
G75*
G02*
X150385760Y-198157680I0J200000D01*
G01*
X150385760Y-197757680D01*
G75*
G02*
X150585760Y-197557680I200000J0D01*
G01*
G37*
G36*
G01*
X113807920Y-145650400D02*
X113257920Y-145650400D01*
G75*
G02*
X113057920Y-145450400I0J200000D01*
G01*
X113057920Y-145050400D01*
G75*
G02*
X113257920Y-144850400I200000J0D01*
G01*
X113807920Y-144850400D01*
G75*
G02*
X114007920Y-145050400I0J-200000D01*
G01*
X114007920Y-145450400D01*
G75*
G02*
X113807920Y-145650400I-200000J0D01*
G01*
G37*
G36*
G01*
X113807920Y-147300400D02*
X113257920Y-147300400D01*
G75*
G02*
X113057920Y-147100400I0J200000D01*
G01*
X113057920Y-146700400D01*
G75*
G02*
X113257920Y-146500400I200000J0D01*
G01*
X113807920Y-146500400D01*
G75*
G02*
X114007920Y-146700400I0J-200000D01*
G01*
X114007920Y-147100400D01*
G75*
G02*
X113807920Y-147300400I-200000J0D01*
G01*
G37*
G36*
G01*
X142750880Y-136292140D02*
X143300880Y-136292140D01*
G75*
G02*
X143500880Y-136492140I0J-200000D01*
G01*
X143500880Y-136892140D01*
G75*
G02*
X143300880Y-137092140I-200000J0D01*
G01*
X142750880Y-137092140D01*
G75*
G02*
X142550880Y-136892140I0J200000D01*
G01*
X142550880Y-136492140D01*
G75*
G02*
X142750880Y-136292140I200000J0D01*
G01*
G37*
G36*
G01*
X142750880Y-134642140D02*
X143300880Y-134642140D01*
G75*
G02*
X143500880Y-134842140I0J-200000D01*
G01*
X143500880Y-135242140D01*
G75*
G02*
X143300880Y-135442140I-200000J0D01*
G01*
X142750880Y-135442140D01*
G75*
G02*
X142550880Y-135242140I0J200000D01*
G01*
X142550880Y-134842140D01*
G75*
G02*
X142750880Y-134642140I200000J0D01*
G01*
G37*
G36*
G01*
X109018520Y-138015300D02*
X109018520Y-138565300D01*
G75*
G02*
X108818520Y-138765300I-200000J0D01*
G01*
X108418520Y-138765300D01*
G75*
G02*
X108218520Y-138565300I0J200000D01*
G01*
X108218520Y-138015300D01*
G75*
G02*
X108418520Y-137815300I200000J0D01*
G01*
X108818520Y-137815300D01*
G75*
G02*
X109018520Y-138015300I0J-200000D01*
G01*
G37*
G36*
G01*
X110668520Y-138015300D02*
X110668520Y-138565300D01*
G75*
G02*
X110468520Y-138765300I-200000J0D01*
G01*
X110068520Y-138765300D01*
G75*
G02*
X109868520Y-138565300I0J200000D01*
G01*
X109868520Y-138015300D01*
G75*
G02*
X110068520Y-137815300I200000J0D01*
G01*
X110468520Y-137815300D01*
G75*
G02*
X110668520Y-138015300I0J-200000D01*
G01*
G37*
G36*
G01*
X109888840Y-143551320D02*
X109888840Y-143001320D01*
G75*
G02*
X110088840Y-142801320I200000J0D01*
G01*
X110488840Y-142801320D01*
G75*
G02*
X110688840Y-143001320I0J-200000D01*
G01*
X110688840Y-143551320D01*
G75*
G02*
X110488840Y-143751320I-200000J0D01*
G01*
X110088840Y-143751320D01*
G75*
G02*
X109888840Y-143551320I0J200000D01*
G01*
G37*
G36*
G01*
X108238840Y-143551320D02*
X108238840Y-143001320D01*
G75*
G02*
X108438840Y-142801320I200000J0D01*
G01*
X108838840Y-142801320D01*
G75*
G02*
X109038840Y-143001320I0J-200000D01*
G01*
X109038840Y-143551320D01*
G75*
G02*
X108838840Y-143751320I-200000J0D01*
G01*
X108438840Y-143751320D01*
G75*
G02*
X108238840Y-143551320I0J200000D01*
G01*
G37*
G36*
G01*
X109891380Y-141844440D02*
X109891380Y-141294440D01*
G75*
G02*
X110091380Y-141094440I200000J0D01*
G01*
X110491380Y-141094440D01*
G75*
G02*
X110691380Y-141294440I0J-200000D01*
G01*
X110691380Y-141844440D01*
G75*
G02*
X110491380Y-142044440I-200000J0D01*
G01*
X110091380Y-142044440D01*
G75*
G02*
X109891380Y-141844440I0J200000D01*
G01*
G37*
G36*
G01*
X108241380Y-141844440D02*
X108241380Y-141294440D01*
G75*
G02*
X108441380Y-141094440I200000J0D01*
G01*
X108841380Y-141094440D01*
G75*
G02*
X109041380Y-141294440I0J-200000D01*
G01*
X109041380Y-141844440D01*
G75*
G02*
X108841380Y-142044440I-200000J0D01*
G01*
X108441380Y-142044440D01*
G75*
G02*
X108241380Y-141844440I0J200000D01*
G01*
G37*
G36*
G01*
X153887760Y-164300720D02*
X154437760Y-164300720D01*
G75*
G02*
X154637760Y-164500720I0J-200000D01*
G01*
X154637760Y-164900720D01*
G75*
G02*
X154437760Y-165100720I-200000J0D01*
G01*
X153887760Y-165100720D01*
G75*
G02*
X153687760Y-164900720I0J200000D01*
G01*
X153687760Y-164500720D01*
G75*
G02*
X153887760Y-164300720I200000J0D01*
G01*
G37*
G36*
G01*
X153887760Y-162650720D02*
X154437760Y-162650720D01*
G75*
G02*
X154637760Y-162850720I0J-200000D01*
G01*
X154637760Y-163250720D01*
G75*
G02*
X154437760Y-163450720I-200000J0D01*
G01*
X153887760Y-163450720D01*
G75*
G02*
X153687760Y-163250720I0J200000D01*
G01*
X153687760Y-162850720D01*
G75*
G02*
X153887760Y-162650720I200000J0D01*
G01*
G37*
G36*
G01*
X155011800Y-142719240D02*
X154461800Y-142719240D01*
G75*
G02*
X154261800Y-142519240I0J200000D01*
G01*
X154261800Y-142119240D01*
G75*
G02*
X154461800Y-141919240I200000J0D01*
G01*
X155011800Y-141919240D01*
G75*
G02*
X155211800Y-142119240I0J-200000D01*
G01*
X155211800Y-142519240D01*
G75*
G02*
X155011800Y-142719240I-200000J0D01*
G01*
G37*
G36*
G01*
X155011800Y-144369240D02*
X154461800Y-144369240D01*
G75*
G02*
X154261800Y-144169240I0J200000D01*
G01*
X154261800Y-143769240D01*
G75*
G02*
X154461800Y-143569240I200000J0D01*
G01*
X155011800Y-143569240D01*
G75*
G02*
X155211800Y-143769240I0J-200000D01*
G01*
X155211800Y-144169240D01*
G75*
G02*
X155011800Y-144369240I-200000J0D01*
G01*
G37*
G36*
G01*
X141337620Y-164280400D02*
X141887620Y-164280400D01*
G75*
G02*
X142087620Y-164480400I0J-200000D01*
G01*
X142087620Y-164880400D01*
G75*
G02*
X141887620Y-165080400I-200000J0D01*
G01*
X141337620Y-165080400D01*
G75*
G02*
X141137620Y-164880400I0J200000D01*
G01*
X141137620Y-164480400D01*
G75*
G02*
X141337620Y-164280400I200000J0D01*
G01*
G37*
G36*
G01*
X141337620Y-162630400D02*
X141887620Y-162630400D01*
G75*
G02*
X142087620Y-162830400I0J-200000D01*
G01*
X142087620Y-163230400D01*
G75*
G02*
X141887620Y-163430400I-200000J0D01*
G01*
X141337620Y-163430400D01*
G75*
G02*
X141137620Y-163230400I0J200000D01*
G01*
X141137620Y-162830400D01*
G75*
G02*
X141337620Y-162630400I200000J0D01*
G01*
G37*
G36*
G01*
X134845380Y-136274360D02*
X135395380Y-136274360D01*
G75*
G02*
X135595380Y-136474360I0J-200000D01*
G01*
X135595380Y-136874360D01*
G75*
G02*
X135395380Y-137074360I-200000J0D01*
G01*
X134845380Y-137074360D01*
G75*
G02*
X134645380Y-136874360I0J200000D01*
G01*
X134645380Y-136474360D01*
G75*
G02*
X134845380Y-136274360I200000J0D01*
G01*
G37*
G36*
G01*
X134845380Y-134624360D02*
X135395380Y-134624360D01*
G75*
G02*
X135595380Y-134824360I0J-200000D01*
G01*
X135595380Y-135224360D01*
G75*
G02*
X135395380Y-135424360I-200000J0D01*
G01*
X134845380Y-135424360D01*
G75*
G02*
X134645380Y-135224360I0J200000D01*
G01*
X134645380Y-134824360D01*
G75*
G02*
X134845380Y-134624360I200000J0D01*
G01*
G37*
G36*
G01*
X111459600Y-136279440D02*
X112009600Y-136279440D01*
G75*
G02*
X112209600Y-136479440I0J-200000D01*
G01*
X112209600Y-136879440D01*
G75*
G02*
X112009600Y-137079440I-200000J0D01*
G01*
X111459600Y-137079440D01*
G75*
G02*
X111259600Y-136879440I0J200000D01*
G01*
X111259600Y-136479440D01*
G75*
G02*
X111459600Y-136279440I200000J0D01*
G01*
G37*
G36*
G01*
X111459600Y-134629440D02*
X112009600Y-134629440D01*
G75*
G02*
X112209600Y-134829440I0J-200000D01*
G01*
X112209600Y-135229440D01*
G75*
G02*
X112009600Y-135429440I-200000J0D01*
G01*
X111459600Y-135429440D01*
G75*
G02*
X111259600Y-135229440I0J200000D01*
G01*
X111259600Y-134829440D01*
G75*
G02*
X111459600Y-134629440I200000J0D01*
G01*
G37*
D15*
X142711360Y-130664320D03*
X142711360Y-128964320D03*
X140931360Y-130664320D03*
X140931360Y-128964320D03*
X139151360Y-130664320D03*
X139151360Y-128964320D03*
X137371360Y-130664320D03*
X137371360Y-128964320D03*
X135591360Y-128964320D03*
X135591360Y-130664320D03*
D16*
X134926360Y-126964320D03*
X135576360Y-126964320D03*
X136226360Y-126964320D03*
X136876360Y-126964320D03*
X137526360Y-126964320D03*
X138176360Y-126964320D03*
X138826360Y-126964320D03*
X139476360Y-126964320D03*
X140126360Y-126964320D03*
X140776360Y-126964320D03*
X141426360Y-126964320D03*
X142076360Y-126964320D03*
X142726360Y-126964320D03*
X143376360Y-126964320D03*
X143376360Y-132664320D03*
X142726360Y-132664320D03*
X142076360Y-132664320D03*
X141426360Y-132664320D03*
X140776360Y-132664320D03*
X140126360Y-132664320D03*
X139476360Y-132664320D03*
X138826360Y-132664320D03*
X138176360Y-132664320D03*
X137526360Y-132664320D03*
X136876360Y-132664320D03*
X136226360Y-132664320D03*
X135576360Y-132664320D03*
X134926360Y-132664320D03*
D15*
X119221440Y-130664320D03*
X119221440Y-128964320D03*
X117441440Y-130664320D03*
X117441440Y-128964320D03*
X115661440Y-130664320D03*
X115661440Y-128964320D03*
X113881440Y-130664320D03*
X113881440Y-128964320D03*
X112101440Y-128964320D03*
X112101440Y-130664320D03*
D16*
X111436440Y-126964320D03*
X112086440Y-126964320D03*
X112736440Y-126964320D03*
X113386440Y-126964320D03*
X114036440Y-126964320D03*
X114686440Y-126964320D03*
X115336440Y-126964320D03*
X115986440Y-126964320D03*
X116636440Y-126964320D03*
X117286440Y-126964320D03*
X117936440Y-126964320D03*
X118586440Y-126964320D03*
X119236440Y-126964320D03*
X119886440Y-126964320D03*
X119886440Y-132664320D03*
X119236440Y-132664320D03*
X118586440Y-132664320D03*
X117936440Y-132664320D03*
X117286440Y-132664320D03*
X116636440Y-132664320D03*
X115986440Y-132664320D03*
X115336440Y-132664320D03*
X114686440Y-132664320D03*
X114036440Y-132664320D03*
X113386440Y-132664320D03*
X112736440Y-132664320D03*
X112086440Y-132664320D03*
X111436440Y-132664320D03*
D17*
X141848840Y-120179280D03*
X141848840Y-114679280D03*
X123218493Y-120179280D03*
X123218493Y-114679280D03*
X130283666Y-120179280D03*
X130283666Y-114679280D03*
X111653320Y-120179280D03*
X111653320Y-114679280D03*
D18*
X155920000Y-204350000D03*
X138080000Y-204350000D03*
D19*
X154250000Y-202650000D03*
X153750000Y-202650000D03*
X153250000Y-202650000D03*
X152750000Y-202650000D03*
X152250000Y-202650000D03*
X151750000Y-202650000D03*
X151250000Y-202650000D03*
X150750000Y-202650000D03*
X150250000Y-202650000D03*
X149750000Y-202650000D03*
X149250000Y-202650000D03*
X148750000Y-202650000D03*
X148250000Y-202650000D03*
X147750000Y-202650000D03*
X147250000Y-202650000D03*
X146750000Y-202650000D03*
X146250000Y-202650000D03*
X145750000Y-202650000D03*
X145250000Y-202650000D03*
X144750000Y-202650000D03*
X144250000Y-202650000D03*
X143750000Y-202650000D03*
X143250000Y-202650000D03*
X142750000Y-202650000D03*
X142250000Y-202650000D03*
X141750000Y-202650000D03*
X141250000Y-202650000D03*
X140750000Y-202650000D03*
X140250000Y-202650000D03*
X139750000Y-202650000D03*
G36*
G01*
X154365940Y-199222520D02*
X155315940Y-199222520D01*
G75*
G02*
X155565940Y-199472520I0J-250000D01*
G01*
X155565940Y-199972520D01*
G75*
G02*
X155315940Y-200222520I-250000J0D01*
G01*
X154365940Y-200222520D01*
G75*
G02*
X154115940Y-199972520I0J250000D01*
G01*
X154115940Y-199472520D01*
G75*
G02*
X154365940Y-199222520I250000J0D01*
G01*
G37*
G36*
G01*
X154365940Y-197322520D02*
X155315940Y-197322520D01*
G75*
G02*
X155565940Y-197572520I0J-250000D01*
G01*
X155565940Y-198072520D01*
G75*
G02*
X155315940Y-198322520I-250000J0D01*
G01*
X154365940Y-198322520D01*
G75*
G02*
X154115940Y-198072520I0J250000D01*
G01*
X154115940Y-197572520D01*
G75*
G02*
X154365940Y-197322520I250000J0D01*
G01*
G37*
G36*
G01*
X152245040Y-199209820D02*
X153195040Y-199209820D01*
G75*
G02*
X153445040Y-199459820I0J-250000D01*
G01*
X153445040Y-199959820D01*
G75*
G02*
X153195040Y-200209820I-250000J0D01*
G01*
X152245040Y-200209820D01*
G75*
G02*
X151995040Y-199959820I0J250000D01*
G01*
X151995040Y-199459820D01*
G75*
G02*
X152245040Y-199209820I250000J0D01*
G01*
G37*
G36*
G01*
X152245040Y-197309820D02*
X153195040Y-197309820D01*
G75*
G02*
X153445040Y-197559820I0J-250000D01*
G01*
X153445040Y-198059820D01*
G75*
G02*
X153195040Y-198309820I-250000J0D01*
G01*
X152245040Y-198309820D01*
G75*
G02*
X151995040Y-198059820I0J250000D01*
G01*
X151995040Y-197559820D01*
G75*
G02*
X152245040Y-197309820I250000J0D01*
G01*
G37*
G36*
G01*
X128139780Y-161609660D02*
X128689780Y-161609660D01*
G75*
G02*
X128889780Y-161809660I0J-200000D01*
G01*
X128889780Y-162209660D01*
G75*
G02*
X128689780Y-162409660I-200000J0D01*
G01*
X128139780Y-162409660D01*
G75*
G02*
X127939780Y-162209660I0J200000D01*
G01*
X127939780Y-161809660D01*
G75*
G02*
X128139780Y-161609660I200000J0D01*
G01*
G37*
G36*
G01*
X128139780Y-159959660D02*
X128689780Y-159959660D01*
G75*
G02*
X128889780Y-160159660I0J-200000D01*
G01*
X128889780Y-160559660D01*
G75*
G02*
X128689780Y-160759660I-200000J0D01*
G01*
X128139780Y-160759660D01*
G75*
G02*
X127939780Y-160559660I0J200000D01*
G01*
X127939780Y-160159660D01*
G75*
G02*
X128139780Y-159959660I200000J0D01*
G01*
G37*
G36*
G01*
X113880220Y-161609660D02*
X114430220Y-161609660D01*
G75*
G02*
X114630220Y-161809660I0J-200000D01*
G01*
X114630220Y-162209660D01*
G75*
G02*
X114430220Y-162409660I-200000J0D01*
G01*
X113880220Y-162409660D01*
G75*
G02*
X113680220Y-162209660I0J200000D01*
G01*
X113680220Y-161809660D01*
G75*
G02*
X113880220Y-161609660I200000J0D01*
G01*
G37*
G36*
G01*
X113880220Y-159959660D02*
X114430220Y-159959660D01*
G75*
G02*
X114630220Y-160159660I0J-200000D01*
G01*
X114630220Y-160559660D01*
G75*
G02*
X114430220Y-160759660I-200000J0D01*
G01*
X113880220Y-160759660D01*
G75*
G02*
X113680220Y-160559660I0J200000D01*
G01*
X113680220Y-160159660D01*
G75*
G02*
X113880220Y-159959660I200000J0D01*
G01*
G37*
G36*
G01*
X116050740Y-167677280D02*
X115500740Y-167677280D01*
G75*
G02*
X115300740Y-167477280I0J200000D01*
G01*
X115300740Y-167077280D01*
G75*
G02*
X115500740Y-166877280I200000J0D01*
G01*
X116050740Y-166877280D01*
G75*
G02*
X116250740Y-167077280I0J-200000D01*
G01*
X116250740Y-167477280D01*
G75*
G02*
X116050740Y-167677280I-200000J0D01*
G01*
G37*
G36*
G01*
X116050740Y-169327280D02*
X115500740Y-169327280D01*
G75*
G02*
X115300740Y-169127280I0J200000D01*
G01*
X115300740Y-168727280D01*
G75*
G02*
X115500740Y-168527280I200000J0D01*
G01*
X116050740Y-168527280D01*
G75*
G02*
X116250740Y-168727280I0J-200000D01*
G01*
X116250740Y-169127280D01*
G75*
G02*
X116050740Y-169327280I-200000J0D01*
G01*
G37*
G36*
G01*
X127137840Y-167677280D02*
X126587840Y-167677280D01*
G75*
G02*
X126387840Y-167477280I0J200000D01*
G01*
X126387840Y-167077280D01*
G75*
G02*
X126587840Y-166877280I200000J0D01*
G01*
X127137840Y-166877280D01*
G75*
G02*
X127337840Y-167077280I0J-200000D01*
G01*
X127337840Y-167477280D01*
G75*
G02*
X127137840Y-167677280I-200000J0D01*
G01*
G37*
G36*
G01*
X127137840Y-169327280D02*
X126587840Y-169327280D01*
G75*
G02*
X126387840Y-169127280I0J200000D01*
G01*
X126387840Y-168727280D01*
G75*
G02*
X126587840Y-168527280I200000J0D01*
G01*
X127137840Y-168527280D01*
G75*
G02*
X127337840Y-168727280I0J-200000D01*
G01*
X127337840Y-169127280D01*
G75*
G02*
X127137840Y-169327280I-200000J0D01*
G01*
G37*
G36*
G01*
X111440640Y-147392840D02*
X110890640Y-147392840D01*
G75*
G02*
X110690640Y-147192840I0J200000D01*
G01*
X110690640Y-146792840D01*
G75*
G02*
X110890640Y-146592840I200000J0D01*
G01*
X111440640Y-146592840D01*
G75*
G02*
X111640640Y-146792840I0J-200000D01*
G01*
X111640640Y-147192840D01*
G75*
G02*
X111440640Y-147392840I-200000J0D01*
G01*
G37*
G36*
G01*
X111440640Y-149042840D02*
X110890640Y-149042840D01*
G75*
G02*
X110690640Y-148842840I0J200000D01*
G01*
X110690640Y-148442840D01*
G75*
G02*
X110890640Y-148242840I200000J0D01*
G01*
X111440640Y-148242840D01*
G75*
G02*
X111640640Y-148442840I0J-200000D01*
G01*
X111640640Y-148842840D01*
G75*
G02*
X111440640Y-149042840I-200000J0D01*
G01*
G37*
G36*
G01*
X113257920Y-149802400D02*
X113807920Y-149802400D01*
G75*
G02*
X114007920Y-150002400I0J-200000D01*
G01*
X114007920Y-150402400D01*
G75*
G02*
X113807920Y-150602400I-200000J0D01*
G01*
X113257920Y-150602400D01*
G75*
G02*
X113057920Y-150402400I0J200000D01*
G01*
X113057920Y-150002400D01*
G75*
G02*
X113257920Y-149802400I200000J0D01*
G01*
G37*
G36*
G01*
X113257920Y-148152400D02*
X113807920Y-148152400D01*
G75*
G02*
X114007920Y-148352400I0J-200000D01*
G01*
X114007920Y-148752400D01*
G75*
G02*
X113807920Y-148952400I-200000J0D01*
G01*
X113257920Y-148952400D01*
G75*
G02*
X113057920Y-148752400I0J200000D01*
G01*
X113057920Y-148352400D01*
G75*
G02*
X113257920Y-148152400I200000J0D01*
G01*
G37*
G36*
G01*
X109038840Y-139638360D02*
X109038840Y-140188360D01*
G75*
G02*
X108838840Y-140388360I-200000J0D01*
G01*
X108438840Y-140388360D01*
G75*
G02*
X108238840Y-140188360I0J200000D01*
G01*
X108238840Y-139638360D01*
G75*
G02*
X108438840Y-139438360I200000J0D01*
G01*
X108838840Y-139438360D01*
G75*
G02*
X109038840Y-139638360I0J-200000D01*
G01*
G37*
G36*
G01*
X110688840Y-139638360D02*
X110688840Y-140188360D01*
G75*
G02*
X110488840Y-140388360I-200000J0D01*
G01*
X110088840Y-140388360D01*
G75*
G02*
X109888840Y-140188360I0J200000D01*
G01*
X109888840Y-139638360D01*
G75*
G02*
X110088840Y-139438360I200000J0D01*
G01*
X110488840Y-139438360D01*
G75*
G02*
X110688840Y-139638360I0J-200000D01*
G01*
G37*
G36*
G01*
X121771840Y-174669880D02*
X121771840Y-174119880D01*
G75*
G02*
X121971840Y-173919880I200000J0D01*
G01*
X122371840Y-173919880D01*
G75*
G02*
X122571840Y-174119880I0J-200000D01*
G01*
X122571840Y-174669880D01*
G75*
G02*
X122371840Y-174869880I-200000J0D01*
G01*
X121971840Y-174869880D01*
G75*
G02*
X121771840Y-174669880I0J200000D01*
G01*
G37*
G36*
G01*
X123421840Y-174669880D02*
X123421840Y-174119880D01*
G75*
G02*
X123621840Y-173919880I200000J0D01*
G01*
X124021840Y-173919880D01*
G75*
G02*
X124221840Y-174119880I0J-200000D01*
G01*
X124221840Y-174669880D01*
G75*
G02*
X124021840Y-174869880I-200000J0D01*
G01*
X123621840Y-174869880D01*
G75*
G02*
X123421840Y-174669880I0J200000D01*
G01*
G37*
G36*
G01*
X120997040Y-174114800D02*
X120997040Y-174664800D01*
G75*
G02*
X120797040Y-174864800I-200000J0D01*
G01*
X120397040Y-174864800D01*
G75*
G02*
X120197040Y-174664800I0J200000D01*
G01*
X120197040Y-174114800D01*
G75*
G02*
X120397040Y-173914800I200000J0D01*
G01*
X120797040Y-173914800D01*
G75*
G02*
X120997040Y-174114800I0J-200000D01*
G01*
G37*
G36*
G01*
X119347040Y-174114800D02*
X119347040Y-174664800D01*
G75*
G02*
X119147040Y-174864800I-200000J0D01*
G01*
X118747040Y-174864800D01*
G75*
G02*
X118547040Y-174664800I0J200000D01*
G01*
X118547040Y-174114800D01*
G75*
G02*
X118747040Y-173914800I200000J0D01*
G01*
X119147040Y-173914800D01*
G75*
G02*
X119347040Y-174114800I0J-200000D01*
G01*
G37*
G36*
G01*
X129381840Y-183433000D02*
X129931840Y-183433000D01*
G75*
G02*
X130131840Y-183633000I0J-200000D01*
G01*
X130131840Y-184033000D01*
G75*
G02*
X129931840Y-184233000I-200000J0D01*
G01*
X129381840Y-184233000D01*
G75*
G02*
X129181840Y-184033000I0J200000D01*
G01*
X129181840Y-183633000D01*
G75*
G02*
X129381840Y-183433000I200000J0D01*
G01*
G37*
G36*
G01*
X129381840Y-185083000D02*
X129931840Y-185083000D01*
G75*
G02*
X130131840Y-185283000I0J-200000D01*
G01*
X130131840Y-185683000D01*
G75*
G02*
X129931840Y-185883000I-200000J0D01*
G01*
X129381840Y-185883000D01*
G75*
G02*
X129181840Y-185683000I0J200000D01*
G01*
X129181840Y-185283000D01*
G75*
G02*
X129381840Y-185083000I200000J0D01*
G01*
G37*
G36*
G01*
X112668640Y-183433000D02*
X113218640Y-183433000D01*
G75*
G02*
X113418640Y-183633000I0J-200000D01*
G01*
X113418640Y-184033000D01*
G75*
G02*
X113218640Y-184233000I-200000J0D01*
G01*
X112668640Y-184233000D01*
G75*
G02*
X112468640Y-184033000I0J200000D01*
G01*
X112468640Y-183633000D01*
G75*
G02*
X112668640Y-183433000I200000J0D01*
G01*
G37*
G36*
G01*
X112668640Y-185083000D02*
X113218640Y-185083000D01*
G75*
G02*
X113418640Y-185283000I0J-200000D01*
G01*
X113418640Y-185683000D01*
G75*
G02*
X113218640Y-185883000I-200000J0D01*
G01*
X112668640Y-185883000D01*
G75*
G02*
X112468640Y-185683000I0J200000D01*
G01*
X112468640Y-185283000D01*
G75*
G02*
X112668640Y-185083000I200000J0D01*
G01*
G37*
G36*
G01*
X125208580Y-173116920D02*
X125208580Y-172566920D01*
G75*
G02*
X125408580Y-172366920I200000J0D01*
G01*
X125808580Y-172366920D01*
G75*
G02*
X126008580Y-172566920I0J-200000D01*
G01*
X126008580Y-173116920D01*
G75*
G02*
X125808580Y-173316920I-200000J0D01*
G01*
X125408580Y-173316920D01*
G75*
G02*
X125208580Y-173116920I0J200000D01*
G01*
G37*
G36*
G01*
X126858580Y-173116920D02*
X126858580Y-172566920D01*
G75*
G02*
X127058580Y-172366920I200000J0D01*
G01*
X127458580Y-172366920D01*
G75*
G02*
X127658580Y-172566920I0J-200000D01*
G01*
X127658580Y-173116920D01*
G75*
G02*
X127458580Y-173316920I-200000J0D01*
G01*
X127058580Y-173316920D01*
G75*
G02*
X126858580Y-173116920I0J200000D01*
G01*
G37*
G36*
G01*
X126355580Y-171491320D02*
X126355580Y-170941320D01*
G75*
G02*
X126555580Y-170741320I200000J0D01*
G01*
X126955580Y-170741320D01*
G75*
G02*
X127155580Y-170941320I0J-200000D01*
G01*
X127155580Y-171491320D01*
G75*
G02*
X126955580Y-171691320I-200000J0D01*
G01*
X126555580Y-171691320D01*
G75*
G02*
X126355580Y-171491320I0J200000D01*
G01*
G37*
G36*
G01*
X128005580Y-171491320D02*
X128005580Y-170941320D01*
G75*
G02*
X128205580Y-170741320I200000J0D01*
G01*
X128605580Y-170741320D01*
G75*
G02*
X128805580Y-170941320I0J-200000D01*
G01*
X128805580Y-171491320D01*
G75*
G02*
X128605580Y-171691320I-200000J0D01*
G01*
X128205580Y-171691320D01*
G75*
G02*
X128005580Y-171491320I0J200000D01*
G01*
G37*
G36*
G01*
X116126280Y-170522220D02*
X116126280Y-171072220D01*
G75*
G02*
X115926280Y-171272220I-200000J0D01*
G01*
X115526280Y-171272220D01*
G75*
G02*
X115326280Y-171072220I0J200000D01*
G01*
X115326280Y-170522220D01*
G75*
G02*
X115526280Y-170322220I200000J0D01*
G01*
X115926280Y-170322220D01*
G75*
G02*
X116126280Y-170522220I0J-200000D01*
G01*
G37*
G36*
G01*
X114476280Y-170522220D02*
X114476280Y-171072220D01*
G75*
G02*
X114276280Y-171272220I-200000J0D01*
G01*
X113876280Y-171272220D01*
G75*
G02*
X113676280Y-171072220I0J200000D01*
G01*
X113676280Y-170522220D01*
G75*
G02*
X113876280Y-170322220I200000J0D01*
G01*
X114276280Y-170322220D01*
G75*
G02*
X114476280Y-170522220I0J-200000D01*
G01*
G37*
G36*
G01*
X116126280Y-172135120D02*
X116126280Y-172685120D01*
G75*
G02*
X115926280Y-172885120I-200000J0D01*
G01*
X115526280Y-172885120D01*
G75*
G02*
X115326280Y-172685120I0J200000D01*
G01*
X115326280Y-172135120D01*
G75*
G02*
X115526280Y-171935120I200000J0D01*
G01*
X115926280Y-171935120D01*
G75*
G02*
X116126280Y-172135120I0J-200000D01*
G01*
G37*
G36*
G01*
X114476280Y-172135120D02*
X114476280Y-172685120D01*
G75*
G02*
X114276280Y-172885120I-200000J0D01*
G01*
X113876280Y-172885120D01*
G75*
G02*
X113676280Y-172685120I0J200000D01*
G01*
X113676280Y-172135120D01*
G75*
G02*
X113876280Y-171935120I200000J0D01*
G01*
X114276280Y-171935120D01*
G75*
G02*
X114476280Y-172135120I0J-200000D01*
G01*
G37*
G36*
G01*
X162108302Y-110448140D02*
X161208298Y-110448140D01*
G75*
G02*
X160958300Y-110198142I0J249998D01*
G01*
X160958300Y-109673138D01*
G75*
G02*
X161208298Y-109423140I249998J0D01*
G01*
X162108302Y-109423140D01*
G75*
G02*
X162358300Y-109673138I0J-249998D01*
G01*
X162358300Y-110198142D01*
G75*
G02*
X162108302Y-110448140I-249998J0D01*
G01*
G37*
G36*
G01*
X162108302Y-112273140D02*
X161208298Y-112273140D01*
G75*
G02*
X160958300Y-112023142I0J249998D01*
G01*
X160958300Y-111498138D01*
G75*
G02*
X161208298Y-111248140I249998J0D01*
G01*
X162108302Y-111248140D01*
G75*
G02*
X162358300Y-111498138I0J-249998D01*
G01*
X162358300Y-112023142D01*
G75*
G02*
X162108302Y-112273140I-249998J0D01*
G01*
G37*
D20*
X164800000Y-106510000D03*
X165600000Y-106510000D03*
X164800000Y-106510000D03*
X165600000Y-106510000D03*
X171200000Y-106510000D03*
X171200000Y-106510000D03*
X170400000Y-106510000D03*
X170400000Y-106510000D03*
D21*
X166250000Y-106510000D03*
X167250000Y-106510000D03*
X166750000Y-106510000D03*
X169250000Y-106510000D03*
X169750000Y-106510000D03*
X167750000Y-106510000D03*
X168250000Y-106510000D03*
X168750000Y-106510000D03*
D22*
X149698320Y-164299900D03*
X145998320Y-164299900D03*
G36*
G01*
X122772300Y-160624660D02*
X122772300Y-160324660D01*
G75*
G02*
X122922300Y-160174660I150000J0D01*
G01*
X124572300Y-160174660D01*
G75*
G02*
X124722300Y-160324660I0J-150000D01*
G01*
X124722300Y-160624660D01*
G75*
G02*
X124572300Y-160774660I-150000J0D01*
G01*
X122922300Y-160774660D01*
G75*
G02*
X122772300Y-160624660I0J150000D01*
G01*
G37*
G36*
G01*
X122772300Y-161894660D02*
X122772300Y-161594660D01*
G75*
G02*
X122922300Y-161444660I150000J0D01*
G01*
X124572300Y-161444660D01*
G75*
G02*
X124722300Y-161594660I0J-150000D01*
G01*
X124722300Y-161894660D01*
G75*
G02*
X124572300Y-162044660I-150000J0D01*
G01*
X122922300Y-162044660D01*
G75*
G02*
X122772300Y-161894660I0J150000D01*
G01*
G37*
G36*
G01*
X122772300Y-163164660D02*
X122772300Y-162864660D01*
G75*
G02*
X122922300Y-162714660I150000J0D01*
G01*
X124572300Y-162714660D01*
G75*
G02*
X124722300Y-162864660I0J-150000D01*
G01*
X124722300Y-163164660D01*
G75*
G02*
X124572300Y-163314660I-150000J0D01*
G01*
X122922300Y-163314660D01*
G75*
G02*
X122772300Y-163164660I0J150000D01*
G01*
G37*
G36*
G01*
X122772300Y-164434660D02*
X122772300Y-164134660D01*
G75*
G02*
X122922300Y-163984660I150000J0D01*
G01*
X124572300Y-163984660D01*
G75*
G02*
X124722300Y-164134660I0J-150000D01*
G01*
X124722300Y-164434660D01*
G75*
G02*
X124572300Y-164584660I-150000J0D01*
G01*
X122922300Y-164584660D01*
G75*
G02*
X122772300Y-164434660I0J150000D01*
G01*
G37*
G36*
G01*
X122772300Y-165704660D02*
X122772300Y-165404660D01*
G75*
G02*
X122922300Y-165254660I150000J0D01*
G01*
X124572300Y-165254660D01*
G75*
G02*
X124722300Y-165404660I0J-150000D01*
G01*
X124722300Y-165704660D01*
G75*
G02*
X124572300Y-165854660I-150000J0D01*
G01*
X122922300Y-165854660D01*
G75*
G02*
X122772300Y-165704660I0J150000D01*
G01*
G37*
G36*
G01*
X122772300Y-166974660D02*
X122772300Y-166674660D01*
G75*
G02*
X122922300Y-166524660I150000J0D01*
G01*
X124572300Y-166524660D01*
G75*
G02*
X124722300Y-166674660I0J-150000D01*
G01*
X124722300Y-166974660D01*
G75*
G02*
X124572300Y-167124660I-150000J0D01*
G01*
X122922300Y-167124660D01*
G75*
G02*
X122772300Y-166974660I0J150000D01*
G01*
G37*
G36*
G01*
X122772300Y-168244660D02*
X122772300Y-167944660D01*
G75*
G02*
X122922300Y-167794660I150000J0D01*
G01*
X124572300Y-167794660D01*
G75*
G02*
X124722300Y-167944660I0J-150000D01*
G01*
X124722300Y-168244660D01*
G75*
G02*
X124572300Y-168394660I-150000J0D01*
G01*
X122922300Y-168394660D01*
G75*
G02*
X122772300Y-168244660I0J150000D01*
G01*
G37*
G36*
G01*
X117822300Y-168244660D02*
X117822300Y-167944660D01*
G75*
G02*
X117972300Y-167794660I150000J0D01*
G01*
X119622300Y-167794660D01*
G75*
G02*
X119772300Y-167944660I0J-150000D01*
G01*
X119772300Y-168244660D01*
G75*
G02*
X119622300Y-168394660I-150000J0D01*
G01*
X117972300Y-168394660D01*
G75*
G02*
X117822300Y-168244660I0J150000D01*
G01*
G37*
G36*
G01*
X117822300Y-166974660D02*
X117822300Y-166674660D01*
G75*
G02*
X117972300Y-166524660I150000J0D01*
G01*
X119622300Y-166524660D01*
G75*
G02*
X119772300Y-166674660I0J-150000D01*
G01*
X119772300Y-166974660D01*
G75*
G02*
X119622300Y-167124660I-150000J0D01*
G01*
X117972300Y-167124660D01*
G75*
G02*
X117822300Y-166974660I0J150000D01*
G01*
G37*
G36*
G01*
X117822300Y-165704660D02*
X117822300Y-165404660D01*
G75*
G02*
X117972300Y-165254660I150000J0D01*
G01*
X119622300Y-165254660D01*
G75*
G02*
X119772300Y-165404660I0J-150000D01*
G01*
X119772300Y-165704660D01*
G75*
G02*
X119622300Y-165854660I-150000J0D01*
G01*
X117972300Y-165854660D01*
G75*
G02*
X117822300Y-165704660I0J150000D01*
G01*
G37*
G36*
G01*
X117822300Y-164434660D02*
X117822300Y-164134660D01*
G75*
G02*
X117972300Y-163984660I150000J0D01*
G01*
X119622300Y-163984660D01*
G75*
G02*
X119772300Y-164134660I0J-150000D01*
G01*
X119772300Y-164434660D01*
G75*
G02*
X119622300Y-164584660I-150000J0D01*
G01*
X117972300Y-164584660D01*
G75*
G02*
X117822300Y-164434660I0J150000D01*
G01*
G37*
G36*
G01*
X117822300Y-163164660D02*
X117822300Y-162864660D01*
G75*
G02*
X117972300Y-162714660I150000J0D01*
G01*
X119622300Y-162714660D01*
G75*
G02*
X119772300Y-162864660I0J-150000D01*
G01*
X119772300Y-163164660D01*
G75*
G02*
X119622300Y-163314660I-150000J0D01*
G01*
X117972300Y-163314660D01*
G75*
G02*
X117822300Y-163164660I0J150000D01*
G01*
G37*
G36*
G01*
X117822300Y-161894660D02*
X117822300Y-161594660D01*
G75*
G02*
X117972300Y-161444660I150000J0D01*
G01*
X119622300Y-161444660D01*
G75*
G02*
X119772300Y-161594660I0J-150000D01*
G01*
X119772300Y-161894660D01*
G75*
G02*
X119622300Y-162044660I-150000J0D01*
G01*
X117972300Y-162044660D01*
G75*
G02*
X117822300Y-161894660I0J150000D01*
G01*
G37*
G36*
G01*
X117822300Y-160624660D02*
X117822300Y-160324660D01*
G75*
G02*
X117972300Y-160174660I150000J0D01*
G01*
X119622300Y-160174660D01*
G75*
G02*
X119772300Y-160324660I0J-150000D01*
G01*
X119772300Y-160624660D01*
G75*
G02*
X119622300Y-160774660I-150000J0D01*
G01*
X117972300Y-160774660D01*
G75*
G02*
X117822300Y-160624660I0J150000D01*
G01*
G37*
D23*
X125497300Y-152507500D03*
X124847300Y-152507500D03*
X124197300Y-152507500D03*
X123547300Y-152507500D03*
X122897300Y-152507500D03*
X122247300Y-152507500D03*
X121597300Y-152507500D03*
X120947300Y-152507500D03*
X120297300Y-152507500D03*
X119647300Y-152507500D03*
X118997300Y-152507500D03*
X118347300Y-152507500D03*
X117697300Y-152507500D03*
X117047300Y-152507500D03*
X117047300Y-145307500D03*
X117697300Y-145307500D03*
X118347300Y-145307500D03*
X118997300Y-145307500D03*
X119647300Y-145307500D03*
X120297300Y-145307500D03*
X120947300Y-145307500D03*
X121597300Y-145307500D03*
X122247300Y-145307500D03*
X122897300Y-145307500D03*
X123547300Y-145307500D03*
X124197300Y-145307500D03*
X124847300Y-145307500D03*
X125497300Y-145307500D03*
D13*
X163815160Y-135771920D03*
X163815160Y-131171920D03*
X163815160Y-133471920D03*
D14*
X157515160Y-133471920D03*
G36*
G01*
X143902020Y-158573300D02*
X142502020Y-158573300D01*
G75*
G02*
X142427020Y-158498300I0J75000D01*
G01*
X142427020Y-158348300D01*
G75*
G02*
X142502020Y-158273300I75000J0D01*
G01*
X143902020Y-158273300D01*
G75*
G02*
X143977020Y-158348300I0J-75000D01*
G01*
X143977020Y-158498300D01*
G75*
G02*
X143902020Y-158573300I-75000J0D01*
G01*
G37*
G36*
G01*
X143902020Y-158073300D02*
X142502020Y-158073300D01*
G75*
G02*
X142427020Y-157998300I0J75000D01*
G01*
X142427020Y-157848300D01*
G75*
G02*
X142502020Y-157773300I75000J0D01*
G01*
X143902020Y-157773300D01*
G75*
G02*
X143977020Y-157848300I0J-75000D01*
G01*
X143977020Y-157998300D01*
G75*
G02*
X143902020Y-158073300I-75000J0D01*
G01*
G37*
G36*
G01*
X143902020Y-157573300D02*
X142502020Y-157573300D01*
G75*
G02*
X142427020Y-157498300I0J75000D01*
G01*
X142427020Y-157348300D01*
G75*
G02*
X142502020Y-157273300I75000J0D01*
G01*
X143902020Y-157273300D01*
G75*
G02*
X143977020Y-157348300I0J-75000D01*
G01*
X143977020Y-157498300D01*
G75*
G02*
X143902020Y-157573300I-75000J0D01*
G01*
G37*
G36*
G01*
X143902020Y-157073300D02*
X142502020Y-157073300D01*
G75*
G02*
X142427020Y-156998300I0J75000D01*
G01*
X142427020Y-156848300D01*
G75*
G02*
X142502020Y-156773300I75000J0D01*
G01*
X143902020Y-156773300D01*
G75*
G02*
X143977020Y-156848300I0J-75000D01*
G01*
X143977020Y-156998300D01*
G75*
G02*
X143902020Y-157073300I-75000J0D01*
G01*
G37*
G36*
G01*
X143902020Y-156573300D02*
X142502020Y-156573300D01*
G75*
G02*
X142427020Y-156498300I0J75000D01*
G01*
X142427020Y-156348300D01*
G75*
G02*
X142502020Y-156273300I75000J0D01*
G01*
X143902020Y-156273300D01*
G75*
G02*
X143977020Y-156348300I0J-75000D01*
G01*
X143977020Y-156498300D01*
G75*
G02*
X143902020Y-156573300I-75000J0D01*
G01*
G37*
G36*
G01*
X143902020Y-156073300D02*
X142502020Y-156073300D01*
G75*
G02*
X142427020Y-155998300I0J75000D01*
G01*
X142427020Y-155848300D01*
G75*
G02*
X142502020Y-155773300I75000J0D01*
G01*
X143902020Y-155773300D01*
G75*
G02*
X143977020Y-155848300I0J-75000D01*
G01*
X143977020Y-155998300D01*
G75*
G02*
X143902020Y-156073300I-75000J0D01*
G01*
G37*
G36*
G01*
X143902020Y-155573300D02*
X142502020Y-155573300D01*
G75*
G02*
X142427020Y-155498300I0J75000D01*
G01*
X142427020Y-155348300D01*
G75*
G02*
X142502020Y-155273300I75000J0D01*
G01*
X143902020Y-155273300D01*
G75*
G02*
X143977020Y-155348300I0J-75000D01*
G01*
X143977020Y-155498300D01*
G75*
G02*
X143902020Y-155573300I-75000J0D01*
G01*
G37*
G36*
G01*
X143902020Y-155073300D02*
X142502020Y-155073300D01*
G75*
G02*
X142427020Y-154998300I0J75000D01*
G01*
X142427020Y-154848300D01*
G75*
G02*
X142502020Y-154773300I75000J0D01*
G01*
X143902020Y-154773300D01*
G75*
G02*
X143977020Y-154848300I0J-75000D01*
G01*
X143977020Y-154998300D01*
G75*
G02*
X143902020Y-155073300I-75000J0D01*
G01*
G37*
G36*
G01*
X143902020Y-154573300D02*
X142502020Y-154573300D01*
G75*
G02*
X142427020Y-154498300I0J75000D01*
G01*
X142427020Y-154348300D01*
G75*
G02*
X142502020Y-154273300I75000J0D01*
G01*
X143902020Y-154273300D01*
G75*
G02*
X143977020Y-154348300I0J-75000D01*
G01*
X143977020Y-154498300D01*
G75*
G02*
X143902020Y-154573300I-75000J0D01*
G01*
G37*
G36*
G01*
X143902020Y-154073300D02*
X142502020Y-154073300D01*
G75*
G02*
X142427020Y-153998300I0J75000D01*
G01*
X142427020Y-153848300D01*
G75*
G02*
X142502020Y-153773300I75000J0D01*
G01*
X143902020Y-153773300D01*
G75*
G02*
X143977020Y-153848300I0J-75000D01*
G01*
X143977020Y-153998300D01*
G75*
G02*
X143902020Y-154073300I-75000J0D01*
G01*
G37*
G36*
G01*
X143902020Y-153573300D02*
X142502020Y-153573300D01*
G75*
G02*
X142427020Y-153498300I0J75000D01*
G01*
X142427020Y-153348300D01*
G75*
G02*
X142502020Y-153273300I75000J0D01*
G01*
X143902020Y-153273300D01*
G75*
G02*
X143977020Y-153348300I0J-75000D01*
G01*
X143977020Y-153498300D01*
G75*
G02*
X143902020Y-153573300I-75000J0D01*
G01*
G37*
G36*
G01*
X143902020Y-153073300D02*
X142502020Y-153073300D01*
G75*
G02*
X142427020Y-152998300I0J75000D01*
G01*
X142427020Y-152848300D01*
G75*
G02*
X142502020Y-152773300I75000J0D01*
G01*
X143902020Y-152773300D01*
G75*
G02*
X143977020Y-152848300I0J-75000D01*
G01*
X143977020Y-152998300D01*
G75*
G02*
X143902020Y-153073300I-75000J0D01*
G01*
G37*
G36*
G01*
X143902020Y-152573300D02*
X142502020Y-152573300D01*
G75*
G02*
X142427020Y-152498300I0J75000D01*
G01*
X142427020Y-152348300D01*
G75*
G02*
X142502020Y-152273300I75000J0D01*
G01*
X143902020Y-152273300D01*
G75*
G02*
X143977020Y-152348300I0J-75000D01*
G01*
X143977020Y-152498300D01*
G75*
G02*
X143902020Y-152573300I-75000J0D01*
G01*
G37*
G36*
G01*
X143902020Y-152073300D02*
X142502020Y-152073300D01*
G75*
G02*
X142427020Y-151998300I0J75000D01*
G01*
X142427020Y-151848300D01*
G75*
G02*
X142502020Y-151773300I75000J0D01*
G01*
X143902020Y-151773300D01*
G75*
G02*
X143977020Y-151848300I0J-75000D01*
G01*
X143977020Y-151998300D01*
G75*
G02*
X143902020Y-152073300I-75000J0D01*
G01*
G37*
G36*
G01*
X143902020Y-151573300D02*
X142502020Y-151573300D01*
G75*
G02*
X142427020Y-151498300I0J75000D01*
G01*
X142427020Y-151348300D01*
G75*
G02*
X142502020Y-151273300I75000J0D01*
G01*
X143902020Y-151273300D01*
G75*
G02*
X143977020Y-151348300I0J-75000D01*
G01*
X143977020Y-151498300D01*
G75*
G02*
X143902020Y-151573300I-75000J0D01*
G01*
G37*
G36*
G01*
X143902020Y-151073300D02*
X142502020Y-151073300D01*
G75*
G02*
X142427020Y-150998300I0J75000D01*
G01*
X142427020Y-150848300D01*
G75*
G02*
X142502020Y-150773300I75000J0D01*
G01*
X143902020Y-150773300D01*
G75*
G02*
X143977020Y-150848300I0J-75000D01*
G01*
X143977020Y-150998300D01*
G75*
G02*
X143902020Y-151073300I-75000J0D01*
G01*
G37*
G36*
G01*
X145202020Y-149773300D02*
X145052020Y-149773300D01*
G75*
G02*
X144977020Y-149698300I0J75000D01*
G01*
X144977020Y-148298300D01*
G75*
G02*
X145052020Y-148223300I75000J0D01*
G01*
X145202020Y-148223300D01*
G75*
G02*
X145277020Y-148298300I0J-75000D01*
G01*
X145277020Y-149698300D01*
G75*
G02*
X145202020Y-149773300I-75000J0D01*
G01*
G37*
G36*
G01*
X145702020Y-149773300D02*
X145552020Y-149773300D01*
G75*
G02*
X145477020Y-149698300I0J75000D01*
G01*
X145477020Y-148298300D01*
G75*
G02*
X145552020Y-148223300I75000J0D01*
G01*
X145702020Y-148223300D01*
G75*
G02*
X145777020Y-148298300I0J-75000D01*
G01*
X145777020Y-149698300D01*
G75*
G02*
X145702020Y-149773300I-75000J0D01*
G01*
G37*
G36*
G01*
X146202020Y-149773300D02*
X146052020Y-149773300D01*
G75*
G02*
X145977020Y-149698300I0J75000D01*
G01*
X145977020Y-148298300D01*
G75*
G02*
X146052020Y-148223300I75000J0D01*
G01*
X146202020Y-148223300D01*
G75*
G02*
X146277020Y-148298300I0J-75000D01*
G01*
X146277020Y-149698300D01*
G75*
G02*
X146202020Y-149773300I-75000J0D01*
G01*
G37*
G36*
G01*
X146702020Y-149773300D02*
X146552020Y-149773300D01*
G75*
G02*
X146477020Y-149698300I0J75000D01*
G01*
X146477020Y-148298300D01*
G75*
G02*
X146552020Y-148223300I75000J0D01*
G01*
X146702020Y-148223300D01*
G75*
G02*
X146777020Y-148298300I0J-75000D01*
G01*
X146777020Y-149698300D01*
G75*
G02*
X146702020Y-149773300I-75000J0D01*
G01*
G37*
G36*
G01*
X147202020Y-149773300D02*
X147052020Y-149773300D01*
G75*
G02*
X146977020Y-149698300I0J75000D01*
G01*
X146977020Y-148298300D01*
G75*
G02*
X147052020Y-148223300I75000J0D01*
G01*
X147202020Y-148223300D01*
G75*
G02*
X147277020Y-148298300I0J-75000D01*
G01*
X147277020Y-149698300D01*
G75*
G02*
X147202020Y-149773300I-75000J0D01*
G01*
G37*
G36*
G01*
X147702020Y-149773300D02*
X147552020Y-149773300D01*
G75*
G02*
X147477020Y-149698300I0J75000D01*
G01*
X147477020Y-148298300D01*
G75*
G02*
X147552020Y-148223300I75000J0D01*
G01*
X147702020Y-148223300D01*
G75*
G02*
X147777020Y-148298300I0J-75000D01*
G01*
X147777020Y-149698300D01*
G75*
G02*
X147702020Y-149773300I-75000J0D01*
G01*
G37*
G36*
G01*
X148202020Y-149773300D02*
X148052020Y-149773300D01*
G75*
G02*
X147977020Y-149698300I0J75000D01*
G01*
X147977020Y-148298300D01*
G75*
G02*
X148052020Y-148223300I75000J0D01*
G01*
X148202020Y-148223300D01*
G75*
G02*
X148277020Y-148298300I0J-75000D01*
G01*
X148277020Y-149698300D01*
G75*
G02*
X148202020Y-149773300I-75000J0D01*
G01*
G37*
G36*
G01*
X148702020Y-149773300D02*
X148552020Y-149773300D01*
G75*
G02*
X148477020Y-149698300I0J75000D01*
G01*
X148477020Y-148298300D01*
G75*
G02*
X148552020Y-148223300I75000J0D01*
G01*
X148702020Y-148223300D01*
G75*
G02*
X148777020Y-148298300I0J-75000D01*
G01*
X148777020Y-149698300D01*
G75*
G02*
X148702020Y-149773300I-75000J0D01*
G01*
G37*
G36*
G01*
X149202020Y-149773300D02*
X149052020Y-149773300D01*
G75*
G02*
X148977020Y-149698300I0J75000D01*
G01*
X148977020Y-148298300D01*
G75*
G02*
X149052020Y-148223300I75000J0D01*
G01*
X149202020Y-148223300D01*
G75*
G02*
X149277020Y-148298300I0J-75000D01*
G01*
X149277020Y-149698300D01*
G75*
G02*
X149202020Y-149773300I-75000J0D01*
G01*
G37*
G36*
G01*
X149702020Y-149773300D02*
X149552020Y-149773300D01*
G75*
G02*
X149477020Y-149698300I0J75000D01*
G01*
X149477020Y-148298300D01*
G75*
G02*
X149552020Y-148223300I75000J0D01*
G01*
X149702020Y-148223300D01*
G75*
G02*
X149777020Y-148298300I0J-75000D01*
G01*
X149777020Y-149698300D01*
G75*
G02*
X149702020Y-149773300I-75000J0D01*
G01*
G37*
G36*
G01*
X150202020Y-149773300D02*
X150052020Y-149773300D01*
G75*
G02*
X149977020Y-149698300I0J75000D01*
G01*
X149977020Y-148298300D01*
G75*
G02*
X150052020Y-148223300I75000J0D01*
G01*
X150202020Y-148223300D01*
G75*
G02*
X150277020Y-148298300I0J-75000D01*
G01*
X150277020Y-149698300D01*
G75*
G02*
X150202020Y-149773300I-75000J0D01*
G01*
G37*
G36*
G01*
X150702020Y-149773300D02*
X150552020Y-149773300D01*
G75*
G02*
X150477020Y-149698300I0J75000D01*
G01*
X150477020Y-148298300D01*
G75*
G02*
X150552020Y-148223300I75000J0D01*
G01*
X150702020Y-148223300D01*
G75*
G02*
X150777020Y-148298300I0J-75000D01*
G01*
X150777020Y-149698300D01*
G75*
G02*
X150702020Y-149773300I-75000J0D01*
G01*
G37*
G36*
G01*
X151202020Y-149773300D02*
X151052020Y-149773300D01*
G75*
G02*
X150977020Y-149698300I0J75000D01*
G01*
X150977020Y-148298300D01*
G75*
G02*
X151052020Y-148223300I75000J0D01*
G01*
X151202020Y-148223300D01*
G75*
G02*
X151277020Y-148298300I0J-75000D01*
G01*
X151277020Y-149698300D01*
G75*
G02*
X151202020Y-149773300I-75000J0D01*
G01*
G37*
G36*
G01*
X151702020Y-149773300D02*
X151552020Y-149773300D01*
G75*
G02*
X151477020Y-149698300I0J75000D01*
G01*
X151477020Y-148298300D01*
G75*
G02*
X151552020Y-148223300I75000J0D01*
G01*
X151702020Y-148223300D01*
G75*
G02*
X151777020Y-148298300I0J-75000D01*
G01*
X151777020Y-149698300D01*
G75*
G02*
X151702020Y-149773300I-75000J0D01*
G01*
G37*
G36*
G01*
X152202020Y-149773300D02*
X152052020Y-149773300D01*
G75*
G02*
X151977020Y-149698300I0J75000D01*
G01*
X151977020Y-148298300D01*
G75*
G02*
X152052020Y-148223300I75000J0D01*
G01*
X152202020Y-148223300D01*
G75*
G02*
X152277020Y-148298300I0J-75000D01*
G01*
X152277020Y-149698300D01*
G75*
G02*
X152202020Y-149773300I-75000J0D01*
G01*
G37*
G36*
G01*
X152702020Y-149773300D02*
X152552020Y-149773300D01*
G75*
G02*
X152477020Y-149698300I0J75000D01*
G01*
X152477020Y-148298300D01*
G75*
G02*
X152552020Y-148223300I75000J0D01*
G01*
X152702020Y-148223300D01*
G75*
G02*
X152777020Y-148298300I0J-75000D01*
G01*
X152777020Y-149698300D01*
G75*
G02*
X152702020Y-149773300I-75000J0D01*
G01*
G37*
G36*
G01*
X155252020Y-151073300D02*
X153852020Y-151073300D01*
G75*
G02*
X153777020Y-150998300I0J75000D01*
G01*
X153777020Y-150848300D01*
G75*
G02*
X153852020Y-150773300I75000J0D01*
G01*
X155252020Y-150773300D01*
G75*
G02*
X155327020Y-150848300I0J-75000D01*
G01*
X155327020Y-150998300D01*
G75*
G02*
X155252020Y-151073300I-75000J0D01*
G01*
G37*
G36*
G01*
X155252020Y-151573300D02*
X153852020Y-151573300D01*
G75*
G02*
X153777020Y-151498300I0J75000D01*
G01*
X153777020Y-151348300D01*
G75*
G02*
X153852020Y-151273300I75000J0D01*
G01*
X155252020Y-151273300D01*
G75*
G02*
X155327020Y-151348300I0J-75000D01*
G01*
X155327020Y-151498300D01*
G75*
G02*
X155252020Y-151573300I-75000J0D01*
G01*
G37*
G36*
G01*
X155252020Y-152073300D02*
X153852020Y-152073300D01*
G75*
G02*
X153777020Y-151998300I0J75000D01*
G01*
X153777020Y-151848300D01*
G75*
G02*
X153852020Y-151773300I75000J0D01*
G01*
X155252020Y-151773300D01*
G75*
G02*
X155327020Y-151848300I0J-75000D01*
G01*
X155327020Y-151998300D01*
G75*
G02*
X155252020Y-152073300I-75000J0D01*
G01*
G37*
G36*
G01*
X155252020Y-152573300D02*
X153852020Y-152573300D01*
G75*
G02*
X153777020Y-152498300I0J75000D01*
G01*
X153777020Y-152348300D01*
G75*
G02*
X153852020Y-152273300I75000J0D01*
G01*
X155252020Y-152273300D01*
G75*
G02*
X155327020Y-152348300I0J-75000D01*
G01*
X155327020Y-152498300D01*
G75*
G02*
X155252020Y-152573300I-75000J0D01*
G01*
G37*
G36*
G01*
X155252020Y-153073300D02*
X153852020Y-153073300D01*
G75*
G02*
X153777020Y-152998300I0J75000D01*
G01*
X153777020Y-152848300D01*
G75*
G02*
X153852020Y-152773300I75000J0D01*
G01*
X155252020Y-152773300D01*
G75*
G02*
X155327020Y-152848300I0J-75000D01*
G01*
X155327020Y-152998300D01*
G75*
G02*
X155252020Y-153073300I-75000J0D01*
G01*
G37*
G36*
G01*
X155252020Y-153573300D02*
X153852020Y-153573300D01*
G75*
G02*
X153777020Y-153498300I0J75000D01*
G01*
X153777020Y-153348300D01*
G75*
G02*
X153852020Y-153273300I75000J0D01*
G01*
X155252020Y-153273300D01*
G75*
G02*
X155327020Y-153348300I0J-75000D01*
G01*
X155327020Y-153498300D01*
G75*
G02*
X155252020Y-153573300I-75000J0D01*
G01*
G37*
G36*
G01*
X155252020Y-154073300D02*
X153852020Y-154073300D01*
G75*
G02*
X153777020Y-153998300I0J75000D01*
G01*
X153777020Y-153848300D01*
G75*
G02*
X153852020Y-153773300I75000J0D01*
G01*
X155252020Y-153773300D01*
G75*
G02*
X155327020Y-153848300I0J-75000D01*
G01*
X155327020Y-153998300D01*
G75*
G02*
X155252020Y-154073300I-75000J0D01*
G01*
G37*
G36*
G01*
X155252020Y-154573300D02*
X153852020Y-154573300D01*
G75*
G02*
X153777020Y-154498300I0J75000D01*
G01*
X153777020Y-154348300D01*
G75*
G02*
X153852020Y-154273300I75000J0D01*
G01*
X155252020Y-154273300D01*
G75*
G02*
X155327020Y-154348300I0J-75000D01*
G01*
X155327020Y-154498300D01*
G75*
G02*
X155252020Y-154573300I-75000J0D01*
G01*
G37*
G36*
G01*
X155252020Y-155073300D02*
X153852020Y-155073300D01*
G75*
G02*
X153777020Y-154998300I0J75000D01*
G01*
X153777020Y-154848300D01*
G75*
G02*
X153852020Y-154773300I75000J0D01*
G01*
X155252020Y-154773300D01*
G75*
G02*
X155327020Y-154848300I0J-75000D01*
G01*
X155327020Y-154998300D01*
G75*
G02*
X155252020Y-155073300I-75000J0D01*
G01*
G37*
G36*
G01*
X155252020Y-155573300D02*
X153852020Y-155573300D01*
G75*
G02*
X153777020Y-155498300I0J75000D01*
G01*
X153777020Y-155348300D01*
G75*
G02*
X153852020Y-155273300I75000J0D01*
G01*
X155252020Y-155273300D01*
G75*
G02*
X155327020Y-155348300I0J-75000D01*
G01*
X155327020Y-155498300D01*
G75*
G02*
X155252020Y-155573300I-75000J0D01*
G01*
G37*
G36*
G01*
X155252020Y-156073300D02*
X153852020Y-156073300D01*
G75*
G02*
X153777020Y-155998300I0J75000D01*
G01*
X153777020Y-155848300D01*
G75*
G02*
X153852020Y-155773300I75000J0D01*
G01*
X155252020Y-155773300D01*
G75*
G02*
X155327020Y-155848300I0J-75000D01*
G01*
X155327020Y-155998300D01*
G75*
G02*
X155252020Y-156073300I-75000J0D01*
G01*
G37*
G36*
G01*
X155252020Y-156573300D02*
X153852020Y-156573300D01*
G75*
G02*
X153777020Y-156498300I0J75000D01*
G01*
X153777020Y-156348300D01*
G75*
G02*
X153852020Y-156273300I75000J0D01*
G01*
X155252020Y-156273300D01*
G75*
G02*
X155327020Y-156348300I0J-75000D01*
G01*
X155327020Y-156498300D01*
G75*
G02*
X155252020Y-156573300I-75000J0D01*
G01*
G37*
G36*
G01*
X155252020Y-157073300D02*
X153852020Y-157073300D01*
G75*
G02*
X153777020Y-156998300I0J75000D01*
G01*
X153777020Y-156848300D01*
G75*
G02*
X153852020Y-156773300I75000J0D01*
G01*
X155252020Y-156773300D01*
G75*
G02*
X155327020Y-156848300I0J-75000D01*
G01*
X155327020Y-156998300D01*
G75*
G02*
X155252020Y-157073300I-75000J0D01*
G01*
G37*
G36*
G01*
X155252020Y-157573300D02*
X153852020Y-157573300D01*
G75*
G02*
X153777020Y-157498300I0J75000D01*
G01*
X153777020Y-157348300D01*
G75*
G02*
X153852020Y-157273300I75000J0D01*
G01*
X155252020Y-157273300D01*
G75*
G02*
X155327020Y-157348300I0J-75000D01*
G01*
X155327020Y-157498300D01*
G75*
G02*
X155252020Y-157573300I-75000J0D01*
G01*
G37*
G36*
G01*
X155252020Y-158073300D02*
X153852020Y-158073300D01*
G75*
G02*
X153777020Y-157998300I0J75000D01*
G01*
X153777020Y-157848300D01*
G75*
G02*
X153852020Y-157773300I75000J0D01*
G01*
X155252020Y-157773300D01*
G75*
G02*
X155327020Y-157848300I0J-75000D01*
G01*
X155327020Y-157998300D01*
G75*
G02*
X155252020Y-158073300I-75000J0D01*
G01*
G37*
G36*
G01*
X155252020Y-158573300D02*
X153852020Y-158573300D01*
G75*
G02*
X153777020Y-158498300I0J75000D01*
G01*
X153777020Y-158348300D01*
G75*
G02*
X153852020Y-158273300I75000J0D01*
G01*
X155252020Y-158273300D01*
G75*
G02*
X155327020Y-158348300I0J-75000D01*
G01*
X155327020Y-158498300D01*
G75*
G02*
X155252020Y-158573300I-75000J0D01*
G01*
G37*
G36*
G01*
X152702020Y-161123300D02*
X152552020Y-161123300D01*
G75*
G02*
X152477020Y-161048300I0J75000D01*
G01*
X152477020Y-159648300D01*
G75*
G02*
X152552020Y-159573300I75000J0D01*
G01*
X152702020Y-159573300D01*
G75*
G02*
X152777020Y-159648300I0J-75000D01*
G01*
X152777020Y-161048300D01*
G75*
G02*
X152702020Y-161123300I-75000J0D01*
G01*
G37*
G36*
G01*
X152202020Y-161123300D02*
X152052020Y-161123300D01*
G75*
G02*
X151977020Y-161048300I0J75000D01*
G01*
X151977020Y-159648300D01*
G75*
G02*
X152052020Y-159573300I75000J0D01*
G01*
X152202020Y-159573300D01*
G75*
G02*
X152277020Y-159648300I0J-75000D01*
G01*
X152277020Y-161048300D01*
G75*
G02*
X152202020Y-161123300I-75000J0D01*
G01*
G37*
G36*
G01*
X151702020Y-161123300D02*
X151552020Y-161123300D01*
G75*
G02*
X151477020Y-161048300I0J75000D01*
G01*
X151477020Y-159648300D01*
G75*
G02*
X151552020Y-159573300I75000J0D01*
G01*
X151702020Y-159573300D01*
G75*
G02*
X151777020Y-159648300I0J-75000D01*
G01*
X151777020Y-161048300D01*
G75*
G02*
X151702020Y-161123300I-75000J0D01*
G01*
G37*
G36*
G01*
X151202020Y-161123300D02*
X151052020Y-161123300D01*
G75*
G02*
X150977020Y-161048300I0J75000D01*
G01*
X150977020Y-159648300D01*
G75*
G02*
X151052020Y-159573300I75000J0D01*
G01*
X151202020Y-159573300D01*
G75*
G02*
X151277020Y-159648300I0J-75000D01*
G01*
X151277020Y-161048300D01*
G75*
G02*
X151202020Y-161123300I-75000J0D01*
G01*
G37*
G36*
G01*
X150702020Y-161123300D02*
X150552020Y-161123300D01*
G75*
G02*
X150477020Y-161048300I0J75000D01*
G01*
X150477020Y-159648300D01*
G75*
G02*
X150552020Y-159573300I75000J0D01*
G01*
X150702020Y-159573300D01*
G75*
G02*
X150777020Y-159648300I0J-75000D01*
G01*
X150777020Y-161048300D01*
G75*
G02*
X150702020Y-161123300I-75000J0D01*
G01*
G37*
G36*
G01*
X150202020Y-161123300D02*
X150052020Y-161123300D01*
G75*
G02*
X149977020Y-161048300I0J75000D01*
G01*
X149977020Y-159648300D01*
G75*
G02*
X150052020Y-159573300I75000J0D01*
G01*
X150202020Y-159573300D01*
G75*
G02*
X150277020Y-159648300I0J-75000D01*
G01*
X150277020Y-161048300D01*
G75*
G02*
X150202020Y-161123300I-75000J0D01*
G01*
G37*
G36*
G01*
X149702020Y-161123300D02*
X149552020Y-161123300D01*
G75*
G02*
X149477020Y-161048300I0J75000D01*
G01*
X149477020Y-159648300D01*
G75*
G02*
X149552020Y-159573300I75000J0D01*
G01*
X149702020Y-159573300D01*
G75*
G02*
X149777020Y-159648300I0J-75000D01*
G01*
X149777020Y-161048300D01*
G75*
G02*
X149702020Y-161123300I-75000J0D01*
G01*
G37*
G36*
G01*
X149202020Y-161123300D02*
X149052020Y-161123300D01*
G75*
G02*
X148977020Y-161048300I0J75000D01*
G01*
X148977020Y-159648300D01*
G75*
G02*
X149052020Y-159573300I75000J0D01*
G01*
X149202020Y-159573300D01*
G75*
G02*
X149277020Y-159648300I0J-75000D01*
G01*
X149277020Y-161048300D01*
G75*
G02*
X149202020Y-161123300I-75000J0D01*
G01*
G37*
G36*
G01*
X148702020Y-161123300D02*
X148552020Y-161123300D01*
G75*
G02*
X148477020Y-161048300I0J75000D01*
G01*
X148477020Y-159648300D01*
G75*
G02*
X148552020Y-159573300I75000J0D01*
G01*
X148702020Y-159573300D01*
G75*
G02*
X148777020Y-159648300I0J-75000D01*
G01*
X148777020Y-161048300D01*
G75*
G02*
X148702020Y-161123300I-75000J0D01*
G01*
G37*
G36*
G01*
X148202020Y-161123300D02*
X148052020Y-161123300D01*
G75*
G02*
X147977020Y-161048300I0J75000D01*
G01*
X147977020Y-159648300D01*
G75*
G02*
X148052020Y-159573300I75000J0D01*
G01*
X148202020Y-159573300D01*
G75*
G02*
X148277020Y-159648300I0J-75000D01*
G01*
X148277020Y-161048300D01*
G75*
G02*
X148202020Y-161123300I-75000J0D01*
G01*
G37*
G36*
G01*
X147702020Y-161123300D02*
X147552020Y-161123300D01*
G75*
G02*
X147477020Y-161048300I0J75000D01*
G01*
X147477020Y-159648300D01*
G75*
G02*
X147552020Y-159573300I75000J0D01*
G01*
X147702020Y-159573300D01*
G75*
G02*
X147777020Y-159648300I0J-75000D01*
G01*
X147777020Y-161048300D01*
G75*
G02*
X147702020Y-161123300I-75000J0D01*
G01*
G37*
G36*
G01*
X147202020Y-161123300D02*
X147052020Y-161123300D01*
G75*
G02*
X146977020Y-161048300I0J75000D01*
G01*
X146977020Y-159648300D01*
G75*
G02*
X147052020Y-159573300I75000J0D01*
G01*
X147202020Y-159573300D01*
G75*
G02*
X147277020Y-159648300I0J-75000D01*
G01*
X147277020Y-161048300D01*
G75*
G02*
X147202020Y-161123300I-75000J0D01*
G01*
G37*
G36*
G01*
X146702020Y-161123300D02*
X146552020Y-161123300D01*
G75*
G02*
X146477020Y-161048300I0J75000D01*
G01*
X146477020Y-159648300D01*
G75*
G02*
X146552020Y-159573300I75000J0D01*
G01*
X146702020Y-159573300D01*
G75*
G02*
X146777020Y-159648300I0J-75000D01*
G01*
X146777020Y-161048300D01*
G75*
G02*
X146702020Y-161123300I-75000J0D01*
G01*
G37*
G36*
G01*
X146202020Y-161123300D02*
X146052020Y-161123300D01*
G75*
G02*
X145977020Y-161048300I0J75000D01*
G01*
X145977020Y-159648300D01*
G75*
G02*
X146052020Y-159573300I75000J0D01*
G01*
X146202020Y-159573300D01*
G75*
G02*
X146277020Y-159648300I0J-75000D01*
G01*
X146277020Y-161048300D01*
G75*
G02*
X146202020Y-161123300I-75000J0D01*
G01*
G37*
G36*
G01*
X145702020Y-161123300D02*
X145552020Y-161123300D01*
G75*
G02*
X145477020Y-161048300I0J75000D01*
G01*
X145477020Y-159648300D01*
G75*
G02*
X145552020Y-159573300I75000J0D01*
G01*
X145702020Y-159573300D01*
G75*
G02*
X145777020Y-159648300I0J-75000D01*
G01*
X145777020Y-161048300D01*
G75*
G02*
X145702020Y-161123300I-75000J0D01*
G01*
G37*
G36*
G01*
X145202020Y-161123300D02*
X145052020Y-161123300D01*
G75*
G02*
X144977020Y-161048300I0J75000D01*
G01*
X144977020Y-159648300D01*
G75*
G02*
X145052020Y-159573300I75000J0D01*
G01*
X145202020Y-159573300D01*
G75*
G02*
X145277020Y-159648300I0J-75000D01*
G01*
X145277020Y-161048300D01*
G75*
G02*
X145202020Y-161123300I-75000J0D01*
G01*
G37*
G36*
G01*
X148999660Y-169216660D02*
X148999660Y-169766660D01*
G75*
G02*
X148799660Y-169966660I-200000J0D01*
G01*
X148399660Y-169966660D01*
G75*
G02*
X148199660Y-169766660I0J200000D01*
G01*
X148199660Y-169216660D01*
G75*
G02*
X148399660Y-169016660I200000J0D01*
G01*
X148799660Y-169016660D01*
G75*
G02*
X148999660Y-169216660I0J-200000D01*
G01*
G37*
G36*
G01*
X147349660Y-169216660D02*
X147349660Y-169766660D01*
G75*
G02*
X147149660Y-169966660I-200000J0D01*
G01*
X146749660Y-169966660D01*
G75*
G02*
X146549660Y-169766660I0J200000D01*
G01*
X146549660Y-169216660D01*
G75*
G02*
X146749660Y-169016660I200000J0D01*
G01*
X147149660Y-169016660D01*
G75*
G02*
X147349660Y-169216660I0J-200000D01*
G01*
G37*
G36*
G01*
X162859298Y-212680500D02*
X163759302Y-212680500D01*
G75*
G02*
X164009300Y-212930498I0J-249998D01*
G01*
X164009300Y-213455502D01*
G75*
G02*
X163759302Y-213705500I-249998J0D01*
G01*
X162859298Y-213705500D01*
G75*
G02*
X162609300Y-213455502I0J249998D01*
G01*
X162609300Y-212930498D01*
G75*
G02*
X162859298Y-212680500I249998J0D01*
G01*
G37*
G36*
G01*
X162859298Y-210855500D02*
X163759302Y-210855500D01*
G75*
G02*
X164009300Y-211105498I0J-249998D01*
G01*
X164009300Y-211630502D01*
G75*
G02*
X163759302Y-211880500I-249998J0D01*
G01*
X162859298Y-211880500D01*
G75*
G02*
X162609300Y-211630502I0J249998D01*
G01*
X162609300Y-211105498D01*
G75*
G02*
X162859298Y-210855500I249998J0D01*
G01*
G37*
G36*
G01*
X165574558Y-212784640D02*
X166474562Y-212784640D01*
G75*
G02*
X166724560Y-213034638I0J-249998D01*
G01*
X166724560Y-213559642D01*
G75*
G02*
X166474562Y-213809640I-249998J0D01*
G01*
X165574558Y-213809640D01*
G75*
G02*
X165324560Y-213559642I0J249998D01*
G01*
X165324560Y-213034638D01*
G75*
G02*
X165574558Y-212784640I249998J0D01*
G01*
G37*
G36*
G01*
X165574558Y-210959640D02*
X166474562Y-210959640D01*
G75*
G02*
X166724560Y-211209638I0J-249998D01*
G01*
X166724560Y-211734642D01*
G75*
G02*
X166474562Y-211984640I-249998J0D01*
G01*
X165574558Y-211984640D01*
G75*
G02*
X165324560Y-211734642I0J249998D01*
G01*
X165324560Y-211209638D01*
G75*
G02*
X165574558Y-210959640I249998J0D01*
G01*
G37*
G36*
G01*
X163676650Y-215856400D02*
X162764150Y-215856400D01*
G75*
G02*
X162520400Y-215612650I0J243750D01*
G01*
X162520400Y-215125150D01*
G75*
G02*
X162764150Y-214881400I243750J0D01*
G01*
X163676650Y-214881400D01*
G75*
G02*
X163920400Y-215125150I0J-243750D01*
G01*
X163920400Y-215612650D01*
G75*
G02*
X163676650Y-215856400I-243750J0D01*
G01*
G37*
G36*
G01*
X163676650Y-217731400D02*
X162764150Y-217731400D01*
G75*
G02*
X162520400Y-217487650I0J243750D01*
G01*
X162520400Y-217000150D01*
G75*
G02*
X162764150Y-216756400I243750J0D01*
G01*
X163676650Y-216756400D01*
G75*
G02*
X163920400Y-217000150I0J-243750D01*
G01*
X163920400Y-217487650D01*
G75*
G02*
X163676650Y-217731400I-243750J0D01*
G01*
G37*
G36*
G01*
X166419850Y-215894500D02*
X165507350Y-215894500D01*
G75*
G02*
X165263600Y-215650750I0J243750D01*
G01*
X165263600Y-215163250D01*
G75*
G02*
X165507350Y-214919500I243750J0D01*
G01*
X166419850Y-214919500D01*
G75*
G02*
X166663600Y-215163250I0J-243750D01*
G01*
X166663600Y-215650750D01*
G75*
G02*
X166419850Y-215894500I-243750J0D01*
G01*
G37*
G36*
G01*
X166419850Y-217769500D02*
X165507350Y-217769500D01*
G75*
G02*
X165263600Y-217525750I0J243750D01*
G01*
X165263600Y-217038250D01*
G75*
G02*
X165507350Y-216794500I243750J0D01*
G01*
X166419850Y-216794500D01*
G75*
G02*
X166663600Y-217038250I0J-243750D01*
G01*
X166663600Y-217525750D01*
G75*
G02*
X166419850Y-217769500I-243750J0D01*
G01*
G37*
G36*
G01*
X132316240Y-177390720D02*
X131366240Y-177390720D01*
G75*
G02*
X131116240Y-177140720I0J250000D01*
G01*
X131116240Y-176640720D01*
G75*
G02*
X131366240Y-176390720I250000J0D01*
G01*
X132316240Y-176390720D01*
G75*
G02*
X132566240Y-176640720I0J-250000D01*
G01*
X132566240Y-177140720D01*
G75*
G02*
X132316240Y-177390720I-250000J0D01*
G01*
G37*
G36*
G01*
X132316240Y-175490720D02*
X131366240Y-175490720D01*
G75*
G02*
X131116240Y-175240720I0J250000D01*
G01*
X131116240Y-174740720D01*
G75*
G02*
X131366240Y-174490720I250000J0D01*
G01*
X132316240Y-174490720D01*
G75*
G02*
X132566240Y-174740720I0J-250000D01*
G01*
X132566240Y-175240720D01*
G75*
G02*
X132316240Y-175490720I-250000J0D01*
G01*
G37*
G36*
G01*
X111325680Y-177258640D02*
X110375680Y-177258640D01*
G75*
G02*
X110125680Y-177008640I0J250000D01*
G01*
X110125680Y-176508640D01*
G75*
G02*
X110375680Y-176258640I250000J0D01*
G01*
X111325680Y-176258640D01*
G75*
G02*
X111575680Y-176508640I0J-250000D01*
G01*
X111575680Y-177008640D01*
G75*
G02*
X111325680Y-177258640I-250000J0D01*
G01*
G37*
G36*
G01*
X111325680Y-175358640D02*
X110375680Y-175358640D01*
G75*
G02*
X110125680Y-175108640I0J250000D01*
G01*
X110125680Y-174608640D01*
G75*
G02*
X110375680Y-174358640I250000J0D01*
G01*
X111325680Y-174358640D01*
G75*
G02*
X111575680Y-174608640I0J-250000D01*
G01*
X111575680Y-175108640D01*
G75*
G02*
X111325680Y-175358640I-250000J0D01*
G01*
G37*
G36*
G01*
X108740121Y-177259200D02*
X106540119Y-177259200D01*
G75*
G02*
X106290120Y-177009201I0J249999D01*
G01*
X106290120Y-176359199D01*
G75*
G02*
X106540119Y-176109200I249999J0D01*
G01*
X108740121Y-176109200D01*
G75*
G02*
X108990120Y-176359199I0J-249999D01*
G01*
X108990120Y-177009201D01*
G75*
G02*
X108740121Y-177259200I-249999J0D01*
G01*
G37*
G36*
G01*
X108740121Y-174309200D02*
X106540119Y-174309200D01*
G75*
G02*
X106290120Y-174059201I0J249999D01*
G01*
X106290120Y-173409199D01*
G75*
G02*
X106540119Y-173159200I249999J0D01*
G01*
X108740121Y-173159200D01*
G75*
G02*
X108990120Y-173409199I0J-249999D01*
G01*
X108990120Y-174059201D01*
G75*
G02*
X108740121Y-174309200I-249999J0D01*
G01*
G37*
G36*
G01*
X136319441Y-177401440D02*
X134119439Y-177401440D01*
G75*
G02*
X133869440Y-177151441I0J249999D01*
G01*
X133869440Y-176501439D01*
G75*
G02*
X134119439Y-176251440I249999J0D01*
G01*
X136319441Y-176251440D01*
G75*
G02*
X136569440Y-176501439I0J-249999D01*
G01*
X136569440Y-177151441D01*
G75*
G02*
X136319441Y-177401440I-249999J0D01*
G01*
G37*
G36*
G01*
X136319441Y-174451440D02*
X134119439Y-174451440D01*
G75*
G02*
X133869440Y-174201441I0J249999D01*
G01*
X133869440Y-173551439D01*
G75*
G02*
X134119439Y-173301440I249999J0D01*
G01*
X136319441Y-173301440D01*
G75*
G02*
X136569440Y-173551439I0J-249999D01*
G01*
X136569440Y-174201441D01*
G75*
G02*
X136319441Y-174451440I-249999J0D01*
G01*
G37*
G36*
G01*
X110294400Y-179621520D02*
X111244400Y-179621520D01*
G75*
G02*
X111494400Y-179871520I0J-250000D01*
G01*
X111494400Y-180371520D01*
G75*
G02*
X111244400Y-180621520I-250000J0D01*
G01*
X110294400Y-180621520D01*
G75*
G02*
X110044400Y-180371520I0J250000D01*
G01*
X110044400Y-179871520D01*
G75*
G02*
X110294400Y-179621520I250000J0D01*
G01*
G37*
G36*
G01*
X110294400Y-181521520D02*
X111244400Y-181521520D01*
G75*
G02*
X111494400Y-181771520I0J-250000D01*
G01*
X111494400Y-182271520D01*
G75*
G02*
X111244400Y-182521520I-250000J0D01*
G01*
X110294400Y-182521520D01*
G75*
G02*
X110044400Y-182271520I0J250000D01*
G01*
X110044400Y-181771520D01*
G75*
G02*
X110294400Y-181521520I250000J0D01*
G01*
G37*
G36*
G01*
X131335760Y-179245600D02*
X132285760Y-179245600D01*
G75*
G02*
X132535760Y-179495600I0J-250000D01*
G01*
X132535760Y-179995600D01*
G75*
G02*
X132285760Y-180245600I-250000J0D01*
G01*
X131335760Y-180245600D01*
G75*
G02*
X131085760Y-179995600I0J250000D01*
G01*
X131085760Y-179495600D01*
G75*
G02*
X131335760Y-179245600I250000J0D01*
G01*
G37*
G36*
G01*
X131335760Y-181145600D02*
X132285760Y-181145600D01*
G75*
G02*
X132535760Y-181395600I0J-250000D01*
G01*
X132535760Y-181895600D01*
G75*
G02*
X132285760Y-182145600I-250000J0D01*
G01*
X131335760Y-182145600D01*
G75*
G02*
X131085760Y-181895600I0J250000D01*
G01*
X131085760Y-181395600D01*
G75*
G02*
X131335760Y-181145600I250000J0D01*
G01*
G37*
G36*
G01*
X134088959Y-179265360D02*
X136288961Y-179265360D01*
G75*
G02*
X136538960Y-179515359I0J-249999D01*
G01*
X136538960Y-180165361D01*
G75*
G02*
X136288961Y-180415360I-249999J0D01*
G01*
X134088959Y-180415360D01*
G75*
G02*
X133838960Y-180165361I0J249999D01*
G01*
X133838960Y-179515359D01*
G75*
G02*
X134088959Y-179265360I249999J0D01*
G01*
G37*
G36*
G01*
X134088959Y-182215360D02*
X136288961Y-182215360D01*
G75*
G02*
X136538960Y-182465359I0J-249999D01*
G01*
X136538960Y-183115361D01*
G75*
G02*
X136288961Y-183365360I-249999J0D01*
G01*
X134088959Y-183365360D01*
G75*
G02*
X133838960Y-183115361I0J249999D01*
G01*
X133838960Y-182465359D01*
G75*
G02*
X134088959Y-182215360I249999J0D01*
G01*
G37*
G36*
G01*
X106448679Y-179585400D02*
X108648681Y-179585400D01*
G75*
G02*
X108898680Y-179835399I0J-249999D01*
G01*
X108898680Y-180485401D01*
G75*
G02*
X108648681Y-180735400I-249999J0D01*
G01*
X106448679Y-180735400D01*
G75*
G02*
X106198680Y-180485401I0J249999D01*
G01*
X106198680Y-179835399D01*
G75*
G02*
X106448679Y-179585400I249999J0D01*
G01*
G37*
G36*
G01*
X106448679Y-182535400D02*
X108648681Y-182535400D01*
G75*
G02*
X108898680Y-182785399I0J-249999D01*
G01*
X108898680Y-183435401D01*
G75*
G02*
X108648681Y-183685400I-249999J0D01*
G01*
X106448679Y-183685400D01*
G75*
G02*
X106198680Y-183435401I0J249999D01*
G01*
X106198680Y-182785399D01*
G75*
G02*
X106448679Y-182535400I249999J0D01*
G01*
G37*
G36*
G01*
X166768760Y-121764640D02*
X167718760Y-121764640D01*
G75*
G02*
X167968760Y-122014640I0J-250000D01*
G01*
X167968760Y-122514640D01*
G75*
G02*
X167718760Y-122764640I-250000J0D01*
G01*
X166768760Y-122764640D01*
G75*
G02*
X166518760Y-122514640I0J250000D01*
G01*
X166518760Y-122014640D01*
G75*
G02*
X166768760Y-121764640I250000J0D01*
G01*
G37*
G36*
G01*
X166768760Y-119864640D02*
X167718760Y-119864640D01*
G75*
G02*
X167968760Y-120114640I0J-250000D01*
G01*
X167968760Y-120614640D01*
G75*
G02*
X167718760Y-120864640I-250000J0D01*
G01*
X166768760Y-120864640D01*
G75*
G02*
X166518760Y-120614640I0J250000D01*
G01*
X166518760Y-120114640D01*
G75*
G02*
X166768760Y-119864640I250000J0D01*
G01*
G37*
G36*
G01*
X158382120Y-139032000D02*
X158382120Y-138082000D01*
G75*
G02*
X158632120Y-137832000I250000J0D01*
G01*
X159132120Y-137832000D01*
G75*
G02*
X159382120Y-138082000I0J-250000D01*
G01*
X159382120Y-139032000D01*
G75*
G02*
X159132120Y-139282000I-250000J0D01*
G01*
X158632120Y-139282000D01*
G75*
G02*
X158382120Y-139032000I0J250000D01*
G01*
G37*
G36*
G01*
X156482120Y-139032000D02*
X156482120Y-138082000D01*
G75*
G02*
X156732120Y-137832000I250000J0D01*
G01*
X157232120Y-137832000D01*
G75*
G02*
X157482120Y-138082000I0J-250000D01*
G01*
X157482120Y-139032000D01*
G75*
G02*
X157232120Y-139282000I-250000J0D01*
G01*
X156732120Y-139282000D01*
G75*
G02*
X156482120Y-139032000I0J250000D01*
G01*
G37*
G36*
G01*
X166768760Y-132021920D02*
X167718760Y-132021920D01*
G75*
G02*
X167968760Y-132271920I0J-250000D01*
G01*
X167968760Y-132771920D01*
G75*
G02*
X167718760Y-133021920I-250000J0D01*
G01*
X166768760Y-133021920D01*
G75*
G02*
X166518760Y-132771920I0J250000D01*
G01*
X166518760Y-132271920D01*
G75*
G02*
X166768760Y-132021920I250000J0D01*
G01*
G37*
G36*
G01*
X166768760Y-130121920D02*
X167718760Y-130121920D01*
G75*
G02*
X167968760Y-130371920I0J-250000D01*
G01*
X167968760Y-130871920D01*
G75*
G02*
X167718760Y-131121920I-250000J0D01*
G01*
X166768760Y-131121920D01*
G75*
G02*
X166518760Y-130871920I0J250000D01*
G01*
X166518760Y-130371920D01*
G75*
G02*
X166768760Y-130121920I250000J0D01*
G01*
G37*
G36*
G01*
X149951820Y-167924500D02*
X149951820Y-166974500D01*
G75*
G02*
X150201820Y-166724500I250000J0D01*
G01*
X150701820Y-166724500D01*
G75*
G02*
X150951820Y-166974500I0J-250000D01*
G01*
X150951820Y-167924500D01*
G75*
G02*
X150701820Y-168174500I-250000J0D01*
G01*
X150201820Y-168174500D01*
G75*
G02*
X149951820Y-167924500I0J250000D01*
G01*
G37*
G36*
G01*
X148051820Y-167924500D02*
X148051820Y-166974500D01*
G75*
G02*
X148301820Y-166724500I250000J0D01*
G01*
X148801820Y-166724500D01*
G75*
G02*
X149051820Y-166974500I0J-250000D01*
G01*
X149051820Y-167924500D01*
G75*
G02*
X148801820Y-168174500I-250000J0D01*
G01*
X148301820Y-168174500D01*
G75*
G02*
X148051820Y-167924500I0J250000D01*
G01*
G37*
G36*
G01*
X145544120Y-166974500D02*
X145544120Y-167924500D01*
G75*
G02*
X145294120Y-168174500I-250000J0D01*
G01*
X144794120Y-168174500D01*
G75*
G02*
X144544120Y-167924500I0J250000D01*
G01*
X144544120Y-166974500D01*
G75*
G02*
X144794120Y-166724500I250000J0D01*
G01*
X145294120Y-166724500D01*
G75*
G02*
X145544120Y-166974500I0J-250000D01*
G01*
G37*
G36*
G01*
X147444120Y-166974500D02*
X147444120Y-167924500D01*
G75*
G02*
X147194120Y-168174500I-250000J0D01*
G01*
X146694120Y-168174500D01*
G75*
G02*
X146444120Y-167924500I0J250000D01*
G01*
X146444120Y-166974500D01*
G75*
G02*
X146694120Y-166724500I250000J0D01*
G01*
X147194120Y-166724500D01*
G75*
G02*
X147444120Y-166974500I0J-250000D01*
G01*
G37*
M02*
