M48
; DRILL file {KiCad 5.1.9} date Sun Jul 18 14:13:45 2021
; FORMAT={-:-/ absolute / metric / decimal}
; #@! TF.CreationDate,2021-07-18T14:13:45+08:00
; #@! TF.GenerationSoftware,Kicad,Pcbnew,5.1.9
; #@! TF.FileFunction,Plated,1,4,PTH
FMAT,2
METRIC
T1C0.300
T2C0.600
T3C0.700
T4C0.800
T5C1.000
T6C1.200
T7C1.400
T8C1.500
T9C2.000
T10C3.200
%
G90
G05
T1
X104.964Y-180.16
X105.103Y-176.684
X105.202Y-173.734
X105.22Y-183.11
X105.357Y-124.176
X106.248Y-124.176
X107.109Y-138.29
X107.15Y-124.176
X109.55Y-168.819
X111.166Y-145.628
X111.211Y-128.514
X111.211Y-129.814
X111.211Y-131.114
X111.831Y-138.29
X112.736Y-133.933
X112.991Y-128.514
X112.991Y-129.814
X112.991Y-131.114
X114.117Y-178.438
X114.254Y-165.677
X114.771Y-128.514
X114.771Y-129.814
X114.771Y-131.114
X114.775Y-164.092
X115.461Y-136.276
X115.603Y-158.034
X116.551Y-128.514
X116.551Y-129.814
X116.551Y-131.114
X116.999Y-136.966
X117.047Y-147.446
X117.128Y-139.808
X117.137Y-158.041
X117.286Y-134.043
X117.867Y-135.472
X118.331Y-128.514
X118.331Y-129.814
X118.331Y-131.114
X118.473Y-150.632
X118.586Y-133.722
X119.647Y-154.005
X120.111Y-128.514
X120.111Y-129.814
X120.111Y-131.114
X120.167Y-138.926
X120.297Y-143.355
X120.637Y-181.613
X120.637Y-182.883
X120.637Y-184.153
X120.87Y-147.624
X121.648Y-157.922
X121.907Y-181.613
X121.907Y-182.883
X121.907Y-184.153
X122.275Y-154.069
X123.802Y-150.769
X124.129Y-124.176
X124.197Y-143.839
X124.968Y-124.176
X125.115Y-157.899
X125.847Y-124.176
X126.665Y-158.036
X127.864Y-147.803
X128.194Y-164.127
X128.209Y-178.438
X128.465Y-165.677
X128.538Y-124.176
X129.413Y-124.176
X129.479Y-148.498
X130.327Y-124.176
X132.019Y-149.238
X133.248Y-168.572
X133.441Y-138.326
X133.612Y-201.706
X133.67Y-208.849
X133.934Y-160.177
X134.701Y-128.514
X134.701Y-129.814
X134.701Y-131.114
X136.224Y-133.92
X136.481Y-128.514
X136.481Y-129.814
X136.481Y-131.114
X137.497Y-182.79
X137.579Y-159.06
X137.66Y-173.876
X137.87Y-179.84
X138.008Y-176.826
X138.072Y-150.023
X138.125Y-137.498
X138.261Y-128.514
X138.261Y-129.814
X138.261Y-131.114
X138.984Y-153.17
X139.68Y-140.266
X139.954Y-139.131
X140.041Y-128.514
X140.041Y-129.814
X140.041Y-131.114
X140.665Y-153.81
X140.731Y-137.391
X141.379Y-138.958
X141.475Y-160.556
X141.508Y-143.827
X141.613Y-165.682
X141.821Y-128.514
X141.821Y-129.814
X141.821Y-131.114
X142.07Y-141.227
X142.185Y-133.89
X142.24Y-167.132
X142.428Y-148.275
X142.73Y-142.773
X143.36Y-148.975
X143.601Y-128.514
X143.601Y-129.814
X143.601Y-131.114
X143.932Y-204.77
X144.201Y-143.84
X145.064Y-151.98
X145.501Y-204.721
X145.6Y-155.161
X146.106Y-152.014
X146.598Y-153.523
X146.693Y-200.116
X146.777Y-156.544
X146.86Y-145.232
X147.046Y-151.597
X147.442Y-145.753
X147.483Y-204.79
X147.741Y-124.176
X147.927Y-171.059
X148.181Y-153.198
X148.346Y-150.774
X148.6Y-161.813
X148.729Y-124.176
X149.024Y-133.121
X149.024Y-146.789
X149.33Y-200.385
X149.459Y-199.283
X149.606Y-152.527
X149.779Y-156.923
X149.794Y-124.176
X150.114Y-143.51
X151.605Y-152.86
X151.768Y-145.854
X151.82Y-120.824
X151.859Y-147.34
X152.146Y-140.584
X152.557Y-171.861
X153.099Y-151.923
X153.132Y-166.207
X153.7Y-134.348
X154.32Y-132.344
X154.67Y-126.024
X154.76Y-128.115
X154.762Y-146.932
X155.423Y-164.247
X156.373Y-142.756
X157.233Y-164.377
X157.243Y-162.765
X157.249Y-161.821
X157.328Y-145.529
X157.456Y-133.531
X157.515Y-123.215
X157.647Y-155.595
X157.708Y-148.938
X157.973Y-139.936
X159.22Y-145.339
X159.233Y-157.359
X159.258Y-148.994
X160.046Y-117.699
X160.21Y-156.424
X160.365Y-146.779
X160.625Y-150.884
X161.067Y-186.908
X161.313Y-117.577
X161.323Y-179.474
X161.427Y-193.017
X162.133Y-152.855
X162.345Y-209.666
X162.883Y-117.505
X163.22Y-195.204
X163.815Y-127.798
X163.851Y-177.037
X163.997Y-144.338
X164.422Y-117.62
X164.43Y-177.617
X165.948Y-108.829
X166.495Y-135.093
X167.251Y-142.603
X167.305Y-138.532
X167.818Y-167.386
X168.158Y-174.198
X169.352Y-120.371
X169.598Y-124.255
X170.4Y-108.812
X171.348Y-161.214
X172.476Y-161.229
X174.958Y-156.053
X175.124Y-169.901
X175.124Y-171.201
X175.124Y-172.501
X176.424Y-169.901
X176.424Y-171.201
X176.424Y-172.501
X177.688Y-175.567
X177.724Y-169.901
X177.724Y-171.201
X177.724Y-172.501
X178.883Y-153.453
X178.883Y-154.753
X178.883Y-156.053
X178.883Y-157.353
X178.883Y-158.653
X179.024Y-169.901
X179.024Y-171.201
X179.024Y-172.501
X180.183Y-153.453
X180.183Y-154.753
X180.183Y-156.053
X180.183Y-157.353
X180.183Y-158.653
X180.324Y-169.901
X180.324Y-171.201
X180.324Y-172.501
X181.483Y-153.453
X181.483Y-154.753
X181.483Y-156.053
X181.483Y-157.353
X181.483Y-158.653
X186.563Y-143.134
X187.432Y-208.867
X188.615Y-208.867
T3
X159.918Y-166.856
X159.918Y-168.356
T4
X144.465Y-185.352
X144.465Y-187.852
X144.465Y-192.72
X144.465Y-195.22
T5
X140.46Y-108.383
X143.0Y-108.383
X145.54Y-108.383
X174.5Y-214.5
X174.5Y-217.0
X177.0Y-217.0
X179.5Y-214.5
X179.5Y-217.0
X185.128Y-165.265
X185.128Y-167.805
X185.128Y-170.345
X187.668Y-165.265
X187.668Y-167.805
X187.668Y-170.345
T6
X114.57Y-106.5
X118.38Y-106.5
X122.19Y-106.5
X126.0Y-106.5
X164.589Y-185.689
X165.542Y-198.834
X170.177Y-192.992
X172.59Y-186.832
X174.559Y-197.056
X176.718Y-204.041
X176.936Y-122.316
X178.94Y-179.403
X179.829Y-187.848
X180.337Y-194.516
X181.936Y-122.316
X187.894Y-194.008
T7
X111.77Y-202.8
X111.77Y-209.15
X111.77Y-215.5
X128.0Y-202.8
X128.0Y-209.15
X128.0Y-215.5
T8
X153.726Y-102.035
X153.726Y-107.115
X156.266Y-104.575
X158.806Y-102.035
X158.806Y-107.115
T10
X104.0Y-111.5
X104.0Y-216.0
X190.0Y-115.0
X190.0Y-216.0
T2
G00X163.68Y-101.36
M15
G01X163.68Y-102.16
M16
G05
G00X163.68Y-105.38
M15
G01X163.68Y-106.48
M16
G05
G00X172.32Y-101.36
M15
G01X172.32Y-102.16
M16
G05
G00X172.32Y-105.38
M15
G01X172.32Y-106.48
M16
G05
T4
G00X176.0Y-101.4
M15
G01X176.0Y-102.6
M16
G05
G00X176.5Y-108.7
M15
G01X176.5Y-109.9
M16
G05
G00X179.7Y-108.7
M15
G01X179.7Y-109.9
M16
G05
G00X184.9Y-108.7
M15
G01X184.9Y-109.9
M16
G05
G00X186.1Y-101.4
M15
G01X186.1Y-102.6
M16
G05
T9
G00X171.45Y-215.75
M15
G01X171.55Y-215.75
M16
G05
G00X182.45Y-215.75
M15
G01X182.55Y-215.75
M16
G05
T0
M30
