M48
; DRILL file {KiCad 5.1.9} date Mon May 10 13:44:35 2021
; FORMAT={-:-/ absolute / metric / decimal}
; #@! TF.CreationDate,2021-05-10T13:44:35+08:00
; #@! TF.GenerationSoftware,Kicad,Pcbnew,5.1.9
; #@! TF.FileFunction,Plated,1,2,PTH
FMAT,2
METRIC
T1C0.300
T2C0.800
T3C0.920
T4C1.000
T5C1.400
T6C2.330
T7C3.200
%
G90
G05
T1
X55.81Y-131.502
X57.724Y-103.825
X60.137Y-127.569
X62.039Y-102.679
X64.135Y-86.931
X65.913Y-77.216
X65.996Y-110.192
X66.018Y-72.425
X66.018Y-73.625
X67.118Y-72.425
X67.118Y-73.625
X67.754Y-89.916
X67.754Y-100.693
X68.418Y-72.425
X68.418Y-73.625
X69.618Y-72.425
X69.618Y-73.625
X69.937Y-121.753
X71.945Y-101.663
X73.406Y-89.471
X74.486Y-87.058
X74.653Y-78.399
X75.501Y-94.17
X77.851Y-74.93
X78.105Y-104.521
X78.93Y-95.504
X81.278Y-115.636
X81.346Y-73.409
X81.915Y-90.797
X83.883Y-95.313
X83.956Y-110.417
X89.852Y-107.886
X90.297Y-117.157
X91.249Y-131.953
X93.472Y-124.079
X93.472Y-125.349
X93.487Y-132.603
X93.677Y-116.952
X94.615Y-112.712
X94.678Y-70.739
X94.678Y-98.806
X94.742Y-124.079
X94.742Y-125.349
X96.012Y-124.079
X96.012Y-125.349
X96.266Y-105.219
X96.266Y-108.585
X99.377Y-86.868
X100.584Y-98.298
X101.155Y-113.792
X103.251Y-85.153
X103.759Y-63.881
X103.95Y-89.98
X105.078Y-116.888
X105.108Y-134.478
X105.204Y-132.603
X106.957Y-131.214
X106.983Y-117.363
X106.997Y-82.423
X107.315Y-100.33
X107.696Y-105.41
X108.267Y-112.459
X108.966Y-69.215
X109.029Y-136.525
X109.664Y-105.029
X109.791Y-73.215
X109.791Y-83.376
X109.791Y-92.329
X110.553Y-97.599
X110.871Y-102.743
X111.268Y-84.502
X111.268Y-92.646
X111.284Y-75.47
X111.506Y-96.647
X111.633Y-101.854
X112.776Y-84.391
X113.07Y-101.75
X113.096Y-135.633
X113.159Y-113.789
X113.728Y-80.328
X114.363Y-134.81
X114.995Y-99.698
X114.998Y-82.042
X115.059Y-114.747
X115.824Y-69.532
X116.205Y-85.979
X116.995Y-85.316
X117.919Y-86.741
X117.983Y-108.267
X117.995Y-106.477
X118.427Y-87.884
X118.957Y-98.62
X118.995Y-89.031
X119.495Y-92.19
X120.015Y-81.788
X120.968Y-86.995
X120.995Y-99.286
X121.852Y-96.143
X121.888Y-82.772
X122.11Y-93.091
X122.142Y-84.169
X123.444Y-81.026
X124.587Y-65.532
X125.095Y-119.253
X125.285Y-71.945
X125.554Y-126.111
X126.619Y-138.811
X126.621Y-135.316
X126.682Y-79.883
X126.746Y-94.17
X127.002Y-89.347
X127.032Y-108.045
X127.437Y-126.103
X128.333Y-115.57
X128.522Y-135.257
X128.903Y-89.156
X129.553Y-84.048
X130.556Y-104.521
X130.619Y-88.392
X130.683Y-82.74
X131.957Y-96.143
X132.017Y-113.03
X132.461Y-93.091
X133.418Y-56.007
X135.255Y-77.597
X136.144Y-136.588
X137.922Y-115.57
X138.62Y-100.901
X139.319Y-98.87
X140.01Y-124.325
X140.335Y-132.969
X141.351Y-97.155
X142.24Y-137.414
X142.748Y-135.128
X144.677Y-124.499
T3
X86.487Y-62.897
X86.487Y-64.897
X88.987Y-62.897
X88.987Y-64.897
T4
X98.298Y-146.177
X100.838Y-146.177
X103.378Y-58.468
X103.378Y-146.177
X105.918Y-58.468
X105.918Y-146.177
X108.458Y-58.468
X116.713Y-146.24
X119.253Y-146.24
X121.793Y-146.24
X124.333Y-146.24
X145.161Y-83.312
X145.161Y-85.852
X145.161Y-88.392
X145.161Y-90.932
X145.161Y-93.472
X145.161Y-96.012
X145.161Y-98.552
X145.161Y-101.092
X145.161Y-103.632
X145.161Y-106.172
T5
X64.415Y-131.445
X64.415Y-137.795
X64.415Y-144.145
X80.645Y-131.445
X80.645Y-137.795
X80.645Y-144.145
T6
X81.717Y-60.187
X93.757Y-60.187
T7
X55.0Y-55.0
X55.0Y-75.0
X55.0Y-115.0
X55.0Y-145.0
X145.0Y-55.0
X145.0Y-75.0
X145.0Y-115.0
X145.0Y-145.0
T2
G00X64.389Y-52.486
M15
G01X64.389Y-53.686
M16
G05
G00X64.889Y-59.786
M15
G01X64.889Y-60.986
M16
G05
G00X68.089Y-59.786
M15
G01X68.089Y-60.986
M16
G05
G00X73.289Y-59.786
M15
G01X73.289Y-60.986
M16
G05
G00X74.489Y-52.486
M15
G01X74.489Y-53.686
M16
G05
G00X86.348Y-137.537
M15
G01X86.348Y-137.037
M16
G05
G00X86.348Y-140.737
M15
G01X86.348Y-140.237
M16
G05
G00X86.348Y-143.937
M15
G01X86.348Y-143.437
M16
G05
G00X86.348Y-147.137
M15
G01X86.348Y-146.637
M16
G05
G00X91.948Y-137.537
M15
G01X91.948Y-137.037
M16
G05
G00X91.948Y-140.737
M15
G01X91.948Y-140.237
M16
G05
G00X91.948Y-143.937
M15
G01X91.948Y-143.437
M16
G05
G00X91.948Y-147.137
M15
G01X91.948Y-146.637
M16
G05
T0
M30
