G04 #@! TF.GenerationSoftware,KiCad,Pcbnew,5.1.9*
G04 #@! TF.CreationDate,2021-05-10T13:45:01+08:00*
G04 #@! TF.ProjectId,digital-amplifier2,64696769-7461-46c2-9d61-6d706c696669,rev?*
G04 #@! TF.SameCoordinates,Original*
G04 #@! TF.FileFunction,Legend,Bot*
G04 #@! TF.FilePolarity,Positive*
%FSLAX46Y46*%
G04 Gerber Fmt 4.6, Leading zero omitted, Abs format (unit mm)*
G04 Created by KiCad (PCBNEW 5.1.9) date 2021-05-10 13:45:01*
%MOMM*%
%LPD*%
G01*
G04 APERTURE LIST*
%ADD10C,0.120000*%
%ADD11C,0.150000*%
G04 APERTURE END LIST*
D10*
X126753252Y-126846000D02*
X126230748Y-126846000D01*
X126753252Y-125376000D02*
X126230748Y-125376000D01*
D11*
X127134857Y-124818142D02*
X127182476Y-124865761D01*
X127325333Y-124913380D01*
X127420571Y-124913380D01*
X127563428Y-124865761D01*
X127658666Y-124770523D01*
X127706285Y-124675285D01*
X127753904Y-124484809D01*
X127753904Y-124341952D01*
X127706285Y-124151476D01*
X127658666Y-124056238D01*
X127563428Y-123961000D01*
X127420571Y-123913380D01*
X127325333Y-123913380D01*
X127182476Y-123961000D01*
X127134857Y-124008619D01*
X126230095Y-123913380D02*
X126706285Y-123913380D01*
X126753904Y-124389571D01*
X126706285Y-124341952D01*
X126611047Y-124294333D01*
X126372952Y-124294333D01*
X126277714Y-124341952D01*
X126230095Y-124389571D01*
X126182476Y-124484809D01*
X126182476Y-124722904D01*
X126230095Y-124818142D01*
X126277714Y-124865761D01*
X126372952Y-124913380D01*
X126611047Y-124913380D01*
X126706285Y-124865761D01*
X126753904Y-124818142D01*
X125611047Y-124341952D02*
X125706285Y-124294333D01*
X125753904Y-124246714D01*
X125801523Y-124151476D01*
X125801523Y-124103857D01*
X125753904Y-124008619D01*
X125706285Y-123961000D01*
X125611047Y-123913380D01*
X125420571Y-123913380D01*
X125325333Y-123961000D01*
X125277714Y-124008619D01*
X125230095Y-124103857D01*
X125230095Y-124151476D01*
X125277714Y-124246714D01*
X125325333Y-124294333D01*
X125420571Y-124341952D01*
X125611047Y-124341952D01*
X125706285Y-124389571D01*
X125753904Y-124437190D01*
X125801523Y-124532428D01*
X125801523Y-124722904D01*
X125753904Y-124818142D01*
X125706285Y-124865761D01*
X125611047Y-124913380D01*
X125420571Y-124913380D01*
X125325333Y-124865761D01*
X125277714Y-124818142D01*
X125230095Y-124722904D01*
X125230095Y-124532428D01*
X125277714Y-124437190D01*
X125325333Y-124389571D01*
X125420571Y-124341952D01*
M02*
