G04 #@! TF.GenerationSoftware,KiCad,Pcbnew,5.1.9*
G04 #@! TF.CreationDate,2021-05-10T13:45:01+08:00*
G04 #@! TF.ProjectId,digital-amplifier2,64696769-7461-46c2-9d61-6d706c696669,rev?*
G04 #@! TF.SameCoordinates,Original*
G04 #@! TF.FileFunction,Soldermask,Bot*
G04 #@! TF.FilePolarity,Negative*
%FSLAX46Y46*%
G04 Gerber Fmt 4.6, Leading zero omitted, Abs format (unit mm)*
G04 Created by KiCad (PCBNEW 5.1.9) date 2021-05-10 13:45:01*
%MOMM*%
%LPD*%
G01*
G04 APERTURE LIST*
%ADD10C,0.702000*%
%ADD11O,1.802000X1.802000*%
%ADD12C,3.102000*%
%ADD13C,1.952000*%
%ADD14O,1.102000X2.302000*%
%ADD15C,6.502000*%
%ADD16O,1.502000X2.102000*%
%ADD17C,1.702000*%
%ADD18C,1.902000*%
%ADD19C,2.602000*%
%ADD20C,3.602000*%
%ADD21C,1.802000*%
%ADD22C,0.100000*%
G04 APERTURE END LIST*
D10*
X93472000Y-125349000D03*
X93472000Y-124079000D03*
X94742000Y-125349000D03*
X94742000Y-124079000D03*
X96012000Y-125349000D03*
X96012000Y-124079000D03*
D11*
X116713000Y-146240500D03*
X119253000Y-146240500D03*
X121793000Y-146240500D03*
G36*
G01*
X123483000Y-145339500D02*
X125183000Y-145339500D01*
G75*
G02*
X125234000Y-145390500I0J-51000D01*
G01*
X125234000Y-147090500D01*
G75*
G02*
X125183000Y-147141500I-51000J0D01*
G01*
X123483000Y-147141500D01*
G75*
G02*
X123432000Y-147090500I0J51000D01*
G01*
X123432000Y-145390500D01*
G75*
G02*
X123483000Y-145339500I51000J0D01*
G01*
G37*
D12*
X64415000Y-131445000D03*
X64415000Y-144145000D03*
X64415000Y-137795000D03*
X80645000Y-131445000D03*
X80645000Y-144145000D03*
X80645000Y-137795000D03*
D13*
X68089000Y-54186000D03*
D14*
X74489000Y-53086000D03*
X73289000Y-60386000D03*
X68089000Y-60386000D03*
X64889000Y-60386000D03*
X64389000Y-53086000D03*
D11*
X145161000Y-106172000D03*
X145161000Y-103632000D03*
X145161000Y-101092000D03*
X145161000Y-98552000D03*
X145161000Y-96012000D03*
X145161000Y-93472000D03*
X145161000Y-90932000D03*
X145161000Y-88392000D03*
X145161000Y-85852000D03*
G36*
G01*
X144260000Y-84162000D02*
X144260000Y-82462000D01*
G75*
G02*
X144311000Y-82411000I51000J0D01*
G01*
X146011000Y-82411000D01*
G75*
G02*
X146062000Y-82462000I0J-51000D01*
G01*
X146062000Y-84162000D01*
G75*
G02*
X146011000Y-84213000I-51000J0D01*
G01*
X144311000Y-84213000D01*
G75*
G02*
X144260000Y-84162000I0J51000D01*
G01*
G37*
D15*
X145000000Y-115000000D03*
X55000000Y-115000000D03*
X145000000Y-75000000D03*
X55000000Y-75000000D03*
D16*
X86348000Y-146887000D03*
X86348000Y-143687000D03*
X86348000Y-140487000D03*
X86348000Y-137287000D03*
D17*
X89148000Y-137287000D03*
X89148000Y-146087000D03*
D16*
X91948000Y-143687000D03*
X91948000Y-140487000D03*
X91948000Y-137287000D03*
X91948000Y-146887000D03*
D18*
X108458000Y-58468250D03*
X103378000Y-58468250D03*
X105918000Y-58468250D03*
D19*
X105918000Y-54518250D03*
X101318000Y-60518250D03*
X110518000Y-60518250D03*
D11*
X98298000Y-146177000D03*
X100838000Y-146177000D03*
X103378000Y-146177000D03*
G36*
G01*
X105068000Y-145276000D02*
X106768000Y-145276000D01*
G75*
G02*
X106819000Y-145327000I0J-51000D01*
G01*
X106819000Y-147027000D01*
G75*
G02*
X106768000Y-147078000I-51000J0D01*
G01*
X105068000Y-147078000D01*
G75*
G02*
X105017000Y-147027000I0J51000D01*
G01*
X105017000Y-145327000D01*
G75*
G02*
X105068000Y-145276000I51000J0D01*
G01*
G37*
D20*
X93757000Y-60187000D03*
X81717000Y-60187000D03*
D21*
X86487000Y-62897000D03*
X88987000Y-62897000D03*
X88987000Y-64897000D03*
G36*
G01*
X87337000Y-65798000D02*
X85637000Y-65798000D01*
G75*
G02*
X85586000Y-65747000I0J51000D01*
G01*
X85586000Y-64047000D01*
G75*
G02*
X85637000Y-63996000I51000J0D01*
G01*
X87337000Y-63996000D01*
G75*
G02*
X87388000Y-64047000I0J-51000D01*
G01*
X87388000Y-65747000D01*
G75*
G02*
X87337000Y-65798000I-51000J0D01*
G01*
G37*
G36*
G01*
X126093000Y-125610500D02*
X126093000Y-126611500D01*
G75*
G02*
X125817500Y-126887000I-275500J0D01*
G01*
X125266500Y-126887000D01*
G75*
G02*
X124991000Y-126611500I0J275500D01*
G01*
X124991000Y-125610500D01*
G75*
G02*
X125266500Y-125335000I275500J0D01*
G01*
X125817500Y-125335000D01*
G75*
G02*
X126093000Y-125610500I0J-275500D01*
G01*
G37*
G36*
G01*
X127993000Y-125610500D02*
X127993000Y-126611500D01*
G75*
G02*
X127717500Y-126887000I-275500J0D01*
G01*
X127166500Y-126887000D01*
G75*
G02*
X126891000Y-126611500I0J275500D01*
G01*
X126891000Y-125610500D01*
G75*
G02*
X127166500Y-125335000I275500J0D01*
G01*
X127717500Y-125335000D01*
G75*
G02*
X127993000Y-125610500I0J-275500D01*
G01*
G37*
D15*
X145000000Y-145000000D03*
X55000000Y-55000000D03*
X55000000Y-145000000D03*
X145000000Y-55000000D03*
D22*
G36*
X89164684Y-63774864D02*
G01*
X89165074Y-63776826D01*
X89163761Y-63778097D01*
X89146369Y-63783373D01*
X89125105Y-63794738D01*
X89106468Y-63810033D01*
X89091173Y-63828670D01*
X89079808Y-63849934D01*
X89072808Y-63873009D01*
X89070445Y-63897000D01*
X89072808Y-63920991D01*
X89079808Y-63944066D01*
X89091173Y-63965330D01*
X89106468Y-63983967D01*
X89125105Y-63999262D01*
X89146369Y-64010627D01*
X89163761Y-64015903D01*
X89165128Y-64017363D01*
X89164547Y-64019277D01*
X89162790Y-64019779D01*
X89075114Y-64002339D01*
X88898886Y-64002339D01*
X88811210Y-64019779D01*
X88809316Y-64019136D01*
X88808926Y-64017174D01*
X88810239Y-64015903D01*
X88827631Y-64010627D01*
X88848895Y-63999262D01*
X88867532Y-63983967D01*
X88882827Y-63965330D01*
X88894192Y-63944066D01*
X88901192Y-63920991D01*
X88903555Y-63897000D01*
X88901192Y-63873009D01*
X88894192Y-63849934D01*
X88882827Y-63828670D01*
X88867532Y-63810033D01*
X88848895Y-63794738D01*
X88827631Y-63783373D01*
X88810239Y-63778097D01*
X88808872Y-63776637D01*
X88809453Y-63774723D01*
X88811210Y-63774221D01*
X88898886Y-63791661D01*
X89075114Y-63791661D01*
X89162790Y-63774221D01*
X89164684Y-63774864D01*
G37*
G36*
X86751682Y-63756821D02*
G01*
X86752448Y-63758669D01*
X86751408Y-63760172D01*
X86735379Y-63768739D01*
X86716742Y-63784035D01*
X86701447Y-63802672D01*
X86690082Y-63823935D01*
X86683082Y-63847010D01*
X86680719Y-63871001D01*
X86683082Y-63894992D01*
X86690082Y-63918067D01*
X86701447Y-63939331D01*
X86716743Y-63957968D01*
X86735380Y-63973263D01*
X86756643Y-63984628D01*
X86779718Y-63991628D01*
X86803905Y-63994010D01*
X86805531Y-63995175D01*
X86805335Y-63997165D01*
X86803709Y-63998000D01*
X86170291Y-63998000D01*
X86168559Y-63997000D01*
X86168559Y-63995000D01*
X86170095Y-63994010D01*
X86194282Y-63991628D01*
X86217357Y-63984628D01*
X86238621Y-63973263D01*
X86257258Y-63957968D01*
X86272553Y-63939331D01*
X86283918Y-63918067D01*
X86290918Y-63894992D01*
X86293281Y-63871001D01*
X86290918Y-63847010D01*
X86283918Y-63823935D01*
X86272553Y-63802671D01*
X86257258Y-63784034D01*
X86238621Y-63768739D01*
X86222592Y-63760172D01*
X86221536Y-63758473D01*
X86222479Y-63756710D01*
X86224300Y-63756560D01*
X86226036Y-63757279D01*
X86398886Y-63791661D01*
X86575114Y-63791661D01*
X86747964Y-63757279D01*
X86749700Y-63756560D01*
X86751682Y-63756821D01*
G37*
M02*
