M48
; DRILL file {KiCad 5.1.9} date Sun Mar 28 19:35:07 2021
; FORMAT={-:-/ absolute / inch / decimal}
; #@! TF.CreationDate,2021-03-28T19:35:07+08:00
; #@! TF.GenerationSoftware,Kicad,Pcbnew,5.1.9
; #@! TF.FileFunction,Plated,1,2,PTH
FMAT,2
INCH
T1C0.0118
T2C0.0315
T3C0.0362
T4C0.0394
T5C0.0669
T6C0.0917
T7C0.1260
%
G90
G05
T1
X2.1524Y-3.82
X2.2145Y-4.9845
X2.2476Y-4.6155
X2.46Y-5.12
X2.47Y-4.77
X2.47Y-4.83
X2.48Y-4.4869
X2.51Y-3.98
X2.52Y-4.77
X2.52Y-4.83
X2.57Y-4.77
X2.57Y-4.83
X2.58Y-4.9
X2.67Y-4.9
X2.7456Y-4.0132
X2.7626Y-3.5426
X2.7826Y-4.0174
X2.8174Y-3.5426
X2.84Y-4.54
X2.8774Y-3.5426
X2.92Y-5.12
X3.0069Y-5.0669
X3.02Y-5.56
X3.12Y-3.69
X3.12Y-3.75
X3.18Y-5.27
X3.1925Y-3.6407
X3.2Y-3.69
X3.2Y-3.75
X3.2425Y-3.9975
X3.2675Y-3.6407
X3.275Y-3.69
X3.275Y-3.75
X3.28Y-4.02
X3.34Y-4.14
X3.3425Y-3.6407
X3.35Y-3.69
X3.35Y-3.75
X3.36Y-4.02
X3.41Y-5.19
X3.4175Y-3.4475
X3.4425Y-3.4575
X3.45Y-3.69
X3.45Y-3.75
X3.45Y-4.32
X3.48Y-4.8
X3.5Y-4.26
X3.5175Y-3.6407
X3.535Y-3.69
X3.535Y-3.75
X3.54Y-5.5
X3.57Y-4.5031
X3.5787Y-4.0613
X3.58Y-5.38
X3.59Y-5.29
X3.5925Y-3.6407
X3.6Y-5.22
X3.605Y-3.69
X3.605Y-3.75
X3.61Y-5.0131
X3.64Y-4.66
X3.64Y-5.49
X3.6675Y-3.6407
X3.6731Y-5.0869
X3.68Y-3.69
X3.68Y-3.75
X3.73Y-4.93
X3.74Y-4.6
X3.74Y-4.78
X3.78Y-4.79
X3.805Y-3.135
X3.805Y-3.175
X3.805Y-3.215
X3.805Y-3.255
X3.81Y-4.65
X3.82Y-5.46
X3.8264Y-4.2594
X3.83Y-4.04
X3.84Y-4.6
X3.85Y-4.15
X3.85Y-4.34
X3.88Y-4.58
X3.89Y-4.22
X3.89Y-4.32
X3.91Y-4.63
X3.95Y-4.48
X3.96Y-5.25
X3.9626Y-4.3326
X4.0Y-4.93
X4.01Y-5.36
X4.0374Y-4.3276
X4.1Y-5.53
X4.15Y-2.73
X4.15Y-4.01
X4.1614Y-4.3786
X4.19Y-4.3164
X4.1915Y-4.18
X4.2Y-3.27
X4.21Y-4.11
X4.24Y-3.15
X4.2869Y-4.3931
X4.29Y-4.34
X4.3Y-4.29
X4.3225Y-4.1275
X4.3614Y-3.418
X4.45Y-4.1836
X4.48Y-4.01
X4.5091Y-2.9964
X4.5091Y-3.0436
X4.53Y-4.34
X4.5524Y-2.9964
X4.5524Y-3.0436
X4.6036Y-2.9964
X4.6036Y-3.0436
X4.61Y-4.26
X4.62Y-4.45
X4.63Y-5.05
X4.6509Y-2.9964
X4.6509Y-3.0436
X4.66Y-3.45
X4.66Y-3.5
X4.69Y-4.15
X4.69Y-4.86
X4.73Y-2.72
X4.8369Y-3.7069
X4.86Y-4.64
X4.86Y-4.79
X4.88Y-5.39
X4.89Y-2.72
X4.94Y-5.29
X5.0Y-5.34
X5.005Y-2.785
X5.0169Y-3.6869
X5.04Y-5.09
X5.08Y-5.04
X5.1Y-3.36
X5.1Y-3.41
X5.1143Y-5.4665
X5.1341Y-2.9864
X5.1341Y-3.0336
X5.1774Y-2.9864
X5.1774Y-3.0336
X5.2286Y-2.9864
X5.2286Y-3.0336
X5.2327Y-5.68
X5.2564Y-3.9941
X5.2564Y-4.0374
X5.2564Y-4.0886
X5.2564Y-4.1359
X5.27Y-4.83
X5.2759Y-2.9864
X5.2759Y-3.0336
X5.3036Y-3.9941
X5.3036Y-4.0374
X5.3036Y-4.0886
X5.3036Y-4.1359
X5.3988Y-5.0688
X5.5Y-4.1769
T3
X4.605Y-2.4563
X4.605Y-2.535
X4.7034Y-2.4563
X4.7034Y-2.535
T4
X2.98Y-5.8
X3.08Y-5.8
X3.18Y-5.8
X3.28Y-5.8
X3.58Y-5.8
X3.68Y-5.8
X3.78Y-5.8
X3.88Y-5.8
X3.905Y-2.2869
X4.005Y-2.2869
X4.105Y-2.2869
X4.19Y-5.8
X4.29Y-5.8
X4.39Y-5.8
X4.49Y-5.8
T5
X2.3387Y-2.185
X2.4946Y-2.185
X2.6505Y-2.185
X2.8064Y-2.185
X2.9623Y-2.185
X3.1182Y-2.185
X3.2741Y-2.185
X3.43Y-2.185
T6
X4.4172Y-2.3496
X4.8912Y-2.3496
T7
X2.13Y-2.66
X2.155Y-5.685
X2.705Y-3.735
X4.205Y-3.735
X5.505Y-2.685
X5.505Y-5.685
T2
G00X2.4845Y-5.4198
M15
G01X2.4845Y-5.4002
M16
G05
G00X2.4845Y-5.5458
M15
G01X2.4845Y-5.5261
M16
G05
G00X2.4845Y-5.6718
M15
G01X2.4845Y-5.6521
M16
G05
G00X2.4845Y-5.7978
M15
G01X2.4845Y-5.7781
M16
G05
G00X2.705Y-5.4198
M15
G01X2.705Y-5.4002
M16
G05
G00X2.705Y-5.5458
M15
G01X2.705Y-5.5261
M16
G05
G00X2.705Y-5.6718
M15
G01X2.705Y-5.6521
M16
G05
G00X2.705Y-5.7978
M15
G01X2.705Y-5.7781
M16
G05
G00X5.105Y-2.0364
M15
G01X5.105Y-2.0836
M16
G05
G00X5.1247Y-2.3238
M15
G01X5.1247Y-2.371
M16
G05
G00X5.2507Y-2.3238
M15
G01X5.2507Y-2.371
M16
G05
G00X5.4554Y-2.3238
M15
G01X5.4554Y-2.371
M16
G05
G00X5.5026Y-2.0364
M15
G01X5.5026Y-2.0836
M16
G05
T0
M30
