G04 #@! TF.GenerationSoftware,KiCad,Pcbnew,5.1.9*
G04 #@! TF.CreationDate,2021-03-28T19:34:58+08:00*
G04 #@! TF.ProjectId,digital-amplifier2,64696769-7461-46c2-9d61-6d706c696669,rev?*
G04 #@! TF.SameCoordinates,Original*
G04 #@! TF.FileFunction,Paste,Bot*
G04 #@! TF.FilePolarity,Positive*
%FSLAX46Y46*%
G04 Gerber Fmt 4.6, Leading zero omitted, Abs format (unit mm)*
G04 Created by KiCad (PCBNEW 5.1.9) date 2021-03-28 19:34:58*
%MOMM*%
%LPD*%
G01*
G04 APERTURE LIST*
%ADD10R,1.000000X0.500000*%
%ADD11R,0.500000X1.000000*%
G04 APERTURE END LIST*
D10*
X120904000Y-141748000D03*
X120904000Y-140748000D03*
X120904000Y-139748000D03*
X120904000Y-138748000D03*
X120904000Y-137748000D03*
X120904000Y-136748000D03*
X120904000Y-135748000D03*
X120904000Y-134748000D03*
X120904000Y-133748000D03*
X120904000Y-132748000D03*
X120904000Y-131748000D03*
X120904000Y-130748000D03*
X120904000Y-129748000D03*
X120904000Y-128748000D03*
X120904000Y-127748000D03*
X120904000Y-126748000D03*
X120904000Y-125748000D03*
D11*
X122904000Y-124748000D03*
X123904000Y-124748000D03*
X124904000Y-124748000D03*
X125904000Y-124748000D03*
X126904000Y-124748000D03*
X127904000Y-124748000D03*
X128904000Y-124748000D03*
X129904000Y-124748000D03*
X130904000Y-124748000D03*
X131904000Y-124748000D03*
X131904000Y-142748000D03*
X124904000Y-142748000D03*
X127904000Y-142748000D03*
X125904000Y-142748000D03*
X130904000Y-142748000D03*
X126904000Y-142748000D03*
X123904000Y-142748000D03*
X128904000Y-142748000D03*
X129904000Y-142748000D03*
X122904000Y-142748000D03*
D10*
X133904000Y-130748000D03*
X133904000Y-126748000D03*
X133904000Y-138748000D03*
X133904000Y-137748000D03*
X133904000Y-140748000D03*
X133904000Y-135748000D03*
X133904000Y-131748000D03*
X133904000Y-128748000D03*
X133904000Y-139748000D03*
X133904000Y-127748000D03*
X133904000Y-136748000D03*
X133904000Y-134748000D03*
X133904000Y-141748000D03*
X133904000Y-133748000D03*
X133904000Y-132748000D03*
X133904000Y-125748000D03*
X133904000Y-129748000D03*
G36*
G01*
X93021999Y-143402000D02*
X93922001Y-143402000D01*
G75*
G02*
X94172000Y-143651999I0J-249999D01*
G01*
X94172000Y-144177001D01*
G75*
G02*
X93922001Y-144427000I-249999J0D01*
G01*
X93021999Y-144427000D01*
G75*
G02*
X92772000Y-144177001I0J249999D01*
G01*
X92772000Y-143651999D01*
G75*
G02*
X93021999Y-143402000I249999J0D01*
G01*
G37*
G36*
G01*
X93021999Y-141577000D02*
X93922001Y-141577000D01*
G75*
G02*
X94172000Y-141826999I0J-249999D01*
G01*
X94172000Y-142352001D01*
G75*
G02*
X93922001Y-142602000I-249999J0D01*
G01*
X93021999Y-142602000D01*
G75*
G02*
X92772000Y-142352001I0J249999D01*
G01*
X92772000Y-141826999D01*
G75*
G02*
X93021999Y-141577000I249999J0D01*
G01*
G37*
G36*
G01*
X86393000Y-104590000D02*
X87343000Y-104590000D01*
G75*
G02*
X87593000Y-104840000I0J-250000D01*
G01*
X87593000Y-105340000D01*
G75*
G02*
X87343000Y-105590000I-250000J0D01*
G01*
X86393000Y-105590000D01*
G75*
G02*
X86143000Y-105340000I0J250000D01*
G01*
X86143000Y-104840000D01*
G75*
G02*
X86393000Y-104590000I250000J0D01*
G01*
G37*
G36*
G01*
X86393000Y-102690000D02*
X87343000Y-102690000D01*
G75*
G02*
X87593000Y-102940000I0J-250000D01*
G01*
X87593000Y-103440000D01*
G75*
G02*
X87343000Y-103690000I-250000J0D01*
G01*
X86393000Y-103690000D01*
G75*
G02*
X86143000Y-103440000I0J250000D01*
G01*
X86143000Y-102940000D01*
G75*
G02*
X86393000Y-102690000I250000J0D01*
G01*
G37*
G36*
G01*
X80993000Y-103727001D02*
X80043000Y-103727001D01*
G75*
G02*
X79793000Y-103477001I0J250000D01*
G01*
X79793000Y-102977001D01*
G75*
G02*
X80043000Y-102727001I250000J0D01*
G01*
X80993000Y-102727001D01*
G75*
G02*
X81243000Y-102977001I0J-250000D01*
G01*
X81243000Y-103477001D01*
G75*
G02*
X80993000Y-103727001I-250000J0D01*
G01*
G37*
G36*
G01*
X80993000Y-105627001D02*
X80043000Y-105627001D01*
G75*
G02*
X79793000Y-105377001I0J250000D01*
G01*
X79793000Y-104877001D01*
G75*
G02*
X80043000Y-104627001I250000J0D01*
G01*
X80993000Y-104627001D01*
G75*
G02*
X81243000Y-104877001I0J-250000D01*
G01*
X81243000Y-105377001D01*
G75*
G02*
X80993000Y-105627001I-250000J0D01*
G01*
G37*
G36*
G01*
X91407000Y-87942000D02*
X90457000Y-87942000D01*
G75*
G02*
X90207000Y-87692000I0J250000D01*
G01*
X90207000Y-87192000D01*
G75*
G02*
X90457000Y-86942000I250000J0D01*
G01*
X91407000Y-86942000D01*
G75*
G02*
X91657000Y-87192000I0J-250000D01*
G01*
X91657000Y-87692000D01*
G75*
G02*
X91407000Y-87942000I-250000J0D01*
G01*
G37*
G36*
G01*
X91407000Y-89842000D02*
X90457000Y-89842000D01*
G75*
G02*
X90207000Y-89592000I0J250000D01*
G01*
X90207000Y-89092000D01*
G75*
G02*
X90457000Y-88842000I250000J0D01*
G01*
X91407000Y-88842000D01*
G75*
G02*
X91657000Y-89092000I0J-250000D01*
G01*
X91657000Y-89592000D01*
G75*
G02*
X91407000Y-89842000I-250000J0D01*
G01*
G37*
G36*
G01*
X93439000Y-87942000D02*
X92489000Y-87942000D01*
G75*
G02*
X92239000Y-87692000I0J250000D01*
G01*
X92239000Y-87192000D01*
G75*
G02*
X92489000Y-86942000I250000J0D01*
G01*
X93439000Y-86942000D01*
G75*
G02*
X93689000Y-87192000I0J-250000D01*
G01*
X93689000Y-87692000D01*
G75*
G02*
X93439000Y-87942000I-250000J0D01*
G01*
G37*
G36*
G01*
X93439000Y-89842000D02*
X92489000Y-89842000D01*
G75*
G02*
X92239000Y-89592000I0J250000D01*
G01*
X92239000Y-89092000D01*
G75*
G02*
X92489000Y-88842000I250000J0D01*
G01*
X93439000Y-88842000D01*
G75*
G02*
X93689000Y-89092000I0J-250000D01*
G01*
X93689000Y-89592000D01*
G75*
G02*
X93439000Y-89842000I-250000J0D01*
G01*
G37*
G36*
G01*
X70188001Y-85460000D02*
X67987999Y-85460000D01*
G75*
G02*
X67738000Y-85210001I0J249999D01*
G01*
X67738000Y-84559999D01*
G75*
G02*
X67987999Y-84310000I249999J0D01*
G01*
X70188001Y-84310000D01*
G75*
G02*
X70438000Y-84559999I0J-249999D01*
G01*
X70438000Y-85210001D01*
G75*
G02*
X70188001Y-85460000I-249999J0D01*
G01*
G37*
G36*
G01*
X70188001Y-88410000D02*
X67987999Y-88410000D01*
G75*
G02*
X67738000Y-88160001I0J249999D01*
G01*
X67738000Y-87509999D01*
G75*
G02*
X67987999Y-87260000I249999J0D01*
G01*
X70188001Y-87260000D01*
G75*
G02*
X70438000Y-87509999I0J-249999D01*
G01*
X70438000Y-88160001D01*
G75*
G02*
X70188001Y-88410000I-249999J0D01*
G01*
G37*
G36*
G01*
X97112001Y-86984000D02*
X94911999Y-86984000D01*
G75*
G02*
X94662000Y-86734001I0J249999D01*
G01*
X94662000Y-86083999D01*
G75*
G02*
X94911999Y-85834000I249999J0D01*
G01*
X97112001Y-85834000D01*
G75*
G02*
X97362000Y-86083999I0J-249999D01*
G01*
X97362000Y-86734001D01*
G75*
G02*
X97112001Y-86984000I-249999J0D01*
G01*
G37*
G36*
G01*
X97112001Y-89934000D02*
X94911999Y-89934000D01*
G75*
G02*
X94662000Y-89684001I0J249999D01*
G01*
X94662000Y-89033999D01*
G75*
G02*
X94911999Y-88784000I249999J0D01*
G01*
X97112001Y-88784000D01*
G75*
G02*
X97362000Y-89033999I0J-249999D01*
G01*
X97362000Y-89684001D01*
G75*
G02*
X97112001Y-89934000I-249999J0D01*
G01*
G37*
G36*
G01*
X72611000Y-86418000D02*
X71661000Y-86418000D01*
G75*
G02*
X71411000Y-86168000I0J250000D01*
G01*
X71411000Y-85668000D01*
G75*
G02*
X71661000Y-85418000I250000J0D01*
G01*
X72611000Y-85418000D01*
G75*
G02*
X72861000Y-85668000I0J-250000D01*
G01*
X72861000Y-86168000D01*
G75*
G02*
X72611000Y-86418000I-250000J0D01*
G01*
G37*
G36*
G01*
X72611000Y-88318000D02*
X71661000Y-88318000D01*
G75*
G02*
X71411000Y-88068000I0J250000D01*
G01*
X71411000Y-87568000D01*
G75*
G02*
X71661000Y-87318000I250000J0D01*
G01*
X72611000Y-87318000D01*
G75*
G02*
X72861000Y-87568000I0J-250000D01*
G01*
X72861000Y-88068000D01*
G75*
G02*
X72611000Y-88318000I-250000J0D01*
G01*
G37*
G36*
G01*
X73067999Y-102500000D02*
X75268001Y-102500000D01*
G75*
G02*
X75518000Y-102749999I0J-249999D01*
G01*
X75518000Y-103400001D01*
G75*
G02*
X75268001Y-103650000I-249999J0D01*
G01*
X73067999Y-103650000D01*
G75*
G02*
X72818000Y-103400001I0J249999D01*
G01*
X72818000Y-102749999D01*
G75*
G02*
X73067999Y-102500000I249999J0D01*
G01*
G37*
G36*
G01*
X73067999Y-99550000D02*
X75268001Y-99550000D01*
G75*
G02*
X75518000Y-99799999I0J-249999D01*
G01*
X75518000Y-100450001D01*
G75*
G02*
X75268001Y-100700000I-249999J0D01*
G01*
X73067999Y-100700000D01*
G75*
G02*
X72818000Y-100450001I0J249999D01*
G01*
X72818000Y-99799999D01*
G75*
G02*
X73067999Y-99550000I249999J0D01*
G01*
G37*
G36*
G01*
X60419000Y-61526000D02*
X59469000Y-61526000D01*
G75*
G02*
X59219000Y-61276000I0J250000D01*
G01*
X59219000Y-60776000D01*
G75*
G02*
X59469000Y-60526000I250000J0D01*
G01*
X60419000Y-60526000D01*
G75*
G02*
X60669000Y-60776000I0J-250000D01*
G01*
X60669000Y-61276000D01*
G75*
G02*
X60419000Y-61526000I-250000J0D01*
G01*
G37*
G36*
G01*
X60419000Y-63426000D02*
X59469000Y-63426000D01*
G75*
G02*
X59219000Y-63176000I0J250000D01*
G01*
X59219000Y-62676000D01*
G75*
G02*
X59469000Y-62426000I250000J0D01*
G01*
X60419000Y-62426000D01*
G75*
G02*
X60669000Y-62676000I0J-250000D01*
G01*
X60669000Y-63176000D01*
G75*
G02*
X60419000Y-63426000I-250000J0D01*
G01*
G37*
G36*
G01*
X63533000Y-62426000D02*
X64483000Y-62426000D01*
G75*
G02*
X64733000Y-62676000I0J-250000D01*
G01*
X64733000Y-63176000D01*
G75*
G02*
X64483000Y-63426000I-250000J0D01*
G01*
X63533000Y-63426000D01*
G75*
G02*
X63283000Y-63176000I0J250000D01*
G01*
X63283000Y-62676000D01*
G75*
G02*
X63533000Y-62426000I250000J0D01*
G01*
G37*
G36*
G01*
X63533000Y-60526000D02*
X64483000Y-60526000D01*
G75*
G02*
X64733000Y-60776000I0J-250000D01*
G01*
X64733000Y-61276000D01*
G75*
G02*
X64483000Y-61526000I-250000J0D01*
G01*
X63533000Y-61526000D01*
G75*
G02*
X63283000Y-61276000I0J250000D01*
G01*
X63283000Y-60776000D01*
G75*
G02*
X63533000Y-60526000I250000J0D01*
G01*
G37*
G36*
G01*
X68547000Y-61526000D02*
X67597000Y-61526000D01*
G75*
G02*
X67347000Y-61276000I0J250000D01*
G01*
X67347000Y-60776000D01*
G75*
G02*
X67597000Y-60526000I250000J0D01*
G01*
X68547000Y-60526000D01*
G75*
G02*
X68797000Y-60776000I0J-250000D01*
G01*
X68797000Y-61276000D01*
G75*
G02*
X68547000Y-61526000I-250000J0D01*
G01*
G37*
G36*
G01*
X68547000Y-63426000D02*
X67597000Y-63426000D01*
G75*
G02*
X67347000Y-63176000I0J250000D01*
G01*
X67347000Y-62676000D01*
G75*
G02*
X67597000Y-62426000I250000J0D01*
G01*
X68547000Y-62426000D01*
G75*
G02*
X68797000Y-62676000I0J-250000D01*
G01*
X68797000Y-63176000D01*
G75*
G02*
X68547000Y-63426000I-250000J0D01*
G01*
G37*
G36*
G01*
X71661000Y-62426000D02*
X72611000Y-62426000D01*
G75*
G02*
X72861000Y-62676000I0J-250000D01*
G01*
X72861000Y-63176000D01*
G75*
G02*
X72611000Y-63426000I-250000J0D01*
G01*
X71661000Y-63426000D01*
G75*
G02*
X71411000Y-63176000I0J250000D01*
G01*
X71411000Y-62676000D01*
G75*
G02*
X71661000Y-62426000I250000J0D01*
G01*
G37*
G36*
G01*
X71661000Y-60526000D02*
X72611000Y-60526000D01*
G75*
G02*
X72861000Y-60776000I0J-250000D01*
G01*
X72861000Y-61276000D01*
G75*
G02*
X72611000Y-61526000I-250000J0D01*
G01*
X71661000Y-61526000D01*
G75*
G02*
X71411000Y-61276000I0J250000D01*
G01*
X71411000Y-60776000D01*
G75*
G02*
X71661000Y-60526000I250000J0D01*
G01*
G37*
G36*
G01*
X76675000Y-61526000D02*
X75725000Y-61526000D01*
G75*
G02*
X75475000Y-61276000I0J250000D01*
G01*
X75475000Y-60776000D01*
G75*
G02*
X75725000Y-60526000I250000J0D01*
G01*
X76675000Y-60526000D01*
G75*
G02*
X76925000Y-60776000I0J-250000D01*
G01*
X76925000Y-61276000D01*
G75*
G02*
X76675000Y-61526000I-250000J0D01*
G01*
G37*
G36*
G01*
X76675000Y-63426000D02*
X75725000Y-63426000D01*
G75*
G02*
X75475000Y-63176000I0J250000D01*
G01*
X75475000Y-62676000D01*
G75*
G02*
X75725000Y-62426000I250000J0D01*
G01*
X76675000Y-62426000D01*
G75*
G02*
X76925000Y-62676000I0J-250000D01*
G01*
X76925000Y-63176000D01*
G75*
G02*
X76675000Y-63426000I-250000J0D01*
G01*
G37*
G36*
G01*
X79789000Y-62426000D02*
X80739000Y-62426000D01*
G75*
G02*
X80989000Y-62676000I0J-250000D01*
G01*
X80989000Y-63176000D01*
G75*
G02*
X80739000Y-63426000I-250000J0D01*
G01*
X79789000Y-63426000D01*
G75*
G02*
X79539000Y-63176000I0J250000D01*
G01*
X79539000Y-62676000D01*
G75*
G02*
X79789000Y-62426000I250000J0D01*
G01*
G37*
G36*
G01*
X79789000Y-60526000D02*
X80739000Y-60526000D01*
G75*
G02*
X80989000Y-60776000I0J-250000D01*
G01*
X80989000Y-61276000D01*
G75*
G02*
X80739000Y-61526000I-250000J0D01*
G01*
X79789000Y-61526000D01*
G75*
G02*
X79539000Y-61276000I0J250000D01*
G01*
X79539000Y-60776000D01*
G75*
G02*
X79789000Y-60526000I250000J0D01*
G01*
G37*
G36*
G01*
X84803000Y-61526000D02*
X83853000Y-61526000D01*
G75*
G02*
X83603000Y-61276000I0J250000D01*
G01*
X83603000Y-60776000D01*
G75*
G02*
X83853000Y-60526000I250000J0D01*
G01*
X84803000Y-60526000D01*
G75*
G02*
X85053000Y-60776000I0J-250000D01*
G01*
X85053000Y-61276000D01*
G75*
G02*
X84803000Y-61526000I-250000J0D01*
G01*
G37*
G36*
G01*
X84803000Y-63426000D02*
X83853000Y-63426000D01*
G75*
G02*
X83603000Y-63176000I0J250000D01*
G01*
X83603000Y-62676000D01*
G75*
G02*
X83853000Y-62426000I250000J0D01*
G01*
X84803000Y-62426000D01*
G75*
G02*
X85053000Y-62676000I0J-250000D01*
G01*
X85053000Y-63176000D01*
G75*
G02*
X84803000Y-63426000I-250000J0D01*
G01*
G37*
G36*
G01*
X87917000Y-62426000D02*
X88867000Y-62426000D01*
G75*
G02*
X89117000Y-62676000I0J-250000D01*
G01*
X89117000Y-63176000D01*
G75*
G02*
X88867000Y-63426000I-250000J0D01*
G01*
X87917000Y-63426000D01*
G75*
G02*
X87667000Y-63176000I0J250000D01*
G01*
X87667000Y-62676000D01*
G75*
G02*
X87917000Y-62426000I250000J0D01*
G01*
G37*
G36*
G01*
X87917000Y-60526000D02*
X88867000Y-60526000D01*
G75*
G02*
X89117000Y-60776000I0J-250000D01*
G01*
X89117000Y-61276000D01*
G75*
G02*
X88867000Y-61526000I-250000J0D01*
G01*
X87917000Y-61526000D01*
G75*
G02*
X87667000Y-61276000I0J250000D01*
G01*
X87667000Y-60776000D01*
G75*
G02*
X87917000Y-60526000I250000J0D01*
G01*
G37*
G36*
G01*
X58387000Y-61526000D02*
X57437000Y-61526000D01*
G75*
G02*
X57187000Y-61276000I0J250000D01*
G01*
X57187000Y-60776000D01*
G75*
G02*
X57437000Y-60526000I250000J0D01*
G01*
X58387000Y-60526000D01*
G75*
G02*
X58637000Y-60776000I0J-250000D01*
G01*
X58637000Y-61276000D01*
G75*
G02*
X58387000Y-61526000I-250000J0D01*
G01*
G37*
G36*
G01*
X58387000Y-63426000D02*
X57437000Y-63426000D01*
G75*
G02*
X57187000Y-63176000I0J250000D01*
G01*
X57187000Y-62676000D01*
G75*
G02*
X57437000Y-62426000I250000J0D01*
G01*
X58387000Y-62426000D01*
G75*
G02*
X58637000Y-62676000I0J-250000D01*
G01*
X58637000Y-63176000D01*
G75*
G02*
X58387000Y-63426000I-250000J0D01*
G01*
G37*
G36*
G01*
X61501000Y-62426000D02*
X62451000Y-62426000D01*
G75*
G02*
X62701000Y-62676000I0J-250000D01*
G01*
X62701000Y-63176000D01*
G75*
G02*
X62451000Y-63426000I-250000J0D01*
G01*
X61501000Y-63426000D01*
G75*
G02*
X61251000Y-63176000I0J250000D01*
G01*
X61251000Y-62676000D01*
G75*
G02*
X61501000Y-62426000I250000J0D01*
G01*
G37*
G36*
G01*
X61501000Y-60526000D02*
X62451000Y-60526000D01*
G75*
G02*
X62701000Y-60776000I0J-250000D01*
G01*
X62701000Y-61276000D01*
G75*
G02*
X62451000Y-61526000I-250000J0D01*
G01*
X61501000Y-61526000D01*
G75*
G02*
X61251000Y-61276000I0J250000D01*
G01*
X61251000Y-60776000D01*
G75*
G02*
X61501000Y-60526000I250000J0D01*
G01*
G37*
G36*
G01*
X66515000Y-61526000D02*
X65565000Y-61526000D01*
G75*
G02*
X65315000Y-61276000I0J250000D01*
G01*
X65315000Y-60776000D01*
G75*
G02*
X65565000Y-60526000I250000J0D01*
G01*
X66515000Y-60526000D01*
G75*
G02*
X66765000Y-60776000I0J-250000D01*
G01*
X66765000Y-61276000D01*
G75*
G02*
X66515000Y-61526000I-250000J0D01*
G01*
G37*
G36*
G01*
X66515000Y-63426000D02*
X65565000Y-63426000D01*
G75*
G02*
X65315000Y-63176000I0J250000D01*
G01*
X65315000Y-62676000D01*
G75*
G02*
X65565000Y-62426000I250000J0D01*
G01*
X66515000Y-62426000D01*
G75*
G02*
X66765000Y-62676000I0J-250000D01*
G01*
X66765000Y-63176000D01*
G75*
G02*
X66515000Y-63426000I-250000J0D01*
G01*
G37*
G36*
G01*
X69629000Y-62426000D02*
X70579000Y-62426000D01*
G75*
G02*
X70829000Y-62676000I0J-250000D01*
G01*
X70829000Y-63176000D01*
G75*
G02*
X70579000Y-63426000I-250000J0D01*
G01*
X69629000Y-63426000D01*
G75*
G02*
X69379000Y-63176000I0J250000D01*
G01*
X69379000Y-62676000D01*
G75*
G02*
X69629000Y-62426000I250000J0D01*
G01*
G37*
G36*
G01*
X69629000Y-60526000D02*
X70579000Y-60526000D01*
G75*
G02*
X70829000Y-60776000I0J-250000D01*
G01*
X70829000Y-61276000D01*
G75*
G02*
X70579000Y-61526000I-250000J0D01*
G01*
X69629000Y-61526000D01*
G75*
G02*
X69379000Y-61276000I0J250000D01*
G01*
X69379000Y-60776000D01*
G75*
G02*
X69629000Y-60526000I250000J0D01*
G01*
G37*
G36*
G01*
X74643000Y-61526000D02*
X73693000Y-61526000D01*
G75*
G02*
X73443000Y-61276000I0J250000D01*
G01*
X73443000Y-60776000D01*
G75*
G02*
X73693000Y-60526000I250000J0D01*
G01*
X74643000Y-60526000D01*
G75*
G02*
X74893000Y-60776000I0J-250000D01*
G01*
X74893000Y-61276000D01*
G75*
G02*
X74643000Y-61526000I-250000J0D01*
G01*
G37*
G36*
G01*
X74643000Y-63426000D02*
X73693000Y-63426000D01*
G75*
G02*
X73443000Y-63176000I0J250000D01*
G01*
X73443000Y-62676000D01*
G75*
G02*
X73693000Y-62426000I250000J0D01*
G01*
X74643000Y-62426000D01*
G75*
G02*
X74893000Y-62676000I0J-250000D01*
G01*
X74893000Y-63176000D01*
G75*
G02*
X74643000Y-63426000I-250000J0D01*
G01*
G37*
G36*
G01*
X77757000Y-62426000D02*
X78707000Y-62426000D01*
G75*
G02*
X78957000Y-62676000I0J-250000D01*
G01*
X78957000Y-63176000D01*
G75*
G02*
X78707000Y-63426000I-250000J0D01*
G01*
X77757000Y-63426000D01*
G75*
G02*
X77507000Y-63176000I0J250000D01*
G01*
X77507000Y-62676000D01*
G75*
G02*
X77757000Y-62426000I250000J0D01*
G01*
G37*
G36*
G01*
X77757000Y-60526000D02*
X78707000Y-60526000D01*
G75*
G02*
X78957000Y-60776000I0J-250000D01*
G01*
X78957000Y-61276000D01*
G75*
G02*
X78707000Y-61526000I-250000J0D01*
G01*
X77757000Y-61526000D01*
G75*
G02*
X77507000Y-61276000I0J250000D01*
G01*
X77507000Y-60776000D01*
G75*
G02*
X77757000Y-60526000I250000J0D01*
G01*
G37*
G36*
G01*
X82771000Y-61526000D02*
X81821000Y-61526000D01*
G75*
G02*
X81571000Y-61276000I0J250000D01*
G01*
X81571000Y-60776000D01*
G75*
G02*
X81821000Y-60526000I250000J0D01*
G01*
X82771000Y-60526000D01*
G75*
G02*
X83021000Y-60776000I0J-250000D01*
G01*
X83021000Y-61276000D01*
G75*
G02*
X82771000Y-61526000I-250000J0D01*
G01*
G37*
G36*
G01*
X82771000Y-63426000D02*
X81821000Y-63426000D01*
G75*
G02*
X81571000Y-63176000I0J250000D01*
G01*
X81571000Y-62676000D01*
G75*
G02*
X81821000Y-62426000I250000J0D01*
G01*
X82771000Y-62426000D01*
G75*
G02*
X83021000Y-62676000I0J-250000D01*
G01*
X83021000Y-63176000D01*
G75*
G02*
X82771000Y-63426000I-250000J0D01*
G01*
G37*
G36*
G01*
X85885000Y-62426000D02*
X86835000Y-62426000D01*
G75*
G02*
X87085000Y-62676000I0J-250000D01*
G01*
X87085000Y-63176000D01*
G75*
G02*
X86835000Y-63426000I-250000J0D01*
G01*
X85885000Y-63426000D01*
G75*
G02*
X85635000Y-63176000I0J250000D01*
G01*
X85635000Y-62676000D01*
G75*
G02*
X85885000Y-62426000I250000J0D01*
G01*
G37*
G36*
G01*
X85885000Y-60526000D02*
X86835000Y-60526000D01*
G75*
G02*
X87085000Y-60776000I0J-250000D01*
G01*
X87085000Y-61276000D01*
G75*
G02*
X86835000Y-61526000I-250000J0D01*
G01*
X85885000Y-61526000D01*
G75*
G02*
X85635000Y-61276000I0J250000D01*
G01*
X85635000Y-60776000D01*
G75*
G02*
X85885000Y-60526000I250000J0D01*
G01*
G37*
G36*
G01*
X81602572Y-94150000D02*
X81102572Y-94150000D01*
G75*
G02*
X80877572Y-93925000I0J225000D01*
G01*
X80877572Y-93475000D01*
G75*
G02*
X81102572Y-93250000I225000J0D01*
G01*
X81602572Y-93250000D01*
G75*
G02*
X81827572Y-93475000I0J-225000D01*
G01*
X81827572Y-93925000D01*
G75*
G02*
X81602572Y-94150000I-225000J0D01*
G01*
G37*
G36*
G01*
X81602572Y-95700000D02*
X81102572Y-95700000D01*
G75*
G02*
X80877572Y-95475000I0J225000D01*
G01*
X80877572Y-95025000D01*
G75*
G02*
X81102572Y-94800000I225000J0D01*
G01*
X81602572Y-94800000D01*
G75*
G02*
X81827572Y-95025000I0J-225000D01*
G01*
X81827572Y-95475000D01*
G75*
G02*
X81602572Y-95700000I-225000J0D01*
G01*
G37*
G36*
G01*
X79498000Y-94176000D02*
X78998000Y-94176000D01*
G75*
G02*
X78773000Y-93951000I0J225000D01*
G01*
X78773000Y-93501000D01*
G75*
G02*
X78998000Y-93276000I225000J0D01*
G01*
X79498000Y-93276000D01*
G75*
G02*
X79723000Y-93501000I0J-225000D01*
G01*
X79723000Y-93951000D01*
G75*
G02*
X79498000Y-94176000I-225000J0D01*
G01*
G37*
G36*
G01*
X79498000Y-95726000D02*
X78998000Y-95726000D01*
G75*
G02*
X78773000Y-95501000I0J225000D01*
G01*
X78773000Y-95051000D01*
G75*
G02*
X78998000Y-94826000I225000J0D01*
G01*
X79498000Y-94826000D01*
G75*
G02*
X79723000Y-95051000I0J-225000D01*
G01*
X79723000Y-95501000D01*
G75*
G02*
X79498000Y-95726000I-225000J0D01*
G01*
G37*
G36*
G01*
X85303716Y-94150000D02*
X84803716Y-94150000D01*
G75*
G02*
X84578716Y-93925000I0J225000D01*
G01*
X84578716Y-93475000D01*
G75*
G02*
X84803716Y-93250000I225000J0D01*
G01*
X85303716Y-93250000D01*
G75*
G02*
X85528716Y-93475000I0J-225000D01*
G01*
X85528716Y-93925000D01*
G75*
G02*
X85303716Y-94150000I-225000J0D01*
G01*
G37*
G36*
G01*
X85303716Y-95700000D02*
X84803716Y-95700000D01*
G75*
G02*
X84578716Y-95475000I0J225000D01*
G01*
X84578716Y-95025000D01*
G75*
G02*
X84803716Y-94800000I225000J0D01*
G01*
X85303716Y-94800000D01*
G75*
G02*
X85528716Y-95025000I0J-225000D01*
G01*
X85528716Y-95475000D01*
G75*
G02*
X85303716Y-95700000I-225000J0D01*
G01*
G37*
G36*
G01*
X83416856Y-94176000D02*
X82916856Y-94176000D01*
G75*
G02*
X82691856Y-93951000I0J225000D01*
G01*
X82691856Y-93501000D01*
G75*
G02*
X82916856Y-93276000I225000J0D01*
G01*
X83416856Y-93276000D01*
G75*
G02*
X83641856Y-93501000I0J-225000D01*
G01*
X83641856Y-93951000D01*
G75*
G02*
X83416856Y-94176000I-225000J0D01*
G01*
G37*
G36*
G01*
X83416856Y-95726000D02*
X82916856Y-95726000D01*
G75*
G02*
X82691856Y-95501000I0J225000D01*
G01*
X82691856Y-95051000D01*
G75*
G02*
X82916856Y-94826000I225000J0D01*
G01*
X83416856Y-94826000D01*
G75*
G02*
X83641856Y-95051000I0J-225000D01*
G01*
X83641856Y-95501000D01*
G75*
G02*
X83416856Y-95726000I-225000J0D01*
G01*
G37*
G36*
G01*
X90020860Y-94150000D02*
X89520860Y-94150000D01*
G75*
G02*
X89295860Y-93925000I0J225000D01*
G01*
X89295860Y-93475000D01*
G75*
G02*
X89520860Y-93250000I225000J0D01*
G01*
X90020860Y-93250000D01*
G75*
G02*
X90245860Y-93475000I0J-225000D01*
G01*
X90245860Y-93925000D01*
G75*
G02*
X90020860Y-94150000I-225000J0D01*
G01*
G37*
G36*
G01*
X90020860Y-95700000D02*
X89520860Y-95700000D01*
G75*
G02*
X89295860Y-95475000I0J225000D01*
G01*
X89295860Y-95025000D01*
G75*
G02*
X89520860Y-94800000I225000J0D01*
G01*
X90020860Y-94800000D01*
G75*
G02*
X90245860Y-95025000I0J-225000D01*
G01*
X90245860Y-95475000D01*
G75*
G02*
X90020860Y-95700000I-225000J0D01*
G01*
G37*
G36*
G01*
X87843712Y-94176000D02*
X87343712Y-94176000D01*
G75*
G02*
X87118712Y-93951000I0J225000D01*
G01*
X87118712Y-93501000D01*
G75*
G02*
X87343712Y-93276000I225000J0D01*
G01*
X87843712Y-93276000D01*
G75*
G02*
X88068712Y-93501000I0J-225000D01*
G01*
X88068712Y-93951000D01*
G75*
G02*
X87843712Y-94176000I-225000J0D01*
G01*
G37*
G36*
G01*
X87843712Y-95726000D02*
X87343712Y-95726000D01*
G75*
G02*
X87118712Y-95501000I0J225000D01*
G01*
X87118712Y-95051000D01*
G75*
G02*
X87343712Y-94826000I225000J0D01*
G01*
X87843712Y-94826000D01*
G75*
G02*
X88068712Y-95051000I0J-225000D01*
G01*
X88068712Y-95501000D01*
G75*
G02*
X87843712Y-95726000I-225000J0D01*
G01*
G37*
G36*
G01*
X93722000Y-94150000D02*
X93222000Y-94150000D01*
G75*
G02*
X92997000Y-93925000I0J225000D01*
G01*
X92997000Y-93475000D01*
G75*
G02*
X93222000Y-93250000I225000J0D01*
G01*
X93722000Y-93250000D01*
G75*
G02*
X93947000Y-93475000I0J-225000D01*
G01*
X93947000Y-93925000D01*
G75*
G02*
X93722000Y-94150000I-225000J0D01*
G01*
G37*
G36*
G01*
X93722000Y-95700000D02*
X93222000Y-95700000D01*
G75*
G02*
X92997000Y-95475000I0J225000D01*
G01*
X92997000Y-95025000D01*
G75*
G02*
X93222000Y-94800000I225000J0D01*
G01*
X93722000Y-94800000D01*
G75*
G02*
X93947000Y-95025000I0J-225000D01*
G01*
X93947000Y-95475000D01*
G75*
G02*
X93722000Y-95700000I-225000J0D01*
G01*
G37*
G36*
G01*
X91762568Y-94176000D02*
X91262568Y-94176000D01*
G75*
G02*
X91037568Y-93951000I0J225000D01*
G01*
X91037568Y-93501000D01*
G75*
G02*
X91262568Y-93276000I225000J0D01*
G01*
X91762568Y-93276000D01*
G75*
G02*
X91987568Y-93501000I0J-225000D01*
G01*
X91987568Y-93951000D01*
G75*
G02*
X91762568Y-94176000I-225000J0D01*
G01*
G37*
G36*
G01*
X91762568Y-95726000D02*
X91262568Y-95726000D01*
G75*
G02*
X91037568Y-95501000I0J225000D01*
G01*
X91037568Y-95051000D01*
G75*
G02*
X91262568Y-94826000I225000J0D01*
G01*
X91762568Y-94826000D01*
G75*
G02*
X91987568Y-95051000I0J-225000D01*
G01*
X91987568Y-95501000D01*
G75*
G02*
X91762568Y-95726000I-225000J0D01*
G01*
G37*
G36*
G01*
X107221000Y-143706000D02*
X108171000Y-143706000D01*
G75*
G02*
X108421000Y-143956000I0J-250000D01*
G01*
X108421000Y-144456000D01*
G75*
G02*
X108171000Y-144706000I-250000J0D01*
G01*
X107221000Y-144706000D01*
G75*
G02*
X106971000Y-144456000I0J250000D01*
G01*
X106971000Y-143956000D01*
G75*
G02*
X107221000Y-143706000I250000J0D01*
G01*
G37*
G36*
G01*
X107221000Y-141806000D02*
X108171000Y-141806000D01*
G75*
G02*
X108421000Y-142056000I0J-250000D01*
G01*
X108421000Y-142556000D01*
G75*
G02*
X108171000Y-142806000I-250000J0D01*
G01*
X107221000Y-142806000D01*
G75*
G02*
X106971000Y-142556000I0J250000D01*
G01*
X106971000Y-142056000D01*
G75*
G02*
X107221000Y-141806000I250000J0D01*
G01*
G37*
G36*
G01*
X110541750Y-141831000D02*
X111454250Y-141831000D01*
G75*
G02*
X111698000Y-142074750I0J-243750D01*
G01*
X111698000Y-142562250D01*
G75*
G02*
X111454250Y-142806000I-243750J0D01*
G01*
X110541750Y-142806000D01*
G75*
G02*
X110298000Y-142562250I0J243750D01*
G01*
X110298000Y-142074750D01*
G75*
G02*
X110541750Y-141831000I243750J0D01*
G01*
G37*
G36*
G01*
X110541750Y-143706000D02*
X111454250Y-143706000D01*
G75*
G02*
X111698000Y-143949750I0J-243750D01*
G01*
X111698000Y-144437250D01*
G75*
G02*
X111454250Y-144681000I-243750J0D01*
G01*
X110541750Y-144681000D01*
G75*
G02*
X110298000Y-144437250I0J243750D01*
G01*
X110298000Y-143949750D01*
G75*
G02*
X110541750Y-143706000I243750J0D01*
G01*
G37*
G36*
G01*
X113843750Y-143706000D02*
X114756250Y-143706000D01*
G75*
G02*
X115000000Y-143949750I0J-243750D01*
G01*
X115000000Y-144437250D01*
G75*
G02*
X114756250Y-144681000I-243750J0D01*
G01*
X113843750Y-144681000D01*
G75*
G02*
X113600000Y-144437250I0J243750D01*
G01*
X113600000Y-143949750D01*
G75*
G02*
X113843750Y-143706000I243750J0D01*
G01*
G37*
G36*
G01*
X113843750Y-141831000D02*
X114756250Y-141831000D01*
G75*
G02*
X115000000Y-142074750I0J-243750D01*
G01*
X115000000Y-142562250D01*
G75*
G02*
X114756250Y-142806000I-243750J0D01*
G01*
X113843750Y-142806000D01*
G75*
G02*
X113600000Y-142562250I0J243750D01*
G01*
X113600000Y-142074750D01*
G75*
G02*
X113843750Y-141831000I243750J0D01*
G01*
G37*
G36*
G01*
X107239750Y-140150000D02*
X108152250Y-140150000D01*
G75*
G02*
X108396000Y-140393750I0J-243750D01*
G01*
X108396000Y-140881250D01*
G75*
G02*
X108152250Y-141125000I-243750J0D01*
G01*
X107239750Y-141125000D01*
G75*
G02*
X106996000Y-140881250I0J243750D01*
G01*
X106996000Y-140393750D01*
G75*
G02*
X107239750Y-140150000I243750J0D01*
G01*
G37*
G36*
G01*
X107239750Y-138275000D02*
X108152250Y-138275000D01*
G75*
G02*
X108396000Y-138518750I0J-243750D01*
G01*
X108396000Y-139006250D01*
G75*
G02*
X108152250Y-139250000I-243750J0D01*
G01*
X107239750Y-139250000D01*
G75*
G02*
X106996000Y-139006250I0J243750D01*
G01*
X106996000Y-138518750D01*
G75*
G02*
X107239750Y-138275000I243750J0D01*
G01*
G37*
G36*
G01*
X110541750Y-138275000D02*
X111454250Y-138275000D01*
G75*
G02*
X111698000Y-138518750I0J-243750D01*
G01*
X111698000Y-139006250D01*
G75*
G02*
X111454250Y-139250000I-243750J0D01*
G01*
X110541750Y-139250000D01*
G75*
G02*
X110298000Y-139006250I0J243750D01*
G01*
X110298000Y-138518750D01*
G75*
G02*
X110541750Y-138275000I243750J0D01*
G01*
G37*
G36*
G01*
X110541750Y-140150000D02*
X111454250Y-140150000D01*
G75*
G02*
X111698000Y-140393750I0J-243750D01*
G01*
X111698000Y-140881250D01*
G75*
G02*
X111454250Y-141125000I-243750J0D01*
G01*
X110541750Y-141125000D01*
G75*
G02*
X110298000Y-140881250I0J243750D01*
G01*
X110298000Y-140393750D01*
G75*
G02*
X110541750Y-140150000I243750J0D01*
G01*
G37*
G36*
G01*
X113843750Y-140150000D02*
X114756250Y-140150000D01*
G75*
G02*
X115000000Y-140393750I0J-243750D01*
G01*
X115000000Y-140881250D01*
G75*
G02*
X114756250Y-141125000I-243750J0D01*
G01*
X113843750Y-141125000D01*
G75*
G02*
X113600000Y-140881250I0J243750D01*
G01*
X113600000Y-140393750D01*
G75*
G02*
X113843750Y-140150000I243750J0D01*
G01*
G37*
G36*
G01*
X113843750Y-138275000D02*
X114756250Y-138275000D01*
G75*
G02*
X115000000Y-138518750I0J-243750D01*
G01*
X115000000Y-139006250D01*
G75*
G02*
X114756250Y-139250000I-243750J0D01*
G01*
X113843750Y-139250000D01*
G75*
G02*
X113600000Y-139006250I0J243750D01*
G01*
X113600000Y-138518750D01*
G75*
G02*
X113843750Y-138275000I243750J0D01*
G01*
G37*
G36*
G01*
X95555750Y-141577000D02*
X96468250Y-141577000D01*
G75*
G02*
X96712000Y-141820750I0J-243750D01*
G01*
X96712000Y-142308250D01*
G75*
G02*
X96468250Y-142552000I-243750J0D01*
G01*
X95555750Y-142552000D01*
G75*
G02*
X95312000Y-142308250I0J243750D01*
G01*
X95312000Y-141820750D01*
G75*
G02*
X95555750Y-141577000I243750J0D01*
G01*
G37*
G36*
G01*
X95555750Y-143452000D02*
X96468250Y-143452000D01*
G75*
G02*
X96712000Y-143695750I0J-243750D01*
G01*
X96712000Y-144183250D01*
G75*
G02*
X96468250Y-144427000I-243750J0D01*
G01*
X95555750Y-144427000D01*
G75*
G02*
X95312000Y-144183250I0J243750D01*
G01*
X95312000Y-143695750D01*
G75*
G02*
X95555750Y-143452000I243750J0D01*
G01*
G37*
M02*
