G04 #@! TF.GenerationSoftware,KiCad,Pcbnew,5.1.9*
G04 #@! TF.CreationDate,2021-03-28T19:34:58+08:00*
G04 #@! TF.ProjectId,digital-amplifier2,64696769-7461-46c2-9d61-6d706c696669,rev?*
G04 #@! TF.SameCoordinates,Original*
G04 #@! TF.FileFunction,Paste,Top*
G04 #@! TF.FilePolarity,Positive*
%FSLAX46Y46*%
G04 Gerber Fmt 4.6, Leading zero omitted, Abs format (unit mm)*
G04 Created by KiCad (PCBNEW 5.1.9) date 2021-03-28 19:34:58*
%MOMM*%
%LPD*%
G01*
G04 APERTURE LIST*
%ADD10C,0.152400*%
%ADD11R,0.600000X1.550000*%
%ADD12R,3.100000X2.600000*%
%ADD13R,1.500000X2.400000*%
%ADD14R,2.400000X1.500000*%
%ADD15R,1.800000X2.500000*%
%ADD16R,2.000000X1.500000*%
%ADD17R,2.000000X3.800000*%
%ADD18R,0.420000X1.889999*%
%ADD19R,3.810000X2.789999*%
%ADD20R,0.558000X1.969999*%
%ADD21R,3.450001X3.450001*%
%ADD22R,0.850000X0.280000*%
%ADD23R,0.280000X0.850000*%
%ADD24R,2.500000X1.800000*%
%ADD25R,0.890000X0.420000*%
%ADD26R,0.680000X0.750000*%
%ADD27R,0.800000X0.900000*%
%ADD28R,2.000000X2.400000*%
%ADD29R,1.550000X0.600000*%
%ADD30R,2.600000X3.100000*%
%ADD31R,3.800000X2.000000*%
%ADD32R,1.500000X2.000000*%
G04 APERTURE END LIST*
D10*
X65838070Y-120599930D02*
X65289100Y-120599930D01*
X65289100Y-120599930D02*
X65289100Y-120891179D01*
X65289100Y-120891179D02*
X65289100Y-120891179D01*
X65289100Y-120891179D02*
X65430521Y-121032600D01*
X65430521Y-121032600D02*
X65430521Y-121032600D01*
X65430521Y-121032600D02*
X65838070Y-121032600D01*
X65838070Y-121032600D02*
X65838070Y-120599930D01*
X65089100Y-120599930D02*
X64501700Y-120599930D01*
X64501700Y-120599930D02*
X64501700Y-120891179D01*
X64501700Y-120891179D02*
X64501700Y-120891179D01*
X64501700Y-120891179D02*
X64643121Y-121032600D01*
X64643121Y-121032600D02*
X64643121Y-121032600D01*
X64643121Y-121032600D02*
X64947679Y-121032600D01*
X64947679Y-121032600D02*
X64947679Y-121032600D01*
X64947679Y-121032600D02*
X65089100Y-120891179D01*
X65089100Y-120891179D02*
X65089100Y-120891179D01*
X65089100Y-120891179D02*
X65089100Y-120599930D01*
X64301700Y-120599930D02*
X63714300Y-120599930D01*
X63714300Y-120599930D02*
X63714300Y-120891179D01*
X63714300Y-120891179D02*
X63714300Y-120891179D01*
X63714300Y-120891179D02*
X63855721Y-121032600D01*
X63855721Y-121032600D02*
X63855721Y-121032600D01*
X63855721Y-121032600D02*
X64160279Y-121032600D01*
X64160279Y-121032600D02*
X64160279Y-121032600D01*
X64160279Y-121032600D02*
X64301700Y-120891179D01*
X64301700Y-120891179D02*
X64301700Y-120891179D01*
X64301700Y-120891179D02*
X64301700Y-120599930D01*
X63514300Y-120599930D02*
X62926900Y-120599930D01*
X62926900Y-120599930D02*
X62926900Y-120891179D01*
X62926900Y-120891179D02*
X62926900Y-120891179D01*
X62926900Y-120891179D02*
X63068321Y-121032600D01*
X63068321Y-121032600D02*
X63068321Y-121032600D01*
X63068321Y-121032600D02*
X63372879Y-121032600D01*
X63372879Y-121032600D02*
X63372879Y-121032600D01*
X63372879Y-121032600D02*
X63514300Y-120891179D01*
X63514300Y-120891179D02*
X63514300Y-120891179D01*
X63514300Y-120891179D02*
X63514300Y-120599930D01*
X62726900Y-120599930D02*
X62177930Y-120599930D01*
X62177930Y-120599930D02*
X62177930Y-121032600D01*
X62177930Y-121032600D02*
X62585479Y-121032600D01*
X62585479Y-121032600D02*
X62585479Y-121032600D01*
X62585479Y-121032600D02*
X62726900Y-120891179D01*
X62726900Y-120891179D02*
X62726900Y-120891179D01*
X62726900Y-120891179D02*
X62726900Y-120599930D01*
X65838070Y-121232600D02*
X65430521Y-121232600D01*
X65430521Y-121232600D02*
X65430521Y-121232600D01*
X65430521Y-121232600D02*
X65289100Y-121374021D01*
X65289100Y-121374021D02*
X65289100Y-121374021D01*
X65289100Y-121374021D02*
X65289100Y-121678579D01*
X65289100Y-121678579D02*
X65289100Y-121678579D01*
X65289100Y-121678579D02*
X65430521Y-121820000D01*
X65430521Y-121820000D02*
X65430521Y-121820000D01*
X65430521Y-121820000D02*
X65838070Y-121820000D01*
X65838070Y-121820000D02*
X65838070Y-121232600D01*
X65089100Y-121374021D02*
X65089100Y-121374021D01*
X65089100Y-121374021D02*
X64947679Y-121232600D01*
X64947679Y-121232600D02*
X64947679Y-121232600D01*
X64947679Y-121232600D02*
X64643121Y-121232600D01*
X64643121Y-121232600D02*
X64643121Y-121232600D01*
X64643121Y-121232600D02*
X64501700Y-121374021D01*
X64501700Y-121374021D02*
X64501700Y-121374021D01*
X64501700Y-121374021D02*
X64501700Y-121678579D01*
X64501700Y-121678579D02*
X64501700Y-121678579D01*
X64501700Y-121678579D02*
X64643121Y-121820000D01*
X64643121Y-121820000D02*
X64643121Y-121820000D01*
X64643121Y-121820000D02*
X64947679Y-121820000D01*
X64947679Y-121820000D02*
X64947679Y-121820000D01*
X64947679Y-121820000D02*
X65089100Y-121678579D01*
X65089100Y-121678579D02*
X65089100Y-121678579D01*
X65089100Y-121678579D02*
X65089100Y-121374021D01*
X64301700Y-121374021D02*
X64301700Y-121374021D01*
X64301700Y-121374021D02*
X64160279Y-121232600D01*
X64160279Y-121232600D02*
X64160279Y-121232600D01*
X64160279Y-121232600D02*
X63855721Y-121232600D01*
X63855721Y-121232600D02*
X63855721Y-121232600D01*
X63855721Y-121232600D02*
X63714300Y-121374021D01*
X63714300Y-121374021D02*
X63714300Y-121374021D01*
X63714300Y-121374021D02*
X63714300Y-121678579D01*
X63714300Y-121678579D02*
X63714300Y-121678579D01*
X63714300Y-121678579D02*
X63855721Y-121820000D01*
X63855721Y-121820000D02*
X63855721Y-121820000D01*
X63855721Y-121820000D02*
X64160279Y-121820000D01*
X64160279Y-121820000D02*
X64160279Y-121820000D01*
X64160279Y-121820000D02*
X64301700Y-121678579D01*
X64301700Y-121678579D02*
X64301700Y-121678579D01*
X64301700Y-121678579D02*
X64301700Y-121374021D01*
X63514300Y-121374021D02*
X63514300Y-121374021D01*
X63514300Y-121374021D02*
X63372879Y-121232600D01*
X63372879Y-121232600D02*
X63372879Y-121232600D01*
X63372879Y-121232600D02*
X63068321Y-121232600D01*
X63068321Y-121232600D02*
X63068321Y-121232600D01*
X63068321Y-121232600D02*
X62926900Y-121374021D01*
X62926900Y-121374021D02*
X62926900Y-121374021D01*
X62926900Y-121374021D02*
X62926900Y-121678579D01*
X62926900Y-121678579D02*
X62926900Y-121678579D01*
X62926900Y-121678579D02*
X63068321Y-121820000D01*
X63068321Y-121820000D02*
X63068321Y-121820000D01*
X63068321Y-121820000D02*
X63372879Y-121820000D01*
X63372879Y-121820000D02*
X63372879Y-121820000D01*
X63372879Y-121820000D02*
X63514300Y-121678579D01*
X63514300Y-121678579D02*
X63514300Y-121678579D01*
X63514300Y-121678579D02*
X63514300Y-121374021D01*
X62726900Y-121374021D02*
X62726900Y-121374021D01*
X62726900Y-121374021D02*
X62585479Y-121232600D01*
X62585479Y-121232600D02*
X62585479Y-121232600D01*
X62585479Y-121232600D02*
X62177930Y-121232600D01*
X62177930Y-121232600D02*
X62177930Y-121820000D01*
X62177930Y-121820000D02*
X62585479Y-121820000D01*
X62585479Y-121820000D02*
X62585479Y-121820000D01*
X62585479Y-121820000D02*
X62726900Y-121678579D01*
X62726900Y-121678579D02*
X62726900Y-121678579D01*
X62726900Y-121678579D02*
X62726900Y-121374021D01*
X65838070Y-122020000D02*
X65430521Y-122020000D01*
X65430521Y-122020000D02*
X65430521Y-122020000D01*
X65430521Y-122020000D02*
X65289100Y-122161421D01*
X65289100Y-122161421D02*
X65289100Y-122161421D01*
X65289100Y-122161421D02*
X65289100Y-122465979D01*
X65289100Y-122465979D02*
X65289100Y-122465979D01*
X65289100Y-122465979D02*
X65430521Y-122607400D01*
X65430521Y-122607400D02*
X65430521Y-122607400D01*
X65430521Y-122607400D02*
X65838070Y-122607400D01*
X65838070Y-122607400D02*
X65838070Y-122020000D01*
X65089100Y-122161421D02*
X65089100Y-122161421D01*
X65089100Y-122161421D02*
X64947679Y-122020000D01*
X64947679Y-122020000D02*
X64947679Y-122020000D01*
X64947679Y-122020000D02*
X64643121Y-122020000D01*
X64643121Y-122020000D02*
X64643121Y-122020000D01*
X64643121Y-122020000D02*
X64501700Y-122161421D01*
X64501700Y-122161421D02*
X64501700Y-122161421D01*
X64501700Y-122161421D02*
X64501700Y-122465979D01*
X64501700Y-122465979D02*
X64501700Y-122465979D01*
X64501700Y-122465979D02*
X64643121Y-122607400D01*
X64643121Y-122607400D02*
X64643121Y-122607400D01*
X64643121Y-122607400D02*
X64947679Y-122607400D01*
X64947679Y-122607400D02*
X64947679Y-122607400D01*
X64947679Y-122607400D02*
X65089100Y-122465979D01*
X65089100Y-122465979D02*
X65089100Y-122465979D01*
X65089100Y-122465979D02*
X65089100Y-122161421D01*
X64301700Y-122161421D02*
X64301700Y-122161421D01*
X64301700Y-122161421D02*
X64160279Y-122020000D01*
X64160279Y-122020000D02*
X64160279Y-122020000D01*
X64160279Y-122020000D02*
X63855721Y-122020000D01*
X63855721Y-122020000D02*
X63855721Y-122020000D01*
X63855721Y-122020000D02*
X63714300Y-122161421D01*
X63714300Y-122161421D02*
X63714300Y-122161421D01*
X63714300Y-122161421D02*
X63714300Y-122465979D01*
X63714300Y-122465979D02*
X63714300Y-122465979D01*
X63714300Y-122465979D02*
X63855721Y-122607400D01*
X63855721Y-122607400D02*
X63855721Y-122607400D01*
X63855721Y-122607400D02*
X64160279Y-122607400D01*
X64160279Y-122607400D02*
X64160279Y-122607400D01*
X64160279Y-122607400D02*
X64301700Y-122465979D01*
X64301700Y-122465979D02*
X64301700Y-122465979D01*
X64301700Y-122465979D02*
X64301700Y-122161421D01*
X63514300Y-122161421D02*
X63514300Y-122161421D01*
X63514300Y-122161421D02*
X63372879Y-122020000D01*
X63372879Y-122020000D02*
X63372879Y-122020000D01*
X63372879Y-122020000D02*
X63068321Y-122020000D01*
X63068321Y-122020000D02*
X63068321Y-122020000D01*
X63068321Y-122020000D02*
X62926900Y-122161421D01*
X62926900Y-122161421D02*
X62926900Y-122161421D01*
X62926900Y-122161421D02*
X62926900Y-122465979D01*
X62926900Y-122465979D02*
X62926900Y-122465979D01*
X62926900Y-122465979D02*
X63068321Y-122607400D01*
X63068321Y-122607400D02*
X63068321Y-122607400D01*
X63068321Y-122607400D02*
X63372879Y-122607400D01*
X63372879Y-122607400D02*
X63372879Y-122607400D01*
X63372879Y-122607400D02*
X63514300Y-122465979D01*
X63514300Y-122465979D02*
X63514300Y-122465979D01*
X63514300Y-122465979D02*
X63514300Y-122161421D01*
X62726900Y-122161421D02*
X62726900Y-122161421D01*
X62726900Y-122161421D02*
X62585479Y-122020000D01*
X62585479Y-122020000D02*
X62585479Y-122020000D01*
X62585479Y-122020000D02*
X62177930Y-122020000D01*
X62177930Y-122020000D02*
X62177930Y-122607400D01*
X62177930Y-122607400D02*
X62585479Y-122607400D01*
X62585479Y-122607400D02*
X62585479Y-122607400D01*
X62585479Y-122607400D02*
X62726900Y-122465979D01*
X62726900Y-122465979D02*
X62726900Y-122465979D01*
X62726900Y-122465979D02*
X62726900Y-122161421D01*
X65838070Y-122807400D02*
X65430521Y-122807400D01*
X65430521Y-122807400D02*
X65430521Y-122807400D01*
X65430521Y-122807400D02*
X65289100Y-122948821D01*
X65289100Y-122948821D02*
X65289100Y-122948821D01*
X65289100Y-122948821D02*
X65289100Y-123240070D01*
X65289100Y-123240070D02*
X65838070Y-123240070D01*
X65838070Y-123240070D02*
X65838070Y-122807400D01*
X65089100Y-122948821D02*
X65089100Y-122948821D01*
X65089100Y-122948821D02*
X64947679Y-122807400D01*
X64947679Y-122807400D02*
X64947679Y-122807400D01*
X64947679Y-122807400D02*
X64643121Y-122807400D01*
X64643121Y-122807400D02*
X64643121Y-122807400D01*
X64643121Y-122807400D02*
X64501700Y-122948821D01*
X64501700Y-122948821D02*
X64501700Y-122948821D01*
X64501700Y-122948821D02*
X64501700Y-123240070D01*
X64501700Y-123240070D02*
X65089100Y-123240070D01*
X65089100Y-123240070D02*
X65089100Y-122948821D01*
X64301700Y-122948821D02*
X64301700Y-122948821D01*
X64301700Y-122948821D02*
X64160279Y-122807400D01*
X64160279Y-122807400D02*
X64160279Y-122807400D01*
X64160279Y-122807400D02*
X63855721Y-122807400D01*
X63855721Y-122807400D02*
X63855721Y-122807400D01*
X63855721Y-122807400D02*
X63714300Y-122948821D01*
X63714300Y-122948821D02*
X63714300Y-122948821D01*
X63714300Y-122948821D02*
X63714300Y-123240070D01*
X63714300Y-123240070D02*
X64301700Y-123240070D01*
X64301700Y-123240070D02*
X64301700Y-122948821D01*
X63514300Y-122948821D02*
X63514300Y-122948821D01*
X63514300Y-122948821D02*
X63372879Y-122807400D01*
X63372879Y-122807400D02*
X63372879Y-122807400D01*
X63372879Y-122807400D02*
X63068321Y-122807400D01*
X63068321Y-122807400D02*
X63068321Y-122807400D01*
X63068321Y-122807400D02*
X62926900Y-122948821D01*
X62926900Y-122948821D02*
X62926900Y-122948821D01*
X62926900Y-122948821D02*
X62926900Y-123240070D01*
X62926900Y-123240070D02*
X63514300Y-123240070D01*
X63514300Y-123240070D02*
X63514300Y-122948821D01*
X62726900Y-122948821D02*
X62726900Y-122948821D01*
X62726900Y-122948821D02*
X62585479Y-122807400D01*
X62585479Y-122807400D02*
X62585479Y-122807400D01*
X62585479Y-122807400D02*
X62177930Y-122807400D01*
X62177930Y-122807400D02*
X62177930Y-123240070D01*
X62177930Y-123240070D02*
X62726900Y-123240070D01*
X62726900Y-123240070D02*
X62726900Y-122948821D01*
X90042070Y-120269930D02*
X89673100Y-120269930D01*
X89673100Y-120269930D02*
X89673100Y-120497479D01*
X89673100Y-120497479D02*
X89673100Y-120497479D01*
X89673100Y-120497479D02*
X89814521Y-120638900D01*
X89814521Y-120638900D02*
X89814521Y-120638900D01*
X89814521Y-120638900D02*
X90042070Y-120638900D01*
X90042070Y-120638900D02*
X90042070Y-120269930D01*
X89473100Y-120269930D02*
X88885700Y-120269930D01*
X88885700Y-120269930D02*
X88885700Y-120497479D01*
X88885700Y-120497479D02*
X88885700Y-120497479D01*
X88885700Y-120497479D02*
X89027121Y-120638900D01*
X89027121Y-120638900D02*
X89027121Y-120638900D01*
X89027121Y-120638900D02*
X89331679Y-120638900D01*
X89331679Y-120638900D02*
X89331679Y-120638900D01*
X89331679Y-120638900D02*
X89473100Y-120497479D01*
X89473100Y-120497479D02*
X89473100Y-120497479D01*
X89473100Y-120497479D02*
X89473100Y-120269930D01*
X88685700Y-120269930D02*
X88098300Y-120269930D01*
X88098300Y-120269930D02*
X88098300Y-120497479D01*
X88098300Y-120497479D02*
X88098300Y-120497479D01*
X88098300Y-120497479D02*
X88239721Y-120638900D01*
X88239721Y-120638900D02*
X88239721Y-120638900D01*
X88239721Y-120638900D02*
X88544279Y-120638900D01*
X88544279Y-120638900D02*
X88544279Y-120638900D01*
X88544279Y-120638900D02*
X88685700Y-120497479D01*
X88685700Y-120497479D02*
X88685700Y-120497479D01*
X88685700Y-120497479D02*
X88685700Y-120269930D01*
X87898300Y-120269930D02*
X87310900Y-120269930D01*
X87310900Y-120269930D02*
X87310900Y-120497479D01*
X87310900Y-120497479D02*
X87310900Y-120497479D01*
X87310900Y-120497479D02*
X87452321Y-120638900D01*
X87452321Y-120638900D02*
X87452321Y-120638900D01*
X87452321Y-120638900D02*
X87756879Y-120638900D01*
X87756879Y-120638900D02*
X87756879Y-120638900D01*
X87756879Y-120638900D02*
X87898300Y-120497479D01*
X87898300Y-120497479D02*
X87898300Y-120497479D01*
X87898300Y-120497479D02*
X87898300Y-120269930D01*
X87110900Y-120269930D02*
X86741930Y-120269930D01*
X86741930Y-120269930D02*
X86741930Y-120638900D01*
X86741930Y-120638900D02*
X86969479Y-120638900D01*
X86969479Y-120638900D02*
X86969479Y-120638900D01*
X86969479Y-120638900D02*
X87110900Y-120497479D01*
X87110900Y-120497479D02*
X87110900Y-120497479D01*
X87110900Y-120497479D02*
X87110900Y-120269930D01*
X90042070Y-120838900D02*
X89814521Y-120838900D01*
X89814521Y-120838900D02*
X89814521Y-120838900D01*
X89814521Y-120838900D02*
X89673100Y-120980321D01*
X89673100Y-120980321D02*
X89673100Y-120980321D01*
X89673100Y-120980321D02*
X89673100Y-121284879D01*
X89673100Y-121284879D02*
X89673100Y-121284879D01*
X89673100Y-121284879D02*
X89814521Y-121426300D01*
X89814521Y-121426300D02*
X89814521Y-121426300D01*
X89814521Y-121426300D02*
X90042070Y-121426300D01*
X90042070Y-121426300D02*
X90042070Y-120838900D01*
X89473100Y-120980321D02*
X89473100Y-120980321D01*
X89473100Y-120980321D02*
X89331679Y-120838900D01*
X89331679Y-120838900D02*
X89331679Y-120838900D01*
X89331679Y-120838900D02*
X89027121Y-120838900D01*
X89027121Y-120838900D02*
X89027121Y-120838900D01*
X89027121Y-120838900D02*
X88885700Y-120980321D01*
X88885700Y-120980321D02*
X88885700Y-120980321D01*
X88885700Y-120980321D02*
X88885700Y-121284879D01*
X88885700Y-121284879D02*
X88885700Y-121284879D01*
X88885700Y-121284879D02*
X89027121Y-121426300D01*
X89027121Y-121426300D02*
X89027121Y-121426300D01*
X89027121Y-121426300D02*
X89331679Y-121426300D01*
X89331679Y-121426300D02*
X89331679Y-121426300D01*
X89331679Y-121426300D02*
X89473100Y-121284879D01*
X89473100Y-121284879D02*
X89473100Y-121284879D01*
X89473100Y-121284879D02*
X89473100Y-120980321D01*
X88685700Y-120980321D02*
X88685700Y-120980321D01*
X88685700Y-120980321D02*
X88544279Y-120838900D01*
X88544279Y-120838900D02*
X88544279Y-120838900D01*
X88544279Y-120838900D02*
X88239721Y-120838900D01*
X88239721Y-120838900D02*
X88239721Y-120838900D01*
X88239721Y-120838900D02*
X88098300Y-120980321D01*
X88098300Y-120980321D02*
X88098300Y-120980321D01*
X88098300Y-120980321D02*
X88098300Y-121284879D01*
X88098300Y-121284879D02*
X88098300Y-121284879D01*
X88098300Y-121284879D02*
X88239721Y-121426300D01*
X88239721Y-121426300D02*
X88239721Y-121426300D01*
X88239721Y-121426300D02*
X88544279Y-121426300D01*
X88544279Y-121426300D02*
X88544279Y-121426300D01*
X88544279Y-121426300D02*
X88685700Y-121284879D01*
X88685700Y-121284879D02*
X88685700Y-121284879D01*
X88685700Y-121284879D02*
X88685700Y-120980321D01*
X87898300Y-120980321D02*
X87898300Y-120980321D01*
X87898300Y-120980321D02*
X87756879Y-120838900D01*
X87756879Y-120838900D02*
X87756879Y-120838900D01*
X87756879Y-120838900D02*
X87452321Y-120838900D01*
X87452321Y-120838900D02*
X87452321Y-120838900D01*
X87452321Y-120838900D02*
X87310900Y-120980321D01*
X87310900Y-120980321D02*
X87310900Y-120980321D01*
X87310900Y-120980321D02*
X87310900Y-121284879D01*
X87310900Y-121284879D02*
X87310900Y-121284879D01*
X87310900Y-121284879D02*
X87452321Y-121426300D01*
X87452321Y-121426300D02*
X87452321Y-121426300D01*
X87452321Y-121426300D02*
X87756879Y-121426300D01*
X87756879Y-121426300D02*
X87756879Y-121426300D01*
X87756879Y-121426300D02*
X87898300Y-121284879D01*
X87898300Y-121284879D02*
X87898300Y-121284879D01*
X87898300Y-121284879D02*
X87898300Y-120980321D01*
X87110900Y-120980321D02*
X87110900Y-120980321D01*
X87110900Y-120980321D02*
X86969479Y-120838900D01*
X86969479Y-120838900D02*
X86969479Y-120838900D01*
X86969479Y-120838900D02*
X86741930Y-120838900D01*
X86741930Y-120838900D02*
X86741930Y-121426300D01*
X86741930Y-121426300D02*
X86969479Y-121426300D01*
X86969479Y-121426300D02*
X86969479Y-121426300D01*
X86969479Y-121426300D02*
X87110900Y-121284879D01*
X87110900Y-121284879D02*
X87110900Y-121284879D01*
X87110900Y-121284879D02*
X87110900Y-120980321D01*
X90042070Y-121626300D02*
X89814521Y-121626300D01*
X89814521Y-121626300D02*
X89814521Y-121626300D01*
X89814521Y-121626300D02*
X89673100Y-121767721D01*
X89673100Y-121767721D02*
X89673100Y-121767721D01*
X89673100Y-121767721D02*
X89673100Y-122072279D01*
X89673100Y-122072279D02*
X89673100Y-122072279D01*
X89673100Y-122072279D02*
X89814521Y-122213700D01*
X89814521Y-122213700D02*
X89814521Y-122213700D01*
X89814521Y-122213700D02*
X90042070Y-122213700D01*
X90042070Y-122213700D02*
X90042070Y-121626300D01*
X89473100Y-121767721D02*
X89473100Y-121767721D01*
X89473100Y-121767721D02*
X89331679Y-121626300D01*
X89331679Y-121626300D02*
X89331679Y-121626300D01*
X89331679Y-121626300D02*
X89027121Y-121626300D01*
X89027121Y-121626300D02*
X89027121Y-121626300D01*
X89027121Y-121626300D02*
X88885700Y-121767721D01*
X88885700Y-121767721D02*
X88885700Y-121767721D01*
X88885700Y-121767721D02*
X88885700Y-122072279D01*
X88885700Y-122072279D02*
X88885700Y-122072279D01*
X88885700Y-122072279D02*
X89027121Y-122213700D01*
X89027121Y-122213700D02*
X89027121Y-122213700D01*
X89027121Y-122213700D02*
X89331679Y-122213700D01*
X89331679Y-122213700D02*
X89331679Y-122213700D01*
X89331679Y-122213700D02*
X89473100Y-122072279D01*
X89473100Y-122072279D02*
X89473100Y-122072279D01*
X89473100Y-122072279D02*
X89473100Y-121767721D01*
X88685700Y-121767721D02*
X88685700Y-121767721D01*
X88685700Y-121767721D02*
X88544279Y-121626300D01*
X88544279Y-121626300D02*
X88544279Y-121626300D01*
X88544279Y-121626300D02*
X88239721Y-121626300D01*
X88239721Y-121626300D02*
X88239721Y-121626300D01*
X88239721Y-121626300D02*
X88098300Y-121767721D01*
X88098300Y-121767721D02*
X88098300Y-121767721D01*
X88098300Y-121767721D02*
X88098300Y-122072279D01*
X88098300Y-122072279D02*
X88098300Y-122072279D01*
X88098300Y-122072279D02*
X88239721Y-122213700D01*
X88239721Y-122213700D02*
X88239721Y-122213700D01*
X88239721Y-122213700D02*
X88544279Y-122213700D01*
X88544279Y-122213700D02*
X88544279Y-122213700D01*
X88544279Y-122213700D02*
X88685700Y-122072279D01*
X88685700Y-122072279D02*
X88685700Y-122072279D01*
X88685700Y-122072279D02*
X88685700Y-121767721D01*
X87898300Y-121767721D02*
X87898300Y-121767721D01*
X87898300Y-121767721D02*
X87756879Y-121626300D01*
X87756879Y-121626300D02*
X87756879Y-121626300D01*
X87756879Y-121626300D02*
X87452321Y-121626300D01*
X87452321Y-121626300D02*
X87452321Y-121626300D01*
X87452321Y-121626300D02*
X87310900Y-121767721D01*
X87310900Y-121767721D02*
X87310900Y-121767721D01*
X87310900Y-121767721D02*
X87310900Y-122072279D01*
X87310900Y-122072279D02*
X87310900Y-122072279D01*
X87310900Y-122072279D02*
X87452321Y-122213700D01*
X87452321Y-122213700D02*
X87452321Y-122213700D01*
X87452321Y-122213700D02*
X87756879Y-122213700D01*
X87756879Y-122213700D02*
X87756879Y-122213700D01*
X87756879Y-122213700D02*
X87898300Y-122072279D01*
X87898300Y-122072279D02*
X87898300Y-122072279D01*
X87898300Y-122072279D02*
X87898300Y-121767721D01*
X87110900Y-121767721D02*
X87110900Y-121767721D01*
X87110900Y-121767721D02*
X86969479Y-121626300D01*
X86969479Y-121626300D02*
X86969479Y-121626300D01*
X86969479Y-121626300D02*
X86741930Y-121626300D01*
X86741930Y-121626300D02*
X86741930Y-122213700D01*
X86741930Y-122213700D02*
X86969479Y-122213700D01*
X86969479Y-122213700D02*
X86969479Y-122213700D01*
X86969479Y-122213700D02*
X87110900Y-122072279D01*
X87110900Y-122072279D02*
X87110900Y-122072279D01*
X87110900Y-122072279D02*
X87110900Y-121767721D01*
X90042070Y-122413700D02*
X89814521Y-122413700D01*
X89814521Y-122413700D02*
X89814521Y-122413700D01*
X89814521Y-122413700D02*
X89673100Y-122555121D01*
X89673100Y-122555121D02*
X89673100Y-122555121D01*
X89673100Y-122555121D02*
X89673100Y-122859679D01*
X89673100Y-122859679D02*
X89673100Y-122859679D01*
X89673100Y-122859679D02*
X89814521Y-123001100D01*
X89814521Y-123001100D02*
X89814521Y-123001100D01*
X89814521Y-123001100D02*
X90042070Y-123001100D01*
X90042070Y-123001100D02*
X90042070Y-122413700D01*
X89473100Y-122555121D02*
X89473100Y-122555121D01*
X89473100Y-122555121D02*
X89331679Y-122413700D01*
X89331679Y-122413700D02*
X89331679Y-122413700D01*
X89331679Y-122413700D02*
X89027121Y-122413700D01*
X89027121Y-122413700D02*
X89027121Y-122413700D01*
X89027121Y-122413700D02*
X88885700Y-122555121D01*
X88885700Y-122555121D02*
X88885700Y-122555121D01*
X88885700Y-122555121D02*
X88885700Y-122859679D01*
X88885700Y-122859679D02*
X88885700Y-122859679D01*
X88885700Y-122859679D02*
X89027121Y-123001100D01*
X89027121Y-123001100D02*
X89027121Y-123001100D01*
X89027121Y-123001100D02*
X89331679Y-123001100D01*
X89331679Y-123001100D02*
X89331679Y-123001100D01*
X89331679Y-123001100D02*
X89473100Y-122859679D01*
X89473100Y-122859679D02*
X89473100Y-122859679D01*
X89473100Y-122859679D02*
X89473100Y-122555121D01*
X88685700Y-122555121D02*
X88685700Y-122555121D01*
X88685700Y-122555121D02*
X88544279Y-122413700D01*
X88544279Y-122413700D02*
X88544279Y-122413700D01*
X88544279Y-122413700D02*
X88239721Y-122413700D01*
X88239721Y-122413700D02*
X88239721Y-122413700D01*
X88239721Y-122413700D02*
X88098300Y-122555121D01*
X88098300Y-122555121D02*
X88098300Y-122555121D01*
X88098300Y-122555121D02*
X88098300Y-122859679D01*
X88098300Y-122859679D02*
X88098300Y-122859679D01*
X88098300Y-122859679D02*
X88239721Y-123001100D01*
X88239721Y-123001100D02*
X88239721Y-123001100D01*
X88239721Y-123001100D02*
X88544279Y-123001100D01*
X88544279Y-123001100D02*
X88544279Y-123001100D01*
X88544279Y-123001100D02*
X88685700Y-122859679D01*
X88685700Y-122859679D02*
X88685700Y-122859679D01*
X88685700Y-122859679D02*
X88685700Y-122555121D01*
X87898300Y-122555121D02*
X87898300Y-122555121D01*
X87898300Y-122555121D02*
X87756879Y-122413700D01*
X87756879Y-122413700D02*
X87756879Y-122413700D01*
X87756879Y-122413700D02*
X87452321Y-122413700D01*
X87452321Y-122413700D02*
X87452321Y-122413700D01*
X87452321Y-122413700D02*
X87310900Y-122555121D01*
X87310900Y-122555121D02*
X87310900Y-122555121D01*
X87310900Y-122555121D02*
X87310900Y-122859679D01*
X87310900Y-122859679D02*
X87310900Y-122859679D01*
X87310900Y-122859679D02*
X87452321Y-123001100D01*
X87452321Y-123001100D02*
X87452321Y-123001100D01*
X87452321Y-123001100D02*
X87756879Y-123001100D01*
X87756879Y-123001100D02*
X87756879Y-123001100D01*
X87756879Y-123001100D02*
X87898300Y-122859679D01*
X87898300Y-122859679D02*
X87898300Y-122859679D01*
X87898300Y-122859679D02*
X87898300Y-122555121D01*
X87110900Y-122555121D02*
X87110900Y-122555121D01*
X87110900Y-122555121D02*
X86969479Y-122413700D01*
X86969479Y-122413700D02*
X86969479Y-122413700D01*
X86969479Y-122413700D02*
X86741930Y-122413700D01*
X86741930Y-122413700D02*
X86741930Y-123001100D01*
X86741930Y-123001100D02*
X86969479Y-123001100D01*
X86969479Y-123001100D02*
X86969479Y-123001100D01*
X86969479Y-123001100D02*
X87110900Y-122859679D01*
X87110900Y-122859679D02*
X87110900Y-122859679D01*
X87110900Y-122859679D02*
X87110900Y-122555121D01*
X90042070Y-123201100D02*
X89814521Y-123201100D01*
X89814521Y-123201100D02*
X89814521Y-123201100D01*
X89814521Y-123201100D02*
X89673100Y-123342521D01*
X89673100Y-123342521D02*
X89673100Y-123342521D01*
X89673100Y-123342521D02*
X89673100Y-123570070D01*
X89673100Y-123570070D02*
X90042070Y-123570070D01*
X90042070Y-123570070D02*
X90042070Y-123201100D01*
X89473100Y-123342521D02*
X89473100Y-123342521D01*
X89473100Y-123342521D02*
X89331679Y-123201100D01*
X89331679Y-123201100D02*
X89331679Y-123201100D01*
X89331679Y-123201100D02*
X89027121Y-123201100D01*
X89027121Y-123201100D02*
X89027121Y-123201100D01*
X89027121Y-123201100D02*
X88885700Y-123342521D01*
X88885700Y-123342521D02*
X88885700Y-123342521D01*
X88885700Y-123342521D02*
X88885700Y-123570070D01*
X88885700Y-123570070D02*
X89473100Y-123570070D01*
X89473100Y-123570070D02*
X89473100Y-123342521D01*
X88685700Y-123342521D02*
X88685700Y-123342521D01*
X88685700Y-123342521D02*
X88544279Y-123201100D01*
X88544279Y-123201100D02*
X88544279Y-123201100D01*
X88544279Y-123201100D02*
X88239721Y-123201100D01*
X88239721Y-123201100D02*
X88239721Y-123201100D01*
X88239721Y-123201100D02*
X88098300Y-123342521D01*
X88098300Y-123342521D02*
X88098300Y-123342521D01*
X88098300Y-123342521D02*
X88098300Y-123570070D01*
X88098300Y-123570070D02*
X88685700Y-123570070D01*
X88685700Y-123570070D02*
X88685700Y-123342521D01*
X87898300Y-123342521D02*
X87898300Y-123342521D01*
X87898300Y-123342521D02*
X87756879Y-123201100D01*
X87756879Y-123201100D02*
X87756879Y-123201100D01*
X87756879Y-123201100D02*
X87452321Y-123201100D01*
X87452321Y-123201100D02*
X87452321Y-123201100D01*
X87452321Y-123201100D02*
X87310900Y-123342521D01*
X87310900Y-123342521D02*
X87310900Y-123342521D01*
X87310900Y-123342521D02*
X87310900Y-123570070D01*
X87310900Y-123570070D02*
X87898300Y-123570070D01*
X87898300Y-123570070D02*
X87898300Y-123342521D01*
X87110900Y-123342521D02*
X87110900Y-123342521D01*
X87110900Y-123342521D02*
X86969479Y-123201100D01*
X86969479Y-123201100D02*
X86969479Y-123201100D01*
X86969479Y-123201100D02*
X86741930Y-123201100D01*
X86741930Y-123201100D02*
X86741930Y-123570070D01*
X86741930Y-123570070D02*
X87110900Y-123570070D01*
X87110900Y-123570070D02*
X87110900Y-123342521D01*
G36*
G01*
X108262000Y-133637000D02*
X108262000Y-134587000D01*
G75*
G02*
X108012000Y-134837000I-250000J0D01*
G01*
X107512000Y-134837000D01*
G75*
G02*
X107262000Y-134587000I0J250000D01*
G01*
X107262000Y-133637000D01*
G75*
G02*
X107512000Y-133387000I250000J0D01*
G01*
X108012000Y-133387000D01*
G75*
G02*
X108262000Y-133637000I0J-250000D01*
G01*
G37*
G36*
G01*
X110162000Y-133637000D02*
X110162000Y-134587000D01*
G75*
G02*
X109912000Y-134837000I-250000J0D01*
G01*
X109412000Y-134837000D01*
G75*
G02*
X109162000Y-134587000I0J250000D01*
G01*
X109162000Y-133637000D01*
G75*
G02*
X109412000Y-133387000I250000J0D01*
G01*
X109912000Y-133387000D01*
G75*
G02*
X110162000Y-133637000I0J-250000D01*
G01*
G37*
G36*
G01*
X105606000Y-134587000D02*
X105606000Y-133637000D01*
G75*
G02*
X105856000Y-133387000I250000J0D01*
G01*
X106356000Y-133387000D01*
G75*
G02*
X106606000Y-133637000I0J-250000D01*
G01*
X106606000Y-134587000D01*
G75*
G02*
X106356000Y-134837000I-250000J0D01*
G01*
X105856000Y-134837000D01*
G75*
G02*
X105606000Y-134587000I0J250000D01*
G01*
G37*
G36*
G01*
X103706000Y-134587000D02*
X103706000Y-133637000D01*
G75*
G02*
X103956000Y-133387000I250000J0D01*
G01*
X104456000Y-133387000D01*
G75*
G02*
X104706000Y-133637000I0J-250000D01*
G01*
X104706000Y-134587000D01*
G75*
G02*
X104456000Y-134837000I-250000J0D01*
G01*
X103956000Y-134837000D01*
G75*
G02*
X103706000Y-134587000I0J250000D01*
G01*
G37*
G36*
G01*
X99281000Y-123756000D02*
X98331000Y-123756000D01*
G75*
G02*
X98081000Y-123506000I0J250000D01*
G01*
X98081000Y-123006000D01*
G75*
G02*
X98331000Y-122756000I250000J0D01*
G01*
X99281000Y-122756000D01*
G75*
G02*
X99531000Y-123006000I0J-250000D01*
G01*
X99531000Y-123506000D01*
G75*
G02*
X99281000Y-123756000I-250000J0D01*
G01*
G37*
G36*
G01*
X99281000Y-125656000D02*
X98331000Y-125656000D01*
G75*
G02*
X98081000Y-125406000I0J250000D01*
G01*
X98081000Y-124906000D01*
G75*
G02*
X98331000Y-124656000I250000J0D01*
G01*
X99281000Y-124656000D01*
G75*
G02*
X99531000Y-124906000I0J-250000D01*
G01*
X99531000Y-125406000D01*
G75*
G02*
X99281000Y-125656000I-250000J0D01*
G01*
G37*
G36*
G01*
X116365000Y-115766000D02*
X117315000Y-115766000D01*
G75*
G02*
X117565000Y-116016000I0J-250000D01*
G01*
X117565000Y-116516000D01*
G75*
G02*
X117315000Y-116766000I-250000J0D01*
G01*
X116365000Y-116766000D01*
G75*
G02*
X116115000Y-116516000I0J250000D01*
G01*
X116115000Y-116016000D01*
G75*
G02*
X116365000Y-115766000I250000J0D01*
G01*
G37*
G36*
G01*
X116365000Y-113866000D02*
X117315000Y-113866000D01*
G75*
G02*
X117565000Y-114116000I0J-250000D01*
G01*
X117565000Y-114616000D01*
G75*
G02*
X117315000Y-114866000I-250000J0D01*
G01*
X116365000Y-114866000D01*
G75*
G02*
X116115000Y-114616000I0J250000D01*
G01*
X116115000Y-114116000D01*
G75*
G02*
X116365000Y-113866000I250000J0D01*
G01*
G37*
G36*
G01*
X102050000Y-112235000D02*
X102050000Y-111285000D01*
G75*
G02*
X102300000Y-111035000I250000J0D01*
G01*
X102800000Y-111035000D01*
G75*
G02*
X103050000Y-111285000I0J-250000D01*
G01*
X103050000Y-112235000D01*
G75*
G02*
X102800000Y-112485000I-250000J0D01*
G01*
X102300000Y-112485000D01*
G75*
G02*
X102050000Y-112235000I0J250000D01*
G01*
G37*
G36*
G01*
X100150000Y-112235000D02*
X100150000Y-111285000D01*
G75*
G02*
X100400000Y-111035000I250000J0D01*
G01*
X100900000Y-111035000D01*
G75*
G02*
X101150000Y-111285000I0J-250000D01*
G01*
X101150000Y-112235000D01*
G75*
G02*
X100900000Y-112485000I-250000J0D01*
G01*
X100400000Y-112485000D01*
G75*
G02*
X100150000Y-112235000I0J250000D01*
G01*
G37*
G36*
G01*
X116365000Y-123894000D02*
X117315000Y-123894000D01*
G75*
G02*
X117565000Y-124144000I0J-250000D01*
G01*
X117565000Y-124644000D01*
G75*
G02*
X117315000Y-124894000I-250000J0D01*
G01*
X116365000Y-124894000D01*
G75*
G02*
X116115000Y-124644000I0J250000D01*
G01*
X116115000Y-124144000D01*
G75*
G02*
X116365000Y-123894000I250000J0D01*
G01*
G37*
G36*
G01*
X116365000Y-121994000D02*
X117315000Y-121994000D01*
G75*
G02*
X117565000Y-122244000I0J-250000D01*
G01*
X117565000Y-122744000D01*
G75*
G02*
X117315000Y-122994000I-250000J0D01*
G01*
X116365000Y-122994000D01*
G75*
G02*
X116115000Y-122744000I0J250000D01*
G01*
X116115000Y-122244000D01*
G75*
G02*
X116365000Y-121994000I250000J0D01*
G01*
G37*
D11*
X118237000Y-79408000D03*
X116967000Y-79408000D03*
X115697000Y-79408000D03*
X114427000Y-79408000D03*
X114427000Y-74008000D03*
X115697000Y-74008000D03*
X116967000Y-74008000D03*
X118237000Y-74008000D03*
D12*
X116332000Y-76708000D03*
G36*
G01*
X110852000Y-77273999D02*
X110852000Y-78174001D01*
G75*
G02*
X110602001Y-78424000I-249999J0D01*
G01*
X110076999Y-78424000D01*
G75*
G02*
X109827000Y-78174001I0J249999D01*
G01*
X109827000Y-77273999D01*
G75*
G02*
X110076999Y-77024000I249999J0D01*
G01*
X110602001Y-77024000D01*
G75*
G02*
X110852000Y-77273999I0J-249999D01*
G01*
G37*
G36*
G01*
X112677000Y-77273999D02*
X112677000Y-78174001D01*
G75*
G02*
X112427001Y-78424000I-249999J0D01*
G01*
X111901999Y-78424000D01*
G75*
G02*
X111652000Y-78174001I0J249999D01*
G01*
X111652000Y-77273999D01*
G75*
G02*
X111901999Y-77024000I249999J0D01*
G01*
X112427001Y-77024000D01*
G75*
G02*
X112677000Y-77273999I0J-249999D01*
G01*
G37*
G36*
G01*
X111652000Y-80206001D02*
X111652000Y-79305999D01*
G75*
G02*
X111901999Y-79056000I249999J0D01*
G01*
X112427001Y-79056000D01*
G75*
G02*
X112677000Y-79305999I0J-249999D01*
G01*
X112677000Y-80206001D01*
G75*
G02*
X112427001Y-80456000I-249999J0D01*
G01*
X111901999Y-80456000D01*
G75*
G02*
X111652000Y-80206001I0J249999D01*
G01*
G37*
G36*
G01*
X109827000Y-80206001D02*
X109827000Y-79305999D01*
G75*
G02*
X110076999Y-79056000I249999J0D01*
G01*
X110602001Y-79056000D01*
G75*
G02*
X110852000Y-79305999I0J-249999D01*
G01*
X110852000Y-80206001D01*
G75*
G02*
X110602001Y-80456000I-249999J0D01*
G01*
X110076999Y-80456000D01*
G75*
G02*
X109827000Y-80206001I0J249999D01*
G01*
G37*
G36*
G01*
X114357999Y-83712000D02*
X115258001Y-83712000D01*
G75*
G02*
X115508000Y-83961999I0J-249999D01*
G01*
X115508000Y-84487001D01*
G75*
G02*
X115258001Y-84737000I-249999J0D01*
G01*
X114357999Y-84737000D01*
G75*
G02*
X114108000Y-84487001I0J249999D01*
G01*
X114108000Y-83961999D01*
G75*
G02*
X114357999Y-83712000I249999J0D01*
G01*
G37*
G36*
G01*
X114357999Y-81887000D02*
X115258001Y-81887000D01*
G75*
G02*
X115508000Y-82136999I0J-249999D01*
G01*
X115508000Y-82662001D01*
G75*
G02*
X115258001Y-82912000I-249999J0D01*
G01*
X114357999Y-82912000D01*
G75*
G02*
X114108000Y-82662001I0J249999D01*
G01*
X114108000Y-82136999D01*
G75*
G02*
X114357999Y-81887000I249999J0D01*
G01*
G37*
G36*
G01*
X111817999Y-75076000D02*
X112718001Y-75076000D01*
G75*
G02*
X112968000Y-75325999I0J-249999D01*
G01*
X112968000Y-75851001D01*
G75*
G02*
X112718001Y-76101000I-249999J0D01*
G01*
X111817999Y-76101000D01*
G75*
G02*
X111568000Y-75851001I0J249999D01*
G01*
X111568000Y-75325999D01*
G75*
G02*
X111817999Y-75076000I249999J0D01*
G01*
G37*
G36*
G01*
X111817999Y-73251000D02*
X112718001Y-73251000D01*
G75*
G02*
X112968000Y-73500999I0J-249999D01*
G01*
X112968000Y-74026001D01*
G75*
G02*
X112718001Y-74276000I-249999J0D01*
G01*
X111817999Y-74276000D01*
G75*
G02*
X111568000Y-74026001I0J249999D01*
G01*
X111568000Y-73500999D01*
G75*
G02*
X111817999Y-73251000I249999J0D01*
G01*
G37*
D13*
X135084000Y-85979000D03*
X129584000Y-85979000D03*
D14*
X123952000Y-83610000D03*
X123952000Y-89110000D03*
D15*
X118364000Y-88360000D03*
X118364000Y-84360000D03*
G36*
G01*
X113342000Y-85885000D02*
X113342000Y-86835000D01*
G75*
G02*
X113092000Y-87085000I-250000J0D01*
G01*
X112592000Y-87085000D01*
G75*
G02*
X112342000Y-86835000I0J250000D01*
G01*
X112342000Y-85885000D01*
G75*
G02*
X112592000Y-85635000I250000J0D01*
G01*
X113092000Y-85635000D01*
G75*
G02*
X113342000Y-85885000I0J-250000D01*
G01*
G37*
G36*
G01*
X115242000Y-85885000D02*
X115242000Y-86835000D01*
G75*
G02*
X114992000Y-87085000I-250000J0D01*
G01*
X114492000Y-87085000D01*
G75*
G02*
X114242000Y-86835000I0J250000D01*
G01*
X114242000Y-85885000D01*
G75*
G02*
X114492000Y-85635000I250000J0D01*
G01*
X114992000Y-85635000D01*
G75*
G02*
X115242000Y-85885000I0J-250000D01*
G01*
G37*
G36*
G01*
X119921000Y-77158000D02*
X120871000Y-77158000D01*
G75*
G02*
X121121000Y-77408000I0J-250000D01*
G01*
X121121000Y-77908000D01*
G75*
G02*
X120871000Y-78158000I-250000J0D01*
G01*
X119921000Y-78158000D01*
G75*
G02*
X119671000Y-77908000I0J250000D01*
G01*
X119671000Y-77408000D01*
G75*
G02*
X119921000Y-77158000I250000J0D01*
G01*
G37*
G36*
G01*
X119921000Y-75258000D02*
X120871000Y-75258000D01*
G75*
G02*
X121121000Y-75508000I0J-250000D01*
G01*
X121121000Y-76008000D01*
G75*
G02*
X120871000Y-76258000I-250000J0D01*
G01*
X119921000Y-76258000D01*
G75*
G02*
X119671000Y-76008000I0J250000D01*
G01*
X119671000Y-75508000D01*
G75*
G02*
X119921000Y-75258000I250000J0D01*
G01*
G37*
G36*
G01*
X112301000Y-83762000D02*
X113251000Y-83762000D01*
G75*
G02*
X113501000Y-84012000I0J-250000D01*
G01*
X113501000Y-84512000D01*
G75*
G02*
X113251000Y-84762000I-250000J0D01*
G01*
X112301000Y-84762000D01*
G75*
G02*
X112051000Y-84512000I0J250000D01*
G01*
X112051000Y-84012000D01*
G75*
G02*
X112301000Y-83762000I250000J0D01*
G01*
G37*
G36*
G01*
X112301000Y-81862000D02*
X113251000Y-81862000D01*
G75*
G02*
X113501000Y-82112000I0J-250000D01*
G01*
X113501000Y-82612000D01*
G75*
G02*
X113251000Y-82862000I-250000J0D01*
G01*
X112301000Y-82862000D01*
G75*
G02*
X112051000Y-82612000I0J250000D01*
G01*
X112051000Y-82112000D01*
G75*
G02*
X112301000Y-81862000I250000J0D01*
G01*
G37*
G36*
G01*
X115440000Y-70391000D02*
X115440000Y-71341000D01*
G75*
G02*
X115190000Y-71591000I-250000J0D01*
G01*
X114690000Y-71591000D01*
G75*
G02*
X114440000Y-71341000I0J250000D01*
G01*
X114440000Y-70391000D01*
G75*
G02*
X114690000Y-70141000I250000J0D01*
G01*
X115190000Y-70141000D01*
G75*
G02*
X115440000Y-70391000I0J-250000D01*
G01*
G37*
G36*
G01*
X117340000Y-70391000D02*
X117340000Y-71341000D01*
G75*
G02*
X117090000Y-71591000I-250000J0D01*
G01*
X116590000Y-71591000D01*
G75*
G02*
X116340000Y-71341000I0J250000D01*
G01*
X116340000Y-70391000D01*
G75*
G02*
X116590000Y-70141000I250000J0D01*
G01*
X117090000Y-70141000D01*
G75*
G02*
X117340000Y-70391000I0J-250000D01*
G01*
G37*
D16*
X63602000Y-87009000D03*
X63602000Y-82409000D03*
X63602000Y-84709000D03*
D17*
X57302000Y-84709000D03*
D18*
X78549500Y-90128999D03*
X79184500Y-90128999D03*
X79819500Y-90128999D03*
X80454500Y-90128999D03*
X81089500Y-90128999D03*
X81724500Y-90128999D03*
X82359500Y-90128999D03*
X82994500Y-90128999D03*
X83629500Y-90128999D03*
X84264500Y-90128999D03*
X84899500Y-90128999D03*
X85534500Y-90128999D03*
X86169500Y-90128999D03*
X86804500Y-90128999D03*
X87439500Y-90128999D03*
X88074500Y-90128999D03*
X88709500Y-90128999D03*
X89344500Y-90128999D03*
X89979500Y-90128999D03*
X90614500Y-90128999D03*
X91249500Y-90128999D03*
X91884500Y-90128999D03*
X92519500Y-90128999D03*
X93154500Y-90128999D03*
X93789500Y-90128999D03*
X94424500Y-90128999D03*
X95059500Y-90128999D03*
X95694500Y-90128999D03*
X95694500Y-99609001D03*
X95059500Y-99609001D03*
X94424500Y-99609001D03*
X93789500Y-99609001D03*
X93154500Y-99609001D03*
X92519500Y-99609001D03*
X91884500Y-99609001D03*
X91249500Y-99609001D03*
X90614500Y-99609001D03*
X89979500Y-99609001D03*
X89344500Y-99609001D03*
X88709500Y-99609001D03*
X88074500Y-99609001D03*
X87439500Y-99609001D03*
X86804500Y-99609001D03*
X86169500Y-99609001D03*
X85534500Y-99609001D03*
X84899500Y-99609001D03*
X84264500Y-99609001D03*
X83629500Y-99609001D03*
X82994500Y-99609001D03*
X82359500Y-99609001D03*
X81724500Y-99609001D03*
X81089500Y-99609001D03*
X80454500Y-99609001D03*
X79819500Y-99609001D03*
X79184500Y-99609001D03*
X78549500Y-99609001D03*
D19*
X64008000Y-121920000D03*
D20*
X69723000Y-126606300D03*
X68453000Y-126606300D03*
X67183000Y-126606300D03*
X65913000Y-126606300D03*
X64643000Y-126606300D03*
X63373000Y-126606300D03*
X62103000Y-126606300D03*
X60833000Y-126606300D03*
X59563000Y-126606300D03*
X58293000Y-126606300D03*
X58293000Y-117233700D03*
X59563000Y-117233700D03*
X60833000Y-117233700D03*
X62103000Y-117233700D03*
X63373000Y-117233700D03*
X64643000Y-117233700D03*
X65913000Y-117233700D03*
X67183000Y-117233700D03*
X68453000Y-117233700D03*
X69723000Y-117233700D03*
G36*
G01*
X80847000Y-138277500D02*
X80847000Y-137462500D01*
G75*
G02*
X81014500Y-137295000I167500J0D01*
G01*
X81349500Y-137295000D01*
G75*
G02*
X81517000Y-137462500I0J-167500D01*
G01*
X81517000Y-138277500D01*
G75*
G02*
X81349500Y-138445000I-167500J0D01*
G01*
X81014500Y-138445000D01*
G75*
G02*
X80847000Y-138277500I0J167500D01*
G01*
G37*
G36*
G01*
X80847000Y-136857500D02*
X80847000Y-136042500D01*
G75*
G02*
X81014500Y-135875000I167500J0D01*
G01*
X81349500Y-135875000D01*
G75*
G02*
X81517000Y-136042500I0J-167500D01*
G01*
X81517000Y-136857500D01*
G75*
G02*
X81349500Y-137025000I-167500J0D01*
G01*
X81014500Y-137025000D01*
G75*
G02*
X80847000Y-136857500I0J167500D01*
G01*
G37*
G36*
G01*
X80027000Y-138277500D02*
X80027000Y-137462500D01*
G75*
G02*
X80194500Y-137295000I167500J0D01*
G01*
X80529500Y-137295000D01*
G75*
G02*
X80697000Y-137462500I0J-167500D01*
G01*
X80697000Y-138277500D01*
G75*
G02*
X80529500Y-138445000I-167500J0D01*
G01*
X80194500Y-138445000D01*
G75*
G02*
X80027000Y-138277500I0J167500D01*
G01*
G37*
G36*
G01*
X80027000Y-136857500D02*
X80027000Y-136042500D01*
G75*
G02*
X80194500Y-135875000I167500J0D01*
G01*
X80529500Y-135875000D01*
G75*
G02*
X80697000Y-136042500I0J-167500D01*
G01*
X80697000Y-136857500D01*
G75*
G02*
X80529500Y-137025000I-167500J0D01*
G01*
X80194500Y-137025000D01*
G75*
G02*
X80027000Y-136857500I0J167500D01*
G01*
G37*
G36*
G01*
X82197000Y-135635000D02*
X82197000Y-135435000D01*
G75*
G02*
X82297000Y-135335000I100000J0D01*
G01*
X83547000Y-135335000D01*
G75*
G02*
X83647000Y-135435000I0J-100000D01*
G01*
X83647000Y-135635000D01*
G75*
G02*
X83547000Y-135735000I-100000J0D01*
G01*
X82297000Y-135735000D01*
G75*
G02*
X82197000Y-135635000I0J100000D01*
G01*
G37*
G36*
G01*
X82197000Y-136285000D02*
X82197000Y-136085000D01*
G75*
G02*
X82297000Y-135985000I100000J0D01*
G01*
X83547000Y-135985000D01*
G75*
G02*
X83647000Y-136085000I0J-100000D01*
G01*
X83647000Y-136285000D01*
G75*
G02*
X83547000Y-136385000I-100000J0D01*
G01*
X82297000Y-136385000D01*
G75*
G02*
X82197000Y-136285000I0J100000D01*
G01*
G37*
G36*
G01*
X82197000Y-136935000D02*
X82197000Y-136735000D01*
G75*
G02*
X82297000Y-136635000I100000J0D01*
G01*
X83547000Y-136635000D01*
G75*
G02*
X83647000Y-136735000I0J-100000D01*
G01*
X83647000Y-136935000D01*
G75*
G02*
X83547000Y-137035000I-100000J0D01*
G01*
X82297000Y-137035000D01*
G75*
G02*
X82197000Y-136935000I0J100000D01*
G01*
G37*
G36*
G01*
X82197000Y-137585000D02*
X82197000Y-137385000D01*
G75*
G02*
X82297000Y-137285000I100000J0D01*
G01*
X83547000Y-137285000D01*
G75*
G02*
X83647000Y-137385000I0J-100000D01*
G01*
X83647000Y-137585000D01*
G75*
G02*
X83547000Y-137685000I-100000J0D01*
G01*
X82297000Y-137685000D01*
G75*
G02*
X82197000Y-137585000I0J100000D01*
G01*
G37*
G36*
G01*
X82197000Y-138235000D02*
X82197000Y-138035000D01*
G75*
G02*
X82297000Y-137935000I100000J0D01*
G01*
X83547000Y-137935000D01*
G75*
G02*
X83647000Y-138035000I0J-100000D01*
G01*
X83647000Y-138235000D01*
G75*
G02*
X83547000Y-138335000I-100000J0D01*
G01*
X82297000Y-138335000D01*
G75*
G02*
X82197000Y-138235000I0J100000D01*
G01*
G37*
G36*
G01*
X82197000Y-138885000D02*
X82197000Y-138685000D01*
G75*
G02*
X82297000Y-138585000I100000J0D01*
G01*
X83547000Y-138585000D01*
G75*
G02*
X83647000Y-138685000I0J-100000D01*
G01*
X83647000Y-138885000D01*
G75*
G02*
X83547000Y-138985000I-100000J0D01*
G01*
X82297000Y-138985000D01*
G75*
G02*
X82197000Y-138885000I0J100000D01*
G01*
G37*
G36*
G01*
X77897000Y-138885000D02*
X77897000Y-138685000D01*
G75*
G02*
X77997000Y-138585000I100000J0D01*
G01*
X79247000Y-138585000D01*
G75*
G02*
X79347000Y-138685000I0J-100000D01*
G01*
X79347000Y-138885000D01*
G75*
G02*
X79247000Y-138985000I-100000J0D01*
G01*
X77997000Y-138985000D01*
G75*
G02*
X77897000Y-138885000I0J100000D01*
G01*
G37*
G36*
G01*
X77897000Y-138235000D02*
X77897000Y-138035000D01*
G75*
G02*
X77997000Y-137935000I100000J0D01*
G01*
X79247000Y-137935000D01*
G75*
G02*
X79347000Y-138035000I0J-100000D01*
G01*
X79347000Y-138235000D01*
G75*
G02*
X79247000Y-138335000I-100000J0D01*
G01*
X77997000Y-138335000D01*
G75*
G02*
X77897000Y-138235000I0J100000D01*
G01*
G37*
G36*
G01*
X77897000Y-137585000D02*
X77897000Y-137385000D01*
G75*
G02*
X77997000Y-137285000I100000J0D01*
G01*
X79247000Y-137285000D01*
G75*
G02*
X79347000Y-137385000I0J-100000D01*
G01*
X79347000Y-137585000D01*
G75*
G02*
X79247000Y-137685000I-100000J0D01*
G01*
X77997000Y-137685000D01*
G75*
G02*
X77897000Y-137585000I0J100000D01*
G01*
G37*
G36*
G01*
X77897000Y-136935000D02*
X77897000Y-136735000D01*
G75*
G02*
X77997000Y-136635000I100000J0D01*
G01*
X79247000Y-136635000D01*
G75*
G02*
X79347000Y-136735000I0J-100000D01*
G01*
X79347000Y-136935000D01*
G75*
G02*
X79247000Y-137035000I-100000J0D01*
G01*
X77997000Y-137035000D01*
G75*
G02*
X77897000Y-136935000I0J100000D01*
G01*
G37*
G36*
G01*
X77897000Y-136285000D02*
X77897000Y-136085000D01*
G75*
G02*
X77997000Y-135985000I100000J0D01*
G01*
X79247000Y-135985000D01*
G75*
G02*
X79347000Y-136085000I0J-100000D01*
G01*
X79347000Y-136285000D01*
G75*
G02*
X79247000Y-136385000I-100000J0D01*
G01*
X77997000Y-136385000D01*
G75*
G02*
X77897000Y-136285000I0J100000D01*
G01*
G37*
G36*
G01*
X77897000Y-135635000D02*
X77897000Y-135435000D01*
G75*
G02*
X77997000Y-135335000I100000J0D01*
G01*
X79247000Y-135335000D01*
G75*
G02*
X79347000Y-135435000I0J-100000D01*
G01*
X79347000Y-135635000D01*
G75*
G02*
X79247000Y-135735000I-100000J0D01*
G01*
X77997000Y-135735000D01*
G75*
G02*
X77897000Y-135635000I0J100000D01*
G01*
G37*
D11*
X134112000Y-79154000D03*
X132842000Y-79154000D03*
X131572000Y-79154000D03*
X130302000Y-79154000D03*
X130302000Y-73754000D03*
X131572000Y-73754000D03*
X132842000Y-73754000D03*
X134112000Y-73754000D03*
D12*
X132207000Y-76454000D03*
D21*
X88392000Y-121920000D03*
D22*
X90866999Y-120169559D03*
X90866999Y-120669685D03*
X90866999Y-121169811D03*
X90866999Y-121669937D03*
X90866999Y-122170063D03*
X90866999Y-122670189D03*
X90866999Y-123170315D03*
X90866999Y-123670441D03*
D23*
X90141999Y-124394999D03*
X89642000Y-124394999D03*
X89142001Y-124394999D03*
X88642000Y-124394999D03*
X88142000Y-124394999D03*
X87641999Y-124394999D03*
X87142000Y-124394999D03*
X86642001Y-124394999D03*
D22*
X85917001Y-123670441D03*
X85917001Y-123170315D03*
X85917001Y-122670189D03*
X85917001Y-122170063D03*
X85917001Y-121669937D03*
X85917001Y-121169811D03*
X85917001Y-120669685D03*
X85917001Y-120169559D03*
D23*
X86642001Y-119445001D03*
X87142000Y-119445001D03*
X87641999Y-119445001D03*
X88142000Y-119445001D03*
X88642000Y-119445001D03*
X89142001Y-119445001D03*
X89642000Y-119445001D03*
X90141999Y-119445001D03*
G36*
G01*
X102975000Y-123280000D02*
X101575000Y-123280000D01*
G75*
G02*
X101500000Y-123205000I0J75000D01*
G01*
X101500000Y-123055000D01*
G75*
G02*
X101575000Y-122980000I75000J0D01*
G01*
X102975000Y-122980000D01*
G75*
G02*
X103050000Y-123055000I0J-75000D01*
G01*
X103050000Y-123205000D01*
G75*
G02*
X102975000Y-123280000I-75000J0D01*
G01*
G37*
G36*
G01*
X102975000Y-122780000D02*
X101575000Y-122780000D01*
G75*
G02*
X101500000Y-122705000I0J75000D01*
G01*
X101500000Y-122555000D01*
G75*
G02*
X101575000Y-122480000I75000J0D01*
G01*
X102975000Y-122480000D01*
G75*
G02*
X103050000Y-122555000I0J-75000D01*
G01*
X103050000Y-122705000D01*
G75*
G02*
X102975000Y-122780000I-75000J0D01*
G01*
G37*
G36*
G01*
X102975000Y-122280000D02*
X101575000Y-122280000D01*
G75*
G02*
X101500000Y-122205000I0J75000D01*
G01*
X101500000Y-122055000D01*
G75*
G02*
X101575000Y-121980000I75000J0D01*
G01*
X102975000Y-121980000D01*
G75*
G02*
X103050000Y-122055000I0J-75000D01*
G01*
X103050000Y-122205000D01*
G75*
G02*
X102975000Y-122280000I-75000J0D01*
G01*
G37*
G36*
G01*
X102975000Y-121780000D02*
X101575000Y-121780000D01*
G75*
G02*
X101500000Y-121705000I0J75000D01*
G01*
X101500000Y-121555000D01*
G75*
G02*
X101575000Y-121480000I75000J0D01*
G01*
X102975000Y-121480000D01*
G75*
G02*
X103050000Y-121555000I0J-75000D01*
G01*
X103050000Y-121705000D01*
G75*
G02*
X102975000Y-121780000I-75000J0D01*
G01*
G37*
G36*
G01*
X102975000Y-121280000D02*
X101575000Y-121280000D01*
G75*
G02*
X101500000Y-121205000I0J75000D01*
G01*
X101500000Y-121055000D01*
G75*
G02*
X101575000Y-120980000I75000J0D01*
G01*
X102975000Y-120980000D01*
G75*
G02*
X103050000Y-121055000I0J-75000D01*
G01*
X103050000Y-121205000D01*
G75*
G02*
X102975000Y-121280000I-75000J0D01*
G01*
G37*
G36*
G01*
X102975000Y-120780000D02*
X101575000Y-120780000D01*
G75*
G02*
X101500000Y-120705000I0J75000D01*
G01*
X101500000Y-120555000D01*
G75*
G02*
X101575000Y-120480000I75000J0D01*
G01*
X102975000Y-120480000D01*
G75*
G02*
X103050000Y-120555000I0J-75000D01*
G01*
X103050000Y-120705000D01*
G75*
G02*
X102975000Y-120780000I-75000J0D01*
G01*
G37*
G36*
G01*
X102975000Y-120280000D02*
X101575000Y-120280000D01*
G75*
G02*
X101500000Y-120205000I0J75000D01*
G01*
X101500000Y-120055000D01*
G75*
G02*
X101575000Y-119980000I75000J0D01*
G01*
X102975000Y-119980000D01*
G75*
G02*
X103050000Y-120055000I0J-75000D01*
G01*
X103050000Y-120205000D01*
G75*
G02*
X102975000Y-120280000I-75000J0D01*
G01*
G37*
G36*
G01*
X102975000Y-119780000D02*
X101575000Y-119780000D01*
G75*
G02*
X101500000Y-119705000I0J75000D01*
G01*
X101500000Y-119555000D01*
G75*
G02*
X101575000Y-119480000I75000J0D01*
G01*
X102975000Y-119480000D01*
G75*
G02*
X103050000Y-119555000I0J-75000D01*
G01*
X103050000Y-119705000D01*
G75*
G02*
X102975000Y-119780000I-75000J0D01*
G01*
G37*
G36*
G01*
X102975000Y-119280000D02*
X101575000Y-119280000D01*
G75*
G02*
X101500000Y-119205000I0J75000D01*
G01*
X101500000Y-119055000D01*
G75*
G02*
X101575000Y-118980000I75000J0D01*
G01*
X102975000Y-118980000D01*
G75*
G02*
X103050000Y-119055000I0J-75000D01*
G01*
X103050000Y-119205000D01*
G75*
G02*
X102975000Y-119280000I-75000J0D01*
G01*
G37*
G36*
G01*
X102975000Y-118780000D02*
X101575000Y-118780000D01*
G75*
G02*
X101500000Y-118705000I0J75000D01*
G01*
X101500000Y-118555000D01*
G75*
G02*
X101575000Y-118480000I75000J0D01*
G01*
X102975000Y-118480000D01*
G75*
G02*
X103050000Y-118555000I0J-75000D01*
G01*
X103050000Y-118705000D01*
G75*
G02*
X102975000Y-118780000I-75000J0D01*
G01*
G37*
G36*
G01*
X102975000Y-118280000D02*
X101575000Y-118280000D01*
G75*
G02*
X101500000Y-118205000I0J75000D01*
G01*
X101500000Y-118055000D01*
G75*
G02*
X101575000Y-117980000I75000J0D01*
G01*
X102975000Y-117980000D01*
G75*
G02*
X103050000Y-118055000I0J-75000D01*
G01*
X103050000Y-118205000D01*
G75*
G02*
X102975000Y-118280000I-75000J0D01*
G01*
G37*
G36*
G01*
X102975000Y-117780000D02*
X101575000Y-117780000D01*
G75*
G02*
X101500000Y-117705000I0J75000D01*
G01*
X101500000Y-117555000D01*
G75*
G02*
X101575000Y-117480000I75000J0D01*
G01*
X102975000Y-117480000D01*
G75*
G02*
X103050000Y-117555000I0J-75000D01*
G01*
X103050000Y-117705000D01*
G75*
G02*
X102975000Y-117780000I-75000J0D01*
G01*
G37*
G36*
G01*
X102975000Y-117280000D02*
X101575000Y-117280000D01*
G75*
G02*
X101500000Y-117205000I0J75000D01*
G01*
X101500000Y-117055000D01*
G75*
G02*
X101575000Y-116980000I75000J0D01*
G01*
X102975000Y-116980000D01*
G75*
G02*
X103050000Y-117055000I0J-75000D01*
G01*
X103050000Y-117205000D01*
G75*
G02*
X102975000Y-117280000I-75000J0D01*
G01*
G37*
G36*
G01*
X102975000Y-116780000D02*
X101575000Y-116780000D01*
G75*
G02*
X101500000Y-116705000I0J75000D01*
G01*
X101500000Y-116555000D01*
G75*
G02*
X101575000Y-116480000I75000J0D01*
G01*
X102975000Y-116480000D01*
G75*
G02*
X103050000Y-116555000I0J-75000D01*
G01*
X103050000Y-116705000D01*
G75*
G02*
X102975000Y-116780000I-75000J0D01*
G01*
G37*
G36*
G01*
X102975000Y-116280000D02*
X101575000Y-116280000D01*
G75*
G02*
X101500000Y-116205000I0J75000D01*
G01*
X101500000Y-116055000D01*
G75*
G02*
X101575000Y-115980000I75000J0D01*
G01*
X102975000Y-115980000D01*
G75*
G02*
X103050000Y-116055000I0J-75000D01*
G01*
X103050000Y-116205000D01*
G75*
G02*
X102975000Y-116280000I-75000J0D01*
G01*
G37*
G36*
G01*
X102975000Y-115780000D02*
X101575000Y-115780000D01*
G75*
G02*
X101500000Y-115705000I0J75000D01*
G01*
X101500000Y-115555000D01*
G75*
G02*
X101575000Y-115480000I75000J0D01*
G01*
X102975000Y-115480000D01*
G75*
G02*
X103050000Y-115555000I0J-75000D01*
G01*
X103050000Y-115705000D01*
G75*
G02*
X102975000Y-115780000I-75000J0D01*
G01*
G37*
G36*
G01*
X104275000Y-114480000D02*
X104125000Y-114480000D01*
G75*
G02*
X104050000Y-114405000I0J75000D01*
G01*
X104050000Y-113005000D01*
G75*
G02*
X104125000Y-112930000I75000J0D01*
G01*
X104275000Y-112930000D01*
G75*
G02*
X104350000Y-113005000I0J-75000D01*
G01*
X104350000Y-114405000D01*
G75*
G02*
X104275000Y-114480000I-75000J0D01*
G01*
G37*
G36*
G01*
X104775000Y-114480000D02*
X104625000Y-114480000D01*
G75*
G02*
X104550000Y-114405000I0J75000D01*
G01*
X104550000Y-113005000D01*
G75*
G02*
X104625000Y-112930000I75000J0D01*
G01*
X104775000Y-112930000D01*
G75*
G02*
X104850000Y-113005000I0J-75000D01*
G01*
X104850000Y-114405000D01*
G75*
G02*
X104775000Y-114480000I-75000J0D01*
G01*
G37*
G36*
G01*
X105275000Y-114480000D02*
X105125000Y-114480000D01*
G75*
G02*
X105050000Y-114405000I0J75000D01*
G01*
X105050000Y-113005000D01*
G75*
G02*
X105125000Y-112930000I75000J0D01*
G01*
X105275000Y-112930000D01*
G75*
G02*
X105350000Y-113005000I0J-75000D01*
G01*
X105350000Y-114405000D01*
G75*
G02*
X105275000Y-114480000I-75000J0D01*
G01*
G37*
G36*
G01*
X105775000Y-114480000D02*
X105625000Y-114480000D01*
G75*
G02*
X105550000Y-114405000I0J75000D01*
G01*
X105550000Y-113005000D01*
G75*
G02*
X105625000Y-112930000I75000J0D01*
G01*
X105775000Y-112930000D01*
G75*
G02*
X105850000Y-113005000I0J-75000D01*
G01*
X105850000Y-114405000D01*
G75*
G02*
X105775000Y-114480000I-75000J0D01*
G01*
G37*
G36*
G01*
X106275000Y-114480000D02*
X106125000Y-114480000D01*
G75*
G02*
X106050000Y-114405000I0J75000D01*
G01*
X106050000Y-113005000D01*
G75*
G02*
X106125000Y-112930000I75000J0D01*
G01*
X106275000Y-112930000D01*
G75*
G02*
X106350000Y-113005000I0J-75000D01*
G01*
X106350000Y-114405000D01*
G75*
G02*
X106275000Y-114480000I-75000J0D01*
G01*
G37*
G36*
G01*
X106775000Y-114480000D02*
X106625000Y-114480000D01*
G75*
G02*
X106550000Y-114405000I0J75000D01*
G01*
X106550000Y-113005000D01*
G75*
G02*
X106625000Y-112930000I75000J0D01*
G01*
X106775000Y-112930000D01*
G75*
G02*
X106850000Y-113005000I0J-75000D01*
G01*
X106850000Y-114405000D01*
G75*
G02*
X106775000Y-114480000I-75000J0D01*
G01*
G37*
G36*
G01*
X107275000Y-114480000D02*
X107125000Y-114480000D01*
G75*
G02*
X107050000Y-114405000I0J75000D01*
G01*
X107050000Y-113005000D01*
G75*
G02*
X107125000Y-112930000I75000J0D01*
G01*
X107275000Y-112930000D01*
G75*
G02*
X107350000Y-113005000I0J-75000D01*
G01*
X107350000Y-114405000D01*
G75*
G02*
X107275000Y-114480000I-75000J0D01*
G01*
G37*
G36*
G01*
X107775000Y-114480000D02*
X107625000Y-114480000D01*
G75*
G02*
X107550000Y-114405000I0J75000D01*
G01*
X107550000Y-113005000D01*
G75*
G02*
X107625000Y-112930000I75000J0D01*
G01*
X107775000Y-112930000D01*
G75*
G02*
X107850000Y-113005000I0J-75000D01*
G01*
X107850000Y-114405000D01*
G75*
G02*
X107775000Y-114480000I-75000J0D01*
G01*
G37*
G36*
G01*
X108275000Y-114480000D02*
X108125000Y-114480000D01*
G75*
G02*
X108050000Y-114405000I0J75000D01*
G01*
X108050000Y-113005000D01*
G75*
G02*
X108125000Y-112930000I75000J0D01*
G01*
X108275000Y-112930000D01*
G75*
G02*
X108350000Y-113005000I0J-75000D01*
G01*
X108350000Y-114405000D01*
G75*
G02*
X108275000Y-114480000I-75000J0D01*
G01*
G37*
G36*
G01*
X108775000Y-114480000D02*
X108625000Y-114480000D01*
G75*
G02*
X108550000Y-114405000I0J75000D01*
G01*
X108550000Y-113005000D01*
G75*
G02*
X108625000Y-112930000I75000J0D01*
G01*
X108775000Y-112930000D01*
G75*
G02*
X108850000Y-113005000I0J-75000D01*
G01*
X108850000Y-114405000D01*
G75*
G02*
X108775000Y-114480000I-75000J0D01*
G01*
G37*
G36*
G01*
X109275000Y-114480000D02*
X109125000Y-114480000D01*
G75*
G02*
X109050000Y-114405000I0J75000D01*
G01*
X109050000Y-113005000D01*
G75*
G02*
X109125000Y-112930000I75000J0D01*
G01*
X109275000Y-112930000D01*
G75*
G02*
X109350000Y-113005000I0J-75000D01*
G01*
X109350000Y-114405000D01*
G75*
G02*
X109275000Y-114480000I-75000J0D01*
G01*
G37*
G36*
G01*
X109775000Y-114480000D02*
X109625000Y-114480000D01*
G75*
G02*
X109550000Y-114405000I0J75000D01*
G01*
X109550000Y-113005000D01*
G75*
G02*
X109625000Y-112930000I75000J0D01*
G01*
X109775000Y-112930000D01*
G75*
G02*
X109850000Y-113005000I0J-75000D01*
G01*
X109850000Y-114405000D01*
G75*
G02*
X109775000Y-114480000I-75000J0D01*
G01*
G37*
G36*
G01*
X110275000Y-114480000D02*
X110125000Y-114480000D01*
G75*
G02*
X110050000Y-114405000I0J75000D01*
G01*
X110050000Y-113005000D01*
G75*
G02*
X110125000Y-112930000I75000J0D01*
G01*
X110275000Y-112930000D01*
G75*
G02*
X110350000Y-113005000I0J-75000D01*
G01*
X110350000Y-114405000D01*
G75*
G02*
X110275000Y-114480000I-75000J0D01*
G01*
G37*
G36*
G01*
X110775000Y-114480000D02*
X110625000Y-114480000D01*
G75*
G02*
X110550000Y-114405000I0J75000D01*
G01*
X110550000Y-113005000D01*
G75*
G02*
X110625000Y-112930000I75000J0D01*
G01*
X110775000Y-112930000D01*
G75*
G02*
X110850000Y-113005000I0J-75000D01*
G01*
X110850000Y-114405000D01*
G75*
G02*
X110775000Y-114480000I-75000J0D01*
G01*
G37*
G36*
G01*
X111275000Y-114480000D02*
X111125000Y-114480000D01*
G75*
G02*
X111050000Y-114405000I0J75000D01*
G01*
X111050000Y-113005000D01*
G75*
G02*
X111125000Y-112930000I75000J0D01*
G01*
X111275000Y-112930000D01*
G75*
G02*
X111350000Y-113005000I0J-75000D01*
G01*
X111350000Y-114405000D01*
G75*
G02*
X111275000Y-114480000I-75000J0D01*
G01*
G37*
G36*
G01*
X111775000Y-114480000D02*
X111625000Y-114480000D01*
G75*
G02*
X111550000Y-114405000I0J75000D01*
G01*
X111550000Y-113005000D01*
G75*
G02*
X111625000Y-112930000I75000J0D01*
G01*
X111775000Y-112930000D01*
G75*
G02*
X111850000Y-113005000I0J-75000D01*
G01*
X111850000Y-114405000D01*
G75*
G02*
X111775000Y-114480000I-75000J0D01*
G01*
G37*
G36*
G01*
X114325000Y-115780000D02*
X112925000Y-115780000D01*
G75*
G02*
X112850000Y-115705000I0J75000D01*
G01*
X112850000Y-115555000D01*
G75*
G02*
X112925000Y-115480000I75000J0D01*
G01*
X114325000Y-115480000D01*
G75*
G02*
X114400000Y-115555000I0J-75000D01*
G01*
X114400000Y-115705000D01*
G75*
G02*
X114325000Y-115780000I-75000J0D01*
G01*
G37*
G36*
G01*
X114325000Y-116280000D02*
X112925000Y-116280000D01*
G75*
G02*
X112850000Y-116205000I0J75000D01*
G01*
X112850000Y-116055000D01*
G75*
G02*
X112925000Y-115980000I75000J0D01*
G01*
X114325000Y-115980000D01*
G75*
G02*
X114400000Y-116055000I0J-75000D01*
G01*
X114400000Y-116205000D01*
G75*
G02*
X114325000Y-116280000I-75000J0D01*
G01*
G37*
G36*
G01*
X114325000Y-116780000D02*
X112925000Y-116780000D01*
G75*
G02*
X112850000Y-116705000I0J75000D01*
G01*
X112850000Y-116555000D01*
G75*
G02*
X112925000Y-116480000I75000J0D01*
G01*
X114325000Y-116480000D01*
G75*
G02*
X114400000Y-116555000I0J-75000D01*
G01*
X114400000Y-116705000D01*
G75*
G02*
X114325000Y-116780000I-75000J0D01*
G01*
G37*
G36*
G01*
X114325000Y-117280000D02*
X112925000Y-117280000D01*
G75*
G02*
X112850000Y-117205000I0J75000D01*
G01*
X112850000Y-117055000D01*
G75*
G02*
X112925000Y-116980000I75000J0D01*
G01*
X114325000Y-116980000D01*
G75*
G02*
X114400000Y-117055000I0J-75000D01*
G01*
X114400000Y-117205000D01*
G75*
G02*
X114325000Y-117280000I-75000J0D01*
G01*
G37*
G36*
G01*
X114325000Y-117780000D02*
X112925000Y-117780000D01*
G75*
G02*
X112850000Y-117705000I0J75000D01*
G01*
X112850000Y-117555000D01*
G75*
G02*
X112925000Y-117480000I75000J0D01*
G01*
X114325000Y-117480000D01*
G75*
G02*
X114400000Y-117555000I0J-75000D01*
G01*
X114400000Y-117705000D01*
G75*
G02*
X114325000Y-117780000I-75000J0D01*
G01*
G37*
G36*
G01*
X114325000Y-118280000D02*
X112925000Y-118280000D01*
G75*
G02*
X112850000Y-118205000I0J75000D01*
G01*
X112850000Y-118055000D01*
G75*
G02*
X112925000Y-117980000I75000J0D01*
G01*
X114325000Y-117980000D01*
G75*
G02*
X114400000Y-118055000I0J-75000D01*
G01*
X114400000Y-118205000D01*
G75*
G02*
X114325000Y-118280000I-75000J0D01*
G01*
G37*
G36*
G01*
X114325000Y-118780000D02*
X112925000Y-118780000D01*
G75*
G02*
X112850000Y-118705000I0J75000D01*
G01*
X112850000Y-118555000D01*
G75*
G02*
X112925000Y-118480000I75000J0D01*
G01*
X114325000Y-118480000D01*
G75*
G02*
X114400000Y-118555000I0J-75000D01*
G01*
X114400000Y-118705000D01*
G75*
G02*
X114325000Y-118780000I-75000J0D01*
G01*
G37*
G36*
G01*
X114325000Y-119280000D02*
X112925000Y-119280000D01*
G75*
G02*
X112850000Y-119205000I0J75000D01*
G01*
X112850000Y-119055000D01*
G75*
G02*
X112925000Y-118980000I75000J0D01*
G01*
X114325000Y-118980000D01*
G75*
G02*
X114400000Y-119055000I0J-75000D01*
G01*
X114400000Y-119205000D01*
G75*
G02*
X114325000Y-119280000I-75000J0D01*
G01*
G37*
G36*
G01*
X114325000Y-119780000D02*
X112925000Y-119780000D01*
G75*
G02*
X112850000Y-119705000I0J75000D01*
G01*
X112850000Y-119555000D01*
G75*
G02*
X112925000Y-119480000I75000J0D01*
G01*
X114325000Y-119480000D01*
G75*
G02*
X114400000Y-119555000I0J-75000D01*
G01*
X114400000Y-119705000D01*
G75*
G02*
X114325000Y-119780000I-75000J0D01*
G01*
G37*
G36*
G01*
X114325000Y-120280000D02*
X112925000Y-120280000D01*
G75*
G02*
X112850000Y-120205000I0J75000D01*
G01*
X112850000Y-120055000D01*
G75*
G02*
X112925000Y-119980000I75000J0D01*
G01*
X114325000Y-119980000D01*
G75*
G02*
X114400000Y-120055000I0J-75000D01*
G01*
X114400000Y-120205000D01*
G75*
G02*
X114325000Y-120280000I-75000J0D01*
G01*
G37*
G36*
G01*
X114325000Y-120780000D02*
X112925000Y-120780000D01*
G75*
G02*
X112850000Y-120705000I0J75000D01*
G01*
X112850000Y-120555000D01*
G75*
G02*
X112925000Y-120480000I75000J0D01*
G01*
X114325000Y-120480000D01*
G75*
G02*
X114400000Y-120555000I0J-75000D01*
G01*
X114400000Y-120705000D01*
G75*
G02*
X114325000Y-120780000I-75000J0D01*
G01*
G37*
G36*
G01*
X114325000Y-121280000D02*
X112925000Y-121280000D01*
G75*
G02*
X112850000Y-121205000I0J75000D01*
G01*
X112850000Y-121055000D01*
G75*
G02*
X112925000Y-120980000I75000J0D01*
G01*
X114325000Y-120980000D01*
G75*
G02*
X114400000Y-121055000I0J-75000D01*
G01*
X114400000Y-121205000D01*
G75*
G02*
X114325000Y-121280000I-75000J0D01*
G01*
G37*
G36*
G01*
X114325000Y-121780000D02*
X112925000Y-121780000D01*
G75*
G02*
X112850000Y-121705000I0J75000D01*
G01*
X112850000Y-121555000D01*
G75*
G02*
X112925000Y-121480000I75000J0D01*
G01*
X114325000Y-121480000D01*
G75*
G02*
X114400000Y-121555000I0J-75000D01*
G01*
X114400000Y-121705000D01*
G75*
G02*
X114325000Y-121780000I-75000J0D01*
G01*
G37*
G36*
G01*
X114325000Y-122280000D02*
X112925000Y-122280000D01*
G75*
G02*
X112850000Y-122205000I0J75000D01*
G01*
X112850000Y-122055000D01*
G75*
G02*
X112925000Y-121980000I75000J0D01*
G01*
X114325000Y-121980000D01*
G75*
G02*
X114400000Y-122055000I0J-75000D01*
G01*
X114400000Y-122205000D01*
G75*
G02*
X114325000Y-122280000I-75000J0D01*
G01*
G37*
G36*
G01*
X114325000Y-122780000D02*
X112925000Y-122780000D01*
G75*
G02*
X112850000Y-122705000I0J75000D01*
G01*
X112850000Y-122555000D01*
G75*
G02*
X112925000Y-122480000I75000J0D01*
G01*
X114325000Y-122480000D01*
G75*
G02*
X114400000Y-122555000I0J-75000D01*
G01*
X114400000Y-122705000D01*
G75*
G02*
X114325000Y-122780000I-75000J0D01*
G01*
G37*
G36*
G01*
X114325000Y-123280000D02*
X112925000Y-123280000D01*
G75*
G02*
X112850000Y-123205000I0J75000D01*
G01*
X112850000Y-123055000D01*
G75*
G02*
X112925000Y-122980000I75000J0D01*
G01*
X114325000Y-122980000D01*
G75*
G02*
X114400000Y-123055000I0J-75000D01*
G01*
X114400000Y-123205000D01*
G75*
G02*
X114325000Y-123280000I-75000J0D01*
G01*
G37*
G36*
G01*
X111775000Y-125830000D02*
X111625000Y-125830000D01*
G75*
G02*
X111550000Y-125755000I0J75000D01*
G01*
X111550000Y-124355000D01*
G75*
G02*
X111625000Y-124280000I75000J0D01*
G01*
X111775000Y-124280000D01*
G75*
G02*
X111850000Y-124355000I0J-75000D01*
G01*
X111850000Y-125755000D01*
G75*
G02*
X111775000Y-125830000I-75000J0D01*
G01*
G37*
G36*
G01*
X111275000Y-125830000D02*
X111125000Y-125830000D01*
G75*
G02*
X111050000Y-125755000I0J75000D01*
G01*
X111050000Y-124355000D01*
G75*
G02*
X111125000Y-124280000I75000J0D01*
G01*
X111275000Y-124280000D01*
G75*
G02*
X111350000Y-124355000I0J-75000D01*
G01*
X111350000Y-125755000D01*
G75*
G02*
X111275000Y-125830000I-75000J0D01*
G01*
G37*
G36*
G01*
X110775000Y-125830000D02*
X110625000Y-125830000D01*
G75*
G02*
X110550000Y-125755000I0J75000D01*
G01*
X110550000Y-124355000D01*
G75*
G02*
X110625000Y-124280000I75000J0D01*
G01*
X110775000Y-124280000D01*
G75*
G02*
X110850000Y-124355000I0J-75000D01*
G01*
X110850000Y-125755000D01*
G75*
G02*
X110775000Y-125830000I-75000J0D01*
G01*
G37*
G36*
G01*
X110275000Y-125830000D02*
X110125000Y-125830000D01*
G75*
G02*
X110050000Y-125755000I0J75000D01*
G01*
X110050000Y-124355000D01*
G75*
G02*
X110125000Y-124280000I75000J0D01*
G01*
X110275000Y-124280000D01*
G75*
G02*
X110350000Y-124355000I0J-75000D01*
G01*
X110350000Y-125755000D01*
G75*
G02*
X110275000Y-125830000I-75000J0D01*
G01*
G37*
G36*
G01*
X109775000Y-125830000D02*
X109625000Y-125830000D01*
G75*
G02*
X109550000Y-125755000I0J75000D01*
G01*
X109550000Y-124355000D01*
G75*
G02*
X109625000Y-124280000I75000J0D01*
G01*
X109775000Y-124280000D01*
G75*
G02*
X109850000Y-124355000I0J-75000D01*
G01*
X109850000Y-125755000D01*
G75*
G02*
X109775000Y-125830000I-75000J0D01*
G01*
G37*
G36*
G01*
X109275000Y-125830000D02*
X109125000Y-125830000D01*
G75*
G02*
X109050000Y-125755000I0J75000D01*
G01*
X109050000Y-124355000D01*
G75*
G02*
X109125000Y-124280000I75000J0D01*
G01*
X109275000Y-124280000D01*
G75*
G02*
X109350000Y-124355000I0J-75000D01*
G01*
X109350000Y-125755000D01*
G75*
G02*
X109275000Y-125830000I-75000J0D01*
G01*
G37*
G36*
G01*
X108775000Y-125830000D02*
X108625000Y-125830000D01*
G75*
G02*
X108550000Y-125755000I0J75000D01*
G01*
X108550000Y-124355000D01*
G75*
G02*
X108625000Y-124280000I75000J0D01*
G01*
X108775000Y-124280000D01*
G75*
G02*
X108850000Y-124355000I0J-75000D01*
G01*
X108850000Y-125755000D01*
G75*
G02*
X108775000Y-125830000I-75000J0D01*
G01*
G37*
G36*
G01*
X108275000Y-125830000D02*
X108125000Y-125830000D01*
G75*
G02*
X108050000Y-125755000I0J75000D01*
G01*
X108050000Y-124355000D01*
G75*
G02*
X108125000Y-124280000I75000J0D01*
G01*
X108275000Y-124280000D01*
G75*
G02*
X108350000Y-124355000I0J-75000D01*
G01*
X108350000Y-125755000D01*
G75*
G02*
X108275000Y-125830000I-75000J0D01*
G01*
G37*
G36*
G01*
X107775000Y-125830000D02*
X107625000Y-125830000D01*
G75*
G02*
X107550000Y-125755000I0J75000D01*
G01*
X107550000Y-124355000D01*
G75*
G02*
X107625000Y-124280000I75000J0D01*
G01*
X107775000Y-124280000D01*
G75*
G02*
X107850000Y-124355000I0J-75000D01*
G01*
X107850000Y-125755000D01*
G75*
G02*
X107775000Y-125830000I-75000J0D01*
G01*
G37*
G36*
G01*
X107275000Y-125830000D02*
X107125000Y-125830000D01*
G75*
G02*
X107050000Y-125755000I0J75000D01*
G01*
X107050000Y-124355000D01*
G75*
G02*
X107125000Y-124280000I75000J0D01*
G01*
X107275000Y-124280000D01*
G75*
G02*
X107350000Y-124355000I0J-75000D01*
G01*
X107350000Y-125755000D01*
G75*
G02*
X107275000Y-125830000I-75000J0D01*
G01*
G37*
G36*
G01*
X106775000Y-125830000D02*
X106625000Y-125830000D01*
G75*
G02*
X106550000Y-125755000I0J75000D01*
G01*
X106550000Y-124355000D01*
G75*
G02*
X106625000Y-124280000I75000J0D01*
G01*
X106775000Y-124280000D01*
G75*
G02*
X106850000Y-124355000I0J-75000D01*
G01*
X106850000Y-125755000D01*
G75*
G02*
X106775000Y-125830000I-75000J0D01*
G01*
G37*
G36*
G01*
X106275000Y-125830000D02*
X106125000Y-125830000D01*
G75*
G02*
X106050000Y-125755000I0J75000D01*
G01*
X106050000Y-124355000D01*
G75*
G02*
X106125000Y-124280000I75000J0D01*
G01*
X106275000Y-124280000D01*
G75*
G02*
X106350000Y-124355000I0J-75000D01*
G01*
X106350000Y-125755000D01*
G75*
G02*
X106275000Y-125830000I-75000J0D01*
G01*
G37*
G36*
G01*
X105775000Y-125830000D02*
X105625000Y-125830000D01*
G75*
G02*
X105550000Y-125755000I0J75000D01*
G01*
X105550000Y-124355000D01*
G75*
G02*
X105625000Y-124280000I75000J0D01*
G01*
X105775000Y-124280000D01*
G75*
G02*
X105850000Y-124355000I0J-75000D01*
G01*
X105850000Y-125755000D01*
G75*
G02*
X105775000Y-125830000I-75000J0D01*
G01*
G37*
G36*
G01*
X105275000Y-125830000D02*
X105125000Y-125830000D01*
G75*
G02*
X105050000Y-125755000I0J75000D01*
G01*
X105050000Y-124355000D01*
G75*
G02*
X105125000Y-124280000I75000J0D01*
G01*
X105275000Y-124280000D01*
G75*
G02*
X105350000Y-124355000I0J-75000D01*
G01*
X105350000Y-125755000D01*
G75*
G02*
X105275000Y-125830000I-75000J0D01*
G01*
G37*
G36*
G01*
X104775000Y-125830000D02*
X104625000Y-125830000D01*
G75*
G02*
X104550000Y-125755000I0J75000D01*
G01*
X104550000Y-124355000D01*
G75*
G02*
X104625000Y-124280000I75000J0D01*
G01*
X104775000Y-124280000D01*
G75*
G02*
X104850000Y-124355000I0J-75000D01*
G01*
X104850000Y-125755000D01*
G75*
G02*
X104775000Y-125830000I-75000J0D01*
G01*
G37*
G36*
G01*
X104275000Y-125830000D02*
X104125000Y-125830000D01*
G75*
G02*
X104050000Y-125755000I0J75000D01*
G01*
X104050000Y-124355000D01*
G75*
G02*
X104125000Y-124280000I75000J0D01*
G01*
X104275000Y-124280000D01*
G75*
G02*
X104350000Y-124355000I0J-75000D01*
G01*
X104350000Y-125755000D01*
G75*
G02*
X104275000Y-125830000I-75000J0D01*
G01*
G37*
G36*
G01*
X117798001Y-97390000D02*
X116897999Y-97390000D01*
G75*
G02*
X116648000Y-97140001I0J249999D01*
G01*
X116648000Y-96614999D01*
G75*
G02*
X116897999Y-96365000I249999J0D01*
G01*
X117798001Y-96365000D01*
G75*
G02*
X118048000Y-96614999I0J-249999D01*
G01*
X118048000Y-97140001D01*
G75*
G02*
X117798001Y-97390000I-249999J0D01*
G01*
G37*
G36*
G01*
X117798001Y-99215000D02*
X116897999Y-99215000D01*
G75*
G02*
X116648000Y-98965001I0J249999D01*
G01*
X116648000Y-98439999D01*
G75*
G02*
X116897999Y-98190000I249999J0D01*
G01*
X117798001Y-98190000D01*
G75*
G02*
X118048000Y-98439999I0J-249999D01*
G01*
X118048000Y-98965001D01*
G75*
G02*
X117798001Y-99215000I-249999J0D01*
G01*
G37*
G36*
G01*
X106255000Y-127868000D02*
X106255000Y-128418000D01*
G75*
G02*
X106055000Y-128618000I-200000J0D01*
G01*
X105655000Y-128618000D01*
G75*
G02*
X105455000Y-128418000I0J200000D01*
G01*
X105455000Y-127868000D01*
G75*
G02*
X105655000Y-127668000I200000J0D01*
G01*
X106055000Y-127668000D01*
G75*
G02*
X106255000Y-127868000I0J-200000D01*
G01*
G37*
G36*
G01*
X107905000Y-127868000D02*
X107905000Y-128418000D01*
G75*
G02*
X107705000Y-128618000I-200000J0D01*
G01*
X107305000Y-128618000D01*
G75*
G02*
X107105000Y-128418000I0J200000D01*
G01*
X107105000Y-127868000D01*
G75*
G02*
X107305000Y-127668000I200000J0D01*
G01*
X107705000Y-127668000D01*
G75*
G02*
X107905000Y-127868000I0J-200000D01*
G01*
G37*
D14*
X96647000Y-71164000D03*
X96647000Y-76664000D03*
X62992000Y-64814000D03*
X62992000Y-70314000D03*
X69977000Y-64814000D03*
X69977000Y-70314000D03*
X76962000Y-64814000D03*
X76962000Y-70314000D03*
X83947000Y-64814000D03*
X83947000Y-70314000D03*
X66167000Y-72434000D03*
X66167000Y-77934000D03*
X73152000Y-72434000D03*
X73152000Y-77934000D03*
X80137000Y-72434000D03*
X80137000Y-77934000D03*
X87122000Y-72434000D03*
X87122000Y-77934000D03*
D13*
X122218000Y-103632000D03*
X127718000Y-103632000D03*
D24*
X98774000Y-68072000D03*
X94774000Y-68072000D03*
G36*
G01*
X77757000Y-104590000D02*
X78707000Y-104590000D01*
G75*
G02*
X78957000Y-104840000I0J-250000D01*
G01*
X78957000Y-105340000D01*
G75*
G02*
X78707000Y-105590000I-250000J0D01*
G01*
X77757000Y-105590000D01*
G75*
G02*
X77507000Y-105340000I0J250000D01*
G01*
X77507000Y-104840000D01*
G75*
G02*
X77757000Y-104590000I250000J0D01*
G01*
G37*
G36*
G01*
X77757000Y-102690000D02*
X78707000Y-102690000D01*
G75*
G02*
X78957000Y-102940000I0J-250000D01*
G01*
X78957000Y-103440000D01*
G75*
G02*
X78707000Y-103690000I-250000J0D01*
G01*
X77757000Y-103690000D01*
G75*
G02*
X77507000Y-103440000I0J250000D01*
G01*
X77507000Y-102940000D01*
G75*
G02*
X77757000Y-102690000I250000J0D01*
G01*
G37*
G36*
G01*
X101484000Y-81872001D02*
X101484000Y-79671999D01*
G75*
G02*
X101733999Y-79422000I249999J0D01*
G01*
X102384001Y-79422000D01*
G75*
G02*
X102634000Y-79671999I0J-249999D01*
G01*
X102634000Y-81872001D01*
G75*
G02*
X102384001Y-82122000I-249999J0D01*
G01*
X101733999Y-82122000D01*
G75*
G02*
X101484000Y-81872001I0J249999D01*
G01*
G37*
G36*
G01*
X98534000Y-81872001D02*
X98534000Y-79671999D01*
G75*
G02*
X98783999Y-79422000I249999J0D01*
G01*
X99434001Y-79422000D01*
G75*
G02*
X99684000Y-79671999I0J-249999D01*
G01*
X99684000Y-81872001D01*
G75*
G02*
X99434001Y-82122000I-249999J0D01*
G01*
X98783999Y-82122000D01*
G75*
G02*
X98534000Y-81872001I0J249999D01*
G01*
G37*
G36*
G01*
X84361000Y-104590000D02*
X85311000Y-104590000D01*
G75*
G02*
X85561000Y-104840000I0J-250000D01*
G01*
X85561000Y-105340000D01*
G75*
G02*
X85311000Y-105590000I-250000J0D01*
G01*
X84361000Y-105590000D01*
G75*
G02*
X84111000Y-105340000I0J250000D01*
G01*
X84111000Y-104840000D01*
G75*
G02*
X84361000Y-104590000I250000J0D01*
G01*
G37*
G36*
G01*
X84361000Y-102690000D02*
X85311000Y-102690000D01*
G75*
G02*
X85561000Y-102940000I0J-250000D01*
G01*
X85561000Y-103440000D01*
G75*
G02*
X85311000Y-103690000I-250000J0D01*
G01*
X84361000Y-103690000D01*
G75*
G02*
X84111000Y-103440000I0J250000D01*
G01*
X84111000Y-102940000D01*
G75*
G02*
X84361000Y-102690000I250000J0D01*
G01*
G37*
G36*
G01*
X97732000Y-87597000D02*
X97732000Y-86647000D01*
G75*
G02*
X97982000Y-86397000I250000J0D01*
G01*
X98482000Y-86397000D01*
G75*
G02*
X98732000Y-86647000I0J-250000D01*
G01*
X98732000Y-87597000D01*
G75*
G02*
X98482000Y-87847000I-250000J0D01*
G01*
X97982000Y-87847000D01*
G75*
G02*
X97732000Y-87597000I0J250000D01*
G01*
G37*
G36*
G01*
X95832000Y-87597000D02*
X95832000Y-86647000D01*
G75*
G02*
X96082000Y-86397000I250000J0D01*
G01*
X96582000Y-86397000D01*
G75*
G02*
X96832000Y-86647000I0J-250000D01*
G01*
X96832000Y-87597000D01*
G75*
G02*
X96582000Y-87847000I-250000J0D01*
G01*
X96082000Y-87847000D01*
G75*
G02*
X95832000Y-87597000I0J250000D01*
G01*
G37*
G36*
G01*
X97732000Y-85565000D02*
X97732000Y-84615000D01*
G75*
G02*
X97982000Y-84365000I250000J0D01*
G01*
X98482000Y-84365000D01*
G75*
G02*
X98732000Y-84615000I0J-250000D01*
G01*
X98732000Y-85565000D01*
G75*
G02*
X98482000Y-85815000I-250000J0D01*
G01*
X97982000Y-85815000D01*
G75*
G02*
X97732000Y-85565000I0J250000D01*
G01*
G37*
G36*
G01*
X95832000Y-85565000D02*
X95832000Y-84615000D01*
G75*
G02*
X96082000Y-84365000I250000J0D01*
G01*
X96582000Y-84365000D01*
G75*
G02*
X96832000Y-84615000I0J-250000D01*
G01*
X96832000Y-85565000D01*
G75*
G02*
X96582000Y-85815000I-250000J0D01*
G01*
X96082000Y-85815000D01*
G75*
G02*
X95832000Y-85565000I0J250000D01*
G01*
G37*
G36*
G01*
X90457000Y-104590000D02*
X91407000Y-104590000D01*
G75*
G02*
X91657000Y-104840000I0J-250000D01*
G01*
X91657000Y-105340000D01*
G75*
G02*
X91407000Y-105590000I-250000J0D01*
G01*
X90457000Y-105590000D01*
G75*
G02*
X90207000Y-105340000I0J250000D01*
G01*
X90207000Y-104840000D01*
G75*
G02*
X90457000Y-104590000I250000J0D01*
G01*
G37*
G36*
G01*
X90457000Y-102690000D02*
X91407000Y-102690000D01*
G75*
G02*
X91657000Y-102940000I0J-250000D01*
G01*
X91657000Y-103440000D01*
G75*
G02*
X91407000Y-103690000I-250000J0D01*
G01*
X90457000Y-103690000D01*
G75*
G02*
X90207000Y-103440000I0J250000D01*
G01*
X90207000Y-102940000D01*
G75*
G02*
X90457000Y-102690000I250000J0D01*
G01*
G37*
G36*
G01*
X75217000Y-91382000D02*
X76167000Y-91382000D01*
G75*
G02*
X76417000Y-91632000I0J-250000D01*
G01*
X76417000Y-92132000D01*
G75*
G02*
X76167000Y-92382000I-250000J0D01*
G01*
X75217000Y-92382000D01*
G75*
G02*
X74967000Y-92132000I0J250000D01*
G01*
X74967000Y-91632000D01*
G75*
G02*
X75217000Y-91382000I250000J0D01*
G01*
G37*
G36*
G01*
X75217000Y-89482000D02*
X76167000Y-89482000D01*
G75*
G02*
X76417000Y-89732000I0J-250000D01*
G01*
X76417000Y-90232000D01*
G75*
G02*
X76167000Y-90482000I-250000J0D01*
G01*
X75217000Y-90482000D01*
G75*
G02*
X74967000Y-90232000I0J250000D01*
G01*
X74967000Y-89732000D01*
G75*
G02*
X75217000Y-89482000I250000J0D01*
G01*
G37*
G36*
G01*
X76675000Y-100642000D02*
X75725000Y-100642000D01*
G75*
G02*
X75475000Y-100392000I0J250000D01*
G01*
X75475000Y-99892000D01*
G75*
G02*
X75725000Y-99642000I250000J0D01*
G01*
X76675000Y-99642000D01*
G75*
G02*
X76925000Y-99892000I0J-250000D01*
G01*
X76925000Y-100392000D01*
G75*
G02*
X76675000Y-100642000I-250000J0D01*
G01*
G37*
G36*
G01*
X76675000Y-102542000D02*
X75725000Y-102542000D01*
G75*
G02*
X75475000Y-102292000I0J250000D01*
G01*
X75475000Y-101792000D01*
G75*
G02*
X75725000Y-101542000I250000J0D01*
G01*
X76675000Y-101542000D01*
G75*
G02*
X76925000Y-101792000I0J-250000D01*
G01*
X76925000Y-102292000D01*
G75*
G02*
X76675000Y-102542000I-250000J0D01*
G01*
G37*
G36*
G01*
X100272000Y-101059000D02*
X100272000Y-100109000D01*
G75*
G02*
X100522000Y-99859000I250000J0D01*
G01*
X101022000Y-99859000D01*
G75*
G02*
X101272000Y-100109000I0J-250000D01*
G01*
X101272000Y-101059000D01*
G75*
G02*
X101022000Y-101309000I-250000J0D01*
G01*
X100522000Y-101309000D01*
G75*
G02*
X100272000Y-101059000I0J250000D01*
G01*
G37*
G36*
G01*
X98372000Y-101059000D02*
X98372000Y-100109000D01*
G75*
G02*
X98622000Y-99859000I250000J0D01*
G01*
X99122000Y-99859000D01*
G75*
G02*
X99372000Y-100109000I0J-250000D01*
G01*
X99372000Y-101059000D01*
G75*
G02*
X99122000Y-101309000I-250000J0D01*
G01*
X98622000Y-101309000D01*
G75*
G02*
X98372000Y-101059000I0J250000D01*
G01*
G37*
G36*
G01*
X74262000Y-100642000D02*
X73312000Y-100642000D01*
G75*
G02*
X73062000Y-100392000I0J250000D01*
G01*
X73062000Y-99892000D01*
G75*
G02*
X73312000Y-99642000I250000J0D01*
G01*
X74262000Y-99642000D01*
G75*
G02*
X74512000Y-99892000I0J-250000D01*
G01*
X74512000Y-100392000D01*
G75*
G02*
X74262000Y-100642000I-250000J0D01*
G01*
G37*
G36*
G01*
X74262000Y-102542000D02*
X73312000Y-102542000D01*
G75*
G02*
X73062000Y-102292000I0J250000D01*
G01*
X73062000Y-101792000D01*
G75*
G02*
X73312000Y-101542000I250000J0D01*
G01*
X74262000Y-101542000D01*
G75*
G02*
X74512000Y-101792000I0J-250000D01*
G01*
X74512000Y-102292000D01*
G75*
G02*
X74262000Y-102542000I-250000J0D01*
G01*
G37*
G36*
G01*
X80297000Y-104590000D02*
X81247000Y-104590000D01*
G75*
G02*
X81497000Y-104840000I0J-250000D01*
G01*
X81497000Y-105340000D01*
G75*
G02*
X81247000Y-105590000I-250000J0D01*
G01*
X80297000Y-105590000D01*
G75*
G02*
X80047000Y-105340000I0J250000D01*
G01*
X80047000Y-104840000D01*
G75*
G02*
X80297000Y-104590000I250000J0D01*
G01*
G37*
G36*
G01*
X80297000Y-102690000D02*
X81247000Y-102690000D01*
G75*
G02*
X81497000Y-102940000I0J-250000D01*
G01*
X81497000Y-103440000D01*
G75*
G02*
X81247000Y-103690000I-250000J0D01*
G01*
X80297000Y-103690000D01*
G75*
G02*
X80047000Y-103440000I0J250000D01*
G01*
X80047000Y-102940000D01*
G75*
G02*
X80297000Y-102690000I250000J0D01*
G01*
G37*
G36*
G01*
X82329000Y-104590000D02*
X83279000Y-104590000D01*
G75*
G02*
X83529000Y-104840000I0J-250000D01*
G01*
X83529000Y-105340000D01*
G75*
G02*
X83279000Y-105590000I-250000J0D01*
G01*
X82329000Y-105590000D01*
G75*
G02*
X82079000Y-105340000I0J250000D01*
G01*
X82079000Y-104840000D01*
G75*
G02*
X82329000Y-104590000I250000J0D01*
G01*
G37*
G36*
G01*
X82329000Y-102690000D02*
X83279000Y-102690000D01*
G75*
G02*
X83529000Y-102940000I0J-250000D01*
G01*
X83529000Y-103440000D01*
G75*
G02*
X83279000Y-103690000I-250000J0D01*
G01*
X82329000Y-103690000D01*
G75*
G02*
X82079000Y-103440000I0J250000D01*
G01*
X82079000Y-102940000D01*
G75*
G02*
X82329000Y-102690000I250000J0D01*
G01*
G37*
G36*
G01*
X74591999Y-133742000D02*
X76792001Y-133742000D01*
G75*
G02*
X77042000Y-133991999I0J-249999D01*
G01*
X77042000Y-134642001D01*
G75*
G02*
X76792001Y-134892000I-249999J0D01*
G01*
X74591999Y-134892000D01*
G75*
G02*
X74342000Y-134642001I0J249999D01*
G01*
X74342000Y-133991999D01*
G75*
G02*
X74591999Y-133742000I249999J0D01*
G01*
G37*
G36*
G01*
X74591999Y-130792000D02*
X76792001Y-130792000D01*
G75*
G02*
X77042000Y-131041999I0J-249999D01*
G01*
X77042000Y-131692001D01*
G75*
G02*
X76792001Y-131942000I-249999J0D01*
G01*
X74591999Y-131942000D01*
G75*
G02*
X74342000Y-131692001I0J249999D01*
G01*
X74342000Y-131041999D01*
G75*
G02*
X74591999Y-130792000I249999J0D01*
G01*
G37*
G36*
G01*
X65447999Y-106261000D02*
X67648001Y-106261000D01*
G75*
G02*
X67898000Y-106510999I0J-249999D01*
G01*
X67898000Y-107161001D01*
G75*
G02*
X67648001Y-107411000I-249999J0D01*
G01*
X65447999Y-107411000D01*
G75*
G02*
X65198000Y-107161001I0J249999D01*
G01*
X65198000Y-106510999D01*
G75*
G02*
X65447999Y-106261000I249999J0D01*
G01*
G37*
G36*
G01*
X65447999Y-103311000D02*
X67648001Y-103311000D01*
G75*
G02*
X67898000Y-103560999I0J-249999D01*
G01*
X67898000Y-104211001D01*
G75*
G02*
X67648001Y-104461000I-249999J0D01*
G01*
X65447999Y-104461000D01*
G75*
G02*
X65198000Y-104211001I0J249999D01*
G01*
X65198000Y-103560999D01*
G75*
G02*
X65447999Y-103311000I249999J0D01*
G01*
G37*
G36*
G01*
X88105000Y-137726000D02*
X87155000Y-137726000D01*
G75*
G02*
X86905000Y-137476000I0J250000D01*
G01*
X86905000Y-136976000D01*
G75*
G02*
X87155000Y-136726000I250000J0D01*
G01*
X88105000Y-136726000D01*
G75*
G02*
X88355000Y-136976000I0J-250000D01*
G01*
X88355000Y-137476000D01*
G75*
G02*
X88105000Y-137726000I-250000J0D01*
G01*
G37*
G36*
G01*
X88105000Y-139626000D02*
X87155000Y-139626000D01*
G75*
G02*
X86905000Y-139376000I0J250000D01*
G01*
X86905000Y-138876000D01*
G75*
G02*
X87155000Y-138626000I250000J0D01*
G01*
X88105000Y-138626000D01*
G75*
G02*
X88355000Y-138876000I0J-250000D01*
G01*
X88355000Y-139376000D01*
G75*
G02*
X88105000Y-139626000I-250000J0D01*
G01*
G37*
G36*
G01*
X128491000Y-77782000D02*
X127541000Y-77782000D01*
G75*
G02*
X127291000Y-77532000I0J250000D01*
G01*
X127291000Y-77032000D01*
G75*
G02*
X127541000Y-76782000I250000J0D01*
G01*
X128491000Y-76782000D01*
G75*
G02*
X128741000Y-77032000I0J-250000D01*
G01*
X128741000Y-77532000D01*
G75*
G02*
X128491000Y-77782000I-250000J0D01*
G01*
G37*
G36*
G01*
X128491000Y-79682000D02*
X127541000Y-79682000D01*
G75*
G02*
X127291000Y-79432000I0J250000D01*
G01*
X127291000Y-78932000D01*
G75*
G02*
X127541000Y-78682000I250000J0D01*
G01*
X128491000Y-78682000D01*
G75*
G02*
X128741000Y-78932000I0J-250000D01*
G01*
X128741000Y-79432000D01*
G75*
G02*
X128491000Y-79682000I-250000J0D01*
G01*
G37*
G36*
G01*
X131514000Y-99535000D02*
X131514000Y-98585000D01*
G75*
G02*
X131764000Y-98335000I250000J0D01*
G01*
X132264000Y-98335000D01*
G75*
G02*
X132514000Y-98585000I0J-250000D01*
G01*
X132514000Y-99535000D01*
G75*
G02*
X132264000Y-99785000I-250000J0D01*
G01*
X131764000Y-99785000D01*
G75*
G02*
X131514000Y-99535000I0J250000D01*
G01*
G37*
G36*
G01*
X129614000Y-99535000D02*
X129614000Y-98585000D01*
G75*
G02*
X129864000Y-98335000I250000J0D01*
G01*
X130364000Y-98335000D01*
G75*
G02*
X130614000Y-98585000I0J-250000D01*
G01*
X130614000Y-99535000D01*
G75*
G02*
X130364000Y-99785000I-250000J0D01*
G01*
X129864000Y-99785000D01*
G75*
G02*
X129614000Y-99535000I0J250000D01*
G01*
G37*
G36*
G01*
X104706000Y-135669000D02*
X104706000Y-136619000D01*
G75*
G02*
X104456000Y-136869000I-250000J0D01*
G01*
X103956000Y-136869000D01*
G75*
G02*
X103706000Y-136619000I0J250000D01*
G01*
X103706000Y-135669000D01*
G75*
G02*
X103956000Y-135419000I250000J0D01*
G01*
X104456000Y-135419000D01*
G75*
G02*
X104706000Y-135669000I0J-250000D01*
G01*
G37*
G36*
G01*
X106606000Y-135669000D02*
X106606000Y-136619000D01*
G75*
G02*
X106356000Y-136869000I-250000J0D01*
G01*
X105856000Y-136869000D01*
G75*
G02*
X105606000Y-136619000I0J250000D01*
G01*
X105606000Y-135669000D01*
G75*
G02*
X105856000Y-135419000I250000J0D01*
G01*
X106356000Y-135419000D01*
G75*
G02*
X106606000Y-135669000I0J-250000D01*
G01*
G37*
G36*
G01*
X101149999Y-128670000D02*
X102050001Y-128670000D01*
G75*
G02*
X102300000Y-128919999I0J-249999D01*
G01*
X102300000Y-129445001D01*
G75*
G02*
X102050001Y-129695000I-249999J0D01*
G01*
X101149999Y-129695000D01*
G75*
G02*
X100900000Y-129445001I0J249999D01*
G01*
X100900000Y-128919999D01*
G75*
G02*
X101149999Y-128670000I249999J0D01*
G01*
G37*
G36*
G01*
X101149999Y-126845000D02*
X102050001Y-126845000D01*
G75*
G02*
X102300000Y-127094999I0J-249999D01*
G01*
X102300000Y-127620001D01*
G75*
G02*
X102050001Y-127870000I-249999J0D01*
G01*
X101149999Y-127870000D01*
G75*
G02*
X100900000Y-127620001I0J249999D01*
G01*
X100900000Y-127094999D01*
G75*
G02*
X101149999Y-126845000I249999J0D01*
G01*
G37*
G36*
G01*
X112326000Y-129573000D02*
X112326000Y-130523000D01*
G75*
G02*
X112076000Y-130773000I-250000J0D01*
G01*
X111576000Y-130773000D01*
G75*
G02*
X111326000Y-130523000I0J250000D01*
G01*
X111326000Y-129573000D01*
G75*
G02*
X111576000Y-129323000I250000J0D01*
G01*
X112076000Y-129323000D01*
G75*
G02*
X112326000Y-129573000I0J-250000D01*
G01*
G37*
G36*
G01*
X114226000Y-129573000D02*
X114226000Y-130523000D01*
G75*
G02*
X113976000Y-130773000I-250000J0D01*
G01*
X113476000Y-130773000D01*
G75*
G02*
X113226000Y-130523000I0J250000D01*
G01*
X113226000Y-129573000D01*
G75*
G02*
X113476000Y-129323000I250000J0D01*
G01*
X113976000Y-129323000D01*
G75*
G02*
X114226000Y-129573000I0J-250000D01*
G01*
G37*
G36*
G01*
X123386000Y-108660250D02*
X123386000Y-107747750D01*
G75*
G02*
X123629750Y-107504000I243750J0D01*
G01*
X124117250Y-107504000D01*
G75*
G02*
X124361000Y-107747750I0J-243750D01*
G01*
X124361000Y-108660250D01*
G75*
G02*
X124117250Y-108904000I-243750J0D01*
G01*
X123629750Y-108904000D01*
G75*
G02*
X123386000Y-108660250I0J243750D01*
G01*
G37*
G36*
G01*
X121511000Y-108660250D02*
X121511000Y-107747750D01*
G75*
G02*
X121754750Y-107504000I243750J0D01*
G01*
X122242250Y-107504000D01*
G75*
G02*
X122486000Y-107747750I0J-243750D01*
G01*
X122486000Y-108660250D01*
G75*
G02*
X122242250Y-108904000I-243750J0D01*
G01*
X121754750Y-108904000D01*
G75*
G02*
X121511000Y-108660250I0J243750D01*
G01*
G37*
G36*
G01*
X89102250Y-116741000D02*
X88189750Y-116741000D01*
G75*
G02*
X87946000Y-116497250I0J243750D01*
G01*
X87946000Y-116009750D01*
G75*
G02*
X88189750Y-115766000I243750J0D01*
G01*
X89102250Y-115766000D01*
G75*
G02*
X89346000Y-116009750I0J-243750D01*
G01*
X89346000Y-116497250D01*
G75*
G02*
X89102250Y-116741000I-243750J0D01*
G01*
G37*
G36*
G01*
X89102250Y-114866000D02*
X88189750Y-114866000D01*
G75*
G02*
X87946000Y-114622250I0J243750D01*
G01*
X87946000Y-114134750D01*
G75*
G02*
X88189750Y-113891000I243750J0D01*
G01*
X89102250Y-113891000D01*
G75*
G02*
X89346000Y-114134750I0J-243750D01*
G01*
X89346000Y-114622250D01*
G75*
G02*
X89102250Y-114866000I-243750J0D01*
G01*
G37*
G36*
G01*
X80061750Y-129482000D02*
X80974250Y-129482000D01*
G75*
G02*
X81218000Y-129725750I0J-243750D01*
G01*
X81218000Y-130213250D01*
G75*
G02*
X80974250Y-130457000I-243750J0D01*
G01*
X80061750Y-130457000D01*
G75*
G02*
X79818000Y-130213250I0J243750D01*
G01*
X79818000Y-129725750D01*
G75*
G02*
X80061750Y-129482000I243750J0D01*
G01*
G37*
G36*
G01*
X80061750Y-127607000D02*
X80974250Y-127607000D01*
G75*
G02*
X81218000Y-127850750I0J-243750D01*
G01*
X81218000Y-128338250D01*
G75*
G02*
X80974250Y-128582000I-243750J0D01*
G01*
X80061750Y-128582000D01*
G75*
G02*
X79818000Y-128338250I0J243750D01*
G01*
X79818000Y-127850750D01*
G75*
G02*
X80061750Y-127607000I243750J0D01*
G01*
G37*
G36*
G01*
X82093750Y-127607000D02*
X83006250Y-127607000D01*
G75*
G02*
X83250000Y-127850750I0J-243750D01*
G01*
X83250000Y-128338250D01*
G75*
G02*
X83006250Y-128582000I-243750J0D01*
G01*
X82093750Y-128582000D01*
G75*
G02*
X81850000Y-128338250I0J243750D01*
G01*
X81850000Y-127850750D01*
G75*
G02*
X82093750Y-127607000I243750J0D01*
G01*
G37*
G36*
G01*
X82093750Y-129482000D02*
X83006250Y-129482000D01*
G75*
G02*
X83250000Y-129725750I0J-243750D01*
G01*
X83250000Y-130213250D01*
G75*
G02*
X83006250Y-130457000I-243750J0D01*
G01*
X82093750Y-130457000D01*
G75*
G02*
X81850000Y-130213250I0J243750D01*
G01*
X81850000Y-129725750D01*
G75*
G02*
X82093750Y-129482000I243750J0D01*
G01*
G37*
G36*
G01*
X83006250Y-114866000D02*
X82093750Y-114866000D01*
G75*
G02*
X81850000Y-114622250I0J243750D01*
G01*
X81850000Y-114134750D01*
G75*
G02*
X82093750Y-113891000I243750J0D01*
G01*
X83006250Y-113891000D01*
G75*
G02*
X83250000Y-114134750I0J-243750D01*
G01*
X83250000Y-114622250D01*
G75*
G02*
X83006250Y-114866000I-243750J0D01*
G01*
G37*
G36*
G01*
X83006250Y-116741000D02*
X82093750Y-116741000D01*
G75*
G02*
X81850000Y-116497250I0J243750D01*
G01*
X81850000Y-116009750D01*
G75*
G02*
X82093750Y-115766000I243750J0D01*
G01*
X83006250Y-115766000D01*
G75*
G02*
X83250000Y-116009750I0J-243750D01*
G01*
X83250000Y-116497250D01*
G75*
G02*
X83006250Y-116741000I-243750J0D01*
G01*
G37*
G36*
G01*
X60757750Y-103985000D02*
X61670250Y-103985000D01*
G75*
G02*
X61914000Y-104228750I0J-243750D01*
G01*
X61914000Y-104716250D01*
G75*
G02*
X61670250Y-104960000I-243750J0D01*
G01*
X60757750Y-104960000D01*
G75*
G02*
X60514000Y-104716250I0J243750D01*
G01*
X60514000Y-104228750D01*
G75*
G02*
X60757750Y-103985000I243750J0D01*
G01*
G37*
G36*
G01*
X60757750Y-105860000D02*
X61670250Y-105860000D01*
G75*
G02*
X61914000Y-106103750I0J-243750D01*
G01*
X61914000Y-106591250D01*
G75*
G02*
X61670250Y-106835000I-243750J0D01*
G01*
X60757750Y-106835000D01*
G75*
G02*
X60514000Y-106591250I0J243750D01*
G01*
X60514000Y-106103750D01*
G75*
G02*
X60757750Y-105860000I243750J0D01*
G01*
G37*
G36*
G01*
X89205750Y-128720000D02*
X90118250Y-128720000D01*
G75*
G02*
X90362000Y-128963750I0J-243750D01*
G01*
X90362000Y-129451250D01*
G75*
G02*
X90118250Y-129695000I-243750J0D01*
G01*
X89205750Y-129695000D01*
G75*
G02*
X88962000Y-129451250I0J243750D01*
G01*
X88962000Y-128963750D01*
G75*
G02*
X89205750Y-128720000I243750J0D01*
G01*
G37*
G36*
G01*
X89205750Y-126845000D02*
X90118250Y-126845000D01*
G75*
G02*
X90362000Y-127088750I0J-243750D01*
G01*
X90362000Y-127576250D01*
G75*
G02*
X90118250Y-127820000I-243750J0D01*
G01*
X89205750Y-127820000D01*
G75*
G02*
X88962000Y-127576250I0J243750D01*
G01*
X88962000Y-127088750D01*
G75*
G02*
X89205750Y-126845000I243750J0D01*
G01*
G37*
G36*
G01*
X78029750Y-122273000D02*
X78942250Y-122273000D01*
G75*
G02*
X79186000Y-122516750I0J-243750D01*
G01*
X79186000Y-123004250D01*
G75*
G02*
X78942250Y-123248000I-243750J0D01*
G01*
X78029750Y-123248000D01*
G75*
G02*
X77786000Y-123004250I0J243750D01*
G01*
X77786000Y-122516750D01*
G75*
G02*
X78029750Y-122273000I243750J0D01*
G01*
G37*
G36*
G01*
X78029750Y-124148000D02*
X78942250Y-124148000D01*
G75*
G02*
X79186000Y-124391750I0J-243750D01*
G01*
X79186000Y-124879250D01*
G75*
G02*
X78942250Y-125123000I-243750J0D01*
G01*
X78029750Y-125123000D01*
G75*
G02*
X77786000Y-124879250I0J243750D01*
G01*
X77786000Y-124391750D01*
G75*
G02*
X78029750Y-124148000I243750J0D01*
G01*
G37*
G36*
G01*
X67258250Y-112580000D02*
X66345750Y-112580000D01*
G75*
G02*
X66102000Y-112336250I0J243750D01*
G01*
X66102000Y-111848750D01*
G75*
G02*
X66345750Y-111605000I243750J0D01*
G01*
X67258250Y-111605000D01*
G75*
G02*
X67502000Y-111848750I0J-243750D01*
G01*
X67502000Y-112336250D01*
G75*
G02*
X67258250Y-112580000I-243750J0D01*
G01*
G37*
G36*
G01*
X67258250Y-114455000D02*
X66345750Y-114455000D01*
G75*
G02*
X66102000Y-114211250I0J243750D01*
G01*
X66102000Y-113723750D01*
G75*
G02*
X66345750Y-113480000I243750J0D01*
G01*
X67258250Y-113480000D01*
G75*
G02*
X67502000Y-113723750I0J-243750D01*
G01*
X67502000Y-114211250D01*
G75*
G02*
X67258250Y-114455000I-243750J0D01*
G01*
G37*
G36*
G01*
X63805750Y-129639000D02*
X64718250Y-129639000D01*
G75*
G02*
X64962000Y-129882750I0J-243750D01*
G01*
X64962000Y-130370250D01*
G75*
G02*
X64718250Y-130614000I-243750J0D01*
G01*
X63805750Y-130614000D01*
G75*
G02*
X63562000Y-130370250I0J243750D01*
G01*
X63562000Y-129882750D01*
G75*
G02*
X63805750Y-129639000I243750J0D01*
G01*
G37*
G36*
G01*
X63805750Y-131514000D02*
X64718250Y-131514000D01*
G75*
G02*
X64962000Y-131757750I0J-243750D01*
G01*
X64962000Y-132245250D01*
G75*
G02*
X64718250Y-132489000I-243750J0D01*
G01*
X63805750Y-132489000D01*
G75*
G02*
X63562000Y-132245250I0J243750D01*
G01*
X63562000Y-131757750D01*
G75*
G02*
X63805750Y-131514000I243750J0D01*
G01*
G37*
G36*
G01*
X65226250Y-112580000D02*
X64313750Y-112580000D01*
G75*
G02*
X64070000Y-112336250I0J243750D01*
G01*
X64070000Y-111848750D01*
G75*
G02*
X64313750Y-111605000I243750J0D01*
G01*
X65226250Y-111605000D01*
G75*
G02*
X65470000Y-111848750I0J-243750D01*
G01*
X65470000Y-112336250D01*
G75*
G02*
X65226250Y-112580000I-243750J0D01*
G01*
G37*
G36*
G01*
X65226250Y-114455000D02*
X64313750Y-114455000D01*
G75*
G02*
X64070000Y-114211250I0J243750D01*
G01*
X64070000Y-113723750D01*
G75*
G02*
X64313750Y-113480000I243750J0D01*
G01*
X65226250Y-113480000D01*
G75*
G02*
X65470000Y-113723750I0J-243750D01*
G01*
X65470000Y-114211250D01*
G75*
G02*
X65226250Y-114455000I-243750J0D01*
G01*
G37*
G36*
G01*
X70560250Y-112580000D02*
X69647750Y-112580000D01*
G75*
G02*
X69404000Y-112336250I0J243750D01*
G01*
X69404000Y-111848750D01*
G75*
G02*
X69647750Y-111605000I243750J0D01*
G01*
X70560250Y-111605000D01*
G75*
G02*
X70804000Y-111848750I0J-243750D01*
G01*
X70804000Y-112336250D01*
G75*
G02*
X70560250Y-112580000I-243750J0D01*
G01*
G37*
G36*
G01*
X70560250Y-114455000D02*
X69647750Y-114455000D01*
G75*
G02*
X69404000Y-114211250I0J243750D01*
G01*
X69404000Y-113723750D01*
G75*
G02*
X69647750Y-113480000I243750J0D01*
G01*
X70560250Y-113480000D01*
G75*
G02*
X70804000Y-113723750I0J-243750D01*
G01*
X70804000Y-114211250D01*
G75*
G02*
X70560250Y-114455000I-243750J0D01*
G01*
G37*
G36*
G01*
X70155750Y-129639000D02*
X71068250Y-129639000D01*
G75*
G02*
X71312000Y-129882750I0J-243750D01*
G01*
X71312000Y-130370250D01*
G75*
G02*
X71068250Y-130614000I-243750J0D01*
G01*
X70155750Y-130614000D01*
G75*
G02*
X69912000Y-130370250I0J243750D01*
G01*
X69912000Y-129882750D01*
G75*
G02*
X70155750Y-129639000I243750J0D01*
G01*
G37*
G36*
G01*
X70155750Y-131514000D02*
X71068250Y-131514000D01*
G75*
G02*
X71312000Y-131757750I0J-243750D01*
G01*
X71312000Y-132245250D01*
G75*
G02*
X71068250Y-132489000I-243750J0D01*
G01*
X70155750Y-132489000D01*
G75*
G02*
X69912000Y-132245250I0J243750D01*
G01*
X69912000Y-131757750D01*
G75*
G02*
X70155750Y-131514000I243750J0D01*
G01*
G37*
G36*
G01*
X72592250Y-112580000D02*
X71679750Y-112580000D01*
G75*
G02*
X71436000Y-112336250I0J243750D01*
G01*
X71436000Y-111848750D01*
G75*
G02*
X71679750Y-111605000I243750J0D01*
G01*
X72592250Y-111605000D01*
G75*
G02*
X72836000Y-111848750I0J-243750D01*
G01*
X72836000Y-112336250D01*
G75*
G02*
X72592250Y-112580000I-243750J0D01*
G01*
G37*
G36*
G01*
X72592250Y-114455000D02*
X71679750Y-114455000D01*
G75*
G02*
X71436000Y-114211250I0J243750D01*
G01*
X71436000Y-113723750D01*
G75*
G02*
X71679750Y-113480000I243750J0D01*
G01*
X72592250Y-113480000D01*
G75*
G02*
X72836000Y-113723750I0J-243750D01*
G01*
X72836000Y-114211250D01*
G75*
G02*
X72592250Y-114455000I-243750J0D01*
G01*
G37*
G36*
G01*
X72187750Y-129639000D02*
X73100250Y-129639000D01*
G75*
G02*
X73344000Y-129882750I0J-243750D01*
G01*
X73344000Y-130370250D01*
G75*
G02*
X73100250Y-130614000I-243750J0D01*
G01*
X72187750Y-130614000D01*
G75*
G02*
X71944000Y-130370250I0J243750D01*
G01*
X71944000Y-129882750D01*
G75*
G02*
X72187750Y-129639000I243750J0D01*
G01*
G37*
G36*
G01*
X72187750Y-131514000D02*
X73100250Y-131514000D01*
G75*
G02*
X73344000Y-131757750I0J-243750D01*
G01*
X73344000Y-132245250D01*
G75*
G02*
X73100250Y-132489000I-243750J0D01*
G01*
X72187750Y-132489000D01*
G75*
G02*
X71944000Y-132245250I0J243750D01*
G01*
X71944000Y-131757750D01*
G75*
G02*
X72187750Y-131514000I243750J0D01*
G01*
G37*
D25*
X54537000Y-100737000D03*
X54537000Y-101387000D03*
X54537000Y-102037000D03*
X54537000Y-102687000D03*
X54537000Y-103337000D03*
X54537000Y-103987000D03*
X58747000Y-103987000D03*
X58747000Y-103337000D03*
X58747000Y-102687000D03*
X58747000Y-102037000D03*
X58747000Y-101387000D03*
X58747000Y-100737000D03*
D26*
X57054500Y-103312000D03*
X56229500Y-103312000D03*
X56229500Y-102362000D03*
X57054500Y-102362000D03*
X56229500Y-101412000D03*
X57054500Y-101412000D03*
G36*
G01*
X128425000Y-80823750D02*
X128425000Y-81736250D01*
G75*
G02*
X128181250Y-81980000I-243750J0D01*
G01*
X127693750Y-81980000D01*
G75*
G02*
X127450000Y-81736250I0J243750D01*
G01*
X127450000Y-80823750D01*
G75*
G02*
X127693750Y-80580000I243750J0D01*
G01*
X128181250Y-80580000D01*
G75*
G02*
X128425000Y-80823750I0J-243750D01*
G01*
G37*
G36*
G01*
X126550000Y-80823750D02*
X126550000Y-81736250D01*
G75*
G02*
X126306250Y-81980000I-243750J0D01*
G01*
X125818750Y-81980000D01*
G75*
G02*
X125575000Y-81736250I0J243750D01*
G01*
X125575000Y-80823750D01*
G75*
G02*
X125818750Y-80580000I243750J0D01*
G01*
X126306250Y-80580000D01*
G75*
G02*
X126550000Y-80823750I0J-243750D01*
G01*
G37*
G36*
G01*
X55900500Y-106628250D02*
X55900500Y-105715750D01*
G75*
G02*
X56144250Y-105472000I243750J0D01*
G01*
X56631750Y-105472000D01*
G75*
G02*
X56875500Y-105715750I0J-243750D01*
G01*
X56875500Y-106628250D01*
G75*
G02*
X56631750Y-106872000I-243750J0D01*
G01*
X56144250Y-106872000D01*
G75*
G02*
X55900500Y-106628250I0J243750D01*
G01*
G37*
G36*
G01*
X54025500Y-106628250D02*
X54025500Y-105715750D01*
G75*
G02*
X54269250Y-105472000I243750J0D01*
G01*
X54756750Y-105472000D01*
G75*
G02*
X55000500Y-105715750I0J-243750D01*
G01*
X55000500Y-106628250D01*
G75*
G02*
X54756750Y-106872000I-243750J0D01*
G01*
X54269250Y-106872000D01*
G75*
G02*
X54025500Y-106628250I0J243750D01*
G01*
G37*
G36*
G01*
X123495750Y-76807000D02*
X124408250Y-76807000D01*
G75*
G02*
X124652000Y-77050750I0J-243750D01*
G01*
X124652000Y-77538250D01*
G75*
G02*
X124408250Y-77782000I-243750J0D01*
G01*
X123495750Y-77782000D01*
G75*
G02*
X123252000Y-77538250I0J243750D01*
G01*
X123252000Y-77050750D01*
G75*
G02*
X123495750Y-76807000I243750J0D01*
G01*
G37*
G36*
G01*
X123495750Y-78682000D02*
X124408250Y-78682000D01*
G75*
G02*
X124652000Y-78925750I0J-243750D01*
G01*
X124652000Y-79413250D01*
G75*
G02*
X124408250Y-79657000I-243750J0D01*
G01*
X123495750Y-79657000D01*
G75*
G02*
X123252000Y-79413250I0J243750D01*
G01*
X123252000Y-78925750D01*
G75*
G02*
X123495750Y-78682000I243750J0D01*
G01*
G37*
G36*
G01*
X123495750Y-75126000D02*
X124408250Y-75126000D01*
G75*
G02*
X124652000Y-75369750I0J-243750D01*
G01*
X124652000Y-75857250D01*
G75*
G02*
X124408250Y-76101000I-243750J0D01*
G01*
X123495750Y-76101000D01*
G75*
G02*
X123252000Y-75857250I0J243750D01*
G01*
X123252000Y-75369750D01*
G75*
G02*
X123495750Y-75126000I243750J0D01*
G01*
G37*
G36*
G01*
X123495750Y-73251000D02*
X124408250Y-73251000D01*
G75*
G02*
X124652000Y-73494750I0J-243750D01*
G01*
X124652000Y-73982250D01*
G75*
G02*
X124408250Y-74226000I-243750J0D01*
G01*
X123495750Y-74226000D01*
G75*
G02*
X123252000Y-73982250I0J243750D01*
G01*
X123252000Y-73494750D01*
G75*
G02*
X123495750Y-73251000I243750J0D01*
G01*
G37*
G36*
G01*
X127559750Y-73251000D02*
X128472250Y-73251000D01*
G75*
G02*
X128716000Y-73494750I0J-243750D01*
G01*
X128716000Y-73982250D01*
G75*
G02*
X128472250Y-74226000I-243750J0D01*
G01*
X127559750Y-74226000D01*
G75*
G02*
X127316000Y-73982250I0J243750D01*
G01*
X127316000Y-73494750D01*
G75*
G02*
X127559750Y-73251000I243750J0D01*
G01*
G37*
G36*
G01*
X127559750Y-75126000D02*
X128472250Y-75126000D01*
G75*
G02*
X128716000Y-75369750I0J-243750D01*
G01*
X128716000Y-75857250D01*
G75*
G02*
X128472250Y-76101000I-243750J0D01*
G01*
X127559750Y-76101000D01*
G75*
G02*
X127316000Y-75857250I0J243750D01*
G01*
X127316000Y-75369750D01*
G75*
G02*
X127559750Y-75126000I243750J0D01*
G01*
G37*
G36*
G01*
X54160000Y-122479750D02*
X54160000Y-123392250D01*
G75*
G02*
X53916250Y-123636000I-243750J0D01*
G01*
X53428750Y-123636000D01*
G75*
G02*
X53185000Y-123392250I0J243750D01*
G01*
X53185000Y-122479750D01*
G75*
G02*
X53428750Y-122236000I243750J0D01*
G01*
X53916250Y-122236000D01*
G75*
G02*
X54160000Y-122479750I0J-243750D01*
G01*
G37*
G36*
G01*
X56035000Y-122479750D02*
X56035000Y-123392250D01*
G75*
G02*
X55791250Y-123636000I-243750J0D01*
G01*
X55303750Y-123636000D01*
G75*
G02*
X55060000Y-123392250I0J243750D01*
G01*
X55060000Y-122479750D01*
G75*
G02*
X55303750Y-122236000I243750J0D01*
G01*
X55791250Y-122236000D01*
G75*
G02*
X56035000Y-122479750I0J-243750D01*
G01*
G37*
G36*
G01*
X74013000Y-125424250D02*
X74013000Y-124511750D01*
G75*
G02*
X74256750Y-124268000I243750J0D01*
G01*
X74744250Y-124268000D01*
G75*
G02*
X74988000Y-124511750I0J-243750D01*
G01*
X74988000Y-125424250D01*
G75*
G02*
X74744250Y-125668000I-243750J0D01*
G01*
X74256750Y-125668000D01*
G75*
G02*
X74013000Y-125424250I0J243750D01*
G01*
G37*
G36*
G01*
X75888000Y-125424250D02*
X75888000Y-124511750D01*
G75*
G02*
X76131750Y-124268000I243750J0D01*
G01*
X76619250Y-124268000D01*
G75*
G02*
X76863000Y-124511750I0J-243750D01*
G01*
X76863000Y-125424250D01*
G75*
G02*
X76619250Y-125668000I-243750J0D01*
G01*
X76131750Y-125668000D01*
G75*
G02*
X75888000Y-125424250I0J243750D01*
G01*
G37*
G36*
G01*
X75888000Y-123392250D02*
X75888000Y-122479750D01*
G75*
G02*
X76131750Y-122236000I243750J0D01*
G01*
X76619250Y-122236000D01*
G75*
G02*
X76863000Y-122479750I0J-243750D01*
G01*
X76863000Y-123392250D01*
G75*
G02*
X76619250Y-123636000I-243750J0D01*
G01*
X76131750Y-123636000D01*
G75*
G02*
X75888000Y-123392250I0J243750D01*
G01*
G37*
G36*
G01*
X74013000Y-123392250D02*
X74013000Y-122479750D01*
G75*
G02*
X74256750Y-122236000I243750J0D01*
G01*
X74744250Y-122236000D01*
G75*
G02*
X74988000Y-122479750I0J-243750D01*
G01*
X74988000Y-123392250D01*
G75*
G02*
X74744250Y-123636000I-243750J0D01*
G01*
X74256750Y-123636000D01*
G75*
G02*
X74013000Y-123392250I0J243750D01*
G01*
G37*
G36*
G01*
X74013000Y-117296250D02*
X74013000Y-116383750D01*
G75*
G02*
X74256750Y-116140000I243750J0D01*
G01*
X74744250Y-116140000D01*
G75*
G02*
X74988000Y-116383750I0J-243750D01*
G01*
X74988000Y-117296250D01*
G75*
G02*
X74744250Y-117540000I-243750J0D01*
G01*
X74256750Y-117540000D01*
G75*
G02*
X74013000Y-117296250I0J243750D01*
G01*
G37*
G36*
G01*
X75888000Y-117296250D02*
X75888000Y-116383750D01*
G75*
G02*
X76131750Y-116140000I243750J0D01*
G01*
X76619250Y-116140000D01*
G75*
G02*
X76863000Y-116383750I0J-243750D01*
G01*
X76863000Y-117296250D01*
G75*
G02*
X76619250Y-117540000I-243750J0D01*
G01*
X76131750Y-117540000D01*
G75*
G02*
X75888000Y-117296250I0J243750D01*
G01*
G37*
G36*
G01*
X75888000Y-127456250D02*
X75888000Y-126543750D01*
G75*
G02*
X76131750Y-126300000I243750J0D01*
G01*
X76619250Y-126300000D01*
G75*
G02*
X76863000Y-126543750I0J-243750D01*
G01*
X76863000Y-127456250D01*
G75*
G02*
X76619250Y-127700000I-243750J0D01*
G01*
X76131750Y-127700000D01*
G75*
G02*
X75888000Y-127456250I0J243750D01*
G01*
G37*
G36*
G01*
X74013000Y-127456250D02*
X74013000Y-126543750D01*
G75*
G02*
X74256750Y-126300000I243750J0D01*
G01*
X74744250Y-126300000D01*
G75*
G02*
X74988000Y-126543750I0J-243750D01*
G01*
X74988000Y-127456250D01*
G75*
G02*
X74744250Y-127700000I-243750J0D01*
G01*
X74256750Y-127700000D01*
G75*
G02*
X74013000Y-127456250I0J243750D01*
G01*
G37*
G36*
G01*
X56035000Y-120447750D02*
X56035000Y-121360250D01*
G75*
G02*
X55791250Y-121604000I-243750J0D01*
G01*
X55303750Y-121604000D01*
G75*
G02*
X55060000Y-121360250I0J243750D01*
G01*
X55060000Y-120447750D01*
G75*
G02*
X55303750Y-120204000I243750J0D01*
G01*
X55791250Y-120204000D01*
G75*
G02*
X56035000Y-120447750I0J-243750D01*
G01*
G37*
G36*
G01*
X54160000Y-120447750D02*
X54160000Y-121360250D01*
G75*
G02*
X53916250Y-121604000I-243750J0D01*
G01*
X53428750Y-121604000D01*
G75*
G02*
X53185000Y-121360250I0J243750D01*
G01*
X53185000Y-120447750D01*
G75*
G02*
X53428750Y-120204000I243750J0D01*
G01*
X53916250Y-120204000D01*
G75*
G02*
X54160000Y-120447750I0J-243750D01*
G01*
G37*
G36*
G01*
X73210000Y-140767750D02*
X73210000Y-141680250D01*
G75*
G02*
X72966250Y-141924000I-243750J0D01*
G01*
X72478750Y-141924000D01*
G75*
G02*
X72235000Y-141680250I0J243750D01*
G01*
X72235000Y-140767750D01*
G75*
G02*
X72478750Y-140524000I243750J0D01*
G01*
X72966250Y-140524000D01*
G75*
G02*
X73210000Y-140767750I0J-243750D01*
G01*
G37*
G36*
G01*
X75085000Y-140767750D02*
X75085000Y-141680250D01*
G75*
G02*
X74841250Y-141924000I-243750J0D01*
G01*
X74353750Y-141924000D01*
G75*
G02*
X74110000Y-141680250I0J243750D01*
G01*
X74110000Y-140767750D01*
G75*
G02*
X74353750Y-140524000I243750J0D01*
G01*
X74841250Y-140524000D01*
G75*
G02*
X75085000Y-140767750I0J-243750D01*
G01*
G37*
G36*
G01*
X56741000Y-135838250D02*
X56741000Y-134925750D01*
G75*
G02*
X56984750Y-134682000I243750J0D01*
G01*
X57472250Y-134682000D01*
G75*
G02*
X57716000Y-134925750I0J-243750D01*
G01*
X57716000Y-135838250D01*
G75*
G02*
X57472250Y-136082000I-243750J0D01*
G01*
X56984750Y-136082000D01*
G75*
G02*
X56741000Y-135838250I0J243750D01*
G01*
G37*
G36*
G01*
X58616000Y-135838250D02*
X58616000Y-134925750D01*
G75*
G02*
X58859750Y-134682000I243750J0D01*
G01*
X59347250Y-134682000D01*
G75*
G02*
X59591000Y-134925750I0J-243750D01*
G01*
X59591000Y-135838250D01*
G75*
G02*
X59347250Y-136082000I-243750J0D01*
G01*
X58859750Y-136082000D01*
G75*
G02*
X58616000Y-135838250I0J243750D01*
G01*
G37*
G36*
G01*
X54812250Y-86418000D02*
X53899750Y-86418000D01*
G75*
G02*
X53656000Y-86174250I0J243750D01*
G01*
X53656000Y-85686750D01*
G75*
G02*
X53899750Y-85443000I243750J0D01*
G01*
X54812250Y-85443000D01*
G75*
G02*
X55056000Y-85686750I0J-243750D01*
G01*
X55056000Y-86174250D01*
G75*
G02*
X54812250Y-86418000I-243750J0D01*
G01*
G37*
G36*
G01*
X54812250Y-88293000D02*
X53899750Y-88293000D01*
G75*
G02*
X53656000Y-88049250I0J243750D01*
G01*
X53656000Y-87561750D01*
G75*
G02*
X53899750Y-87318000I243750J0D01*
G01*
X54812250Y-87318000D01*
G75*
G02*
X55056000Y-87561750I0J-243750D01*
G01*
X55056000Y-88049250D01*
G75*
G02*
X54812250Y-88293000I-243750J0D01*
G01*
G37*
G36*
G01*
X98397000Y-103072250D02*
X98397000Y-102159750D01*
G75*
G02*
X98640750Y-101916000I243750J0D01*
G01*
X99128250Y-101916000D01*
G75*
G02*
X99372000Y-102159750I0J-243750D01*
G01*
X99372000Y-103072250D01*
G75*
G02*
X99128250Y-103316000I-243750J0D01*
G01*
X98640750Y-103316000D01*
G75*
G02*
X98397000Y-103072250I0J243750D01*
G01*
G37*
G36*
G01*
X100272000Y-103072250D02*
X100272000Y-102159750D01*
G75*
G02*
X100515750Y-101916000I243750J0D01*
G01*
X101003250Y-101916000D01*
G75*
G02*
X101247000Y-102159750I0J-243750D01*
G01*
X101247000Y-103072250D01*
G75*
G02*
X101003250Y-103316000I-243750J0D01*
G01*
X100515750Y-103316000D01*
G75*
G02*
X100272000Y-103072250I0J243750D01*
G01*
G37*
G36*
G01*
X61918000Y-90372250D02*
X61918000Y-89459750D01*
G75*
G02*
X62161750Y-89216000I243750J0D01*
G01*
X62649250Y-89216000D01*
G75*
G02*
X62893000Y-89459750I0J-243750D01*
G01*
X62893000Y-90372250D01*
G75*
G02*
X62649250Y-90616000I-243750J0D01*
G01*
X62161750Y-90616000D01*
G75*
G02*
X61918000Y-90372250I0J243750D01*
G01*
G37*
G36*
G01*
X60043000Y-90372250D02*
X60043000Y-89459750D01*
G75*
G02*
X60286750Y-89216000I243750J0D01*
G01*
X60774250Y-89216000D01*
G75*
G02*
X61018000Y-89459750I0J-243750D01*
G01*
X61018000Y-90372250D01*
G75*
G02*
X60774250Y-90616000I-243750J0D01*
G01*
X60286750Y-90616000D01*
G75*
G02*
X60043000Y-90372250I0J243750D01*
G01*
G37*
G36*
G01*
X56487000Y-90372250D02*
X56487000Y-89459750D01*
G75*
G02*
X56730750Y-89216000I243750J0D01*
G01*
X57218250Y-89216000D01*
G75*
G02*
X57462000Y-89459750I0J-243750D01*
G01*
X57462000Y-90372250D01*
G75*
G02*
X57218250Y-90616000I-243750J0D01*
G01*
X56730750Y-90616000D01*
G75*
G02*
X56487000Y-90372250I0J243750D01*
G01*
G37*
G36*
G01*
X58362000Y-90372250D02*
X58362000Y-89459750D01*
G75*
G02*
X58605750Y-89216000I243750J0D01*
G01*
X59093250Y-89216000D01*
G75*
G02*
X59337000Y-89459750I0J-243750D01*
G01*
X59337000Y-90372250D01*
G75*
G02*
X59093250Y-90616000I-243750J0D01*
G01*
X58605750Y-90616000D01*
G75*
G02*
X58362000Y-90372250I0J243750D01*
G01*
G37*
G36*
G01*
X113226000Y-134568250D02*
X113226000Y-133655750D01*
G75*
G02*
X113469750Y-133412000I243750J0D01*
G01*
X113957250Y-133412000D01*
G75*
G02*
X114201000Y-133655750I0J-243750D01*
G01*
X114201000Y-134568250D01*
G75*
G02*
X113957250Y-134812000I-243750J0D01*
G01*
X113469750Y-134812000D01*
G75*
G02*
X113226000Y-134568250I0J243750D01*
G01*
G37*
G36*
G01*
X111351000Y-134568250D02*
X111351000Y-133655750D01*
G75*
G02*
X111594750Y-133412000I243750J0D01*
G01*
X112082250Y-133412000D01*
G75*
G02*
X112326000Y-133655750I0J-243750D01*
G01*
X112326000Y-134568250D01*
G75*
G02*
X112082250Y-134812000I-243750J0D01*
G01*
X111594750Y-134812000D01*
G75*
G02*
X111351000Y-134568250I0J243750D01*
G01*
G37*
G36*
G01*
X56741000Y-138124250D02*
X56741000Y-137211750D01*
G75*
G02*
X56984750Y-136968000I243750J0D01*
G01*
X57472250Y-136968000D01*
G75*
G02*
X57716000Y-137211750I0J-243750D01*
G01*
X57716000Y-138124250D01*
G75*
G02*
X57472250Y-138368000I-243750J0D01*
G01*
X56984750Y-138368000D01*
G75*
G02*
X56741000Y-138124250I0J243750D01*
G01*
G37*
G36*
G01*
X58616000Y-138124250D02*
X58616000Y-137211750D01*
G75*
G02*
X58859750Y-136968000I243750J0D01*
G01*
X59347250Y-136968000D01*
G75*
G02*
X59591000Y-137211750I0J-243750D01*
G01*
X59591000Y-138124250D01*
G75*
G02*
X59347250Y-138368000I-243750J0D01*
G01*
X58859750Y-138368000D01*
G75*
G02*
X58616000Y-138124250I0J243750D01*
G01*
G37*
G36*
G01*
X134170000Y-98603750D02*
X134170000Y-99516250D01*
G75*
G02*
X133926250Y-99760000I-243750J0D01*
G01*
X133438750Y-99760000D01*
G75*
G02*
X133195000Y-99516250I0J243750D01*
G01*
X133195000Y-98603750D01*
G75*
G02*
X133438750Y-98360000I243750J0D01*
G01*
X133926250Y-98360000D01*
G75*
G02*
X134170000Y-98603750I0J-243750D01*
G01*
G37*
G36*
G01*
X136045000Y-98603750D02*
X136045000Y-99516250D01*
G75*
G02*
X135801250Y-99760000I-243750J0D01*
G01*
X135313750Y-99760000D01*
G75*
G02*
X135070000Y-99516250I0J243750D01*
G01*
X135070000Y-98603750D01*
G75*
G02*
X135313750Y-98360000I243750J0D01*
G01*
X135801250Y-98360000D01*
G75*
G02*
X136045000Y-98603750I0J-243750D01*
G01*
G37*
G36*
G01*
X74013000Y-121360250D02*
X74013000Y-120447750D01*
G75*
G02*
X74256750Y-120204000I243750J0D01*
G01*
X74744250Y-120204000D01*
G75*
G02*
X74988000Y-120447750I0J-243750D01*
G01*
X74988000Y-121360250D01*
G75*
G02*
X74744250Y-121604000I-243750J0D01*
G01*
X74256750Y-121604000D01*
G75*
G02*
X74013000Y-121360250I0J243750D01*
G01*
G37*
G36*
G01*
X75888000Y-121360250D02*
X75888000Y-120447750D01*
G75*
G02*
X76131750Y-120204000I243750J0D01*
G01*
X76619250Y-120204000D01*
G75*
G02*
X76863000Y-120447750I0J-243750D01*
G01*
X76863000Y-121360250D01*
G75*
G02*
X76619250Y-121604000I-243750J0D01*
G01*
X76131750Y-121604000D01*
G75*
G02*
X75888000Y-121360250I0J243750D01*
G01*
G37*
G36*
G01*
X126440250Y-79657000D02*
X125527750Y-79657000D01*
G75*
G02*
X125284000Y-79413250I0J243750D01*
G01*
X125284000Y-78925750D01*
G75*
G02*
X125527750Y-78682000I243750J0D01*
G01*
X126440250Y-78682000D01*
G75*
G02*
X126684000Y-78925750I0J-243750D01*
G01*
X126684000Y-79413250D01*
G75*
G02*
X126440250Y-79657000I-243750J0D01*
G01*
G37*
G36*
G01*
X126440250Y-77782000D02*
X125527750Y-77782000D01*
G75*
G02*
X125284000Y-77538250I0J243750D01*
G01*
X125284000Y-77050750D01*
G75*
G02*
X125527750Y-76807000I243750J0D01*
G01*
X126440250Y-76807000D01*
G75*
G02*
X126684000Y-77050750I0J-243750D01*
G01*
X126684000Y-77538250D01*
G75*
G02*
X126440250Y-77782000I-243750J0D01*
G01*
G37*
G36*
G01*
X136600250Y-78641000D02*
X135687750Y-78641000D01*
G75*
G02*
X135444000Y-78397250I0J243750D01*
G01*
X135444000Y-77909750D01*
G75*
G02*
X135687750Y-77666000I243750J0D01*
G01*
X136600250Y-77666000D01*
G75*
G02*
X136844000Y-77909750I0J-243750D01*
G01*
X136844000Y-78397250D01*
G75*
G02*
X136600250Y-78641000I-243750J0D01*
G01*
G37*
G36*
G01*
X136600250Y-76766000D02*
X135687750Y-76766000D01*
G75*
G02*
X135444000Y-76522250I0J243750D01*
G01*
X135444000Y-76034750D01*
G75*
G02*
X135687750Y-75791000I243750J0D01*
G01*
X136600250Y-75791000D01*
G75*
G02*
X136844000Y-76034750I0J-243750D01*
G01*
X136844000Y-76522250D01*
G75*
G02*
X136600250Y-76766000I-243750J0D01*
G01*
G37*
G36*
G01*
X137719750Y-77666000D02*
X138632250Y-77666000D01*
G75*
G02*
X138876000Y-77909750I0J-243750D01*
G01*
X138876000Y-78397250D01*
G75*
G02*
X138632250Y-78641000I-243750J0D01*
G01*
X137719750Y-78641000D01*
G75*
G02*
X137476000Y-78397250I0J243750D01*
G01*
X137476000Y-77909750D01*
G75*
G02*
X137719750Y-77666000I243750J0D01*
G01*
G37*
G36*
G01*
X137719750Y-75791000D02*
X138632250Y-75791000D01*
G75*
G02*
X138876000Y-76034750I0J-243750D01*
G01*
X138876000Y-76522250D01*
G75*
G02*
X138632250Y-76766000I-243750J0D01*
G01*
X137719750Y-76766000D01*
G75*
G02*
X137476000Y-76522250I0J243750D01*
G01*
X137476000Y-76034750D01*
G75*
G02*
X137719750Y-75791000I243750J0D01*
G01*
G37*
G36*
G01*
X131981000Y-70155750D02*
X131981000Y-71068250D01*
G75*
G02*
X131737250Y-71312000I-243750J0D01*
G01*
X131249750Y-71312000D01*
G75*
G02*
X131006000Y-71068250I0J243750D01*
G01*
X131006000Y-70155750D01*
G75*
G02*
X131249750Y-69912000I243750J0D01*
G01*
X131737250Y-69912000D01*
G75*
G02*
X131981000Y-70155750I0J-243750D01*
G01*
G37*
G36*
G01*
X130106000Y-70155750D02*
X130106000Y-71068250D01*
G75*
G02*
X129862250Y-71312000I-243750J0D01*
G01*
X129374750Y-71312000D01*
G75*
G02*
X129131000Y-71068250I0J243750D01*
G01*
X129131000Y-70155750D01*
G75*
G02*
X129374750Y-69912000I243750J0D01*
G01*
X129862250Y-69912000D01*
G75*
G02*
X130106000Y-70155750I0J-243750D01*
G01*
G37*
G36*
G01*
X91134250Y-114866000D02*
X90221750Y-114866000D01*
G75*
G02*
X89978000Y-114622250I0J243750D01*
G01*
X89978000Y-114134750D01*
G75*
G02*
X90221750Y-113891000I243750J0D01*
G01*
X91134250Y-113891000D01*
G75*
G02*
X91378000Y-114134750I0J-243750D01*
G01*
X91378000Y-114622250D01*
G75*
G02*
X91134250Y-114866000I-243750J0D01*
G01*
G37*
G36*
G01*
X91134250Y-116741000D02*
X90221750Y-116741000D01*
G75*
G02*
X89978000Y-116497250I0J243750D01*
G01*
X89978000Y-116009750D01*
G75*
G02*
X90221750Y-115766000I243750J0D01*
G01*
X91134250Y-115766000D01*
G75*
G02*
X91378000Y-116009750I0J-243750D01*
G01*
X91378000Y-116497250D01*
G75*
G02*
X91134250Y-116741000I-243750J0D01*
G01*
G37*
G36*
G01*
X123345000Y-91491750D02*
X123345000Y-92404250D01*
G75*
G02*
X123101250Y-92648000I-243750J0D01*
G01*
X122613750Y-92648000D01*
G75*
G02*
X122370000Y-92404250I0J243750D01*
G01*
X122370000Y-91491750D01*
G75*
G02*
X122613750Y-91248000I243750J0D01*
G01*
X123101250Y-91248000D01*
G75*
G02*
X123345000Y-91491750I0J-243750D01*
G01*
G37*
G36*
G01*
X121470000Y-91491750D02*
X121470000Y-92404250D01*
G75*
G02*
X121226250Y-92648000I-243750J0D01*
G01*
X120738750Y-92648000D01*
G75*
G02*
X120495000Y-92404250I0J243750D01*
G01*
X120495000Y-91491750D01*
G75*
G02*
X120738750Y-91248000I243750J0D01*
G01*
X121226250Y-91248000D01*
G75*
G02*
X121470000Y-91491750I0J-243750D01*
G01*
G37*
G36*
G01*
X78029750Y-120592000D02*
X78942250Y-120592000D01*
G75*
G02*
X79186000Y-120835750I0J-243750D01*
G01*
X79186000Y-121323250D01*
G75*
G02*
X78942250Y-121567000I-243750J0D01*
G01*
X78029750Y-121567000D01*
G75*
G02*
X77786000Y-121323250I0J243750D01*
G01*
X77786000Y-120835750D01*
G75*
G02*
X78029750Y-120592000I243750J0D01*
G01*
G37*
G36*
G01*
X78029750Y-118717000D02*
X78942250Y-118717000D01*
G75*
G02*
X79186000Y-118960750I0J-243750D01*
G01*
X79186000Y-119448250D01*
G75*
G02*
X78942250Y-119692000I-243750J0D01*
G01*
X78029750Y-119692000D01*
G75*
G02*
X77786000Y-119448250I0J243750D01*
G01*
X77786000Y-118960750D01*
G75*
G02*
X78029750Y-118717000I243750J0D01*
G01*
G37*
G36*
G01*
X65837750Y-129639000D02*
X66750250Y-129639000D01*
G75*
G02*
X66994000Y-129882750I0J-243750D01*
G01*
X66994000Y-130370250D01*
G75*
G02*
X66750250Y-130614000I-243750J0D01*
G01*
X65837750Y-130614000D01*
G75*
G02*
X65594000Y-130370250I0J243750D01*
G01*
X65594000Y-129882750D01*
G75*
G02*
X65837750Y-129639000I243750J0D01*
G01*
G37*
G36*
G01*
X65837750Y-131514000D02*
X66750250Y-131514000D01*
G75*
G02*
X66994000Y-131757750I0J-243750D01*
G01*
X66994000Y-132245250D01*
G75*
G02*
X66750250Y-132489000I-243750J0D01*
G01*
X65837750Y-132489000D01*
G75*
G02*
X65594000Y-132245250I0J243750D01*
G01*
X65594000Y-131757750D01*
G75*
G02*
X65837750Y-131514000I243750J0D01*
G01*
G37*
G36*
G01*
X86054250Y-136045000D02*
X85141750Y-136045000D01*
G75*
G02*
X84898000Y-135801250I0J243750D01*
G01*
X84898000Y-135313750D01*
G75*
G02*
X85141750Y-135070000I243750J0D01*
G01*
X86054250Y-135070000D01*
G75*
G02*
X86298000Y-135313750I0J-243750D01*
G01*
X86298000Y-135801250D01*
G75*
G02*
X86054250Y-136045000I-243750J0D01*
G01*
G37*
G36*
G01*
X86054250Y-134170000D02*
X85141750Y-134170000D01*
G75*
G02*
X84898000Y-133926250I0J243750D01*
G01*
X84898000Y-133438750D01*
G75*
G02*
X85141750Y-133195000I243750J0D01*
G01*
X86054250Y-133195000D01*
G75*
G02*
X86298000Y-133438750I0J-243750D01*
G01*
X86298000Y-133926250D01*
G75*
G02*
X86054250Y-134170000I-243750J0D01*
G01*
G37*
G36*
G01*
X60757750Y-102304000D02*
X61670250Y-102304000D01*
G75*
G02*
X61914000Y-102547750I0J-243750D01*
G01*
X61914000Y-103035250D01*
G75*
G02*
X61670250Y-103279000I-243750J0D01*
G01*
X60757750Y-103279000D01*
G75*
G02*
X60514000Y-103035250I0J243750D01*
G01*
X60514000Y-102547750D01*
G75*
G02*
X60757750Y-102304000I243750J0D01*
G01*
G37*
G36*
G01*
X60757750Y-100429000D02*
X61670250Y-100429000D01*
G75*
G02*
X61914000Y-100672750I0J-243750D01*
G01*
X61914000Y-101160250D01*
G75*
G02*
X61670250Y-101404000I-243750J0D01*
G01*
X60757750Y-101404000D01*
G75*
G02*
X60514000Y-101160250I0J243750D01*
G01*
X60514000Y-100672750D01*
G75*
G02*
X60757750Y-100429000I243750J0D01*
G01*
G37*
G36*
G01*
X125067000Y-92404250D02*
X125067000Y-91491750D01*
G75*
G02*
X125310750Y-91248000I243750J0D01*
G01*
X125798250Y-91248000D01*
G75*
G02*
X126042000Y-91491750I0J-243750D01*
G01*
X126042000Y-92404250D01*
G75*
G02*
X125798250Y-92648000I-243750J0D01*
G01*
X125310750Y-92648000D01*
G75*
G02*
X125067000Y-92404250I0J243750D01*
G01*
G37*
G36*
G01*
X126942000Y-92404250D02*
X126942000Y-91491750D01*
G75*
G02*
X127185750Y-91248000I243750J0D01*
G01*
X127673250Y-91248000D01*
G75*
G02*
X127917000Y-91491750I0J-243750D01*
G01*
X127917000Y-92404250D01*
G75*
G02*
X127673250Y-92648000I-243750J0D01*
G01*
X127185750Y-92648000D01*
G75*
G02*
X126942000Y-92404250I0J243750D01*
G01*
G37*
D15*
X133096000Y-67532000D03*
X133096000Y-63532000D03*
G36*
G01*
X76402250Y-137218000D02*
X75489750Y-137218000D01*
G75*
G02*
X75246000Y-136974250I0J243750D01*
G01*
X75246000Y-136486750D01*
G75*
G02*
X75489750Y-136243000I243750J0D01*
G01*
X76402250Y-136243000D01*
G75*
G02*
X76646000Y-136486750I0J-243750D01*
G01*
X76646000Y-136974250D01*
G75*
G02*
X76402250Y-137218000I-243750J0D01*
G01*
G37*
G36*
G01*
X76402250Y-139093000D02*
X75489750Y-139093000D01*
G75*
G02*
X75246000Y-138849250I0J243750D01*
G01*
X75246000Y-138361750D01*
G75*
G02*
X75489750Y-138118000I243750J0D01*
G01*
X76402250Y-138118000D01*
G75*
G02*
X76646000Y-138361750I0J-243750D01*
G01*
X76646000Y-138849250D01*
G75*
G02*
X76402250Y-139093000I-243750J0D01*
G01*
G37*
G36*
G01*
X62789750Y-103985000D02*
X63702250Y-103985000D01*
G75*
G02*
X63946000Y-104228750I0J-243750D01*
G01*
X63946000Y-104716250D01*
G75*
G02*
X63702250Y-104960000I-243750J0D01*
G01*
X62789750Y-104960000D01*
G75*
G02*
X62546000Y-104716250I0J243750D01*
G01*
X62546000Y-104228750D01*
G75*
G02*
X62789750Y-103985000I243750J0D01*
G01*
G37*
G36*
G01*
X62789750Y-105860000D02*
X63702250Y-105860000D01*
G75*
G02*
X63946000Y-106103750I0J-243750D01*
G01*
X63946000Y-106591250D01*
G75*
G02*
X63702250Y-106835000I-243750J0D01*
G01*
X62789750Y-106835000D01*
G75*
G02*
X62546000Y-106591250I0J243750D01*
G01*
X62546000Y-106103750D01*
G75*
G02*
X62789750Y-105860000I243750J0D01*
G01*
G37*
G36*
G01*
X86054250Y-137726000D02*
X85141750Y-137726000D01*
G75*
G02*
X84898000Y-137482250I0J243750D01*
G01*
X84898000Y-136994750D01*
G75*
G02*
X85141750Y-136751000I243750J0D01*
G01*
X86054250Y-136751000D01*
G75*
G02*
X86298000Y-136994750I0J-243750D01*
G01*
X86298000Y-137482250D01*
G75*
G02*
X86054250Y-137726000I-243750J0D01*
G01*
G37*
G36*
G01*
X86054250Y-139601000D02*
X85141750Y-139601000D01*
G75*
G02*
X84898000Y-139357250I0J243750D01*
G01*
X84898000Y-138869750D01*
G75*
G02*
X85141750Y-138626000I243750J0D01*
G01*
X86054250Y-138626000D01*
G75*
G02*
X86298000Y-138869750I0J-243750D01*
G01*
X86298000Y-139357250D01*
G75*
G02*
X86054250Y-139601000I-243750J0D01*
G01*
G37*
G36*
G01*
X79855000Y-119328250D02*
X79855000Y-118415750D01*
G75*
G02*
X80098750Y-118172000I243750J0D01*
G01*
X80586250Y-118172000D01*
G75*
G02*
X80830000Y-118415750I0J-243750D01*
G01*
X80830000Y-119328250D01*
G75*
G02*
X80586250Y-119572000I-243750J0D01*
G01*
X80098750Y-119572000D01*
G75*
G02*
X79855000Y-119328250I0J243750D01*
G01*
G37*
G36*
G01*
X81730000Y-119328250D02*
X81730000Y-118415750D01*
G75*
G02*
X81973750Y-118172000I243750J0D01*
G01*
X82461250Y-118172000D01*
G75*
G02*
X82705000Y-118415750I0J-243750D01*
G01*
X82705000Y-119328250D01*
G75*
G02*
X82461250Y-119572000I-243750J0D01*
G01*
X81973750Y-119572000D01*
G75*
G02*
X81730000Y-119328250I0J243750D01*
G01*
G37*
G36*
G01*
X81730000Y-121360250D02*
X81730000Y-120447750D01*
G75*
G02*
X81973750Y-120204000I243750J0D01*
G01*
X82461250Y-120204000D01*
G75*
G02*
X82705000Y-120447750I0J-243750D01*
G01*
X82705000Y-121360250D01*
G75*
G02*
X82461250Y-121604000I-243750J0D01*
G01*
X81973750Y-121604000D01*
G75*
G02*
X81730000Y-121360250I0J243750D01*
G01*
G37*
G36*
G01*
X79855000Y-121360250D02*
X79855000Y-120447750D01*
G75*
G02*
X80098750Y-120204000I243750J0D01*
G01*
X80586250Y-120204000D01*
G75*
G02*
X80830000Y-120447750I0J-243750D01*
G01*
X80830000Y-121360250D01*
G75*
G02*
X80586250Y-121604000I-243750J0D01*
G01*
X80098750Y-121604000D01*
G75*
G02*
X79855000Y-121360250I0J243750D01*
G01*
G37*
G36*
G01*
X79855000Y-123392250D02*
X79855000Y-122479750D01*
G75*
G02*
X80098750Y-122236000I243750J0D01*
G01*
X80586250Y-122236000D01*
G75*
G02*
X80830000Y-122479750I0J-243750D01*
G01*
X80830000Y-123392250D01*
G75*
G02*
X80586250Y-123636000I-243750J0D01*
G01*
X80098750Y-123636000D01*
G75*
G02*
X79855000Y-123392250I0J243750D01*
G01*
G37*
G36*
G01*
X81730000Y-123392250D02*
X81730000Y-122479750D01*
G75*
G02*
X81973750Y-122236000I243750J0D01*
G01*
X82461250Y-122236000D01*
G75*
G02*
X82705000Y-122479750I0J-243750D01*
G01*
X82705000Y-123392250D01*
G75*
G02*
X82461250Y-123636000I-243750J0D01*
G01*
X81973750Y-123636000D01*
G75*
G02*
X81730000Y-123392250I0J243750D01*
G01*
G37*
G36*
G01*
X75888000Y-119328250D02*
X75888000Y-118415750D01*
G75*
G02*
X76131750Y-118172000I243750J0D01*
G01*
X76619250Y-118172000D01*
G75*
G02*
X76863000Y-118415750I0J-243750D01*
G01*
X76863000Y-119328250D01*
G75*
G02*
X76619250Y-119572000I-243750J0D01*
G01*
X76131750Y-119572000D01*
G75*
G02*
X75888000Y-119328250I0J243750D01*
G01*
G37*
G36*
G01*
X74013000Y-119328250D02*
X74013000Y-118415750D01*
G75*
G02*
X74256750Y-118172000I243750J0D01*
G01*
X74744250Y-118172000D01*
G75*
G02*
X74988000Y-118415750I0J-243750D01*
G01*
X74988000Y-119328250D01*
G75*
G02*
X74744250Y-119572000I-243750J0D01*
G01*
X74256750Y-119572000D01*
G75*
G02*
X74013000Y-119328250I0J243750D01*
G01*
G37*
G36*
G01*
X79855000Y-125424250D02*
X79855000Y-124511750D01*
G75*
G02*
X80098750Y-124268000I243750J0D01*
G01*
X80586250Y-124268000D01*
G75*
G02*
X80830000Y-124511750I0J-243750D01*
G01*
X80830000Y-125424250D01*
G75*
G02*
X80586250Y-125668000I-243750J0D01*
G01*
X80098750Y-125668000D01*
G75*
G02*
X79855000Y-125424250I0J243750D01*
G01*
G37*
G36*
G01*
X81730000Y-125424250D02*
X81730000Y-124511750D01*
G75*
G02*
X81973750Y-124268000I243750J0D01*
G01*
X82461250Y-124268000D01*
G75*
G02*
X82705000Y-124511750I0J-243750D01*
G01*
X82705000Y-125424250D01*
G75*
G02*
X82461250Y-125668000I-243750J0D01*
G01*
X81973750Y-125668000D01*
G75*
G02*
X81730000Y-125424250I0J243750D01*
G01*
G37*
D27*
X115636000Y-102600000D03*
X117536000Y-102600000D03*
X116586000Y-100600000D03*
D24*
X134588000Y-91440000D03*
X130588000Y-91440000D03*
X122841000Y-98044000D03*
X126841000Y-98044000D03*
D15*
X129540000Y-67532000D03*
X129540000Y-63532000D03*
G36*
G01*
X135070000Y-97484250D02*
X135070000Y-96571750D01*
G75*
G02*
X135313750Y-96328000I243750J0D01*
G01*
X135801250Y-96328000D01*
G75*
G02*
X136045000Y-96571750I0J-243750D01*
G01*
X136045000Y-97484250D01*
G75*
G02*
X135801250Y-97728000I-243750J0D01*
G01*
X135313750Y-97728000D01*
G75*
G02*
X135070000Y-97484250I0J243750D01*
G01*
G37*
G36*
G01*
X133195000Y-97484250D02*
X133195000Y-96571750D01*
G75*
G02*
X133438750Y-96328000I243750J0D01*
G01*
X133926250Y-96328000D01*
G75*
G02*
X134170000Y-96571750I0J-243750D01*
G01*
X134170000Y-97484250D01*
G75*
G02*
X133926250Y-97728000I-243750J0D01*
G01*
X133438750Y-97728000D01*
G75*
G02*
X133195000Y-97484250I0J243750D01*
G01*
G37*
G36*
G01*
X119328250Y-116741000D02*
X118415750Y-116741000D01*
G75*
G02*
X118172000Y-116497250I0J243750D01*
G01*
X118172000Y-116009750D01*
G75*
G02*
X118415750Y-115766000I243750J0D01*
G01*
X119328250Y-115766000D01*
G75*
G02*
X119572000Y-116009750I0J-243750D01*
G01*
X119572000Y-116497250D01*
G75*
G02*
X119328250Y-116741000I-243750J0D01*
G01*
G37*
G36*
G01*
X119328250Y-114866000D02*
X118415750Y-114866000D01*
G75*
G02*
X118172000Y-114622250I0J243750D01*
G01*
X118172000Y-114134750D01*
G75*
G02*
X118415750Y-113891000I243750J0D01*
G01*
X119328250Y-113891000D01*
G75*
G02*
X119572000Y-114134750I0J-243750D01*
G01*
X119572000Y-114622250D01*
G75*
G02*
X119328250Y-114866000I-243750J0D01*
G01*
G37*
G36*
G01*
X114201000Y-131623750D02*
X114201000Y-132536250D01*
G75*
G02*
X113957250Y-132780000I-243750J0D01*
G01*
X113469750Y-132780000D01*
G75*
G02*
X113226000Y-132536250I0J243750D01*
G01*
X113226000Y-131623750D01*
G75*
G02*
X113469750Y-131380000I243750J0D01*
G01*
X113957250Y-131380000D01*
G75*
G02*
X114201000Y-131623750I0J-243750D01*
G01*
G37*
G36*
G01*
X112326000Y-131623750D02*
X112326000Y-132536250D01*
G75*
G02*
X112082250Y-132780000I-243750J0D01*
G01*
X111594750Y-132780000D01*
G75*
G02*
X111351000Y-132536250I0J243750D01*
G01*
X111351000Y-131623750D01*
G75*
G02*
X111594750Y-131380000I243750J0D01*
G01*
X112082250Y-131380000D01*
G75*
G02*
X112326000Y-131623750I0J-243750D01*
G01*
G37*
G36*
G01*
X139243750Y-103731000D02*
X140156250Y-103731000D01*
G75*
G02*
X140400000Y-103974750I0J-243750D01*
G01*
X140400000Y-104462250D01*
G75*
G02*
X140156250Y-104706000I-243750J0D01*
G01*
X139243750Y-104706000D01*
G75*
G02*
X139000000Y-104462250I0J243750D01*
G01*
X139000000Y-103974750D01*
G75*
G02*
X139243750Y-103731000I243750J0D01*
G01*
G37*
G36*
G01*
X139243750Y-105606000D02*
X140156250Y-105606000D01*
G75*
G02*
X140400000Y-105849750I0J-243750D01*
G01*
X140400000Y-106337250D01*
G75*
G02*
X140156250Y-106581000I-243750J0D01*
G01*
X139243750Y-106581000D01*
G75*
G02*
X139000000Y-106337250I0J243750D01*
G01*
X139000000Y-105849750D01*
G75*
G02*
X139243750Y-105606000I243750J0D01*
G01*
G37*
G36*
G01*
X132765500Y-108152250D02*
X132765500Y-107239750D01*
G75*
G02*
X133009250Y-106996000I243750J0D01*
G01*
X133496750Y-106996000D01*
G75*
G02*
X133740500Y-107239750I0J-243750D01*
G01*
X133740500Y-108152250D01*
G75*
G02*
X133496750Y-108396000I-243750J0D01*
G01*
X133009250Y-108396000D01*
G75*
G02*
X132765500Y-108152250I0J243750D01*
G01*
G37*
G36*
G01*
X134640500Y-108152250D02*
X134640500Y-107239750D01*
G75*
G02*
X134884250Y-106996000I243750J0D01*
G01*
X135371750Y-106996000D01*
G75*
G02*
X135615500Y-107239750I0J-243750D01*
G01*
X135615500Y-108152250D01*
G75*
G02*
X135371750Y-108396000I-243750J0D01*
G01*
X134884250Y-108396000D01*
G75*
G02*
X134640500Y-108152250I0J243750D01*
G01*
G37*
G36*
G01*
X121511000Y-110692250D02*
X121511000Y-109779750D01*
G75*
G02*
X121754750Y-109536000I243750J0D01*
G01*
X122242250Y-109536000D01*
G75*
G02*
X122486000Y-109779750I0J-243750D01*
G01*
X122486000Y-110692250D01*
G75*
G02*
X122242250Y-110936000I-243750J0D01*
G01*
X121754750Y-110936000D01*
G75*
G02*
X121511000Y-110692250I0J243750D01*
G01*
G37*
G36*
G01*
X123386000Y-110692250D02*
X123386000Y-109779750D01*
G75*
G02*
X123629750Y-109536000I243750J0D01*
G01*
X124117250Y-109536000D01*
G75*
G02*
X124361000Y-109779750I0J-243750D01*
G01*
X124361000Y-110692250D01*
G75*
G02*
X124117250Y-110936000I-243750J0D01*
G01*
X123629750Y-110936000D01*
G75*
G02*
X123386000Y-110692250I0J243750D01*
G01*
G37*
G36*
G01*
X128472250Y-117914000D02*
X127559750Y-117914000D01*
G75*
G02*
X127316000Y-117670250I0J243750D01*
G01*
X127316000Y-117182750D01*
G75*
G02*
X127559750Y-116939000I243750J0D01*
G01*
X128472250Y-116939000D01*
G75*
G02*
X128716000Y-117182750I0J-243750D01*
G01*
X128716000Y-117670250D01*
G75*
G02*
X128472250Y-117914000I-243750J0D01*
G01*
G37*
G36*
G01*
X128472250Y-119789000D02*
X127559750Y-119789000D01*
G75*
G02*
X127316000Y-119545250I0J243750D01*
G01*
X127316000Y-119057750D01*
G75*
G02*
X127559750Y-118814000I243750J0D01*
G01*
X128472250Y-118814000D01*
G75*
G02*
X128716000Y-119057750I0J-243750D01*
G01*
X128716000Y-119545250D01*
G75*
G02*
X128472250Y-119789000I-243750J0D01*
G01*
G37*
G36*
G01*
X129337750Y-133038000D02*
X130250250Y-133038000D01*
G75*
G02*
X130494000Y-133281750I0J-243750D01*
G01*
X130494000Y-133769250D01*
G75*
G02*
X130250250Y-134013000I-243750J0D01*
G01*
X129337750Y-134013000D01*
G75*
G02*
X129094000Y-133769250I0J243750D01*
G01*
X129094000Y-133281750D01*
G75*
G02*
X129337750Y-133038000I243750J0D01*
G01*
G37*
G36*
G01*
X129337750Y-131163000D02*
X130250250Y-131163000D01*
G75*
G02*
X130494000Y-131406750I0J-243750D01*
G01*
X130494000Y-131894250D01*
G75*
G02*
X130250250Y-132138000I-243750J0D01*
G01*
X129337750Y-132138000D01*
G75*
G02*
X129094000Y-131894250I0J243750D01*
G01*
X129094000Y-131406750D01*
G75*
G02*
X129337750Y-131163000I243750J0D01*
G01*
G37*
G36*
G01*
X131369750Y-131163000D02*
X132282250Y-131163000D01*
G75*
G02*
X132526000Y-131406750I0J-243750D01*
G01*
X132526000Y-131894250D01*
G75*
G02*
X132282250Y-132138000I-243750J0D01*
G01*
X131369750Y-132138000D01*
G75*
G02*
X131126000Y-131894250I0J243750D01*
G01*
X131126000Y-131406750D01*
G75*
G02*
X131369750Y-131163000I243750J0D01*
G01*
G37*
G36*
G01*
X131369750Y-133038000D02*
X132282250Y-133038000D01*
G75*
G02*
X132526000Y-133281750I0J-243750D01*
G01*
X132526000Y-133769250D01*
G75*
G02*
X132282250Y-134013000I-243750J0D01*
G01*
X131369750Y-134013000D01*
G75*
G02*
X131126000Y-133769250I0J243750D01*
G01*
X131126000Y-133281750D01*
G75*
G02*
X131369750Y-133038000I243750J0D01*
G01*
G37*
G36*
G01*
X93166250Y-116741000D02*
X92253750Y-116741000D01*
G75*
G02*
X92010000Y-116497250I0J243750D01*
G01*
X92010000Y-116009750D01*
G75*
G02*
X92253750Y-115766000I243750J0D01*
G01*
X93166250Y-115766000D01*
G75*
G02*
X93410000Y-116009750I0J-243750D01*
G01*
X93410000Y-116497250D01*
G75*
G02*
X93166250Y-116741000I-243750J0D01*
G01*
G37*
G36*
G01*
X93166250Y-114866000D02*
X92253750Y-114866000D01*
G75*
G02*
X92010000Y-114622250I0J243750D01*
G01*
X92010000Y-114134750D01*
G75*
G02*
X92253750Y-113891000I243750J0D01*
G01*
X93166250Y-113891000D01*
G75*
G02*
X93410000Y-114134750I0J-243750D01*
G01*
X93410000Y-114622250D01*
G75*
G02*
X93166250Y-114866000I-243750J0D01*
G01*
G37*
G36*
G01*
X85038250Y-128582000D02*
X84125750Y-128582000D01*
G75*
G02*
X83882000Y-128338250I0J243750D01*
G01*
X83882000Y-127850750D01*
G75*
G02*
X84125750Y-127607000I243750J0D01*
G01*
X85038250Y-127607000D01*
G75*
G02*
X85282000Y-127850750I0J-243750D01*
G01*
X85282000Y-128338250D01*
G75*
G02*
X85038250Y-128582000I-243750J0D01*
G01*
G37*
G36*
G01*
X85038250Y-130457000D02*
X84125750Y-130457000D01*
G75*
G02*
X83882000Y-130213250I0J243750D01*
G01*
X83882000Y-129725750D01*
G75*
G02*
X84125750Y-129482000I243750J0D01*
G01*
X85038250Y-129482000D01*
G75*
G02*
X85282000Y-129725750I0J-243750D01*
G01*
X85282000Y-130213250D01*
G75*
G02*
X85038250Y-130457000I-243750J0D01*
G01*
G37*
G36*
G01*
X85038250Y-116741000D02*
X84125750Y-116741000D01*
G75*
G02*
X83882000Y-116497250I0J243750D01*
G01*
X83882000Y-116009750D01*
G75*
G02*
X84125750Y-115766000I243750J0D01*
G01*
X85038250Y-115766000D01*
G75*
G02*
X85282000Y-116009750I0J-243750D01*
G01*
X85282000Y-116497250D01*
G75*
G02*
X85038250Y-116741000I-243750J0D01*
G01*
G37*
G36*
G01*
X85038250Y-114866000D02*
X84125750Y-114866000D01*
G75*
G02*
X83882000Y-114622250I0J243750D01*
G01*
X83882000Y-114134750D01*
G75*
G02*
X84125750Y-113891000I243750J0D01*
G01*
X85038250Y-113891000D01*
G75*
G02*
X85282000Y-114134750I0J-243750D01*
G01*
X85282000Y-114622250D01*
G75*
G02*
X85038250Y-114866000I-243750J0D01*
G01*
G37*
G36*
G01*
X87070250Y-116741000D02*
X86157750Y-116741000D01*
G75*
G02*
X85914000Y-116497250I0J243750D01*
G01*
X85914000Y-116009750D01*
G75*
G02*
X86157750Y-115766000I243750J0D01*
G01*
X87070250Y-115766000D01*
G75*
G02*
X87314000Y-116009750I0J-243750D01*
G01*
X87314000Y-116497250D01*
G75*
G02*
X87070250Y-116741000I-243750J0D01*
G01*
G37*
G36*
G01*
X87070250Y-114866000D02*
X86157750Y-114866000D01*
G75*
G02*
X85914000Y-114622250I0J243750D01*
G01*
X85914000Y-114134750D01*
G75*
G02*
X86157750Y-113891000I243750J0D01*
G01*
X87070250Y-113891000D01*
G75*
G02*
X87314000Y-114134750I0J-243750D01*
G01*
X87314000Y-114622250D01*
G75*
G02*
X87070250Y-114866000I-243750J0D01*
G01*
G37*
D28*
X105007800Y-130937000D03*
X108707800Y-130937000D03*
D29*
X131412000Y-105156000D03*
X131412000Y-103886000D03*
X131412000Y-102616000D03*
X131412000Y-101346000D03*
X136812000Y-101346000D03*
X136812000Y-102616000D03*
X136812000Y-103886000D03*
X136812000Y-105156000D03*
D30*
X134112000Y-103251000D03*
D31*
X135128000Y-118466000D03*
D32*
X135128000Y-112166000D03*
X132828000Y-112166000D03*
X137428000Y-112166000D03*
G36*
G01*
X133195000Y-95452250D02*
X133195000Y-94539750D01*
G75*
G02*
X133438750Y-94296000I243750J0D01*
G01*
X133926250Y-94296000D01*
G75*
G02*
X134170000Y-94539750I0J-243750D01*
G01*
X134170000Y-95452250D01*
G75*
G02*
X133926250Y-95696000I-243750J0D01*
G01*
X133438750Y-95696000D01*
G75*
G02*
X133195000Y-95452250I0J243750D01*
G01*
G37*
G36*
G01*
X135070000Y-95452250D02*
X135070000Y-94539750D01*
G75*
G02*
X135313750Y-94296000I243750J0D01*
G01*
X135801250Y-94296000D01*
G75*
G02*
X136045000Y-94539750I0J-243750D01*
G01*
X136045000Y-95452250D01*
G75*
G02*
X135801250Y-95696000I-243750J0D01*
G01*
X135313750Y-95696000D01*
G75*
G02*
X135070000Y-95452250I0J243750D01*
G01*
G37*
G36*
G01*
X136751000Y-97484250D02*
X136751000Y-96571750D01*
G75*
G02*
X136994750Y-96328000I243750J0D01*
G01*
X137482250Y-96328000D01*
G75*
G02*
X137726000Y-96571750I0J-243750D01*
G01*
X137726000Y-97484250D01*
G75*
G02*
X137482250Y-97728000I-243750J0D01*
G01*
X136994750Y-97728000D01*
G75*
G02*
X136751000Y-97484250I0J243750D01*
G01*
G37*
G36*
G01*
X138626000Y-97484250D02*
X138626000Y-96571750D01*
G75*
G02*
X138869750Y-96328000I243750J0D01*
G01*
X139357250Y-96328000D01*
G75*
G02*
X139601000Y-96571750I0J-243750D01*
G01*
X139601000Y-97484250D01*
G75*
G02*
X139357250Y-97728000I-243750J0D01*
G01*
X138869750Y-97728000D01*
G75*
G02*
X138626000Y-97484250I0J243750D01*
G01*
G37*
G36*
G01*
X137726000Y-98603750D02*
X137726000Y-99516250D01*
G75*
G02*
X137482250Y-99760000I-243750J0D01*
G01*
X136994750Y-99760000D01*
G75*
G02*
X136751000Y-99516250I0J243750D01*
G01*
X136751000Y-98603750D01*
G75*
G02*
X136994750Y-98360000I243750J0D01*
G01*
X137482250Y-98360000D01*
G75*
G02*
X137726000Y-98603750I0J-243750D01*
G01*
G37*
G36*
G01*
X139601000Y-98603750D02*
X139601000Y-99516250D01*
G75*
G02*
X139357250Y-99760000I-243750J0D01*
G01*
X138869750Y-99760000D01*
G75*
G02*
X138626000Y-99516250I0J243750D01*
G01*
X138626000Y-98603750D01*
G75*
G02*
X138869750Y-98360000I243750J0D01*
G01*
X139357250Y-98360000D01*
G75*
G02*
X139601000Y-98603750I0J-243750D01*
G01*
G37*
G36*
G01*
X131514000Y-97484250D02*
X131514000Y-96571750D01*
G75*
G02*
X131757750Y-96328000I243750J0D01*
G01*
X132245250Y-96328000D01*
G75*
G02*
X132489000Y-96571750I0J-243750D01*
G01*
X132489000Y-97484250D01*
G75*
G02*
X132245250Y-97728000I-243750J0D01*
G01*
X131757750Y-97728000D01*
G75*
G02*
X131514000Y-97484250I0J243750D01*
G01*
G37*
G36*
G01*
X129639000Y-97484250D02*
X129639000Y-96571750D01*
G75*
G02*
X129882750Y-96328000I243750J0D01*
G01*
X130370250Y-96328000D01*
G75*
G02*
X130614000Y-96571750I0J-243750D01*
G01*
X130614000Y-97484250D01*
G75*
G02*
X130370250Y-97728000I-243750J0D01*
G01*
X129882750Y-97728000D01*
G75*
G02*
X129639000Y-97484250I0J243750D01*
G01*
G37*
G36*
G01*
X129639000Y-95452250D02*
X129639000Y-94539750D01*
G75*
G02*
X129882750Y-94296000I243750J0D01*
G01*
X130370250Y-94296000D01*
G75*
G02*
X130614000Y-94539750I0J-243750D01*
G01*
X130614000Y-95452250D01*
G75*
G02*
X130370250Y-95696000I-243750J0D01*
G01*
X129882750Y-95696000D01*
G75*
G02*
X129639000Y-95452250I0J243750D01*
G01*
G37*
G36*
G01*
X131514000Y-95452250D02*
X131514000Y-94539750D01*
G75*
G02*
X131757750Y-94296000I243750J0D01*
G01*
X132245250Y-94296000D01*
G75*
G02*
X132489000Y-94539750I0J-243750D01*
G01*
X132489000Y-95452250D01*
G75*
G02*
X132245250Y-95696000I-243750J0D01*
G01*
X131757750Y-95696000D01*
G75*
G02*
X131514000Y-95452250I0J243750D01*
G01*
G37*
G36*
G01*
X130504250Y-119789000D02*
X129591750Y-119789000D01*
G75*
G02*
X129348000Y-119545250I0J243750D01*
G01*
X129348000Y-119057750D01*
G75*
G02*
X129591750Y-118814000I243750J0D01*
G01*
X130504250Y-118814000D01*
G75*
G02*
X130748000Y-119057750I0J-243750D01*
G01*
X130748000Y-119545250D01*
G75*
G02*
X130504250Y-119789000I-243750J0D01*
G01*
G37*
G36*
G01*
X130504250Y-117914000D02*
X129591750Y-117914000D01*
G75*
G02*
X129348000Y-117670250I0J243750D01*
G01*
X129348000Y-117182750D01*
G75*
G02*
X129591750Y-116939000I243750J0D01*
G01*
X130504250Y-116939000D01*
G75*
G02*
X130748000Y-117182750I0J-243750D01*
G01*
X130748000Y-117670250D01*
G75*
G02*
X130504250Y-117914000I-243750J0D01*
G01*
G37*
G36*
G01*
X134314250Y-132138000D02*
X133401750Y-132138000D01*
G75*
G02*
X133158000Y-131894250I0J243750D01*
G01*
X133158000Y-131406750D01*
G75*
G02*
X133401750Y-131163000I243750J0D01*
G01*
X134314250Y-131163000D01*
G75*
G02*
X134558000Y-131406750I0J-243750D01*
G01*
X134558000Y-131894250D01*
G75*
G02*
X134314250Y-132138000I-243750J0D01*
G01*
G37*
G36*
G01*
X134314250Y-134013000D02*
X133401750Y-134013000D01*
G75*
G02*
X133158000Y-133769250I0J243750D01*
G01*
X133158000Y-133281750D01*
G75*
G02*
X133401750Y-133038000I243750J0D01*
G01*
X134314250Y-133038000D01*
G75*
G02*
X134558000Y-133281750I0J-243750D01*
G01*
X134558000Y-133769250D01*
G75*
G02*
X134314250Y-134013000I-243750J0D01*
G01*
G37*
G36*
G01*
X85951000Y-112978250D02*
X85951000Y-112065750D01*
G75*
G02*
X86194750Y-111822000I243750J0D01*
G01*
X86682250Y-111822000D01*
G75*
G02*
X86926000Y-112065750I0J-243750D01*
G01*
X86926000Y-112978250D01*
G75*
G02*
X86682250Y-113222000I-243750J0D01*
G01*
X86194750Y-113222000D01*
G75*
G02*
X85951000Y-112978250I0J243750D01*
G01*
G37*
G36*
G01*
X87826000Y-112978250D02*
X87826000Y-112065750D01*
G75*
G02*
X88069750Y-111822000I243750J0D01*
G01*
X88557250Y-111822000D01*
G75*
G02*
X88801000Y-112065750I0J-243750D01*
G01*
X88801000Y-112978250D01*
G75*
G02*
X88557250Y-113222000I-243750J0D01*
G01*
X88069750Y-113222000D01*
G75*
G02*
X87826000Y-112978250I0J243750D01*
G01*
G37*
G36*
G01*
X78029750Y-129482000D02*
X78942250Y-129482000D01*
G75*
G02*
X79186000Y-129725750I0J-243750D01*
G01*
X79186000Y-130213250D01*
G75*
G02*
X78942250Y-130457000I-243750J0D01*
G01*
X78029750Y-130457000D01*
G75*
G02*
X77786000Y-130213250I0J243750D01*
G01*
X77786000Y-129725750D01*
G75*
G02*
X78029750Y-129482000I243750J0D01*
G01*
G37*
G36*
G01*
X78029750Y-127607000D02*
X78942250Y-127607000D01*
G75*
G02*
X79186000Y-127850750I0J-243750D01*
G01*
X79186000Y-128338250D01*
G75*
G02*
X78942250Y-128582000I-243750J0D01*
G01*
X78029750Y-128582000D01*
G75*
G02*
X77786000Y-128338250I0J243750D01*
G01*
X77786000Y-127850750D01*
G75*
G02*
X78029750Y-127607000I243750J0D01*
G01*
G37*
G36*
G01*
X91237750Y-126845000D02*
X92150250Y-126845000D01*
G75*
G02*
X92394000Y-127088750I0J-243750D01*
G01*
X92394000Y-127576250D01*
G75*
G02*
X92150250Y-127820000I-243750J0D01*
G01*
X91237750Y-127820000D01*
G75*
G02*
X90994000Y-127576250I0J243750D01*
G01*
X90994000Y-127088750D01*
G75*
G02*
X91237750Y-126845000I243750J0D01*
G01*
G37*
G36*
G01*
X91237750Y-128720000D02*
X92150250Y-128720000D01*
G75*
G02*
X92394000Y-128963750I0J-243750D01*
G01*
X92394000Y-129451250D01*
G75*
G02*
X92150250Y-129695000I-243750J0D01*
G01*
X91237750Y-129695000D01*
G75*
G02*
X90994000Y-129451250I0J243750D01*
G01*
X90994000Y-128963750D01*
G75*
G02*
X91237750Y-128720000I243750J0D01*
G01*
G37*
G36*
G01*
X116026250Y-104706000D02*
X115113750Y-104706000D01*
G75*
G02*
X114870000Y-104462250I0J243750D01*
G01*
X114870000Y-103974750D01*
G75*
G02*
X115113750Y-103731000I243750J0D01*
G01*
X116026250Y-103731000D01*
G75*
G02*
X116270000Y-103974750I0J-243750D01*
G01*
X116270000Y-104462250D01*
G75*
G02*
X116026250Y-104706000I-243750J0D01*
G01*
G37*
G36*
G01*
X116026250Y-106581000D02*
X115113750Y-106581000D01*
G75*
G02*
X114870000Y-106337250I0J243750D01*
G01*
X114870000Y-105849750D01*
G75*
G02*
X115113750Y-105606000I243750J0D01*
G01*
X116026250Y-105606000D01*
G75*
G02*
X116270000Y-105849750I0J-243750D01*
G01*
X116270000Y-106337250D01*
G75*
G02*
X116026250Y-106581000I-243750J0D01*
G01*
G37*
G36*
G01*
X105606000Y-138632250D02*
X105606000Y-137719750D01*
G75*
G02*
X105849750Y-137476000I243750J0D01*
G01*
X106337250Y-137476000D01*
G75*
G02*
X106581000Y-137719750I0J-243750D01*
G01*
X106581000Y-138632250D01*
G75*
G02*
X106337250Y-138876000I-243750J0D01*
G01*
X105849750Y-138876000D01*
G75*
G02*
X105606000Y-138632250I0J243750D01*
G01*
G37*
G36*
G01*
X103731000Y-138632250D02*
X103731000Y-137719750D01*
G75*
G02*
X103974750Y-137476000I243750J0D01*
G01*
X104462250Y-137476000D01*
G75*
G02*
X104706000Y-137719750I0J-243750D01*
G01*
X104706000Y-138632250D01*
G75*
G02*
X104462250Y-138876000I-243750J0D01*
G01*
X103974750Y-138876000D01*
G75*
G02*
X103731000Y-138632250I0J243750D01*
G01*
G37*
G36*
G01*
X118058250Y-104706000D02*
X117145750Y-104706000D01*
G75*
G02*
X116902000Y-104462250I0J243750D01*
G01*
X116902000Y-103974750D01*
G75*
G02*
X117145750Y-103731000I243750J0D01*
G01*
X118058250Y-103731000D01*
G75*
G02*
X118302000Y-103974750I0J-243750D01*
G01*
X118302000Y-104462250D01*
G75*
G02*
X118058250Y-104706000I-243750J0D01*
G01*
G37*
G36*
G01*
X118058250Y-106581000D02*
X117145750Y-106581000D01*
G75*
G02*
X116902000Y-106337250I0J243750D01*
G01*
X116902000Y-105849750D01*
G75*
G02*
X117145750Y-105606000I243750J0D01*
G01*
X118058250Y-105606000D01*
G75*
G02*
X118302000Y-105849750I0J-243750D01*
G01*
X118302000Y-106337250D01*
G75*
G02*
X118058250Y-106581000I-243750J0D01*
G01*
G37*
G36*
G01*
X113740250Y-97340000D02*
X112827750Y-97340000D01*
G75*
G02*
X112584000Y-97096250I0J243750D01*
G01*
X112584000Y-96608750D01*
G75*
G02*
X112827750Y-96365000I243750J0D01*
G01*
X113740250Y-96365000D01*
G75*
G02*
X113984000Y-96608750I0J-243750D01*
G01*
X113984000Y-97096250D01*
G75*
G02*
X113740250Y-97340000I-243750J0D01*
G01*
G37*
G36*
G01*
X113740250Y-99215000D02*
X112827750Y-99215000D01*
G75*
G02*
X112584000Y-98971250I0J243750D01*
G01*
X112584000Y-98483750D01*
G75*
G02*
X112827750Y-98240000I243750J0D01*
G01*
X113740250Y-98240000D01*
G75*
G02*
X113984000Y-98483750I0J-243750D01*
G01*
X113984000Y-98971250D01*
G75*
G02*
X113740250Y-99215000I-243750J0D01*
G01*
G37*
G36*
G01*
X115772250Y-97340000D02*
X114859750Y-97340000D01*
G75*
G02*
X114616000Y-97096250I0J243750D01*
G01*
X114616000Y-96608750D01*
G75*
G02*
X114859750Y-96365000I243750J0D01*
G01*
X115772250Y-96365000D01*
G75*
G02*
X116016000Y-96608750I0J-243750D01*
G01*
X116016000Y-97096250D01*
G75*
G02*
X115772250Y-97340000I-243750J0D01*
G01*
G37*
G36*
G01*
X115772250Y-99215000D02*
X114859750Y-99215000D01*
G75*
G02*
X114616000Y-98971250I0J243750D01*
G01*
X114616000Y-98483750D01*
G75*
G02*
X114859750Y-98240000I243750J0D01*
G01*
X115772250Y-98240000D01*
G75*
G02*
X116016000Y-98483750I0J-243750D01*
G01*
X116016000Y-98971250D01*
G75*
G02*
X115772250Y-99215000I-243750J0D01*
G01*
G37*
G36*
G01*
X117550250Y-111915000D02*
X116637750Y-111915000D01*
G75*
G02*
X116394000Y-111671250I0J243750D01*
G01*
X116394000Y-111183750D01*
G75*
G02*
X116637750Y-110940000I243750J0D01*
G01*
X117550250Y-110940000D01*
G75*
G02*
X117794000Y-111183750I0J-243750D01*
G01*
X117794000Y-111671250D01*
G75*
G02*
X117550250Y-111915000I-243750J0D01*
G01*
G37*
G36*
G01*
X117550250Y-110040000D02*
X116637750Y-110040000D01*
G75*
G02*
X116394000Y-109796250I0J243750D01*
G01*
X116394000Y-109308750D01*
G75*
G02*
X116637750Y-109065000I243750J0D01*
G01*
X117550250Y-109065000D01*
G75*
G02*
X117794000Y-109308750I0J-243750D01*
G01*
X117794000Y-109796250D01*
G75*
G02*
X117550250Y-110040000I-243750J0D01*
G01*
G37*
M02*
