G04 #@! TF.GenerationSoftware,KiCad,Pcbnew,5.0.2+dfsg1-1*
G04 #@! TF.CreationDate,2021-02-28T17:02:00+08:00*
G04 #@! TF.ProjectId,digital-amplifier2,64696769-7461-46c2-9d61-6d706c696669,rev?*
G04 #@! TF.SameCoordinates,Original*
G04 #@! TF.FileFunction,Legend,Top*
G04 #@! TF.FilePolarity,Positive*
%FSLAX46Y46*%
G04 Gerber Fmt 4.6, Leading zero omitted, Abs format (unit mm)*
G04 Created by KiCad (PCBNEW 5.0.2+dfsg1-1) date 2021年02月28日 星期日 17时02分00秒*
%MOMM*%
%LPD*%
G01*
G04 APERTURE LIST*
%ADD10C,0.200000*%
%ADD11C,0.150000*%
%ADD12C,0.152400*%
%ADD13C,0.120000*%
G04 APERTURE END LIST*
D10*
X52000000Y-50000000D02*
X52000000Y-150000000D01*
X142000000Y-50000000D02*
X142000000Y-150000000D01*
D11*
G04 #@! TO.C,J5*
X56388000Y-50210720D02*
X56390540Y-50208180D01*
X68237100Y-50208180D02*
X56390540Y-50208180D01*
X68237100Y-61965840D02*
X68237100Y-50208180D01*
X56380380Y-61965840D02*
X68237100Y-61965840D01*
X56380380Y-50203100D02*
X56380380Y-61965840D01*
D12*
G04 #@! TO.C,U9*
X79184500Y-120479299D02*
X79184500Y-120733299D01*
X78803500Y-120479299D02*
X79184500Y-120479299D01*
X78803500Y-120733299D02*
X78803500Y-120479299D01*
X79184500Y-120733299D02*
X78803500Y-120733299D01*
X67754500Y-108628701D02*
X67754500Y-108374701D01*
X67373500Y-108628701D02*
X67754500Y-108628701D01*
X67373500Y-108374701D02*
X67373500Y-108628701D01*
X67754500Y-108374701D02*
X67373500Y-108374701D01*
X79605740Y-118478300D02*
X79883000Y-118478300D01*
X66952260Y-110629700D02*
X66675000Y-110629700D01*
X79883000Y-110629700D02*
X79605740Y-110629700D01*
X79883000Y-118478300D02*
X79883000Y-110629700D01*
X66675000Y-118478300D02*
X66952260Y-118478300D01*
X66675000Y-110629700D02*
X66675000Y-118478300D01*
G04 #@! TO.C,U5*
X102594999Y-114375311D02*
X102594999Y-113994311D01*
X102848999Y-114375311D02*
X102594999Y-114375311D01*
X102848999Y-113994311D02*
X102848999Y-114375311D01*
X102594999Y-113994311D02*
X102848999Y-113994311D01*
X99381501Y-118088999D02*
X99381501Y-118342999D01*
X99000500Y-118088999D02*
X99381501Y-118088999D01*
X99000500Y-118342999D02*
X99000500Y-118088999D01*
X99381501Y-118342999D02*
X99000500Y-118342999D01*
X96287001Y-113875185D02*
X96287001Y-113494185D01*
X96033001Y-113875185D02*
X96287001Y-113875185D01*
X96033001Y-113494185D02*
X96033001Y-113875185D01*
X96287001Y-113494185D02*
X96033001Y-113494185D01*
X102397001Y-112716566D02*
X102397001Y-111978999D01*
X101658992Y-117891001D02*
X102397001Y-117891001D01*
X96484999Y-117153434D02*
X96484999Y-117891001D01*
X97223008Y-111978999D02*
X96484999Y-111978999D01*
X102397001Y-111978999D02*
X101658992Y-111978999D01*
X102397001Y-117891001D02*
X102397001Y-117153434D01*
X96484999Y-117891001D02*
X97223008Y-117891001D01*
X96484999Y-111978999D02*
X96484999Y-112716566D01*
D13*
G04 #@! TO.C,C2*
X98674422Y-108533000D02*
X99191578Y-108533000D01*
X98674422Y-107113000D02*
X99191578Y-107113000D01*
G04 #@! TO.C,J7*
X73324000Y-149631000D02*
X73324000Y-158481000D01*
X62084000Y-158481000D02*
X73324000Y-158481000D01*
X62084000Y-149631000D02*
X62084000Y-158481000D01*
X63234000Y-125391000D02*
X63234000Y-128391000D01*
X58484000Y-149631000D02*
X62084000Y-149631000D01*
X76924000Y-149631000D02*
X76924000Y-146511000D01*
X58484000Y-149631000D02*
X58484000Y-146511000D01*
X58484000Y-131111000D02*
X58484000Y-128391000D01*
X58484000Y-137461000D02*
X58484000Y-133861000D01*
X58484000Y-143761000D02*
X58484000Y-140161000D01*
X76924000Y-140161000D02*
X76924000Y-143761000D01*
X76924000Y-133861000D02*
X76924000Y-137461000D01*
X76924000Y-128391000D02*
X76924000Y-131111000D01*
X58484000Y-128391000D02*
X63234000Y-128391000D01*
X63274000Y-125391000D02*
X72174000Y-125391000D01*
X72174000Y-125391000D02*
X72174000Y-128391000D01*
X72174000Y-128391000D02*
X76924000Y-128391000D01*
X73324000Y-149631000D02*
X76924000Y-149631000D01*
G04 #@! TO.C,J3*
X130735000Y-60869000D02*
X129235000Y-60869000D01*
X129235000Y-60869000D02*
X129235000Y-53609000D01*
X138735000Y-60869000D02*
X138735000Y-53609000D01*
X138735000Y-60869000D02*
X137235000Y-60869000D01*
G04 #@! TO.C,C19*
X98674422Y-110565000D02*
X99191578Y-110565000D01*
X98674422Y-109145000D02*
X99191578Y-109145000D01*
G04 #@! TO.C,C25*
X95429000Y-120527578D02*
X95429000Y-120010422D01*
X96849000Y-120527578D02*
X96849000Y-120010422D01*
G04 #@! TO.C,C30*
X89079000Y-122169422D02*
X89079000Y-122686578D01*
X90499000Y-122169422D02*
X90499000Y-122686578D01*
G04 #@! TO.C,C31*
X94817000Y-120010422D02*
X94817000Y-120527578D01*
X93397000Y-120010422D02*
X93397000Y-120527578D01*
G04 #@! TO.C,C32*
X95118422Y-108533000D02*
X95635578Y-108533000D01*
X95118422Y-107113000D02*
X95635578Y-107113000D01*
G04 #@! TO.C,C22*
X102747578Y-110565000D02*
X102230422Y-110565000D01*
X102747578Y-109145000D02*
X102230422Y-109145000D01*
G04 #@! TO.C,C44*
X74671422Y-121845000D02*
X75188578Y-121845000D01*
X74671422Y-123265000D02*
X75188578Y-123265000D01*
G04 #@! TO.C,C43*
X72846000Y-73029578D02*
X72846000Y-72512422D01*
X71426000Y-73029578D02*
X71426000Y-72512422D01*
G04 #@! TO.C,C42*
X80570000Y-72521578D02*
X80570000Y-72004422D01*
X81990000Y-72521578D02*
X81990000Y-72004422D01*
G04 #@! TO.C,C51*
X78617578Y-98500000D02*
X78100422Y-98500000D01*
X78617578Y-97080000D02*
X78100422Y-97080000D01*
G04 #@! TO.C,C52*
X73918578Y-97080000D02*
X73401422Y-97080000D01*
X73918578Y-98500000D02*
X73401422Y-98500000D01*
G04 #@! TO.C,C53*
X78744578Y-123265000D02*
X78227422Y-123265000D01*
X78744578Y-121845000D02*
X78227422Y-121845000D01*
G04 #@! TO.C,C54*
X92324422Y-99643000D02*
X92841578Y-99643000D01*
X92324422Y-98223000D02*
X92841578Y-98223000D01*
G04 #@! TO.C,C55*
X59186578Y-100278000D02*
X58669422Y-100278000D01*
X59186578Y-98858000D02*
X58669422Y-98858000D01*
G04 #@! TO.C,C56*
X94111578Y-100636000D02*
X93594422Y-100636000D01*
X94111578Y-102056000D02*
X93594422Y-102056000D01*
G04 #@! TO.C,C57*
X62606422Y-98858000D02*
X63123578Y-98858000D01*
X62606422Y-100278000D02*
X63123578Y-100278000D01*
G04 #@! TO.C,C58*
X87047000Y-112136422D02*
X87047000Y-112653578D01*
X88467000Y-112136422D02*
X88467000Y-112653578D01*
G04 #@! TO.C,C59*
X87047000Y-116971578D02*
X87047000Y-116454422D01*
X88467000Y-116971578D02*
X88467000Y-116454422D01*
G04 #@! TO.C,C45*
X63975064Y-101510000D02*
X62770936Y-101510000D01*
X63975064Y-104230000D02*
X62770936Y-104230000D01*
G04 #@! TO.C,C37*
X93947064Y-105754000D02*
X92742936Y-105754000D01*
X93947064Y-103034000D02*
X92742936Y-103034000D01*
G04 #@! TO.C,J8*
X81121000Y-63875000D02*
X87321000Y-63875000D01*
X87321000Y-63875000D02*
X87321000Y-63685000D01*
X73711000Y-58335000D02*
X73201000Y-58335000D01*
X73201000Y-58335000D02*
X73201000Y-56845000D01*
X73201000Y-56845000D02*
X81121000Y-56845000D01*
X81121000Y-56845000D02*
X81121000Y-57895000D01*
X77701000Y-58335000D02*
X76911000Y-58335000D01*
X81121000Y-63875000D02*
X81121000Y-64925000D01*
X81121000Y-64925000D02*
X73201000Y-64925000D01*
X73201000Y-64925000D02*
X73201000Y-63435000D01*
X73201000Y-63435000D02*
X73701000Y-63435000D01*
X77011000Y-63435000D02*
X77701000Y-63435000D01*
X87321000Y-58085000D02*
X87321000Y-57895000D01*
X87321000Y-57895000D02*
X81121000Y-57895000D01*
X77701000Y-63445000D02*
X77701000Y-61605000D01*
X77701000Y-60165000D02*
X77701000Y-58325000D01*
X87321000Y-63685000D02*
X88821000Y-63685000D01*
X88821000Y-63685000D02*
X88821000Y-62045000D01*
X88821000Y-62045000D02*
X87321000Y-62045000D01*
X77701000Y-61605000D02*
X77011000Y-61605000D01*
X75201000Y-61255000D02*
X75201000Y-60515000D01*
X76311000Y-60165000D02*
X77701000Y-60165000D01*
X87321000Y-59725000D02*
X88821000Y-59725000D01*
X88821000Y-59725000D02*
X88821000Y-58085000D01*
X88821000Y-58085000D02*
X87321000Y-58085000D01*
X87321000Y-62045000D02*
X87321000Y-59725000D01*
X73701000Y-62865000D02*
X73701000Y-64475000D01*
X73701000Y-64475000D02*
X75311000Y-64475000D01*
G04 #@! TO.C,J6*
X103946000Y-135442000D02*
X103946000Y-132782000D01*
X91186000Y-135442000D02*
X103946000Y-135442000D01*
X91186000Y-132782000D02*
X103946000Y-132782000D01*
X91186000Y-135442000D02*
X91186000Y-132782000D01*
X89916000Y-135442000D02*
X88586000Y-135442000D01*
X88586000Y-135442000D02*
X88586000Y-134112000D01*
D11*
G04 #@! TO.C,U7*
X95978000Y-90831000D02*
X95978000Y-89906000D01*
X91728000Y-90831000D02*
X91728000Y-94081000D01*
X95978000Y-90831000D02*
X95978000Y-94081000D01*
X91728000Y-90831000D02*
X91793000Y-90831000D01*
X91728000Y-94081000D02*
X91793000Y-94081000D01*
X95978000Y-94081000D02*
X95913000Y-94081000D01*
G04 #@! TO.C,U8*
X62450000Y-94770000D02*
X62385000Y-94770000D01*
X58200000Y-94770000D02*
X58265000Y-94770000D01*
X58200000Y-91520000D02*
X58265000Y-91520000D01*
X62450000Y-91520000D02*
X62450000Y-94770000D01*
X58200000Y-91520000D02*
X58200000Y-94770000D01*
X62450000Y-91520000D02*
X62450000Y-90595000D01*
G04 #@! TO.C,U6*
X79156000Y-70315000D02*
X79106000Y-70315000D01*
X79156000Y-74465000D02*
X79011000Y-74465000D01*
X74006000Y-74465000D02*
X74151000Y-74465000D01*
X74006000Y-70315000D02*
X74151000Y-70315000D01*
X79156000Y-70315000D02*
X79156000Y-74465000D01*
X74006000Y-70315000D02*
X74006000Y-74465000D01*
X79106000Y-70315000D02*
X79106000Y-68915000D01*
D13*
G04 #@! TO.C,R30*
X101350578Y-122353000D02*
X100833422Y-122353000D01*
X101350578Y-123773000D02*
X100833422Y-123773000D01*
G04 #@! TO.C,R29*
X92531000Y-122169422D02*
X92531000Y-122686578D01*
X91111000Y-122169422D02*
X91111000Y-122686578D01*
G04 #@! TO.C,R28*
X98674422Y-106374000D02*
X99191578Y-106374000D01*
X98674422Y-104954000D02*
X99191578Y-104954000D01*
G04 #@! TO.C,R45*
X85650000Y-125725422D02*
X85650000Y-126242578D01*
X87070000Y-125725422D02*
X87070000Y-126242578D01*
G04 #@! TO.C,R40*
X90292422Y-110669000D02*
X90809578Y-110669000D01*
X90292422Y-112089000D02*
X90809578Y-112089000D01*
G04 #@! TO.C,R41*
X90292422Y-114248000D02*
X90809578Y-114248000D01*
X90292422Y-112828000D02*
X90809578Y-112828000D01*
G04 #@! TO.C,R42*
X90292422Y-114987000D02*
X90809578Y-114987000D01*
X90292422Y-116407000D02*
X90809578Y-116407000D01*
G04 #@! TO.C,R43*
X90292422Y-118566000D02*
X90809578Y-118566000D01*
X90292422Y-117146000D02*
X90809578Y-117146000D01*
G04 #@! TO.C,R46*
X83364000Y-125725422D02*
X83364000Y-126242578D01*
X84784000Y-125725422D02*
X84784000Y-126242578D01*
G04 #@! TO.C,R47*
X84577422Y-110669000D02*
X85094578Y-110669000D01*
X84577422Y-112089000D02*
X85094578Y-112089000D01*
G04 #@! TO.C,R54*
X85650000Y-120518422D02*
X85650000Y-121035578D01*
X87070000Y-120518422D02*
X87070000Y-121035578D01*
G04 #@! TO.C,R53*
X85650000Y-108716578D02*
X85650000Y-108199422D01*
X87070000Y-108716578D02*
X87070000Y-108199422D01*
G04 #@! TO.C,R52*
X83364000Y-120518422D02*
X83364000Y-121035578D01*
X84784000Y-120518422D02*
X84784000Y-121035578D01*
G04 #@! TO.C,R51*
X83364000Y-108716578D02*
X83364000Y-108199422D01*
X84784000Y-108716578D02*
X84784000Y-108199422D01*
G04 #@! TO.C,R50*
X84577422Y-118566000D02*
X85094578Y-118566000D01*
X84577422Y-117146000D02*
X85094578Y-117146000D01*
G04 #@! TO.C,R49*
X84577422Y-114987000D02*
X85094578Y-114987000D01*
X84577422Y-116407000D02*
X85094578Y-116407000D01*
G04 #@! TO.C,R48*
X84577422Y-112828000D02*
X85094578Y-112828000D01*
X84577422Y-114248000D02*
X85094578Y-114248000D01*
D11*
G04 #@! TO.C,L1*
X73042780Y-87779860D02*
X73063100Y-87779860D01*
X77249020Y-83593940D02*
X73063100Y-87779860D01*
X77139800Y-87759540D02*
X77139800Y-87729060D01*
X73052940Y-83642200D02*
X77139800Y-87729060D01*
X81295240Y-91946780D02*
X81295240Y-79646780D01*
X68995240Y-91946780D02*
X81295240Y-91946780D01*
X68995240Y-79646780D02*
X68995240Y-91946780D01*
X81295240Y-79646780D02*
X68995240Y-79646780D01*
D13*
G04 #@! TO.C,R17*
X128909578Y-63234500D02*
X128392422Y-63234500D01*
X128909578Y-64654500D02*
X128392422Y-64654500D01*
G04 #@! TO.C,R39*
X128909578Y-66813500D02*
X128392422Y-66813500D01*
X128909578Y-65393500D02*
X128392422Y-65393500D01*
G04 #@! TO.C,C36*
X68886000Y-68194422D02*
X68886000Y-68711578D01*
X70306000Y-68194422D02*
X70306000Y-68711578D01*
G04 #@! TO.C,C35*
X67512000Y-68194422D02*
X67512000Y-68711578D01*
X66092000Y-68194422D02*
X66092000Y-68711578D01*
G04 #@! TO.C,C34*
X101350578Y-120321000D02*
X100833422Y-120321000D01*
X101350578Y-121741000D02*
X100833422Y-121741000D01*
G04 #@! TO.C,C40*
X69013000Y-76712578D02*
X69013000Y-76195422D01*
X70433000Y-76712578D02*
X70433000Y-76195422D01*
G04 #@! TO.C,C50*
X79506578Y-105843000D02*
X78989422Y-105843000D01*
X79506578Y-107263000D02*
X78989422Y-107263000D01*
G04 #@! TO.C,C49*
X73918578Y-95833000D02*
X73401422Y-95833000D01*
X73918578Y-94413000D02*
X73401422Y-94413000D01*
G04 #@! TO.C,C48*
X78617578Y-94413000D02*
X78100422Y-94413000D01*
X78617578Y-95833000D02*
X78100422Y-95833000D01*
G04 #@! TO.C,C41*
X75433422Y-105843000D02*
X75950578Y-105843000D01*
X75433422Y-107263000D02*
X75950578Y-107263000D01*
G04 #@! TO.C,D2*
X83059000Y-84807000D02*
X86359000Y-84807000D01*
X86359000Y-84807000D02*
X86359000Y-79407000D01*
X83059000Y-84807000D02*
X83059000Y-79407000D01*
G04 #@! TO.C,R31*
X71426000Y-68194422D02*
X71426000Y-68711578D01*
X72846000Y-68194422D02*
X72846000Y-68711578D01*
G04 #@! TO.C,R32*
X71426000Y-76712578D02*
X71426000Y-76195422D01*
X72846000Y-76712578D02*
X72846000Y-76195422D01*
G04 #@! TO.C,R33*
X78617578Y-99747000D02*
X78100422Y-99747000D01*
X78617578Y-101167000D02*
X78100422Y-101167000D01*
G04 #@! TO.C,R34*
X73918578Y-101167000D02*
X73401422Y-101167000D01*
X73918578Y-99747000D02*
X73401422Y-99747000D01*
G04 #@! TO.C,R35*
X92206578Y-87682000D02*
X91689422Y-87682000D01*
X92206578Y-89102000D02*
X91689422Y-89102000D01*
G04 #@! TO.C,R37*
X92324422Y-96191000D02*
X92841578Y-96191000D01*
X92324422Y-97611000D02*
X92841578Y-97611000D01*
G04 #@! TO.C,R38*
X59186578Y-96826000D02*
X58669422Y-96826000D01*
X59186578Y-98246000D02*
X58669422Y-98246000D01*
G04 #@! TO.C,R36*
X58796422Y-88063000D02*
X59313578Y-88063000D01*
X58796422Y-89483000D02*
X59313578Y-89483000D01*
G04 #@! TO.C,C6*
X138301000Y-102961221D02*
X138301000Y-103286779D01*
X139321000Y-102961221D02*
X139321000Y-103286779D01*
G04 #@! TO.C,C7*
X138301000Y-100111779D02*
X138301000Y-99786221D01*
X139321000Y-100111779D02*
X139321000Y-99786221D01*
G04 #@! TO.C,R5*
X133606000Y-101183221D02*
X133606000Y-101508779D01*
X132586000Y-101183221D02*
X132586000Y-101508779D01*
G04 #@! TO.C,C17*
X130179578Y-111073000D02*
X129662422Y-111073000D01*
X130179578Y-109653000D02*
X129662422Y-109653000D01*
G04 #@! TO.C,C12*
X116461000Y-104810779D02*
X116461000Y-104485221D01*
X115441000Y-104810779D02*
X115441000Y-104485221D01*
G04 #@! TO.C,C11*
X127853221Y-90295000D02*
X128178779Y-90295000D01*
X127853221Y-91315000D02*
X128178779Y-91315000D01*
G04 #@! TO.C,C10*
X129956779Y-107948000D02*
X129631221Y-107948000D01*
X129956779Y-108968000D02*
X129631221Y-108968000D01*
G04 #@! TO.C,C8*
X120177779Y-91696000D02*
X119852221Y-91696000D01*
X120177779Y-90676000D02*
X119852221Y-90676000D01*
G04 #@! TO.C,Q1*
X134241000Y-68905000D02*
X134241000Y-69835000D01*
X134241000Y-72065000D02*
X134241000Y-71135000D01*
X134241000Y-72065000D02*
X136401000Y-72065000D01*
X134241000Y-68905000D02*
X135701000Y-68905000D01*
G04 #@! TO.C,D5*
X114172000Y-71657000D02*
X110872000Y-71657000D01*
X110872000Y-71657000D02*
X110872000Y-77057000D01*
X114172000Y-71657000D02*
X114172000Y-77057000D01*
G04 #@! TO.C,D4*
X59553948Y-71608041D02*
X59553948Y-66208041D01*
X62853948Y-71608041D02*
X62853948Y-66208041D01*
X59553948Y-71608041D02*
X62853948Y-71608041D01*
G04 #@! TO.C,D1*
X83186000Y-92681000D02*
X83186000Y-87281000D01*
X86486000Y-92681000D02*
X86486000Y-87281000D01*
X83186000Y-92681000D02*
X86486000Y-92681000D01*
G04 #@! TO.C,D3*
X55743948Y-71608041D02*
X59043948Y-71608041D01*
X59043948Y-71608041D02*
X59043948Y-66208041D01*
X55743948Y-71608041D02*
X55743948Y-66208041D01*
G04 #@! TO.C,C1*
X120527578Y-89991000D02*
X120010422Y-89991000D01*
X120527578Y-88571000D02*
X120010422Y-88571000D01*
G04 #@! TO.C,C13*
X137743000Y-96134422D02*
X137743000Y-96651578D01*
X136323000Y-96134422D02*
X136323000Y-96651578D01*
G04 #@! TO.C,C18*
X103373422Y-61139000D02*
X103890578Y-61139000D01*
X103373422Y-62559000D02*
X103890578Y-62559000D01*
G04 #@! TO.C,C20*
X71322000Y-60320422D02*
X71322000Y-60837578D01*
X69902000Y-60320422D02*
X69902000Y-60837578D01*
G04 #@! TO.C,C21*
X96468000Y-70743578D02*
X96468000Y-70226422D01*
X95048000Y-70743578D02*
X95048000Y-70226422D01*
G04 #@! TO.C,C23*
X94309000Y-70743578D02*
X94309000Y-70226422D01*
X92889000Y-70743578D02*
X92889000Y-70226422D01*
G04 #@! TO.C,C24*
X103557000Y-68330578D02*
X103557000Y-67813422D01*
X104977000Y-68330578D02*
X104977000Y-67813422D01*
G04 #@! TO.C,C27*
X95118422Y-109145000D02*
X95635578Y-109145000D01*
X95118422Y-110565000D02*
X95635578Y-110565000D01*
G04 #@! TO.C,C28*
X107468097Y-81166401D02*
X107985253Y-81166401D01*
X107468097Y-79746401D02*
X107985253Y-79746401D01*
G04 #@! TO.C,C29*
X107468097Y-82032401D02*
X107985253Y-82032401D01*
X107468097Y-83452401D02*
X107985253Y-83452401D01*
G04 #@! TO.C,C14*
X134164000Y-96134422D02*
X134164000Y-96651578D01*
X135584000Y-96134422D02*
X135584000Y-96651578D01*
G04 #@! TO.C,C26*
X105160578Y-99643000D02*
X104643422Y-99643000D01*
X105160578Y-98223000D02*
X104643422Y-98223000D01*
G04 #@! TO.C,C125*
X128472000Y-128274578D02*
X128472000Y-127757422D01*
X127052000Y-128274578D02*
X127052000Y-127757422D01*
G04 #@! TO.C,C126*
X131195578Y-126544000D02*
X130678422Y-126544000D01*
X131195578Y-127964000D02*
X130678422Y-127964000D01*
G04 #@! TO.C,J2*
X110303000Y-136719000D02*
X110303000Y-139379000D01*
X117983000Y-136719000D02*
X110303000Y-136719000D01*
X117983000Y-139379000D02*
X110303000Y-139379000D01*
X117983000Y-136719000D02*
X117983000Y-139379000D01*
X119253000Y-136719000D02*
X120583000Y-136719000D01*
X120583000Y-136719000D02*
X120583000Y-138049000D01*
G04 #@! TO.C,J4*
X81347000Y-143196000D02*
X81347000Y-148396000D01*
X104267000Y-143196000D02*
X81347000Y-143196000D01*
X106867000Y-148396000D02*
X81347000Y-148396000D01*
X104267000Y-143196000D02*
X104267000Y-145796000D01*
X104267000Y-145796000D02*
X106867000Y-145796000D01*
X106867000Y-145796000D02*
X106867000Y-148396000D01*
X105537000Y-143196000D02*
X106867000Y-143196000D01*
X106867000Y-143196000D02*
X106867000Y-144526000D01*
G04 #@! TO.C,Y1*
X134090000Y-98849200D02*
X134090000Y-104599200D01*
X134090000Y-104599200D02*
X137690000Y-104599200D01*
X137690000Y-104599200D02*
X137690000Y-98849200D01*
G04 #@! TO.C,L2*
X105307000Y-78484000D02*
X103607000Y-78484000D01*
X103607000Y-78484000D02*
X103607000Y-71884000D01*
X103607000Y-71884000D02*
X105307000Y-71884000D01*
X108307000Y-71884000D02*
X110007000Y-71884000D01*
X110007000Y-71884000D02*
X110007000Y-78484000D01*
X110007000Y-78484000D02*
X108307000Y-78484000D01*
G04 #@! TO.C,D6*
X131770000Y-139303000D02*
X131770000Y-136618000D01*
X131770000Y-136618000D02*
X129850000Y-136618000D01*
X129850000Y-136618000D02*
X129850000Y-139303000D01*
D11*
G04 #@! TO.C,U2*
X129635000Y-104997000D02*
X129635000Y-103997000D01*
X119285000Y-104997000D02*
X119285000Y-103922000D01*
X119285000Y-94647000D02*
X119285000Y-95722000D01*
X129635000Y-94647000D02*
X129635000Y-95722000D01*
X129635000Y-104997000D02*
X128560000Y-104997000D01*
X129635000Y-94647000D02*
X128560000Y-94647000D01*
X119285000Y-94647000D02*
X120360000Y-94647000D01*
X119285000Y-104997000D02*
X120360000Y-104997000D01*
X129635000Y-103997000D02*
X130660000Y-103997000D01*
G04 #@! TO.C,U3*
X102347000Y-65997000D02*
X102347000Y-64597000D01*
X97247000Y-65997000D02*
X97247000Y-70147000D01*
X102397000Y-65997000D02*
X102397000Y-70147000D01*
X97247000Y-65997000D02*
X97392000Y-65997000D01*
X97247000Y-70147000D02*
X97392000Y-70147000D01*
X102397000Y-70147000D02*
X102252000Y-70147000D01*
X102397000Y-65997000D02*
X102347000Y-65997000D01*
D13*
G04 #@! TO.C,U4*
X103524000Y-92080000D02*
X104784000Y-92080000D01*
X110344000Y-92080000D02*
X109084000Y-92080000D01*
X103524000Y-88320000D02*
X103524000Y-92080000D01*
X110344000Y-86070000D02*
X110344000Y-92080000D01*
G04 #@! TO.C,R20*
X96087000Y-65654422D02*
X96087000Y-66171578D01*
X94667000Y-65654422D02*
X94667000Y-66171578D01*
G04 #@! TO.C,R12*
X139902000Y-96651578D02*
X139902000Y-96134422D01*
X138482000Y-96651578D02*
X138482000Y-96134422D01*
G04 #@! TO.C,R18*
X100207578Y-61139000D02*
X99690422Y-61139000D01*
X100207578Y-62559000D02*
X99690422Y-62559000D01*
G04 #@! TO.C,R19*
X99690422Y-59107000D02*
X100207578Y-59107000D01*
X99690422Y-60527000D02*
X100207578Y-60527000D01*
G04 #@! TO.C,R21*
X95048000Y-74299578D02*
X95048000Y-73782422D01*
X96468000Y-74299578D02*
X96468000Y-73782422D01*
G04 #@! TO.C,R22*
X105160578Y-95937000D02*
X104643422Y-95937000D01*
X105160578Y-97357000D02*
X104643422Y-97357000D01*
G04 #@! TO.C,R23*
X98937578Y-80466000D02*
X98420422Y-80466000D01*
X98937578Y-79046000D02*
X98420422Y-79046000D01*
G04 #@! TO.C,R24*
X98398524Y-78307000D02*
X98915680Y-78307000D01*
X98398524Y-76887000D02*
X98915680Y-76887000D01*
G04 #@! TO.C,R25*
X131520000Y-134361422D02*
X131520000Y-134878578D01*
X130100000Y-134361422D02*
X130100000Y-134878578D01*
G04 #@! TO.C,R11*
X138615922Y-70179000D02*
X139133078Y-70179000D01*
X138615922Y-68759000D02*
X139133078Y-68759000D01*
G04 #@! TO.C,R73*
X130678422Y-128830000D02*
X131195578Y-128830000D01*
X130678422Y-130250000D02*
X131195578Y-130250000D01*
G04 #@! TO.C,R10*
X139133078Y-70791000D02*
X138615922Y-70791000D01*
X139133078Y-72211000D02*
X138615922Y-72211000D01*
G04 #@! TO.C,R8*
X132599500Y-70743578D02*
X132599500Y-70226422D01*
X131179500Y-70743578D02*
X131179500Y-70226422D01*
G04 #@! TO.C,R7*
X134820922Y-66600000D02*
X135338078Y-66600000D01*
X134820922Y-68020000D02*
X135338078Y-68020000D01*
G04 #@! TO.C,R9*
X130554800Y-70730878D02*
X130554800Y-70213722D01*
X129134800Y-70730878D02*
X129134800Y-70213722D01*
G04 #@! TO.C,J5*
D11*
X53895666Y-52919380D02*
X53895666Y-53633666D01*
X53848047Y-53776523D01*
X53752809Y-53871761D01*
X53609952Y-53919380D01*
X53514714Y-53919380D01*
X54848047Y-52919380D02*
X54371857Y-52919380D01*
X54324238Y-53395571D01*
X54371857Y-53347952D01*
X54467095Y-53300333D01*
X54705190Y-53300333D01*
X54800428Y-53347952D01*
X54848047Y-53395571D01*
X54895666Y-53490809D01*
X54895666Y-53728904D01*
X54848047Y-53824142D01*
X54800428Y-53871761D01*
X54705190Y-53919380D01*
X54467095Y-53919380D01*
X54371857Y-53871761D01*
X54324238Y-53824142D01*
G04 #@! TO.C,U9*
X64989460Y-115379404D02*
X65798984Y-115379404D01*
X65894222Y-115331785D01*
X65941841Y-115284166D01*
X65989460Y-115188928D01*
X65989460Y-114998452D01*
X65941841Y-114903214D01*
X65894222Y-114855595D01*
X65798984Y-114807976D01*
X64989460Y-114807976D01*
X65989460Y-114284166D02*
X65989460Y-114093690D01*
X65941841Y-113998452D01*
X65894222Y-113950833D01*
X65751365Y-113855595D01*
X65560889Y-113807976D01*
X65179937Y-113807976D01*
X65084699Y-113855595D01*
X65037080Y-113903214D01*
X64989460Y-113998452D01*
X64989460Y-114188928D01*
X65037080Y-114284166D01*
X65084699Y-114331785D01*
X65179937Y-114379404D01*
X65418032Y-114379404D01*
X65513270Y-114331785D01*
X65560889Y-114284166D01*
X65608508Y-114188928D01*
X65608508Y-113998452D01*
X65560889Y-113903214D01*
X65513270Y-113855595D01*
X65418032Y-113807976D01*
X80147380Y-109613700D02*
X80385476Y-109613700D01*
X80290238Y-109851795D02*
X80385476Y-109613700D01*
X80290238Y-109375604D01*
X80575952Y-109756557D02*
X80385476Y-109613700D01*
X80575952Y-109470842D01*
X80147380Y-109613700D02*
X80385476Y-109613700D01*
X80290238Y-109851795D02*
X80385476Y-109613700D01*
X80290238Y-109375604D01*
X80575952Y-109756557D02*
X80385476Y-109613700D01*
X80575952Y-109470842D01*
G04 #@! TO.C,U5*
X103236780Y-115821364D02*
X104046304Y-115821364D01*
X104141542Y-115773745D01*
X104189161Y-115726126D01*
X104236780Y-115630888D01*
X104236780Y-115440412D01*
X104189161Y-115345174D01*
X104141542Y-115297555D01*
X104046304Y-115249936D01*
X103236780Y-115249936D01*
X103236780Y-114297555D02*
X103236780Y-114773745D01*
X103712971Y-114821364D01*
X103665352Y-114773745D01*
X103617733Y-114678507D01*
X103617733Y-114440412D01*
X103665352Y-114345174D01*
X103712971Y-114297555D01*
X103808209Y-114249936D01*
X104046304Y-114249936D01*
X104141542Y-114297555D01*
X104189161Y-114345174D01*
X104236780Y-114440412D01*
X104236780Y-114678507D01*
X104189161Y-114773745D01*
X104141542Y-114821364D01*
X101274380Y-111400000D02*
X101512476Y-111400000D01*
X101417238Y-111638095D02*
X101512476Y-111400000D01*
X101417238Y-111161904D01*
X101702952Y-111542857D02*
X101512476Y-111400000D01*
X101702952Y-111257142D01*
X101274380Y-111400000D02*
X101512476Y-111400000D01*
X101417238Y-111638095D02*
X101512476Y-111400000D01*
X101417238Y-111161904D01*
X101702952Y-111542857D02*
X101512476Y-111400000D01*
X101702952Y-111257142D01*
G04 #@! TO.C,C2*
X101814333Y-106783142D02*
X101766714Y-106830761D01*
X101623857Y-106878380D01*
X101528619Y-106878380D01*
X101385761Y-106830761D01*
X101290523Y-106735523D01*
X101242904Y-106640285D01*
X101195285Y-106449809D01*
X101195285Y-106306952D01*
X101242904Y-106116476D01*
X101290523Y-106021238D01*
X101385761Y-105926000D01*
X101528619Y-105878380D01*
X101623857Y-105878380D01*
X101766714Y-105926000D01*
X101814333Y-105973619D01*
X102195285Y-105973619D02*
X102242904Y-105926000D01*
X102338142Y-105878380D01*
X102576238Y-105878380D01*
X102671476Y-105926000D01*
X102719095Y-105973619D01*
X102766714Y-106068857D01*
X102766714Y-106164095D01*
X102719095Y-106306952D01*
X102147666Y-106878380D01*
X102766714Y-106878380D01*
G04 #@! TO.C,J7*
X78271380Y-139144333D02*
X78985666Y-139144333D01*
X79128523Y-139191952D01*
X79223761Y-139287190D01*
X79271380Y-139430047D01*
X79271380Y-139525285D01*
X78271380Y-138763380D02*
X78271380Y-138096714D01*
X79271380Y-138525285D01*
G04 #@! TO.C,J3*
X133651666Y-61311380D02*
X133651666Y-62025666D01*
X133604047Y-62168523D01*
X133508809Y-62263761D01*
X133365952Y-62311380D01*
X133270714Y-62311380D01*
X134032619Y-61311380D02*
X134651666Y-61311380D01*
X134318333Y-61692333D01*
X134461190Y-61692333D01*
X134556428Y-61739952D01*
X134604047Y-61787571D01*
X134651666Y-61882809D01*
X134651666Y-62120904D01*
X134604047Y-62216142D01*
X134556428Y-62263761D01*
X134461190Y-62311380D01*
X134175476Y-62311380D01*
X134080238Y-62263761D01*
X134032619Y-62216142D01*
G04 #@! TO.C,C19*
X98163142Y-111609142D02*
X98115523Y-111656761D01*
X97972666Y-111704380D01*
X97877428Y-111704380D01*
X97734571Y-111656761D01*
X97639333Y-111561523D01*
X97591714Y-111466285D01*
X97544095Y-111275809D01*
X97544095Y-111132952D01*
X97591714Y-110942476D01*
X97639333Y-110847238D01*
X97734571Y-110752000D01*
X97877428Y-110704380D01*
X97972666Y-110704380D01*
X98115523Y-110752000D01*
X98163142Y-110799619D01*
X99115523Y-111704380D02*
X98544095Y-111704380D01*
X98829809Y-111704380D02*
X98829809Y-110704380D01*
X98734571Y-110847238D01*
X98639333Y-110942476D01*
X98544095Y-110990095D01*
X99591714Y-111704380D02*
X99782190Y-111704380D01*
X99877428Y-111656761D01*
X99925047Y-111609142D01*
X100020285Y-111466285D01*
X100067904Y-111275809D01*
X100067904Y-110894857D01*
X100020285Y-110799619D01*
X99972666Y-110752000D01*
X99877428Y-110704380D01*
X99686952Y-110704380D01*
X99591714Y-110752000D01*
X99544095Y-110799619D01*
X99496476Y-110894857D01*
X99496476Y-111132952D01*
X99544095Y-111228190D01*
X99591714Y-111275809D01*
X99686952Y-111323428D01*
X99877428Y-111323428D01*
X99972666Y-111275809D01*
X100020285Y-111228190D01*
X100067904Y-111132952D01*
G04 #@! TO.C,C25*
X96496142Y-124086857D02*
X96543761Y-124134476D01*
X96591380Y-124277333D01*
X96591380Y-124372571D01*
X96543761Y-124515428D01*
X96448523Y-124610666D01*
X96353285Y-124658285D01*
X96162809Y-124705904D01*
X96019952Y-124705904D01*
X95829476Y-124658285D01*
X95734238Y-124610666D01*
X95639000Y-124515428D01*
X95591380Y-124372571D01*
X95591380Y-124277333D01*
X95639000Y-124134476D01*
X95686619Y-124086857D01*
X95686619Y-123705904D02*
X95639000Y-123658285D01*
X95591380Y-123563047D01*
X95591380Y-123324952D01*
X95639000Y-123229714D01*
X95686619Y-123182095D01*
X95781857Y-123134476D01*
X95877095Y-123134476D01*
X96019952Y-123182095D01*
X96591380Y-123753523D01*
X96591380Y-123134476D01*
X95591380Y-122229714D02*
X95591380Y-122705904D01*
X96067571Y-122753523D01*
X96019952Y-122705904D01*
X95972333Y-122610666D01*
X95972333Y-122372571D01*
X96019952Y-122277333D01*
X96067571Y-122229714D01*
X96162809Y-122182095D01*
X96400904Y-122182095D01*
X96496142Y-122229714D01*
X96543761Y-122277333D01*
X96591380Y-122372571D01*
X96591380Y-122610666D01*
X96543761Y-122705904D01*
X96496142Y-122753523D01*
G04 #@! TO.C,C30*
X90146142Y-126372857D02*
X90193761Y-126420476D01*
X90241380Y-126563333D01*
X90241380Y-126658571D01*
X90193761Y-126801428D01*
X90098523Y-126896666D01*
X90003285Y-126944285D01*
X89812809Y-126991904D01*
X89669952Y-126991904D01*
X89479476Y-126944285D01*
X89384238Y-126896666D01*
X89289000Y-126801428D01*
X89241380Y-126658571D01*
X89241380Y-126563333D01*
X89289000Y-126420476D01*
X89336619Y-126372857D01*
X89241380Y-126039523D02*
X89241380Y-125420476D01*
X89622333Y-125753809D01*
X89622333Y-125610952D01*
X89669952Y-125515714D01*
X89717571Y-125468095D01*
X89812809Y-125420476D01*
X90050904Y-125420476D01*
X90146142Y-125468095D01*
X90193761Y-125515714D01*
X90241380Y-125610952D01*
X90241380Y-125896666D01*
X90193761Y-125991904D01*
X90146142Y-126039523D01*
X89241380Y-124801428D02*
X89241380Y-124706190D01*
X89289000Y-124610952D01*
X89336619Y-124563333D01*
X89431857Y-124515714D01*
X89622333Y-124468095D01*
X89860428Y-124468095D01*
X90050904Y-124515714D01*
X90146142Y-124563333D01*
X90193761Y-124610952D01*
X90241380Y-124706190D01*
X90241380Y-124801428D01*
X90193761Y-124896666D01*
X90146142Y-124944285D01*
X90050904Y-124991904D01*
X89860428Y-125039523D01*
X89622333Y-125039523D01*
X89431857Y-124991904D01*
X89336619Y-124944285D01*
X89289000Y-124896666D01*
X89241380Y-124801428D01*
G04 #@! TO.C,C31*
X94464142Y-124086857D02*
X94511761Y-124134476D01*
X94559380Y-124277333D01*
X94559380Y-124372571D01*
X94511761Y-124515428D01*
X94416523Y-124610666D01*
X94321285Y-124658285D01*
X94130809Y-124705904D01*
X93987952Y-124705904D01*
X93797476Y-124658285D01*
X93702238Y-124610666D01*
X93607000Y-124515428D01*
X93559380Y-124372571D01*
X93559380Y-124277333D01*
X93607000Y-124134476D01*
X93654619Y-124086857D01*
X93559380Y-123753523D02*
X93559380Y-123134476D01*
X93940333Y-123467809D01*
X93940333Y-123324952D01*
X93987952Y-123229714D01*
X94035571Y-123182095D01*
X94130809Y-123134476D01*
X94368904Y-123134476D01*
X94464142Y-123182095D01*
X94511761Y-123229714D01*
X94559380Y-123324952D01*
X94559380Y-123610666D01*
X94511761Y-123705904D01*
X94464142Y-123753523D01*
X94559380Y-122182095D02*
X94559380Y-122753523D01*
X94559380Y-122467809D02*
X93559380Y-122467809D01*
X93702238Y-122563047D01*
X93797476Y-122658285D01*
X93845095Y-122753523D01*
G04 #@! TO.C,C32*
X91432142Y-108434142D02*
X91384523Y-108481761D01*
X91241666Y-108529380D01*
X91146428Y-108529380D01*
X91003571Y-108481761D01*
X90908333Y-108386523D01*
X90860714Y-108291285D01*
X90813095Y-108100809D01*
X90813095Y-107957952D01*
X90860714Y-107767476D01*
X90908333Y-107672238D01*
X91003571Y-107577000D01*
X91146428Y-107529380D01*
X91241666Y-107529380D01*
X91384523Y-107577000D01*
X91432142Y-107624619D01*
X91765476Y-107529380D02*
X92384523Y-107529380D01*
X92051190Y-107910333D01*
X92194047Y-107910333D01*
X92289285Y-107957952D01*
X92336904Y-108005571D01*
X92384523Y-108100809D01*
X92384523Y-108338904D01*
X92336904Y-108434142D01*
X92289285Y-108481761D01*
X92194047Y-108529380D01*
X91908333Y-108529380D01*
X91813095Y-108481761D01*
X91765476Y-108434142D01*
X92765476Y-107624619D02*
X92813095Y-107577000D01*
X92908333Y-107529380D01*
X93146428Y-107529380D01*
X93241666Y-107577000D01*
X93289285Y-107624619D01*
X93336904Y-107719857D01*
X93336904Y-107815095D01*
X93289285Y-107957952D01*
X92717857Y-108529380D01*
X93336904Y-108529380D01*
G04 #@! TO.C,C22*
X101846142Y-108434142D02*
X101798523Y-108481761D01*
X101655666Y-108529380D01*
X101560428Y-108529380D01*
X101417571Y-108481761D01*
X101322333Y-108386523D01*
X101274714Y-108291285D01*
X101227095Y-108100809D01*
X101227095Y-107957952D01*
X101274714Y-107767476D01*
X101322333Y-107672238D01*
X101417571Y-107577000D01*
X101560428Y-107529380D01*
X101655666Y-107529380D01*
X101798523Y-107577000D01*
X101846142Y-107624619D01*
X102227095Y-107624619D02*
X102274714Y-107577000D01*
X102369952Y-107529380D01*
X102608047Y-107529380D01*
X102703285Y-107577000D01*
X102750904Y-107624619D01*
X102798523Y-107719857D01*
X102798523Y-107815095D01*
X102750904Y-107957952D01*
X102179476Y-108529380D01*
X102798523Y-108529380D01*
X103179476Y-107624619D02*
X103227095Y-107577000D01*
X103322333Y-107529380D01*
X103560428Y-107529380D01*
X103655666Y-107577000D01*
X103703285Y-107624619D01*
X103750904Y-107719857D01*
X103750904Y-107815095D01*
X103703285Y-107957952D01*
X103131857Y-108529380D01*
X103750904Y-108529380D01*
G04 #@! TO.C,C44*
X74287142Y-121262142D02*
X74239523Y-121309761D01*
X74096666Y-121357380D01*
X74001428Y-121357380D01*
X73858571Y-121309761D01*
X73763333Y-121214523D01*
X73715714Y-121119285D01*
X73668095Y-120928809D01*
X73668095Y-120785952D01*
X73715714Y-120595476D01*
X73763333Y-120500238D01*
X73858571Y-120405000D01*
X74001428Y-120357380D01*
X74096666Y-120357380D01*
X74239523Y-120405000D01*
X74287142Y-120452619D01*
X75144285Y-120690714D02*
X75144285Y-121357380D01*
X74906190Y-120309761D02*
X74668095Y-121024047D01*
X75287142Y-121024047D01*
X76096666Y-120690714D02*
X76096666Y-121357380D01*
X75858571Y-120309761D02*
X75620476Y-121024047D01*
X76239523Y-121024047D01*
G04 #@! TO.C,C43*
X70843142Y-73413857D02*
X70890761Y-73461476D01*
X70938380Y-73604333D01*
X70938380Y-73699571D01*
X70890761Y-73842428D01*
X70795523Y-73937666D01*
X70700285Y-73985285D01*
X70509809Y-74032904D01*
X70366952Y-74032904D01*
X70176476Y-73985285D01*
X70081238Y-73937666D01*
X69986000Y-73842428D01*
X69938380Y-73699571D01*
X69938380Y-73604333D01*
X69986000Y-73461476D01*
X70033619Y-73413857D01*
X70271714Y-72556714D02*
X70938380Y-72556714D01*
X69890761Y-72794809D02*
X70605047Y-73032904D01*
X70605047Y-72413857D01*
X69938380Y-72128142D02*
X69938380Y-71509095D01*
X70319333Y-71842428D01*
X70319333Y-71699571D01*
X70366952Y-71604333D01*
X70414571Y-71556714D01*
X70509809Y-71509095D01*
X70747904Y-71509095D01*
X70843142Y-71556714D01*
X70890761Y-71604333D01*
X70938380Y-71699571D01*
X70938380Y-71985285D01*
X70890761Y-72080523D01*
X70843142Y-72128142D01*
G04 #@! TO.C,C42*
X83415142Y-72905857D02*
X83462761Y-72953476D01*
X83510380Y-73096333D01*
X83510380Y-73191571D01*
X83462761Y-73334428D01*
X83367523Y-73429666D01*
X83272285Y-73477285D01*
X83081809Y-73524904D01*
X82938952Y-73524904D01*
X82748476Y-73477285D01*
X82653238Y-73429666D01*
X82558000Y-73334428D01*
X82510380Y-73191571D01*
X82510380Y-73096333D01*
X82558000Y-72953476D01*
X82605619Y-72905857D01*
X82843714Y-72048714D02*
X83510380Y-72048714D01*
X82462761Y-72286809D02*
X83177047Y-72524904D01*
X83177047Y-71905857D01*
X82605619Y-71572523D02*
X82558000Y-71524904D01*
X82510380Y-71429666D01*
X82510380Y-71191571D01*
X82558000Y-71096333D01*
X82605619Y-71048714D01*
X82700857Y-71001095D01*
X82796095Y-71001095D01*
X82938952Y-71048714D01*
X83510380Y-71620142D01*
X83510380Y-71001095D01*
G04 #@! TO.C,C51*
X81018142Y-98147142D02*
X80970523Y-98194761D01*
X80827666Y-98242380D01*
X80732428Y-98242380D01*
X80589571Y-98194761D01*
X80494333Y-98099523D01*
X80446714Y-98004285D01*
X80399095Y-97813809D01*
X80399095Y-97670952D01*
X80446714Y-97480476D01*
X80494333Y-97385238D01*
X80589571Y-97290000D01*
X80732428Y-97242380D01*
X80827666Y-97242380D01*
X80970523Y-97290000D01*
X81018142Y-97337619D01*
X81922904Y-97242380D02*
X81446714Y-97242380D01*
X81399095Y-97718571D01*
X81446714Y-97670952D01*
X81541952Y-97623333D01*
X81780047Y-97623333D01*
X81875285Y-97670952D01*
X81922904Y-97718571D01*
X81970523Y-97813809D01*
X81970523Y-98051904D01*
X81922904Y-98147142D01*
X81875285Y-98194761D01*
X81780047Y-98242380D01*
X81541952Y-98242380D01*
X81446714Y-98194761D01*
X81399095Y-98147142D01*
X82922904Y-98242380D02*
X82351476Y-98242380D01*
X82637190Y-98242380D02*
X82637190Y-97242380D01*
X82541952Y-97385238D01*
X82446714Y-97480476D01*
X82351476Y-97528095D01*
G04 #@! TO.C,C52*
X69715142Y-98147142D02*
X69667523Y-98194761D01*
X69524666Y-98242380D01*
X69429428Y-98242380D01*
X69286571Y-98194761D01*
X69191333Y-98099523D01*
X69143714Y-98004285D01*
X69096095Y-97813809D01*
X69096095Y-97670952D01*
X69143714Y-97480476D01*
X69191333Y-97385238D01*
X69286571Y-97290000D01*
X69429428Y-97242380D01*
X69524666Y-97242380D01*
X69667523Y-97290000D01*
X69715142Y-97337619D01*
X70619904Y-97242380D02*
X70143714Y-97242380D01*
X70096095Y-97718571D01*
X70143714Y-97670952D01*
X70238952Y-97623333D01*
X70477047Y-97623333D01*
X70572285Y-97670952D01*
X70619904Y-97718571D01*
X70667523Y-97813809D01*
X70667523Y-98051904D01*
X70619904Y-98147142D01*
X70572285Y-98194761D01*
X70477047Y-98242380D01*
X70238952Y-98242380D01*
X70143714Y-98194761D01*
X70096095Y-98147142D01*
X71048476Y-97337619D02*
X71096095Y-97290000D01*
X71191333Y-97242380D01*
X71429428Y-97242380D01*
X71524666Y-97290000D01*
X71572285Y-97337619D01*
X71619904Y-97432857D01*
X71619904Y-97528095D01*
X71572285Y-97670952D01*
X71000857Y-98242380D01*
X71619904Y-98242380D01*
G04 #@! TO.C,C53*
X77716142Y-121134142D02*
X77668523Y-121181761D01*
X77525666Y-121229380D01*
X77430428Y-121229380D01*
X77287571Y-121181761D01*
X77192333Y-121086523D01*
X77144714Y-120991285D01*
X77097095Y-120800809D01*
X77097095Y-120657952D01*
X77144714Y-120467476D01*
X77192333Y-120372238D01*
X77287571Y-120277000D01*
X77430428Y-120229380D01*
X77525666Y-120229380D01*
X77668523Y-120277000D01*
X77716142Y-120324619D01*
X78620904Y-120229380D02*
X78144714Y-120229380D01*
X78097095Y-120705571D01*
X78144714Y-120657952D01*
X78239952Y-120610333D01*
X78478047Y-120610333D01*
X78573285Y-120657952D01*
X78620904Y-120705571D01*
X78668523Y-120800809D01*
X78668523Y-121038904D01*
X78620904Y-121134142D01*
X78573285Y-121181761D01*
X78478047Y-121229380D01*
X78239952Y-121229380D01*
X78144714Y-121181761D01*
X78097095Y-121134142D01*
X79001857Y-120229380D02*
X79620904Y-120229380D01*
X79287571Y-120610333D01*
X79430428Y-120610333D01*
X79525666Y-120657952D01*
X79573285Y-120705571D01*
X79620904Y-120800809D01*
X79620904Y-121038904D01*
X79573285Y-121134142D01*
X79525666Y-121181761D01*
X79430428Y-121229380D01*
X79144714Y-121229380D01*
X79049476Y-121181761D01*
X79001857Y-121134142D01*
G04 #@! TO.C,C54*
X88638142Y-99290142D02*
X88590523Y-99337761D01*
X88447666Y-99385380D01*
X88352428Y-99385380D01*
X88209571Y-99337761D01*
X88114333Y-99242523D01*
X88066714Y-99147285D01*
X88019095Y-98956809D01*
X88019095Y-98813952D01*
X88066714Y-98623476D01*
X88114333Y-98528238D01*
X88209571Y-98433000D01*
X88352428Y-98385380D01*
X88447666Y-98385380D01*
X88590523Y-98433000D01*
X88638142Y-98480619D01*
X89542904Y-98385380D02*
X89066714Y-98385380D01*
X89019095Y-98861571D01*
X89066714Y-98813952D01*
X89161952Y-98766333D01*
X89400047Y-98766333D01*
X89495285Y-98813952D01*
X89542904Y-98861571D01*
X89590523Y-98956809D01*
X89590523Y-99194904D01*
X89542904Y-99290142D01*
X89495285Y-99337761D01*
X89400047Y-99385380D01*
X89161952Y-99385380D01*
X89066714Y-99337761D01*
X89019095Y-99290142D01*
X90447666Y-98718714D02*
X90447666Y-99385380D01*
X90209571Y-98337761D02*
X89971476Y-99052047D01*
X90590523Y-99052047D01*
G04 #@! TO.C,C55*
X58285142Y-101575142D02*
X58237523Y-101622761D01*
X58094666Y-101670380D01*
X57999428Y-101670380D01*
X57856571Y-101622761D01*
X57761333Y-101527523D01*
X57713714Y-101432285D01*
X57666095Y-101241809D01*
X57666095Y-101098952D01*
X57713714Y-100908476D01*
X57761333Y-100813238D01*
X57856571Y-100718000D01*
X57999428Y-100670380D01*
X58094666Y-100670380D01*
X58237523Y-100718000D01*
X58285142Y-100765619D01*
X59189904Y-100670380D02*
X58713714Y-100670380D01*
X58666095Y-101146571D01*
X58713714Y-101098952D01*
X58808952Y-101051333D01*
X59047047Y-101051333D01*
X59142285Y-101098952D01*
X59189904Y-101146571D01*
X59237523Y-101241809D01*
X59237523Y-101479904D01*
X59189904Y-101575142D01*
X59142285Y-101622761D01*
X59047047Y-101670380D01*
X58808952Y-101670380D01*
X58713714Y-101622761D01*
X58666095Y-101575142D01*
X60142285Y-100670380D02*
X59666095Y-100670380D01*
X59618476Y-101146571D01*
X59666095Y-101098952D01*
X59761333Y-101051333D01*
X59999428Y-101051333D01*
X60094666Y-101098952D01*
X60142285Y-101146571D01*
X60189904Y-101241809D01*
X60189904Y-101479904D01*
X60142285Y-101575142D01*
X60094666Y-101622761D01*
X59999428Y-101670380D01*
X59761333Y-101670380D01*
X59666095Y-101622761D01*
X59618476Y-101575142D01*
G04 #@! TO.C,C56*
X90035142Y-101703142D02*
X89987523Y-101750761D01*
X89844666Y-101798380D01*
X89749428Y-101798380D01*
X89606571Y-101750761D01*
X89511333Y-101655523D01*
X89463714Y-101560285D01*
X89416095Y-101369809D01*
X89416095Y-101226952D01*
X89463714Y-101036476D01*
X89511333Y-100941238D01*
X89606571Y-100846000D01*
X89749428Y-100798380D01*
X89844666Y-100798380D01*
X89987523Y-100846000D01*
X90035142Y-100893619D01*
X90939904Y-100798380D02*
X90463714Y-100798380D01*
X90416095Y-101274571D01*
X90463714Y-101226952D01*
X90558952Y-101179333D01*
X90797047Y-101179333D01*
X90892285Y-101226952D01*
X90939904Y-101274571D01*
X90987523Y-101369809D01*
X90987523Y-101607904D01*
X90939904Y-101703142D01*
X90892285Y-101750761D01*
X90797047Y-101798380D01*
X90558952Y-101798380D01*
X90463714Y-101750761D01*
X90416095Y-101703142D01*
X91844666Y-100798380D02*
X91654190Y-100798380D01*
X91558952Y-100846000D01*
X91511333Y-100893619D01*
X91416095Y-101036476D01*
X91368476Y-101226952D01*
X91368476Y-101607904D01*
X91416095Y-101703142D01*
X91463714Y-101750761D01*
X91558952Y-101798380D01*
X91749428Y-101798380D01*
X91844666Y-101750761D01*
X91892285Y-101703142D01*
X91939904Y-101607904D01*
X91939904Y-101369809D01*
X91892285Y-101274571D01*
X91844666Y-101226952D01*
X91749428Y-101179333D01*
X91558952Y-101179333D01*
X91463714Y-101226952D01*
X91416095Y-101274571D01*
X91368476Y-101369809D01*
G04 #@! TO.C,C57*
X62222142Y-98275142D02*
X62174523Y-98322761D01*
X62031666Y-98370380D01*
X61936428Y-98370380D01*
X61793571Y-98322761D01*
X61698333Y-98227523D01*
X61650714Y-98132285D01*
X61603095Y-97941809D01*
X61603095Y-97798952D01*
X61650714Y-97608476D01*
X61698333Y-97513238D01*
X61793571Y-97418000D01*
X61936428Y-97370380D01*
X62031666Y-97370380D01*
X62174523Y-97418000D01*
X62222142Y-97465619D01*
X63126904Y-97370380D02*
X62650714Y-97370380D01*
X62603095Y-97846571D01*
X62650714Y-97798952D01*
X62745952Y-97751333D01*
X62984047Y-97751333D01*
X63079285Y-97798952D01*
X63126904Y-97846571D01*
X63174523Y-97941809D01*
X63174523Y-98179904D01*
X63126904Y-98275142D01*
X63079285Y-98322761D01*
X62984047Y-98370380D01*
X62745952Y-98370380D01*
X62650714Y-98322761D01*
X62603095Y-98275142D01*
X63507857Y-97370380D02*
X64174523Y-97370380D01*
X63745952Y-98370380D01*
G04 #@! TO.C,C58*
X88114142Y-113164857D02*
X88161761Y-113212476D01*
X88209380Y-113355333D01*
X88209380Y-113450571D01*
X88161761Y-113593428D01*
X88066523Y-113688666D01*
X87971285Y-113736285D01*
X87780809Y-113783904D01*
X87637952Y-113783904D01*
X87447476Y-113736285D01*
X87352238Y-113688666D01*
X87257000Y-113593428D01*
X87209380Y-113450571D01*
X87209380Y-113355333D01*
X87257000Y-113212476D01*
X87304619Y-113164857D01*
X87209380Y-112260095D02*
X87209380Y-112736285D01*
X87685571Y-112783904D01*
X87637952Y-112736285D01*
X87590333Y-112641047D01*
X87590333Y-112402952D01*
X87637952Y-112307714D01*
X87685571Y-112260095D01*
X87780809Y-112212476D01*
X88018904Y-112212476D01*
X88114142Y-112260095D01*
X88161761Y-112307714D01*
X88209380Y-112402952D01*
X88209380Y-112641047D01*
X88161761Y-112736285D01*
X88114142Y-112783904D01*
X87637952Y-111641047D02*
X87590333Y-111736285D01*
X87542714Y-111783904D01*
X87447476Y-111831523D01*
X87399857Y-111831523D01*
X87304619Y-111783904D01*
X87257000Y-111736285D01*
X87209380Y-111641047D01*
X87209380Y-111450571D01*
X87257000Y-111355333D01*
X87304619Y-111307714D01*
X87399857Y-111260095D01*
X87447476Y-111260095D01*
X87542714Y-111307714D01*
X87590333Y-111355333D01*
X87637952Y-111450571D01*
X87637952Y-111641047D01*
X87685571Y-111736285D01*
X87733190Y-111783904D01*
X87828428Y-111831523D01*
X88018904Y-111831523D01*
X88114142Y-111783904D01*
X88161761Y-111736285D01*
X88209380Y-111641047D01*
X88209380Y-111450571D01*
X88161761Y-111355333D01*
X88114142Y-111307714D01*
X88018904Y-111260095D01*
X87828428Y-111260095D01*
X87733190Y-111307714D01*
X87685571Y-111355333D01*
X87637952Y-111450571D01*
G04 #@! TO.C,C59*
X88241142Y-117355857D02*
X88288761Y-117403476D01*
X88336380Y-117546333D01*
X88336380Y-117641571D01*
X88288761Y-117784428D01*
X88193523Y-117879666D01*
X88098285Y-117927285D01*
X87907809Y-117974904D01*
X87764952Y-117974904D01*
X87574476Y-117927285D01*
X87479238Y-117879666D01*
X87384000Y-117784428D01*
X87336380Y-117641571D01*
X87336380Y-117546333D01*
X87384000Y-117403476D01*
X87431619Y-117355857D01*
X87336380Y-116451095D02*
X87336380Y-116927285D01*
X87812571Y-116974904D01*
X87764952Y-116927285D01*
X87717333Y-116832047D01*
X87717333Y-116593952D01*
X87764952Y-116498714D01*
X87812571Y-116451095D01*
X87907809Y-116403476D01*
X88145904Y-116403476D01*
X88241142Y-116451095D01*
X88288761Y-116498714D01*
X88336380Y-116593952D01*
X88336380Y-116832047D01*
X88288761Y-116927285D01*
X88241142Y-116974904D01*
X88336380Y-115927285D02*
X88336380Y-115736809D01*
X88288761Y-115641571D01*
X88241142Y-115593952D01*
X88098285Y-115498714D01*
X87907809Y-115451095D01*
X87526857Y-115451095D01*
X87431619Y-115498714D01*
X87384000Y-115546333D01*
X87336380Y-115641571D01*
X87336380Y-115832047D01*
X87384000Y-115927285D01*
X87431619Y-115974904D01*
X87526857Y-116022523D01*
X87764952Y-116022523D01*
X87860190Y-115974904D01*
X87907809Y-115927285D01*
X87955428Y-115832047D01*
X87955428Y-115641571D01*
X87907809Y-115546333D01*
X87860190Y-115498714D01*
X87764952Y-115451095D01*
G04 #@! TO.C,C45*
X62730142Y-105507142D02*
X62682523Y-105554761D01*
X62539666Y-105602380D01*
X62444428Y-105602380D01*
X62301571Y-105554761D01*
X62206333Y-105459523D01*
X62158714Y-105364285D01*
X62111095Y-105173809D01*
X62111095Y-105030952D01*
X62158714Y-104840476D01*
X62206333Y-104745238D01*
X62301571Y-104650000D01*
X62444428Y-104602380D01*
X62539666Y-104602380D01*
X62682523Y-104650000D01*
X62730142Y-104697619D01*
X63587285Y-104935714D02*
X63587285Y-105602380D01*
X63349190Y-104554761D02*
X63111095Y-105269047D01*
X63730142Y-105269047D01*
X64587285Y-104602380D02*
X64111095Y-104602380D01*
X64063476Y-105078571D01*
X64111095Y-105030952D01*
X64206333Y-104983333D01*
X64444428Y-104983333D01*
X64539666Y-105030952D01*
X64587285Y-105078571D01*
X64634904Y-105173809D01*
X64634904Y-105411904D01*
X64587285Y-105507142D01*
X64539666Y-105554761D01*
X64444428Y-105602380D01*
X64206333Y-105602380D01*
X64111095Y-105554761D01*
X64063476Y-105507142D01*
G04 #@! TO.C,C37*
X88384142Y-104624142D02*
X88336523Y-104671761D01*
X88193666Y-104719380D01*
X88098428Y-104719380D01*
X87955571Y-104671761D01*
X87860333Y-104576523D01*
X87812714Y-104481285D01*
X87765095Y-104290809D01*
X87765095Y-104147952D01*
X87812714Y-103957476D01*
X87860333Y-103862238D01*
X87955571Y-103767000D01*
X88098428Y-103719380D01*
X88193666Y-103719380D01*
X88336523Y-103767000D01*
X88384142Y-103814619D01*
X88717476Y-103719380D02*
X89336523Y-103719380D01*
X89003190Y-104100333D01*
X89146047Y-104100333D01*
X89241285Y-104147952D01*
X89288904Y-104195571D01*
X89336523Y-104290809D01*
X89336523Y-104528904D01*
X89288904Y-104624142D01*
X89241285Y-104671761D01*
X89146047Y-104719380D01*
X88860333Y-104719380D01*
X88765095Y-104671761D01*
X88717476Y-104624142D01*
X89669857Y-103719380D02*
X90336523Y-103719380D01*
X89907952Y-104719380D01*
G04 #@! TO.C,J8*
X89622380Y-61674333D02*
X90336666Y-61674333D01*
X90479523Y-61721952D01*
X90574761Y-61817190D01*
X90622380Y-61960047D01*
X90622380Y-62055285D01*
X90050952Y-61055285D02*
X90003333Y-61150523D01*
X89955714Y-61198142D01*
X89860476Y-61245761D01*
X89812857Y-61245761D01*
X89717619Y-61198142D01*
X89670000Y-61150523D01*
X89622380Y-61055285D01*
X89622380Y-60864809D01*
X89670000Y-60769571D01*
X89717619Y-60721952D01*
X89812857Y-60674333D01*
X89860476Y-60674333D01*
X89955714Y-60721952D01*
X90003333Y-60769571D01*
X90050952Y-60864809D01*
X90050952Y-61055285D01*
X90098571Y-61150523D01*
X90146190Y-61198142D01*
X90241428Y-61245761D01*
X90431904Y-61245761D01*
X90527142Y-61198142D01*
X90574761Y-61150523D01*
X90622380Y-61055285D01*
X90622380Y-60864809D01*
X90574761Y-60769571D01*
X90527142Y-60721952D01*
X90431904Y-60674333D01*
X90241428Y-60674333D01*
X90146190Y-60721952D01*
X90098571Y-60769571D01*
X90050952Y-60864809D01*
G04 #@! TO.C,J6*
X87038380Y-134445333D02*
X87752666Y-134445333D01*
X87895523Y-134492952D01*
X87990761Y-134588190D01*
X88038380Y-134731047D01*
X88038380Y-134826285D01*
X87038380Y-133540571D02*
X87038380Y-133731047D01*
X87086000Y-133826285D01*
X87133619Y-133873904D01*
X87276476Y-133969142D01*
X87466952Y-134016761D01*
X87847904Y-134016761D01*
X87943142Y-133969142D01*
X87990761Y-133921523D01*
X88038380Y-133826285D01*
X88038380Y-133635809D01*
X87990761Y-133540571D01*
X87943142Y-133492952D01*
X87847904Y-133445333D01*
X87609809Y-133445333D01*
X87514571Y-133492952D01*
X87466952Y-133540571D01*
X87419333Y-133635809D01*
X87419333Y-133826285D01*
X87466952Y-133921523D01*
X87514571Y-133969142D01*
X87609809Y-134016761D01*
G04 #@! TO.C,H4*
X134238095Y-111252380D02*
X134238095Y-110252380D01*
X134238095Y-110728571D02*
X134809523Y-110728571D01*
X134809523Y-111252380D02*
X134809523Y-110252380D01*
X135714285Y-110585714D02*
X135714285Y-111252380D01*
X135476190Y-110204761D02*
X135238095Y-110919047D01*
X135857142Y-110919047D01*
G04 #@! TO.C,H3*
X59238095Y-76252380D02*
X59238095Y-75252380D01*
X59238095Y-75728571D02*
X59809523Y-75728571D01*
X59809523Y-76252380D02*
X59809523Y-75252380D01*
X60190476Y-75252380D02*
X60809523Y-75252380D01*
X60476190Y-75633333D01*
X60619047Y-75633333D01*
X60714285Y-75680952D01*
X60761904Y-75728571D01*
X60809523Y-75823809D01*
X60809523Y-76061904D01*
X60761904Y-76157142D01*
X60714285Y-76204761D01*
X60619047Y-76252380D01*
X60333333Y-76252380D01*
X60238095Y-76204761D01*
X60190476Y-76157142D01*
G04 #@! TO.C,H2*
X59238095Y-111252380D02*
X59238095Y-110252380D01*
X59238095Y-110728571D02*
X59809523Y-110728571D01*
X59809523Y-111252380D02*
X59809523Y-110252380D01*
X60238095Y-110347619D02*
X60285714Y-110300000D01*
X60380952Y-110252380D01*
X60619047Y-110252380D01*
X60714285Y-110300000D01*
X60761904Y-110347619D01*
X60809523Y-110442857D01*
X60809523Y-110538095D01*
X60761904Y-110680952D01*
X60190476Y-111252380D01*
X60809523Y-111252380D01*
G04 #@! TO.C,H1*
X134238095Y-76252380D02*
X134238095Y-75252380D01*
X134238095Y-75728571D02*
X134809523Y-75728571D01*
X134809523Y-76252380D02*
X134809523Y-75252380D01*
X135809523Y-76252380D02*
X135238095Y-76252380D01*
X135523809Y-76252380D02*
X135523809Y-75252380D01*
X135428571Y-75395238D01*
X135333333Y-75490476D01*
X135238095Y-75538095D01*
G04 #@! TO.C,U7*
X96355380Y-93217904D02*
X97164904Y-93217904D01*
X97260142Y-93170285D01*
X97307761Y-93122666D01*
X97355380Y-93027428D01*
X97355380Y-92836952D01*
X97307761Y-92741714D01*
X97260142Y-92694095D01*
X97164904Y-92646476D01*
X96355380Y-92646476D01*
X96355380Y-92265523D02*
X96355380Y-91598857D01*
X97355380Y-92027428D01*
G04 #@! TO.C,U8*
X62827380Y-93906904D02*
X63636904Y-93906904D01*
X63732142Y-93859285D01*
X63779761Y-93811666D01*
X63827380Y-93716428D01*
X63827380Y-93525952D01*
X63779761Y-93430714D01*
X63732142Y-93383095D01*
X63636904Y-93335476D01*
X62827380Y-93335476D01*
X63255952Y-92716428D02*
X63208333Y-92811666D01*
X63160714Y-92859285D01*
X63065476Y-92906904D01*
X63017857Y-92906904D01*
X62922619Y-92859285D01*
X62875000Y-92811666D01*
X62827380Y-92716428D01*
X62827380Y-92525952D01*
X62875000Y-92430714D01*
X62922619Y-92383095D01*
X63017857Y-92335476D01*
X63065476Y-92335476D01*
X63160714Y-92383095D01*
X63208333Y-92430714D01*
X63255952Y-92525952D01*
X63255952Y-92716428D01*
X63303571Y-92811666D01*
X63351190Y-92859285D01*
X63446428Y-92906904D01*
X63636904Y-92906904D01*
X63732142Y-92859285D01*
X63779761Y-92811666D01*
X63827380Y-92716428D01*
X63827380Y-92525952D01*
X63779761Y-92430714D01*
X63732142Y-92383095D01*
X63636904Y-92335476D01*
X63446428Y-92335476D01*
X63351190Y-92383095D01*
X63303571Y-92430714D01*
X63255952Y-92525952D01*
G04 #@! TO.C,U6*
X79081380Y-68071904D02*
X79890904Y-68071904D01*
X79986142Y-68024285D01*
X80033761Y-67976666D01*
X80081380Y-67881428D01*
X80081380Y-67690952D01*
X80033761Y-67595714D01*
X79986142Y-67548095D01*
X79890904Y-67500476D01*
X79081380Y-67500476D01*
X79081380Y-66595714D02*
X79081380Y-66786190D01*
X79129000Y-66881428D01*
X79176619Y-66929047D01*
X79319476Y-67024285D01*
X79509952Y-67071904D01*
X79890904Y-67071904D01*
X79986142Y-67024285D01*
X80033761Y-66976666D01*
X80081380Y-66881428D01*
X80081380Y-66690952D01*
X80033761Y-66595714D01*
X79986142Y-66548095D01*
X79890904Y-66500476D01*
X79652809Y-66500476D01*
X79557571Y-66548095D01*
X79509952Y-66595714D01*
X79462333Y-66690952D01*
X79462333Y-66881428D01*
X79509952Y-66976666D01*
X79557571Y-67024285D01*
X79652809Y-67071904D01*
G04 #@! TO.C,R30*
X97147142Y-123515380D02*
X96813809Y-123039190D01*
X96575714Y-123515380D02*
X96575714Y-122515380D01*
X96956666Y-122515380D01*
X97051904Y-122563000D01*
X97099523Y-122610619D01*
X97147142Y-122705857D01*
X97147142Y-122848714D01*
X97099523Y-122943952D01*
X97051904Y-122991571D01*
X96956666Y-123039190D01*
X96575714Y-123039190D01*
X97480476Y-122515380D02*
X98099523Y-122515380D01*
X97766190Y-122896333D01*
X97909047Y-122896333D01*
X98004285Y-122943952D01*
X98051904Y-122991571D01*
X98099523Y-123086809D01*
X98099523Y-123324904D01*
X98051904Y-123420142D01*
X98004285Y-123467761D01*
X97909047Y-123515380D01*
X97623333Y-123515380D01*
X97528095Y-123467761D01*
X97480476Y-123420142D01*
X98718571Y-122515380D02*
X98813809Y-122515380D01*
X98909047Y-122563000D01*
X98956666Y-122610619D01*
X99004285Y-122705857D01*
X99051904Y-122896333D01*
X99051904Y-123134428D01*
X99004285Y-123324904D01*
X98956666Y-123420142D01*
X98909047Y-123467761D01*
X98813809Y-123515380D01*
X98718571Y-123515380D01*
X98623333Y-123467761D01*
X98575714Y-123420142D01*
X98528095Y-123324904D01*
X98480476Y-123134428D01*
X98480476Y-122896333D01*
X98528095Y-122705857D01*
X98575714Y-122610619D01*
X98623333Y-122563000D01*
X98718571Y-122515380D01*
G04 #@! TO.C,R29*
X92273380Y-126372857D02*
X91797190Y-126706190D01*
X92273380Y-126944285D02*
X91273380Y-126944285D01*
X91273380Y-126563333D01*
X91321000Y-126468095D01*
X91368619Y-126420476D01*
X91463857Y-126372857D01*
X91606714Y-126372857D01*
X91701952Y-126420476D01*
X91749571Y-126468095D01*
X91797190Y-126563333D01*
X91797190Y-126944285D01*
X91368619Y-125991904D02*
X91321000Y-125944285D01*
X91273380Y-125849047D01*
X91273380Y-125610952D01*
X91321000Y-125515714D01*
X91368619Y-125468095D01*
X91463857Y-125420476D01*
X91559095Y-125420476D01*
X91701952Y-125468095D01*
X92273380Y-126039523D01*
X92273380Y-125420476D01*
X92273380Y-124944285D02*
X92273380Y-124753809D01*
X92225761Y-124658571D01*
X92178142Y-124610952D01*
X92035285Y-124515714D01*
X91844809Y-124468095D01*
X91463857Y-124468095D01*
X91368619Y-124515714D01*
X91321000Y-124563333D01*
X91273380Y-124658571D01*
X91273380Y-124849047D01*
X91321000Y-124944285D01*
X91368619Y-124991904D01*
X91463857Y-125039523D01*
X91701952Y-125039523D01*
X91797190Y-124991904D01*
X91844809Y-124944285D01*
X91892428Y-124849047D01*
X91892428Y-124658571D01*
X91844809Y-124563333D01*
X91797190Y-124515714D01*
X91701952Y-124468095D01*
G04 #@! TO.C,R28*
X98290142Y-104466380D02*
X97956809Y-103990190D01*
X97718714Y-104466380D02*
X97718714Y-103466380D01*
X98099666Y-103466380D01*
X98194904Y-103514000D01*
X98242523Y-103561619D01*
X98290142Y-103656857D01*
X98290142Y-103799714D01*
X98242523Y-103894952D01*
X98194904Y-103942571D01*
X98099666Y-103990190D01*
X97718714Y-103990190D01*
X98671095Y-103561619D02*
X98718714Y-103514000D01*
X98813952Y-103466380D01*
X99052047Y-103466380D01*
X99147285Y-103514000D01*
X99194904Y-103561619D01*
X99242523Y-103656857D01*
X99242523Y-103752095D01*
X99194904Y-103894952D01*
X98623476Y-104466380D01*
X99242523Y-104466380D01*
X99813952Y-103894952D02*
X99718714Y-103847333D01*
X99671095Y-103799714D01*
X99623476Y-103704476D01*
X99623476Y-103656857D01*
X99671095Y-103561619D01*
X99718714Y-103514000D01*
X99813952Y-103466380D01*
X100004428Y-103466380D01*
X100099666Y-103514000D01*
X100147285Y-103561619D01*
X100194904Y-103656857D01*
X100194904Y-103704476D01*
X100147285Y-103799714D01*
X100099666Y-103847333D01*
X100004428Y-103894952D01*
X99813952Y-103894952D01*
X99718714Y-103942571D01*
X99671095Y-103990190D01*
X99623476Y-104085428D01*
X99623476Y-104275904D01*
X99671095Y-104371142D01*
X99718714Y-104418761D01*
X99813952Y-104466380D01*
X100004428Y-104466380D01*
X100099666Y-104418761D01*
X100147285Y-104371142D01*
X100194904Y-104275904D01*
X100194904Y-104085428D01*
X100147285Y-103990190D01*
X100099666Y-103942571D01*
X100004428Y-103894952D01*
G04 #@! TO.C,R45*
X88462380Y-126626857D02*
X87986190Y-126960190D01*
X88462380Y-127198285D02*
X87462380Y-127198285D01*
X87462380Y-126817333D01*
X87510000Y-126722095D01*
X87557619Y-126674476D01*
X87652857Y-126626857D01*
X87795714Y-126626857D01*
X87890952Y-126674476D01*
X87938571Y-126722095D01*
X87986190Y-126817333D01*
X87986190Y-127198285D01*
X87795714Y-125769714D02*
X88462380Y-125769714D01*
X87414761Y-126007809D02*
X88129047Y-126245904D01*
X88129047Y-125626857D01*
X87462380Y-124769714D02*
X87462380Y-125245904D01*
X87938571Y-125293523D01*
X87890952Y-125245904D01*
X87843333Y-125150666D01*
X87843333Y-124912571D01*
X87890952Y-124817333D01*
X87938571Y-124769714D01*
X88033809Y-124722095D01*
X88271904Y-124722095D01*
X88367142Y-124769714D01*
X88414761Y-124817333D01*
X88462380Y-124912571D01*
X88462380Y-125150666D01*
X88414761Y-125245904D01*
X88367142Y-125293523D01*
G04 #@! TO.C,R40*
X89908142Y-110181380D02*
X89574809Y-109705190D01*
X89336714Y-110181380D02*
X89336714Y-109181380D01*
X89717666Y-109181380D01*
X89812904Y-109229000D01*
X89860523Y-109276619D01*
X89908142Y-109371857D01*
X89908142Y-109514714D01*
X89860523Y-109609952D01*
X89812904Y-109657571D01*
X89717666Y-109705190D01*
X89336714Y-109705190D01*
X90765285Y-109514714D02*
X90765285Y-110181380D01*
X90527190Y-109133761D02*
X90289095Y-109848047D01*
X90908142Y-109848047D01*
X91479571Y-109181380D02*
X91574809Y-109181380D01*
X91670047Y-109229000D01*
X91717666Y-109276619D01*
X91765285Y-109371857D01*
X91812904Y-109562333D01*
X91812904Y-109800428D01*
X91765285Y-109990904D01*
X91717666Y-110086142D01*
X91670047Y-110133761D01*
X91574809Y-110181380D01*
X91479571Y-110181380D01*
X91384333Y-110133761D01*
X91336714Y-110086142D01*
X91289095Y-109990904D01*
X91241476Y-109800428D01*
X91241476Y-109562333D01*
X91289095Y-109371857D01*
X91336714Y-109276619D01*
X91384333Y-109229000D01*
X91479571Y-109181380D01*
G04 #@! TO.C,R41*
X93083142Y-113990380D02*
X92749809Y-113514190D01*
X92511714Y-113990380D02*
X92511714Y-112990380D01*
X92892666Y-112990380D01*
X92987904Y-113038000D01*
X93035523Y-113085619D01*
X93083142Y-113180857D01*
X93083142Y-113323714D01*
X93035523Y-113418952D01*
X92987904Y-113466571D01*
X92892666Y-113514190D01*
X92511714Y-113514190D01*
X93940285Y-113323714D02*
X93940285Y-113990380D01*
X93702190Y-112942761D02*
X93464095Y-113657047D01*
X94083142Y-113657047D01*
X94987904Y-113990380D02*
X94416476Y-113990380D01*
X94702190Y-113990380D02*
X94702190Y-112990380D01*
X94606952Y-113133238D01*
X94511714Y-113228476D01*
X94416476Y-113276095D01*
G04 #@! TO.C,R42*
X93083142Y-116149380D02*
X92749809Y-115673190D01*
X92511714Y-116149380D02*
X92511714Y-115149380D01*
X92892666Y-115149380D01*
X92987904Y-115197000D01*
X93035523Y-115244619D01*
X93083142Y-115339857D01*
X93083142Y-115482714D01*
X93035523Y-115577952D01*
X92987904Y-115625571D01*
X92892666Y-115673190D01*
X92511714Y-115673190D01*
X93940285Y-115482714D02*
X93940285Y-116149380D01*
X93702190Y-115101761D02*
X93464095Y-115816047D01*
X94083142Y-115816047D01*
X94416476Y-115244619D02*
X94464095Y-115197000D01*
X94559333Y-115149380D01*
X94797428Y-115149380D01*
X94892666Y-115197000D01*
X94940285Y-115244619D01*
X94987904Y-115339857D01*
X94987904Y-115435095D01*
X94940285Y-115577952D01*
X94368857Y-116149380D01*
X94987904Y-116149380D01*
G04 #@! TO.C,R43*
X90035142Y-120213380D02*
X89701809Y-119737190D01*
X89463714Y-120213380D02*
X89463714Y-119213380D01*
X89844666Y-119213380D01*
X89939904Y-119261000D01*
X89987523Y-119308619D01*
X90035142Y-119403857D01*
X90035142Y-119546714D01*
X89987523Y-119641952D01*
X89939904Y-119689571D01*
X89844666Y-119737190D01*
X89463714Y-119737190D01*
X90892285Y-119546714D02*
X90892285Y-120213380D01*
X90654190Y-119165761D02*
X90416095Y-119880047D01*
X91035142Y-119880047D01*
X91320857Y-119213380D02*
X91939904Y-119213380D01*
X91606571Y-119594333D01*
X91749428Y-119594333D01*
X91844666Y-119641952D01*
X91892285Y-119689571D01*
X91939904Y-119784809D01*
X91939904Y-120022904D01*
X91892285Y-120118142D01*
X91844666Y-120165761D01*
X91749428Y-120213380D01*
X91463714Y-120213380D01*
X91368476Y-120165761D01*
X91320857Y-120118142D01*
G04 #@! TO.C,R46*
X82621380Y-126753857D02*
X82145190Y-127087190D01*
X82621380Y-127325285D02*
X81621380Y-127325285D01*
X81621380Y-126944333D01*
X81669000Y-126849095D01*
X81716619Y-126801476D01*
X81811857Y-126753857D01*
X81954714Y-126753857D01*
X82049952Y-126801476D01*
X82097571Y-126849095D01*
X82145190Y-126944333D01*
X82145190Y-127325285D01*
X81954714Y-125896714D02*
X82621380Y-125896714D01*
X81573761Y-126134809D02*
X82288047Y-126372904D01*
X82288047Y-125753857D01*
X81621380Y-124944333D02*
X81621380Y-125134809D01*
X81669000Y-125230047D01*
X81716619Y-125277666D01*
X81859476Y-125372904D01*
X82049952Y-125420523D01*
X82430904Y-125420523D01*
X82526142Y-125372904D01*
X82573761Y-125325285D01*
X82621380Y-125230047D01*
X82621380Y-125039571D01*
X82573761Y-124944333D01*
X82526142Y-124896714D01*
X82430904Y-124849095D01*
X82192809Y-124849095D01*
X82097571Y-124896714D01*
X82049952Y-124944333D01*
X82002333Y-125039571D01*
X82002333Y-125230047D01*
X82049952Y-125325285D01*
X82097571Y-125372904D01*
X82192809Y-125420523D01*
G04 #@! TO.C,R47*
X81018142Y-111704380D02*
X80684809Y-111228190D01*
X80446714Y-111704380D02*
X80446714Y-110704380D01*
X80827666Y-110704380D01*
X80922904Y-110752000D01*
X80970523Y-110799619D01*
X81018142Y-110894857D01*
X81018142Y-111037714D01*
X80970523Y-111132952D01*
X80922904Y-111180571D01*
X80827666Y-111228190D01*
X80446714Y-111228190D01*
X81875285Y-111037714D02*
X81875285Y-111704380D01*
X81637190Y-110656761D02*
X81399095Y-111371047D01*
X82018142Y-111371047D01*
X82303857Y-110704380D02*
X82970523Y-110704380D01*
X82541952Y-111704380D01*
G04 #@! TO.C,R54*
X88462380Y-121419857D02*
X87986190Y-121753190D01*
X88462380Y-121991285D02*
X87462380Y-121991285D01*
X87462380Y-121610333D01*
X87510000Y-121515095D01*
X87557619Y-121467476D01*
X87652857Y-121419857D01*
X87795714Y-121419857D01*
X87890952Y-121467476D01*
X87938571Y-121515095D01*
X87986190Y-121610333D01*
X87986190Y-121991285D01*
X87462380Y-120515095D02*
X87462380Y-120991285D01*
X87938571Y-121038904D01*
X87890952Y-120991285D01*
X87843333Y-120896047D01*
X87843333Y-120657952D01*
X87890952Y-120562714D01*
X87938571Y-120515095D01*
X88033809Y-120467476D01*
X88271904Y-120467476D01*
X88367142Y-120515095D01*
X88414761Y-120562714D01*
X88462380Y-120657952D01*
X88462380Y-120896047D01*
X88414761Y-120991285D01*
X88367142Y-121038904D01*
X87795714Y-119610333D02*
X88462380Y-119610333D01*
X87414761Y-119848428D02*
X88129047Y-120086523D01*
X88129047Y-119467476D01*
G04 #@! TO.C,R53*
X88590380Y-109100857D02*
X88114190Y-109434190D01*
X88590380Y-109672285D02*
X87590380Y-109672285D01*
X87590380Y-109291333D01*
X87638000Y-109196095D01*
X87685619Y-109148476D01*
X87780857Y-109100857D01*
X87923714Y-109100857D01*
X88018952Y-109148476D01*
X88066571Y-109196095D01*
X88114190Y-109291333D01*
X88114190Y-109672285D01*
X87590380Y-108196095D02*
X87590380Y-108672285D01*
X88066571Y-108719904D01*
X88018952Y-108672285D01*
X87971333Y-108577047D01*
X87971333Y-108338952D01*
X88018952Y-108243714D01*
X88066571Y-108196095D01*
X88161809Y-108148476D01*
X88399904Y-108148476D01*
X88495142Y-108196095D01*
X88542761Y-108243714D01*
X88590380Y-108338952D01*
X88590380Y-108577047D01*
X88542761Y-108672285D01*
X88495142Y-108719904D01*
X87590380Y-107815142D02*
X87590380Y-107196095D01*
X87971333Y-107529428D01*
X87971333Y-107386571D01*
X88018952Y-107291333D01*
X88066571Y-107243714D01*
X88161809Y-107196095D01*
X88399904Y-107196095D01*
X88495142Y-107243714D01*
X88542761Y-107291333D01*
X88590380Y-107386571D01*
X88590380Y-107672285D01*
X88542761Y-107767523D01*
X88495142Y-107815142D01*
G04 #@! TO.C,R52*
X82621380Y-121292857D02*
X82145190Y-121626190D01*
X82621380Y-121864285D02*
X81621380Y-121864285D01*
X81621380Y-121483333D01*
X81669000Y-121388095D01*
X81716619Y-121340476D01*
X81811857Y-121292857D01*
X81954714Y-121292857D01*
X82049952Y-121340476D01*
X82097571Y-121388095D01*
X82145190Y-121483333D01*
X82145190Y-121864285D01*
X81621380Y-120388095D02*
X81621380Y-120864285D01*
X82097571Y-120911904D01*
X82049952Y-120864285D01*
X82002333Y-120769047D01*
X82002333Y-120530952D01*
X82049952Y-120435714D01*
X82097571Y-120388095D01*
X82192809Y-120340476D01*
X82430904Y-120340476D01*
X82526142Y-120388095D01*
X82573761Y-120435714D01*
X82621380Y-120530952D01*
X82621380Y-120769047D01*
X82573761Y-120864285D01*
X82526142Y-120911904D01*
X81716619Y-119959523D02*
X81669000Y-119911904D01*
X81621380Y-119816666D01*
X81621380Y-119578571D01*
X81669000Y-119483333D01*
X81716619Y-119435714D01*
X81811857Y-119388095D01*
X81907095Y-119388095D01*
X82049952Y-119435714D01*
X82621380Y-120007142D01*
X82621380Y-119388095D01*
G04 #@! TO.C,R51*
X82876380Y-109100857D02*
X82400190Y-109434190D01*
X82876380Y-109672285D02*
X81876380Y-109672285D01*
X81876380Y-109291333D01*
X81924000Y-109196095D01*
X81971619Y-109148476D01*
X82066857Y-109100857D01*
X82209714Y-109100857D01*
X82304952Y-109148476D01*
X82352571Y-109196095D01*
X82400190Y-109291333D01*
X82400190Y-109672285D01*
X81876380Y-108196095D02*
X81876380Y-108672285D01*
X82352571Y-108719904D01*
X82304952Y-108672285D01*
X82257333Y-108577047D01*
X82257333Y-108338952D01*
X82304952Y-108243714D01*
X82352571Y-108196095D01*
X82447809Y-108148476D01*
X82685904Y-108148476D01*
X82781142Y-108196095D01*
X82828761Y-108243714D01*
X82876380Y-108338952D01*
X82876380Y-108577047D01*
X82828761Y-108672285D01*
X82781142Y-108719904D01*
X82876380Y-107196095D02*
X82876380Y-107767523D01*
X82876380Y-107481809D02*
X81876380Y-107481809D01*
X82019238Y-107577047D01*
X82114476Y-107672285D01*
X82162095Y-107767523D01*
G04 #@! TO.C,R50*
X80891142Y-118435380D02*
X80557809Y-117959190D01*
X80319714Y-118435380D02*
X80319714Y-117435380D01*
X80700666Y-117435380D01*
X80795904Y-117483000D01*
X80843523Y-117530619D01*
X80891142Y-117625857D01*
X80891142Y-117768714D01*
X80843523Y-117863952D01*
X80795904Y-117911571D01*
X80700666Y-117959190D01*
X80319714Y-117959190D01*
X81795904Y-117435380D02*
X81319714Y-117435380D01*
X81272095Y-117911571D01*
X81319714Y-117863952D01*
X81414952Y-117816333D01*
X81653047Y-117816333D01*
X81748285Y-117863952D01*
X81795904Y-117911571D01*
X81843523Y-118006809D01*
X81843523Y-118244904D01*
X81795904Y-118340142D01*
X81748285Y-118387761D01*
X81653047Y-118435380D01*
X81414952Y-118435380D01*
X81319714Y-118387761D01*
X81272095Y-118340142D01*
X82462571Y-117435380D02*
X82557809Y-117435380D01*
X82653047Y-117483000D01*
X82700666Y-117530619D01*
X82748285Y-117625857D01*
X82795904Y-117816333D01*
X82795904Y-118054428D01*
X82748285Y-118244904D01*
X82700666Y-118340142D01*
X82653047Y-118387761D01*
X82557809Y-118435380D01*
X82462571Y-118435380D01*
X82367333Y-118387761D01*
X82319714Y-118340142D01*
X82272095Y-118244904D01*
X82224476Y-118054428D01*
X82224476Y-117816333D01*
X82272095Y-117625857D01*
X82319714Y-117530619D01*
X82367333Y-117483000D01*
X82462571Y-117435380D01*
G04 #@! TO.C,R49*
X80891142Y-116149380D02*
X80557809Y-115673190D01*
X80319714Y-116149380D02*
X80319714Y-115149380D01*
X80700666Y-115149380D01*
X80795904Y-115197000D01*
X80843523Y-115244619D01*
X80891142Y-115339857D01*
X80891142Y-115482714D01*
X80843523Y-115577952D01*
X80795904Y-115625571D01*
X80700666Y-115673190D01*
X80319714Y-115673190D01*
X81748285Y-115482714D02*
X81748285Y-116149380D01*
X81510190Y-115101761D02*
X81272095Y-115816047D01*
X81891142Y-115816047D01*
X82319714Y-116149380D02*
X82510190Y-116149380D01*
X82605428Y-116101761D01*
X82653047Y-116054142D01*
X82748285Y-115911285D01*
X82795904Y-115720809D01*
X82795904Y-115339857D01*
X82748285Y-115244619D01*
X82700666Y-115197000D01*
X82605428Y-115149380D01*
X82414952Y-115149380D01*
X82319714Y-115197000D01*
X82272095Y-115244619D01*
X82224476Y-115339857D01*
X82224476Y-115577952D01*
X82272095Y-115673190D01*
X82319714Y-115720809D01*
X82414952Y-115768428D01*
X82605428Y-115768428D01*
X82700666Y-115720809D01*
X82748285Y-115673190D01*
X82795904Y-115577952D01*
G04 #@! TO.C,R48*
X81018142Y-114117380D02*
X80684809Y-113641190D01*
X80446714Y-114117380D02*
X80446714Y-113117380D01*
X80827666Y-113117380D01*
X80922904Y-113165000D01*
X80970523Y-113212619D01*
X81018142Y-113307857D01*
X81018142Y-113450714D01*
X80970523Y-113545952D01*
X80922904Y-113593571D01*
X80827666Y-113641190D01*
X80446714Y-113641190D01*
X81875285Y-113450714D02*
X81875285Y-114117380D01*
X81637190Y-113069761D02*
X81399095Y-113784047D01*
X82018142Y-113784047D01*
X82541952Y-113545952D02*
X82446714Y-113498333D01*
X82399095Y-113450714D01*
X82351476Y-113355476D01*
X82351476Y-113307857D01*
X82399095Y-113212619D01*
X82446714Y-113165000D01*
X82541952Y-113117380D01*
X82732428Y-113117380D01*
X82827666Y-113165000D01*
X82875285Y-113212619D01*
X82922904Y-113307857D01*
X82922904Y-113355476D01*
X82875285Y-113450714D01*
X82827666Y-113498333D01*
X82732428Y-113545952D01*
X82541952Y-113545952D01*
X82446714Y-113593571D01*
X82399095Y-113641190D01*
X82351476Y-113736428D01*
X82351476Y-113926904D01*
X82399095Y-114022142D01*
X82446714Y-114069761D01*
X82541952Y-114117380D01*
X82732428Y-114117380D01*
X82827666Y-114069761D01*
X82875285Y-114022142D01*
X82922904Y-113926904D01*
X82922904Y-113736428D01*
X82875285Y-113641190D01*
X82827666Y-113593571D01*
X82732428Y-113545952D01*
G04 #@! TO.C,L1*
X83510380Y-84207646D02*
X83510380Y-84683837D01*
X82510380Y-84683837D01*
X83510380Y-83350503D02*
X83510380Y-83921932D01*
X83510380Y-83636218D02*
X82510380Y-83636218D01*
X82653238Y-83731456D01*
X82748476Y-83826694D01*
X82796095Y-83921932D01*
G04 #@! TO.C,R17*
X124960142Y-64460380D02*
X124626809Y-63984190D01*
X124388714Y-64460380D02*
X124388714Y-63460380D01*
X124769666Y-63460380D01*
X124864904Y-63508000D01*
X124912523Y-63555619D01*
X124960142Y-63650857D01*
X124960142Y-63793714D01*
X124912523Y-63888952D01*
X124864904Y-63936571D01*
X124769666Y-63984190D01*
X124388714Y-63984190D01*
X125912523Y-64460380D02*
X125341095Y-64460380D01*
X125626809Y-64460380D02*
X125626809Y-63460380D01*
X125531571Y-63603238D01*
X125436333Y-63698476D01*
X125341095Y-63746095D01*
X126245857Y-63460380D02*
X126912523Y-63460380D01*
X126483952Y-64460380D01*
G04 #@! TO.C,R39*
X124706142Y-66619380D02*
X124372809Y-66143190D01*
X124134714Y-66619380D02*
X124134714Y-65619380D01*
X124515666Y-65619380D01*
X124610904Y-65667000D01*
X124658523Y-65714619D01*
X124706142Y-65809857D01*
X124706142Y-65952714D01*
X124658523Y-66047952D01*
X124610904Y-66095571D01*
X124515666Y-66143190D01*
X124134714Y-66143190D01*
X125039476Y-65619380D02*
X125658523Y-65619380D01*
X125325190Y-66000333D01*
X125468047Y-66000333D01*
X125563285Y-66047952D01*
X125610904Y-66095571D01*
X125658523Y-66190809D01*
X125658523Y-66428904D01*
X125610904Y-66524142D01*
X125563285Y-66571761D01*
X125468047Y-66619380D01*
X125182333Y-66619380D01*
X125087095Y-66571761D01*
X125039476Y-66524142D01*
X126134714Y-66619380D02*
X126325190Y-66619380D01*
X126420428Y-66571761D01*
X126468047Y-66524142D01*
X126563285Y-66381285D01*
X126610904Y-66190809D01*
X126610904Y-65809857D01*
X126563285Y-65714619D01*
X126515666Y-65667000D01*
X126420428Y-65619380D01*
X126229952Y-65619380D01*
X126134714Y-65667000D01*
X126087095Y-65714619D01*
X126039476Y-65809857D01*
X126039476Y-66047952D01*
X126087095Y-66143190D01*
X126134714Y-66190809D01*
X126229952Y-66238428D01*
X126420428Y-66238428D01*
X126515666Y-66190809D01*
X126563285Y-66143190D01*
X126610904Y-66047952D01*
G04 #@! TO.C,C36*
X69889642Y-65793857D02*
X69937261Y-65841476D01*
X69984880Y-65984333D01*
X69984880Y-66079571D01*
X69937261Y-66222428D01*
X69842023Y-66317666D01*
X69746785Y-66365285D01*
X69556309Y-66412904D01*
X69413452Y-66412904D01*
X69222976Y-66365285D01*
X69127738Y-66317666D01*
X69032500Y-66222428D01*
X68984880Y-66079571D01*
X68984880Y-65984333D01*
X69032500Y-65841476D01*
X69080119Y-65793857D01*
X68984880Y-65460523D02*
X68984880Y-64841476D01*
X69365833Y-65174809D01*
X69365833Y-65031952D01*
X69413452Y-64936714D01*
X69461071Y-64889095D01*
X69556309Y-64841476D01*
X69794404Y-64841476D01*
X69889642Y-64889095D01*
X69937261Y-64936714D01*
X69984880Y-65031952D01*
X69984880Y-65317666D01*
X69937261Y-65412904D01*
X69889642Y-65460523D01*
X68984880Y-63984333D02*
X68984880Y-64174809D01*
X69032500Y-64270047D01*
X69080119Y-64317666D01*
X69222976Y-64412904D01*
X69413452Y-64460523D01*
X69794404Y-64460523D01*
X69889642Y-64412904D01*
X69937261Y-64365285D01*
X69984880Y-64270047D01*
X69984880Y-64079571D01*
X69937261Y-63984333D01*
X69889642Y-63936714D01*
X69794404Y-63889095D01*
X69556309Y-63889095D01*
X69461071Y-63936714D01*
X69413452Y-63984333D01*
X69365833Y-64079571D01*
X69365833Y-64270047D01*
X69413452Y-64365285D01*
X69461071Y-64412904D01*
X69556309Y-64460523D01*
G04 #@! TO.C,C35*
X67095642Y-65793857D02*
X67143261Y-65841476D01*
X67190880Y-65984333D01*
X67190880Y-66079571D01*
X67143261Y-66222428D01*
X67048023Y-66317666D01*
X66952785Y-66365285D01*
X66762309Y-66412904D01*
X66619452Y-66412904D01*
X66428976Y-66365285D01*
X66333738Y-66317666D01*
X66238500Y-66222428D01*
X66190880Y-66079571D01*
X66190880Y-65984333D01*
X66238500Y-65841476D01*
X66286119Y-65793857D01*
X66190880Y-65460523D02*
X66190880Y-64841476D01*
X66571833Y-65174809D01*
X66571833Y-65031952D01*
X66619452Y-64936714D01*
X66667071Y-64889095D01*
X66762309Y-64841476D01*
X67000404Y-64841476D01*
X67095642Y-64889095D01*
X67143261Y-64936714D01*
X67190880Y-65031952D01*
X67190880Y-65317666D01*
X67143261Y-65412904D01*
X67095642Y-65460523D01*
X66190880Y-63936714D02*
X66190880Y-64412904D01*
X66667071Y-64460523D01*
X66619452Y-64412904D01*
X66571833Y-64317666D01*
X66571833Y-64079571D01*
X66619452Y-63984333D01*
X66667071Y-63936714D01*
X66762309Y-63889095D01*
X67000404Y-63889095D01*
X67095642Y-63936714D01*
X67143261Y-63984333D01*
X67190880Y-64079571D01*
X67190880Y-64317666D01*
X67143261Y-64412904D01*
X67095642Y-64460523D01*
G04 #@! TO.C,C34*
X103751142Y-121388142D02*
X103703523Y-121435761D01*
X103560666Y-121483380D01*
X103465428Y-121483380D01*
X103322571Y-121435761D01*
X103227333Y-121340523D01*
X103179714Y-121245285D01*
X103132095Y-121054809D01*
X103132095Y-120911952D01*
X103179714Y-120721476D01*
X103227333Y-120626238D01*
X103322571Y-120531000D01*
X103465428Y-120483380D01*
X103560666Y-120483380D01*
X103703523Y-120531000D01*
X103751142Y-120578619D01*
X104084476Y-120483380D02*
X104703523Y-120483380D01*
X104370190Y-120864333D01*
X104513047Y-120864333D01*
X104608285Y-120911952D01*
X104655904Y-120959571D01*
X104703523Y-121054809D01*
X104703523Y-121292904D01*
X104655904Y-121388142D01*
X104608285Y-121435761D01*
X104513047Y-121483380D01*
X104227333Y-121483380D01*
X104132095Y-121435761D01*
X104084476Y-121388142D01*
X105560666Y-120816714D02*
X105560666Y-121483380D01*
X105322571Y-120435761D02*
X105084476Y-121150047D01*
X105703523Y-121150047D01*
G04 #@! TO.C,C40*
X68175142Y-76969857D02*
X68222761Y-77017476D01*
X68270380Y-77160333D01*
X68270380Y-77255571D01*
X68222761Y-77398428D01*
X68127523Y-77493666D01*
X68032285Y-77541285D01*
X67841809Y-77588904D01*
X67698952Y-77588904D01*
X67508476Y-77541285D01*
X67413238Y-77493666D01*
X67318000Y-77398428D01*
X67270380Y-77255571D01*
X67270380Y-77160333D01*
X67318000Y-77017476D01*
X67365619Y-76969857D01*
X67603714Y-76112714D02*
X68270380Y-76112714D01*
X67222761Y-76350809D02*
X67937047Y-76588904D01*
X67937047Y-75969857D01*
X67270380Y-75398428D02*
X67270380Y-75303190D01*
X67318000Y-75207952D01*
X67365619Y-75160333D01*
X67460857Y-75112714D01*
X67651333Y-75065095D01*
X67889428Y-75065095D01*
X68079904Y-75112714D01*
X68175142Y-75160333D01*
X68222761Y-75207952D01*
X68270380Y-75303190D01*
X68270380Y-75398428D01*
X68222761Y-75493666D01*
X68175142Y-75541285D01*
X68079904Y-75588904D01*
X67889428Y-75636523D01*
X67651333Y-75636523D01*
X67460857Y-75588904D01*
X67365619Y-75541285D01*
X67318000Y-75493666D01*
X67270380Y-75398428D01*
G04 #@! TO.C,C50*
X78605142Y-108560142D02*
X78557523Y-108607761D01*
X78414666Y-108655380D01*
X78319428Y-108655380D01*
X78176571Y-108607761D01*
X78081333Y-108512523D01*
X78033714Y-108417285D01*
X77986095Y-108226809D01*
X77986095Y-108083952D01*
X78033714Y-107893476D01*
X78081333Y-107798238D01*
X78176571Y-107703000D01*
X78319428Y-107655380D01*
X78414666Y-107655380D01*
X78557523Y-107703000D01*
X78605142Y-107750619D01*
X79509904Y-107655380D02*
X79033714Y-107655380D01*
X78986095Y-108131571D01*
X79033714Y-108083952D01*
X79128952Y-108036333D01*
X79367047Y-108036333D01*
X79462285Y-108083952D01*
X79509904Y-108131571D01*
X79557523Y-108226809D01*
X79557523Y-108464904D01*
X79509904Y-108560142D01*
X79462285Y-108607761D01*
X79367047Y-108655380D01*
X79128952Y-108655380D01*
X79033714Y-108607761D01*
X78986095Y-108560142D01*
X80176571Y-107655380D02*
X80271809Y-107655380D01*
X80367047Y-107703000D01*
X80414666Y-107750619D01*
X80462285Y-107845857D01*
X80509904Y-108036333D01*
X80509904Y-108274428D01*
X80462285Y-108464904D01*
X80414666Y-108560142D01*
X80367047Y-108607761D01*
X80271809Y-108655380D01*
X80176571Y-108655380D01*
X80081333Y-108607761D01*
X80033714Y-108560142D01*
X79986095Y-108464904D01*
X79938476Y-108274428D01*
X79938476Y-108036333D01*
X79986095Y-107845857D01*
X80033714Y-107750619D01*
X80081333Y-107703000D01*
X80176571Y-107655380D01*
G04 #@! TO.C,C49*
X69666642Y-95543642D02*
X69619023Y-95591261D01*
X69476166Y-95638880D01*
X69380928Y-95638880D01*
X69238071Y-95591261D01*
X69142833Y-95496023D01*
X69095214Y-95400785D01*
X69047595Y-95210309D01*
X69047595Y-95067452D01*
X69095214Y-94876976D01*
X69142833Y-94781738D01*
X69238071Y-94686500D01*
X69380928Y-94638880D01*
X69476166Y-94638880D01*
X69619023Y-94686500D01*
X69666642Y-94734119D01*
X70523785Y-94972214D02*
X70523785Y-95638880D01*
X70285690Y-94591261D02*
X70047595Y-95305547D01*
X70666642Y-95305547D01*
X71095214Y-95638880D02*
X71285690Y-95638880D01*
X71380928Y-95591261D01*
X71428547Y-95543642D01*
X71523785Y-95400785D01*
X71571404Y-95210309D01*
X71571404Y-94829357D01*
X71523785Y-94734119D01*
X71476166Y-94686500D01*
X71380928Y-94638880D01*
X71190452Y-94638880D01*
X71095214Y-94686500D01*
X71047595Y-94734119D01*
X70999976Y-94829357D01*
X70999976Y-95067452D01*
X71047595Y-95162690D01*
X71095214Y-95210309D01*
X71190452Y-95257928D01*
X71380928Y-95257928D01*
X71476166Y-95210309D01*
X71523785Y-95162690D01*
X71571404Y-95067452D01*
G04 #@! TO.C,C48*
X81272142Y-95480142D02*
X81224523Y-95527761D01*
X81081666Y-95575380D01*
X80986428Y-95575380D01*
X80843571Y-95527761D01*
X80748333Y-95432523D01*
X80700714Y-95337285D01*
X80653095Y-95146809D01*
X80653095Y-95003952D01*
X80700714Y-94813476D01*
X80748333Y-94718238D01*
X80843571Y-94623000D01*
X80986428Y-94575380D01*
X81081666Y-94575380D01*
X81224523Y-94623000D01*
X81272142Y-94670619D01*
X82129285Y-94908714D02*
X82129285Y-95575380D01*
X81891190Y-94527761D02*
X81653095Y-95242047D01*
X82272142Y-95242047D01*
X82795952Y-95003952D02*
X82700714Y-94956333D01*
X82653095Y-94908714D01*
X82605476Y-94813476D01*
X82605476Y-94765857D01*
X82653095Y-94670619D01*
X82700714Y-94623000D01*
X82795952Y-94575380D01*
X82986428Y-94575380D01*
X83081666Y-94623000D01*
X83129285Y-94670619D01*
X83176904Y-94765857D01*
X83176904Y-94813476D01*
X83129285Y-94908714D01*
X83081666Y-94956333D01*
X82986428Y-95003952D01*
X82795952Y-95003952D01*
X82700714Y-95051571D01*
X82653095Y-95099190D01*
X82605476Y-95194428D01*
X82605476Y-95384904D01*
X82653095Y-95480142D01*
X82700714Y-95527761D01*
X82795952Y-95575380D01*
X82986428Y-95575380D01*
X83081666Y-95527761D01*
X83129285Y-95480142D01*
X83176904Y-95384904D01*
X83176904Y-95194428D01*
X83129285Y-95099190D01*
X83081666Y-95051571D01*
X82986428Y-95003952D01*
G04 #@! TO.C,C41*
X75049142Y-108434142D02*
X75001523Y-108481761D01*
X74858666Y-108529380D01*
X74763428Y-108529380D01*
X74620571Y-108481761D01*
X74525333Y-108386523D01*
X74477714Y-108291285D01*
X74430095Y-108100809D01*
X74430095Y-107957952D01*
X74477714Y-107767476D01*
X74525333Y-107672238D01*
X74620571Y-107577000D01*
X74763428Y-107529380D01*
X74858666Y-107529380D01*
X75001523Y-107577000D01*
X75049142Y-107624619D01*
X75906285Y-107862714D02*
X75906285Y-108529380D01*
X75668190Y-107481761D02*
X75430095Y-108196047D01*
X76049142Y-108196047D01*
X76953904Y-108529380D02*
X76382476Y-108529380D01*
X76668190Y-108529380D02*
X76668190Y-107529380D01*
X76572952Y-107672238D01*
X76477714Y-107767476D01*
X76382476Y-107815095D01*
G04 #@! TO.C,D2*
X82661380Y-82145095D02*
X81661380Y-82145095D01*
X81661380Y-81907000D01*
X81709000Y-81764142D01*
X81804238Y-81668904D01*
X81899476Y-81621285D01*
X82089952Y-81573666D01*
X82232809Y-81573666D01*
X82423285Y-81621285D01*
X82518523Y-81668904D01*
X82613761Y-81764142D01*
X82661380Y-81907000D01*
X82661380Y-82145095D01*
X81756619Y-81192714D02*
X81709000Y-81145095D01*
X81661380Y-81049857D01*
X81661380Y-80811761D01*
X81709000Y-80716523D01*
X81756619Y-80668904D01*
X81851857Y-80621285D01*
X81947095Y-80621285D01*
X82089952Y-80668904D01*
X82661380Y-81240333D01*
X82661380Y-80621285D01*
G04 #@! TO.C,R31*
X72461380Y-65666857D02*
X71985190Y-66000190D01*
X72461380Y-66238285D02*
X71461380Y-66238285D01*
X71461380Y-65857333D01*
X71509000Y-65762095D01*
X71556619Y-65714476D01*
X71651857Y-65666857D01*
X71794714Y-65666857D01*
X71889952Y-65714476D01*
X71937571Y-65762095D01*
X71985190Y-65857333D01*
X71985190Y-66238285D01*
X71461380Y-65333523D02*
X71461380Y-64714476D01*
X71842333Y-65047809D01*
X71842333Y-64904952D01*
X71889952Y-64809714D01*
X71937571Y-64762095D01*
X72032809Y-64714476D01*
X72270904Y-64714476D01*
X72366142Y-64762095D01*
X72413761Y-64809714D01*
X72461380Y-64904952D01*
X72461380Y-65190666D01*
X72413761Y-65285904D01*
X72366142Y-65333523D01*
X72461380Y-63762095D02*
X72461380Y-64333523D01*
X72461380Y-64047809D02*
X71461380Y-64047809D01*
X71604238Y-64143047D01*
X71699476Y-64238285D01*
X71747095Y-64333523D01*
G04 #@! TO.C,R32*
X72001142Y-79192380D02*
X71667809Y-78716190D01*
X71429714Y-79192380D02*
X71429714Y-78192380D01*
X71810666Y-78192380D01*
X71905904Y-78240000D01*
X71953523Y-78287619D01*
X72001142Y-78382857D01*
X72001142Y-78525714D01*
X71953523Y-78620952D01*
X71905904Y-78668571D01*
X71810666Y-78716190D01*
X71429714Y-78716190D01*
X72334476Y-78192380D02*
X72953523Y-78192380D01*
X72620190Y-78573333D01*
X72763047Y-78573333D01*
X72858285Y-78620952D01*
X72905904Y-78668571D01*
X72953523Y-78763809D01*
X72953523Y-79001904D01*
X72905904Y-79097142D01*
X72858285Y-79144761D01*
X72763047Y-79192380D01*
X72477333Y-79192380D01*
X72382095Y-79144761D01*
X72334476Y-79097142D01*
X73334476Y-78287619D02*
X73382095Y-78240000D01*
X73477333Y-78192380D01*
X73715428Y-78192380D01*
X73810666Y-78240000D01*
X73858285Y-78287619D01*
X73905904Y-78382857D01*
X73905904Y-78478095D01*
X73858285Y-78620952D01*
X73286857Y-79192380D01*
X73905904Y-79192380D01*
G04 #@! TO.C,R33*
X81145142Y-100909380D02*
X80811809Y-100433190D01*
X80573714Y-100909380D02*
X80573714Y-99909380D01*
X80954666Y-99909380D01*
X81049904Y-99957000D01*
X81097523Y-100004619D01*
X81145142Y-100099857D01*
X81145142Y-100242714D01*
X81097523Y-100337952D01*
X81049904Y-100385571D01*
X80954666Y-100433190D01*
X80573714Y-100433190D01*
X81478476Y-99909380D02*
X82097523Y-99909380D01*
X81764190Y-100290333D01*
X81907047Y-100290333D01*
X82002285Y-100337952D01*
X82049904Y-100385571D01*
X82097523Y-100480809D01*
X82097523Y-100718904D01*
X82049904Y-100814142D01*
X82002285Y-100861761D01*
X81907047Y-100909380D01*
X81621333Y-100909380D01*
X81526095Y-100861761D01*
X81478476Y-100814142D01*
X82430857Y-99909380D02*
X83049904Y-99909380D01*
X82716571Y-100290333D01*
X82859428Y-100290333D01*
X82954666Y-100337952D01*
X83002285Y-100385571D01*
X83049904Y-100480809D01*
X83049904Y-100718904D01*
X83002285Y-100814142D01*
X82954666Y-100861761D01*
X82859428Y-100909380D01*
X82573714Y-100909380D01*
X82478476Y-100861761D01*
X82430857Y-100814142D01*
G04 #@! TO.C,R34*
X69588142Y-100909380D02*
X69254809Y-100433190D01*
X69016714Y-100909380D02*
X69016714Y-99909380D01*
X69397666Y-99909380D01*
X69492904Y-99957000D01*
X69540523Y-100004619D01*
X69588142Y-100099857D01*
X69588142Y-100242714D01*
X69540523Y-100337952D01*
X69492904Y-100385571D01*
X69397666Y-100433190D01*
X69016714Y-100433190D01*
X69921476Y-99909380D02*
X70540523Y-99909380D01*
X70207190Y-100290333D01*
X70350047Y-100290333D01*
X70445285Y-100337952D01*
X70492904Y-100385571D01*
X70540523Y-100480809D01*
X70540523Y-100718904D01*
X70492904Y-100814142D01*
X70445285Y-100861761D01*
X70350047Y-100909380D01*
X70064333Y-100909380D01*
X69969095Y-100861761D01*
X69921476Y-100814142D01*
X71397666Y-100242714D02*
X71397666Y-100909380D01*
X71159571Y-99861761D02*
X70921476Y-100576047D01*
X71540523Y-100576047D01*
G04 #@! TO.C,R35*
X88003142Y-88971380D02*
X87669809Y-88495190D01*
X87431714Y-88971380D02*
X87431714Y-87971380D01*
X87812666Y-87971380D01*
X87907904Y-88019000D01*
X87955523Y-88066619D01*
X88003142Y-88161857D01*
X88003142Y-88304714D01*
X87955523Y-88399952D01*
X87907904Y-88447571D01*
X87812666Y-88495190D01*
X87431714Y-88495190D01*
X88336476Y-87971380D02*
X88955523Y-87971380D01*
X88622190Y-88352333D01*
X88765047Y-88352333D01*
X88860285Y-88399952D01*
X88907904Y-88447571D01*
X88955523Y-88542809D01*
X88955523Y-88780904D01*
X88907904Y-88876142D01*
X88860285Y-88923761D01*
X88765047Y-88971380D01*
X88479333Y-88971380D01*
X88384095Y-88923761D01*
X88336476Y-88876142D01*
X89860285Y-87971380D02*
X89384095Y-87971380D01*
X89336476Y-88447571D01*
X89384095Y-88399952D01*
X89479333Y-88352333D01*
X89717428Y-88352333D01*
X89812666Y-88399952D01*
X89860285Y-88447571D01*
X89907904Y-88542809D01*
X89907904Y-88780904D01*
X89860285Y-88876142D01*
X89812666Y-88923761D01*
X89717428Y-88971380D01*
X89479333Y-88971380D01*
X89384095Y-88923761D01*
X89336476Y-88876142D01*
G04 #@! TO.C,R37*
X88638142Y-97353380D02*
X88304809Y-96877190D01*
X88066714Y-97353380D02*
X88066714Y-96353380D01*
X88447666Y-96353380D01*
X88542904Y-96401000D01*
X88590523Y-96448619D01*
X88638142Y-96543857D01*
X88638142Y-96686714D01*
X88590523Y-96781952D01*
X88542904Y-96829571D01*
X88447666Y-96877190D01*
X88066714Y-96877190D01*
X88971476Y-96353380D02*
X89590523Y-96353380D01*
X89257190Y-96734333D01*
X89400047Y-96734333D01*
X89495285Y-96781952D01*
X89542904Y-96829571D01*
X89590523Y-96924809D01*
X89590523Y-97162904D01*
X89542904Y-97258142D01*
X89495285Y-97305761D01*
X89400047Y-97353380D01*
X89114333Y-97353380D01*
X89019095Y-97305761D01*
X88971476Y-97258142D01*
X89923857Y-96353380D02*
X90590523Y-96353380D01*
X90161952Y-97353380D01*
G04 #@! TO.C,R38*
X54856142Y-97988380D02*
X54522809Y-97512190D01*
X54284714Y-97988380D02*
X54284714Y-96988380D01*
X54665666Y-96988380D01*
X54760904Y-97036000D01*
X54808523Y-97083619D01*
X54856142Y-97178857D01*
X54856142Y-97321714D01*
X54808523Y-97416952D01*
X54760904Y-97464571D01*
X54665666Y-97512190D01*
X54284714Y-97512190D01*
X55189476Y-96988380D02*
X55808523Y-96988380D01*
X55475190Y-97369333D01*
X55618047Y-97369333D01*
X55713285Y-97416952D01*
X55760904Y-97464571D01*
X55808523Y-97559809D01*
X55808523Y-97797904D01*
X55760904Y-97893142D01*
X55713285Y-97940761D01*
X55618047Y-97988380D01*
X55332333Y-97988380D01*
X55237095Y-97940761D01*
X55189476Y-97893142D01*
X56379952Y-97416952D02*
X56284714Y-97369333D01*
X56237095Y-97321714D01*
X56189476Y-97226476D01*
X56189476Y-97178857D01*
X56237095Y-97083619D01*
X56284714Y-97036000D01*
X56379952Y-96988380D01*
X56570428Y-96988380D01*
X56665666Y-97036000D01*
X56713285Y-97083619D01*
X56760904Y-97178857D01*
X56760904Y-97226476D01*
X56713285Y-97321714D01*
X56665666Y-97369333D01*
X56570428Y-97416952D01*
X56379952Y-97416952D01*
X56284714Y-97464571D01*
X56237095Y-97512190D01*
X56189476Y-97607428D01*
X56189476Y-97797904D01*
X56237095Y-97893142D01*
X56284714Y-97940761D01*
X56379952Y-97988380D01*
X56570428Y-97988380D01*
X56665666Y-97940761D01*
X56713285Y-97893142D01*
X56760904Y-97797904D01*
X56760904Y-97607428D01*
X56713285Y-97512190D01*
X56665666Y-97464571D01*
X56570428Y-97416952D01*
G04 #@! TO.C,R36*
X58412142Y-87575380D02*
X58078809Y-87099190D01*
X57840714Y-87575380D02*
X57840714Y-86575380D01*
X58221666Y-86575380D01*
X58316904Y-86623000D01*
X58364523Y-86670619D01*
X58412142Y-86765857D01*
X58412142Y-86908714D01*
X58364523Y-87003952D01*
X58316904Y-87051571D01*
X58221666Y-87099190D01*
X57840714Y-87099190D01*
X58745476Y-86575380D02*
X59364523Y-86575380D01*
X59031190Y-86956333D01*
X59174047Y-86956333D01*
X59269285Y-87003952D01*
X59316904Y-87051571D01*
X59364523Y-87146809D01*
X59364523Y-87384904D01*
X59316904Y-87480142D01*
X59269285Y-87527761D01*
X59174047Y-87575380D01*
X58888333Y-87575380D01*
X58793095Y-87527761D01*
X58745476Y-87480142D01*
X60221666Y-86575380D02*
X60031190Y-86575380D01*
X59935952Y-86623000D01*
X59888333Y-86670619D01*
X59793095Y-86813476D01*
X59745476Y-87003952D01*
X59745476Y-87384904D01*
X59793095Y-87480142D01*
X59840714Y-87527761D01*
X59935952Y-87575380D01*
X60126428Y-87575380D01*
X60221666Y-87527761D01*
X60269285Y-87480142D01*
X60316904Y-87384904D01*
X60316904Y-87146809D01*
X60269285Y-87051571D01*
X60221666Y-87003952D01*
X60126428Y-86956333D01*
X59935952Y-86956333D01*
X59840714Y-87003952D01*
X59793095Y-87051571D01*
X59745476Y-87146809D01*
G04 #@! TO.C,C6*
X140819142Y-103290666D02*
X140866761Y-103338285D01*
X140914380Y-103481142D01*
X140914380Y-103576380D01*
X140866761Y-103719238D01*
X140771523Y-103814476D01*
X140676285Y-103862095D01*
X140485809Y-103909714D01*
X140342952Y-103909714D01*
X140152476Y-103862095D01*
X140057238Y-103814476D01*
X139962000Y-103719238D01*
X139914380Y-103576380D01*
X139914380Y-103481142D01*
X139962000Y-103338285D01*
X140009619Y-103290666D01*
X139914380Y-102433523D02*
X139914380Y-102624000D01*
X139962000Y-102719238D01*
X140009619Y-102766857D01*
X140152476Y-102862095D01*
X140342952Y-102909714D01*
X140723904Y-102909714D01*
X140819142Y-102862095D01*
X140866761Y-102814476D01*
X140914380Y-102719238D01*
X140914380Y-102528761D01*
X140866761Y-102433523D01*
X140819142Y-102385904D01*
X140723904Y-102338285D01*
X140485809Y-102338285D01*
X140390571Y-102385904D01*
X140342952Y-102433523D01*
X140295333Y-102528761D01*
X140295333Y-102719238D01*
X140342952Y-102814476D01*
X140390571Y-102862095D01*
X140485809Y-102909714D01*
G04 #@! TO.C,C7*
X140819142Y-99988666D02*
X140866761Y-100036285D01*
X140914380Y-100179142D01*
X140914380Y-100274380D01*
X140866761Y-100417238D01*
X140771523Y-100512476D01*
X140676285Y-100560095D01*
X140485809Y-100607714D01*
X140342952Y-100607714D01*
X140152476Y-100560095D01*
X140057238Y-100512476D01*
X139962000Y-100417238D01*
X139914380Y-100274380D01*
X139914380Y-100179142D01*
X139962000Y-100036285D01*
X140009619Y-99988666D01*
X139914380Y-99655333D02*
X139914380Y-98988666D01*
X140914380Y-99417238D01*
G04 #@! TO.C,R5*
X131960880Y-101576166D02*
X131484690Y-101909500D01*
X131960880Y-102147595D02*
X130960880Y-102147595D01*
X130960880Y-101766642D01*
X131008500Y-101671404D01*
X131056119Y-101623785D01*
X131151357Y-101576166D01*
X131294214Y-101576166D01*
X131389452Y-101623785D01*
X131437071Y-101671404D01*
X131484690Y-101766642D01*
X131484690Y-102147595D01*
X130960880Y-100671404D02*
X130960880Y-101147595D01*
X131437071Y-101195214D01*
X131389452Y-101147595D01*
X131341833Y-101052357D01*
X131341833Y-100814261D01*
X131389452Y-100719023D01*
X131437071Y-100671404D01*
X131532309Y-100623785D01*
X131770404Y-100623785D01*
X131865642Y-100671404D01*
X131913261Y-100719023D01*
X131960880Y-100814261D01*
X131960880Y-101052357D01*
X131913261Y-101147595D01*
X131865642Y-101195214D01*
G04 #@! TO.C,C17*
X129278142Y-112370142D02*
X129230523Y-112417761D01*
X129087666Y-112465380D01*
X128992428Y-112465380D01*
X128849571Y-112417761D01*
X128754333Y-112322523D01*
X128706714Y-112227285D01*
X128659095Y-112036809D01*
X128659095Y-111893952D01*
X128706714Y-111703476D01*
X128754333Y-111608238D01*
X128849571Y-111513000D01*
X128992428Y-111465380D01*
X129087666Y-111465380D01*
X129230523Y-111513000D01*
X129278142Y-111560619D01*
X130230523Y-112465380D02*
X129659095Y-112465380D01*
X129944809Y-112465380D02*
X129944809Y-111465380D01*
X129849571Y-111608238D01*
X129754333Y-111703476D01*
X129659095Y-111751095D01*
X130563857Y-111465380D02*
X131230523Y-111465380D01*
X130801952Y-112465380D01*
G04 #@! TO.C,C12*
X114878142Y-105290857D02*
X114925761Y-105338476D01*
X114973380Y-105481333D01*
X114973380Y-105576571D01*
X114925761Y-105719428D01*
X114830523Y-105814666D01*
X114735285Y-105862285D01*
X114544809Y-105909904D01*
X114401952Y-105909904D01*
X114211476Y-105862285D01*
X114116238Y-105814666D01*
X114021000Y-105719428D01*
X113973380Y-105576571D01*
X113973380Y-105481333D01*
X114021000Y-105338476D01*
X114068619Y-105290857D01*
X114973380Y-104338476D02*
X114973380Y-104909904D01*
X114973380Y-104624190D02*
X113973380Y-104624190D01*
X114116238Y-104719428D01*
X114211476Y-104814666D01*
X114259095Y-104909904D01*
X114068619Y-103957523D02*
X114021000Y-103909904D01*
X113973380Y-103814666D01*
X113973380Y-103576571D01*
X114021000Y-103481333D01*
X114068619Y-103433714D01*
X114163857Y-103386095D01*
X114259095Y-103386095D01*
X114401952Y-103433714D01*
X114973380Y-104005142D01*
X114973380Y-103386095D01*
G04 #@! TO.C,C11*
X127373142Y-89732142D02*
X127325523Y-89779761D01*
X127182666Y-89827380D01*
X127087428Y-89827380D01*
X126944571Y-89779761D01*
X126849333Y-89684523D01*
X126801714Y-89589285D01*
X126754095Y-89398809D01*
X126754095Y-89255952D01*
X126801714Y-89065476D01*
X126849333Y-88970238D01*
X126944571Y-88875000D01*
X127087428Y-88827380D01*
X127182666Y-88827380D01*
X127325523Y-88875000D01*
X127373142Y-88922619D01*
X128325523Y-89827380D02*
X127754095Y-89827380D01*
X128039809Y-89827380D02*
X128039809Y-88827380D01*
X127944571Y-88970238D01*
X127849333Y-89065476D01*
X127754095Y-89113095D01*
X129277904Y-89827380D02*
X128706476Y-89827380D01*
X128992190Y-89827380D02*
X128992190Y-88827380D01*
X128896952Y-88970238D01*
X128801714Y-89065476D01*
X128706476Y-89113095D01*
G04 #@! TO.C,C10*
X128833642Y-107240342D02*
X128786023Y-107287961D01*
X128643166Y-107335580D01*
X128547928Y-107335580D01*
X128405071Y-107287961D01*
X128309833Y-107192723D01*
X128262214Y-107097485D01*
X128214595Y-106907009D01*
X128214595Y-106764152D01*
X128262214Y-106573676D01*
X128309833Y-106478438D01*
X128405071Y-106383200D01*
X128547928Y-106335580D01*
X128643166Y-106335580D01*
X128786023Y-106383200D01*
X128833642Y-106430819D01*
X129786023Y-107335580D02*
X129214595Y-107335580D01*
X129500309Y-107335580D02*
X129500309Y-106335580D01*
X129405071Y-106478438D01*
X129309833Y-106573676D01*
X129214595Y-106621295D01*
X130405071Y-106335580D02*
X130500309Y-106335580D01*
X130595547Y-106383200D01*
X130643166Y-106430819D01*
X130690785Y-106526057D01*
X130738404Y-106716533D01*
X130738404Y-106954628D01*
X130690785Y-107145104D01*
X130643166Y-107240342D01*
X130595547Y-107287961D01*
X130500309Y-107335580D01*
X130405071Y-107335580D01*
X130309833Y-107287961D01*
X130262214Y-107240342D01*
X130214595Y-107145104D01*
X130166976Y-106954628D01*
X130166976Y-106716533D01*
X130214595Y-106526057D01*
X130262214Y-106430819D01*
X130309833Y-106383200D01*
X130405071Y-106335580D01*
G04 #@! TO.C,C8*
X117054333Y-91543142D02*
X117006714Y-91590761D01*
X116863857Y-91638380D01*
X116768619Y-91638380D01*
X116625761Y-91590761D01*
X116530523Y-91495523D01*
X116482904Y-91400285D01*
X116435285Y-91209809D01*
X116435285Y-91066952D01*
X116482904Y-90876476D01*
X116530523Y-90781238D01*
X116625761Y-90686000D01*
X116768619Y-90638380D01*
X116863857Y-90638380D01*
X117006714Y-90686000D01*
X117054333Y-90733619D01*
X117625761Y-91066952D02*
X117530523Y-91019333D01*
X117482904Y-90971714D01*
X117435285Y-90876476D01*
X117435285Y-90828857D01*
X117482904Y-90733619D01*
X117530523Y-90686000D01*
X117625761Y-90638380D01*
X117816238Y-90638380D01*
X117911476Y-90686000D01*
X117959095Y-90733619D01*
X118006714Y-90828857D01*
X118006714Y-90876476D01*
X117959095Y-90971714D01*
X117911476Y-91019333D01*
X117816238Y-91066952D01*
X117625761Y-91066952D01*
X117530523Y-91114571D01*
X117482904Y-91162190D01*
X117435285Y-91257428D01*
X117435285Y-91447904D01*
X117482904Y-91543142D01*
X117530523Y-91590761D01*
X117625761Y-91638380D01*
X117816238Y-91638380D01*
X117911476Y-91590761D01*
X117959095Y-91543142D01*
X118006714Y-91447904D01*
X118006714Y-91257428D01*
X117959095Y-91162190D01*
X117911476Y-91114571D01*
X117816238Y-91066952D01*
G04 #@! TO.C,Q1*
X134905761Y-73532619D02*
X134810523Y-73485000D01*
X134715285Y-73389761D01*
X134572428Y-73246904D01*
X134477190Y-73199285D01*
X134381952Y-73199285D01*
X134429571Y-73437380D02*
X134334333Y-73389761D01*
X134239095Y-73294523D01*
X134191476Y-73104047D01*
X134191476Y-72770714D01*
X134239095Y-72580238D01*
X134334333Y-72485000D01*
X134429571Y-72437380D01*
X134620047Y-72437380D01*
X134715285Y-72485000D01*
X134810523Y-72580238D01*
X134858142Y-72770714D01*
X134858142Y-73104047D01*
X134810523Y-73294523D01*
X134715285Y-73389761D01*
X134620047Y-73437380D01*
X134429571Y-73437380D01*
X135810523Y-73437380D02*
X135239095Y-73437380D01*
X135524809Y-73437380D02*
X135524809Y-72437380D01*
X135429571Y-72580238D01*
X135334333Y-72675476D01*
X135239095Y-72723095D01*
G04 #@! TO.C,D5*
X113101380Y-71096095D02*
X112101380Y-71096095D01*
X112101380Y-70858000D01*
X112149000Y-70715142D01*
X112244238Y-70619904D01*
X112339476Y-70572285D01*
X112529952Y-70524666D01*
X112672809Y-70524666D01*
X112863285Y-70572285D01*
X112958523Y-70619904D01*
X113053761Y-70715142D01*
X113101380Y-70858000D01*
X113101380Y-71096095D01*
X112101380Y-69619904D02*
X112101380Y-70096095D01*
X112577571Y-70143714D01*
X112529952Y-70096095D01*
X112482333Y-70000857D01*
X112482333Y-69762761D01*
X112529952Y-69667523D01*
X112577571Y-69619904D01*
X112672809Y-69572285D01*
X112910904Y-69572285D01*
X113006142Y-69619904D01*
X113053761Y-69667523D01*
X113101380Y-69762761D01*
X113101380Y-70000857D01*
X113053761Y-70096095D01*
X113006142Y-70143714D01*
G04 #@! TO.C,D4*
X61666380Y-73763095D02*
X60666380Y-73763095D01*
X60666380Y-73525000D01*
X60714000Y-73382142D01*
X60809238Y-73286904D01*
X60904476Y-73239285D01*
X61094952Y-73191666D01*
X61237809Y-73191666D01*
X61428285Y-73239285D01*
X61523523Y-73286904D01*
X61618761Y-73382142D01*
X61666380Y-73525000D01*
X61666380Y-73763095D01*
X60999714Y-72334523D02*
X61666380Y-72334523D01*
X60618761Y-72572619D02*
X61333047Y-72810714D01*
X61333047Y-72191666D01*
G04 #@! TO.C,D1*
X82788380Y-90019095D02*
X81788380Y-90019095D01*
X81788380Y-89781000D01*
X81836000Y-89638142D01*
X81931238Y-89542904D01*
X82026476Y-89495285D01*
X82216952Y-89447666D01*
X82359809Y-89447666D01*
X82550285Y-89495285D01*
X82645523Y-89542904D01*
X82740761Y-89638142D01*
X82788380Y-89781000D01*
X82788380Y-90019095D01*
X82788380Y-88495285D02*
X82788380Y-89066714D01*
X82788380Y-88781000D02*
X81788380Y-88781000D01*
X81931238Y-88876238D01*
X82026476Y-88971476D01*
X82074095Y-89066714D01*
G04 #@! TO.C,D3*
X57856380Y-73890095D02*
X56856380Y-73890095D01*
X56856380Y-73652000D01*
X56904000Y-73509142D01*
X56999238Y-73413904D01*
X57094476Y-73366285D01*
X57284952Y-73318666D01*
X57427809Y-73318666D01*
X57618285Y-73366285D01*
X57713523Y-73413904D01*
X57808761Y-73509142D01*
X57856380Y-73652000D01*
X57856380Y-73890095D01*
X56856380Y-72985333D02*
X56856380Y-72366285D01*
X57237333Y-72699619D01*
X57237333Y-72556761D01*
X57284952Y-72461523D01*
X57332571Y-72413904D01*
X57427809Y-72366285D01*
X57665904Y-72366285D01*
X57761142Y-72413904D01*
X57808761Y-72461523D01*
X57856380Y-72556761D01*
X57856380Y-72842476D01*
X57808761Y-72937714D01*
X57761142Y-72985333D01*
G04 #@! TO.C,C1*
X117435333Y-89384142D02*
X117387714Y-89431761D01*
X117244857Y-89479380D01*
X117149619Y-89479380D01*
X117006761Y-89431761D01*
X116911523Y-89336523D01*
X116863904Y-89241285D01*
X116816285Y-89050809D01*
X116816285Y-88907952D01*
X116863904Y-88717476D01*
X116911523Y-88622238D01*
X117006761Y-88527000D01*
X117149619Y-88479380D01*
X117244857Y-88479380D01*
X117387714Y-88527000D01*
X117435333Y-88574619D01*
X118387714Y-89479380D02*
X117816285Y-89479380D01*
X118102000Y-89479380D02*
X118102000Y-88479380D01*
X118006761Y-88622238D01*
X117911523Y-88717476D01*
X117816285Y-88765095D01*
G04 #@! TO.C,C13*
X137517142Y-93860857D02*
X137564761Y-93908476D01*
X137612380Y-94051333D01*
X137612380Y-94146571D01*
X137564761Y-94289428D01*
X137469523Y-94384666D01*
X137374285Y-94432285D01*
X137183809Y-94479904D01*
X137040952Y-94479904D01*
X136850476Y-94432285D01*
X136755238Y-94384666D01*
X136660000Y-94289428D01*
X136612380Y-94146571D01*
X136612380Y-94051333D01*
X136660000Y-93908476D01*
X136707619Y-93860857D01*
X137612380Y-92908476D02*
X137612380Y-93479904D01*
X137612380Y-93194190D02*
X136612380Y-93194190D01*
X136755238Y-93289428D01*
X136850476Y-93384666D01*
X136898095Y-93479904D01*
X136612380Y-92575142D02*
X136612380Y-91956095D01*
X136993333Y-92289428D01*
X136993333Y-92146571D01*
X137040952Y-92051333D01*
X137088571Y-92003714D01*
X137183809Y-91956095D01*
X137421904Y-91956095D01*
X137517142Y-92003714D01*
X137564761Y-92051333D01*
X137612380Y-92146571D01*
X137612380Y-92432285D01*
X137564761Y-92527523D01*
X137517142Y-92575142D01*
G04 #@! TO.C,C18*
X102989142Y-60556142D02*
X102941523Y-60603761D01*
X102798666Y-60651380D01*
X102703428Y-60651380D01*
X102560571Y-60603761D01*
X102465333Y-60508523D01*
X102417714Y-60413285D01*
X102370095Y-60222809D01*
X102370095Y-60079952D01*
X102417714Y-59889476D01*
X102465333Y-59794238D01*
X102560571Y-59699000D01*
X102703428Y-59651380D01*
X102798666Y-59651380D01*
X102941523Y-59699000D01*
X102989142Y-59746619D01*
X103941523Y-60651380D02*
X103370095Y-60651380D01*
X103655809Y-60651380D02*
X103655809Y-59651380D01*
X103560571Y-59794238D01*
X103465333Y-59889476D01*
X103370095Y-59937095D01*
X104512952Y-60079952D02*
X104417714Y-60032333D01*
X104370095Y-59984714D01*
X104322476Y-59889476D01*
X104322476Y-59841857D01*
X104370095Y-59746619D01*
X104417714Y-59699000D01*
X104512952Y-59651380D01*
X104703428Y-59651380D01*
X104798666Y-59699000D01*
X104846285Y-59746619D01*
X104893904Y-59841857D01*
X104893904Y-59889476D01*
X104846285Y-59984714D01*
X104798666Y-60032333D01*
X104703428Y-60079952D01*
X104512952Y-60079952D01*
X104417714Y-60127571D01*
X104370095Y-60175190D01*
X104322476Y-60270428D01*
X104322476Y-60460904D01*
X104370095Y-60556142D01*
X104417714Y-60603761D01*
X104512952Y-60651380D01*
X104703428Y-60651380D01*
X104798666Y-60603761D01*
X104846285Y-60556142D01*
X104893904Y-60460904D01*
X104893904Y-60270428D01*
X104846285Y-60175190D01*
X104798666Y-60127571D01*
X104703428Y-60079952D01*
G04 #@! TO.C,C20*
X70715142Y-57411857D02*
X70762761Y-57459476D01*
X70810380Y-57602333D01*
X70810380Y-57697571D01*
X70762761Y-57840428D01*
X70667523Y-57935666D01*
X70572285Y-57983285D01*
X70381809Y-58030904D01*
X70238952Y-58030904D01*
X70048476Y-57983285D01*
X69953238Y-57935666D01*
X69858000Y-57840428D01*
X69810380Y-57697571D01*
X69810380Y-57602333D01*
X69858000Y-57459476D01*
X69905619Y-57411857D01*
X69905619Y-57030904D02*
X69858000Y-56983285D01*
X69810380Y-56888047D01*
X69810380Y-56649952D01*
X69858000Y-56554714D01*
X69905619Y-56507095D01*
X70000857Y-56459476D01*
X70096095Y-56459476D01*
X70238952Y-56507095D01*
X70810380Y-57078523D01*
X70810380Y-56459476D01*
X69810380Y-55840428D02*
X69810380Y-55745190D01*
X69858000Y-55649952D01*
X69905619Y-55602333D01*
X70000857Y-55554714D01*
X70191333Y-55507095D01*
X70429428Y-55507095D01*
X70619904Y-55554714D01*
X70715142Y-55602333D01*
X70762761Y-55649952D01*
X70810380Y-55745190D01*
X70810380Y-55840428D01*
X70762761Y-55935666D01*
X70715142Y-55983285D01*
X70619904Y-56030904D01*
X70429428Y-56078523D01*
X70191333Y-56078523D01*
X70000857Y-56030904D01*
X69905619Y-55983285D01*
X69858000Y-55935666D01*
X69810380Y-55840428D01*
G04 #@! TO.C,C21*
X98020142Y-70937357D02*
X98067761Y-70984976D01*
X98115380Y-71127833D01*
X98115380Y-71223071D01*
X98067761Y-71365928D01*
X97972523Y-71461166D01*
X97877285Y-71508785D01*
X97686809Y-71556404D01*
X97543952Y-71556404D01*
X97353476Y-71508785D01*
X97258238Y-71461166D01*
X97163000Y-71365928D01*
X97115380Y-71223071D01*
X97115380Y-71127833D01*
X97163000Y-70984976D01*
X97210619Y-70937357D01*
X97210619Y-70556404D02*
X97163000Y-70508785D01*
X97115380Y-70413547D01*
X97115380Y-70175452D01*
X97163000Y-70080214D01*
X97210619Y-70032595D01*
X97305857Y-69984976D01*
X97401095Y-69984976D01*
X97543952Y-70032595D01*
X98115380Y-70604023D01*
X98115380Y-69984976D01*
X98115380Y-69032595D02*
X98115380Y-69604023D01*
X98115380Y-69318309D02*
X97115380Y-69318309D01*
X97258238Y-69413547D01*
X97353476Y-69508785D01*
X97401095Y-69604023D01*
G04 #@! TO.C,C23*
X92306142Y-71127857D02*
X92353761Y-71175476D01*
X92401380Y-71318333D01*
X92401380Y-71413571D01*
X92353761Y-71556428D01*
X92258523Y-71651666D01*
X92163285Y-71699285D01*
X91972809Y-71746904D01*
X91829952Y-71746904D01*
X91639476Y-71699285D01*
X91544238Y-71651666D01*
X91449000Y-71556428D01*
X91401380Y-71413571D01*
X91401380Y-71318333D01*
X91449000Y-71175476D01*
X91496619Y-71127857D01*
X91496619Y-70746904D02*
X91449000Y-70699285D01*
X91401380Y-70604047D01*
X91401380Y-70365952D01*
X91449000Y-70270714D01*
X91496619Y-70223095D01*
X91591857Y-70175476D01*
X91687095Y-70175476D01*
X91829952Y-70223095D01*
X92401380Y-70794523D01*
X92401380Y-70175476D01*
X91401380Y-69842142D02*
X91401380Y-69223095D01*
X91782333Y-69556428D01*
X91782333Y-69413571D01*
X91829952Y-69318333D01*
X91877571Y-69270714D01*
X91972809Y-69223095D01*
X92210904Y-69223095D01*
X92306142Y-69270714D01*
X92353761Y-69318333D01*
X92401380Y-69413571D01*
X92401380Y-69699285D01*
X92353761Y-69794523D01*
X92306142Y-69842142D01*
G04 #@! TO.C,C24*
X104751142Y-65666857D02*
X104798761Y-65714476D01*
X104846380Y-65857333D01*
X104846380Y-65952571D01*
X104798761Y-66095428D01*
X104703523Y-66190666D01*
X104608285Y-66238285D01*
X104417809Y-66285904D01*
X104274952Y-66285904D01*
X104084476Y-66238285D01*
X103989238Y-66190666D01*
X103894000Y-66095428D01*
X103846380Y-65952571D01*
X103846380Y-65857333D01*
X103894000Y-65714476D01*
X103941619Y-65666857D01*
X103941619Y-65285904D02*
X103894000Y-65238285D01*
X103846380Y-65143047D01*
X103846380Y-64904952D01*
X103894000Y-64809714D01*
X103941619Y-64762095D01*
X104036857Y-64714476D01*
X104132095Y-64714476D01*
X104274952Y-64762095D01*
X104846380Y-65333523D01*
X104846380Y-64714476D01*
X104179714Y-63857333D02*
X104846380Y-63857333D01*
X103798761Y-64095428D02*
X104513047Y-64333523D01*
X104513047Y-63714476D01*
G04 #@! TO.C,C27*
X94607142Y-111863142D02*
X94559523Y-111910761D01*
X94416666Y-111958380D01*
X94321428Y-111958380D01*
X94178571Y-111910761D01*
X94083333Y-111815523D01*
X94035714Y-111720285D01*
X93988095Y-111529809D01*
X93988095Y-111386952D01*
X94035714Y-111196476D01*
X94083333Y-111101238D01*
X94178571Y-111006000D01*
X94321428Y-110958380D01*
X94416666Y-110958380D01*
X94559523Y-111006000D01*
X94607142Y-111053619D01*
X94988095Y-111053619D02*
X95035714Y-111006000D01*
X95130952Y-110958380D01*
X95369047Y-110958380D01*
X95464285Y-111006000D01*
X95511904Y-111053619D01*
X95559523Y-111148857D01*
X95559523Y-111244095D01*
X95511904Y-111386952D01*
X94940476Y-111958380D01*
X95559523Y-111958380D01*
X95892857Y-110958380D02*
X96559523Y-110958380D01*
X96130952Y-111958380D01*
G04 #@! TO.C,C28*
X110482597Y-81105601D02*
X110434978Y-81153220D01*
X110292121Y-81200839D01*
X110196883Y-81200839D01*
X110054026Y-81153220D01*
X109958788Y-81057982D01*
X109911169Y-80962744D01*
X109863550Y-80772268D01*
X109863550Y-80629411D01*
X109911169Y-80438935D01*
X109958788Y-80343697D01*
X110054026Y-80248459D01*
X110196883Y-80200839D01*
X110292121Y-80200839D01*
X110434978Y-80248459D01*
X110482597Y-80296078D01*
X110863550Y-80296078D02*
X110911169Y-80248459D01*
X111006407Y-80200839D01*
X111244502Y-80200839D01*
X111339740Y-80248459D01*
X111387359Y-80296078D01*
X111434978Y-80391316D01*
X111434978Y-80486554D01*
X111387359Y-80629411D01*
X110815931Y-81200839D01*
X111434978Y-81200839D01*
X112006407Y-80629411D02*
X111911169Y-80581792D01*
X111863550Y-80534173D01*
X111815931Y-80438935D01*
X111815931Y-80391316D01*
X111863550Y-80296078D01*
X111911169Y-80248459D01*
X112006407Y-80200839D01*
X112196883Y-80200839D01*
X112292121Y-80248459D01*
X112339740Y-80296078D01*
X112387359Y-80391316D01*
X112387359Y-80438935D01*
X112339740Y-80534173D01*
X112292121Y-80581792D01*
X112196883Y-80629411D01*
X112006407Y-80629411D01*
X111911169Y-80677030D01*
X111863550Y-80724649D01*
X111815931Y-80819887D01*
X111815931Y-81010363D01*
X111863550Y-81105601D01*
X111911169Y-81153220D01*
X112006407Y-81200839D01*
X112196883Y-81200839D01*
X112292121Y-81153220D01*
X112339740Y-81105601D01*
X112387359Y-81010363D01*
X112387359Y-80819887D01*
X112339740Y-80724649D01*
X112292121Y-80677030D01*
X112196883Y-80629411D01*
G04 #@! TO.C,C29*
X110546097Y-83391601D02*
X110498478Y-83439220D01*
X110355621Y-83486839D01*
X110260383Y-83486839D01*
X110117526Y-83439220D01*
X110022288Y-83343982D01*
X109974669Y-83248744D01*
X109927050Y-83058268D01*
X109927050Y-82915411D01*
X109974669Y-82724935D01*
X110022288Y-82629697D01*
X110117526Y-82534459D01*
X110260383Y-82486839D01*
X110355621Y-82486839D01*
X110498478Y-82534459D01*
X110546097Y-82582078D01*
X110927050Y-82582078D02*
X110974669Y-82534459D01*
X111069907Y-82486839D01*
X111308002Y-82486839D01*
X111403240Y-82534459D01*
X111450859Y-82582078D01*
X111498478Y-82677316D01*
X111498478Y-82772554D01*
X111450859Y-82915411D01*
X110879431Y-83486839D01*
X111498478Y-83486839D01*
X111974669Y-83486839D02*
X112165145Y-83486839D01*
X112260383Y-83439220D01*
X112308002Y-83391601D01*
X112403240Y-83248744D01*
X112450859Y-83058268D01*
X112450859Y-82677316D01*
X112403240Y-82582078D01*
X112355621Y-82534459D01*
X112260383Y-82486839D01*
X112069907Y-82486839D01*
X111974669Y-82534459D01*
X111927050Y-82582078D01*
X111879431Y-82677316D01*
X111879431Y-82915411D01*
X111927050Y-83010649D01*
X111974669Y-83058268D01*
X112069907Y-83105887D01*
X112260383Y-83105887D01*
X112355621Y-83058268D01*
X112403240Y-83010649D01*
X112450859Y-82915411D01*
G04 #@! TO.C,C14*
X135104142Y-93860857D02*
X135151761Y-93908476D01*
X135199380Y-94051333D01*
X135199380Y-94146571D01*
X135151761Y-94289428D01*
X135056523Y-94384666D01*
X134961285Y-94432285D01*
X134770809Y-94479904D01*
X134627952Y-94479904D01*
X134437476Y-94432285D01*
X134342238Y-94384666D01*
X134247000Y-94289428D01*
X134199380Y-94146571D01*
X134199380Y-94051333D01*
X134247000Y-93908476D01*
X134294619Y-93860857D01*
X135199380Y-92908476D02*
X135199380Y-93479904D01*
X135199380Y-93194190D02*
X134199380Y-93194190D01*
X134342238Y-93289428D01*
X134437476Y-93384666D01*
X134485095Y-93479904D01*
X134532714Y-92051333D02*
X135199380Y-92051333D01*
X134151761Y-92289428D02*
X134866047Y-92527523D01*
X134866047Y-91908476D01*
G04 #@! TO.C,C26*
X107561142Y-99417142D02*
X107513523Y-99464761D01*
X107370666Y-99512380D01*
X107275428Y-99512380D01*
X107132571Y-99464761D01*
X107037333Y-99369523D01*
X106989714Y-99274285D01*
X106942095Y-99083809D01*
X106942095Y-98940952D01*
X106989714Y-98750476D01*
X107037333Y-98655238D01*
X107132571Y-98560000D01*
X107275428Y-98512380D01*
X107370666Y-98512380D01*
X107513523Y-98560000D01*
X107561142Y-98607619D01*
X107942095Y-98607619D02*
X107989714Y-98560000D01*
X108084952Y-98512380D01*
X108323047Y-98512380D01*
X108418285Y-98560000D01*
X108465904Y-98607619D01*
X108513523Y-98702857D01*
X108513523Y-98798095D01*
X108465904Y-98940952D01*
X107894476Y-99512380D01*
X108513523Y-99512380D01*
X109370666Y-98512380D02*
X109180190Y-98512380D01*
X109084952Y-98560000D01*
X109037333Y-98607619D01*
X108942095Y-98750476D01*
X108894476Y-98940952D01*
X108894476Y-99321904D01*
X108942095Y-99417142D01*
X108989714Y-99464761D01*
X109084952Y-99512380D01*
X109275428Y-99512380D01*
X109370666Y-99464761D01*
X109418285Y-99417142D01*
X109465904Y-99321904D01*
X109465904Y-99083809D01*
X109418285Y-98988571D01*
X109370666Y-98940952D01*
X109275428Y-98893333D01*
X109084952Y-98893333D01*
X108989714Y-98940952D01*
X108942095Y-98988571D01*
X108894476Y-99083809D01*
G04 #@! TO.C,C125*
X128017542Y-132957747D02*
X128065161Y-133005366D01*
X128112780Y-133148223D01*
X128112780Y-133243461D01*
X128065161Y-133386319D01*
X127969923Y-133481557D01*
X127874685Y-133529176D01*
X127684209Y-133576795D01*
X127541352Y-133576795D01*
X127350876Y-133529176D01*
X127255638Y-133481557D01*
X127160400Y-133386319D01*
X127112780Y-133243461D01*
X127112780Y-133148223D01*
X127160400Y-133005366D01*
X127208019Y-132957747D01*
X128112780Y-132005366D02*
X128112780Y-132576795D01*
X128112780Y-132291080D02*
X127112780Y-132291080D01*
X127255638Y-132386319D01*
X127350876Y-132481557D01*
X127398495Y-132576795D01*
X127208019Y-131624414D02*
X127160400Y-131576795D01*
X127112780Y-131481557D01*
X127112780Y-131243461D01*
X127160400Y-131148223D01*
X127208019Y-131100604D01*
X127303257Y-131052985D01*
X127398495Y-131052985D01*
X127541352Y-131100604D01*
X128112780Y-131672033D01*
X128112780Y-131052985D01*
X127112780Y-130148223D02*
X127112780Y-130624414D01*
X127588971Y-130672033D01*
X127541352Y-130624414D01*
X127493733Y-130529176D01*
X127493733Y-130291080D01*
X127541352Y-130195842D01*
X127588971Y-130148223D01*
X127684209Y-130100604D01*
X127922304Y-130100604D01*
X128017542Y-130148223D01*
X128065161Y-130195842D01*
X128112780Y-130291080D01*
X128112780Y-130529176D01*
X128065161Y-130624414D01*
X128017542Y-130672033D01*
G04 #@! TO.C,C126*
X133729552Y-127484142D02*
X133681933Y-127531761D01*
X133539076Y-127579380D01*
X133443838Y-127579380D01*
X133300980Y-127531761D01*
X133205742Y-127436523D01*
X133158123Y-127341285D01*
X133110504Y-127150809D01*
X133110504Y-127007952D01*
X133158123Y-126817476D01*
X133205742Y-126722238D01*
X133300980Y-126627000D01*
X133443838Y-126579380D01*
X133539076Y-126579380D01*
X133681933Y-126627000D01*
X133729552Y-126674619D01*
X134681933Y-127579380D02*
X134110504Y-127579380D01*
X134396219Y-127579380D02*
X134396219Y-126579380D01*
X134300980Y-126722238D01*
X134205742Y-126817476D01*
X134110504Y-126865095D01*
X135062885Y-126674619D02*
X135110504Y-126627000D01*
X135205742Y-126579380D01*
X135443838Y-126579380D01*
X135539076Y-126627000D01*
X135586695Y-126674619D01*
X135634314Y-126769857D01*
X135634314Y-126865095D01*
X135586695Y-127007952D01*
X135015266Y-127579380D01*
X135634314Y-127579380D01*
X136491457Y-126579380D02*
X136300980Y-126579380D01*
X136205742Y-126627000D01*
X136158123Y-126674619D01*
X136062885Y-126817476D01*
X136015266Y-127007952D01*
X136015266Y-127388904D01*
X136062885Y-127484142D01*
X136110504Y-127531761D01*
X136205742Y-127579380D01*
X136396219Y-127579380D01*
X136491457Y-127531761D01*
X136539076Y-127484142D01*
X136586695Y-127388904D01*
X136586695Y-127150809D01*
X136539076Y-127055571D01*
X136491457Y-127007952D01*
X136396219Y-126960333D01*
X136205742Y-126960333D01*
X136110504Y-127007952D01*
X136062885Y-127055571D01*
X136015266Y-127150809D01*
G04 #@! TO.C,J2*
X121035380Y-138382333D02*
X121749666Y-138382333D01*
X121892523Y-138429952D01*
X121987761Y-138525190D01*
X122035380Y-138668047D01*
X122035380Y-138763285D01*
X121130619Y-137953761D02*
X121083000Y-137906142D01*
X121035380Y-137810904D01*
X121035380Y-137572809D01*
X121083000Y-137477571D01*
X121130619Y-137429952D01*
X121225857Y-137382333D01*
X121321095Y-137382333D01*
X121463952Y-137429952D01*
X122035380Y-138001380D01*
X122035380Y-137382333D01*
G04 #@! TO.C,J4*
X107319380Y-146129333D02*
X108033666Y-146129333D01*
X108176523Y-146176952D01*
X108271761Y-146272190D01*
X108319380Y-146415047D01*
X108319380Y-146510285D01*
X107652714Y-145224571D02*
X108319380Y-145224571D01*
X107271761Y-145462666D02*
X107986047Y-145700761D01*
X107986047Y-145081714D01*
G04 #@! TO.C,Y1*
X135993190Y-106140190D02*
X136469380Y-106140190D01*
X135469380Y-106473523D02*
X135993190Y-106140190D01*
X135469380Y-105806857D01*
X136469380Y-104949714D02*
X136469380Y-105521142D01*
X136469380Y-105235428D02*
X135469380Y-105235428D01*
X135612238Y-105330666D01*
X135707476Y-105425904D01*
X135755095Y-105521142D01*
G04 #@! TO.C,L2*
X108275380Y-70651666D02*
X108275380Y-71127857D01*
X107275380Y-71127857D01*
X107370619Y-70365952D02*
X107323000Y-70318333D01*
X107275380Y-70223095D01*
X107275380Y-69985000D01*
X107323000Y-69889761D01*
X107370619Y-69842142D01*
X107465857Y-69794523D01*
X107561095Y-69794523D01*
X107703952Y-69842142D01*
X108275380Y-70413571D01*
X108275380Y-69794523D01*
G04 #@! TO.C,D6*
X132912380Y-139041095D02*
X131912380Y-139041095D01*
X131912380Y-138803000D01*
X131960000Y-138660142D01*
X132055238Y-138564904D01*
X132150476Y-138517285D01*
X132340952Y-138469666D01*
X132483809Y-138469666D01*
X132674285Y-138517285D01*
X132769523Y-138564904D01*
X132864761Y-138660142D01*
X132912380Y-138803000D01*
X132912380Y-139041095D01*
X131912380Y-137612523D02*
X131912380Y-137803000D01*
X131960000Y-137898238D01*
X132007619Y-137945857D01*
X132150476Y-138041095D01*
X132340952Y-138088714D01*
X132721904Y-138088714D01*
X132817142Y-138041095D01*
X132864761Y-137993476D01*
X132912380Y-137898238D01*
X132912380Y-137707761D01*
X132864761Y-137612523D01*
X132817142Y-137564904D01*
X132721904Y-137517285D01*
X132483809Y-137517285D01*
X132388571Y-137564904D01*
X132340952Y-137612523D01*
X132293333Y-137707761D01*
X132293333Y-137898238D01*
X132340952Y-137993476D01*
X132388571Y-138041095D01*
X132483809Y-138088714D01*
G04 #@! TO.C,U2*
X123698095Y-106474380D02*
X123698095Y-107283904D01*
X123745714Y-107379142D01*
X123793333Y-107426761D01*
X123888571Y-107474380D01*
X124079047Y-107474380D01*
X124174285Y-107426761D01*
X124221904Y-107379142D01*
X124269523Y-107283904D01*
X124269523Y-106474380D01*
X124698095Y-106569619D02*
X124745714Y-106522000D01*
X124840952Y-106474380D01*
X125079047Y-106474380D01*
X125174285Y-106522000D01*
X125221904Y-106569619D01*
X125269523Y-106664857D01*
X125269523Y-106760095D01*
X125221904Y-106902952D01*
X124650476Y-107474380D01*
X125269523Y-107474380D01*
G04 #@! TO.C,U3*
X102774380Y-68833904D02*
X103583904Y-68833904D01*
X103679142Y-68786285D01*
X103726761Y-68738666D01*
X103774380Y-68643428D01*
X103774380Y-68452952D01*
X103726761Y-68357714D01*
X103679142Y-68310095D01*
X103583904Y-68262476D01*
X102774380Y-68262476D01*
X102774380Y-67881523D02*
X102774380Y-67262476D01*
X103155333Y-67595809D01*
X103155333Y-67452952D01*
X103202952Y-67357714D01*
X103250571Y-67310095D01*
X103345809Y-67262476D01*
X103583904Y-67262476D01*
X103679142Y-67310095D01*
X103726761Y-67357714D01*
X103774380Y-67452952D01*
X103774380Y-67738666D01*
X103726761Y-67833904D01*
X103679142Y-67881523D01*
G04 #@! TO.C,U4*
X110886380Y-90931904D02*
X111695904Y-90931904D01*
X111791142Y-90884285D01*
X111838761Y-90836666D01*
X111886380Y-90741428D01*
X111886380Y-90550952D01*
X111838761Y-90455714D01*
X111791142Y-90408095D01*
X111695904Y-90360476D01*
X110886380Y-90360476D01*
X111219714Y-89455714D02*
X111886380Y-89455714D01*
X110838761Y-89693809D02*
X111553047Y-89931904D01*
X111553047Y-89312857D01*
G04 #@! TO.C,R20*
X97479380Y-66555857D02*
X97003190Y-66889190D01*
X97479380Y-67127285D02*
X96479380Y-67127285D01*
X96479380Y-66746333D01*
X96527000Y-66651095D01*
X96574619Y-66603476D01*
X96669857Y-66555857D01*
X96812714Y-66555857D01*
X96907952Y-66603476D01*
X96955571Y-66651095D01*
X97003190Y-66746333D01*
X97003190Y-67127285D01*
X96574619Y-66174904D02*
X96527000Y-66127285D01*
X96479380Y-66032047D01*
X96479380Y-65793952D01*
X96527000Y-65698714D01*
X96574619Y-65651095D01*
X96669857Y-65603476D01*
X96765095Y-65603476D01*
X96907952Y-65651095D01*
X97479380Y-66222523D01*
X97479380Y-65603476D01*
X96479380Y-64984428D02*
X96479380Y-64889190D01*
X96527000Y-64793952D01*
X96574619Y-64746333D01*
X96669857Y-64698714D01*
X96860333Y-64651095D01*
X97098428Y-64651095D01*
X97288904Y-64698714D01*
X97384142Y-64746333D01*
X97431761Y-64793952D01*
X97479380Y-64889190D01*
X97479380Y-64984428D01*
X97431761Y-65079666D01*
X97384142Y-65127285D01*
X97288904Y-65174904D01*
X97098428Y-65222523D01*
X96860333Y-65222523D01*
X96669857Y-65174904D01*
X96574619Y-65127285D01*
X96527000Y-65079666D01*
X96479380Y-64984428D01*
G04 #@! TO.C,R12*
X139644380Y-93606857D02*
X139168190Y-93940190D01*
X139644380Y-94178285D02*
X138644380Y-94178285D01*
X138644380Y-93797333D01*
X138692000Y-93702095D01*
X138739619Y-93654476D01*
X138834857Y-93606857D01*
X138977714Y-93606857D01*
X139072952Y-93654476D01*
X139120571Y-93702095D01*
X139168190Y-93797333D01*
X139168190Y-94178285D01*
X139644380Y-92654476D02*
X139644380Y-93225904D01*
X139644380Y-92940190D02*
X138644380Y-92940190D01*
X138787238Y-93035428D01*
X138882476Y-93130666D01*
X138930095Y-93225904D01*
X138739619Y-92273523D02*
X138692000Y-92225904D01*
X138644380Y-92130666D01*
X138644380Y-91892571D01*
X138692000Y-91797333D01*
X138739619Y-91749714D01*
X138834857Y-91702095D01*
X138930095Y-91702095D01*
X139072952Y-91749714D01*
X139644380Y-92321142D01*
X139644380Y-91702095D01*
G04 #@! TO.C,R18*
X99306142Y-63951380D02*
X98972809Y-63475190D01*
X98734714Y-63951380D02*
X98734714Y-62951380D01*
X99115666Y-62951380D01*
X99210904Y-62999000D01*
X99258523Y-63046619D01*
X99306142Y-63141857D01*
X99306142Y-63284714D01*
X99258523Y-63379952D01*
X99210904Y-63427571D01*
X99115666Y-63475190D01*
X98734714Y-63475190D01*
X100258523Y-63951380D02*
X99687095Y-63951380D01*
X99972809Y-63951380D02*
X99972809Y-62951380D01*
X99877571Y-63094238D01*
X99782333Y-63189476D01*
X99687095Y-63237095D01*
X100829952Y-63379952D02*
X100734714Y-63332333D01*
X100687095Y-63284714D01*
X100639476Y-63189476D01*
X100639476Y-63141857D01*
X100687095Y-63046619D01*
X100734714Y-62999000D01*
X100829952Y-62951380D01*
X101020428Y-62951380D01*
X101115666Y-62999000D01*
X101163285Y-63046619D01*
X101210904Y-63141857D01*
X101210904Y-63189476D01*
X101163285Y-63284714D01*
X101115666Y-63332333D01*
X101020428Y-63379952D01*
X100829952Y-63379952D01*
X100734714Y-63427571D01*
X100687095Y-63475190D01*
X100639476Y-63570428D01*
X100639476Y-63760904D01*
X100687095Y-63856142D01*
X100734714Y-63903761D01*
X100829952Y-63951380D01*
X101020428Y-63951380D01*
X101115666Y-63903761D01*
X101163285Y-63856142D01*
X101210904Y-63760904D01*
X101210904Y-63570428D01*
X101163285Y-63475190D01*
X101115666Y-63427571D01*
X101020428Y-63379952D01*
G04 #@! TO.C,R19*
X99306142Y-58619380D02*
X98972809Y-58143190D01*
X98734714Y-58619380D02*
X98734714Y-57619380D01*
X99115666Y-57619380D01*
X99210904Y-57667000D01*
X99258523Y-57714619D01*
X99306142Y-57809857D01*
X99306142Y-57952714D01*
X99258523Y-58047952D01*
X99210904Y-58095571D01*
X99115666Y-58143190D01*
X98734714Y-58143190D01*
X100258523Y-58619380D02*
X99687095Y-58619380D01*
X99972809Y-58619380D02*
X99972809Y-57619380D01*
X99877571Y-57762238D01*
X99782333Y-57857476D01*
X99687095Y-57905095D01*
X100734714Y-58619380D02*
X100925190Y-58619380D01*
X101020428Y-58571761D01*
X101068047Y-58524142D01*
X101163285Y-58381285D01*
X101210904Y-58190809D01*
X101210904Y-57809857D01*
X101163285Y-57714619D01*
X101115666Y-57667000D01*
X101020428Y-57619380D01*
X100829952Y-57619380D01*
X100734714Y-57667000D01*
X100687095Y-57714619D01*
X100639476Y-57809857D01*
X100639476Y-58047952D01*
X100687095Y-58143190D01*
X100734714Y-58190809D01*
X100829952Y-58238428D01*
X101020428Y-58238428D01*
X101115666Y-58190809D01*
X101163285Y-58143190D01*
X101210904Y-58047952D01*
G04 #@! TO.C,R21*
X94178380Y-74747357D02*
X93702190Y-75080690D01*
X94178380Y-75318785D02*
X93178380Y-75318785D01*
X93178380Y-74937833D01*
X93226000Y-74842595D01*
X93273619Y-74794976D01*
X93368857Y-74747357D01*
X93511714Y-74747357D01*
X93606952Y-74794976D01*
X93654571Y-74842595D01*
X93702190Y-74937833D01*
X93702190Y-75318785D01*
X93273619Y-74366404D02*
X93226000Y-74318785D01*
X93178380Y-74223547D01*
X93178380Y-73985452D01*
X93226000Y-73890214D01*
X93273619Y-73842595D01*
X93368857Y-73794976D01*
X93464095Y-73794976D01*
X93606952Y-73842595D01*
X94178380Y-74414023D01*
X94178380Y-73794976D01*
X94178380Y-72842595D02*
X94178380Y-73414023D01*
X94178380Y-73128309D02*
X93178380Y-73128309D01*
X93321238Y-73223547D01*
X93416476Y-73318785D01*
X93464095Y-73414023D01*
G04 #@! TO.C,R22*
X107319842Y-97023180D02*
X106986509Y-96546990D01*
X106748414Y-97023180D02*
X106748414Y-96023180D01*
X107129366Y-96023180D01*
X107224604Y-96070800D01*
X107272223Y-96118419D01*
X107319842Y-96213657D01*
X107319842Y-96356514D01*
X107272223Y-96451752D01*
X107224604Y-96499371D01*
X107129366Y-96546990D01*
X106748414Y-96546990D01*
X107700795Y-96118419D02*
X107748414Y-96070800D01*
X107843652Y-96023180D01*
X108081747Y-96023180D01*
X108176985Y-96070800D01*
X108224604Y-96118419D01*
X108272223Y-96213657D01*
X108272223Y-96308895D01*
X108224604Y-96451752D01*
X107653176Y-97023180D01*
X108272223Y-97023180D01*
X108653176Y-96118419D02*
X108700795Y-96070800D01*
X108796033Y-96023180D01*
X109034128Y-96023180D01*
X109129366Y-96070800D01*
X109176985Y-96118419D01*
X109224604Y-96213657D01*
X109224604Y-96308895D01*
X109176985Y-96451752D01*
X108605557Y-97023180D01*
X109224604Y-97023180D01*
G04 #@! TO.C,R23*
X98036142Y-81858380D02*
X97702809Y-81382190D01*
X97464714Y-81858380D02*
X97464714Y-80858380D01*
X97845666Y-80858380D01*
X97940904Y-80906000D01*
X97988523Y-80953619D01*
X98036142Y-81048857D01*
X98036142Y-81191714D01*
X97988523Y-81286952D01*
X97940904Y-81334571D01*
X97845666Y-81382190D01*
X97464714Y-81382190D01*
X98417095Y-80953619D02*
X98464714Y-80906000D01*
X98559952Y-80858380D01*
X98798047Y-80858380D01*
X98893285Y-80906000D01*
X98940904Y-80953619D01*
X98988523Y-81048857D01*
X98988523Y-81144095D01*
X98940904Y-81286952D01*
X98369476Y-81858380D01*
X98988523Y-81858380D01*
X99321857Y-80858380D02*
X99940904Y-80858380D01*
X99607571Y-81239333D01*
X99750428Y-81239333D01*
X99845666Y-81286952D01*
X99893285Y-81334571D01*
X99940904Y-81429809D01*
X99940904Y-81667904D01*
X99893285Y-81763142D01*
X99845666Y-81810761D01*
X99750428Y-81858380D01*
X99464714Y-81858380D01*
X99369476Y-81810761D01*
X99321857Y-81763142D01*
G04 #@! TO.C,R24*
X98014244Y-76399380D02*
X97680911Y-75923190D01*
X97442816Y-76399380D02*
X97442816Y-75399380D01*
X97823768Y-75399380D01*
X97919006Y-75447000D01*
X97966625Y-75494619D01*
X98014244Y-75589857D01*
X98014244Y-75732714D01*
X97966625Y-75827952D01*
X97919006Y-75875571D01*
X97823768Y-75923190D01*
X97442816Y-75923190D01*
X98395197Y-75494619D02*
X98442816Y-75447000D01*
X98538054Y-75399380D01*
X98776149Y-75399380D01*
X98871387Y-75447000D01*
X98919006Y-75494619D01*
X98966625Y-75589857D01*
X98966625Y-75685095D01*
X98919006Y-75827952D01*
X98347578Y-76399380D01*
X98966625Y-76399380D01*
X99823768Y-75732714D02*
X99823768Y-76399380D01*
X99585673Y-75351761D02*
X99347578Y-76066047D01*
X99966625Y-76066047D01*
G04 #@! TO.C,R25*
X132912380Y-135262857D02*
X132436190Y-135596190D01*
X132912380Y-135834285D02*
X131912380Y-135834285D01*
X131912380Y-135453333D01*
X131960000Y-135358095D01*
X132007619Y-135310476D01*
X132102857Y-135262857D01*
X132245714Y-135262857D01*
X132340952Y-135310476D01*
X132388571Y-135358095D01*
X132436190Y-135453333D01*
X132436190Y-135834285D01*
X132007619Y-134881904D02*
X131960000Y-134834285D01*
X131912380Y-134739047D01*
X131912380Y-134500952D01*
X131960000Y-134405714D01*
X132007619Y-134358095D01*
X132102857Y-134310476D01*
X132198095Y-134310476D01*
X132340952Y-134358095D01*
X132912380Y-134929523D01*
X132912380Y-134310476D01*
X131912380Y-133405714D02*
X131912380Y-133881904D01*
X132388571Y-133929523D01*
X132340952Y-133881904D01*
X132293333Y-133786666D01*
X132293333Y-133548571D01*
X132340952Y-133453333D01*
X132388571Y-133405714D01*
X132483809Y-133358095D01*
X132721904Y-133358095D01*
X132817142Y-133405714D01*
X132864761Y-133453333D01*
X132912380Y-133548571D01*
X132912380Y-133786666D01*
X132864761Y-133881904D01*
X132817142Y-133929523D01*
G04 #@! TO.C,R11*
X138104642Y-71572380D02*
X137771309Y-71096190D01*
X137533214Y-71572380D02*
X137533214Y-70572380D01*
X137914166Y-70572380D01*
X138009404Y-70620000D01*
X138057023Y-70667619D01*
X138104642Y-70762857D01*
X138104642Y-70905714D01*
X138057023Y-71000952D01*
X138009404Y-71048571D01*
X137914166Y-71096190D01*
X137533214Y-71096190D01*
X139057023Y-71572380D02*
X138485595Y-71572380D01*
X138771309Y-71572380D02*
X138771309Y-70572380D01*
X138676071Y-70715238D01*
X138580833Y-70810476D01*
X138485595Y-70858095D01*
X140009404Y-71572380D02*
X139437976Y-71572380D01*
X139723690Y-71572380D02*
X139723690Y-70572380D01*
X139628452Y-70715238D01*
X139533214Y-70810476D01*
X139437976Y-70858095D01*
G04 #@! TO.C,R73*
X130421142Y-132024380D02*
X130087809Y-131548190D01*
X129849714Y-132024380D02*
X129849714Y-131024380D01*
X130230666Y-131024380D01*
X130325904Y-131072000D01*
X130373523Y-131119619D01*
X130421142Y-131214857D01*
X130421142Y-131357714D01*
X130373523Y-131452952D01*
X130325904Y-131500571D01*
X130230666Y-131548190D01*
X129849714Y-131548190D01*
X130754476Y-131024380D02*
X131421142Y-131024380D01*
X130992571Y-132024380D01*
X131706857Y-131024380D02*
X132325904Y-131024380D01*
X131992571Y-131405333D01*
X132135428Y-131405333D01*
X132230666Y-131452952D01*
X132278285Y-131500571D01*
X132325904Y-131595809D01*
X132325904Y-131833904D01*
X132278285Y-131929142D01*
X132230666Y-131976761D01*
X132135428Y-132024380D01*
X131849714Y-132024380D01*
X131754476Y-131976761D01*
X131706857Y-131929142D01*
G04 #@! TO.C,R10*
X138485642Y-70365880D02*
X138152309Y-69889690D01*
X137914214Y-70365880D02*
X137914214Y-69365880D01*
X138295166Y-69365880D01*
X138390404Y-69413500D01*
X138438023Y-69461119D01*
X138485642Y-69556357D01*
X138485642Y-69699214D01*
X138438023Y-69794452D01*
X138390404Y-69842071D01*
X138295166Y-69889690D01*
X137914214Y-69889690D01*
X139438023Y-70365880D02*
X138866595Y-70365880D01*
X139152309Y-70365880D02*
X139152309Y-69365880D01*
X139057071Y-69508738D01*
X138961833Y-69603976D01*
X138866595Y-69651595D01*
X140057071Y-69365880D02*
X140152309Y-69365880D01*
X140247547Y-69413500D01*
X140295166Y-69461119D01*
X140342785Y-69556357D01*
X140390404Y-69746833D01*
X140390404Y-69984928D01*
X140342785Y-70175404D01*
X140295166Y-70270642D01*
X140247547Y-70318261D01*
X140152309Y-70365880D01*
X140057071Y-70365880D01*
X139961833Y-70318261D01*
X139914214Y-70270642D01*
X139866595Y-70175404D01*
X139818976Y-69984928D01*
X139818976Y-69746833D01*
X139866595Y-69556357D01*
X139914214Y-69461119D01*
X139961833Y-69413500D01*
X140057071Y-69365880D01*
G04 #@! TO.C,R8*
X132405380Y-73699666D02*
X131929190Y-74033000D01*
X132405380Y-74271095D02*
X131405380Y-74271095D01*
X131405380Y-73890142D01*
X131453000Y-73794904D01*
X131500619Y-73747285D01*
X131595857Y-73699666D01*
X131738714Y-73699666D01*
X131833952Y-73747285D01*
X131881571Y-73794904D01*
X131929190Y-73890142D01*
X131929190Y-74271095D01*
X131833952Y-73128238D02*
X131786333Y-73223476D01*
X131738714Y-73271095D01*
X131643476Y-73318714D01*
X131595857Y-73318714D01*
X131500619Y-73271095D01*
X131453000Y-73223476D01*
X131405380Y-73128238D01*
X131405380Y-72937761D01*
X131453000Y-72842523D01*
X131500619Y-72794904D01*
X131595857Y-72747285D01*
X131643476Y-72747285D01*
X131738714Y-72794904D01*
X131786333Y-72842523D01*
X131833952Y-72937761D01*
X131833952Y-73128238D01*
X131881571Y-73223476D01*
X131929190Y-73271095D01*
X132024428Y-73318714D01*
X132214904Y-73318714D01*
X132310142Y-73271095D01*
X132357761Y-73223476D01*
X132405380Y-73128238D01*
X132405380Y-72937761D01*
X132357761Y-72842523D01*
X132310142Y-72794904D01*
X132214904Y-72747285D01*
X132024428Y-72747285D01*
X131929190Y-72794904D01*
X131881571Y-72842523D01*
X131833952Y-72937761D01*
G04 #@! TO.C,R7*
X137732233Y-67635380D02*
X137398900Y-67159190D01*
X137160804Y-67635380D02*
X137160804Y-66635380D01*
X137541757Y-66635380D01*
X137636995Y-66683000D01*
X137684614Y-66730619D01*
X137732233Y-66825857D01*
X137732233Y-66968714D01*
X137684614Y-67063952D01*
X137636995Y-67111571D01*
X137541757Y-67159190D01*
X137160804Y-67159190D01*
X138065566Y-66635380D02*
X138732233Y-66635380D01*
X138303661Y-67635380D01*
G04 #@! TO.C,R9*
X130119380Y-73826666D02*
X129643190Y-74160000D01*
X130119380Y-74398095D02*
X129119380Y-74398095D01*
X129119380Y-74017142D01*
X129167000Y-73921904D01*
X129214619Y-73874285D01*
X129309857Y-73826666D01*
X129452714Y-73826666D01*
X129547952Y-73874285D01*
X129595571Y-73921904D01*
X129643190Y-74017142D01*
X129643190Y-74398095D01*
X130119380Y-73350476D02*
X130119380Y-73160000D01*
X130071761Y-73064761D01*
X130024142Y-73017142D01*
X129881285Y-72921904D01*
X129690809Y-72874285D01*
X129309857Y-72874285D01*
X129214619Y-72921904D01*
X129167000Y-72969523D01*
X129119380Y-73064761D01*
X129119380Y-73255238D01*
X129167000Y-73350476D01*
X129214619Y-73398095D01*
X129309857Y-73445714D01*
X129547952Y-73445714D01*
X129643190Y-73398095D01*
X129690809Y-73350476D01*
X129738428Y-73255238D01*
X129738428Y-73064761D01*
X129690809Y-72969523D01*
X129643190Y-72921904D01*
X129547952Y-72874285D01*
G04 #@! TO.C,U1*
X118179195Y-50795570D02*
X118179195Y-51605094D01*
X118226814Y-51700332D01*
X118274433Y-51747951D01*
X118369671Y-51795570D01*
X118560147Y-51795570D01*
X118655385Y-51747951D01*
X118703004Y-51700332D01*
X118750623Y-51605094D01*
X118750623Y-50795570D01*
X119750623Y-51795570D02*
X119179195Y-51795570D01*
X119464909Y-51795570D02*
X119464909Y-50795570D01*
X119369671Y-50938428D01*
X119274433Y-51033666D01*
X119179195Y-51081285D01*
G04 #@! TD*
M02*
