G04 #@! TF.GenerationSoftware,KiCad,Pcbnew,5.0.2+dfsg1-1*
G04 #@! TF.CreationDate,2021-02-28T17:02:00+08:00*
G04 #@! TF.ProjectId,digital-amplifier2,64696769-7461-46c2-9d61-6d706c696669,rev?*
G04 #@! TF.SameCoordinates,Original*
G04 #@! TF.FileFunction,Soldermask,Bot*
G04 #@! TF.FilePolarity,Negative*
%FSLAX46Y46*%
G04 Gerber Fmt 4.6, Leading zero omitted, Abs format (unit mm)*
G04 Created by KiCad (PCBNEW 5.0.2+dfsg1-1) date 2021年02月28日 星期日 17时02分00秒*
%MOMM*%
%LPD*%
G01*
G04 APERTURE LIST*
%ADD10C,0.100000*%
G04 APERTURE END LIST*
D10*
G36*
X90407443Y-146171519D02*
X90473627Y-146178037D01*
X90586853Y-146212384D01*
X90643467Y-146229557D01*
X90782087Y-146303652D01*
X90799991Y-146313222D01*
X90835729Y-146342552D01*
X90937186Y-146425814D01*
X91020448Y-146527271D01*
X91049778Y-146563009D01*
X91049779Y-146563011D01*
X91133443Y-146719533D01*
X91133443Y-146719534D01*
X91184963Y-146889373D01*
X91202359Y-147066000D01*
X91184963Y-147242627D01*
X91150616Y-147355853D01*
X91133443Y-147412467D01*
X91059348Y-147551087D01*
X91049778Y-147568991D01*
X91020448Y-147604729D01*
X90937186Y-147706186D01*
X90835729Y-147789448D01*
X90799991Y-147818778D01*
X90799989Y-147818779D01*
X90643467Y-147902443D01*
X90586853Y-147919616D01*
X90473627Y-147953963D01*
X90407443Y-147960481D01*
X90341260Y-147967000D01*
X90252740Y-147967000D01*
X90186557Y-147960481D01*
X90120373Y-147953963D01*
X90007147Y-147919616D01*
X89950533Y-147902443D01*
X89794011Y-147818779D01*
X89794009Y-147818778D01*
X89758271Y-147789448D01*
X89656814Y-147706186D01*
X89573552Y-147604729D01*
X89544222Y-147568991D01*
X89534652Y-147551087D01*
X89460557Y-147412467D01*
X89443384Y-147355853D01*
X89409037Y-147242627D01*
X89391641Y-147066000D01*
X89409037Y-146889373D01*
X89460557Y-146719534D01*
X89460557Y-146719533D01*
X89544221Y-146563011D01*
X89544222Y-146563009D01*
X89573552Y-146527271D01*
X89656814Y-146425814D01*
X89758271Y-146342552D01*
X89794009Y-146313222D01*
X89811913Y-146303652D01*
X89950533Y-146229557D01*
X90007147Y-146212384D01*
X90120373Y-146178037D01*
X90186557Y-146171519D01*
X90252740Y-146165000D01*
X90341260Y-146165000D01*
X90407443Y-146171519D01*
X90407443Y-146171519D01*
G37*
G36*
X103107443Y-146171519D02*
X103173627Y-146178037D01*
X103286853Y-146212384D01*
X103343467Y-146229557D01*
X103482087Y-146303652D01*
X103499991Y-146313222D01*
X103535729Y-146342552D01*
X103637186Y-146425814D01*
X103720448Y-146527271D01*
X103749778Y-146563009D01*
X103749779Y-146563011D01*
X103833443Y-146719533D01*
X103833443Y-146719534D01*
X103884963Y-146889373D01*
X103902359Y-147066000D01*
X103884963Y-147242627D01*
X103850616Y-147355853D01*
X103833443Y-147412467D01*
X103759348Y-147551087D01*
X103749778Y-147568991D01*
X103720448Y-147604729D01*
X103637186Y-147706186D01*
X103535729Y-147789448D01*
X103499991Y-147818778D01*
X103499989Y-147818779D01*
X103343467Y-147902443D01*
X103286853Y-147919616D01*
X103173627Y-147953963D01*
X103107443Y-147960481D01*
X103041260Y-147967000D01*
X102952740Y-147967000D01*
X102886557Y-147960481D01*
X102820373Y-147953963D01*
X102707147Y-147919616D01*
X102650533Y-147902443D01*
X102494011Y-147818779D01*
X102494009Y-147818778D01*
X102458271Y-147789448D01*
X102356814Y-147706186D01*
X102273552Y-147604729D01*
X102244222Y-147568991D01*
X102234652Y-147551087D01*
X102160557Y-147412467D01*
X102143384Y-147355853D01*
X102109037Y-147242627D01*
X102091641Y-147066000D01*
X102109037Y-146889373D01*
X102160557Y-146719534D01*
X102160557Y-146719533D01*
X102244221Y-146563011D01*
X102244222Y-146563009D01*
X102273552Y-146527271D01*
X102356814Y-146425814D01*
X102458271Y-146342552D01*
X102494009Y-146313222D01*
X102511913Y-146303652D01*
X102650533Y-146229557D01*
X102707147Y-146212384D01*
X102820373Y-146178037D01*
X102886557Y-146171519D01*
X102952740Y-146165000D01*
X103041260Y-146165000D01*
X103107443Y-146171519D01*
X103107443Y-146171519D01*
G37*
G36*
X82787443Y-146171519D02*
X82853627Y-146178037D01*
X82966853Y-146212384D01*
X83023467Y-146229557D01*
X83162087Y-146303652D01*
X83179991Y-146313222D01*
X83215729Y-146342552D01*
X83317186Y-146425814D01*
X83400448Y-146527271D01*
X83429778Y-146563009D01*
X83429779Y-146563011D01*
X83513443Y-146719533D01*
X83513443Y-146719534D01*
X83564963Y-146889373D01*
X83582359Y-147066000D01*
X83564963Y-147242627D01*
X83530616Y-147355853D01*
X83513443Y-147412467D01*
X83439348Y-147551087D01*
X83429778Y-147568991D01*
X83400448Y-147604729D01*
X83317186Y-147706186D01*
X83215729Y-147789448D01*
X83179991Y-147818778D01*
X83179989Y-147818779D01*
X83023467Y-147902443D01*
X82966853Y-147919616D01*
X82853627Y-147953963D01*
X82787443Y-147960481D01*
X82721260Y-147967000D01*
X82632740Y-147967000D01*
X82566557Y-147960481D01*
X82500373Y-147953963D01*
X82387147Y-147919616D01*
X82330533Y-147902443D01*
X82174011Y-147818779D01*
X82174009Y-147818778D01*
X82138271Y-147789448D01*
X82036814Y-147706186D01*
X81953552Y-147604729D01*
X81924222Y-147568991D01*
X81914652Y-147551087D01*
X81840557Y-147412467D01*
X81823384Y-147355853D01*
X81789037Y-147242627D01*
X81771641Y-147066000D01*
X81789037Y-146889373D01*
X81840557Y-146719534D01*
X81840557Y-146719533D01*
X81924221Y-146563011D01*
X81924222Y-146563009D01*
X81953552Y-146527271D01*
X82036814Y-146425814D01*
X82138271Y-146342552D01*
X82174009Y-146313222D01*
X82191913Y-146303652D01*
X82330533Y-146229557D01*
X82387147Y-146212384D01*
X82500373Y-146178037D01*
X82566557Y-146171519D01*
X82632740Y-146165000D01*
X82721260Y-146165000D01*
X82787443Y-146171519D01*
X82787443Y-146171519D01*
G37*
G36*
X85327443Y-146171519D02*
X85393627Y-146178037D01*
X85506853Y-146212384D01*
X85563467Y-146229557D01*
X85702087Y-146303652D01*
X85719991Y-146313222D01*
X85755729Y-146342552D01*
X85857186Y-146425814D01*
X85940448Y-146527271D01*
X85969778Y-146563009D01*
X85969779Y-146563011D01*
X86053443Y-146719533D01*
X86053443Y-146719534D01*
X86104963Y-146889373D01*
X86122359Y-147066000D01*
X86104963Y-147242627D01*
X86070616Y-147355853D01*
X86053443Y-147412467D01*
X85979348Y-147551087D01*
X85969778Y-147568991D01*
X85940448Y-147604729D01*
X85857186Y-147706186D01*
X85755729Y-147789448D01*
X85719991Y-147818778D01*
X85719989Y-147818779D01*
X85563467Y-147902443D01*
X85506853Y-147919616D01*
X85393627Y-147953963D01*
X85327443Y-147960481D01*
X85261260Y-147967000D01*
X85172740Y-147967000D01*
X85106557Y-147960481D01*
X85040373Y-147953963D01*
X84927147Y-147919616D01*
X84870533Y-147902443D01*
X84714011Y-147818779D01*
X84714009Y-147818778D01*
X84678271Y-147789448D01*
X84576814Y-147706186D01*
X84493552Y-147604729D01*
X84464222Y-147568991D01*
X84454652Y-147551087D01*
X84380557Y-147412467D01*
X84363384Y-147355853D01*
X84329037Y-147242627D01*
X84311641Y-147066000D01*
X84329037Y-146889373D01*
X84380557Y-146719534D01*
X84380557Y-146719533D01*
X84464221Y-146563011D01*
X84464222Y-146563009D01*
X84493552Y-146527271D01*
X84576814Y-146425814D01*
X84678271Y-146342552D01*
X84714009Y-146313222D01*
X84731913Y-146303652D01*
X84870533Y-146229557D01*
X84927147Y-146212384D01*
X85040373Y-146178037D01*
X85106557Y-146171519D01*
X85172740Y-146165000D01*
X85261260Y-146165000D01*
X85327443Y-146171519D01*
X85327443Y-146171519D01*
G37*
G36*
X87867443Y-146171519D02*
X87933627Y-146178037D01*
X88046853Y-146212384D01*
X88103467Y-146229557D01*
X88242087Y-146303652D01*
X88259991Y-146313222D01*
X88295729Y-146342552D01*
X88397186Y-146425814D01*
X88480448Y-146527271D01*
X88509778Y-146563009D01*
X88509779Y-146563011D01*
X88593443Y-146719533D01*
X88593443Y-146719534D01*
X88644963Y-146889373D01*
X88662359Y-147066000D01*
X88644963Y-147242627D01*
X88610616Y-147355853D01*
X88593443Y-147412467D01*
X88519348Y-147551087D01*
X88509778Y-147568991D01*
X88480448Y-147604729D01*
X88397186Y-147706186D01*
X88295729Y-147789448D01*
X88259991Y-147818778D01*
X88259989Y-147818779D01*
X88103467Y-147902443D01*
X88046853Y-147919616D01*
X87933627Y-147953963D01*
X87867443Y-147960481D01*
X87801260Y-147967000D01*
X87712740Y-147967000D01*
X87646557Y-147960481D01*
X87580373Y-147953963D01*
X87467147Y-147919616D01*
X87410533Y-147902443D01*
X87254011Y-147818779D01*
X87254009Y-147818778D01*
X87218271Y-147789448D01*
X87116814Y-147706186D01*
X87033552Y-147604729D01*
X87004222Y-147568991D01*
X86994652Y-147551087D01*
X86920557Y-147412467D01*
X86903384Y-147355853D01*
X86869037Y-147242627D01*
X86851641Y-147066000D01*
X86869037Y-146889373D01*
X86920557Y-146719534D01*
X86920557Y-146719533D01*
X87004221Y-146563011D01*
X87004222Y-146563009D01*
X87033552Y-146527271D01*
X87116814Y-146425814D01*
X87218271Y-146342552D01*
X87254009Y-146313222D01*
X87271913Y-146303652D01*
X87410533Y-146229557D01*
X87467147Y-146212384D01*
X87580373Y-146178037D01*
X87646557Y-146171519D01*
X87712740Y-146165000D01*
X87801260Y-146165000D01*
X87867443Y-146171519D01*
X87867443Y-146171519D01*
G37*
G36*
X105647443Y-146171519D02*
X105713627Y-146178037D01*
X105826853Y-146212384D01*
X105883467Y-146229557D01*
X106022087Y-146303652D01*
X106039991Y-146313222D01*
X106075729Y-146342552D01*
X106177186Y-146425814D01*
X106260448Y-146527271D01*
X106289778Y-146563009D01*
X106289779Y-146563011D01*
X106373443Y-146719533D01*
X106373443Y-146719534D01*
X106424963Y-146889373D01*
X106442359Y-147066000D01*
X106424963Y-147242627D01*
X106390616Y-147355853D01*
X106373443Y-147412467D01*
X106299348Y-147551087D01*
X106289778Y-147568991D01*
X106260448Y-147604729D01*
X106177186Y-147706186D01*
X106075729Y-147789448D01*
X106039991Y-147818778D01*
X106039989Y-147818779D01*
X105883467Y-147902443D01*
X105826853Y-147919616D01*
X105713627Y-147953963D01*
X105647443Y-147960481D01*
X105581260Y-147967000D01*
X105492740Y-147967000D01*
X105426557Y-147960481D01*
X105360373Y-147953963D01*
X105247147Y-147919616D01*
X105190533Y-147902443D01*
X105034011Y-147818779D01*
X105034009Y-147818778D01*
X104998271Y-147789448D01*
X104896814Y-147706186D01*
X104813552Y-147604729D01*
X104784222Y-147568991D01*
X104774652Y-147551087D01*
X104700557Y-147412467D01*
X104683384Y-147355853D01*
X104649037Y-147242627D01*
X104631641Y-147066000D01*
X104649037Y-146889373D01*
X104700557Y-146719534D01*
X104700557Y-146719533D01*
X104784221Y-146563011D01*
X104784222Y-146563009D01*
X104813552Y-146527271D01*
X104896814Y-146425814D01*
X104998271Y-146342552D01*
X105034009Y-146313222D01*
X105051913Y-146303652D01*
X105190533Y-146229557D01*
X105247147Y-146212384D01*
X105360373Y-146178037D01*
X105426557Y-146171519D01*
X105492740Y-146165000D01*
X105581260Y-146165000D01*
X105647443Y-146171519D01*
X105647443Y-146171519D01*
G37*
G36*
X98027443Y-146171519D02*
X98093627Y-146178037D01*
X98206853Y-146212384D01*
X98263467Y-146229557D01*
X98402087Y-146303652D01*
X98419991Y-146313222D01*
X98455729Y-146342552D01*
X98557186Y-146425814D01*
X98640448Y-146527271D01*
X98669778Y-146563009D01*
X98669779Y-146563011D01*
X98753443Y-146719533D01*
X98753443Y-146719534D01*
X98804963Y-146889373D01*
X98822359Y-147066000D01*
X98804963Y-147242627D01*
X98770616Y-147355853D01*
X98753443Y-147412467D01*
X98679348Y-147551087D01*
X98669778Y-147568991D01*
X98640448Y-147604729D01*
X98557186Y-147706186D01*
X98455729Y-147789448D01*
X98419991Y-147818778D01*
X98419989Y-147818779D01*
X98263467Y-147902443D01*
X98206853Y-147919616D01*
X98093627Y-147953963D01*
X98027443Y-147960481D01*
X97961260Y-147967000D01*
X97872740Y-147967000D01*
X97806557Y-147960481D01*
X97740373Y-147953963D01*
X97627147Y-147919616D01*
X97570533Y-147902443D01*
X97414011Y-147818779D01*
X97414009Y-147818778D01*
X97378271Y-147789448D01*
X97276814Y-147706186D01*
X97193552Y-147604729D01*
X97164222Y-147568991D01*
X97154652Y-147551087D01*
X97080557Y-147412467D01*
X97063384Y-147355853D01*
X97029037Y-147242627D01*
X97011641Y-147066000D01*
X97029037Y-146889373D01*
X97080557Y-146719534D01*
X97080557Y-146719533D01*
X97164221Y-146563011D01*
X97164222Y-146563009D01*
X97193552Y-146527271D01*
X97276814Y-146425814D01*
X97378271Y-146342552D01*
X97414009Y-146313222D01*
X97431913Y-146303652D01*
X97570533Y-146229557D01*
X97627147Y-146212384D01*
X97740373Y-146178037D01*
X97806557Y-146171519D01*
X97872740Y-146165000D01*
X97961260Y-146165000D01*
X98027443Y-146171519D01*
X98027443Y-146171519D01*
G37*
G36*
X100567443Y-146171519D02*
X100633627Y-146178037D01*
X100746853Y-146212384D01*
X100803467Y-146229557D01*
X100942087Y-146303652D01*
X100959991Y-146313222D01*
X100995729Y-146342552D01*
X101097186Y-146425814D01*
X101180448Y-146527271D01*
X101209778Y-146563009D01*
X101209779Y-146563011D01*
X101293443Y-146719533D01*
X101293443Y-146719534D01*
X101344963Y-146889373D01*
X101362359Y-147066000D01*
X101344963Y-147242627D01*
X101310616Y-147355853D01*
X101293443Y-147412467D01*
X101219348Y-147551087D01*
X101209778Y-147568991D01*
X101180448Y-147604729D01*
X101097186Y-147706186D01*
X100995729Y-147789448D01*
X100959991Y-147818778D01*
X100959989Y-147818779D01*
X100803467Y-147902443D01*
X100746853Y-147919616D01*
X100633627Y-147953963D01*
X100567443Y-147960481D01*
X100501260Y-147967000D01*
X100412740Y-147967000D01*
X100346557Y-147960481D01*
X100280373Y-147953963D01*
X100167147Y-147919616D01*
X100110533Y-147902443D01*
X99954011Y-147818779D01*
X99954009Y-147818778D01*
X99918271Y-147789448D01*
X99816814Y-147706186D01*
X99733552Y-147604729D01*
X99704222Y-147568991D01*
X99694652Y-147551087D01*
X99620557Y-147412467D01*
X99603384Y-147355853D01*
X99569037Y-147242627D01*
X99551641Y-147066000D01*
X99569037Y-146889373D01*
X99620557Y-146719534D01*
X99620557Y-146719533D01*
X99704221Y-146563011D01*
X99704222Y-146563009D01*
X99733552Y-146527271D01*
X99816814Y-146425814D01*
X99918271Y-146342552D01*
X99954009Y-146313222D01*
X99971913Y-146303652D01*
X100110533Y-146229557D01*
X100167147Y-146212384D01*
X100280373Y-146178037D01*
X100346557Y-146171519D01*
X100412740Y-146165000D01*
X100501260Y-146165000D01*
X100567443Y-146171519D01*
X100567443Y-146171519D01*
G37*
G36*
X92947443Y-146171519D02*
X93013627Y-146178037D01*
X93126853Y-146212384D01*
X93183467Y-146229557D01*
X93322087Y-146303652D01*
X93339991Y-146313222D01*
X93375729Y-146342552D01*
X93477186Y-146425814D01*
X93560448Y-146527271D01*
X93589778Y-146563009D01*
X93589779Y-146563011D01*
X93673443Y-146719533D01*
X93673443Y-146719534D01*
X93724963Y-146889373D01*
X93742359Y-147066000D01*
X93724963Y-147242627D01*
X93690616Y-147355853D01*
X93673443Y-147412467D01*
X93599348Y-147551087D01*
X93589778Y-147568991D01*
X93560448Y-147604729D01*
X93477186Y-147706186D01*
X93375729Y-147789448D01*
X93339991Y-147818778D01*
X93339989Y-147818779D01*
X93183467Y-147902443D01*
X93126853Y-147919616D01*
X93013627Y-147953963D01*
X92947443Y-147960481D01*
X92881260Y-147967000D01*
X92792740Y-147967000D01*
X92726557Y-147960481D01*
X92660373Y-147953963D01*
X92547147Y-147919616D01*
X92490533Y-147902443D01*
X92334011Y-147818779D01*
X92334009Y-147818778D01*
X92298271Y-147789448D01*
X92196814Y-147706186D01*
X92113552Y-147604729D01*
X92084222Y-147568991D01*
X92074652Y-147551087D01*
X92000557Y-147412467D01*
X91983384Y-147355853D01*
X91949037Y-147242627D01*
X91931641Y-147066000D01*
X91949037Y-146889373D01*
X92000557Y-146719534D01*
X92000557Y-146719533D01*
X92084221Y-146563011D01*
X92084222Y-146563009D01*
X92113552Y-146527271D01*
X92196814Y-146425814D01*
X92298271Y-146342552D01*
X92334009Y-146313222D01*
X92351913Y-146303652D01*
X92490533Y-146229557D01*
X92547147Y-146212384D01*
X92660373Y-146178037D01*
X92726557Y-146171519D01*
X92792740Y-146165000D01*
X92881260Y-146165000D01*
X92947443Y-146171519D01*
X92947443Y-146171519D01*
G37*
G36*
X95487443Y-146171519D02*
X95553627Y-146178037D01*
X95666853Y-146212384D01*
X95723467Y-146229557D01*
X95862087Y-146303652D01*
X95879991Y-146313222D01*
X95915729Y-146342552D01*
X96017186Y-146425814D01*
X96100448Y-146527271D01*
X96129778Y-146563009D01*
X96129779Y-146563011D01*
X96213443Y-146719533D01*
X96213443Y-146719534D01*
X96264963Y-146889373D01*
X96282359Y-147066000D01*
X96264963Y-147242627D01*
X96230616Y-147355853D01*
X96213443Y-147412467D01*
X96139348Y-147551087D01*
X96129778Y-147568991D01*
X96100448Y-147604729D01*
X96017186Y-147706186D01*
X95915729Y-147789448D01*
X95879991Y-147818778D01*
X95879989Y-147818779D01*
X95723467Y-147902443D01*
X95666853Y-147919616D01*
X95553627Y-147953963D01*
X95487443Y-147960481D01*
X95421260Y-147967000D01*
X95332740Y-147967000D01*
X95266557Y-147960481D01*
X95200373Y-147953963D01*
X95087147Y-147919616D01*
X95030533Y-147902443D01*
X94874011Y-147818779D01*
X94874009Y-147818778D01*
X94838271Y-147789448D01*
X94736814Y-147706186D01*
X94653552Y-147604729D01*
X94624222Y-147568991D01*
X94614652Y-147551087D01*
X94540557Y-147412467D01*
X94523384Y-147355853D01*
X94489037Y-147242627D01*
X94471641Y-147066000D01*
X94489037Y-146889373D01*
X94540557Y-146719534D01*
X94540557Y-146719533D01*
X94624221Y-146563011D01*
X94624222Y-146563009D01*
X94653552Y-146527271D01*
X94736814Y-146425814D01*
X94838271Y-146342552D01*
X94874009Y-146313222D01*
X94891913Y-146303652D01*
X95030533Y-146229557D01*
X95087147Y-146212384D01*
X95200373Y-146178037D01*
X95266557Y-146171519D01*
X95332740Y-146165000D01*
X95421260Y-146165000D01*
X95487443Y-146171519D01*
X95487443Y-146171519D01*
G37*
G36*
X76112712Y-143638037D02*
X76271410Y-143669604D01*
X76553674Y-143786521D01*
X76807705Y-143956259D01*
X77023741Y-144172295D01*
X77193479Y-144426326D01*
X77307925Y-144702625D01*
X77310396Y-144708591D01*
X77370000Y-145008238D01*
X77370000Y-145313762D01*
X77347475Y-145427000D01*
X77310396Y-145613410D01*
X77193479Y-145895674D01*
X77023741Y-146149705D01*
X76807705Y-146365741D01*
X76553674Y-146535479D01*
X76271410Y-146652396D01*
X76171527Y-146672264D01*
X75971762Y-146712000D01*
X75666238Y-146712000D01*
X75466473Y-146672264D01*
X75366590Y-146652396D01*
X75084326Y-146535479D01*
X74830295Y-146365741D01*
X74614259Y-146149705D01*
X74444521Y-145895674D01*
X74327604Y-145613410D01*
X74290525Y-145427000D01*
X74268000Y-145313762D01*
X74268000Y-145008238D01*
X74327604Y-144708591D01*
X74330075Y-144702625D01*
X74444521Y-144426326D01*
X74614259Y-144172295D01*
X74830295Y-143956259D01*
X75084326Y-143786521D01*
X75366590Y-143669604D01*
X75525288Y-143638037D01*
X75666238Y-143610000D01*
X75971762Y-143610000D01*
X76112712Y-143638037D01*
X76112712Y-143638037D01*
G37*
G36*
X59882712Y-143638037D02*
X60041410Y-143669604D01*
X60323674Y-143786521D01*
X60577705Y-143956259D01*
X60793741Y-144172295D01*
X60963479Y-144426326D01*
X61077925Y-144702625D01*
X61080396Y-144708591D01*
X61140000Y-145008238D01*
X61140000Y-145313762D01*
X61117475Y-145427000D01*
X61080396Y-145613410D01*
X60963479Y-145895674D01*
X60793741Y-146149705D01*
X60577705Y-146365741D01*
X60323674Y-146535479D01*
X60041410Y-146652396D01*
X59941527Y-146672264D01*
X59741762Y-146712000D01*
X59436238Y-146712000D01*
X59236473Y-146672264D01*
X59136590Y-146652396D01*
X58854326Y-146535479D01*
X58600295Y-146365741D01*
X58384259Y-146149705D01*
X58214521Y-145895674D01*
X58097604Y-145613410D01*
X58060525Y-145427000D01*
X58038000Y-145313762D01*
X58038000Y-145008238D01*
X58097604Y-144708591D01*
X58100075Y-144702625D01*
X58214521Y-144426326D01*
X58384259Y-144172295D01*
X58600295Y-143956259D01*
X58854326Y-143786521D01*
X59136590Y-143669604D01*
X59295288Y-143638037D01*
X59436238Y-143610000D01*
X59741762Y-143610000D01*
X59882712Y-143638037D01*
X59882712Y-143638037D01*
G37*
G36*
X103107442Y-143631518D02*
X103173627Y-143638037D01*
X103286853Y-143672384D01*
X103343467Y-143689557D01*
X103482087Y-143763652D01*
X103499991Y-143773222D01*
X103535729Y-143802552D01*
X103637186Y-143885814D01*
X103695000Y-143956262D01*
X103749778Y-144023009D01*
X103749779Y-144023011D01*
X103833443Y-144179533D01*
X103833443Y-144179534D01*
X103884963Y-144349373D01*
X103902359Y-144526000D01*
X103884963Y-144702627D01*
X103850616Y-144815853D01*
X103833443Y-144872467D01*
X103761132Y-145007750D01*
X103749778Y-145028991D01*
X103724101Y-145060278D01*
X103637186Y-145166186D01*
X103545229Y-145241652D01*
X103499991Y-145278778D01*
X103499989Y-145278779D01*
X103343467Y-145362443D01*
X103286853Y-145379616D01*
X103173627Y-145413963D01*
X103107443Y-145420481D01*
X103041260Y-145427000D01*
X102952740Y-145427000D01*
X102886557Y-145420481D01*
X102820373Y-145413963D01*
X102707147Y-145379616D01*
X102650533Y-145362443D01*
X102494011Y-145278779D01*
X102494009Y-145278778D01*
X102448771Y-145241652D01*
X102356814Y-145166186D01*
X102269899Y-145060278D01*
X102244222Y-145028991D01*
X102232868Y-145007750D01*
X102160557Y-144872467D01*
X102143384Y-144815853D01*
X102109037Y-144702627D01*
X102091641Y-144526000D01*
X102109037Y-144349373D01*
X102160557Y-144179534D01*
X102160557Y-144179533D01*
X102244221Y-144023011D01*
X102244222Y-144023009D01*
X102299000Y-143956262D01*
X102356814Y-143885814D01*
X102458271Y-143802552D01*
X102494009Y-143773222D01*
X102511913Y-143763652D01*
X102650533Y-143689557D01*
X102707147Y-143672384D01*
X102820373Y-143638037D01*
X102886558Y-143631518D01*
X102952740Y-143625000D01*
X103041260Y-143625000D01*
X103107442Y-143631518D01*
X103107442Y-143631518D01*
G37*
G36*
X82787442Y-143631518D02*
X82853627Y-143638037D01*
X82966853Y-143672384D01*
X83023467Y-143689557D01*
X83162087Y-143763652D01*
X83179991Y-143773222D01*
X83215729Y-143802552D01*
X83317186Y-143885814D01*
X83375000Y-143956262D01*
X83429778Y-144023009D01*
X83429779Y-144023011D01*
X83513443Y-144179533D01*
X83513443Y-144179534D01*
X83564963Y-144349373D01*
X83582359Y-144526000D01*
X83564963Y-144702627D01*
X83530616Y-144815853D01*
X83513443Y-144872467D01*
X83441132Y-145007750D01*
X83429778Y-145028991D01*
X83404101Y-145060278D01*
X83317186Y-145166186D01*
X83225229Y-145241652D01*
X83179991Y-145278778D01*
X83179989Y-145278779D01*
X83023467Y-145362443D01*
X82966853Y-145379616D01*
X82853627Y-145413963D01*
X82787443Y-145420481D01*
X82721260Y-145427000D01*
X82632740Y-145427000D01*
X82566557Y-145420481D01*
X82500373Y-145413963D01*
X82387147Y-145379616D01*
X82330533Y-145362443D01*
X82174011Y-145278779D01*
X82174009Y-145278778D01*
X82128771Y-145241652D01*
X82036814Y-145166186D01*
X81949899Y-145060278D01*
X81924222Y-145028991D01*
X81912868Y-145007750D01*
X81840557Y-144872467D01*
X81823384Y-144815853D01*
X81789037Y-144702627D01*
X81771641Y-144526000D01*
X81789037Y-144349373D01*
X81840557Y-144179534D01*
X81840557Y-144179533D01*
X81924221Y-144023011D01*
X81924222Y-144023009D01*
X81979000Y-143956262D01*
X82036814Y-143885814D01*
X82138271Y-143802552D01*
X82174009Y-143773222D01*
X82191913Y-143763652D01*
X82330533Y-143689557D01*
X82387147Y-143672384D01*
X82500373Y-143638037D01*
X82566558Y-143631518D01*
X82632740Y-143625000D01*
X82721260Y-143625000D01*
X82787442Y-143631518D01*
X82787442Y-143631518D01*
G37*
G36*
X85327442Y-143631518D02*
X85393627Y-143638037D01*
X85506853Y-143672384D01*
X85563467Y-143689557D01*
X85702087Y-143763652D01*
X85719991Y-143773222D01*
X85755729Y-143802552D01*
X85857186Y-143885814D01*
X85915000Y-143956262D01*
X85969778Y-144023009D01*
X85969779Y-144023011D01*
X86053443Y-144179533D01*
X86053443Y-144179534D01*
X86104963Y-144349373D01*
X86122359Y-144526000D01*
X86104963Y-144702627D01*
X86070616Y-144815853D01*
X86053443Y-144872467D01*
X85981132Y-145007750D01*
X85969778Y-145028991D01*
X85944101Y-145060278D01*
X85857186Y-145166186D01*
X85765229Y-145241652D01*
X85719991Y-145278778D01*
X85719989Y-145278779D01*
X85563467Y-145362443D01*
X85506853Y-145379616D01*
X85393627Y-145413963D01*
X85327443Y-145420481D01*
X85261260Y-145427000D01*
X85172740Y-145427000D01*
X85106557Y-145420481D01*
X85040373Y-145413963D01*
X84927147Y-145379616D01*
X84870533Y-145362443D01*
X84714011Y-145278779D01*
X84714009Y-145278778D01*
X84668771Y-145241652D01*
X84576814Y-145166186D01*
X84489899Y-145060278D01*
X84464222Y-145028991D01*
X84452868Y-145007750D01*
X84380557Y-144872467D01*
X84363384Y-144815853D01*
X84329037Y-144702627D01*
X84311641Y-144526000D01*
X84329037Y-144349373D01*
X84380557Y-144179534D01*
X84380557Y-144179533D01*
X84464221Y-144023011D01*
X84464222Y-144023009D01*
X84519000Y-143956262D01*
X84576814Y-143885814D01*
X84678271Y-143802552D01*
X84714009Y-143773222D01*
X84731913Y-143763652D01*
X84870533Y-143689557D01*
X84927147Y-143672384D01*
X85040373Y-143638037D01*
X85106558Y-143631518D01*
X85172740Y-143625000D01*
X85261260Y-143625000D01*
X85327442Y-143631518D01*
X85327442Y-143631518D01*
G37*
G36*
X87867442Y-143631518D02*
X87933627Y-143638037D01*
X88046853Y-143672384D01*
X88103467Y-143689557D01*
X88242087Y-143763652D01*
X88259991Y-143773222D01*
X88295729Y-143802552D01*
X88397186Y-143885814D01*
X88455000Y-143956262D01*
X88509778Y-144023009D01*
X88509779Y-144023011D01*
X88593443Y-144179533D01*
X88593443Y-144179534D01*
X88644963Y-144349373D01*
X88662359Y-144526000D01*
X88644963Y-144702627D01*
X88610616Y-144815853D01*
X88593443Y-144872467D01*
X88521132Y-145007750D01*
X88509778Y-145028991D01*
X88484101Y-145060278D01*
X88397186Y-145166186D01*
X88305229Y-145241652D01*
X88259991Y-145278778D01*
X88259989Y-145278779D01*
X88103467Y-145362443D01*
X88046853Y-145379616D01*
X87933627Y-145413963D01*
X87867443Y-145420481D01*
X87801260Y-145427000D01*
X87712740Y-145427000D01*
X87646557Y-145420481D01*
X87580373Y-145413963D01*
X87467147Y-145379616D01*
X87410533Y-145362443D01*
X87254011Y-145278779D01*
X87254009Y-145278778D01*
X87208771Y-145241652D01*
X87116814Y-145166186D01*
X87029899Y-145060278D01*
X87004222Y-145028991D01*
X86992868Y-145007750D01*
X86920557Y-144872467D01*
X86903384Y-144815853D01*
X86869037Y-144702627D01*
X86851641Y-144526000D01*
X86869037Y-144349373D01*
X86920557Y-144179534D01*
X86920557Y-144179533D01*
X87004221Y-144023011D01*
X87004222Y-144023009D01*
X87059000Y-143956262D01*
X87116814Y-143885814D01*
X87218271Y-143802552D01*
X87254009Y-143773222D01*
X87271913Y-143763652D01*
X87410533Y-143689557D01*
X87467147Y-143672384D01*
X87580373Y-143638037D01*
X87646558Y-143631518D01*
X87712740Y-143625000D01*
X87801260Y-143625000D01*
X87867442Y-143631518D01*
X87867442Y-143631518D01*
G37*
G36*
X106438000Y-145427000D02*
X104636000Y-145427000D01*
X104636000Y-143625000D01*
X106438000Y-143625000D01*
X106438000Y-145427000D01*
X106438000Y-145427000D01*
G37*
G36*
X100567442Y-143631518D02*
X100633627Y-143638037D01*
X100746853Y-143672384D01*
X100803467Y-143689557D01*
X100942087Y-143763652D01*
X100959991Y-143773222D01*
X100995729Y-143802552D01*
X101097186Y-143885814D01*
X101155000Y-143956262D01*
X101209778Y-144023009D01*
X101209779Y-144023011D01*
X101293443Y-144179533D01*
X101293443Y-144179534D01*
X101344963Y-144349373D01*
X101362359Y-144526000D01*
X101344963Y-144702627D01*
X101310616Y-144815853D01*
X101293443Y-144872467D01*
X101221132Y-145007750D01*
X101209778Y-145028991D01*
X101184101Y-145060278D01*
X101097186Y-145166186D01*
X101005229Y-145241652D01*
X100959991Y-145278778D01*
X100959989Y-145278779D01*
X100803467Y-145362443D01*
X100746853Y-145379616D01*
X100633627Y-145413963D01*
X100567443Y-145420481D01*
X100501260Y-145427000D01*
X100412740Y-145427000D01*
X100346557Y-145420481D01*
X100280373Y-145413963D01*
X100167147Y-145379616D01*
X100110533Y-145362443D01*
X99954011Y-145278779D01*
X99954009Y-145278778D01*
X99908771Y-145241652D01*
X99816814Y-145166186D01*
X99729899Y-145060278D01*
X99704222Y-145028991D01*
X99692868Y-145007750D01*
X99620557Y-144872467D01*
X99603384Y-144815853D01*
X99569037Y-144702627D01*
X99551641Y-144526000D01*
X99569037Y-144349373D01*
X99620557Y-144179534D01*
X99620557Y-144179533D01*
X99704221Y-144023011D01*
X99704222Y-144023009D01*
X99759000Y-143956262D01*
X99816814Y-143885814D01*
X99918271Y-143802552D01*
X99954009Y-143773222D01*
X99971913Y-143763652D01*
X100110533Y-143689557D01*
X100167147Y-143672384D01*
X100280373Y-143638037D01*
X100346558Y-143631518D01*
X100412740Y-143625000D01*
X100501260Y-143625000D01*
X100567442Y-143631518D01*
X100567442Y-143631518D01*
G37*
G36*
X95487442Y-143631518D02*
X95553627Y-143638037D01*
X95666853Y-143672384D01*
X95723467Y-143689557D01*
X95862087Y-143763652D01*
X95879991Y-143773222D01*
X95915729Y-143802552D01*
X96017186Y-143885814D01*
X96075000Y-143956262D01*
X96129778Y-144023009D01*
X96129779Y-144023011D01*
X96213443Y-144179533D01*
X96213443Y-144179534D01*
X96264963Y-144349373D01*
X96282359Y-144526000D01*
X96264963Y-144702627D01*
X96230616Y-144815853D01*
X96213443Y-144872467D01*
X96141132Y-145007750D01*
X96129778Y-145028991D01*
X96104101Y-145060278D01*
X96017186Y-145166186D01*
X95925229Y-145241652D01*
X95879991Y-145278778D01*
X95879989Y-145278779D01*
X95723467Y-145362443D01*
X95666853Y-145379616D01*
X95553627Y-145413963D01*
X95487443Y-145420481D01*
X95421260Y-145427000D01*
X95332740Y-145427000D01*
X95266557Y-145420481D01*
X95200373Y-145413963D01*
X95087147Y-145379616D01*
X95030533Y-145362443D01*
X94874011Y-145278779D01*
X94874009Y-145278778D01*
X94828771Y-145241652D01*
X94736814Y-145166186D01*
X94649899Y-145060278D01*
X94624222Y-145028991D01*
X94612868Y-145007750D01*
X94540557Y-144872467D01*
X94523384Y-144815853D01*
X94489037Y-144702627D01*
X94471641Y-144526000D01*
X94489037Y-144349373D01*
X94540557Y-144179534D01*
X94540557Y-144179533D01*
X94624221Y-144023011D01*
X94624222Y-144023009D01*
X94679000Y-143956262D01*
X94736814Y-143885814D01*
X94838271Y-143802552D01*
X94874009Y-143773222D01*
X94891913Y-143763652D01*
X95030533Y-143689557D01*
X95087147Y-143672384D01*
X95200373Y-143638037D01*
X95266558Y-143631518D01*
X95332740Y-143625000D01*
X95421260Y-143625000D01*
X95487442Y-143631518D01*
X95487442Y-143631518D01*
G37*
G36*
X92947442Y-143631518D02*
X93013627Y-143638037D01*
X93126853Y-143672384D01*
X93183467Y-143689557D01*
X93322087Y-143763652D01*
X93339991Y-143773222D01*
X93375729Y-143802552D01*
X93477186Y-143885814D01*
X93535000Y-143956262D01*
X93589778Y-144023009D01*
X93589779Y-144023011D01*
X93673443Y-144179533D01*
X93673443Y-144179534D01*
X93724963Y-144349373D01*
X93742359Y-144526000D01*
X93724963Y-144702627D01*
X93690616Y-144815853D01*
X93673443Y-144872467D01*
X93601132Y-145007750D01*
X93589778Y-145028991D01*
X93564101Y-145060278D01*
X93477186Y-145166186D01*
X93385229Y-145241652D01*
X93339991Y-145278778D01*
X93339989Y-145278779D01*
X93183467Y-145362443D01*
X93126853Y-145379616D01*
X93013627Y-145413963D01*
X92947443Y-145420481D01*
X92881260Y-145427000D01*
X92792740Y-145427000D01*
X92726557Y-145420481D01*
X92660373Y-145413963D01*
X92547147Y-145379616D01*
X92490533Y-145362443D01*
X92334011Y-145278779D01*
X92334009Y-145278778D01*
X92288771Y-145241652D01*
X92196814Y-145166186D01*
X92109899Y-145060278D01*
X92084222Y-145028991D01*
X92072868Y-145007750D01*
X92000557Y-144872467D01*
X91983384Y-144815853D01*
X91949037Y-144702627D01*
X91931641Y-144526000D01*
X91949037Y-144349373D01*
X92000557Y-144179534D01*
X92000557Y-144179533D01*
X92084221Y-144023011D01*
X92084222Y-144023009D01*
X92139000Y-143956262D01*
X92196814Y-143885814D01*
X92298271Y-143802552D01*
X92334009Y-143773222D01*
X92351913Y-143763652D01*
X92490533Y-143689557D01*
X92547147Y-143672384D01*
X92660373Y-143638037D01*
X92726558Y-143631518D01*
X92792740Y-143625000D01*
X92881260Y-143625000D01*
X92947442Y-143631518D01*
X92947442Y-143631518D01*
G37*
G36*
X98027442Y-143631518D02*
X98093627Y-143638037D01*
X98206853Y-143672384D01*
X98263467Y-143689557D01*
X98402087Y-143763652D01*
X98419991Y-143773222D01*
X98455729Y-143802552D01*
X98557186Y-143885814D01*
X98615000Y-143956262D01*
X98669778Y-144023009D01*
X98669779Y-144023011D01*
X98753443Y-144179533D01*
X98753443Y-144179534D01*
X98804963Y-144349373D01*
X98822359Y-144526000D01*
X98804963Y-144702627D01*
X98770616Y-144815853D01*
X98753443Y-144872467D01*
X98681132Y-145007750D01*
X98669778Y-145028991D01*
X98644101Y-145060278D01*
X98557186Y-145166186D01*
X98465229Y-145241652D01*
X98419991Y-145278778D01*
X98419989Y-145278779D01*
X98263467Y-145362443D01*
X98206853Y-145379616D01*
X98093627Y-145413963D01*
X98027443Y-145420481D01*
X97961260Y-145427000D01*
X97872740Y-145427000D01*
X97806557Y-145420481D01*
X97740373Y-145413963D01*
X97627147Y-145379616D01*
X97570533Y-145362443D01*
X97414011Y-145278779D01*
X97414009Y-145278778D01*
X97368771Y-145241652D01*
X97276814Y-145166186D01*
X97189899Y-145060278D01*
X97164222Y-145028991D01*
X97152868Y-145007750D01*
X97080557Y-144872467D01*
X97063384Y-144815853D01*
X97029037Y-144702627D01*
X97011641Y-144526000D01*
X97029037Y-144349373D01*
X97080557Y-144179534D01*
X97080557Y-144179533D01*
X97164221Y-144023011D01*
X97164222Y-144023009D01*
X97219000Y-143956262D01*
X97276814Y-143885814D01*
X97378271Y-143802552D01*
X97414009Y-143773222D01*
X97431913Y-143763652D01*
X97570533Y-143689557D01*
X97627147Y-143672384D01*
X97740373Y-143638037D01*
X97806558Y-143631518D01*
X97872740Y-143625000D01*
X97961260Y-143625000D01*
X98027442Y-143631518D01*
X98027442Y-143631518D01*
G37*
G36*
X90407442Y-143631518D02*
X90473627Y-143638037D01*
X90586853Y-143672384D01*
X90643467Y-143689557D01*
X90782087Y-143763652D01*
X90799991Y-143773222D01*
X90835729Y-143802552D01*
X90937186Y-143885814D01*
X90995000Y-143956262D01*
X91049778Y-144023009D01*
X91049779Y-144023011D01*
X91133443Y-144179533D01*
X91133443Y-144179534D01*
X91184963Y-144349373D01*
X91202359Y-144526000D01*
X91184963Y-144702627D01*
X91150616Y-144815853D01*
X91133443Y-144872467D01*
X91061132Y-145007750D01*
X91049778Y-145028991D01*
X91024101Y-145060278D01*
X90937186Y-145166186D01*
X90845229Y-145241652D01*
X90799991Y-145278778D01*
X90799989Y-145278779D01*
X90643467Y-145362443D01*
X90586853Y-145379616D01*
X90473627Y-145413963D01*
X90407443Y-145420481D01*
X90341260Y-145427000D01*
X90252740Y-145427000D01*
X90186557Y-145420481D01*
X90120373Y-145413963D01*
X90007147Y-145379616D01*
X89950533Y-145362443D01*
X89794011Y-145278779D01*
X89794009Y-145278778D01*
X89748771Y-145241652D01*
X89656814Y-145166186D01*
X89569899Y-145060278D01*
X89544222Y-145028991D01*
X89532868Y-145007750D01*
X89460557Y-144872467D01*
X89443384Y-144815853D01*
X89409037Y-144702627D01*
X89391641Y-144526000D01*
X89409037Y-144349373D01*
X89460557Y-144179534D01*
X89460557Y-144179533D01*
X89544221Y-144023011D01*
X89544222Y-144023009D01*
X89599000Y-143956262D01*
X89656814Y-143885814D01*
X89758271Y-143802552D01*
X89794009Y-143773222D01*
X89811913Y-143763652D01*
X89950533Y-143689557D01*
X90007147Y-143672384D01*
X90120373Y-143638037D01*
X90186558Y-143631518D01*
X90252740Y-143625000D01*
X90341260Y-143625000D01*
X90407442Y-143631518D01*
X90407442Y-143631518D01*
G37*
G36*
X65825466Y-143779565D02*
X65864137Y-143791296D01*
X65899779Y-143810348D01*
X65931017Y-143835983D01*
X65956652Y-143867221D01*
X65975704Y-143902863D01*
X65987435Y-143941534D01*
X65992000Y-143987888D01*
X65992000Y-145064112D01*
X65987435Y-145110466D01*
X65975704Y-145149137D01*
X65956652Y-145184779D01*
X65931017Y-145216017D01*
X65899779Y-145241652D01*
X65864137Y-145260704D01*
X65825466Y-145272435D01*
X65779112Y-145277000D01*
X65127888Y-145277000D01*
X65081534Y-145272435D01*
X65042863Y-145260704D01*
X65007221Y-145241652D01*
X64975983Y-145216017D01*
X64950348Y-145184779D01*
X64931296Y-145149137D01*
X64919565Y-145110466D01*
X64915000Y-145064112D01*
X64915000Y-143987888D01*
X64919565Y-143941534D01*
X64931296Y-143902863D01*
X64950348Y-143867221D01*
X64975983Y-143835983D01*
X65007221Y-143810348D01*
X65042863Y-143791296D01*
X65081534Y-143779565D01*
X65127888Y-143775000D01*
X65779112Y-143775000D01*
X65825466Y-143779565D01*
X65825466Y-143779565D01*
G37*
G36*
X63950466Y-143779565D02*
X63989137Y-143791296D01*
X64024779Y-143810348D01*
X64056017Y-143835983D01*
X64081652Y-143867221D01*
X64100704Y-143902863D01*
X64112435Y-143941534D01*
X64117000Y-143987888D01*
X64117000Y-145064112D01*
X64112435Y-145110466D01*
X64100704Y-145149137D01*
X64081652Y-145184779D01*
X64056017Y-145216017D01*
X64024779Y-145241652D01*
X63989137Y-145260704D01*
X63950466Y-145272435D01*
X63904112Y-145277000D01*
X63252888Y-145277000D01*
X63206534Y-145272435D01*
X63167863Y-145260704D01*
X63132221Y-145241652D01*
X63100983Y-145216017D01*
X63075348Y-145184779D01*
X63056296Y-145149137D01*
X63044565Y-145110466D01*
X63040000Y-145064112D01*
X63040000Y-143987888D01*
X63044565Y-143941534D01*
X63056296Y-143902863D01*
X63075348Y-143867221D01*
X63100983Y-143835983D01*
X63132221Y-143810348D01*
X63167863Y-143791296D01*
X63206534Y-143779565D01*
X63252888Y-143775000D01*
X63904112Y-143775000D01*
X63950466Y-143779565D01*
X63950466Y-143779565D01*
G37*
G36*
X112217466Y-143024565D02*
X112256137Y-143036296D01*
X112291779Y-143055348D01*
X112323017Y-143080983D01*
X112348652Y-143112221D01*
X112367704Y-143147863D01*
X112379435Y-143186534D01*
X112384000Y-143232888D01*
X112384000Y-143884112D01*
X112379435Y-143930466D01*
X112367704Y-143969137D01*
X112348652Y-144004779D01*
X112323017Y-144036017D01*
X112291779Y-144061652D01*
X112256137Y-144080704D01*
X112217466Y-144092435D01*
X112171112Y-144097000D01*
X111094888Y-144097000D01*
X111048534Y-144092435D01*
X111009863Y-144080704D01*
X110974221Y-144061652D01*
X110942983Y-144036017D01*
X110917348Y-144004779D01*
X110898296Y-143969137D01*
X110886565Y-143930466D01*
X110882000Y-143884112D01*
X110882000Y-143232888D01*
X110886565Y-143186534D01*
X110898296Y-143147863D01*
X110917348Y-143112221D01*
X110942983Y-143080983D01*
X110974221Y-143055348D01*
X111009863Y-143036296D01*
X111048534Y-143024565D01*
X111094888Y-143020000D01*
X112171112Y-143020000D01*
X112217466Y-143024565D01*
X112217466Y-143024565D01*
G37*
G36*
X114884466Y-143024565D02*
X114923137Y-143036296D01*
X114958779Y-143055348D01*
X114990017Y-143080983D01*
X115015652Y-143112221D01*
X115034704Y-143147863D01*
X115046435Y-143186534D01*
X115051000Y-143232888D01*
X115051000Y-143884112D01*
X115046435Y-143930466D01*
X115034704Y-143969137D01*
X115015652Y-144004779D01*
X114990017Y-144036017D01*
X114958779Y-144061652D01*
X114923137Y-144080704D01*
X114884466Y-144092435D01*
X114838112Y-144097000D01*
X113761888Y-144097000D01*
X113715534Y-144092435D01*
X113676863Y-144080704D01*
X113641221Y-144061652D01*
X113609983Y-144036017D01*
X113584348Y-144004779D01*
X113565296Y-143969137D01*
X113553565Y-143930466D01*
X113549000Y-143884112D01*
X113549000Y-143232888D01*
X113553565Y-143186534D01*
X113565296Y-143147863D01*
X113584348Y-143112221D01*
X113609983Y-143080983D01*
X113641221Y-143055348D01*
X113676863Y-143036296D01*
X113715534Y-143024565D01*
X113761888Y-143020000D01*
X114838112Y-143020000D01*
X114884466Y-143024565D01*
X114884466Y-143024565D01*
G37*
G36*
X117424466Y-143024565D02*
X117463137Y-143036296D01*
X117498779Y-143055348D01*
X117530017Y-143080983D01*
X117555652Y-143112221D01*
X117574704Y-143147863D01*
X117586435Y-143186534D01*
X117591000Y-143232888D01*
X117591000Y-143884112D01*
X117586435Y-143930466D01*
X117574704Y-143969137D01*
X117555652Y-144004779D01*
X117530017Y-144036017D01*
X117498779Y-144061652D01*
X117463137Y-144080704D01*
X117424466Y-144092435D01*
X117378112Y-144097000D01*
X116301888Y-144097000D01*
X116255534Y-144092435D01*
X116216863Y-144080704D01*
X116181221Y-144061652D01*
X116149983Y-144036017D01*
X116124348Y-144004779D01*
X116105296Y-143969137D01*
X116093565Y-143930466D01*
X116089000Y-143884112D01*
X116089000Y-143232888D01*
X116093565Y-143186534D01*
X116105296Y-143147863D01*
X116124348Y-143112221D01*
X116149983Y-143080983D01*
X116181221Y-143055348D01*
X116216863Y-143036296D01*
X116255534Y-143024565D01*
X116301888Y-143020000D01*
X117378112Y-143020000D01*
X117424466Y-143024565D01*
X117424466Y-143024565D01*
G37*
G36*
X109677466Y-143024565D02*
X109716137Y-143036296D01*
X109751779Y-143055348D01*
X109783017Y-143080983D01*
X109808652Y-143112221D01*
X109827704Y-143147863D01*
X109839435Y-143186534D01*
X109844000Y-143232888D01*
X109844000Y-143884112D01*
X109839435Y-143930466D01*
X109827704Y-143969137D01*
X109808652Y-144004779D01*
X109783017Y-144036017D01*
X109751779Y-144061652D01*
X109716137Y-144080704D01*
X109677466Y-144092435D01*
X109631112Y-144097000D01*
X108554888Y-144097000D01*
X108508534Y-144092435D01*
X108469863Y-144080704D01*
X108434221Y-144061652D01*
X108402983Y-144036017D01*
X108377348Y-144004779D01*
X108358296Y-143969137D01*
X108346565Y-143930466D01*
X108342000Y-143884112D01*
X108342000Y-143232888D01*
X108346565Y-143186534D01*
X108358296Y-143147863D01*
X108377348Y-143112221D01*
X108402983Y-143080983D01*
X108434221Y-143055348D01*
X108469863Y-143036296D01*
X108508534Y-143024565D01*
X108554888Y-143020000D01*
X109631112Y-143020000D01*
X109677466Y-143024565D01*
X109677466Y-143024565D01*
G37*
G36*
X130475333Y-142791000D02*
X129873333Y-142791000D01*
X129873333Y-141689000D01*
X130475333Y-141689000D01*
X130475333Y-142791000D01*
X130475333Y-142791000D01*
G37*
G36*
X128253111Y-142791000D02*
X127651111Y-142791000D01*
X127651111Y-141689000D01*
X128253111Y-141689000D01*
X128253111Y-142791000D01*
X128253111Y-142791000D01*
G37*
G36*
X131586444Y-142791000D02*
X130984444Y-142791000D01*
X130984444Y-141689000D01*
X131586444Y-141689000D01*
X131586444Y-142791000D01*
X131586444Y-142791000D01*
G37*
G36*
X132697555Y-142791000D02*
X132095555Y-142791000D01*
X132095555Y-141689000D01*
X132697555Y-141689000D01*
X132697555Y-142791000D01*
X132697555Y-142791000D01*
G37*
G36*
X129364222Y-142791000D02*
X128762222Y-142791000D01*
X128762222Y-141689000D01*
X129364222Y-141689000D01*
X129364222Y-142791000D01*
X129364222Y-142791000D01*
G37*
G36*
X133808666Y-142791000D02*
X133206666Y-142791000D01*
X133206666Y-141689000D01*
X133808666Y-141689000D01*
X133808666Y-142791000D01*
X133808666Y-142791000D01*
G37*
G36*
X137142000Y-142791000D02*
X136540000Y-142791000D01*
X136540000Y-141689000D01*
X137142000Y-141689000D01*
X137142000Y-142791000D01*
X137142000Y-142791000D01*
G37*
G36*
X134919777Y-142791000D02*
X134317777Y-142791000D01*
X134317777Y-141689000D01*
X134919777Y-141689000D01*
X134919777Y-142791000D01*
X134919777Y-142791000D01*
G37*
G36*
X127142000Y-142791000D02*
X126540000Y-142791000D01*
X126540000Y-141689000D01*
X127142000Y-141689000D01*
X127142000Y-142791000D01*
X127142000Y-142791000D01*
G37*
G36*
X136030888Y-142791000D02*
X135428888Y-142791000D01*
X135428888Y-141689000D01*
X136030888Y-141689000D01*
X136030888Y-142791000D01*
X136030888Y-142791000D01*
G37*
G36*
X114884466Y-141149565D02*
X114923137Y-141161296D01*
X114958779Y-141180348D01*
X114990017Y-141205983D01*
X115015652Y-141237221D01*
X115034704Y-141272863D01*
X115046435Y-141311534D01*
X115051000Y-141357888D01*
X115051000Y-142009112D01*
X115046435Y-142055466D01*
X115034704Y-142094137D01*
X115015652Y-142129779D01*
X114990017Y-142161017D01*
X114958779Y-142186652D01*
X114923137Y-142205704D01*
X114884466Y-142217435D01*
X114838112Y-142222000D01*
X113761888Y-142222000D01*
X113715534Y-142217435D01*
X113676863Y-142205704D01*
X113641221Y-142186652D01*
X113609983Y-142161017D01*
X113584348Y-142129779D01*
X113565296Y-142094137D01*
X113553565Y-142055466D01*
X113549000Y-142009112D01*
X113549000Y-141357888D01*
X113553565Y-141311534D01*
X113565296Y-141272863D01*
X113584348Y-141237221D01*
X113609983Y-141205983D01*
X113641221Y-141180348D01*
X113676863Y-141161296D01*
X113715534Y-141149565D01*
X113761888Y-141145000D01*
X114838112Y-141145000D01*
X114884466Y-141149565D01*
X114884466Y-141149565D01*
G37*
G36*
X112217466Y-141149565D02*
X112256137Y-141161296D01*
X112291779Y-141180348D01*
X112323017Y-141205983D01*
X112348652Y-141237221D01*
X112367704Y-141272863D01*
X112379435Y-141311534D01*
X112384000Y-141357888D01*
X112384000Y-142009112D01*
X112379435Y-142055466D01*
X112367704Y-142094137D01*
X112348652Y-142129779D01*
X112323017Y-142161017D01*
X112291779Y-142186652D01*
X112256137Y-142205704D01*
X112217466Y-142217435D01*
X112171112Y-142222000D01*
X111094888Y-142222000D01*
X111048534Y-142217435D01*
X111009863Y-142205704D01*
X110974221Y-142186652D01*
X110942983Y-142161017D01*
X110917348Y-142129779D01*
X110898296Y-142094137D01*
X110886565Y-142055466D01*
X110882000Y-142009112D01*
X110882000Y-141357888D01*
X110886565Y-141311534D01*
X110898296Y-141272863D01*
X110917348Y-141237221D01*
X110942983Y-141205983D01*
X110974221Y-141180348D01*
X111009863Y-141161296D01*
X111048534Y-141149565D01*
X111094888Y-141145000D01*
X112171112Y-141145000D01*
X112217466Y-141149565D01*
X112217466Y-141149565D01*
G37*
G36*
X109677466Y-141149565D02*
X109716137Y-141161296D01*
X109751779Y-141180348D01*
X109783017Y-141205983D01*
X109808652Y-141237221D01*
X109827704Y-141272863D01*
X109839435Y-141311534D01*
X109844000Y-141357888D01*
X109844000Y-142009112D01*
X109839435Y-142055466D01*
X109827704Y-142094137D01*
X109808652Y-142129779D01*
X109783017Y-142161017D01*
X109751779Y-142186652D01*
X109716137Y-142205704D01*
X109677466Y-142217435D01*
X109631112Y-142222000D01*
X108554888Y-142222000D01*
X108508534Y-142217435D01*
X108469863Y-142205704D01*
X108434221Y-142186652D01*
X108402983Y-142161017D01*
X108377348Y-142129779D01*
X108358296Y-142094137D01*
X108346565Y-142055466D01*
X108342000Y-142009112D01*
X108342000Y-141357888D01*
X108346565Y-141311534D01*
X108358296Y-141272863D01*
X108377348Y-141237221D01*
X108402983Y-141205983D01*
X108434221Y-141180348D01*
X108469863Y-141161296D01*
X108508534Y-141149565D01*
X108554888Y-141145000D01*
X109631112Y-141145000D01*
X109677466Y-141149565D01*
X109677466Y-141149565D01*
G37*
G36*
X117424466Y-141149565D02*
X117463137Y-141161296D01*
X117498779Y-141180348D01*
X117530017Y-141205983D01*
X117555652Y-141237221D01*
X117574704Y-141272863D01*
X117586435Y-141311534D01*
X117591000Y-141357888D01*
X117591000Y-142009112D01*
X117586435Y-142055466D01*
X117574704Y-142094137D01*
X117555652Y-142129779D01*
X117530017Y-142161017D01*
X117498779Y-142186652D01*
X117463137Y-142205704D01*
X117424466Y-142217435D01*
X117378112Y-142222000D01*
X116301888Y-142222000D01*
X116255534Y-142217435D01*
X116216863Y-142205704D01*
X116181221Y-142186652D01*
X116149983Y-142161017D01*
X116124348Y-142129779D01*
X116105296Y-142094137D01*
X116093565Y-142055466D01*
X116089000Y-142009112D01*
X116089000Y-141357888D01*
X116093565Y-141311534D01*
X116105296Y-141272863D01*
X116124348Y-141237221D01*
X116149983Y-141205983D01*
X116181221Y-141180348D01*
X116216863Y-141161296D01*
X116255534Y-141149565D01*
X116301888Y-141145000D01*
X117378112Y-141145000D01*
X117424466Y-141149565D01*
X117424466Y-141149565D01*
G37*
G36*
X139392000Y-141541000D02*
X138290000Y-141541000D01*
X138290000Y-140939000D01*
X139392000Y-140939000D01*
X139392000Y-141541000D01*
X139392000Y-141541000D01*
G37*
G36*
X125392000Y-141541000D02*
X124290000Y-141541000D01*
X124290000Y-140939000D01*
X125392000Y-140939000D01*
X125392000Y-141541000D01*
X125392000Y-141541000D01*
G37*
G36*
X88392266Y-140103565D02*
X88430937Y-140115296D01*
X88466579Y-140134348D01*
X88497817Y-140159983D01*
X88523452Y-140191221D01*
X88542504Y-140226863D01*
X88554235Y-140265534D01*
X88558800Y-140311888D01*
X88558800Y-140963112D01*
X88554235Y-141009466D01*
X88542504Y-141048137D01*
X88523452Y-141083779D01*
X88497817Y-141115017D01*
X88466579Y-141140652D01*
X88430937Y-141159704D01*
X88392266Y-141171435D01*
X88345912Y-141176000D01*
X87269688Y-141176000D01*
X87223334Y-141171435D01*
X87184663Y-141159704D01*
X87149021Y-141140652D01*
X87117783Y-141115017D01*
X87092148Y-141083779D01*
X87073096Y-141048137D01*
X87061365Y-141009466D01*
X87056800Y-140963112D01*
X87056800Y-140311888D01*
X87061365Y-140265534D01*
X87073096Y-140226863D01*
X87092148Y-140191221D01*
X87117783Y-140159983D01*
X87149021Y-140134348D01*
X87184663Y-140115296D01*
X87223334Y-140103565D01*
X87269688Y-140099000D01*
X88345912Y-140099000D01*
X88392266Y-140103565D01*
X88392266Y-140103565D01*
G37*
G36*
X90627466Y-140103565D02*
X90666137Y-140115296D01*
X90701779Y-140134348D01*
X90733017Y-140159983D01*
X90758652Y-140191221D01*
X90777704Y-140226863D01*
X90789435Y-140265534D01*
X90794000Y-140311888D01*
X90794000Y-140963112D01*
X90789435Y-141009466D01*
X90777704Y-141048137D01*
X90758652Y-141083779D01*
X90733017Y-141115017D01*
X90701779Y-141140652D01*
X90666137Y-141159704D01*
X90627466Y-141171435D01*
X90581112Y-141176000D01*
X89504888Y-141176000D01*
X89458534Y-141171435D01*
X89419863Y-141159704D01*
X89384221Y-141140652D01*
X89352983Y-141115017D01*
X89327348Y-141083779D01*
X89308296Y-141048137D01*
X89296565Y-141009466D01*
X89292000Y-140963112D01*
X89292000Y-140311888D01*
X89296565Y-140265534D01*
X89308296Y-140226863D01*
X89327348Y-140191221D01*
X89352983Y-140159983D01*
X89384221Y-140134348D01*
X89419863Y-140115296D01*
X89458534Y-140103565D01*
X89504888Y-140099000D01*
X90581112Y-140099000D01*
X90627466Y-140103565D01*
X90627466Y-140103565D01*
G37*
G36*
X86080866Y-140078165D02*
X86119537Y-140089896D01*
X86155179Y-140108948D01*
X86186417Y-140134583D01*
X86212052Y-140165821D01*
X86231104Y-140201463D01*
X86242835Y-140240134D01*
X86247400Y-140286488D01*
X86247400Y-140937712D01*
X86242835Y-140984066D01*
X86231104Y-141022737D01*
X86212052Y-141058379D01*
X86186417Y-141089617D01*
X86155179Y-141115252D01*
X86119537Y-141134304D01*
X86080866Y-141146035D01*
X86034512Y-141150600D01*
X84958288Y-141150600D01*
X84911934Y-141146035D01*
X84873263Y-141134304D01*
X84837621Y-141115252D01*
X84806383Y-141089617D01*
X84780748Y-141058379D01*
X84761696Y-141022737D01*
X84749965Y-140984066D01*
X84745400Y-140937712D01*
X84745400Y-140286488D01*
X84749965Y-140240134D01*
X84761696Y-140201463D01*
X84780748Y-140165821D01*
X84806383Y-140134583D01*
X84837621Y-140108948D01*
X84873263Y-140089896D01*
X84911934Y-140078165D01*
X84958288Y-140073600D01*
X86034512Y-140073600D01*
X86080866Y-140078165D01*
X86080866Y-140078165D01*
G37*
G36*
X83617066Y-140052765D02*
X83655737Y-140064496D01*
X83691379Y-140083548D01*
X83722617Y-140109183D01*
X83748252Y-140140421D01*
X83767304Y-140176063D01*
X83779035Y-140214734D01*
X83783600Y-140261088D01*
X83783600Y-140912312D01*
X83779035Y-140958666D01*
X83767304Y-140997337D01*
X83748252Y-141032979D01*
X83722617Y-141064217D01*
X83691379Y-141089852D01*
X83655737Y-141108904D01*
X83617066Y-141120635D01*
X83570712Y-141125200D01*
X82494488Y-141125200D01*
X82448134Y-141120635D01*
X82409463Y-141108904D01*
X82373821Y-141089852D01*
X82342583Y-141064217D01*
X82316948Y-141032979D01*
X82297896Y-140997337D01*
X82286165Y-140958666D01*
X82281600Y-140912312D01*
X82281600Y-140261088D01*
X82286165Y-140214734D01*
X82297896Y-140176063D01*
X82316948Y-140140421D01*
X82342583Y-140109183D01*
X82373821Y-140083548D01*
X82409463Y-140064496D01*
X82448134Y-140052765D01*
X82494488Y-140048200D01*
X83570712Y-140048200D01*
X83617066Y-140052765D01*
X83617066Y-140052765D01*
G37*
G36*
X93675466Y-140040065D02*
X93714137Y-140051796D01*
X93749779Y-140070848D01*
X93781017Y-140096483D01*
X93806652Y-140127721D01*
X93825704Y-140163363D01*
X93837435Y-140202034D01*
X93842000Y-140248388D01*
X93842000Y-140899612D01*
X93837435Y-140945966D01*
X93825704Y-140984637D01*
X93806652Y-141020279D01*
X93781017Y-141051517D01*
X93749779Y-141077152D01*
X93714137Y-141096204D01*
X93675466Y-141107935D01*
X93629112Y-141112500D01*
X92552888Y-141112500D01*
X92506534Y-141107935D01*
X92467863Y-141096204D01*
X92432221Y-141077152D01*
X92400983Y-141051517D01*
X92375348Y-141020279D01*
X92356296Y-140984637D01*
X92344565Y-140945966D01*
X92340000Y-140899612D01*
X92340000Y-140248388D01*
X92344565Y-140202034D01*
X92356296Y-140163363D01*
X92375348Y-140127721D01*
X92400983Y-140096483D01*
X92432221Y-140070848D01*
X92467863Y-140051796D01*
X92506534Y-140040065D01*
X92552888Y-140035500D01*
X93629112Y-140035500D01*
X93675466Y-140040065D01*
X93675466Y-140040065D01*
G37*
G36*
X139392000Y-140541000D02*
X138290000Y-140541000D01*
X138290000Y-139939000D01*
X139392000Y-139939000D01*
X139392000Y-140541000D01*
X139392000Y-140541000D01*
G37*
G36*
X125392000Y-140541000D02*
X124290000Y-140541000D01*
X124290000Y-139939000D01*
X125392000Y-139939000D01*
X125392000Y-140541000D01*
X125392000Y-140541000D01*
G37*
G36*
X59923856Y-137296221D02*
X60041410Y-137319604D01*
X60323674Y-137436521D01*
X60577705Y-137606259D01*
X60793741Y-137822295D01*
X60963479Y-138076326D01*
X61080396Y-138358590D01*
X61084102Y-138377222D01*
X61140000Y-138658238D01*
X61140000Y-138963762D01*
X61101236Y-139158639D01*
X61080396Y-139263410D01*
X60963479Y-139545674D01*
X60793741Y-139799705D01*
X60577705Y-140015741D01*
X60323674Y-140185479D01*
X60041410Y-140302396D01*
X59965728Y-140317450D01*
X59741762Y-140362000D01*
X59436238Y-140362000D01*
X59212272Y-140317450D01*
X59136590Y-140302396D01*
X58854326Y-140185479D01*
X58600295Y-140015741D01*
X58384259Y-139799705D01*
X58214521Y-139545674D01*
X58097604Y-139263410D01*
X58076764Y-139158639D01*
X58038000Y-138963762D01*
X58038000Y-138658238D01*
X58093898Y-138377222D01*
X58097604Y-138358590D01*
X58214521Y-138076326D01*
X58384259Y-137822295D01*
X58600295Y-137606259D01*
X58854326Y-137436521D01*
X59136590Y-137319604D01*
X59254144Y-137296221D01*
X59436238Y-137260000D01*
X59741762Y-137260000D01*
X59923856Y-137296221D01*
X59923856Y-137296221D01*
G37*
G36*
X76153856Y-137296221D02*
X76271410Y-137319604D01*
X76553674Y-137436521D01*
X76807705Y-137606259D01*
X77023741Y-137822295D01*
X77193479Y-138076326D01*
X77310396Y-138358590D01*
X77314102Y-138377222D01*
X77370000Y-138658238D01*
X77370000Y-138963762D01*
X77331236Y-139158639D01*
X77310396Y-139263410D01*
X77193479Y-139545674D01*
X77023741Y-139799705D01*
X76807705Y-140015741D01*
X76553674Y-140185479D01*
X76271410Y-140302396D01*
X76195728Y-140317450D01*
X75971762Y-140362000D01*
X75666238Y-140362000D01*
X75442272Y-140317450D01*
X75366590Y-140302396D01*
X75084326Y-140185479D01*
X74830295Y-140015741D01*
X74614259Y-139799705D01*
X74444521Y-139545674D01*
X74327604Y-139263410D01*
X74306764Y-139158639D01*
X74268000Y-138963762D01*
X74268000Y-138658238D01*
X74323898Y-138377222D01*
X74327604Y-138358590D01*
X74444521Y-138076326D01*
X74614259Y-137822295D01*
X74830295Y-137606259D01*
X75084326Y-137436521D01*
X75366590Y-137319604D01*
X75484144Y-137296221D01*
X75666238Y-137260000D01*
X75971762Y-137260000D01*
X76153856Y-137296221D01*
X76153856Y-137296221D01*
G37*
G36*
X125392000Y-139541000D02*
X124290000Y-139541000D01*
X124290000Y-138939000D01*
X125392000Y-138939000D01*
X125392000Y-139541000D01*
X125392000Y-139541000D01*
G37*
G36*
X139392000Y-139541000D02*
X138290000Y-139541000D01*
X138290000Y-138939000D01*
X139392000Y-138939000D01*
X139392000Y-139541000D01*
X139392000Y-139541000D01*
G37*
G36*
X88392266Y-138228565D02*
X88430937Y-138240296D01*
X88466579Y-138259348D01*
X88497817Y-138284983D01*
X88523452Y-138316221D01*
X88542504Y-138351863D01*
X88554235Y-138390534D01*
X88558800Y-138436888D01*
X88558800Y-139088112D01*
X88554235Y-139134466D01*
X88542504Y-139173137D01*
X88523452Y-139208779D01*
X88497817Y-139240017D01*
X88466579Y-139265652D01*
X88430937Y-139284704D01*
X88392266Y-139296435D01*
X88345912Y-139301000D01*
X87269688Y-139301000D01*
X87223334Y-139296435D01*
X87184663Y-139284704D01*
X87149021Y-139265652D01*
X87117783Y-139240017D01*
X87092148Y-139208779D01*
X87073096Y-139173137D01*
X87061365Y-139134466D01*
X87056800Y-139088112D01*
X87056800Y-138436888D01*
X87061365Y-138390534D01*
X87073096Y-138351863D01*
X87092148Y-138316221D01*
X87117783Y-138284983D01*
X87149021Y-138259348D01*
X87184663Y-138240296D01*
X87223334Y-138228565D01*
X87269688Y-138224000D01*
X88345912Y-138224000D01*
X88392266Y-138228565D01*
X88392266Y-138228565D01*
G37*
G36*
X90627466Y-138228565D02*
X90666137Y-138240296D01*
X90701779Y-138259348D01*
X90733017Y-138284983D01*
X90758652Y-138316221D01*
X90777704Y-138351863D01*
X90789435Y-138390534D01*
X90794000Y-138436888D01*
X90794000Y-139088112D01*
X90789435Y-139134466D01*
X90777704Y-139173137D01*
X90758652Y-139208779D01*
X90733017Y-139240017D01*
X90701779Y-139265652D01*
X90666137Y-139284704D01*
X90627466Y-139296435D01*
X90581112Y-139301000D01*
X89504888Y-139301000D01*
X89458534Y-139296435D01*
X89419863Y-139284704D01*
X89384221Y-139265652D01*
X89352983Y-139240017D01*
X89327348Y-139208779D01*
X89308296Y-139173137D01*
X89296565Y-139134466D01*
X89292000Y-139088112D01*
X89292000Y-138436888D01*
X89296565Y-138390534D01*
X89308296Y-138351863D01*
X89327348Y-138316221D01*
X89352983Y-138284983D01*
X89384221Y-138259348D01*
X89419863Y-138240296D01*
X89458534Y-138228565D01*
X89504888Y-138224000D01*
X90581112Y-138224000D01*
X90627466Y-138228565D01*
X90627466Y-138228565D01*
G37*
G36*
X86080866Y-138203165D02*
X86119537Y-138214896D01*
X86155179Y-138233948D01*
X86186417Y-138259583D01*
X86212052Y-138290821D01*
X86231104Y-138326463D01*
X86242835Y-138365134D01*
X86247400Y-138411488D01*
X86247400Y-139062712D01*
X86242835Y-139109066D01*
X86231104Y-139147737D01*
X86212052Y-139183379D01*
X86186417Y-139214617D01*
X86155179Y-139240252D01*
X86119537Y-139259304D01*
X86080866Y-139271035D01*
X86034512Y-139275600D01*
X84958288Y-139275600D01*
X84911934Y-139271035D01*
X84873263Y-139259304D01*
X84837621Y-139240252D01*
X84806383Y-139214617D01*
X84780748Y-139183379D01*
X84761696Y-139147737D01*
X84749965Y-139109066D01*
X84745400Y-139062712D01*
X84745400Y-138411488D01*
X84749965Y-138365134D01*
X84761696Y-138326463D01*
X84780748Y-138290821D01*
X84806383Y-138259583D01*
X84837621Y-138233948D01*
X84873263Y-138214896D01*
X84911934Y-138203165D01*
X84958288Y-138198600D01*
X86034512Y-138198600D01*
X86080866Y-138203165D01*
X86080866Y-138203165D01*
G37*
G36*
X83617066Y-138177765D02*
X83655737Y-138189496D01*
X83691379Y-138208548D01*
X83722617Y-138234183D01*
X83748252Y-138265421D01*
X83767304Y-138301063D01*
X83779035Y-138339734D01*
X83783600Y-138386088D01*
X83783600Y-139037312D01*
X83779035Y-139083666D01*
X83767304Y-139122337D01*
X83748252Y-139157979D01*
X83722617Y-139189217D01*
X83691379Y-139214852D01*
X83655737Y-139233904D01*
X83617066Y-139245635D01*
X83570712Y-139250200D01*
X82494488Y-139250200D01*
X82448134Y-139245635D01*
X82409463Y-139233904D01*
X82373821Y-139214852D01*
X82342583Y-139189217D01*
X82316948Y-139157979D01*
X82297896Y-139122337D01*
X82286165Y-139083666D01*
X82281600Y-139037312D01*
X82281600Y-138386088D01*
X82286165Y-138339734D01*
X82297896Y-138301063D01*
X82316948Y-138265421D01*
X82342583Y-138234183D01*
X82373821Y-138208548D01*
X82409463Y-138189496D01*
X82448134Y-138177765D01*
X82494488Y-138173200D01*
X83570712Y-138173200D01*
X83617066Y-138177765D01*
X83617066Y-138177765D01*
G37*
G36*
X93675466Y-138165065D02*
X93714137Y-138176796D01*
X93749779Y-138195848D01*
X93781017Y-138221483D01*
X93806652Y-138252721D01*
X93825704Y-138288363D01*
X93837435Y-138327034D01*
X93842000Y-138373388D01*
X93842000Y-139024612D01*
X93837435Y-139070966D01*
X93825704Y-139109637D01*
X93806652Y-139145279D01*
X93781017Y-139176517D01*
X93749779Y-139202152D01*
X93714137Y-139221204D01*
X93675466Y-139232935D01*
X93629112Y-139237500D01*
X92552888Y-139237500D01*
X92506534Y-139232935D01*
X92467863Y-139221204D01*
X92432221Y-139202152D01*
X92400983Y-139176517D01*
X92375348Y-139145279D01*
X92356296Y-139109637D01*
X92344565Y-139070966D01*
X92340000Y-139024612D01*
X92340000Y-138373388D01*
X92344565Y-138327034D01*
X92356296Y-138288363D01*
X92375348Y-138252721D01*
X92400983Y-138221483D01*
X92432221Y-138195848D01*
X92467863Y-138176796D01*
X92506534Y-138165065D01*
X92552888Y-138160500D01*
X93629112Y-138160500D01*
X93675466Y-138165065D01*
X93675466Y-138165065D01*
G37*
G36*
X120154000Y-138950000D02*
X118352000Y-138950000D01*
X118352000Y-137148000D01*
X120154000Y-137148000D01*
X120154000Y-138950000D01*
X120154000Y-138950000D01*
G37*
G36*
X116823443Y-137154519D02*
X116889627Y-137161037D01*
X117002853Y-137195384D01*
X117059467Y-137212557D01*
X117148225Y-137260000D01*
X117215991Y-137296222D01*
X117244482Y-137319604D01*
X117353186Y-137408814D01*
X117436448Y-137510271D01*
X117465778Y-137546009D01*
X117465779Y-137546011D01*
X117549443Y-137702533D01*
X117549443Y-137702534D01*
X117600963Y-137872373D01*
X117618359Y-138049000D01*
X117600963Y-138225627D01*
X117580567Y-138292863D01*
X117549443Y-138395467D01*
X117510753Y-138467850D01*
X117465778Y-138551991D01*
X117436448Y-138587729D01*
X117353186Y-138689186D01*
X117251729Y-138772448D01*
X117215991Y-138801778D01*
X117215989Y-138801779D01*
X117059467Y-138885443D01*
X117002853Y-138902616D01*
X116889627Y-138936963D01*
X116823443Y-138943481D01*
X116757260Y-138950000D01*
X116668740Y-138950000D01*
X116602557Y-138943481D01*
X116536373Y-138936963D01*
X116423147Y-138902616D01*
X116366533Y-138885443D01*
X116210011Y-138801779D01*
X116210009Y-138801778D01*
X116174271Y-138772448D01*
X116072814Y-138689186D01*
X115989552Y-138587729D01*
X115960222Y-138551991D01*
X115915247Y-138467850D01*
X115876557Y-138395467D01*
X115845433Y-138292863D01*
X115825037Y-138225627D01*
X115807641Y-138049000D01*
X115825037Y-137872373D01*
X115876557Y-137702534D01*
X115876557Y-137702533D01*
X115960221Y-137546011D01*
X115960222Y-137546009D01*
X115989552Y-137510271D01*
X116072814Y-137408814D01*
X116181518Y-137319604D01*
X116210009Y-137296222D01*
X116277775Y-137260000D01*
X116366533Y-137212557D01*
X116423147Y-137195384D01*
X116536373Y-137161037D01*
X116602557Y-137154519D01*
X116668740Y-137148000D01*
X116757260Y-137148000D01*
X116823443Y-137154519D01*
X116823443Y-137154519D01*
G37*
G36*
X114283443Y-137154519D02*
X114349627Y-137161037D01*
X114462853Y-137195384D01*
X114519467Y-137212557D01*
X114608225Y-137260000D01*
X114675991Y-137296222D01*
X114704482Y-137319604D01*
X114813186Y-137408814D01*
X114896448Y-137510271D01*
X114925778Y-137546009D01*
X114925779Y-137546011D01*
X115009443Y-137702533D01*
X115009443Y-137702534D01*
X115060963Y-137872373D01*
X115078359Y-138049000D01*
X115060963Y-138225627D01*
X115040567Y-138292863D01*
X115009443Y-138395467D01*
X114970753Y-138467850D01*
X114925778Y-138551991D01*
X114896448Y-138587729D01*
X114813186Y-138689186D01*
X114711729Y-138772448D01*
X114675991Y-138801778D01*
X114675989Y-138801779D01*
X114519467Y-138885443D01*
X114462853Y-138902616D01*
X114349627Y-138936963D01*
X114283443Y-138943481D01*
X114217260Y-138950000D01*
X114128740Y-138950000D01*
X114062557Y-138943481D01*
X113996373Y-138936963D01*
X113883147Y-138902616D01*
X113826533Y-138885443D01*
X113670011Y-138801779D01*
X113670009Y-138801778D01*
X113634271Y-138772448D01*
X113532814Y-138689186D01*
X113449552Y-138587729D01*
X113420222Y-138551991D01*
X113375247Y-138467850D01*
X113336557Y-138395467D01*
X113305433Y-138292863D01*
X113285037Y-138225627D01*
X113267641Y-138049000D01*
X113285037Y-137872373D01*
X113336557Y-137702534D01*
X113336557Y-137702533D01*
X113420221Y-137546011D01*
X113420222Y-137546009D01*
X113449552Y-137510271D01*
X113532814Y-137408814D01*
X113641518Y-137319604D01*
X113670009Y-137296222D01*
X113737775Y-137260000D01*
X113826533Y-137212557D01*
X113883147Y-137195384D01*
X113996373Y-137161037D01*
X114062557Y-137154519D01*
X114128740Y-137148000D01*
X114217260Y-137148000D01*
X114283443Y-137154519D01*
X114283443Y-137154519D01*
G37*
G36*
X111743443Y-137154519D02*
X111809627Y-137161037D01*
X111922853Y-137195384D01*
X111979467Y-137212557D01*
X112068225Y-137260000D01*
X112135991Y-137296222D01*
X112164482Y-137319604D01*
X112273186Y-137408814D01*
X112356448Y-137510271D01*
X112385778Y-137546009D01*
X112385779Y-137546011D01*
X112469443Y-137702533D01*
X112469443Y-137702534D01*
X112520963Y-137872373D01*
X112538359Y-138049000D01*
X112520963Y-138225627D01*
X112500567Y-138292863D01*
X112469443Y-138395467D01*
X112430753Y-138467850D01*
X112385778Y-138551991D01*
X112356448Y-138587729D01*
X112273186Y-138689186D01*
X112171729Y-138772448D01*
X112135991Y-138801778D01*
X112135989Y-138801779D01*
X111979467Y-138885443D01*
X111922853Y-138902616D01*
X111809627Y-138936963D01*
X111743443Y-138943481D01*
X111677260Y-138950000D01*
X111588740Y-138950000D01*
X111522557Y-138943481D01*
X111456373Y-138936963D01*
X111343147Y-138902616D01*
X111286533Y-138885443D01*
X111130011Y-138801779D01*
X111130009Y-138801778D01*
X111094271Y-138772448D01*
X110992814Y-138689186D01*
X110909552Y-138587729D01*
X110880222Y-138551991D01*
X110835247Y-138467850D01*
X110796557Y-138395467D01*
X110765433Y-138292863D01*
X110745037Y-138225627D01*
X110727641Y-138049000D01*
X110745037Y-137872373D01*
X110796557Y-137702534D01*
X110796557Y-137702533D01*
X110880221Y-137546011D01*
X110880222Y-137546009D01*
X110909552Y-137510271D01*
X110992814Y-137408814D01*
X111101518Y-137319604D01*
X111130009Y-137296222D01*
X111197775Y-137260000D01*
X111286533Y-137212557D01*
X111343147Y-137195384D01*
X111456373Y-137161037D01*
X111522557Y-137154519D01*
X111588740Y-137148000D01*
X111677260Y-137148000D01*
X111743443Y-137154519D01*
X111743443Y-137154519D01*
G37*
G36*
X139392000Y-138541000D02*
X138290000Y-138541000D01*
X138290000Y-137939000D01*
X139392000Y-137939000D01*
X139392000Y-138541000D01*
X139392000Y-138541000D01*
G37*
G36*
X125392000Y-138541000D02*
X124290000Y-138541000D01*
X124290000Y-137939000D01*
X125392000Y-137939000D01*
X125392000Y-138541000D01*
X125392000Y-138541000D01*
G37*
G36*
X139392000Y-137541000D02*
X138290000Y-137541000D01*
X138290000Y-136939000D01*
X139392000Y-136939000D01*
X139392000Y-137541000D01*
X139392000Y-137541000D01*
G37*
G36*
X125392000Y-137541000D02*
X124290000Y-137541000D01*
X124290000Y-136939000D01*
X125392000Y-136939000D01*
X125392000Y-137541000D01*
X125392000Y-137541000D01*
G37*
G36*
X125392000Y-136541000D02*
X124290000Y-136541000D01*
X124290000Y-135939000D01*
X125392000Y-135939000D01*
X125392000Y-136541000D01*
X125392000Y-136541000D01*
G37*
G36*
X139392000Y-136541000D02*
X138290000Y-136541000D01*
X138290000Y-135939000D01*
X139392000Y-135939000D01*
X139392000Y-136541000D01*
X139392000Y-136541000D01*
G37*
G36*
X139392000Y-135541000D02*
X138290000Y-135541000D01*
X138290000Y-134939000D01*
X139392000Y-134939000D01*
X139392000Y-135541000D01*
X139392000Y-135541000D01*
G37*
G36*
X125392000Y-135541000D02*
X124290000Y-135541000D01*
X124290000Y-134939000D01*
X125392000Y-134939000D01*
X125392000Y-135541000D01*
X125392000Y-135541000D01*
G37*
G36*
X95106443Y-133217519D02*
X95172627Y-133224037D01*
X95285853Y-133258384D01*
X95342467Y-133275557D01*
X95481087Y-133349652D01*
X95498991Y-133359222D01*
X95534729Y-133388552D01*
X95636186Y-133471814D01*
X95719448Y-133573271D01*
X95748778Y-133609009D01*
X95748779Y-133609011D01*
X95832443Y-133765533D01*
X95844222Y-133804365D01*
X95883963Y-133935373D01*
X95901359Y-134112000D01*
X95883963Y-134288627D01*
X95849616Y-134401853D01*
X95832443Y-134458467D01*
X95758348Y-134597087D01*
X95748778Y-134614991D01*
X95734039Y-134632950D01*
X95636186Y-134752186D01*
X95543175Y-134828517D01*
X95498991Y-134864778D01*
X95498989Y-134864779D01*
X95342467Y-134948443D01*
X95285853Y-134965616D01*
X95172627Y-134999963D01*
X95106443Y-135006481D01*
X95040260Y-135013000D01*
X94951740Y-135013000D01*
X94885557Y-135006481D01*
X94819373Y-134999963D01*
X94706147Y-134965616D01*
X94649533Y-134948443D01*
X94493011Y-134864779D01*
X94493009Y-134864778D01*
X94448825Y-134828517D01*
X94355814Y-134752186D01*
X94257961Y-134632950D01*
X94243222Y-134614991D01*
X94233652Y-134597087D01*
X94159557Y-134458467D01*
X94142384Y-134401853D01*
X94108037Y-134288627D01*
X94090641Y-134112000D01*
X94108037Y-133935373D01*
X94147778Y-133804365D01*
X94159557Y-133765533D01*
X94243221Y-133609011D01*
X94243222Y-133609009D01*
X94272552Y-133573271D01*
X94355814Y-133471814D01*
X94457271Y-133388552D01*
X94493009Y-133359222D01*
X94510913Y-133349652D01*
X94649533Y-133275557D01*
X94706147Y-133258384D01*
X94819373Y-133224037D01*
X94885557Y-133217519D01*
X94951740Y-133211000D01*
X95040260Y-133211000D01*
X95106443Y-133217519D01*
X95106443Y-133217519D01*
G37*
G36*
X100186443Y-133217519D02*
X100252627Y-133224037D01*
X100365853Y-133258384D01*
X100422467Y-133275557D01*
X100561087Y-133349652D01*
X100578991Y-133359222D01*
X100614729Y-133388552D01*
X100716186Y-133471814D01*
X100799448Y-133573271D01*
X100828778Y-133609009D01*
X100828779Y-133609011D01*
X100912443Y-133765533D01*
X100924222Y-133804365D01*
X100963963Y-133935373D01*
X100981359Y-134112000D01*
X100963963Y-134288627D01*
X100929616Y-134401853D01*
X100912443Y-134458467D01*
X100838348Y-134597087D01*
X100828778Y-134614991D01*
X100814039Y-134632950D01*
X100716186Y-134752186D01*
X100623175Y-134828517D01*
X100578991Y-134864778D01*
X100578989Y-134864779D01*
X100422467Y-134948443D01*
X100365853Y-134965616D01*
X100252627Y-134999963D01*
X100186443Y-135006481D01*
X100120260Y-135013000D01*
X100031740Y-135013000D01*
X99965557Y-135006481D01*
X99899373Y-134999963D01*
X99786147Y-134965616D01*
X99729533Y-134948443D01*
X99573011Y-134864779D01*
X99573009Y-134864778D01*
X99528825Y-134828517D01*
X99435814Y-134752186D01*
X99337961Y-134632950D01*
X99323222Y-134614991D01*
X99313652Y-134597087D01*
X99239557Y-134458467D01*
X99222384Y-134401853D01*
X99188037Y-134288627D01*
X99170641Y-134112000D01*
X99188037Y-133935373D01*
X99227778Y-133804365D01*
X99239557Y-133765533D01*
X99323221Y-133609011D01*
X99323222Y-133609009D01*
X99352552Y-133573271D01*
X99435814Y-133471814D01*
X99537271Y-133388552D01*
X99573009Y-133359222D01*
X99590913Y-133349652D01*
X99729533Y-133275557D01*
X99786147Y-133258384D01*
X99899373Y-133224037D01*
X99965557Y-133217519D01*
X100031740Y-133211000D01*
X100120260Y-133211000D01*
X100186443Y-133217519D01*
X100186443Y-133217519D01*
G37*
G36*
X102726443Y-133217519D02*
X102792627Y-133224037D01*
X102905853Y-133258384D01*
X102962467Y-133275557D01*
X103101087Y-133349652D01*
X103118991Y-133359222D01*
X103154729Y-133388552D01*
X103256186Y-133471814D01*
X103339448Y-133573271D01*
X103368778Y-133609009D01*
X103368779Y-133609011D01*
X103452443Y-133765533D01*
X103464222Y-133804365D01*
X103503963Y-133935373D01*
X103521359Y-134112000D01*
X103503963Y-134288627D01*
X103469616Y-134401853D01*
X103452443Y-134458467D01*
X103378348Y-134597087D01*
X103368778Y-134614991D01*
X103354039Y-134632950D01*
X103256186Y-134752186D01*
X103163175Y-134828517D01*
X103118991Y-134864778D01*
X103118989Y-134864779D01*
X102962467Y-134948443D01*
X102905853Y-134965616D01*
X102792627Y-134999963D01*
X102726443Y-135006481D01*
X102660260Y-135013000D01*
X102571740Y-135013000D01*
X102505557Y-135006481D01*
X102439373Y-134999963D01*
X102326147Y-134965616D01*
X102269533Y-134948443D01*
X102113011Y-134864779D01*
X102113009Y-134864778D01*
X102068825Y-134828517D01*
X101975814Y-134752186D01*
X101877961Y-134632950D01*
X101863222Y-134614991D01*
X101853652Y-134597087D01*
X101779557Y-134458467D01*
X101762384Y-134401853D01*
X101728037Y-134288627D01*
X101710641Y-134112000D01*
X101728037Y-133935373D01*
X101767778Y-133804365D01*
X101779557Y-133765533D01*
X101863221Y-133609011D01*
X101863222Y-133609009D01*
X101892552Y-133573271D01*
X101975814Y-133471814D01*
X102077271Y-133388552D01*
X102113009Y-133359222D01*
X102130913Y-133349652D01*
X102269533Y-133275557D01*
X102326147Y-133258384D01*
X102439373Y-133224037D01*
X102505557Y-133217519D01*
X102571740Y-133211000D01*
X102660260Y-133211000D01*
X102726443Y-133217519D01*
X102726443Y-133217519D01*
G37*
G36*
X97646443Y-133217519D02*
X97712627Y-133224037D01*
X97825853Y-133258384D01*
X97882467Y-133275557D01*
X98021087Y-133349652D01*
X98038991Y-133359222D01*
X98074729Y-133388552D01*
X98176186Y-133471814D01*
X98259448Y-133573271D01*
X98288778Y-133609009D01*
X98288779Y-133609011D01*
X98372443Y-133765533D01*
X98384222Y-133804365D01*
X98423963Y-133935373D01*
X98441359Y-134112000D01*
X98423963Y-134288627D01*
X98389616Y-134401853D01*
X98372443Y-134458467D01*
X98298348Y-134597087D01*
X98288778Y-134614991D01*
X98274039Y-134632950D01*
X98176186Y-134752186D01*
X98083175Y-134828517D01*
X98038991Y-134864778D01*
X98038989Y-134864779D01*
X97882467Y-134948443D01*
X97825853Y-134965616D01*
X97712627Y-134999963D01*
X97646443Y-135006481D01*
X97580260Y-135013000D01*
X97491740Y-135013000D01*
X97425557Y-135006481D01*
X97359373Y-134999963D01*
X97246147Y-134965616D01*
X97189533Y-134948443D01*
X97033011Y-134864779D01*
X97033009Y-134864778D01*
X96988825Y-134828517D01*
X96895814Y-134752186D01*
X96797961Y-134632950D01*
X96783222Y-134614991D01*
X96773652Y-134597087D01*
X96699557Y-134458467D01*
X96682384Y-134401853D01*
X96648037Y-134288627D01*
X96630641Y-134112000D01*
X96648037Y-133935373D01*
X96687778Y-133804365D01*
X96699557Y-133765533D01*
X96783221Y-133609011D01*
X96783222Y-133609009D01*
X96812552Y-133573271D01*
X96895814Y-133471814D01*
X96997271Y-133388552D01*
X97033009Y-133359222D01*
X97050913Y-133349652D01*
X97189533Y-133275557D01*
X97246147Y-133258384D01*
X97359373Y-133224037D01*
X97425557Y-133217519D01*
X97491740Y-133211000D01*
X97580260Y-133211000D01*
X97646443Y-133217519D01*
X97646443Y-133217519D01*
G37*
G36*
X90817000Y-135013000D02*
X89015000Y-135013000D01*
X89015000Y-133211000D01*
X90817000Y-133211000D01*
X90817000Y-135013000D01*
X90817000Y-135013000D01*
G37*
G36*
X92566443Y-133217519D02*
X92632627Y-133224037D01*
X92745853Y-133258384D01*
X92802467Y-133275557D01*
X92941087Y-133349652D01*
X92958991Y-133359222D01*
X92994729Y-133388552D01*
X93096186Y-133471814D01*
X93179448Y-133573271D01*
X93208778Y-133609009D01*
X93208779Y-133609011D01*
X93292443Y-133765533D01*
X93304222Y-133804365D01*
X93343963Y-133935373D01*
X93361359Y-134112000D01*
X93343963Y-134288627D01*
X93309616Y-134401853D01*
X93292443Y-134458467D01*
X93218348Y-134597087D01*
X93208778Y-134614991D01*
X93194039Y-134632950D01*
X93096186Y-134752186D01*
X93003175Y-134828517D01*
X92958991Y-134864778D01*
X92958989Y-134864779D01*
X92802467Y-134948443D01*
X92745853Y-134965616D01*
X92632627Y-134999963D01*
X92566443Y-135006481D01*
X92500260Y-135013000D01*
X92411740Y-135013000D01*
X92345557Y-135006481D01*
X92279373Y-134999963D01*
X92166147Y-134965616D01*
X92109533Y-134948443D01*
X91953011Y-134864779D01*
X91953009Y-134864778D01*
X91908825Y-134828517D01*
X91815814Y-134752186D01*
X91717961Y-134632950D01*
X91703222Y-134614991D01*
X91693652Y-134597087D01*
X91619557Y-134458467D01*
X91602384Y-134401853D01*
X91568037Y-134288627D01*
X91550641Y-134112000D01*
X91568037Y-133935373D01*
X91607778Y-133804365D01*
X91619557Y-133765533D01*
X91703221Y-133609011D01*
X91703222Y-133609009D01*
X91732552Y-133573271D01*
X91815814Y-133471814D01*
X91917271Y-133388552D01*
X91953009Y-133359222D01*
X91970913Y-133349652D01*
X92109533Y-133275557D01*
X92166147Y-133258384D01*
X92279373Y-133224037D01*
X92345557Y-133217519D01*
X92411740Y-133211000D01*
X92500260Y-133211000D01*
X92566443Y-133217519D01*
X92566443Y-133217519D01*
G37*
G36*
X117170466Y-133829765D02*
X117209137Y-133841496D01*
X117244779Y-133860548D01*
X117276017Y-133886183D01*
X117301652Y-133917421D01*
X117320704Y-133953063D01*
X117332435Y-133991734D01*
X117337000Y-134038088D01*
X117337000Y-134689312D01*
X117332435Y-134735666D01*
X117320704Y-134774337D01*
X117301652Y-134809979D01*
X117276017Y-134841217D01*
X117244779Y-134866852D01*
X117209137Y-134885904D01*
X117170466Y-134897635D01*
X117124112Y-134902200D01*
X116047888Y-134902200D01*
X116001534Y-134897635D01*
X115962863Y-134885904D01*
X115927221Y-134866852D01*
X115895983Y-134841217D01*
X115870348Y-134809979D01*
X115851296Y-134774337D01*
X115839565Y-134735666D01*
X115835000Y-134689312D01*
X115835000Y-134038088D01*
X115839565Y-133991734D01*
X115851296Y-133953063D01*
X115870348Y-133917421D01*
X115895983Y-133886183D01*
X115927221Y-133860548D01*
X115962863Y-133841496D01*
X116001534Y-133829765D01*
X116047888Y-133825200D01*
X117124112Y-133825200D01*
X117170466Y-133829765D01*
X117170466Y-133829765D01*
G37*
G36*
X114757466Y-133817065D02*
X114796137Y-133828796D01*
X114831779Y-133847848D01*
X114863017Y-133873483D01*
X114888652Y-133904721D01*
X114907704Y-133940363D01*
X114919435Y-133979034D01*
X114924000Y-134025388D01*
X114924000Y-134676612D01*
X114919435Y-134722966D01*
X114907704Y-134761637D01*
X114888652Y-134797279D01*
X114863017Y-134828517D01*
X114831779Y-134854152D01*
X114796137Y-134873204D01*
X114757466Y-134884935D01*
X114711112Y-134889500D01*
X113634888Y-134889500D01*
X113588534Y-134884935D01*
X113549863Y-134873204D01*
X113514221Y-134854152D01*
X113482983Y-134828517D01*
X113457348Y-134797279D01*
X113438296Y-134761637D01*
X113426565Y-134722966D01*
X113422000Y-134676612D01*
X113422000Y-134025388D01*
X113426565Y-133979034D01*
X113438296Y-133940363D01*
X113457348Y-133904721D01*
X113482983Y-133873483D01*
X113514221Y-133847848D01*
X113549863Y-133828796D01*
X113588534Y-133817065D01*
X113634888Y-133812500D01*
X114711112Y-133812500D01*
X114757466Y-133817065D01*
X114757466Y-133817065D01*
G37*
G36*
X112306366Y-133804365D02*
X112345037Y-133816096D01*
X112380679Y-133835148D01*
X112411917Y-133860783D01*
X112437552Y-133892021D01*
X112456604Y-133927663D01*
X112468335Y-133966334D01*
X112472900Y-134012688D01*
X112472900Y-134663912D01*
X112468335Y-134710266D01*
X112456604Y-134748937D01*
X112437552Y-134784579D01*
X112411917Y-134815817D01*
X112380679Y-134841452D01*
X112345037Y-134860504D01*
X112306366Y-134872235D01*
X112260012Y-134876800D01*
X111183788Y-134876800D01*
X111137434Y-134872235D01*
X111098763Y-134860504D01*
X111063121Y-134841452D01*
X111031883Y-134815817D01*
X111006248Y-134784579D01*
X110987196Y-134748937D01*
X110975465Y-134710266D01*
X110970900Y-134663912D01*
X110970900Y-134012688D01*
X110975465Y-133966334D01*
X110987196Y-133927663D01*
X111006248Y-133892021D01*
X111031883Y-133860783D01*
X111063121Y-133835148D01*
X111098763Y-133816096D01*
X111137434Y-133804365D01*
X111183788Y-133799800D01*
X112260012Y-133799800D01*
X112306366Y-133804365D01*
X112306366Y-133804365D01*
G37*
G36*
X139392000Y-134541000D02*
X138290000Y-134541000D01*
X138290000Y-133939000D01*
X139392000Y-133939000D01*
X139392000Y-134541000D01*
X139392000Y-134541000D01*
G37*
G36*
X125392000Y-134541000D02*
X124290000Y-134541000D01*
X124290000Y-133939000D01*
X125392000Y-133939000D01*
X125392000Y-134541000D01*
X125392000Y-134541000D01*
G37*
G36*
X59941527Y-130949736D02*
X60041410Y-130969604D01*
X60323674Y-131086521D01*
X60577705Y-131256259D01*
X60793741Y-131472295D01*
X60963479Y-131726326D01*
X61080396Y-132008590D01*
X61089163Y-132052663D01*
X61119813Y-132206750D01*
X61140000Y-132308240D01*
X61140000Y-132613760D01*
X61080396Y-132913410D01*
X60963479Y-133195674D01*
X60793741Y-133449705D01*
X60577705Y-133665741D01*
X60323674Y-133835479D01*
X60041410Y-133952396D01*
X59971339Y-133966334D01*
X59741762Y-134012000D01*
X59436238Y-134012000D01*
X59206661Y-133966334D01*
X59136590Y-133952396D01*
X58854326Y-133835479D01*
X58600295Y-133665741D01*
X58384259Y-133449705D01*
X58214521Y-133195674D01*
X58097604Y-132913410D01*
X58038000Y-132613760D01*
X58038000Y-132308240D01*
X58058188Y-132206750D01*
X58088837Y-132052663D01*
X58097604Y-132008590D01*
X58214521Y-131726326D01*
X58384259Y-131472295D01*
X58600295Y-131256259D01*
X58854326Y-131086521D01*
X59136590Y-130969604D01*
X59236473Y-130949736D01*
X59436238Y-130910000D01*
X59741762Y-130910000D01*
X59941527Y-130949736D01*
X59941527Y-130949736D01*
G37*
G36*
X76171527Y-130949736D02*
X76271410Y-130969604D01*
X76553674Y-131086521D01*
X76807705Y-131256259D01*
X77023741Y-131472295D01*
X77193479Y-131726326D01*
X77310396Y-132008590D01*
X77319163Y-132052663D01*
X77349813Y-132206750D01*
X77370000Y-132308240D01*
X77370000Y-132613760D01*
X77310396Y-132913410D01*
X77193479Y-133195674D01*
X77023741Y-133449705D01*
X76807705Y-133665741D01*
X76553674Y-133835479D01*
X76271410Y-133952396D01*
X76201339Y-133966334D01*
X75971762Y-134012000D01*
X75666238Y-134012000D01*
X75436661Y-133966334D01*
X75366590Y-133952396D01*
X75084326Y-133835479D01*
X74830295Y-133665741D01*
X74614259Y-133449705D01*
X74444521Y-133195674D01*
X74327604Y-132913410D01*
X74268000Y-132613760D01*
X74268000Y-132308240D01*
X74288188Y-132206750D01*
X74318837Y-132052663D01*
X74327604Y-132008590D01*
X74444521Y-131726326D01*
X74614259Y-131472295D01*
X74830295Y-131256259D01*
X75084326Y-131086521D01*
X75366590Y-130969604D01*
X75466473Y-130949736D01*
X75666238Y-130910000D01*
X75971762Y-130910000D01*
X76171527Y-130949736D01*
X76171527Y-130949736D01*
G37*
G36*
X139392000Y-133541000D02*
X138290000Y-133541000D01*
X138290000Y-132939000D01*
X139392000Y-132939000D01*
X139392000Y-133541000D01*
X139392000Y-133541000D01*
G37*
G36*
X125392000Y-133541000D02*
X124290000Y-133541000D01*
X124290000Y-132939000D01*
X125392000Y-132939000D01*
X125392000Y-133541000D01*
X125392000Y-133541000D01*
G37*
G36*
X117170466Y-131954765D02*
X117209137Y-131966496D01*
X117244779Y-131985548D01*
X117276017Y-132011183D01*
X117301652Y-132042421D01*
X117320704Y-132078063D01*
X117332435Y-132116734D01*
X117337000Y-132163088D01*
X117337000Y-132814312D01*
X117332435Y-132860666D01*
X117320704Y-132899337D01*
X117301652Y-132934979D01*
X117276017Y-132966217D01*
X117244779Y-132991852D01*
X117209137Y-133010904D01*
X117170466Y-133022635D01*
X117124112Y-133027200D01*
X116047888Y-133027200D01*
X116001534Y-133022635D01*
X115962863Y-133010904D01*
X115927221Y-132991852D01*
X115895983Y-132966217D01*
X115870348Y-132934979D01*
X115851296Y-132899337D01*
X115839565Y-132860666D01*
X115835000Y-132814312D01*
X115835000Y-132163088D01*
X115839565Y-132116734D01*
X115851296Y-132078063D01*
X115870348Y-132042421D01*
X115895983Y-132011183D01*
X115927221Y-131985548D01*
X115962863Y-131966496D01*
X116001534Y-131954765D01*
X116047888Y-131950200D01*
X117124112Y-131950200D01*
X117170466Y-131954765D01*
X117170466Y-131954765D01*
G37*
G36*
X114757466Y-131942065D02*
X114796137Y-131953796D01*
X114831779Y-131972848D01*
X114863017Y-131998483D01*
X114888652Y-132029721D01*
X114907704Y-132065363D01*
X114919435Y-132104034D01*
X114924000Y-132150388D01*
X114924000Y-132801612D01*
X114919435Y-132847966D01*
X114907704Y-132886637D01*
X114888652Y-132922279D01*
X114863017Y-132953517D01*
X114831779Y-132979152D01*
X114796137Y-132998204D01*
X114757466Y-133009935D01*
X114711112Y-133014500D01*
X113634888Y-133014500D01*
X113588534Y-133009935D01*
X113549863Y-132998204D01*
X113514221Y-132979152D01*
X113482983Y-132953517D01*
X113457348Y-132922279D01*
X113438296Y-132886637D01*
X113426565Y-132847966D01*
X113422000Y-132801612D01*
X113422000Y-132150388D01*
X113426565Y-132104034D01*
X113438296Y-132065363D01*
X113457348Y-132029721D01*
X113482983Y-131998483D01*
X113514221Y-131972848D01*
X113549863Y-131953796D01*
X113588534Y-131942065D01*
X113634888Y-131937500D01*
X114711112Y-131937500D01*
X114757466Y-131942065D01*
X114757466Y-131942065D01*
G37*
G36*
X112306366Y-131929365D02*
X112345037Y-131941096D01*
X112380679Y-131960148D01*
X112411917Y-131985783D01*
X112437552Y-132017021D01*
X112456604Y-132052663D01*
X112468335Y-132091334D01*
X112472900Y-132137688D01*
X112472900Y-132788912D01*
X112468335Y-132835266D01*
X112456604Y-132873937D01*
X112437552Y-132909579D01*
X112411917Y-132940817D01*
X112380679Y-132966452D01*
X112345037Y-132985504D01*
X112306366Y-132997235D01*
X112260012Y-133001800D01*
X111183788Y-133001800D01*
X111137434Y-132997235D01*
X111098763Y-132985504D01*
X111063121Y-132966452D01*
X111031883Y-132940817D01*
X111006248Y-132909579D01*
X110987196Y-132873937D01*
X110975465Y-132835266D01*
X110970900Y-132788912D01*
X110970900Y-132137688D01*
X110975465Y-132091334D01*
X110987196Y-132052663D01*
X111006248Y-132017021D01*
X111031883Y-131985783D01*
X111063121Y-131960148D01*
X111098763Y-131941096D01*
X111137434Y-131929365D01*
X111183788Y-131924800D01*
X112260012Y-131924800D01*
X112306366Y-131929365D01*
X112306366Y-131929365D01*
G37*
G36*
X125392000Y-132541000D02*
X124290000Y-132541000D01*
X124290000Y-131939000D01*
X125392000Y-131939000D01*
X125392000Y-132541000D01*
X125392000Y-132541000D01*
G37*
G36*
X139392000Y-132541000D02*
X138290000Y-132541000D01*
X138290000Y-131939000D01*
X139392000Y-131939000D01*
X139392000Y-132541000D01*
X139392000Y-132541000D01*
G37*
G36*
X139392000Y-131541000D02*
X138290000Y-131541000D01*
X138290000Y-130939000D01*
X139392000Y-130939000D01*
X139392000Y-131541000D01*
X139392000Y-131541000D01*
G37*
G36*
X125392000Y-131541000D02*
X124290000Y-131541000D01*
X124290000Y-130939000D01*
X125392000Y-130939000D01*
X125392000Y-131541000D01*
X125392000Y-131541000D01*
G37*
G36*
X89223466Y-129936565D02*
X89262137Y-129948296D01*
X89297779Y-129967348D01*
X89329017Y-129992983D01*
X89354652Y-130024221D01*
X89373704Y-130059863D01*
X89385435Y-130098534D01*
X89390000Y-130144888D01*
X89390000Y-131221112D01*
X89385435Y-131267466D01*
X89373704Y-131306137D01*
X89354652Y-131341779D01*
X89329017Y-131373017D01*
X89297779Y-131398652D01*
X89262137Y-131417704D01*
X89223466Y-131429435D01*
X89177112Y-131434000D01*
X88525888Y-131434000D01*
X88479534Y-131429435D01*
X88440863Y-131417704D01*
X88405221Y-131398652D01*
X88373983Y-131373017D01*
X88348348Y-131341779D01*
X88329296Y-131306137D01*
X88317565Y-131267466D01*
X88313000Y-131221112D01*
X88313000Y-130144888D01*
X88317565Y-130098534D01*
X88329296Y-130059863D01*
X88348348Y-130024221D01*
X88373983Y-129992983D01*
X88405221Y-129967348D01*
X88440863Y-129948296D01*
X88479534Y-129936565D01*
X88525888Y-129932000D01*
X89177112Y-129932000D01*
X89223466Y-129936565D01*
X89223466Y-129936565D01*
G37*
G36*
X91098466Y-129936565D02*
X91137137Y-129948296D01*
X91172779Y-129967348D01*
X91204017Y-129992983D01*
X91229652Y-130024221D01*
X91248704Y-130059863D01*
X91260435Y-130098534D01*
X91265000Y-130144888D01*
X91265000Y-131221112D01*
X91260435Y-131267466D01*
X91248704Y-131306137D01*
X91229652Y-131341779D01*
X91204017Y-131373017D01*
X91172779Y-131398652D01*
X91137137Y-131417704D01*
X91098466Y-131429435D01*
X91052112Y-131434000D01*
X90400888Y-131434000D01*
X90354534Y-131429435D01*
X90315863Y-131417704D01*
X90280221Y-131398652D01*
X90248983Y-131373017D01*
X90223348Y-131341779D01*
X90204296Y-131306137D01*
X90192565Y-131267466D01*
X90188000Y-131221112D01*
X90188000Y-130144888D01*
X90192565Y-130098534D01*
X90204296Y-130059863D01*
X90223348Y-130024221D01*
X90248983Y-129992983D01*
X90280221Y-129967348D01*
X90315863Y-129948296D01*
X90354534Y-129936565D01*
X90400888Y-129932000D01*
X91052112Y-129932000D01*
X91098466Y-129936565D01*
X91098466Y-129936565D01*
G37*
G36*
X125392000Y-130541000D02*
X124290000Y-130541000D01*
X124290000Y-129939000D01*
X125392000Y-129939000D01*
X125392000Y-130541000D01*
X125392000Y-130541000D01*
G37*
G36*
X139392000Y-130541000D02*
X138290000Y-130541000D01*
X138290000Y-129939000D01*
X139392000Y-129939000D01*
X139392000Y-130541000D01*
X139392000Y-130541000D01*
G37*
G36*
X125392000Y-129541000D02*
X124290000Y-129541000D01*
X124290000Y-128939000D01*
X125392000Y-128939000D01*
X125392000Y-129541000D01*
X125392000Y-129541000D01*
G37*
G36*
X139392000Y-129541000D02*
X138290000Y-129541000D01*
X138290000Y-128939000D01*
X139392000Y-128939000D01*
X139392000Y-129541000D01*
X139392000Y-129541000D01*
G37*
G36*
X91098466Y-127777565D02*
X91137137Y-127789296D01*
X91172779Y-127808348D01*
X91204017Y-127833983D01*
X91229652Y-127865221D01*
X91248704Y-127900863D01*
X91260435Y-127939534D01*
X91265000Y-127985888D01*
X91265000Y-129062112D01*
X91260435Y-129108466D01*
X91248704Y-129147137D01*
X91229652Y-129182779D01*
X91204017Y-129214017D01*
X91172779Y-129239652D01*
X91137137Y-129258704D01*
X91098466Y-129270435D01*
X91052112Y-129275000D01*
X90400888Y-129275000D01*
X90354534Y-129270435D01*
X90315863Y-129258704D01*
X90280221Y-129239652D01*
X90248983Y-129214017D01*
X90223348Y-129182779D01*
X90204296Y-129147137D01*
X90192565Y-129108466D01*
X90188000Y-129062112D01*
X90188000Y-127985888D01*
X90192565Y-127939534D01*
X90204296Y-127900863D01*
X90223348Y-127865221D01*
X90248983Y-127833983D01*
X90280221Y-127808348D01*
X90315863Y-127789296D01*
X90354534Y-127777565D01*
X90400888Y-127773000D01*
X91052112Y-127773000D01*
X91098466Y-127777565D01*
X91098466Y-127777565D01*
G37*
G36*
X89223466Y-127777565D02*
X89262137Y-127789296D01*
X89297779Y-127808348D01*
X89329017Y-127833983D01*
X89354652Y-127865221D01*
X89373704Y-127900863D01*
X89385435Y-127939534D01*
X89390000Y-127985888D01*
X89390000Y-129062112D01*
X89385435Y-129108466D01*
X89373704Y-129147137D01*
X89354652Y-129182779D01*
X89329017Y-129214017D01*
X89297779Y-129239652D01*
X89262137Y-129258704D01*
X89223466Y-129270435D01*
X89177112Y-129275000D01*
X88525888Y-129275000D01*
X88479534Y-129270435D01*
X88440863Y-129258704D01*
X88405221Y-129239652D01*
X88373983Y-129214017D01*
X88348348Y-129182779D01*
X88329296Y-129147137D01*
X88317565Y-129108466D01*
X88313000Y-129062112D01*
X88313000Y-127985888D01*
X88317565Y-127939534D01*
X88329296Y-127900863D01*
X88348348Y-127865221D01*
X88373983Y-127833983D01*
X88405221Y-127808348D01*
X88440863Y-127789296D01*
X88479534Y-127777565D01*
X88525888Y-127773000D01*
X89177112Y-127773000D01*
X89223466Y-127777565D01*
X89223466Y-127777565D01*
G37*
G36*
X125392000Y-128541000D02*
X124290000Y-128541000D01*
X124290000Y-127939000D01*
X125392000Y-127939000D01*
X125392000Y-128541000D01*
X125392000Y-128541000D01*
G37*
G36*
X139392000Y-128541000D02*
X138290000Y-128541000D01*
X138290000Y-127939000D01*
X139392000Y-127939000D01*
X139392000Y-128541000D01*
X139392000Y-128541000D01*
G37*
G36*
X139392000Y-127541000D02*
X138290000Y-127541000D01*
X138290000Y-126939000D01*
X139392000Y-126939000D01*
X139392000Y-127541000D01*
X139392000Y-127541000D01*
G37*
G36*
X125392000Y-127541000D02*
X124290000Y-127541000D01*
X124290000Y-126939000D01*
X125392000Y-126939000D01*
X125392000Y-127541000D01*
X125392000Y-127541000D01*
G37*
G36*
X125392000Y-126541000D02*
X124290000Y-126541000D01*
X124290000Y-125939000D01*
X125392000Y-125939000D01*
X125392000Y-126541000D01*
X125392000Y-126541000D01*
G37*
G36*
X139392000Y-126541000D02*
X138290000Y-126541000D01*
X138290000Y-125939000D01*
X139392000Y-125939000D01*
X139392000Y-126541000D01*
X139392000Y-126541000D01*
G37*
G36*
X125392000Y-125541000D02*
X124290000Y-125541000D01*
X124290000Y-124939000D01*
X125392000Y-124939000D01*
X125392000Y-125541000D01*
X125392000Y-125541000D01*
G37*
G36*
X139392000Y-125541000D02*
X138290000Y-125541000D01*
X138290000Y-124939000D01*
X139392000Y-124939000D01*
X139392000Y-125541000D01*
X139392000Y-125541000D01*
G37*
G36*
X76239466Y-123459565D02*
X76278137Y-123471296D01*
X76313779Y-123490348D01*
X76345017Y-123515983D01*
X76370652Y-123547221D01*
X76389704Y-123582863D01*
X76401435Y-123621534D01*
X76406000Y-123667888D01*
X76406000Y-124744112D01*
X76401435Y-124790466D01*
X76389704Y-124829137D01*
X76370652Y-124864779D01*
X76345017Y-124896017D01*
X76313779Y-124921652D01*
X76278137Y-124940704D01*
X76239466Y-124952435D01*
X76193112Y-124957000D01*
X75541888Y-124957000D01*
X75495534Y-124952435D01*
X75456863Y-124940704D01*
X75421221Y-124921652D01*
X75389983Y-124896017D01*
X75364348Y-124864779D01*
X75345296Y-124829137D01*
X75333565Y-124790466D01*
X75329000Y-124744112D01*
X75329000Y-123667888D01*
X75333565Y-123621534D01*
X75345296Y-123582863D01*
X75364348Y-123547221D01*
X75389983Y-123515983D01*
X75421221Y-123490348D01*
X75456863Y-123471296D01*
X75495534Y-123459565D01*
X75541888Y-123455000D01*
X76193112Y-123455000D01*
X76239466Y-123459565D01*
X76239466Y-123459565D01*
G37*
G36*
X77871966Y-123459565D02*
X77910637Y-123471296D01*
X77946279Y-123490348D01*
X77977517Y-123515983D01*
X78003152Y-123547221D01*
X78022204Y-123582863D01*
X78033935Y-123621534D01*
X78038500Y-123667888D01*
X78038500Y-124744112D01*
X78033935Y-124790466D01*
X78022204Y-124829137D01*
X78003152Y-124864779D01*
X77977517Y-124896017D01*
X77946279Y-124921652D01*
X77910637Y-124940704D01*
X77871966Y-124952435D01*
X77825612Y-124957000D01*
X77174388Y-124957000D01*
X77128034Y-124952435D01*
X77089363Y-124940704D01*
X77053721Y-124921652D01*
X77022483Y-124896017D01*
X76996848Y-124864779D01*
X76977796Y-124829137D01*
X76966065Y-124790466D01*
X76961500Y-124744112D01*
X76961500Y-123667888D01*
X76966065Y-123621534D01*
X76977796Y-123582863D01*
X76996848Y-123547221D01*
X77022483Y-123515983D01*
X77053721Y-123490348D01*
X77089363Y-123471296D01*
X77128034Y-123459565D01*
X77174388Y-123455000D01*
X77825612Y-123455000D01*
X77871966Y-123459565D01*
X77871966Y-123459565D01*
G37*
G36*
X79746966Y-123459565D02*
X79785637Y-123471296D01*
X79821279Y-123490348D01*
X79852517Y-123515983D01*
X79878152Y-123547221D01*
X79897204Y-123582863D01*
X79908935Y-123621534D01*
X79913500Y-123667888D01*
X79913500Y-124744112D01*
X79908935Y-124790466D01*
X79897204Y-124829137D01*
X79878152Y-124864779D01*
X79852517Y-124896017D01*
X79821279Y-124921652D01*
X79785637Y-124940704D01*
X79746966Y-124952435D01*
X79700612Y-124957000D01*
X79049388Y-124957000D01*
X79003034Y-124952435D01*
X78964363Y-124940704D01*
X78928721Y-124921652D01*
X78897483Y-124896017D01*
X78871848Y-124864779D01*
X78852796Y-124829137D01*
X78841065Y-124790466D01*
X78836500Y-124744112D01*
X78836500Y-123667888D01*
X78841065Y-123621534D01*
X78852796Y-123582863D01*
X78871848Y-123547221D01*
X78897483Y-123515983D01*
X78928721Y-123490348D01*
X78964363Y-123471296D01*
X79003034Y-123459565D01*
X79049388Y-123455000D01*
X79700612Y-123455000D01*
X79746966Y-123459565D01*
X79746966Y-123459565D01*
G37*
G36*
X74364466Y-123459565D02*
X74403137Y-123471296D01*
X74438779Y-123490348D01*
X74470017Y-123515983D01*
X74495652Y-123547221D01*
X74514704Y-123582863D01*
X74526435Y-123621534D01*
X74531000Y-123667888D01*
X74531000Y-124744112D01*
X74526435Y-124790466D01*
X74514704Y-124829137D01*
X74495652Y-124864779D01*
X74470017Y-124896017D01*
X74438779Y-124921652D01*
X74403137Y-124940704D01*
X74364466Y-124952435D01*
X74318112Y-124957000D01*
X73666888Y-124957000D01*
X73620534Y-124952435D01*
X73581863Y-124940704D01*
X73546221Y-124921652D01*
X73514983Y-124896017D01*
X73489348Y-124864779D01*
X73470296Y-124829137D01*
X73458565Y-124790466D01*
X73454000Y-124744112D01*
X73454000Y-123667888D01*
X73458565Y-123621534D01*
X73470296Y-123582863D01*
X73489348Y-123547221D01*
X73514983Y-123515983D01*
X73546221Y-123490348D01*
X73581863Y-123471296D01*
X73620534Y-123459565D01*
X73666888Y-123455000D01*
X74318112Y-123455000D01*
X74364466Y-123459565D01*
X74364466Y-123459565D01*
G37*
G36*
X129364222Y-124791000D02*
X128762222Y-124791000D01*
X128762222Y-123689000D01*
X129364222Y-123689000D01*
X129364222Y-124791000D01*
X129364222Y-124791000D01*
G37*
G36*
X137142000Y-124791000D02*
X136540000Y-124791000D01*
X136540000Y-123689000D01*
X137142000Y-123689000D01*
X137142000Y-124791000D01*
X137142000Y-124791000D01*
G37*
G36*
X136030888Y-124791000D02*
X135428888Y-124791000D01*
X135428888Y-123689000D01*
X136030888Y-123689000D01*
X136030888Y-124791000D01*
X136030888Y-124791000D01*
G37*
G36*
X134919777Y-124791000D02*
X134317777Y-124791000D01*
X134317777Y-123689000D01*
X134919777Y-123689000D01*
X134919777Y-124791000D01*
X134919777Y-124791000D01*
G37*
G36*
X133808666Y-124791000D02*
X133206666Y-124791000D01*
X133206666Y-123689000D01*
X133808666Y-123689000D01*
X133808666Y-124791000D01*
X133808666Y-124791000D01*
G37*
G36*
X127142000Y-124791000D02*
X126540000Y-124791000D01*
X126540000Y-123689000D01*
X127142000Y-123689000D01*
X127142000Y-124791000D01*
X127142000Y-124791000D01*
G37*
G36*
X128253111Y-124791000D02*
X127651111Y-124791000D01*
X127651111Y-123689000D01*
X128253111Y-123689000D01*
X128253111Y-124791000D01*
X128253111Y-124791000D01*
G37*
G36*
X130475333Y-124791000D02*
X129873333Y-124791000D01*
X129873333Y-123689000D01*
X130475333Y-123689000D01*
X130475333Y-124791000D01*
X130475333Y-124791000D01*
G37*
G36*
X131586444Y-124791000D02*
X130984444Y-124791000D01*
X130984444Y-123689000D01*
X131586444Y-123689000D01*
X131586444Y-124791000D01*
X131586444Y-124791000D01*
G37*
G36*
X132697555Y-124791000D02*
X132095555Y-124791000D01*
X132095555Y-123689000D01*
X132697555Y-123689000D01*
X132697555Y-124791000D01*
X132697555Y-124791000D01*
G37*
G36*
X135634239Y-111811467D02*
X135948282Y-111873934D01*
X136539926Y-112119001D01*
X137068802Y-112472385D01*
X137072395Y-112474786D01*
X137525214Y-112927605D01*
X137525216Y-112927608D01*
X137880999Y-113460074D01*
X138126066Y-114051718D01*
X138251000Y-114679804D01*
X138251000Y-115320196D01*
X138126066Y-115948282D01*
X137880999Y-116539926D01*
X137527615Y-117068802D01*
X137525214Y-117072395D01*
X137072395Y-117525214D01*
X137072392Y-117525216D01*
X136539926Y-117880999D01*
X135948282Y-118126066D01*
X135634239Y-118188533D01*
X135320197Y-118251000D01*
X134679803Y-118251000D01*
X134365761Y-118188533D01*
X134051718Y-118126066D01*
X133460074Y-117880999D01*
X132927608Y-117525216D01*
X132927605Y-117525214D01*
X132474786Y-117072395D01*
X132472385Y-117068802D01*
X132119001Y-116539926D01*
X131873934Y-115948282D01*
X131749000Y-115320196D01*
X131749000Y-114679804D01*
X131873934Y-114051718D01*
X132119001Y-113460074D01*
X132474784Y-112927608D01*
X132474786Y-112927605D01*
X132927605Y-112474786D01*
X132931198Y-112472385D01*
X133460074Y-112119001D01*
X134051718Y-111873934D01*
X134365761Y-111811467D01*
X134679803Y-111749000D01*
X135320197Y-111749000D01*
X135634239Y-111811467D01*
X135634239Y-111811467D01*
G37*
G36*
X60634239Y-111811467D02*
X60948282Y-111873934D01*
X61539926Y-112119001D01*
X62068802Y-112472385D01*
X62072395Y-112474786D01*
X62525214Y-112927605D01*
X62525216Y-112927608D01*
X62880999Y-113460074D01*
X63126066Y-114051718D01*
X63251000Y-114679804D01*
X63251000Y-115320196D01*
X63126066Y-115948282D01*
X62880999Y-116539926D01*
X62527615Y-117068802D01*
X62525214Y-117072395D01*
X62072395Y-117525214D01*
X62072392Y-117525216D01*
X61539926Y-117880999D01*
X60948282Y-118126066D01*
X60634239Y-118188533D01*
X60320197Y-118251000D01*
X59679803Y-118251000D01*
X59365761Y-118188533D01*
X59051718Y-118126066D01*
X58460074Y-117880999D01*
X57927608Y-117525216D01*
X57927605Y-117525214D01*
X57474786Y-117072395D01*
X57472385Y-117068802D01*
X57119001Y-116539926D01*
X56873934Y-115948282D01*
X56749000Y-115320196D01*
X56749000Y-114679804D01*
X56873934Y-114051718D01*
X57119001Y-113460074D01*
X57474784Y-112927608D01*
X57474786Y-112927605D01*
X57927605Y-112474786D01*
X57931198Y-112472385D01*
X58460074Y-112119001D01*
X59051718Y-111873934D01*
X59365761Y-111811467D01*
X59679803Y-111749000D01*
X60320197Y-111749000D01*
X60634239Y-111811467D01*
X60634239Y-111811467D01*
G37*
G36*
X100242466Y-109108565D02*
X100281137Y-109120296D01*
X100316779Y-109139348D01*
X100348017Y-109164983D01*
X100373652Y-109196221D01*
X100392704Y-109231863D01*
X100404435Y-109270534D01*
X100409000Y-109316888D01*
X100409000Y-110393112D01*
X100404435Y-110439466D01*
X100392704Y-110478137D01*
X100373652Y-110513779D01*
X100348017Y-110545017D01*
X100316779Y-110570652D01*
X100281137Y-110589704D01*
X100242466Y-110601435D01*
X100196112Y-110606000D01*
X99544888Y-110606000D01*
X99498534Y-110601435D01*
X99459863Y-110589704D01*
X99424221Y-110570652D01*
X99392983Y-110545017D01*
X99367348Y-110513779D01*
X99348296Y-110478137D01*
X99336565Y-110439466D01*
X99332000Y-110393112D01*
X99332000Y-109316888D01*
X99336565Y-109270534D01*
X99348296Y-109231863D01*
X99367348Y-109196221D01*
X99392983Y-109164983D01*
X99424221Y-109139348D01*
X99459863Y-109120296D01*
X99498534Y-109108565D01*
X99544888Y-109104000D01*
X100196112Y-109104000D01*
X100242466Y-109108565D01*
X100242466Y-109108565D01*
G37*
G36*
X98367466Y-109108565D02*
X98406137Y-109120296D01*
X98441779Y-109139348D01*
X98473017Y-109164983D01*
X98498652Y-109196221D01*
X98517704Y-109231863D01*
X98529435Y-109270534D01*
X98534000Y-109316888D01*
X98534000Y-110393112D01*
X98529435Y-110439466D01*
X98517704Y-110478137D01*
X98498652Y-110513779D01*
X98473017Y-110545017D01*
X98441779Y-110570652D01*
X98406137Y-110589704D01*
X98367466Y-110601435D01*
X98321112Y-110606000D01*
X97669888Y-110606000D01*
X97623534Y-110601435D01*
X97584863Y-110589704D01*
X97549221Y-110570652D01*
X97517983Y-110545017D01*
X97492348Y-110513779D01*
X97473296Y-110478137D01*
X97461565Y-110439466D01*
X97457000Y-110393112D01*
X97457000Y-109316888D01*
X97461565Y-109270534D01*
X97473296Y-109231863D01*
X97492348Y-109196221D01*
X97517983Y-109164983D01*
X97549221Y-109139348D01*
X97584863Y-109120296D01*
X97623534Y-109108565D01*
X97669888Y-109104000D01*
X98321112Y-109104000D01*
X98367466Y-109108565D01*
X98367466Y-109108565D01*
G37*
G36*
X132911466Y-105806565D02*
X132950137Y-105818296D01*
X132985779Y-105837348D01*
X133017017Y-105862983D01*
X133042652Y-105894221D01*
X133061704Y-105929863D01*
X133073435Y-105968534D01*
X133078000Y-106014888D01*
X133078000Y-107091112D01*
X133073435Y-107137466D01*
X133061704Y-107176137D01*
X133042652Y-107211779D01*
X133017017Y-107243017D01*
X132985779Y-107268652D01*
X132950137Y-107287704D01*
X132911466Y-107299435D01*
X132865112Y-107304000D01*
X132213888Y-107304000D01*
X132167534Y-107299435D01*
X132128863Y-107287704D01*
X132093221Y-107268652D01*
X132061983Y-107243017D01*
X132036348Y-107211779D01*
X132017296Y-107176137D01*
X132005565Y-107137466D01*
X132001000Y-107091112D01*
X132001000Y-106014888D01*
X132005565Y-105968534D01*
X132017296Y-105929863D01*
X132036348Y-105894221D01*
X132061983Y-105862983D01*
X132093221Y-105837348D01*
X132128863Y-105818296D01*
X132167534Y-105806565D01*
X132213888Y-105802000D01*
X132865112Y-105802000D01*
X132911466Y-105806565D01*
X132911466Y-105806565D01*
G37*
G36*
X134786466Y-105806565D02*
X134825137Y-105818296D01*
X134860779Y-105837348D01*
X134892017Y-105862983D01*
X134917652Y-105894221D01*
X134936704Y-105929863D01*
X134948435Y-105968534D01*
X134953000Y-106014888D01*
X134953000Y-107091112D01*
X134948435Y-107137466D01*
X134936704Y-107176137D01*
X134917652Y-107211779D01*
X134892017Y-107243017D01*
X134860779Y-107268652D01*
X134825137Y-107287704D01*
X134786466Y-107299435D01*
X134740112Y-107304000D01*
X134088888Y-107304000D01*
X134042534Y-107299435D01*
X134003863Y-107287704D01*
X133968221Y-107268652D01*
X133936983Y-107243017D01*
X133911348Y-107211779D01*
X133892296Y-107176137D01*
X133880565Y-107137466D01*
X133876000Y-107091112D01*
X133876000Y-106014888D01*
X133880565Y-105968534D01*
X133892296Y-105929863D01*
X133911348Y-105894221D01*
X133936983Y-105862983D01*
X133968221Y-105837348D01*
X134003863Y-105818296D01*
X134042534Y-105806565D01*
X134088888Y-105802000D01*
X134740112Y-105802000D01*
X134786466Y-105806565D01*
X134786466Y-105806565D01*
G37*
G36*
X78682466Y-104409565D02*
X78721137Y-104421296D01*
X78756779Y-104440348D01*
X78788017Y-104465983D01*
X78813652Y-104497221D01*
X78832704Y-104532863D01*
X78844435Y-104571534D01*
X78849000Y-104617888D01*
X78849000Y-105694112D01*
X78844435Y-105740466D01*
X78832704Y-105779137D01*
X78813652Y-105814779D01*
X78788017Y-105846017D01*
X78756779Y-105871652D01*
X78721137Y-105890704D01*
X78682466Y-105902435D01*
X78636112Y-105907000D01*
X77984888Y-105907000D01*
X77938534Y-105902435D01*
X77899863Y-105890704D01*
X77864221Y-105871652D01*
X77832983Y-105846017D01*
X77807348Y-105814779D01*
X77788296Y-105779137D01*
X77776565Y-105740466D01*
X77772000Y-105694112D01*
X77772000Y-104617888D01*
X77776565Y-104571534D01*
X77788296Y-104532863D01*
X77807348Y-104497221D01*
X77832983Y-104465983D01*
X77864221Y-104440348D01*
X77899863Y-104421296D01*
X77938534Y-104409565D01*
X77984888Y-104405000D01*
X78636112Y-104405000D01*
X78682466Y-104409565D01*
X78682466Y-104409565D01*
G37*
G36*
X80557466Y-104409565D02*
X80596137Y-104421296D01*
X80631779Y-104440348D01*
X80663017Y-104465983D01*
X80688652Y-104497221D01*
X80707704Y-104532863D01*
X80719435Y-104571534D01*
X80724000Y-104617888D01*
X80724000Y-105694112D01*
X80719435Y-105740466D01*
X80707704Y-105779137D01*
X80688652Y-105814779D01*
X80663017Y-105846017D01*
X80631779Y-105871652D01*
X80596137Y-105890704D01*
X80557466Y-105902435D01*
X80511112Y-105907000D01*
X79859888Y-105907000D01*
X79813534Y-105902435D01*
X79774863Y-105890704D01*
X79739221Y-105871652D01*
X79707983Y-105846017D01*
X79682348Y-105814779D01*
X79663296Y-105779137D01*
X79651565Y-105740466D01*
X79647000Y-105694112D01*
X79647000Y-104617888D01*
X79651565Y-104571534D01*
X79663296Y-104532863D01*
X79682348Y-104497221D01*
X79707983Y-104465983D01*
X79739221Y-104440348D01*
X79774863Y-104421296D01*
X79813534Y-104409565D01*
X79859888Y-104405000D01*
X80511112Y-104405000D01*
X80557466Y-104409565D01*
X80557466Y-104409565D01*
G37*
G36*
X77001466Y-104409565D02*
X77040137Y-104421296D01*
X77075779Y-104440348D01*
X77107017Y-104465983D01*
X77132652Y-104497221D01*
X77151704Y-104532863D01*
X77163435Y-104571534D01*
X77168000Y-104617888D01*
X77168000Y-105694112D01*
X77163435Y-105740466D01*
X77151704Y-105779137D01*
X77132652Y-105814779D01*
X77107017Y-105846017D01*
X77075779Y-105871652D01*
X77040137Y-105890704D01*
X77001466Y-105902435D01*
X76955112Y-105907000D01*
X76303888Y-105907000D01*
X76257534Y-105902435D01*
X76218863Y-105890704D01*
X76183221Y-105871652D01*
X76151983Y-105846017D01*
X76126348Y-105814779D01*
X76107296Y-105779137D01*
X76095565Y-105740466D01*
X76091000Y-105694112D01*
X76091000Y-104617888D01*
X76095565Y-104571534D01*
X76107296Y-104532863D01*
X76126348Y-104497221D01*
X76151983Y-104465983D01*
X76183221Y-104440348D01*
X76218863Y-104421296D01*
X76257534Y-104409565D01*
X76303888Y-104405000D01*
X76955112Y-104405000D01*
X77001466Y-104409565D01*
X77001466Y-104409565D01*
G37*
G36*
X75126466Y-104409565D02*
X75165137Y-104421296D01*
X75200779Y-104440348D01*
X75232017Y-104465983D01*
X75257652Y-104497221D01*
X75276704Y-104532863D01*
X75288435Y-104571534D01*
X75293000Y-104617888D01*
X75293000Y-105694112D01*
X75288435Y-105740466D01*
X75276704Y-105779137D01*
X75257652Y-105814779D01*
X75232017Y-105846017D01*
X75200779Y-105871652D01*
X75165137Y-105890704D01*
X75126466Y-105902435D01*
X75080112Y-105907000D01*
X74428888Y-105907000D01*
X74382534Y-105902435D01*
X74343863Y-105890704D01*
X74308221Y-105871652D01*
X74276983Y-105846017D01*
X74251348Y-105814779D01*
X74232296Y-105779137D01*
X74220565Y-105740466D01*
X74216000Y-105694112D01*
X74216000Y-104617888D01*
X74220565Y-104571534D01*
X74232296Y-104532863D01*
X74251348Y-104497221D01*
X74276983Y-104465983D01*
X74308221Y-104440348D01*
X74343863Y-104421296D01*
X74382534Y-104409565D01*
X74428888Y-104405000D01*
X75080112Y-104405000D01*
X75126466Y-104409565D01*
X75126466Y-104409565D01*
G37*
G36*
X60634239Y-76811467D02*
X60948282Y-76873934D01*
X61539926Y-77119001D01*
X62068802Y-77472385D01*
X62072395Y-77474786D01*
X62525214Y-77927605D01*
X62525216Y-77927608D01*
X62880999Y-78460074D01*
X63126066Y-79051718D01*
X63251000Y-79679804D01*
X63251000Y-80320196D01*
X63126066Y-80948282D01*
X62880999Y-81539926D01*
X62527615Y-82068802D01*
X62525214Y-82072395D01*
X62072395Y-82525214D01*
X62072392Y-82525216D01*
X61539926Y-82880999D01*
X60948282Y-83126066D01*
X60634239Y-83188533D01*
X60320197Y-83251000D01*
X59679803Y-83251000D01*
X59365761Y-83188533D01*
X59051718Y-83126066D01*
X58460074Y-82880999D01*
X57927608Y-82525216D01*
X57927605Y-82525214D01*
X57474786Y-82072395D01*
X57472385Y-82068802D01*
X57119001Y-81539926D01*
X56873934Y-80948282D01*
X56749000Y-80320196D01*
X56749000Y-79679804D01*
X56873934Y-79051718D01*
X57119001Y-78460074D01*
X57474784Y-77927608D01*
X57474786Y-77927605D01*
X57927605Y-77474786D01*
X57931198Y-77472385D01*
X58460074Y-77119001D01*
X59051718Y-76873934D01*
X59365761Y-76811467D01*
X59679803Y-76749000D01*
X60320197Y-76749000D01*
X60634239Y-76811467D01*
X60634239Y-76811467D01*
G37*
G36*
X135634239Y-76811467D02*
X135948282Y-76873934D01*
X136539926Y-77119001D01*
X137068802Y-77472385D01*
X137072395Y-77474786D01*
X137525214Y-77927605D01*
X137525216Y-77927608D01*
X137880999Y-78460074D01*
X138126066Y-79051718D01*
X138251000Y-79679804D01*
X138251000Y-80320196D01*
X138126066Y-80948282D01*
X137880999Y-81539926D01*
X137527615Y-82068802D01*
X137525214Y-82072395D01*
X137072395Y-82525214D01*
X137072392Y-82525216D01*
X136539926Y-82880999D01*
X135948282Y-83126066D01*
X135634239Y-83188533D01*
X135320197Y-83251000D01*
X134679803Y-83251000D01*
X134365761Y-83188533D01*
X134051718Y-83126066D01*
X133460074Y-82880999D01*
X132927608Y-82525216D01*
X132927605Y-82525214D01*
X132474786Y-82072395D01*
X132472385Y-82068802D01*
X132119001Y-81539926D01*
X131873934Y-80948282D01*
X131749000Y-80320196D01*
X131749000Y-79679804D01*
X131873934Y-79051718D01*
X132119001Y-78460074D01*
X132474784Y-77927608D01*
X132474786Y-77927605D01*
X132927605Y-77474786D01*
X132931198Y-77472385D01*
X133460074Y-77119001D01*
X134051718Y-76873934D01*
X134365761Y-76811467D01*
X134679803Y-76749000D01*
X135320197Y-76749000D01*
X135634239Y-76811467D01*
X135634239Y-76811467D01*
G37*
G36*
X76585032Y-61467621D02*
X76614487Y-61476556D01*
X76641624Y-61491062D01*
X76665414Y-61510586D01*
X76684938Y-61534376D01*
X76699444Y-61561513D01*
X76708379Y-61590968D01*
X76712000Y-61627733D01*
X76712000Y-64102267D01*
X76708379Y-64139032D01*
X76699444Y-64168487D01*
X76684938Y-64195624D01*
X76665414Y-64219414D01*
X76641624Y-64238938D01*
X76614487Y-64253444D01*
X76585032Y-64262379D01*
X76548267Y-64266000D01*
X74073733Y-64266000D01*
X74036968Y-64262379D01*
X74007513Y-64253444D01*
X73980376Y-64238938D01*
X73956586Y-64219414D01*
X73937062Y-64195624D01*
X73922556Y-64168487D01*
X73913621Y-64139032D01*
X73910000Y-64102267D01*
X73910000Y-61627733D01*
X73913621Y-61590968D01*
X73922556Y-61561513D01*
X73937062Y-61534376D01*
X73956586Y-61510586D01*
X73980376Y-61491062D01*
X74007513Y-61476556D01*
X74036968Y-61467621D01*
X74073733Y-61464000D01*
X76548267Y-61464000D01*
X76585032Y-61467621D01*
X76585032Y-61467621D01*
G37*
G36*
X66285014Y-59242973D02*
X66388878Y-59274479D01*
X66484600Y-59325644D01*
X66568501Y-59394499D01*
X66637356Y-59478400D01*
X66688521Y-59574121D01*
X66720027Y-59677985D01*
X66728000Y-59758933D01*
X66728000Y-61013067D01*
X66720027Y-61094015D01*
X66688521Y-61197879D01*
X66637356Y-61293600D01*
X66568501Y-61377501D01*
X66484600Y-61446356D01*
X66388879Y-61497521D01*
X66285015Y-61529027D01*
X66177000Y-61539666D01*
X66068986Y-61529027D01*
X65965122Y-61497521D01*
X65869401Y-61446356D01*
X65785500Y-61377501D01*
X65716645Y-61293600D01*
X65665480Y-61197879D01*
X65633974Y-61094015D01*
X65626001Y-61013067D01*
X65626000Y-59758934D01*
X65633973Y-59677986D01*
X65665479Y-59574122D01*
X65716644Y-59478400D01*
X65785499Y-59394499D01*
X65869400Y-59325644D01*
X65965121Y-59274479D01*
X66068985Y-59242973D01*
X66177000Y-59232334D01*
X66285014Y-59242973D01*
X66285014Y-59242973D01*
G37*
G36*
X57885014Y-59242973D02*
X57988878Y-59274479D01*
X58084600Y-59325644D01*
X58168501Y-59394499D01*
X58237356Y-59478400D01*
X58288521Y-59574121D01*
X58320027Y-59677985D01*
X58328000Y-59758933D01*
X58328000Y-61013067D01*
X58320027Y-61094015D01*
X58288521Y-61197879D01*
X58237356Y-61293600D01*
X58168501Y-61377501D01*
X58084600Y-61446356D01*
X57988879Y-61497521D01*
X57885015Y-61529027D01*
X57777000Y-61539666D01*
X57668986Y-61529027D01*
X57565122Y-61497521D01*
X57469401Y-61446356D01*
X57385500Y-61377501D01*
X57316645Y-61293600D01*
X57265480Y-61197879D01*
X57233974Y-61094015D01*
X57226001Y-61013067D01*
X57226000Y-59758934D01*
X57233973Y-59677986D01*
X57265479Y-59574122D01*
X57316644Y-59478400D01*
X57385499Y-59394499D01*
X57469400Y-59325644D01*
X57565121Y-59274479D01*
X57668985Y-59242973D01*
X57777000Y-59232334D01*
X57885014Y-59242973D01*
X57885014Y-59242973D01*
G37*
G36*
X61085014Y-59242973D02*
X61188878Y-59274479D01*
X61284600Y-59325644D01*
X61368501Y-59394499D01*
X61437356Y-59478400D01*
X61488521Y-59574121D01*
X61520027Y-59677985D01*
X61528000Y-59758933D01*
X61528000Y-61013067D01*
X61520027Y-61094015D01*
X61488521Y-61197879D01*
X61437356Y-61293600D01*
X61368501Y-61377501D01*
X61284600Y-61446356D01*
X61188879Y-61497521D01*
X61085015Y-61529027D01*
X60977000Y-61539666D01*
X60868986Y-61529027D01*
X60765122Y-61497521D01*
X60669401Y-61446356D01*
X60585500Y-61377501D01*
X60516645Y-61293600D01*
X60465480Y-61197879D01*
X60433974Y-61094015D01*
X60426001Y-61013067D01*
X60426000Y-59758934D01*
X60433973Y-59677986D01*
X60465479Y-59574122D01*
X60516644Y-59478400D01*
X60585499Y-59394499D01*
X60669400Y-59325644D01*
X60765121Y-59274479D01*
X60868985Y-59242973D01*
X60977000Y-59232334D01*
X61085014Y-59242973D01*
X61085014Y-59242973D01*
G37*
G36*
X123978485Y-58886246D02*
X123978487Y-58886247D01*
X123978488Y-58886247D01*
X124179022Y-58969311D01*
X124215255Y-58984319D01*
X124428342Y-59126699D01*
X124609551Y-59307908D01*
X124609553Y-59307911D01*
X124751931Y-59520995D01*
X124846510Y-59749328D01*
X124850004Y-59757765D01*
X124900000Y-60009111D01*
X124900000Y-60265389D01*
X124850004Y-60516735D01*
X124751931Y-60753505D01*
X124609551Y-60966592D01*
X124428342Y-61147801D01*
X124428339Y-61147803D01*
X124215255Y-61290181D01*
X123978488Y-61388253D01*
X123978487Y-61388253D01*
X123978485Y-61388254D01*
X123727139Y-61438250D01*
X123470861Y-61438250D01*
X123219515Y-61388254D01*
X123219513Y-61388253D01*
X123219512Y-61388253D01*
X122982745Y-61290181D01*
X122769661Y-61147803D01*
X122769658Y-61147801D01*
X122588449Y-60966592D01*
X122446069Y-60753505D01*
X122347996Y-60516735D01*
X122298000Y-60265389D01*
X122298000Y-60009111D01*
X122347996Y-59757765D01*
X122351491Y-59749328D01*
X122446069Y-59520995D01*
X122588447Y-59307911D01*
X122588449Y-59307908D01*
X122769658Y-59126699D01*
X122982745Y-58984319D01*
X123018978Y-58969311D01*
X123219512Y-58886247D01*
X123219513Y-58886247D01*
X123219515Y-58886246D01*
X123470861Y-58836250D01*
X123727139Y-58836250D01*
X123978485Y-58886246D01*
X123978485Y-58886246D01*
G37*
G36*
X114778485Y-58886246D02*
X114778487Y-58886247D01*
X114778488Y-58886247D01*
X114979022Y-58969311D01*
X115015255Y-58984319D01*
X115228342Y-59126699D01*
X115409551Y-59307908D01*
X115409553Y-59307911D01*
X115551931Y-59520995D01*
X115646510Y-59749328D01*
X115650004Y-59757765D01*
X115700000Y-60009111D01*
X115700000Y-60265389D01*
X115650004Y-60516735D01*
X115551931Y-60753505D01*
X115409551Y-60966592D01*
X115228342Y-61147801D01*
X115228339Y-61147803D01*
X115015255Y-61290181D01*
X114778488Y-61388253D01*
X114778487Y-61388253D01*
X114778485Y-61388254D01*
X114527139Y-61438250D01*
X114270861Y-61438250D01*
X114019515Y-61388254D01*
X114019513Y-61388253D01*
X114019512Y-61388253D01*
X113782745Y-61290181D01*
X113569661Y-61147803D01*
X113569658Y-61147801D01*
X113388449Y-60966592D01*
X113246069Y-60753505D01*
X113147996Y-60516735D01*
X113098000Y-60265389D01*
X113098000Y-60009111D01*
X113147996Y-59757765D01*
X113151491Y-59749328D01*
X113246069Y-59520995D01*
X113388447Y-59307911D01*
X113388449Y-59307908D01*
X113569658Y-59126699D01*
X113782745Y-58984319D01*
X113818978Y-58969311D01*
X114019512Y-58886247D01*
X114019513Y-58886247D01*
X114019515Y-58886246D01*
X114270861Y-58836250D01*
X114527139Y-58836250D01*
X114778485Y-58886246D01*
X114778485Y-58886246D01*
G37*
G36*
X75629433Y-57539893D02*
X75719657Y-57557839D01*
X75825267Y-57601585D01*
X75974621Y-57663449D01*
X76204089Y-57816774D01*
X76399226Y-58011911D01*
X76552551Y-58241379D01*
X76603610Y-58364646D01*
X76648064Y-58471966D01*
X76658161Y-58496344D01*
X76712000Y-58767012D01*
X76712000Y-59042988D01*
X76676107Y-59223433D01*
X76658161Y-59313657D01*
X76624763Y-59394285D01*
X76552551Y-59568621D01*
X76399226Y-59798089D01*
X76204089Y-59993226D01*
X75974621Y-60146551D01*
X75826128Y-60208059D01*
X75719657Y-60252161D01*
X75653164Y-60265387D01*
X75448988Y-60306000D01*
X75173012Y-60306000D01*
X74968836Y-60265387D01*
X74902343Y-60252161D01*
X74795872Y-60208059D01*
X74647379Y-60146551D01*
X74417911Y-59993226D01*
X74222774Y-59798089D01*
X74069449Y-59568621D01*
X73997237Y-59394285D01*
X73963839Y-59313657D01*
X73945893Y-59223433D01*
X73910000Y-59042988D01*
X73910000Y-58767012D01*
X73963839Y-58496344D01*
X73973937Y-58471966D01*
X74018390Y-58364646D01*
X74069449Y-58241379D01*
X74222774Y-58011911D01*
X74417911Y-57816774D01*
X74647379Y-57663449D01*
X74796733Y-57601585D01*
X74902343Y-57557839D01*
X74992567Y-57539893D01*
X75173012Y-57504000D01*
X75448988Y-57504000D01*
X75629433Y-57539893D01*
X75629433Y-57539893D01*
G37*
G36*
X137694672Y-59497449D02*
X137694674Y-59497450D01*
X137694675Y-59497450D01*
X137763103Y-59525793D01*
X137814901Y-59560404D01*
X137824689Y-59566944D01*
X137877056Y-59619311D01*
X137877058Y-59619314D01*
X137918207Y-59680897D01*
X137931162Y-59712175D01*
X137946551Y-59749328D01*
X137961000Y-59821966D01*
X137961000Y-59896034D01*
X137953705Y-59932709D01*
X137946550Y-59968675D01*
X137918207Y-60037103D01*
X137896957Y-60068905D01*
X137877056Y-60098689D01*
X137824689Y-60151056D01*
X137824686Y-60151058D01*
X137763103Y-60192207D01*
X137694675Y-60220550D01*
X137694674Y-60220550D01*
X137694672Y-60220551D01*
X137622034Y-60235000D01*
X137547966Y-60235000D01*
X137475328Y-60220551D01*
X137475326Y-60220550D01*
X137475325Y-60220550D01*
X137406897Y-60192207D01*
X137345314Y-60151058D01*
X137345311Y-60151056D01*
X137292944Y-60098689D01*
X137273043Y-60068905D01*
X137251793Y-60037103D01*
X137223450Y-59968675D01*
X137216296Y-59932709D01*
X137209000Y-59896034D01*
X137209000Y-59821966D01*
X137223449Y-59749328D01*
X137238838Y-59712175D01*
X137251793Y-59680897D01*
X137292942Y-59619314D01*
X137292944Y-59619311D01*
X137345311Y-59566944D01*
X137355099Y-59560404D01*
X137406897Y-59525793D01*
X137475325Y-59497450D01*
X137475326Y-59497450D01*
X137475328Y-59497449D01*
X137547966Y-59483000D01*
X137622034Y-59483000D01*
X137694672Y-59497449D01*
X137694672Y-59497449D01*
G37*
G36*
X129943413Y-57864525D02*
X130018456Y-57887290D01*
X130028425Y-57890314D01*
X130106774Y-57932193D01*
X130175448Y-57988552D01*
X130231807Y-58057226D01*
X130273686Y-58135575D01*
X130273687Y-58135579D01*
X130299475Y-58220587D01*
X130306000Y-58286842D01*
X130306000Y-58931158D01*
X130299475Y-58997413D01*
X130285649Y-59042988D01*
X130273686Y-59082425D01*
X130231807Y-59160774D01*
X130175448Y-59229448D01*
X130136544Y-59261375D01*
X130119219Y-59278700D01*
X130105605Y-59299075D01*
X130096228Y-59321714D01*
X130091447Y-59345747D01*
X130091447Y-59370251D01*
X130096227Y-59394285D01*
X130105605Y-59416924D01*
X130119218Y-59437299D01*
X130136545Y-59454626D01*
X130156920Y-59468240D01*
X130179559Y-59477617D01*
X130203592Y-59482398D01*
X130215845Y-59483000D01*
X130553472Y-59483000D01*
X130608707Y-59488440D01*
X130681825Y-59510620D01*
X130705858Y-59515400D01*
X130730362Y-59515400D01*
X130754396Y-59510619D01*
X130777035Y-59501242D01*
X130797409Y-59487628D01*
X130814736Y-59470301D01*
X130828350Y-59449926D01*
X130837728Y-59427287D01*
X130842508Y-59403254D01*
X130842508Y-59378750D01*
X130837727Y-59354716D01*
X130833598Y-59343175D01*
X130823450Y-59318675D01*
X130822452Y-59313657D01*
X130809000Y-59246034D01*
X130809000Y-59171966D01*
X130823449Y-59099328D01*
X130830450Y-59082425D01*
X130851793Y-59030897D01*
X130892942Y-58969314D01*
X130892943Y-58969313D01*
X130892944Y-58969311D01*
X130945311Y-58916944D01*
X130964481Y-58904135D01*
X131006897Y-58875793D01*
X131075325Y-58847450D01*
X131075326Y-58847450D01*
X131075328Y-58847449D01*
X131131629Y-58836250D01*
X131147967Y-58833000D01*
X131147968Y-58833000D01*
X131150336Y-58832529D01*
X131173785Y-58825416D01*
X131195396Y-58813865D01*
X131214338Y-58798320D01*
X131229883Y-58779378D01*
X131241435Y-58757767D01*
X131248548Y-58734318D01*
X131250950Y-58709932D01*
X131248548Y-58685545D01*
X131241435Y-58662095D01*
X131223449Y-58618672D01*
X131209000Y-58546034D01*
X131209000Y-58471966D01*
X131223449Y-58399328D01*
X131223450Y-58399325D01*
X131251793Y-58330897D01*
X131292942Y-58269314D01*
X131292943Y-58269313D01*
X131292944Y-58269311D01*
X131345311Y-58216944D01*
X131345591Y-58216757D01*
X131406897Y-58175793D01*
X131475325Y-58147450D01*
X131475326Y-58147450D01*
X131475328Y-58147449D01*
X131547966Y-58133000D01*
X131622034Y-58133000D01*
X131694672Y-58147449D01*
X131694674Y-58147450D01*
X131694675Y-58147450D01*
X131763103Y-58175793D01*
X131824409Y-58216757D01*
X131824689Y-58216944D01*
X131877058Y-58269313D01*
X131881067Y-58275313D01*
X131896612Y-58294255D01*
X131915554Y-58309800D01*
X131937165Y-58321351D01*
X131960614Y-58328464D01*
X131985001Y-58330866D01*
X132009387Y-58328464D01*
X132032836Y-58321351D01*
X132054447Y-58309799D01*
X132073389Y-58294254D01*
X132088933Y-58275313D01*
X132092942Y-58269313D01*
X132145311Y-58216944D01*
X132145591Y-58216757D01*
X132206897Y-58175793D01*
X132275325Y-58147450D01*
X132275326Y-58147450D01*
X132275328Y-58147449D01*
X132347966Y-58133000D01*
X132422034Y-58133000D01*
X132494672Y-58147449D01*
X132494674Y-58147450D01*
X132494675Y-58147450D01*
X132563103Y-58175793D01*
X132624409Y-58216757D01*
X132624689Y-58216944D01*
X132677058Y-58269313D01*
X132681067Y-58275313D01*
X132696612Y-58294255D01*
X132715554Y-58309800D01*
X132737165Y-58321351D01*
X132760614Y-58328464D01*
X132785001Y-58330866D01*
X132809387Y-58328464D01*
X132832836Y-58321351D01*
X132854447Y-58309799D01*
X132873389Y-58294254D01*
X132888933Y-58275313D01*
X132892942Y-58269313D01*
X132945311Y-58216944D01*
X132945591Y-58216757D01*
X133006897Y-58175793D01*
X133075325Y-58147450D01*
X133075326Y-58147450D01*
X133075328Y-58147449D01*
X133147966Y-58133000D01*
X133222034Y-58133000D01*
X133294672Y-58147449D01*
X133294674Y-58147450D01*
X133294675Y-58147450D01*
X133363103Y-58175793D01*
X133424409Y-58216757D01*
X133424689Y-58216944D01*
X133477056Y-58269311D01*
X133477057Y-58269313D01*
X133477058Y-58269314D01*
X133518207Y-58330897D01*
X133546550Y-58399325D01*
X133546551Y-58399328D01*
X133561000Y-58471966D01*
X133561000Y-58546034D01*
X133546551Y-58618672D01*
X133528565Y-58662095D01*
X133521452Y-58685544D01*
X133519050Y-58709931D01*
X133521452Y-58734317D01*
X133528565Y-58757766D01*
X133540116Y-58779377D01*
X133555661Y-58798319D01*
X133574603Y-58813865D01*
X133596214Y-58825416D01*
X133619664Y-58832529D01*
X133622032Y-58833000D01*
X133622033Y-58833000D01*
X133638371Y-58836250D01*
X133694672Y-58847449D01*
X133694674Y-58847450D01*
X133694675Y-58847450D01*
X133763103Y-58875793D01*
X133805519Y-58904135D01*
X133824689Y-58916944D01*
X133877058Y-58969313D01*
X133881067Y-58975313D01*
X133896612Y-58994255D01*
X133915554Y-59009800D01*
X133937165Y-59021351D01*
X133960614Y-59028464D01*
X133985001Y-59030866D01*
X134009387Y-59028464D01*
X134032836Y-59021351D01*
X134054447Y-59009799D01*
X134073389Y-58994254D01*
X134088933Y-58975313D01*
X134092942Y-58969313D01*
X134145311Y-58916944D01*
X134164481Y-58904135D01*
X134206897Y-58875793D01*
X134275325Y-58847450D01*
X134275326Y-58847450D01*
X134275328Y-58847449D01*
X134331629Y-58836250D01*
X134347967Y-58833000D01*
X134347968Y-58833000D01*
X134350336Y-58832529D01*
X134373785Y-58825416D01*
X134395396Y-58813865D01*
X134414338Y-58798320D01*
X134429883Y-58779378D01*
X134441435Y-58757767D01*
X134448548Y-58734318D01*
X134450950Y-58709932D01*
X134448548Y-58685545D01*
X134441435Y-58662095D01*
X134423449Y-58618672D01*
X134409000Y-58546034D01*
X134409000Y-58471966D01*
X134423449Y-58399328D01*
X134423450Y-58399325D01*
X134451793Y-58330897D01*
X134492942Y-58269314D01*
X134492943Y-58269313D01*
X134492944Y-58269311D01*
X134545311Y-58216944D01*
X134545591Y-58216757D01*
X134606897Y-58175793D01*
X134675325Y-58147450D01*
X134675326Y-58147450D01*
X134675328Y-58147449D01*
X134747966Y-58133000D01*
X134822034Y-58133000D01*
X134894672Y-58147449D01*
X134894674Y-58147450D01*
X134894675Y-58147450D01*
X134963103Y-58175793D01*
X135024409Y-58216757D01*
X135024689Y-58216944D01*
X135077058Y-58269313D01*
X135081067Y-58275313D01*
X135096612Y-58294255D01*
X135115554Y-58309800D01*
X135137165Y-58321351D01*
X135160614Y-58328464D01*
X135185001Y-58330866D01*
X135209387Y-58328464D01*
X135232836Y-58321351D01*
X135254447Y-58309799D01*
X135273389Y-58294254D01*
X135288933Y-58275313D01*
X135292942Y-58269313D01*
X135345311Y-58216944D01*
X135345591Y-58216757D01*
X135406897Y-58175793D01*
X135475325Y-58147450D01*
X135475326Y-58147450D01*
X135475328Y-58147449D01*
X135547966Y-58133000D01*
X135622034Y-58133000D01*
X135694672Y-58147449D01*
X135694674Y-58147450D01*
X135694675Y-58147450D01*
X135763103Y-58175793D01*
X135824409Y-58216757D01*
X135824689Y-58216944D01*
X135877058Y-58269313D01*
X135881067Y-58275313D01*
X135896612Y-58294255D01*
X135915554Y-58309800D01*
X135937165Y-58321351D01*
X135960614Y-58328464D01*
X135985001Y-58330866D01*
X136009387Y-58328464D01*
X136032836Y-58321351D01*
X136054447Y-58309799D01*
X136073389Y-58294254D01*
X136088933Y-58275313D01*
X136092942Y-58269313D01*
X136145311Y-58216944D01*
X136145591Y-58216757D01*
X136206897Y-58175793D01*
X136275325Y-58147450D01*
X136275326Y-58147450D01*
X136275328Y-58147449D01*
X136347966Y-58133000D01*
X136422034Y-58133000D01*
X136494672Y-58147449D01*
X136494674Y-58147450D01*
X136494675Y-58147450D01*
X136563103Y-58175793D01*
X136624409Y-58216757D01*
X136624689Y-58216944D01*
X136677056Y-58269311D01*
X136677057Y-58269313D01*
X136677058Y-58269314D01*
X136718207Y-58330897D01*
X136746550Y-58399325D01*
X136746551Y-58399328D01*
X136761000Y-58471966D01*
X136761000Y-58546034D01*
X136746551Y-58618672D01*
X136728565Y-58662095D01*
X136721452Y-58685544D01*
X136719050Y-58709931D01*
X136721452Y-58734317D01*
X136728565Y-58757766D01*
X136740116Y-58779377D01*
X136755661Y-58798319D01*
X136774603Y-58813865D01*
X136796214Y-58825416D01*
X136819664Y-58832529D01*
X136822032Y-58833000D01*
X136822033Y-58833000D01*
X136838371Y-58836250D01*
X136894672Y-58847449D01*
X136894674Y-58847450D01*
X136894675Y-58847450D01*
X136963103Y-58875793D01*
X137005519Y-58904135D01*
X137024689Y-58916944D01*
X137077056Y-58969311D01*
X137077057Y-58969313D01*
X137077058Y-58969314D01*
X137118207Y-59030897D01*
X137139550Y-59082425D01*
X137146551Y-59099328D01*
X137161000Y-59171966D01*
X137161000Y-59246034D01*
X137147549Y-59313657D01*
X137146550Y-59318675D01*
X137118207Y-59387103D01*
X137081066Y-59442687D01*
X137077056Y-59448689D01*
X137024689Y-59501056D01*
X137024686Y-59501058D01*
X136963103Y-59542207D01*
X136894675Y-59570550D01*
X136894674Y-59570550D01*
X136894672Y-59570551D01*
X136822034Y-59585000D01*
X136747966Y-59585000D01*
X136675328Y-59570551D01*
X136675326Y-59570550D01*
X136675325Y-59570550D01*
X136606897Y-59542207D01*
X136545314Y-59501058D01*
X136545311Y-59501056D01*
X136492944Y-59448689D01*
X136488934Y-59442687D01*
X136451793Y-59387103D01*
X136423450Y-59318675D01*
X136422452Y-59313657D01*
X136409000Y-59246034D01*
X136409000Y-59171966D01*
X136423449Y-59099328D01*
X136430450Y-59082425D01*
X136441436Y-59055902D01*
X136448548Y-59032456D01*
X136450950Y-59008069D01*
X136448548Y-58983683D01*
X136441435Y-58960234D01*
X136429884Y-58938623D01*
X136414339Y-58919681D01*
X136395397Y-58904135D01*
X136373786Y-58892584D01*
X136350336Y-58885471D01*
X136347968Y-58885000D01*
X136347967Y-58885000D01*
X136322115Y-58879858D01*
X136275328Y-58870551D01*
X136275326Y-58870550D01*
X136275325Y-58870550D01*
X136206897Y-58842207D01*
X136145314Y-58801058D01*
X136145311Y-58801056D01*
X136092942Y-58748687D01*
X136088933Y-58742687D01*
X136073388Y-58723745D01*
X136054446Y-58708200D01*
X136032835Y-58696649D01*
X136009386Y-58689536D01*
X135984999Y-58687134D01*
X135960613Y-58689536D01*
X135937164Y-58696649D01*
X135915553Y-58708201D01*
X135896611Y-58723746D01*
X135881067Y-58742687D01*
X135877058Y-58748687D01*
X135824689Y-58801056D01*
X135824686Y-58801058D01*
X135763103Y-58842207D01*
X135694675Y-58870550D01*
X135694674Y-58870550D01*
X135694672Y-58870551D01*
X135647885Y-58879858D01*
X135622033Y-58885000D01*
X135622032Y-58885000D01*
X135619664Y-58885471D01*
X135596215Y-58892584D01*
X135574604Y-58904135D01*
X135555662Y-58919680D01*
X135540117Y-58938622D01*
X135528565Y-58960233D01*
X135521452Y-58983682D01*
X135519050Y-59008068D01*
X135521452Y-59032455D01*
X135528564Y-59055902D01*
X135539550Y-59082425D01*
X135546551Y-59099328D01*
X135561000Y-59171966D01*
X135561000Y-59246034D01*
X135547549Y-59313657D01*
X135546550Y-59318675D01*
X135518207Y-59387103D01*
X135481066Y-59442687D01*
X135477056Y-59448689D01*
X135424689Y-59501056D01*
X135424686Y-59501058D01*
X135363103Y-59542207D01*
X135294675Y-59570550D01*
X135294674Y-59570550D01*
X135294672Y-59570551D01*
X135222034Y-59585000D01*
X135147966Y-59585000D01*
X135075328Y-59570551D01*
X135075326Y-59570550D01*
X135075325Y-59570550D01*
X135006897Y-59542207D01*
X134945314Y-59501058D01*
X134945311Y-59501056D01*
X134892942Y-59448687D01*
X134888933Y-59442687D01*
X134873388Y-59423745D01*
X134854446Y-59408200D01*
X134832835Y-59396649D01*
X134809386Y-59389536D01*
X134784999Y-59387134D01*
X134760613Y-59389536D01*
X134737164Y-59396649D01*
X134715553Y-59408201D01*
X134696611Y-59423746D01*
X134681067Y-59442687D01*
X134677058Y-59448687D01*
X134624689Y-59501056D01*
X134624686Y-59501058D01*
X134563103Y-59542207D01*
X134494675Y-59570550D01*
X134494674Y-59570550D01*
X134494672Y-59570551D01*
X134422034Y-59585000D01*
X134347966Y-59585000D01*
X134275328Y-59570551D01*
X134275326Y-59570550D01*
X134275325Y-59570550D01*
X134206897Y-59542207D01*
X134145314Y-59501058D01*
X134145311Y-59501056D01*
X134092942Y-59448687D01*
X134088933Y-59442687D01*
X134073388Y-59423745D01*
X134054446Y-59408200D01*
X134032835Y-59396649D01*
X134009386Y-59389536D01*
X133984999Y-59387134D01*
X133960613Y-59389536D01*
X133937164Y-59396649D01*
X133915553Y-59408201D01*
X133896611Y-59423746D01*
X133881067Y-59442687D01*
X133877058Y-59448687D01*
X133824689Y-59501056D01*
X133824686Y-59501058D01*
X133763103Y-59542207D01*
X133694675Y-59570550D01*
X133694674Y-59570550D01*
X133694672Y-59570551D01*
X133622034Y-59585000D01*
X133547966Y-59585000D01*
X133475328Y-59570551D01*
X133475326Y-59570550D01*
X133475325Y-59570550D01*
X133406897Y-59542207D01*
X133345314Y-59501058D01*
X133345311Y-59501056D01*
X133292942Y-59448687D01*
X133288933Y-59442687D01*
X133273388Y-59423745D01*
X133254446Y-59408200D01*
X133232835Y-59396649D01*
X133209386Y-59389536D01*
X133184999Y-59387134D01*
X133160613Y-59389536D01*
X133137164Y-59396649D01*
X133115553Y-59408201D01*
X133096611Y-59423746D01*
X133081067Y-59442687D01*
X133077058Y-59448687D01*
X133024689Y-59501056D01*
X133024686Y-59501058D01*
X132963103Y-59542207D01*
X132894675Y-59570550D01*
X132894674Y-59570550D01*
X132894672Y-59570551D01*
X132822034Y-59585000D01*
X132747966Y-59585000D01*
X132675328Y-59570551D01*
X132675326Y-59570550D01*
X132675325Y-59570550D01*
X132606897Y-59542207D01*
X132545314Y-59501058D01*
X132545311Y-59501056D01*
X132492944Y-59448689D01*
X132488934Y-59442687D01*
X132451793Y-59387103D01*
X132423450Y-59318675D01*
X132422452Y-59313657D01*
X132409000Y-59246034D01*
X132409000Y-59171966D01*
X132423449Y-59099328D01*
X132430450Y-59082425D01*
X132441436Y-59055902D01*
X132448548Y-59032456D01*
X132450950Y-59008069D01*
X132448548Y-58983683D01*
X132441435Y-58960234D01*
X132429884Y-58938623D01*
X132414339Y-58919681D01*
X132395397Y-58904135D01*
X132373786Y-58892584D01*
X132350336Y-58885471D01*
X132347968Y-58885000D01*
X132347967Y-58885000D01*
X132322115Y-58879858D01*
X132275328Y-58870551D01*
X132275326Y-58870550D01*
X132275325Y-58870550D01*
X132206897Y-58842207D01*
X132145314Y-58801058D01*
X132145311Y-58801056D01*
X132092942Y-58748687D01*
X132088933Y-58742687D01*
X132073388Y-58723745D01*
X132054446Y-58708200D01*
X132032835Y-58696649D01*
X132009386Y-58689536D01*
X131984999Y-58687134D01*
X131960613Y-58689536D01*
X131937164Y-58696649D01*
X131915553Y-58708201D01*
X131896611Y-58723746D01*
X131881067Y-58742687D01*
X131877058Y-58748687D01*
X131824689Y-58801056D01*
X131824686Y-58801058D01*
X131763103Y-58842207D01*
X131694675Y-58870550D01*
X131694674Y-58870550D01*
X131694672Y-58870551D01*
X131647885Y-58879858D01*
X131622033Y-58885000D01*
X131622032Y-58885000D01*
X131619664Y-58885471D01*
X131596215Y-58892584D01*
X131574604Y-58904135D01*
X131555662Y-58919680D01*
X131540117Y-58938622D01*
X131528565Y-58960233D01*
X131521452Y-58983682D01*
X131519050Y-59008068D01*
X131521452Y-59032455D01*
X131528564Y-59055902D01*
X131539550Y-59082425D01*
X131546551Y-59099328D01*
X131561000Y-59171966D01*
X131561000Y-59246034D01*
X131547549Y-59313657D01*
X131546550Y-59318675D01*
X131518207Y-59387103D01*
X131481066Y-59442687D01*
X131477056Y-59448689D01*
X131424689Y-59501056D01*
X131424686Y-59501058D01*
X131363103Y-59542207D01*
X131294675Y-59570550D01*
X131294674Y-59570550D01*
X131294672Y-59570551D01*
X131222034Y-59585000D01*
X131147966Y-59585000D01*
X131075328Y-59570551D01*
X131075326Y-59570550D01*
X131075325Y-59570550D01*
X131050830Y-59560404D01*
X131027387Y-59553292D01*
X131003000Y-59550890D01*
X130978614Y-59553291D01*
X130955165Y-59560404D01*
X130933554Y-59571955D01*
X130914611Y-59587500D01*
X130899066Y-59606442D01*
X130887514Y-59628052D01*
X130880400Y-59651501D01*
X130877998Y-59675888D01*
X130880399Y-59700274D01*
X130883380Y-59712175D01*
X130905560Y-59785293D01*
X130912819Y-59859000D01*
X130905560Y-59932710D01*
X130884060Y-60003585D01*
X130849146Y-60068904D01*
X130802159Y-60126159D01*
X130744904Y-60173146D01*
X130679585Y-60208060D01*
X130608710Y-60229560D01*
X130553472Y-60235000D01*
X130216528Y-60235000D01*
X130161290Y-60229560D01*
X130090415Y-60208060D01*
X130025096Y-60173146D01*
X129967841Y-60126159D01*
X129920854Y-60068904D01*
X129885940Y-60003585D01*
X129864440Y-59932710D01*
X129857181Y-59859000D01*
X129864440Y-59785290D01*
X129885940Y-59714415D01*
X129920854Y-59649096D01*
X129967838Y-59591844D01*
X129982700Y-59579648D01*
X130000027Y-59562321D01*
X130013641Y-59541946D01*
X130023019Y-59519308D01*
X130027800Y-59495274D01*
X130027800Y-59470770D01*
X130023020Y-59446736D01*
X130013643Y-59424097D01*
X130000030Y-59403722D01*
X129982703Y-59386395D01*
X129962328Y-59372781D01*
X129939690Y-59363403D01*
X129915656Y-59358622D01*
X129891150Y-59358622D01*
X129855000Y-59362182D01*
X129766587Y-59353475D01*
X129691544Y-59330710D01*
X129681575Y-59327686D01*
X129603226Y-59285807D01*
X129534552Y-59229448D01*
X129534550Y-59229446D01*
X129478195Y-59160777D01*
X129445350Y-59099328D01*
X129436314Y-59082424D01*
X129433290Y-59072455D01*
X129410525Y-58997412D01*
X129404000Y-58931157D01*
X129404000Y-58286842D01*
X129410525Y-58220587D01*
X129436313Y-58135577D01*
X129478193Y-58057227D01*
X129534553Y-57988552D01*
X129603226Y-57932194D01*
X129603225Y-57932194D01*
X129603227Y-57932193D01*
X129681576Y-57890314D01*
X129691545Y-57887290D01*
X129766588Y-57864525D01*
X129855000Y-57855818D01*
X129943413Y-57864525D01*
X129943413Y-57864525D01*
G37*
G36*
X138203413Y-57864525D02*
X138278456Y-57887290D01*
X138288425Y-57890314D01*
X138366774Y-57932193D01*
X138435448Y-57988552D01*
X138491807Y-58057226D01*
X138533686Y-58135575D01*
X138533687Y-58135579D01*
X138559475Y-58220587D01*
X138566000Y-58286842D01*
X138566000Y-58931158D01*
X138559475Y-58997413D01*
X138545649Y-59042988D01*
X138533686Y-59082425D01*
X138491807Y-59160774D01*
X138435449Y-59229447D01*
X138435446Y-59229450D01*
X138366777Y-59285805D01*
X138366773Y-59285807D01*
X138288424Y-59327686D01*
X138278455Y-59330710D01*
X138203412Y-59353475D01*
X138115000Y-59362182D01*
X138026587Y-59353475D01*
X137951544Y-59330710D01*
X137941575Y-59327686D01*
X137863226Y-59285807D01*
X137794552Y-59229448D01*
X137794550Y-59229446D01*
X137738195Y-59160777D01*
X137705350Y-59099328D01*
X137696314Y-59082424D01*
X137693290Y-59072455D01*
X137670525Y-58997412D01*
X137664000Y-58931157D01*
X137664000Y-58286842D01*
X137670525Y-58220587D01*
X137696313Y-58135577D01*
X137738193Y-58057227D01*
X137794553Y-57988552D01*
X137863226Y-57932194D01*
X137863225Y-57932194D01*
X137863227Y-57932193D01*
X137941576Y-57890314D01*
X137951545Y-57887290D01*
X138026588Y-57864525D01*
X138115000Y-57855818D01*
X138203413Y-57864525D01*
X138203413Y-57864525D01*
G37*
G36*
X121816396Y-57172796D02*
X121989466Y-57244484D01*
X122145230Y-57348562D01*
X122277688Y-57481020D01*
X122381766Y-57636784D01*
X122453454Y-57809854D01*
X122490000Y-57993583D01*
X122490000Y-58180917D01*
X122453454Y-58364646D01*
X122381766Y-58537716D01*
X122277688Y-58693480D01*
X122145230Y-58825938D01*
X121989466Y-58930016D01*
X121816396Y-59001704D01*
X121632667Y-59038250D01*
X121445333Y-59038250D01*
X121261604Y-59001704D01*
X121088534Y-58930016D01*
X120932770Y-58825938D01*
X120800312Y-58693480D01*
X120696234Y-58537716D01*
X120624546Y-58364646D01*
X120588000Y-58180917D01*
X120588000Y-57993583D01*
X120624546Y-57809854D01*
X120696234Y-57636784D01*
X120800312Y-57481020D01*
X120932770Y-57348562D01*
X121088534Y-57244484D01*
X121261604Y-57172796D01*
X121445333Y-57136250D01*
X121632667Y-57136250D01*
X121816396Y-57172796D01*
X121816396Y-57172796D01*
G37*
G36*
X119276396Y-57172796D02*
X119449466Y-57244484D01*
X119605230Y-57348562D01*
X119737688Y-57481020D01*
X119841766Y-57636784D01*
X119913454Y-57809854D01*
X119950000Y-57993583D01*
X119950000Y-58180917D01*
X119913454Y-58364646D01*
X119841766Y-58537716D01*
X119737688Y-58693480D01*
X119605230Y-58825938D01*
X119449466Y-58930016D01*
X119276396Y-59001704D01*
X119092667Y-59038250D01*
X118905333Y-59038250D01*
X118721604Y-59001704D01*
X118548534Y-58930016D01*
X118392770Y-58825938D01*
X118260312Y-58693480D01*
X118156234Y-58537716D01*
X118084546Y-58364646D01*
X118048000Y-58180917D01*
X118048000Y-57993583D01*
X118084546Y-57809854D01*
X118156234Y-57636784D01*
X118260312Y-57481020D01*
X118392770Y-57348562D01*
X118548534Y-57244484D01*
X118721604Y-57172796D01*
X118905333Y-57136250D01*
X119092667Y-57136250D01*
X119276396Y-57172796D01*
X119276396Y-57172796D01*
G37*
G36*
X116736396Y-57172796D02*
X116909466Y-57244484D01*
X117065230Y-57348562D01*
X117197688Y-57481020D01*
X117301766Y-57636784D01*
X117373454Y-57809854D01*
X117410000Y-57993583D01*
X117410000Y-58180917D01*
X117373454Y-58364646D01*
X117301766Y-58537716D01*
X117197688Y-58693480D01*
X117065230Y-58825938D01*
X116909466Y-58930016D01*
X116736396Y-59001704D01*
X116552667Y-59038250D01*
X116365333Y-59038250D01*
X116181604Y-59001704D01*
X116008534Y-58930016D01*
X115852770Y-58825938D01*
X115720312Y-58693480D01*
X115616234Y-58537716D01*
X115544546Y-58364646D01*
X115508000Y-58180917D01*
X115508000Y-57993583D01*
X115544546Y-57809854D01*
X115616234Y-57636784D01*
X115720312Y-57481020D01*
X115852770Y-57348562D01*
X116008534Y-57244484D01*
X116181604Y-57172796D01*
X116365333Y-57136250D01*
X116552667Y-57136250D01*
X116736396Y-57172796D01*
X116736396Y-57172796D01*
G37*
G36*
X119378485Y-52886246D02*
X119378487Y-52886247D01*
X119378488Y-52886247D01*
X119607612Y-52981153D01*
X119615255Y-52984319D01*
X119828342Y-53126699D01*
X120009551Y-53307908D01*
X120151931Y-53520995D01*
X120250004Y-53757765D01*
X120300000Y-54009111D01*
X120300000Y-54265389D01*
X120259164Y-54470686D01*
X120250003Y-54516738D01*
X120195504Y-54648310D01*
X120151931Y-54753505D01*
X120009551Y-54966592D01*
X119828342Y-55147801D01*
X119828339Y-55147803D01*
X119615255Y-55290181D01*
X119378488Y-55388253D01*
X119378487Y-55388253D01*
X119378485Y-55388254D01*
X119127139Y-55438250D01*
X118870861Y-55438250D01*
X118619515Y-55388254D01*
X118619513Y-55388253D01*
X118619512Y-55388253D01*
X118382745Y-55290181D01*
X118169661Y-55147803D01*
X118169658Y-55147801D01*
X117988449Y-54966592D01*
X117846069Y-54753505D01*
X117802496Y-54648310D01*
X117747997Y-54516738D01*
X117738837Y-54470686D01*
X117698000Y-54265389D01*
X117698000Y-54009111D01*
X117747996Y-53757765D01*
X117846069Y-53520995D01*
X117988449Y-53307908D01*
X118169658Y-53126699D01*
X118382745Y-52984319D01*
X118390388Y-52981153D01*
X118619512Y-52886247D01*
X118619513Y-52886247D01*
X118619515Y-52886246D01*
X118870861Y-52836250D01*
X119127139Y-52836250D01*
X119378485Y-52886246D01*
X119378485Y-52886246D01*
G37*
G36*
X61261686Y-53247507D02*
X61261688Y-53247508D01*
X61261689Y-53247508D01*
X61439309Y-53321080D01*
X61597002Y-53426448D01*
X61599166Y-53427894D01*
X61735106Y-53563834D01*
X61735108Y-53563837D01*
X61841920Y-53723691D01*
X61914070Y-53897879D01*
X61915493Y-53901314D01*
X61936936Y-54009113D01*
X61953000Y-54089872D01*
X61953000Y-54282128D01*
X61915492Y-54470689D01*
X61841920Y-54648309D01*
X61841919Y-54648310D01*
X61735106Y-54808166D01*
X61599166Y-54944106D01*
X61599163Y-54944108D01*
X61439309Y-55050920D01*
X61261689Y-55124492D01*
X61261688Y-55124492D01*
X61261686Y-55124493D01*
X61073129Y-55162000D01*
X60880871Y-55162000D01*
X60692314Y-55124493D01*
X60692312Y-55124492D01*
X60692311Y-55124492D01*
X60514691Y-55050920D01*
X60354837Y-54944108D01*
X60354834Y-54944106D01*
X60218894Y-54808166D01*
X60112081Y-54648310D01*
X60112080Y-54648309D01*
X60038508Y-54470689D01*
X60001000Y-54282128D01*
X60001000Y-54089872D01*
X60017064Y-54009113D01*
X60038507Y-53901314D01*
X60039930Y-53897879D01*
X60112080Y-53723691D01*
X60218892Y-53563837D01*
X60218894Y-53563834D01*
X60354834Y-53427894D01*
X60356998Y-53426448D01*
X60514691Y-53321080D01*
X60692311Y-53247508D01*
X60692312Y-53247508D01*
X60692314Y-53247507D01*
X60880871Y-53210000D01*
X61073129Y-53210000D01*
X61261686Y-53247507D01*
X61261686Y-53247507D01*
G37*
G36*
X67485014Y-51942973D02*
X67588878Y-51974479D01*
X67684600Y-52025644D01*
X67768501Y-52094499D01*
X67837356Y-52178400D01*
X67888521Y-52274121D01*
X67920027Y-52377985D01*
X67928000Y-52458933D01*
X67928000Y-53713067D01*
X67920027Y-53794015D01*
X67888521Y-53897879D01*
X67837356Y-53993600D01*
X67768501Y-54077501D01*
X67684600Y-54146356D01*
X67588879Y-54197521D01*
X67485015Y-54229027D01*
X67377000Y-54239666D01*
X67268986Y-54229027D01*
X67165122Y-54197521D01*
X67069401Y-54146356D01*
X66985500Y-54077501D01*
X66916645Y-53993600D01*
X66865480Y-53897879D01*
X66833974Y-53794015D01*
X66826001Y-53713067D01*
X66826000Y-52458934D01*
X66833973Y-52377986D01*
X66865479Y-52274122D01*
X66916644Y-52178400D01*
X66985499Y-52094499D01*
X67069400Y-52025644D01*
X67165121Y-51974479D01*
X67268985Y-51942973D01*
X67377000Y-51932334D01*
X67485014Y-51942973D01*
X67485014Y-51942973D01*
G37*
G36*
X57385014Y-51942973D02*
X57488878Y-51974479D01*
X57584600Y-52025644D01*
X57668501Y-52094499D01*
X57737356Y-52178400D01*
X57788521Y-52274121D01*
X57820027Y-52377985D01*
X57828000Y-52458933D01*
X57828000Y-53713067D01*
X57820027Y-53794015D01*
X57788521Y-53897879D01*
X57737356Y-53993600D01*
X57668501Y-54077501D01*
X57584600Y-54146356D01*
X57488879Y-54197521D01*
X57385015Y-54229027D01*
X57277000Y-54239666D01*
X57168986Y-54229027D01*
X57065122Y-54197521D01*
X56969401Y-54146356D01*
X56885500Y-54077501D01*
X56816645Y-53993600D01*
X56765480Y-53897879D01*
X56733974Y-53794015D01*
X56726001Y-53713067D01*
X56726000Y-52458934D01*
X56733973Y-52377986D01*
X56765479Y-52274122D01*
X56816644Y-52178400D01*
X56885499Y-52094499D01*
X56969400Y-52025644D01*
X57065121Y-51974479D01*
X57168985Y-51942973D01*
X57277000Y-51932334D01*
X57385014Y-51942973D01*
X57385014Y-51942973D01*
G37*
G36*
X129583413Y-51914525D02*
X129658456Y-51937290D01*
X129668425Y-51940314D01*
X129746774Y-51982193D01*
X129815448Y-52038552D01*
X129871807Y-52107226D01*
X129913686Y-52185575D01*
X129913687Y-52185579D01*
X129939475Y-52270587D01*
X129946000Y-52336842D01*
X129946000Y-52981158D01*
X129939475Y-53047413D01*
X129916710Y-53122456D01*
X129913686Y-53132425D01*
X129871807Y-53210774D01*
X129815450Y-53279446D01*
X129815446Y-53279450D01*
X129746777Y-53335805D01*
X129746773Y-53335807D01*
X129668424Y-53377686D01*
X129658455Y-53380710D01*
X129583412Y-53403475D01*
X129495000Y-53412182D01*
X129406587Y-53403475D01*
X129331544Y-53380710D01*
X129321575Y-53377686D01*
X129243226Y-53335807D01*
X129174552Y-53279448D01*
X129174550Y-53279446D01*
X129118195Y-53210777D01*
X129113664Y-53202299D01*
X129076314Y-53132424D01*
X129073290Y-53122455D01*
X129050525Y-53047412D01*
X129044000Y-52981157D01*
X129044000Y-52336842D01*
X129050525Y-52270587D01*
X129076313Y-52185577D01*
X129118193Y-52107227D01*
X129174553Y-52038552D01*
X129243226Y-51982194D01*
X129243225Y-51982194D01*
X129243227Y-51982193D01*
X129321576Y-51940314D01*
X129331545Y-51937290D01*
X129406588Y-51914525D01*
X129495000Y-51905818D01*
X129583413Y-51914525D01*
X129583413Y-51914525D01*
G37*
G36*
X138563413Y-51914525D02*
X138638456Y-51937290D01*
X138648425Y-51940314D01*
X138726774Y-51982193D01*
X138795448Y-52038552D01*
X138851807Y-52107226D01*
X138893686Y-52185575D01*
X138893687Y-52185579D01*
X138919475Y-52270587D01*
X138926000Y-52336842D01*
X138926000Y-52981158D01*
X138919475Y-53047413D01*
X138896710Y-53122456D01*
X138893686Y-53132425D01*
X138851807Y-53210774D01*
X138795450Y-53279446D01*
X138795446Y-53279450D01*
X138726777Y-53335805D01*
X138726773Y-53335807D01*
X138648424Y-53377686D01*
X138638455Y-53380710D01*
X138563412Y-53403475D01*
X138475000Y-53412182D01*
X138386587Y-53403475D01*
X138311544Y-53380710D01*
X138301575Y-53377686D01*
X138223226Y-53335807D01*
X138154552Y-53279448D01*
X138154550Y-53279446D01*
X138098195Y-53210777D01*
X138093664Y-53202299D01*
X138056314Y-53132424D01*
X138053290Y-53122455D01*
X138030525Y-53047412D01*
X138024000Y-52981157D01*
X138024000Y-52336842D01*
X138030525Y-52270587D01*
X138056313Y-52185577D01*
X138098193Y-52107227D01*
X138154553Y-52038552D01*
X138223226Y-51982194D01*
X138223225Y-51982194D01*
X138223227Y-51982193D01*
X138301576Y-51940314D01*
X138311545Y-51937290D01*
X138386588Y-51914525D01*
X138475000Y-51905818D01*
X138563413Y-51914525D01*
X138563413Y-51914525D01*
G37*
M02*
