M48
;DRILL file {KiCad 5.0.2+dfsg1-1} date 2021年02月28日 星期日 17时02分04秒
;FORMAT={-:-/ absolute / metric / decimal}
FMAT,2
METRIC,TZ
T1C0.300
T2C0.400
T3C0.500
T4C0.800
T5C1.000
T6C1.400
T7C1.700
T8C3.200
%
G90
G05
T1
X61.976Y-102.743
X64.643Y-102.743
X65.532Y-144.399
X66.548Y-83.566
X68.072Y-78.867
X68.326Y-114.427
X73.992Y-122.555
X74.549Y-67.318
X74.676Y-76.962
X74.754Y-106.553
X76.073Y-99.314
X76.708Y-122.555
X77.47Y-106.553
X79.423Y-122.555
X80.185Y-106.553
X81.661Y-124.333
X81.661Y-110.998
X84.074Y-107.442
X84.074Y-121.793
X91.44Y-117.856
X91.567Y-115.697
X91.821Y-123.317
X92.075Y-104.394
X93.218Y-111.76
X94.488Y-113.411
X94.869Y-104.394
X97.409Y-126.619
X97.742Y-77.619
X97.917Y-73.152
X98.191Y-128.377
X98.425Y-114.681
X99.691Y-111.256
X100.076Y-123.063
X101.775Y-118.618
X103.124Y-112.395
X104.267Y-106.68
X105.517Y-113.685
X106.553Y-107.823
X106.934Y-118.237
X109.982Y-106.934
X112.649Y-104.14
X114.173Y-110.49
X115.57Y-123.998
X115.951Y-103.861
X115.951Y-105.435
X116.205Y-100.572
X116.332Y-82.938
X116.445Y-116.854
X117.221Y-91.44
X117.475Y-112.903
X117.856Y-124.333
X118.491Y-126.365
X119.507Y-127.
X120.082Y-117.368
X120.84Y-117.623
X121.158Y-111.633
X121.202Y-99.314
X121.539Y-116.078
X121.793Y-140.843
X122.936Y-85.852
X122.936Y-99.695
X122.936Y-124.841
X123.444Y-115.697
X123.825Y-102.743
X124.079Y-100.965
X124.206Y-108.839
X124.56Y-99.347
X124.714Y-84.582
X125.095Y-121.793
X125.222Y-108.077
X125.349Y-115.062
X125.984Y-81.915
X127.381Y-102.489
X127.508Y-100.711
X127.762Y-98.044
X127.762Y-129.032
X127.776Y-127.24
X128.397Y-136.827
X128.524Y-119.253
X128.803Y-90.805
X129.667Y-112.268
X130.683Y-62.865
X131.557Y-64.135
X132.08Y-99.352
X133.096Y-89.154
X134.366Y-62.738
X134.493Y-90.297
X134.493Y-106.68
X135.382Y-64.008
X136.398Y-92.202
X136.779Y-108.839
X137.541Y-109.728
X138.811Y-110.49
X139.119Y-105.141
X140.843Y-122.809
X140.97Y-106.68
X141.097Y-138.811
X98.022Y-67.472
X98.022Y-68.672
X99.122Y-67.472
X99.122Y-68.672
X100.422Y-67.472
X100.422Y-68.672
X101.622Y-67.472
X101.622Y-68.672
X74.781Y-71.79
X74.781Y-72.99
X75.881Y-71.79
X75.881Y-72.99
X77.181Y-71.79
X77.181Y-72.99
X78.381Y-71.79
X78.381Y-72.99
X137.863Y-143.891
T2
X131.185Y-59.209
X131.585Y-58.509
X132.385Y-58.509
X132.785Y-59.209
X133.185Y-58.509
X133.585Y-59.209
X134.385Y-59.209
X134.785Y-58.509
X135.185Y-59.209
X135.585Y-58.509
X136.385Y-58.509
X136.785Y-59.209
T5
X111.633Y-138.049
X114.173Y-138.049
X116.713Y-138.049
X119.253Y-138.049
X89.916Y-134.112
X92.456Y-134.112
X94.996Y-134.112
X97.536Y-134.112
X100.076Y-134.112
X102.616Y-134.112
X116.459Y-58.087
X118.999Y-58.087
X121.539Y-58.087
X82.677Y-144.526
X82.677Y-147.066
X85.217Y-144.526
X85.217Y-147.066
X87.757Y-144.526
X87.757Y-147.066
X90.297Y-144.526
X90.297Y-147.066
X92.837Y-144.526
X92.837Y-147.066
X95.377Y-144.526
X95.377Y-147.066
X97.917Y-144.526
X97.917Y-147.066
X100.457Y-144.526
X100.457Y-147.066
X102.997Y-144.526
X102.997Y-147.066
X105.537Y-144.526
X105.537Y-147.066
T6
X59.589Y-132.461
X59.589Y-138.811
X59.589Y-145.161
X75.819Y-132.461
X75.819Y-138.811
X75.819Y-145.161
T7
X75.311Y-58.905
X75.311Y-62.865
T8
X60.Y-115.
X135.Y-80.
X60.Y-80.
X135.Y-115.
T3
X129.495Y-52.959G85X129.495Y-52.359
G05
X129.855Y-58.909G85X129.855Y-58.309
G05
X138.115Y-58.909G85X138.115Y-58.309
G05
X138.475Y-52.959G85X138.475Y-52.359
G05
T4
X57.277Y-52.486G85X57.277Y-53.686
G05
X57.777Y-59.786G85X57.777Y-60.986
G05
X60.977Y-59.786G85X60.977Y-60.986
G05
X66.177Y-59.786G85X66.177Y-60.986
G05
X67.377Y-52.486G85X67.377Y-53.686
G05
T0
M30
