%TF.GenerationSoftware,KiCad,Pcbnew,5.0.2+dfsg1-1*%
%TF.CreationDate,2021-08-12T08:11:43+08:00*%
%TF.ProjectId,shell_2,7368656c-6c5f-4322-9e6b-696361645f70,rev?*%
%TF.SameCoordinates,Original*%
%TF.FileFunction,Copper,L2,Bot*%
%TF.FilePolarity,Positive*%
%FSLAX46Y46*%
G04 Gerber Fmt 4.6, Leading zero omitted, Abs format (unit mm)*
G04 Created by KiCad (PCBNEW 5.0.2+dfsg1-1) date 2021年08月12日 星期四 08时11分43秒*
%MOMM*%
%LPD*%
G01*
G04 APERTURE LIST*
%TA.AperFunction,NonConductor*%
%ADD10C,0.254000*%
%TD*%
G04 APERTURE END LIST*
D10*
G36*
X199369227Y-88619997D02*
X201446384Y-89247975D01*
X200940748Y-136373217D01*
X97918512Y-136879967D01*
X98306096Y-103967582D01*
X99340000Y-103967582D01*
X99340001Y-121532419D01*
X99342988Y-121562744D01*
X99342813Y-121587743D01*
X99343713Y-121596914D01*
X99425315Y-122373302D01*
X99437338Y-122431871D01*
X99448551Y-122490657D01*
X99451215Y-122499479D01*
X99682063Y-123245229D01*
X99705238Y-123300359D01*
X99727652Y-123355838D01*
X99731979Y-123363974D01*
X100103282Y-124050684D01*
X100136727Y-124100268D01*
X100169487Y-124150331D01*
X100175311Y-124157472D01*
X100672924Y-124758983D01*
X100715376Y-124801140D01*
X100757223Y-124843873D01*
X100764318Y-124849741D01*
X100764324Y-124849747D01*
X100764331Y-124849751D01*
X101369294Y-125343148D01*
X101419087Y-125376230D01*
X101468476Y-125410048D01*
X101476583Y-125414430D01*
X102165867Y-125780930D01*
X102221182Y-125803729D01*
X102276154Y-125827290D01*
X102284957Y-125830015D01*
X103032302Y-126055652D01*
X103091011Y-126067277D01*
X103149494Y-126079708D01*
X103158657Y-126080671D01*
X103158659Y-126080671D01*
X103935596Y-126156850D01*
X103935598Y-126156850D01*
X103967581Y-126160000D01*
X196032419Y-126160000D01*
X196062753Y-126157012D01*
X196087743Y-126157187D01*
X196096914Y-126156287D01*
X196873302Y-126074685D01*
X196931871Y-126062662D01*
X196990657Y-126051449D01*
X196999479Y-126048785D01*
X197745229Y-125817937D01*
X197800359Y-125794762D01*
X197855838Y-125772348D01*
X197863974Y-125768021D01*
X198550684Y-125396718D01*
X198600268Y-125363273D01*
X198650331Y-125330513D01*
X198657472Y-125324689D01*
X199258983Y-124827076D01*
X199301140Y-124784624D01*
X199343873Y-124742777D01*
X199349741Y-124735682D01*
X199349747Y-124735676D01*
X199349751Y-124735669D01*
X199843148Y-124130706D01*
X199876230Y-124080913D01*
X199910048Y-124031524D01*
X199914430Y-124023417D01*
X200280930Y-123334133D01*
X200303729Y-123278818D01*
X200327290Y-123223846D01*
X200330015Y-123215043D01*
X200555652Y-122467698D01*
X200567277Y-122408989D01*
X200579708Y-122350506D01*
X200580671Y-122341341D01*
X200656850Y-121564404D01*
X200656850Y-121564402D01*
X200660000Y-121532419D01*
X200660000Y-103967581D01*
X200657012Y-103937247D01*
X200657187Y-103912257D01*
X200656287Y-103903086D01*
X200574685Y-103126699D01*
X200562658Y-103068106D01*
X200551448Y-103009342D01*
X200548785Y-103000520D01*
X200317937Y-102254771D01*
X200294749Y-102199608D01*
X200272347Y-102144162D01*
X200268021Y-102136026D01*
X199896718Y-101449316D01*
X199863279Y-101399741D01*
X199830514Y-101349670D01*
X199824689Y-101342529D01*
X199327076Y-100741017D01*
X199284621Y-100698858D01*
X199242776Y-100656127D01*
X199235676Y-100650253D01*
X198630705Y-100156852D01*
X198580904Y-100123764D01*
X198531524Y-100089953D01*
X198523418Y-100085570D01*
X197834133Y-99719071D01*
X197778839Y-99696280D01*
X197723846Y-99672710D01*
X197715043Y-99669985D01*
X196967698Y-99444348D01*
X196908995Y-99432725D01*
X196850506Y-99420292D01*
X196841342Y-99419329D01*
X196064404Y-99343150D01*
X196064402Y-99343150D01*
X196032419Y-99340000D01*
X103967581Y-99340000D01*
X103937247Y-99342988D01*
X103912257Y-99342813D01*
X103903086Y-99343713D01*
X103126699Y-99425315D01*
X103068106Y-99437342D01*
X103009342Y-99448552D01*
X103000520Y-99451215D01*
X102254771Y-99682063D01*
X102199608Y-99705251D01*
X102144162Y-99727653D01*
X102136026Y-99731979D01*
X101449316Y-100103282D01*
X101399741Y-100136721D01*
X101349670Y-100169486D01*
X101342529Y-100175311D01*
X100741017Y-100672924D01*
X100698863Y-100715374D01*
X100656127Y-100757224D01*
X100650253Y-100764324D01*
X100156852Y-101369295D01*
X100123764Y-101419096D01*
X100089953Y-101468476D01*
X100085570Y-101476582D01*
X99719071Y-102165867D01*
X99696280Y-102221161D01*
X99672710Y-102276154D01*
X99669985Y-102284957D01*
X99444348Y-103032302D01*
X99432725Y-103091005D01*
X99420292Y-103149494D01*
X99419329Y-103158658D01*
X99343150Y-103935596D01*
X99340000Y-103967582D01*
X98306096Y-103967582D01*
X98525065Y-85373505D01*
X199369227Y-88619997D01*
X199369227Y-88619997D01*
G37*
X199369227Y-88619997D02*
X201446384Y-89247975D01*
X200940748Y-136373217D01*
X97918512Y-136879967D01*
X98306096Y-103967582D01*
X99340000Y-103967582D01*
X99340001Y-121532419D01*
X99342988Y-121562744D01*
X99342813Y-121587743D01*
X99343713Y-121596914D01*
X99425315Y-122373302D01*
X99437338Y-122431871D01*
X99448551Y-122490657D01*
X99451215Y-122499479D01*
X99682063Y-123245229D01*
X99705238Y-123300359D01*
X99727652Y-123355838D01*
X99731979Y-123363974D01*
X100103282Y-124050684D01*
X100136727Y-124100268D01*
X100169487Y-124150331D01*
X100175311Y-124157472D01*
X100672924Y-124758983D01*
X100715376Y-124801140D01*
X100757223Y-124843873D01*
X100764318Y-124849741D01*
X100764324Y-124849747D01*
X100764331Y-124849751D01*
X101369294Y-125343148D01*
X101419087Y-125376230D01*
X101468476Y-125410048D01*
X101476583Y-125414430D01*
X102165867Y-125780930D01*
X102221182Y-125803729D01*
X102276154Y-125827290D01*
X102284957Y-125830015D01*
X103032302Y-126055652D01*
X103091011Y-126067277D01*
X103149494Y-126079708D01*
X103158657Y-126080671D01*
X103158659Y-126080671D01*
X103935596Y-126156850D01*
X103935598Y-126156850D01*
X103967581Y-126160000D01*
X196032419Y-126160000D01*
X196062753Y-126157012D01*
X196087743Y-126157187D01*
X196096914Y-126156287D01*
X196873302Y-126074685D01*
X196931871Y-126062662D01*
X196990657Y-126051449D01*
X196999479Y-126048785D01*
X197745229Y-125817937D01*
X197800359Y-125794762D01*
X197855838Y-125772348D01*
X197863974Y-125768021D01*
X198550684Y-125396718D01*
X198600268Y-125363273D01*
X198650331Y-125330513D01*
X198657472Y-125324689D01*
X199258983Y-124827076D01*
X199301140Y-124784624D01*
X199343873Y-124742777D01*
X199349741Y-124735682D01*
X199349747Y-124735676D01*
X199349751Y-124735669D01*
X199843148Y-124130706D01*
X199876230Y-124080913D01*
X199910048Y-124031524D01*
X199914430Y-124023417D01*
X200280930Y-123334133D01*
X200303729Y-123278818D01*
X200327290Y-123223846D01*
X200330015Y-123215043D01*
X200555652Y-122467698D01*
X200567277Y-122408989D01*
X200579708Y-122350506D01*
X200580671Y-122341341D01*
X200656850Y-121564404D01*
X200656850Y-121564402D01*
X200660000Y-121532419D01*
X200660000Y-103967581D01*
X200657012Y-103937247D01*
X200657187Y-103912257D01*
X200656287Y-103903086D01*
X200574685Y-103126699D01*
X200562658Y-103068106D01*
X200551448Y-103009342D01*
X200548785Y-103000520D01*
X200317937Y-102254771D01*
X200294749Y-102199608D01*
X200272347Y-102144162D01*
X200268021Y-102136026D01*
X199896718Y-101449316D01*
X199863279Y-101399741D01*
X199830514Y-101349670D01*
X199824689Y-101342529D01*
X199327076Y-100741017D01*
X199284621Y-100698858D01*
X199242776Y-100656127D01*
X199235676Y-100650253D01*
X198630705Y-100156852D01*
X198580904Y-100123764D01*
X198531524Y-100089953D01*
X198523418Y-100085570D01*
X197834133Y-99719071D01*
X197778839Y-99696280D01*
X197723846Y-99672710D01*
X197715043Y-99669985D01*
X196967698Y-99444348D01*
X196908995Y-99432725D01*
X196850506Y-99420292D01*
X196841342Y-99419329D01*
X196064404Y-99343150D01*
X196064402Y-99343150D01*
X196032419Y-99340000D01*
X103967581Y-99340000D01*
X103937247Y-99342988D01*
X103912257Y-99342813D01*
X103903086Y-99343713D01*
X103126699Y-99425315D01*
X103068106Y-99437342D01*
X103009342Y-99448552D01*
X103000520Y-99451215D01*
X102254771Y-99682063D01*
X102199608Y-99705251D01*
X102144162Y-99727653D01*
X102136026Y-99731979D01*
X101449316Y-100103282D01*
X101399741Y-100136721D01*
X101349670Y-100169486D01*
X101342529Y-100175311D01*
X100741017Y-100672924D01*
X100698863Y-100715374D01*
X100656127Y-100757224D01*
X100650253Y-100764324D01*
X100156852Y-101369295D01*
X100123764Y-101419096D01*
X100089953Y-101468476D01*
X100085570Y-101476582D01*
X99719071Y-102165867D01*
X99696280Y-102221161D01*
X99672710Y-102276154D01*
X99669985Y-102284957D01*
X99444348Y-103032302D01*
X99432725Y-103091005D01*
X99420292Y-103149494D01*
X99419329Y-103158658D01*
X99343150Y-103935596D01*
X99340000Y-103967582D01*
X98306096Y-103967582D01*
X98525065Y-85373505D01*
X199369227Y-88619997D01*
G36*
X196648126Y-100726714D02*
X197271572Y-100914943D01*
X197846579Y-101220681D01*
X198351247Y-101632279D01*
X198766362Y-102134067D01*
X199076105Y-102706924D01*
X199268682Y-103329039D01*
X199340001Y-104007594D01*
X199340000Y-121467721D01*
X199273286Y-122148126D01*
X199085057Y-122771570D01*
X198779323Y-123346573D01*
X198367721Y-123851248D01*
X197865933Y-124266362D01*
X197293077Y-124576104D01*
X196670961Y-124768682D01*
X195992417Y-124840000D01*
X104032279Y-124840000D01*
X103351874Y-124773286D01*
X102728430Y-124585057D01*
X102153427Y-124279323D01*
X101648752Y-123867721D01*
X101233638Y-123365933D01*
X100923896Y-122793077D01*
X100731318Y-122170961D01*
X100716182Y-122026947D01*
X101570188Y-122026947D01*
X101612175Y-122401270D01*
X101726069Y-122760308D01*
X101907531Y-123090386D01*
X102149650Y-123378932D01*
X102443203Y-123614955D01*
X102777009Y-123789465D01*
X103138354Y-123895814D01*
X103513474Y-123929953D01*
X103888080Y-123890580D01*
X104247905Y-123779196D01*
X104579242Y-123600043D01*
X104869472Y-123359944D01*
X105107538Y-123068046D01*
X105284374Y-122735466D01*
X105393243Y-122374872D01*
X105430000Y-122000000D01*
X105429248Y-121946111D01*
X105382038Y-121572411D01*
X105263143Y-121214998D01*
X105077090Y-120887486D01*
X104830966Y-120602348D01*
X104534146Y-120370447D01*
X104197935Y-120200615D01*
X103835141Y-120099321D01*
X103459581Y-120070423D01*
X103085561Y-120115023D01*
X102727326Y-120231420D01*
X102398523Y-120415182D01*
X102111674Y-120659309D01*
X101877706Y-120954503D01*
X101705531Y-121289520D01*
X101601707Y-121651598D01*
X101570188Y-122026947D01*
X100716182Y-122026947D01*
X100660000Y-121492417D01*
X100660000Y-109736631D01*
X116737396Y-109736631D01*
X116747427Y-110781589D01*
X116933379Y-111809918D01*
X117289935Y-112792214D01*
X117806900Y-113700391D01*
X118469492Y-114508480D01*
X119258767Y-115193377D01*
X120152155Y-115735499D01*
X121124112Y-116119343D01*
X122146847Y-116333935D01*
X123191118Y-116373139D01*
X124227064Y-116235835D01*
X125225066Y-115925947D01*
X126156587Y-115452337D01*
X126994992Y-114828546D01*
X127716309Y-114072412D01*
X128299912Y-113205553D01*
X128729116Y-112252756D01*
X128991647Y-111241264D01*
X129080000Y-110200000D01*
X129078861Y-110081360D01*
X128970535Y-109041983D01*
X128688634Y-108035718D01*
X128241218Y-107091337D01*
X127641081Y-106235841D01*
X126905381Y-105493693D01*
X126055155Y-104886113D01*
X125774218Y-104750000D01*
X136311686Y-104750000D01*
X136315000Y-104783647D01*
X136315001Y-122316343D01*
X136311686Y-122350000D01*
X136324912Y-122484283D01*
X136364081Y-122613406D01*
X136427688Y-122732407D01*
X136513289Y-122836711D01*
X136617593Y-122922312D01*
X136736594Y-122985919D01*
X136865717Y-123025088D01*
X136966353Y-123035000D01*
X137000000Y-123038314D01*
X137033647Y-123035000D01*
X162966353Y-123035000D01*
X163000000Y-123038314D01*
X163134283Y-123025088D01*
X163263406Y-122985919D01*
X163382407Y-122922312D01*
X163486711Y-122836711D01*
X163572312Y-122732407D01*
X163635919Y-122613406D01*
X163675088Y-122484283D01*
X163685000Y-122383647D01*
X163688314Y-122350000D01*
X163685000Y-122316353D01*
X163685000Y-122026947D01*
X194570188Y-122026947D01*
X194612175Y-122401270D01*
X194726069Y-122760308D01*
X194907531Y-123090386D01*
X195149650Y-123378932D01*
X195443203Y-123614955D01*
X195777009Y-123789465D01*
X196138354Y-123895814D01*
X196513474Y-123929953D01*
X196888080Y-123890580D01*
X197247905Y-123779196D01*
X197579242Y-123600043D01*
X197869472Y-123359944D01*
X198107538Y-123068046D01*
X198284374Y-122735466D01*
X198393243Y-122374872D01*
X198430000Y-122000000D01*
X198429248Y-121946111D01*
X198382038Y-121572411D01*
X198263143Y-121214998D01*
X198077090Y-120887486D01*
X197830966Y-120602348D01*
X197534146Y-120370447D01*
X197197935Y-120200615D01*
X196835141Y-120099321D01*
X196459581Y-120070423D01*
X196085561Y-120115023D01*
X195727326Y-120231420D01*
X195398523Y-120415182D01*
X195111674Y-120659309D01*
X194877706Y-120954503D01*
X194705531Y-121289520D01*
X194601707Y-121651598D01*
X194570188Y-122026947D01*
X163685000Y-122026947D01*
X163685000Y-111965343D01*
X175320456Y-111965343D01*
X175422269Y-112873027D01*
X175698447Y-113743648D01*
X176138469Y-114544046D01*
X176725576Y-115243732D01*
X177437404Y-115816057D01*
X178246841Y-116239220D01*
X179123055Y-116497104D01*
X180032672Y-116579886D01*
X180941045Y-116484412D01*
X181813573Y-116214320D01*
X182617023Y-115779896D01*
X183320791Y-115197688D01*
X183898071Y-114489872D01*
X184326875Y-113683409D01*
X184590870Y-112809017D01*
X184680000Y-111900000D01*
X184678175Y-111769327D01*
X184563699Y-110863153D01*
X184275393Y-109996473D01*
X183824238Y-109202297D01*
X183227419Y-108510876D01*
X182507669Y-107948545D01*
X181692403Y-107536725D01*
X180812673Y-107291100D01*
X179901989Y-107221026D01*
X178995039Y-107329174D01*
X178126367Y-107611422D01*
X177329061Y-108057022D01*
X176633490Y-108648999D01*
X176066148Y-109364806D01*
X175648646Y-110177177D01*
X175396886Y-111055170D01*
X175320456Y-111965343D01*
X163685000Y-111965343D01*
X163685000Y-104783647D01*
X163688314Y-104750000D01*
X163675088Y-104615717D01*
X163635919Y-104486594D01*
X163572312Y-104367593D01*
X163486711Y-104263289D01*
X163382407Y-104177688D01*
X163263406Y-104114081D01*
X163134283Y-104074912D01*
X163033647Y-104065000D01*
X163000000Y-104061686D01*
X162966353Y-104065000D01*
X137033647Y-104065000D01*
X137000000Y-104061686D01*
X136966353Y-104065000D01*
X136865717Y-104074912D01*
X136736594Y-104114081D01*
X136617593Y-104177688D01*
X136513289Y-104263289D01*
X136427688Y-104367593D01*
X136364081Y-104486594D01*
X136324912Y-104615717D01*
X136311686Y-104750000D01*
X125774218Y-104750000D01*
X125114714Y-104430473D01*
X124110947Y-104139801D01*
X123072556Y-104022409D01*
X122029230Y-104081654D01*
X121010803Y-104315840D01*
X120046394Y-104718273D01*
X119163577Y-105277445D01*
X118387597Y-105977368D01*
X117740640Y-106798029D01*
X117241205Y-107715963D01*
X116903572Y-108704923D01*
X116737396Y-109736631D01*
X100660000Y-109736631D01*
X100660000Y-104032278D01*
X100709547Y-103526947D01*
X101570188Y-103526947D01*
X101612175Y-103901270D01*
X101726069Y-104260308D01*
X101907531Y-104590386D01*
X102149650Y-104878932D01*
X102443203Y-105114955D01*
X102777009Y-105289465D01*
X103138354Y-105395814D01*
X103513474Y-105429953D01*
X103888080Y-105390580D01*
X104247905Y-105279196D01*
X104579242Y-105100043D01*
X104869472Y-104859944D01*
X105107538Y-104568046D01*
X105284374Y-104235466D01*
X105393243Y-103874872D01*
X105427357Y-103526947D01*
X194570188Y-103526947D01*
X194612175Y-103901270D01*
X194726069Y-104260308D01*
X194907531Y-104590386D01*
X195149650Y-104878932D01*
X195443203Y-105114955D01*
X195777009Y-105289465D01*
X196138354Y-105395814D01*
X196513474Y-105429953D01*
X196888080Y-105390580D01*
X197247905Y-105279196D01*
X197579242Y-105100043D01*
X197869472Y-104859944D01*
X198107538Y-104568046D01*
X198284374Y-104235466D01*
X198393243Y-103874872D01*
X198430000Y-103500000D01*
X198429248Y-103446111D01*
X198382038Y-103072411D01*
X198263143Y-102714998D01*
X198077090Y-102387486D01*
X197830966Y-102102348D01*
X197534146Y-101870447D01*
X197197935Y-101700615D01*
X196835141Y-101599321D01*
X196459581Y-101570423D01*
X196085561Y-101615023D01*
X195727326Y-101731420D01*
X195398523Y-101915182D01*
X195111674Y-102159309D01*
X194877706Y-102454503D01*
X194705531Y-102789520D01*
X194601707Y-103151598D01*
X194570188Y-103526947D01*
X105427357Y-103526947D01*
X105430000Y-103500000D01*
X105429248Y-103446111D01*
X105382038Y-103072411D01*
X105263143Y-102714998D01*
X105077090Y-102387486D01*
X104830966Y-102102348D01*
X104534146Y-101870447D01*
X104197935Y-101700615D01*
X103835141Y-101599321D01*
X103459581Y-101570423D01*
X103085561Y-101615023D01*
X102727326Y-101731420D01*
X102398523Y-101915182D01*
X102111674Y-102159309D01*
X101877706Y-102454503D01*
X101705531Y-102789520D01*
X101601707Y-103151598D01*
X101570188Y-103526947D01*
X100709547Y-103526947D01*
X100726714Y-103351874D01*
X100914943Y-102728428D01*
X101220681Y-102153421D01*
X101632279Y-101648753D01*
X102134067Y-101233638D01*
X102706924Y-100923895D01*
X103329039Y-100731318D01*
X104007584Y-100660000D01*
X195967722Y-100660000D01*
X196648126Y-100726714D01*
X196648126Y-100726714D01*
G37*
X196648126Y-100726714D02*
X197271572Y-100914943D01*
X197846579Y-101220681D01*
X198351247Y-101632279D01*
X198766362Y-102134067D01*
X199076105Y-102706924D01*
X199268682Y-103329039D01*
X199340001Y-104007594D01*
X199340000Y-121467721D01*
X199273286Y-122148126D01*
X199085057Y-122771570D01*
X198779323Y-123346573D01*
X198367721Y-123851248D01*
X197865933Y-124266362D01*
X197293077Y-124576104D01*
X196670961Y-124768682D01*
X195992417Y-124840000D01*
X104032279Y-124840000D01*
X103351874Y-124773286D01*
X102728430Y-124585057D01*
X102153427Y-124279323D01*
X101648752Y-123867721D01*
X101233638Y-123365933D01*
X100923896Y-122793077D01*
X100731318Y-122170961D01*
X100716182Y-122026947D01*
X101570188Y-122026947D01*
X101612175Y-122401270D01*
X101726069Y-122760308D01*
X101907531Y-123090386D01*
X102149650Y-123378932D01*
X102443203Y-123614955D01*
X102777009Y-123789465D01*
X103138354Y-123895814D01*
X103513474Y-123929953D01*
X103888080Y-123890580D01*
X104247905Y-123779196D01*
X104579242Y-123600043D01*
X104869472Y-123359944D01*
X105107538Y-123068046D01*
X105284374Y-122735466D01*
X105393243Y-122374872D01*
X105430000Y-122000000D01*
X105429248Y-121946111D01*
X105382038Y-121572411D01*
X105263143Y-121214998D01*
X105077090Y-120887486D01*
X104830966Y-120602348D01*
X104534146Y-120370447D01*
X104197935Y-120200615D01*
X103835141Y-120099321D01*
X103459581Y-120070423D01*
X103085561Y-120115023D01*
X102727326Y-120231420D01*
X102398523Y-120415182D01*
X102111674Y-120659309D01*
X101877706Y-120954503D01*
X101705531Y-121289520D01*
X101601707Y-121651598D01*
X101570188Y-122026947D01*
X100716182Y-122026947D01*
X100660000Y-121492417D01*
X100660000Y-109736631D01*
X116737396Y-109736631D01*
X116747427Y-110781589D01*
X116933379Y-111809918D01*
X117289935Y-112792214D01*
X117806900Y-113700391D01*
X118469492Y-114508480D01*
X119258767Y-115193377D01*
X120152155Y-115735499D01*
X121124112Y-116119343D01*
X122146847Y-116333935D01*
X123191118Y-116373139D01*
X124227064Y-116235835D01*
X125225066Y-115925947D01*
X126156587Y-115452337D01*
X126994992Y-114828546D01*
X127716309Y-114072412D01*
X128299912Y-113205553D01*
X128729116Y-112252756D01*
X128991647Y-111241264D01*
X129080000Y-110200000D01*
X129078861Y-110081360D01*
X128970535Y-109041983D01*
X128688634Y-108035718D01*
X128241218Y-107091337D01*
X127641081Y-106235841D01*
X126905381Y-105493693D01*
X126055155Y-104886113D01*
X125774218Y-104750000D01*
X136311686Y-104750000D01*
X136315000Y-104783647D01*
X136315001Y-122316343D01*
X136311686Y-122350000D01*
X136324912Y-122484283D01*
X136364081Y-122613406D01*
X136427688Y-122732407D01*
X136513289Y-122836711D01*
X136617593Y-122922312D01*
X136736594Y-122985919D01*
X136865717Y-123025088D01*
X136966353Y-123035000D01*
X137000000Y-123038314D01*
X137033647Y-123035000D01*
X162966353Y-123035000D01*
X163000000Y-123038314D01*
X163134283Y-123025088D01*
X163263406Y-122985919D01*
X163382407Y-122922312D01*
X163486711Y-122836711D01*
X163572312Y-122732407D01*
X163635919Y-122613406D01*
X163675088Y-122484283D01*
X163685000Y-122383647D01*
X163688314Y-122350000D01*
X163685000Y-122316353D01*
X163685000Y-122026947D01*
X194570188Y-122026947D01*
X194612175Y-122401270D01*
X194726069Y-122760308D01*
X194907531Y-123090386D01*
X195149650Y-123378932D01*
X195443203Y-123614955D01*
X195777009Y-123789465D01*
X196138354Y-123895814D01*
X196513474Y-123929953D01*
X196888080Y-123890580D01*
X197247905Y-123779196D01*
X197579242Y-123600043D01*
X197869472Y-123359944D01*
X198107538Y-123068046D01*
X198284374Y-122735466D01*
X198393243Y-122374872D01*
X198430000Y-122000000D01*
X198429248Y-121946111D01*
X198382038Y-121572411D01*
X198263143Y-121214998D01*
X198077090Y-120887486D01*
X197830966Y-120602348D01*
X197534146Y-120370447D01*
X197197935Y-120200615D01*
X196835141Y-120099321D01*
X196459581Y-120070423D01*
X196085561Y-120115023D01*
X195727326Y-120231420D01*
X195398523Y-120415182D01*
X195111674Y-120659309D01*
X194877706Y-120954503D01*
X194705531Y-121289520D01*
X194601707Y-121651598D01*
X194570188Y-122026947D01*
X163685000Y-122026947D01*
X163685000Y-111965343D01*
X175320456Y-111965343D01*
X175422269Y-112873027D01*
X175698447Y-113743648D01*
X176138469Y-114544046D01*
X176725576Y-115243732D01*
X177437404Y-115816057D01*
X178246841Y-116239220D01*
X179123055Y-116497104D01*
X180032672Y-116579886D01*
X180941045Y-116484412D01*
X181813573Y-116214320D01*
X182617023Y-115779896D01*
X183320791Y-115197688D01*
X183898071Y-114489872D01*
X184326875Y-113683409D01*
X184590870Y-112809017D01*
X184680000Y-111900000D01*
X184678175Y-111769327D01*
X184563699Y-110863153D01*
X184275393Y-109996473D01*
X183824238Y-109202297D01*
X183227419Y-108510876D01*
X182507669Y-107948545D01*
X181692403Y-107536725D01*
X180812673Y-107291100D01*
X179901989Y-107221026D01*
X178995039Y-107329174D01*
X178126367Y-107611422D01*
X177329061Y-108057022D01*
X176633490Y-108648999D01*
X176066148Y-109364806D01*
X175648646Y-110177177D01*
X175396886Y-111055170D01*
X175320456Y-111965343D01*
X163685000Y-111965343D01*
X163685000Y-104783647D01*
X163688314Y-104750000D01*
X163675088Y-104615717D01*
X163635919Y-104486594D01*
X163572312Y-104367593D01*
X163486711Y-104263289D01*
X163382407Y-104177688D01*
X163263406Y-104114081D01*
X163134283Y-104074912D01*
X163033647Y-104065000D01*
X163000000Y-104061686D01*
X162966353Y-104065000D01*
X137033647Y-104065000D01*
X137000000Y-104061686D01*
X136966353Y-104065000D01*
X136865717Y-104074912D01*
X136736594Y-104114081D01*
X136617593Y-104177688D01*
X136513289Y-104263289D01*
X136427688Y-104367593D01*
X136364081Y-104486594D01*
X136324912Y-104615717D01*
X136311686Y-104750000D01*
X125774218Y-104750000D01*
X125114714Y-104430473D01*
X124110947Y-104139801D01*
X123072556Y-104022409D01*
X122029230Y-104081654D01*
X121010803Y-104315840D01*
X120046394Y-104718273D01*
X119163577Y-105277445D01*
X118387597Y-105977368D01*
X117740640Y-106798029D01*
X117241205Y-107715963D01*
X116903572Y-108704923D01*
X116737396Y-109736631D01*
X100660000Y-109736631D01*
X100660000Y-104032278D01*
X100709547Y-103526947D01*
X101570188Y-103526947D01*
X101612175Y-103901270D01*
X101726069Y-104260308D01*
X101907531Y-104590386D01*
X102149650Y-104878932D01*
X102443203Y-105114955D01*
X102777009Y-105289465D01*
X103138354Y-105395814D01*
X103513474Y-105429953D01*
X103888080Y-105390580D01*
X104247905Y-105279196D01*
X104579242Y-105100043D01*
X104869472Y-104859944D01*
X105107538Y-104568046D01*
X105284374Y-104235466D01*
X105393243Y-103874872D01*
X105427357Y-103526947D01*
X194570188Y-103526947D01*
X194612175Y-103901270D01*
X194726069Y-104260308D01*
X194907531Y-104590386D01*
X195149650Y-104878932D01*
X195443203Y-105114955D01*
X195777009Y-105289465D01*
X196138354Y-105395814D01*
X196513474Y-105429953D01*
X196888080Y-105390580D01*
X197247905Y-105279196D01*
X197579242Y-105100043D01*
X197869472Y-104859944D01*
X198107538Y-104568046D01*
X198284374Y-104235466D01*
X198393243Y-103874872D01*
X198430000Y-103500000D01*
X198429248Y-103446111D01*
X198382038Y-103072411D01*
X198263143Y-102714998D01*
X198077090Y-102387486D01*
X197830966Y-102102348D01*
X197534146Y-101870447D01*
X197197935Y-101700615D01*
X196835141Y-101599321D01*
X196459581Y-101570423D01*
X196085561Y-101615023D01*
X195727326Y-101731420D01*
X195398523Y-101915182D01*
X195111674Y-102159309D01*
X194877706Y-102454503D01*
X194705531Y-102789520D01*
X194601707Y-103151598D01*
X194570188Y-103526947D01*
X105427357Y-103526947D01*
X105430000Y-103500000D01*
X105429248Y-103446111D01*
X105382038Y-103072411D01*
X105263143Y-102714998D01*
X105077090Y-102387486D01*
X104830966Y-102102348D01*
X104534146Y-101870447D01*
X104197935Y-101700615D01*
X103835141Y-101599321D01*
X103459581Y-101570423D01*
X103085561Y-101615023D01*
X102727326Y-101731420D01*
X102398523Y-101915182D01*
X102111674Y-102159309D01*
X101877706Y-102454503D01*
X101705531Y-102789520D01*
X101601707Y-103151598D01*
X101570188Y-103526947D01*
X100709547Y-103526947D01*
X100726714Y-103351874D01*
X100914943Y-102728428D01*
X101220681Y-102153421D01*
X101632279Y-101648753D01*
X102134067Y-101233638D01*
X102706924Y-100923895D01*
X103329039Y-100731318D01*
X104007584Y-100660000D01*
X195967722Y-100660000D01*
X196648126Y-100726714D01*
G36*
X196618636Y-121422051D02*
X196728634Y-121456101D01*
X196829924Y-121510868D01*
X196918647Y-121584266D01*
X196991424Y-121673499D01*
X197045482Y-121775168D01*
X197078764Y-121885402D01*
X197090000Y-122000000D01*
X197089770Y-122016474D01*
X197075338Y-122130714D01*
X197038992Y-122239975D01*
X196982115Y-122340095D01*
X196906876Y-122427261D01*
X196816138Y-122498153D01*
X196713358Y-122550071D01*
X196602452Y-122581037D01*
X196487644Y-122589871D01*
X196373306Y-122576237D01*
X196263794Y-122540654D01*
X196163279Y-122484478D01*
X196075590Y-122409848D01*
X196004066Y-122319608D01*
X195951432Y-122217193D01*
X195919693Y-122106506D01*
X195910058Y-121991762D01*
X195922893Y-121877332D01*
X195957710Y-121767574D01*
X196013183Y-121666669D01*
X196087199Y-121578461D01*
X196176938Y-121506309D01*
X196278982Y-121452962D01*
X196389445Y-121420451D01*
X196504119Y-121410014D01*
X196618636Y-121422051D01*
X196618636Y-121422051D01*
G37*
X196618636Y-121422051D02*
X196728634Y-121456101D01*
X196829924Y-121510868D01*
X196918647Y-121584266D01*
X196991424Y-121673499D01*
X197045482Y-121775168D01*
X197078764Y-121885402D01*
X197090000Y-122000000D01*
X197089770Y-122016474D01*
X197075338Y-122130714D01*
X197038992Y-122239975D01*
X196982115Y-122340095D01*
X196906876Y-122427261D01*
X196816138Y-122498153D01*
X196713358Y-122550071D01*
X196602452Y-122581037D01*
X196487644Y-122589871D01*
X196373306Y-122576237D01*
X196263794Y-122540654D01*
X196163279Y-122484478D01*
X196075590Y-122409848D01*
X196004066Y-122319608D01*
X195951432Y-122217193D01*
X195919693Y-122106506D01*
X195910058Y-121991762D01*
X195922893Y-121877332D01*
X195957710Y-121767574D01*
X196013183Y-121666669D01*
X196087199Y-121578461D01*
X196176938Y-121506309D01*
X196278982Y-121452962D01*
X196389445Y-121420451D01*
X196504119Y-121410014D01*
X196618636Y-121422051D01*
G36*
X103618636Y-121422051D02*
X103728634Y-121456101D01*
X103829924Y-121510868D01*
X103918647Y-121584266D01*
X103991424Y-121673499D01*
X104045482Y-121775168D01*
X104078764Y-121885402D01*
X104090000Y-122000000D01*
X104089770Y-122016474D01*
X104075338Y-122130714D01*
X104038992Y-122239975D01*
X103982115Y-122340095D01*
X103906876Y-122427261D01*
X103816138Y-122498153D01*
X103713358Y-122550071D01*
X103602452Y-122581037D01*
X103487644Y-122589871D01*
X103373306Y-122576237D01*
X103263794Y-122540654D01*
X103163279Y-122484478D01*
X103075590Y-122409848D01*
X103004066Y-122319608D01*
X102951432Y-122217193D01*
X102919693Y-122106506D01*
X102910058Y-121991762D01*
X102922893Y-121877332D01*
X102957710Y-121767574D01*
X103013183Y-121666669D01*
X103087199Y-121578461D01*
X103176938Y-121506309D01*
X103278982Y-121452962D01*
X103389445Y-121420451D01*
X103504119Y-121410014D01*
X103618636Y-121422051D01*
X103618636Y-121422051D01*
G37*
X103618636Y-121422051D02*
X103728634Y-121456101D01*
X103829924Y-121510868D01*
X103918647Y-121584266D01*
X103991424Y-121673499D01*
X104045482Y-121775168D01*
X104078764Y-121885402D01*
X104090000Y-122000000D01*
X104089770Y-122016474D01*
X104075338Y-122130714D01*
X104038992Y-122239975D01*
X103982115Y-122340095D01*
X103906876Y-122427261D01*
X103816138Y-122498153D01*
X103713358Y-122550071D01*
X103602452Y-122581037D01*
X103487644Y-122589871D01*
X103373306Y-122576237D01*
X103263794Y-122540654D01*
X103163279Y-122484478D01*
X103075590Y-122409848D01*
X103004066Y-122319608D01*
X102951432Y-122217193D01*
X102919693Y-122106506D01*
X102910058Y-121991762D01*
X102922893Y-121877332D01*
X102957710Y-121767574D01*
X103013183Y-121666669D01*
X103087199Y-121578461D01*
X103176938Y-121506309D01*
X103278982Y-121452962D01*
X103389445Y-121420451D01*
X103504119Y-121410014D01*
X103618636Y-121422051D01*
G36*
X162315001Y-121665000D02*
X137685000Y-121665000D01*
X137685000Y-105435000D01*
X162315000Y-105435000D01*
X162315001Y-121665000D01*
X162315001Y-121665000D01*
G37*
X162315001Y-121665000D02*
X137685000Y-121665000D01*
X137685000Y-105435000D01*
X162315000Y-105435000D01*
X162315001Y-121665000D01*
G36*
X180671600Y-108628219D02*
X181294302Y-108820977D01*
X181867704Y-109131015D01*
X182369966Y-109546522D01*
X182781957Y-110051672D01*
X183087984Y-110627225D01*
X183276390Y-111251257D01*
X183340000Y-111900000D01*
X183338698Y-111993258D01*
X183256999Y-112639972D01*
X183051242Y-113258500D01*
X182729264Y-113825284D01*
X182303329Y-114318734D01*
X181789661Y-114720055D01*
X181207826Y-115013961D01*
X180579985Y-115189258D01*
X179930052Y-115239267D01*
X179282784Y-115162085D01*
X178662834Y-114960652D01*
X178093817Y-114642638D01*
X177597405Y-114220159D01*
X177192508Y-113709305D01*
X176894547Y-113129536D01*
X176714871Y-112502934D01*
X176660326Y-111853366D01*
X176732987Y-111205575D01*
X176930088Y-110584234D01*
X177244121Y-110013010D01*
X177663124Y-109513661D01*
X178171139Y-109105207D01*
X178748814Y-108803206D01*
X179374146Y-108619161D01*
X180023317Y-108560081D01*
X180671600Y-108628219D01*
X180671600Y-108628219D01*
G37*
X180671600Y-108628219D02*
X181294302Y-108820977D01*
X181867704Y-109131015D01*
X182369966Y-109546522D01*
X182781957Y-110051672D01*
X183087984Y-110627225D01*
X183276390Y-111251257D01*
X183340000Y-111900000D01*
X183338698Y-111993258D01*
X183256999Y-112639972D01*
X183051242Y-113258500D01*
X182729264Y-113825284D01*
X182303329Y-114318734D01*
X181789661Y-114720055D01*
X181207826Y-115013961D01*
X180579985Y-115189258D01*
X179930052Y-115239267D01*
X179282784Y-115162085D01*
X178662834Y-114960652D01*
X178093817Y-114642638D01*
X177597405Y-114220159D01*
X177192508Y-113709305D01*
X176894547Y-113129536D01*
X176714871Y-112502934D01*
X176660326Y-111853366D01*
X176732987Y-111205575D01*
X176930088Y-110584234D01*
X177244121Y-110013010D01*
X177663124Y-109513661D01*
X178171139Y-109105207D01*
X178748814Y-108803206D01*
X179374146Y-108619161D01*
X180023317Y-108560081D01*
X180671600Y-108628219D01*
G36*
X123939319Y-105472906D02*
X124720925Y-105715601D01*
X125450466Y-106086519D01*
X126107081Y-106575054D01*
X126671996Y-107167238D01*
X127129058Y-107846137D01*
X127465198Y-108592340D01*
X127670805Y-109384511D01*
X127740000Y-110200000D01*
X127739108Y-110292916D01*
X127654270Y-111106926D01*
X127433493Y-111895004D01*
X127083090Y-112634617D01*
X126613079Y-113304616D01*
X126036900Y-113885845D01*
X125371028Y-114361685D01*
X124634501Y-114718529D01*
X123848379Y-114946175D01*
X123035141Y-115038113D01*
X122218038Y-114991715D01*
X121420435Y-114808306D01*
X120665137Y-114493132D01*
X119973740Y-114055205D01*
X119366015Y-113507045D01*
X118859336Y-112864327D01*
X118468193Y-112145427D01*
X118203769Y-111370902D01*
X118073624Y-110562897D01*
X118081480Y-109744516D01*
X118227112Y-108939158D01*
X118506357Y-108169852D01*
X118911229Y-107458594D01*
X119430153Y-106825721D01*
X120048290Y-106289329D01*
X120747966Y-105864755D01*
X121509175Y-105564139D01*
X122310152Y-105396077D01*
X123127995Y-105365373D01*
X123939319Y-105472906D01*
X123939319Y-105472906D01*
G37*
X123939319Y-105472906D02*
X124720925Y-105715601D01*
X125450466Y-106086519D01*
X126107081Y-106575054D01*
X126671996Y-107167238D01*
X127129058Y-107846137D01*
X127465198Y-108592340D01*
X127670805Y-109384511D01*
X127740000Y-110200000D01*
X127739108Y-110292916D01*
X127654270Y-111106926D01*
X127433493Y-111895004D01*
X127083090Y-112634617D01*
X126613079Y-113304616D01*
X126036900Y-113885845D01*
X125371028Y-114361685D01*
X124634501Y-114718529D01*
X123848379Y-114946175D01*
X123035141Y-115038113D01*
X122218038Y-114991715D01*
X121420435Y-114808306D01*
X120665137Y-114493132D01*
X119973740Y-114055205D01*
X119366015Y-113507045D01*
X118859336Y-112864327D01*
X118468193Y-112145427D01*
X118203769Y-111370902D01*
X118073624Y-110562897D01*
X118081480Y-109744516D01*
X118227112Y-108939158D01*
X118506357Y-108169852D01*
X118911229Y-107458594D01*
X119430153Y-106825721D01*
X120048290Y-106289329D01*
X120747966Y-105864755D01*
X121509175Y-105564139D01*
X122310152Y-105396077D01*
X123127995Y-105365373D01*
X123939319Y-105472906D01*
G36*
X196618636Y-102922051D02*
X196728634Y-102956101D01*
X196829924Y-103010868D01*
X196918647Y-103084266D01*
X196991424Y-103173499D01*
X197045482Y-103275168D01*
X197078764Y-103385402D01*
X197090000Y-103500000D01*
X197089770Y-103516474D01*
X197075338Y-103630714D01*
X197038992Y-103739975D01*
X196982115Y-103840095D01*
X196906876Y-103927261D01*
X196816138Y-103998153D01*
X196713358Y-104050071D01*
X196602452Y-104081037D01*
X196487644Y-104089871D01*
X196373306Y-104076237D01*
X196263794Y-104040654D01*
X196163279Y-103984478D01*
X196075590Y-103909848D01*
X196004066Y-103819608D01*
X195951432Y-103717193D01*
X195919693Y-103606506D01*
X195910058Y-103491762D01*
X195922893Y-103377332D01*
X195957710Y-103267574D01*
X196013183Y-103166669D01*
X196087199Y-103078461D01*
X196176938Y-103006309D01*
X196278982Y-102952962D01*
X196389445Y-102920451D01*
X196504119Y-102910014D01*
X196618636Y-102922051D01*
X196618636Y-102922051D01*
G37*
X196618636Y-102922051D02*
X196728634Y-102956101D01*
X196829924Y-103010868D01*
X196918647Y-103084266D01*
X196991424Y-103173499D01*
X197045482Y-103275168D01*
X197078764Y-103385402D01*
X197090000Y-103500000D01*
X197089770Y-103516474D01*
X197075338Y-103630714D01*
X197038992Y-103739975D01*
X196982115Y-103840095D01*
X196906876Y-103927261D01*
X196816138Y-103998153D01*
X196713358Y-104050071D01*
X196602452Y-104081037D01*
X196487644Y-104089871D01*
X196373306Y-104076237D01*
X196263794Y-104040654D01*
X196163279Y-103984478D01*
X196075590Y-103909848D01*
X196004066Y-103819608D01*
X195951432Y-103717193D01*
X195919693Y-103606506D01*
X195910058Y-103491762D01*
X195922893Y-103377332D01*
X195957710Y-103267574D01*
X196013183Y-103166669D01*
X196087199Y-103078461D01*
X196176938Y-103006309D01*
X196278982Y-102952962D01*
X196389445Y-102920451D01*
X196504119Y-102910014D01*
X196618636Y-102922051D01*
G36*
X103618636Y-102922051D02*
X103728634Y-102956101D01*
X103829924Y-103010868D01*
X103918647Y-103084266D01*
X103991424Y-103173499D01*
X104045482Y-103275168D01*
X104078764Y-103385402D01*
X104090000Y-103500000D01*
X104089770Y-103516474D01*
X104075338Y-103630714D01*
X104038992Y-103739975D01*
X103982115Y-103840095D01*
X103906876Y-103927261D01*
X103816138Y-103998153D01*
X103713358Y-104050071D01*
X103602452Y-104081037D01*
X103487644Y-104089871D01*
X103373306Y-104076237D01*
X103263794Y-104040654D01*
X103163279Y-103984478D01*
X103075590Y-103909848D01*
X103004066Y-103819608D01*
X102951432Y-103717193D01*
X102919693Y-103606506D01*
X102910058Y-103491762D01*
X102922893Y-103377332D01*
X102957710Y-103267574D01*
X103013183Y-103166669D01*
X103087199Y-103078461D01*
X103176938Y-103006309D01*
X103278982Y-102952962D01*
X103389445Y-102920451D01*
X103504119Y-102910014D01*
X103618636Y-102922051D01*
X103618636Y-102922051D01*
G37*
X103618636Y-102922051D02*
X103728634Y-102956101D01*
X103829924Y-103010868D01*
X103918647Y-103084266D01*
X103991424Y-103173499D01*
X104045482Y-103275168D01*
X104078764Y-103385402D01*
X104090000Y-103500000D01*
X104089770Y-103516474D01*
X104075338Y-103630714D01*
X104038992Y-103739975D01*
X103982115Y-103840095D01*
X103906876Y-103927261D01*
X103816138Y-103998153D01*
X103713358Y-104050071D01*
X103602452Y-104081037D01*
X103487644Y-104089871D01*
X103373306Y-104076237D01*
X103263794Y-104040654D01*
X103163279Y-103984478D01*
X103075590Y-103909848D01*
X103004066Y-103819608D01*
X102951432Y-103717193D01*
X102919693Y-103606506D01*
X102910058Y-103491762D01*
X102922893Y-103377332D01*
X102957710Y-103267574D01*
X103013183Y-103166669D01*
X103087199Y-103078461D01*
X103176938Y-103006309D01*
X103278982Y-102952962D01*
X103389445Y-102920451D01*
X103504119Y-102910014D01*
X103618636Y-102922051D01*
M02*
