M48
; DRILL file {KiCad 5.1.9} date Thu Jul  8 11:39:54 2021
; FORMAT={-:-/ absolute / metric / decimal}
; #@! TF.CreationDate,2021-07-08T11:39:54+08:00
; #@! TF.GenerationSoftware,Kicad,Pcbnew,5.1.9
; #@! TF.FileFunction,Plated,1,2,PTH
FMAT,2
METRIC
T1C0.300
T2C0.600
T3C0.800
T4C1.000
T5C1.200
T6C1.400
T7C1.500
T8C2.000
T9C3.200
%
G90
G05
T1
X106.446Y-129.896
X106.596Y-145.839
X106.807Y-202.057
X107.099Y-142.405
X108.097Y-129.779
X108.649Y-143.637
X109.672Y-133.396
X109.672Y-134.696
X109.672Y-135.996
X110.81Y-175.717
X110.973Y-148.526
X111.023Y-190.271
X111.452Y-133.396
X111.452Y-134.696
X111.452Y-135.996
X111.816Y-142.438
X112.71Y-175.986
X112.941Y-169.634
X113.147Y-140.218
X113.232Y-133.396
X113.232Y-134.696
X113.232Y-135.996
X114.427Y-140.335
X114.491Y-169.53
X114.935Y-139.7
X115.012Y-133.396
X115.012Y-134.696
X115.012Y-135.996
X115.782Y-143.256
X116.137Y-154.028
X116.792Y-133.396
X116.792Y-134.696
X116.792Y-135.996
X116.967Y-144.018
X117.047Y-138.622
X117.13Y-151.039
X117.496Y-169.523
X118.572Y-133.396
X118.572Y-134.696
X118.572Y-135.996
X118.582Y-183.469
X119.129Y-169.53
X119.507Y-144.272
X119.566Y-165.866
X119.761Y-142.367
X120.594Y-129.576
X120.601Y-125.337
X120.993Y-152.387
X121.407Y-154.224
X121.742Y-150.317
X122.22Y-129.525
X122.453Y-169.53
X122.519Y-189.647
X122.567Y-125.337
X123.157Y-175.979
X124.003Y-169.621
X124.252Y-133.345
X124.252Y-134.645
X124.252Y-135.945
X124.828Y-153.81
X124.968Y-144.272
X125.103Y-175.796
X125.235Y-159.55
X126.032Y-133.345
X126.032Y-134.645
X126.032Y-135.945
X126.208Y-173.502
X126.365Y-142.367
X127.218Y-148.742
X127.671Y-183.657
X127.673Y-148.006
X127.727Y-141.443
X127.812Y-133.345
X127.812Y-134.645
X127.812Y-135.945
X128.377Y-140.97
X128.397Y-160.21
X128.793Y-166.291
X129.027Y-140.203
X129.592Y-133.345
X129.592Y-134.645
X129.592Y-135.945
X130.304Y-143.017
X130.894Y-165.651
X130.979Y-143.525
X131.255Y-145.415
X131.372Y-133.345
X131.372Y-134.645
X131.372Y-135.945
X131.627Y-138.624
X131.724Y-149.454
X131.826Y-142.748
X131.978Y-150.343
X133.096Y-142.621
X133.152Y-133.345
X133.152Y-134.645
X133.152Y-135.945
X134.132Y-175.097
X134.482Y-145.997
X134.493Y-139.065
X134.96Y-129.576
X135.001Y-142.367
X135.128Y-146.266
X135.209Y-193.812
X135.402Y-164.33
X135.412Y-178.196
X135.448Y-195.743
X136.195Y-140.568
X136.474Y-148.006
X136.531Y-141.182
X136.587Y-160.96
X136.825Y-124.049
X136.825Y-125.324
X136.825Y-126.67
X136.825Y-128.011
X136.825Y-129.535
X137.343Y-158.897
X137.569Y-164.488
X137.721Y-155.603
X137.778Y-193.819
X138.082Y-178.24
X138.176Y-160.528
X138.519Y-185.382
X138.519Y-186.652
X138.603Y-138.191
X139.029Y-134.767
X139.258Y-155.926
X139.789Y-185.382
X139.789Y-186.652
X140.015Y-160.655
X140.447Y-157.14
X140.716Y-142.113
X140.779Y-148.692
X140.792Y-146.274
X141.059Y-185.382
X141.059Y-186.652
X141.239Y-129.454
X141.331Y-157.754
X141.812Y-154.489
X141.867Y-138.725
X142.501Y-167.109
X142.621Y-170.561
X142.773Y-127.859
X143.048Y-150.355
X143.236Y-167.767
X144.206Y-148.646
X145.131Y-165.786
X145.191Y-168.631
X146.053Y-168.402
X146.425Y-130.078
X147.212Y-166.485
X147.307Y-165.552
X147.437Y-177.902
X147.437Y-192.618
X147.668Y-158.783
X147.759Y-156.781
X147.78Y-152.425
X148.359Y-129.139
X149.108Y-152.659
X149.181Y-136.95
X149.207Y-155.948
X149.413Y-160.31
X149.741Y-125.217
X150.238Y-154.785
X150.246Y-194.539
X150.888Y-150.102
X151.694Y-195.235
X152.974Y-191.821
X153.659Y-129.529
X153.822Y-124.879
X154.061Y-192.837
X154.356Y-147.383
X155.283Y-123.241
X157.376Y-125.753
X159.934Y-175.184
X160.071Y-133.909
X160.231Y-182.608
X164.249Y-208.775
X166.688Y-207.518
X166.848Y-110.203
X167.442Y-109.141
X167.945Y-210.121
X168.402Y-214.008
X168.631Y-202.4
X168.692Y-110.038
X168.895Y-197.815
X168.91Y-210.883
X171.031Y-205.918
X172.58Y-206.553
X172.69Y-153.472
X174.559Y-158.526
X174.63Y-147.731
X175.632Y-137.714
X175.632Y-139.014
X175.632Y-140.314
X176.932Y-137.714
X176.932Y-139.014
X176.932Y-140.314
X177.613Y-155.977
X177.613Y-157.277
X177.613Y-158.577
X178.232Y-137.714
X178.232Y-139.014
X178.232Y-140.314
X178.913Y-155.977
X178.913Y-157.277
X178.913Y-158.577
X179.532Y-137.714
X179.532Y-139.014
X179.532Y-140.314
X180.213Y-155.977
X180.213Y-157.277
X180.213Y-158.577
X180.553Y-161.849
X180.832Y-137.714
X180.832Y-139.014
X180.832Y-140.314
X181.513Y-155.977
X181.513Y-157.277
X181.513Y-158.577
X182.499Y-163.081
X182.813Y-155.977
X182.813Y-157.277
X182.813Y-158.577
X183.451Y-146.616
X184.109Y-145.959
X184.782Y-145.285
X185.425Y-144.643
T4
X152.46Y-108.183
X155.0Y-108.183
X157.54Y-108.183
X174.5Y-213.75
X174.5Y-216.25
X177.0Y-216.25
X179.5Y-213.75
X179.5Y-216.25
X185.611Y-199.276
X185.611Y-201.816
X185.611Y-204.356
X188.15Y-199.276
X188.15Y-201.816
X188.15Y-204.356
T5
X114.57Y-106.5
X118.38Y-106.5
X122.19Y-106.5
X126.0Y-106.5
X164.236Y-170.65
X165.189Y-183.794
X169.824Y-177.952
X172.237Y-171.793
X174.206Y-182.016
X176.365Y-189.001
X178.587Y-164.363
X179.476Y-172.809
X179.984Y-179.476
X187.541Y-178.968
T6
X111.77Y-202.0
X111.77Y-208.35
X111.77Y-214.7
X128.0Y-202.0
X128.0Y-208.35
X128.0Y-214.7
T7
X139.46Y-101.96
X139.46Y-107.04
X142.0Y-104.5
X144.54Y-101.96
X144.54Y-107.04
T9
X104.0Y-111.5
X104.0Y-216.0
X190.0Y-115.0
X190.0Y-216.0
T2
G00X163.68Y-101.36
M15
G01X163.68Y-102.16
M16
G05
G00X163.68Y-105.38
M15
G01X163.68Y-106.48
M16
G05
G00X172.32Y-101.36
M15
G01X172.32Y-102.16
M16
G05
G00X172.32Y-105.38
M15
G01X172.32Y-106.48
M16
G05
T3
G00X176.0Y-101.4
M15
G01X176.0Y-102.6
M16
G05
G00X176.5Y-108.7
M15
G01X176.5Y-109.9
M16
G05
G00X179.7Y-108.7
M15
G01X179.7Y-109.9
M16
G05
G00X184.9Y-108.7
M15
G01X184.9Y-109.9
M16
G05
G00X186.1Y-101.4
M15
G01X186.1Y-102.6
M16
G05
T8
G00X171.45Y-215.0
M15
G01X171.55Y-215.0
M16
G05
G00X182.45Y-215.0
M15
G01X182.55Y-215.0
M16
G05
T0
M30
