M48
; DRILL file {KiCad 5.1.9} date Wed Jun 16 15:15:23 2021
; FORMAT={-:-/ absolute / metric / decimal}
; #@! TF.CreationDate,2021-06-16T15:15:23+08:00
; #@! TF.GenerationSoftware,Kicad,Pcbnew,5.1.9
; #@! TF.FileFunction,Plated,1,2,PTH
FMAT,2
METRIC
T1C0.200
T2C0.300
T3C0.600
T4C0.800
T5C1.000
T6C1.200
T7C1.400
T8C1.500
T9C1.700
T10C2.000
T11C3.200
%
G90
G05
T1
X159.357Y-171.364
X159.357Y-172.364
X159.357Y-173.364
X159.647Y-192.929
X159.647Y-193.929
X159.647Y-194.929
X160.357Y-171.364
X160.357Y-172.364
X160.357Y-173.364
X160.647Y-192.929
X160.647Y-193.929
X160.647Y-194.929
T2
X105.954Y-201.529
X106.446Y-129.896
X106.596Y-145.839
X107.099Y-142.405
X108.097Y-129.779
X108.649Y-143.637
X109.672Y-133.396
X109.672Y-134.696
X109.672Y-135.996
X110.49Y-147.701
X110.81Y-175.717
X111.452Y-133.396
X111.452Y-134.696
X111.452Y-135.996
X111.816Y-142.438
X112.781Y-175.923
X112.941Y-169.634
X113.147Y-140.218
X113.232Y-133.396
X113.232Y-134.696
X113.232Y-135.996
X114.427Y-140.335
X114.491Y-169.53
X114.935Y-139.7
X115.012Y-133.396
X115.012Y-134.696
X115.012Y-135.996
X115.782Y-143.256
X116.137Y-154.028
X116.792Y-133.396
X116.792Y-134.696
X116.792Y-135.996
X116.967Y-144.018
X117.047Y-138.622
X117.13Y-151.039
X117.496Y-169.523
X118.237Y-189.23
X118.572Y-133.396
X118.572Y-134.696
X118.572Y-135.996
X119.129Y-169.53
X119.507Y-144.272
X119.566Y-165.866
X119.761Y-142.367
X120.594Y-129.576
X120.601Y-125.337
X121.285Y-146.304
X121.285Y-151.892
X121.407Y-154.224
X122.22Y-129.525
X122.453Y-169.53
X122.567Y-125.337
X123.199Y-175.923
X124.003Y-169.621
X124.252Y-133.345
X124.252Y-134.645
X124.252Y-135.945
X124.828Y-153.81
X124.968Y-144.272
X125.103Y-175.796
X125.476Y-158.623
X126.032Y-133.345
X126.032Y-134.645
X126.032Y-135.945
X126.365Y-142.367
X127.007Y-148.324
X127.727Y-141.443
X127.762Y-181.991
X127.812Y-133.345
X127.812Y-134.645
X127.812Y-135.945
X128.016Y-144.907
X128.377Y-140.97
X128.397Y-159.893
X128.793Y-166.098
X129.027Y-140.203
X129.592Y-133.345
X129.592Y-134.645
X129.592Y-135.945
X130.304Y-143.017
X130.33Y-146.393
X130.894Y-165.651
X130.979Y-143.525
X131.372Y-133.345
X131.372Y-134.645
X131.372Y-135.945
X131.627Y-138.624
X131.763Y-149.746
X131.816Y-148.725
X131.826Y-142.748
X132.144Y-193.789
X132.158Y-178.235
X133.096Y-142.621
X133.152Y-133.345
X133.152Y-134.645
X133.152Y-135.945
X134.493Y-139.065
X134.96Y-129.576
X134.987Y-146.603
X135.001Y-142.367
X135.377Y-176.306
X135.387Y-193.721
X135.397Y-178.24
X135.402Y-164.33
X135.448Y-195.743
X135.672Y-146.747
X136.195Y-140.568
X136.398Y-160.528
X136.525Y-144.907
X136.531Y-141.182
X136.825Y-124.049
X136.825Y-125.324
X136.825Y-126.67
X136.825Y-128.011
X136.825Y-129.535
X137.343Y-158.897
X137.556Y-199.405
X137.569Y-164.488
X137.721Y-155.603
X138.176Y-160.528
X138.519Y-185.382
X138.519Y-186.652
X138.603Y-138.191
X139.029Y-134.767
X139.258Y-155.926
X139.403Y-172.866
X139.789Y-185.382
X139.789Y-186.652
X140.015Y-160.655
X140.447Y-157.14
X140.716Y-142.113
X140.843Y-148.59
X141.059Y-185.382
X141.059Y-186.652
X141.239Y-129.454
X141.331Y-157.754
X141.812Y-154.489
X141.867Y-138.725
X142.501Y-167.109
X142.621Y-170.561
X142.773Y-127.859
X143.048Y-150.355
X143.236Y-167.767
X144.206Y-148.646
X145.131Y-165.786
X145.191Y-168.631
X146.053Y-168.402
X146.425Y-130.078
X147.212Y-166.485
X147.307Y-165.552
X147.574Y-196.088
X147.668Y-158.783
X147.759Y-156.781
X147.78Y-152.425
X148.359Y-129.139
X148.891Y-195.506
X149.108Y-152.659
X149.181Y-136.95
X149.207Y-155.948
X149.489Y-191.689
X149.741Y-125.217
X149.784Y-194.605
X150.155Y-192.837
X150.238Y-154.785
X150.888Y-150.102
X150.888Y-158.635
X153.659Y-129.529
X154.244Y-125.945
X155.745Y-125.395
X156.21Y-169.291
X156.337Y-137.16
X156.936Y-152.182
X156.985Y-166.992
X157.226Y-177.927
X157.376Y-125.753
X159.131Y-188.214
X159.893Y-206.502
X160.21Y-186.245
X160.564Y-141.387
X160.782Y-189.992
X161.133Y-166.548
X161.143Y-157.201
X162.007Y-175.215
X164.059Y-136.373
X166.025Y-209.586
X166.848Y-110.203
X167.442Y-109.141
X167.64Y-174.752
X168.257Y-194.328
X168.692Y-110.038
X169.271Y-153.182
X172.776Y-204.277
X174.625Y-209.169
X175.072Y-203.835
X175.632Y-137.714
X175.632Y-139.014
X175.632Y-140.314
X176.254Y-166.619
X176.254Y-167.919
X176.254Y-169.219
X176.276Y-209.423
X176.53Y-208.407
X176.784Y-203.835
X176.921Y-153.914
X176.932Y-137.714
X176.932Y-139.014
X176.932Y-140.314
X177.041Y-188.438
X177.041Y-189.738
X177.041Y-191.038
X177.554Y-166.619
X177.554Y-167.919
X177.554Y-169.219
X178.232Y-137.714
X178.232Y-139.014
X178.232Y-140.314
X178.341Y-188.438
X178.341Y-189.738
X178.341Y-191.038
X178.854Y-166.619
X178.854Y-167.919
X178.854Y-169.219
X179.532Y-137.714
X179.532Y-139.014
X179.532Y-140.314
X179.641Y-188.438
X179.641Y-189.738
X179.641Y-191.038
X180.154Y-166.619
X180.154Y-167.919
X180.154Y-169.219
X180.832Y-137.714
X180.832Y-139.014
X180.832Y-140.314
X180.941Y-188.438
X180.941Y-189.738
X180.941Y-191.038
X181.454Y-166.619
X181.454Y-167.919
X181.454Y-169.219
X182.242Y-188.438
X182.242Y-189.738
X182.242Y-191.038
T5
X152.46Y-107.933
X155.0Y-107.933
X157.54Y-107.933
X174.5Y-213.75
X174.5Y-216.25
X177.0Y-216.25
X179.5Y-213.75
X179.5Y-216.25
T6
X114.57Y-107.0
X118.38Y-107.0
X122.19Y-107.0
X126.0Y-107.0
T7
X111.77Y-202.0
X111.77Y-208.35
X111.77Y-214.7
X128.0Y-202.0
X128.0Y-208.35
X128.0Y-214.7
X185.585Y-199.174
X185.585Y-201.714
X185.585Y-204.254
X188.125Y-199.174
X188.125Y-201.714
X188.125Y-204.254
T8
X142.0Y-106.0
T9
X139.46Y-103.46
X139.46Y-108.54
X144.54Y-103.46
X144.54Y-108.54
T11
X104.0Y-111.5
X104.0Y-216.0
X190.0Y-115.0
X190.0Y-216.0
T3
G00X163.68Y-101.86
M15
G01X163.68Y-102.66
M16
G05
G00X163.68Y-105.88
M15
G01X163.68Y-106.98
M16
G05
G00X172.32Y-101.86
M15
G01X172.32Y-102.66
M16
G05
G00X172.32Y-105.88
M15
G01X172.32Y-106.98
M16
G05
T4
G00X176.0Y-101.9
M15
G01X176.0Y-103.1
M16
G05
G00X176.5Y-109.2
M15
G01X176.5Y-110.4
M16
G05
G00X179.7Y-109.2
M15
G01X179.7Y-110.4
M16
G05
G00X184.9Y-109.2
M15
G01X184.9Y-110.4
M16
G05
G00X186.1Y-101.9
M15
G01X186.1Y-103.1
M16
G05
T10
G00X171.45Y-215.0
M15
G01X171.55Y-215.0
M16
G05
G00X182.45Y-215.0
M15
G01X182.55Y-215.0
M16
G05
T0
M30
