G04 #@! TF.GenerationSoftware,KiCad,Pcbnew,5.1.9*
G04 #@! TF.CreationDate,2021-06-16T15:15:12+08:00*
G04 #@! TF.ProjectId,digital-amplifier2,64696769-7461-46c2-9d61-6d706c696669,rev?*
G04 #@! TF.SameCoordinates,Original*
G04 #@! TF.FileFunction,Legend,Bot*
G04 #@! TF.FilePolarity,Positive*
%FSLAX46Y46*%
G04 Gerber Fmt 4.6, Leading zero omitted, Abs format (unit mm)*
G04 Created by KiCad (PCBNEW 5.1.9) date 2021-06-16 15:15:12*
%MOMM*%
%LPD*%
G01*
G04 APERTURE LIST*
%ADD10C,0.120000*%
%ADD11C,0.150000*%
G04 APERTURE END LIST*
D10*
X166524000Y-116622564D02*
X166524000Y-116168436D01*
X167994000Y-116622564D02*
X167994000Y-116168436D01*
X147443580Y-154977560D02*
X147724740Y-154977560D01*
X147443580Y-153957560D02*
X147724740Y-153957560D01*
X126519400Y-111824380D02*
X126519400Y-111543220D01*
X125499400Y-111824380D02*
X125499400Y-111543220D01*
X118899400Y-111875180D02*
X118899400Y-111594020D01*
X117879400Y-111875180D02*
X117879400Y-111594020D01*
X122709400Y-111875180D02*
X122709400Y-111594020D01*
X121689400Y-111875180D02*
X121689400Y-111594020D01*
X115038600Y-111824380D02*
X115038600Y-111543220D01*
X114018600Y-111824380D02*
X114018600Y-111543220D01*
X124895440Y-127523292D02*
X124895440Y-126100788D01*
X122175440Y-127523292D02*
X122175440Y-126100788D01*
X109162680Y-127538532D02*
X109162680Y-126116028D01*
X106442680Y-127538532D02*
X106442680Y-126116028D01*
X121334360Y-127523292D02*
X121334360Y-126100788D01*
X118614360Y-127523292D02*
X118614360Y-126100788D01*
X134430600Y-127601292D02*
X134430600Y-126178788D01*
X131710600Y-127601292D02*
X131710600Y-126178788D01*
X120880600Y-167601020D02*
X120880600Y-167882180D01*
X119860600Y-167601020D02*
X119860600Y-167882180D01*
X122468100Y-167613720D02*
X122468100Y-167894880D01*
X121448100Y-167613720D02*
X121448100Y-167894880D01*
D11*
X152011380Y-114533680D02*
X152011380Y-132544820D01*
X152011380Y-132544820D02*
X139019000Y-132544820D01*
X139019000Y-132544820D02*
X139019000Y-114569240D01*
X139019000Y-114569240D02*
X151996140Y-114569240D01*
X152516840Y-114025680D02*
X152514300Y-114028220D01*
D10*
X161139200Y-122726184D02*
X161139200Y-122272056D01*
X162609200Y-122726184D02*
X162609200Y-122272056D01*
X160287640Y-122302536D02*
X160287640Y-122756664D01*
X158817640Y-122302536D02*
X158817640Y-122756664D01*
X164370080Y-116607324D02*
X164370080Y-116153196D01*
X165840080Y-116607324D02*
X165840080Y-116153196D01*
X161588716Y-114829920D02*
X162042844Y-114829920D01*
X161588716Y-116299920D02*
X162042844Y-116299920D01*
X145868720Y-135810256D02*
X145868720Y-136264384D01*
X147338720Y-135810256D02*
X147338720Y-136264384D01*
X156236936Y-126671400D02*
X156691064Y-126671400D01*
X156236936Y-128141400D02*
X156691064Y-128141400D01*
X119925160Y-191671944D02*
X119925160Y-191217816D01*
X121395160Y-191671944D02*
X121395160Y-191217816D01*
X117273400Y-191636384D02*
X117273400Y-191182256D01*
X118743400Y-191636384D02*
X118743400Y-191182256D01*
X159148660Y-118007860D02*
X159148660Y-119467860D01*
X162308660Y-118007860D02*
X162308660Y-120167860D01*
X162308660Y-118007860D02*
X161378660Y-118007860D01*
X159148660Y-118007860D02*
X160078660Y-118007860D01*
X144676800Y-135819248D02*
X144676800Y-136341752D01*
X143206800Y-135819248D02*
X143206800Y-136341752D01*
X156177348Y-128792300D02*
X156699852Y-128792300D01*
X156177348Y-130262300D02*
X156699852Y-130262300D01*
X112021252Y-177846660D02*
X111498748Y-177846660D01*
X112021252Y-176376660D02*
X111498748Y-176376660D01*
X123891408Y-176407140D02*
X124413912Y-176407140D01*
X123891408Y-177877140D02*
X124413912Y-177877140D01*
X133143320Y-177517692D02*
X133143320Y-176995188D01*
X134613320Y-177517692D02*
X134613320Y-176995188D01*
X134593000Y-194531348D02*
X134593000Y-195053852D01*
X133123000Y-194531348D02*
X133123000Y-195053852D01*
X130778080Y-194624908D02*
X130778080Y-196047412D01*
X128058080Y-194624908D02*
X128058080Y-196047412D01*
X128474640Y-177368252D02*
X128474640Y-175945748D01*
X131194640Y-177368252D02*
X131194640Y-175945748D01*
X137524160Y-194546588D02*
X137524160Y-195069092D01*
X136054160Y-194546588D02*
X136054160Y-195069092D01*
X136201480Y-177543092D02*
X136201480Y-177020588D01*
X137671480Y-177543092D02*
X137671480Y-177020588D01*
X138487320Y-177419052D02*
X138487320Y-175996548D01*
X141207320Y-177419052D02*
X141207320Y-175996548D01*
X141364800Y-194751908D02*
X141364800Y-196174412D01*
X138644800Y-194751908D02*
X138644800Y-196174412D01*
D11*
X167838380Y-112133142D02*
X167362190Y-111799809D01*
X167838380Y-111561714D02*
X166838380Y-111561714D01*
X166838380Y-111942666D01*
X166886000Y-112037904D01*
X166933619Y-112085523D01*
X167028857Y-112133142D01*
X167171714Y-112133142D01*
X167266952Y-112085523D01*
X167314571Y-112037904D01*
X167362190Y-111942666D01*
X167362190Y-111561714D01*
X166838380Y-112466476D02*
X166838380Y-113085523D01*
X167219333Y-112752190D01*
X167219333Y-112895047D01*
X167266952Y-112990285D01*
X167314571Y-113037904D01*
X167409809Y-113085523D01*
X167647904Y-113085523D01*
X167743142Y-113037904D01*
X167790761Y-112990285D01*
X167838380Y-112895047D01*
X167838380Y-112609333D01*
X167790761Y-112514095D01*
X167743142Y-112466476D01*
X167171714Y-113942666D02*
X167838380Y-113942666D01*
X166790761Y-113704571D02*
X167505047Y-113466476D01*
X167505047Y-114085523D01*
X147750826Y-156254702D02*
X147798445Y-156302321D01*
X147941302Y-156349940D01*
X148036540Y-156349940D01*
X148179398Y-156302321D01*
X148274636Y-156207083D01*
X148322255Y-156111845D01*
X148369874Y-155921369D01*
X148369874Y-155778512D01*
X148322255Y-155588036D01*
X148274636Y-155492798D01*
X148179398Y-155397560D01*
X148036540Y-155349940D01*
X147941302Y-155349940D01*
X147798445Y-155397560D01*
X147750826Y-155445179D01*
X146798445Y-156349940D02*
X147369874Y-156349940D01*
X147084160Y-156349940D02*
X147084160Y-155349940D01*
X147179398Y-155492798D01*
X147274636Y-155588036D01*
X147369874Y-155635655D01*
X127796542Y-110564752D02*
X127844161Y-110517133D01*
X127891780Y-110374276D01*
X127891780Y-110279038D01*
X127844161Y-110136180D01*
X127748923Y-110040942D01*
X127653685Y-109993323D01*
X127463209Y-109945704D01*
X127320352Y-109945704D01*
X127129876Y-109993323D01*
X127034638Y-110040942D01*
X126939400Y-110136180D01*
X126891780Y-110279038D01*
X126891780Y-110374276D01*
X126939400Y-110517133D01*
X126987019Y-110564752D01*
X127891780Y-111517133D02*
X127891780Y-110945704D01*
X127891780Y-111231419D02*
X126891780Y-111231419D01*
X127034638Y-111136180D01*
X127129876Y-111040942D01*
X127177495Y-110945704D01*
X126891780Y-111850466D02*
X126891780Y-112469514D01*
X127272733Y-112136180D01*
X127272733Y-112279038D01*
X127320352Y-112374276D01*
X127367971Y-112421895D01*
X127463209Y-112469514D01*
X127701304Y-112469514D01*
X127796542Y-112421895D01*
X127844161Y-112374276D01*
X127891780Y-112279038D01*
X127891780Y-111993323D01*
X127844161Y-111898085D01*
X127796542Y-111850466D01*
X127891780Y-113421895D02*
X127891780Y-112850466D01*
X127891780Y-113136180D02*
X126891780Y-113136180D01*
X127034638Y-113040942D01*
X127129876Y-112945704D01*
X127177495Y-112850466D01*
X120176542Y-110615552D02*
X120224161Y-110567933D01*
X120271780Y-110425076D01*
X120271780Y-110329838D01*
X120224161Y-110186980D01*
X120128923Y-110091742D01*
X120033685Y-110044123D01*
X119843209Y-109996504D01*
X119700352Y-109996504D01*
X119509876Y-110044123D01*
X119414638Y-110091742D01*
X119319400Y-110186980D01*
X119271780Y-110329838D01*
X119271780Y-110425076D01*
X119319400Y-110567933D01*
X119367019Y-110615552D01*
X120271780Y-111567933D02*
X120271780Y-110996504D01*
X120271780Y-111282219D02*
X119271780Y-111282219D01*
X119414638Y-111186980D01*
X119509876Y-111091742D01*
X119557495Y-110996504D01*
X119271780Y-111901266D02*
X119271780Y-112520314D01*
X119652733Y-112186980D01*
X119652733Y-112329838D01*
X119700352Y-112425076D01*
X119747971Y-112472695D01*
X119843209Y-112520314D01*
X120081304Y-112520314D01*
X120176542Y-112472695D01*
X120224161Y-112425076D01*
X120271780Y-112329838D01*
X120271780Y-112044123D01*
X120224161Y-111948885D01*
X120176542Y-111901266D01*
X119271780Y-113139361D02*
X119271780Y-113234600D01*
X119319400Y-113329838D01*
X119367019Y-113377457D01*
X119462257Y-113425076D01*
X119652733Y-113472695D01*
X119890828Y-113472695D01*
X120081304Y-113425076D01*
X120176542Y-113377457D01*
X120224161Y-113329838D01*
X120271780Y-113234600D01*
X120271780Y-113139361D01*
X120224161Y-113044123D01*
X120176542Y-112996504D01*
X120081304Y-112948885D01*
X119890828Y-112901266D01*
X119652733Y-112901266D01*
X119462257Y-112948885D01*
X119367019Y-112996504D01*
X119319400Y-113044123D01*
X119271780Y-113139361D01*
X123986542Y-110615552D02*
X124034161Y-110567933D01*
X124081780Y-110425076D01*
X124081780Y-110329838D01*
X124034161Y-110186980D01*
X123938923Y-110091742D01*
X123843685Y-110044123D01*
X123653209Y-109996504D01*
X123510352Y-109996504D01*
X123319876Y-110044123D01*
X123224638Y-110091742D01*
X123129400Y-110186980D01*
X123081780Y-110329838D01*
X123081780Y-110425076D01*
X123129400Y-110567933D01*
X123177019Y-110615552D01*
X124081780Y-111567933D02*
X124081780Y-110996504D01*
X124081780Y-111282219D02*
X123081780Y-111282219D01*
X123224638Y-111186980D01*
X123319876Y-111091742D01*
X123367495Y-110996504D01*
X123177019Y-111948885D02*
X123129400Y-111996504D01*
X123081780Y-112091742D01*
X123081780Y-112329838D01*
X123129400Y-112425076D01*
X123177019Y-112472695D01*
X123272257Y-112520314D01*
X123367495Y-112520314D01*
X123510352Y-112472695D01*
X124081780Y-111901266D01*
X124081780Y-112520314D01*
X124081780Y-112996504D02*
X124081780Y-113186980D01*
X124034161Y-113282219D01*
X123986542Y-113329838D01*
X123843685Y-113425076D01*
X123653209Y-113472695D01*
X123272257Y-113472695D01*
X123177019Y-113425076D01*
X123129400Y-113377457D01*
X123081780Y-113282219D01*
X123081780Y-113091742D01*
X123129400Y-112996504D01*
X123177019Y-112948885D01*
X123272257Y-112901266D01*
X123510352Y-112901266D01*
X123605590Y-112948885D01*
X123653209Y-112996504D01*
X123700828Y-113091742D01*
X123700828Y-113282219D01*
X123653209Y-113377457D01*
X123605590Y-113425076D01*
X123510352Y-113472695D01*
X116315742Y-110564752D02*
X116363361Y-110517133D01*
X116410980Y-110374276D01*
X116410980Y-110279038D01*
X116363361Y-110136180D01*
X116268123Y-110040942D01*
X116172885Y-109993323D01*
X115982409Y-109945704D01*
X115839552Y-109945704D01*
X115649076Y-109993323D01*
X115553838Y-110040942D01*
X115458600Y-110136180D01*
X115410980Y-110279038D01*
X115410980Y-110374276D01*
X115458600Y-110517133D01*
X115506219Y-110564752D01*
X116410980Y-111517133D02*
X116410980Y-110945704D01*
X116410980Y-111231419D02*
X115410980Y-111231419D01*
X115553838Y-111136180D01*
X115649076Y-111040942D01*
X115696695Y-110945704D01*
X115506219Y-111898085D02*
X115458600Y-111945704D01*
X115410980Y-112040942D01*
X115410980Y-112279038D01*
X115458600Y-112374276D01*
X115506219Y-112421895D01*
X115601457Y-112469514D01*
X115696695Y-112469514D01*
X115839552Y-112421895D01*
X116410980Y-111850466D01*
X116410980Y-112469514D01*
X115839552Y-113040942D02*
X115791933Y-112945704D01*
X115744314Y-112898085D01*
X115649076Y-112850466D01*
X115601457Y-112850466D01*
X115506219Y-112898085D01*
X115458600Y-112945704D01*
X115410980Y-113040942D01*
X115410980Y-113231419D01*
X115458600Y-113326657D01*
X115506219Y-113374276D01*
X115601457Y-113421895D01*
X115649076Y-113421895D01*
X115744314Y-113374276D01*
X115791933Y-113326657D01*
X115839552Y-113231419D01*
X115839552Y-113040942D01*
X115887171Y-112945704D01*
X115934790Y-112898085D01*
X116030028Y-112850466D01*
X116220504Y-112850466D01*
X116315742Y-112898085D01*
X116363361Y-112945704D01*
X116410980Y-113040942D01*
X116410980Y-113231419D01*
X116363361Y-113326657D01*
X116315742Y-113374276D01*
X116220504Y-113421895D01*
X116030028Y-113421895D01*
X115934790Y-113374276D01*
X115887171Y-113326657D01*
X115839552Y-113231419D01*
X123674142Y-121181952D02*
X123721761Y-121134333D01*
X123769380Y-120991476D01*
X123769380Y-120896238D01*
X123721761Y-120753380D01*
X123626523Y-120658142D01*
X123531285Y-120610523D01*
X123340809Y-120562904D01*
X123197952Y-120562904D01*
X123007476Y-120610523D01*
X122912238Y-120658142D01*
X122817000Y-120753380D01*
X122769380Y-120896238D01*
X122769380Y-120991476D01*
X122817000Y-121134333D01*
X122864619Y-121181952D01*
X123769380Y-122134333D02*
X123769380Y-121562904D01*
X123769380Y-121848619D02*
X122769380Y-121848619D01*
X122912238Y-121753380D01*
X123007476Y-121658142D01*
X123055095Y-121562904D01*
X122769380Y-122753380D02*
X122769380Y-122848619D01*
X122817000Y-122943857D01*
X122864619Y-122991476D01*
X122959857Y-123039095D01*
X123150333Y-123086714D01*
X123388428Y-123086714D01*
X123578904Y-123039095D01*
X123674142Y-122991476D01*
X123721761Y-122943857D01*
X123769380Y-122848619D01*
X123769380Y-122753380D01*
X123721761Y-122658142D01*
X123674142Y-122610523D01*
X123578904Y-122562904D01*
X123388428Y-122515285D01*
X123150333Y-122515285D01*
X122959857Y-122562904D01*
X122864619Y-122610523D01*
X122817000Y-122658142D01*
X122769380Y-122753380D01*
X122769380Y-123420047D02*
X122769380Y-124039095D01*
X123150333Y-123705761D01*
X123150333Y-123848619D01*
X123197952Y-123943857D01*
X123245571Y-123991476D01*
X123340809Y-124039095D01*
X123578904Y-124039095D01*
X123674142Y-123991476D01*
X123721761Y-123943857D01*
X123769380Y-123848619D01*
X123769380Y-123562904D01*
X123721761Y-123467666D01*
X123674142Y-123420047D01*
X108180142Y-121181952D02*
X108227761Y-121134333D01*
X108275380Y-120991476D01*
X108275380Y-120896238D01*
X108227761Y-120753380D01*
X108132523Y-120658142D01*
X108037285Y-120610523D01*
X107846809Y-120562904D01*
X107703952Y-120562904D01*
X107513476Y-120610523D01*
X107418238Y-120658142D01*
X107323000Y-120753380D01*
X107275380Y-120896238D01*
X107275380Y-120991476D01*
X107323000Y-121134333D01*
X107370619Y-121181952D01*
X108275380Y-122134333D02*
X108275380Y-121562904D01*
X108275380Y-121848619D02*
X107275380Y-121848619D01*
X107418238Y-121753380D01*
X107513476Y-121658142D01*
X107561095Y-121562904D01*
X107275380Y-122753380D02*
X107275380Y-122848619D01*
X107323000Y-122943857D01*
X107370619Y-122991476D01*
X107465857Y-123039095D01*
X107656333Y-123086714D01*
X107894428Y-123086714D01*
X108084904Y-123039095D01*
X108180142Y-122991476D01*
X108227761Y-122943857D01*
X108275380Y-122848619D01*
X108275380Y-122753380D01*
X108227761Y-122658142D01*
X108180142Y-122610523D01*
X108084904Y-122562904D01*
X107894428Y-122515285D01*
X107656333Y-122515285D01*
X107465857Y-122562904D01*
X107370619Y-122610523D01*
X107323000Y-122658142D01*
X107275380Y-122753380D01*
X107370619Y-123467666D02*
X107323000Y-123515285D01*
X107275380Y-123610523D01*
X107275380Y-123848619D01*
X107323000Y-123943857D01*
X107370619Y-123991476D01*
X107465857Y-124039095D01*
X107561095Y-124039095D01*
X107703952Y-123991476D01*
X108275380Y-123420047D01*
X108275380Y-124039095D01*
X119784857Y-123293047D02*
X119737238Y-123340666D01*
X119689619Y-123483523D01*
X119689619Y-123578761D01*
X119737238Y-123721619D01*
X119832476Y-123816857D01*
X119927714Y-123864476D01*
X120118190Y-123912095D01*
X120261047Y-123912095D01*
X120451523Y-123864476D01*
X120546761Y-123816857D01*
X120642000Y-123721619D01*
X120689619Y-123578761D01*
X120689619Y-123483523D01*
X120642000Y-123340666D01*
X120594380Y-123293047D01*
X119689619Y-122340666D02*
X119689619Y-122912095D01*
X119689619Y-122626380D02*
X120689619Y-122626380D01*
X120546761Y-122721619D01*
X120451523Y-122816857D01*
X120403904Y-122912095D01*
X120689619Y-121721619D02*
X120689619Y-121626380D01*
X120642000Y-121531142D01*
X120594380Y-121483523D01*
X120499142Y-121435904D01*
X120308666Y-121388285D01*
X120070571Y-121388285D01*
X119880095Y-121435904D01*
X119784857Y-121483523D01*
X119737238Y-121531142D01*
X119689619Y-121626380D01*
X119689619Y-121721619D01*
X119737238Y-121816857D01*
X119784857Y-121864476D01*
X119880095Y-121912095D01*
X120070571Y-121959714D01*
X120308666Y-121959714D01*
X120499142Y-121912095D01*
X120594380Y-121864476D01*
X120642000Y-121816857D01*
X120689619Y-121721619D01*
X119689619Y-120435904D02*
X119689619Y-121007333D01*
X119689619Y-120721619D02*
X120689619Y-120721619D01*
X120546761Y-120816857D01*
X120451523Y-120912095D01*
X120403904Y-121007333D01*
X133326142Y-121181952D02*
X133373761Y-121134333D01*
X133421380Y-120991476D01*
X133421380Y-120896238D01*
X133373761Y-120753380D01*
X133278523Y-120658142D01*
X133183285Y-120610523D01*
X132992809Y-120562904D01*
X132849952Y-120562904D01*
X132659476Y-120610523D01*
X132564238Y-120658142D01*
X132469000Y-120753380D01*
X132421380Y-120896238D01*
X132421380Y-120991476D01*
X132469000Y-121134333D01*
X132516619Y-121181952D01*
X133421380Y-122134333D02*
X133421380Y-121562904D01*
X133421380Y-121848619D02*
X132421380Y-121848619D01*
X132564238Y-121753380D01*
X132659476Y-121658142D01*
X132707095Y-121562904D01*
X132421380Y-122753380D02*
X132421380Y-122848619D01*
X132469000Y-122943857D01*
X132516619Y-122991476D01*
X132611857Y-123039095D01*
X132802333Y-123086714D01*
X133040428Y-123086714D01*
X133230904Y-123039095D01*
X133326142Y-122991476D01*
X133373761Y-122943857D01*
X133421380Y-122848619D01*
X133421380Y-122753380D01*
X133373761Y-122658142D01*
X133326142Y-122610523D01*
X133230904Y-122562904D01*
X133040428Y-122515285D01*
X132802333Y-122515285D01*
X132611857Y-122562904D01*
X132516619Y-122610523D01*
X132469000Y-122658142D01*
X132421380Y-122753380D01*
X132421380Y-123705761D02*
X132421380Y-123801000D01*
X132469000Y-123896238D01*
X132516619Y-123943857D01*
X132611857Y-123991476D01*
X132802333Y-124039095D01*
X133040428Y-124039095D01*
X133230904Y-123991476D01*
X133326142Y-123943857D01*
X133373761Y-123896238D01*
X133421380Y-123801000D01*
X133421380Y-123705761D01*
X133373761Y-123610523D01*
X133326142Y-123562904D01*
X133230904Y-123515285D01*
X133040428Y-123467666D01*
X132802333Y-123467666D01*
X132611857Y-123515285D01*
X132516619Y-123562904D01*
X132469000Y-123610523D01*
X132421380Y-123705761D01*
X120753142Y-170553142D02*
X120800761Y-170505523D01*
X120848380Y-170362666D01*
X120848380Y-170267428D01*
X120800761Y-170124571D01*
X120705523Y-170029333D01*
X120610285Y-169981714D01*
X120419809Y-169934095D01*
X120276952Y-169934095D01*
X120086476Y-169981714D01*
X119991238Y-170029333D01*
X119896000Y-170124571D01*
X119848380Y-170267428D01*
X119848380Y-170362666D01*
X119896000Y-170505523D01*
X119943619Y-170553142D01*
X120181714Y-171410285D02*
X120848380Y-171410285D01*
X119800761Y-171172190D02*
X120515047Y-170934095D01*
X120515047Y-171553142D01*
X119848380Y-172362666D02*
X119848380Y-172172190D01*
X119896000Y-172076952D01*
X119943619Y-172029333D01*
X120086476Y-171934095D01*
X120276952Y-171886476D01*
X120657904Y-171886476D01*
X120753142Y-171934095D01*
X120800761Y-171981714D01*
X120848380Y-172076952D01*
X120848380Y-172267428D01*
X120800761Y-172362666D01*
X120753142Y-172410285D01*
X120657904Y-172457904D01*
X120419809Y-172457904D01*
X120324571Y-172410285D01*
X120276952Y-172362666D01*
X120229333Y-172267428D01*
X120229333Y-172076952D01*
X120276952Y-171981714D01*
X120324571Y-171934095D01*
X120419809Y-171886476D01*
X122404142Y-170553142D02*
X122451761Y-170505523D01*
X122499380Y-170362666D01*
X122499380Y-170267428D01*
X122451761Y-170124571D01*
X122356523Y-170029333D01*
X122261285Y-169981714D01*
X122070809Y-169934095D01*
X121927952Y-169934095D01*
X121737476Y-169981714D01*
X121642238Y-170029333D01*
X121547000Y-170124571D01*
X121499380Y-170267428D01*
X121499380Y-170362666D01*
X121547000Y-170505523D01*
X121594619Y-170553142D01*
X121832714Y-171410285D02*
X122499380Y-171410285D01*
X121451761Y-171172190D02*
X122166047Y-170934095D01*
X122166047Y-171553142D01*
X121499380Y-171838857D02*
X121499380Y-172457904D01*
X121880333Y-172124571D01*
X121880333Y-172267428D01*
X121927952Y-172362666D01*
X121975571Y-172410285D01*
X122070809Y-172457904D01*
X122308904Y-172457904D01*
X122404142Y-172410285D01*
X122451761Y-172362666D01*
X122499380Y-172267428D01*
X122499380Y-171981714D01*
X122451761Y-171886476D01*
X122404142Y-171838857D01*
X152760584Y-111783880D02*
X152760584Y-112593404D01*
X152712965Y-112688642D01*
X152665346Y-112736261D01*
X152570108Y-112783880D01*
X152379632Y-112783880D01*
X152284394Y-112736261D01*
X152236775Y-112688642D01*
X152189156Y-112593404D01*
X152189156Y-111783880D01*
X151808203Y-111783880D02*
X151141537Y-111783880D01*
X151570108Y-112783880D01*
X163976580Y-121856262D02*
X163500390Y-121522929D01*
X163976580Y-121284834D02*
X162976580Y-121284834D01*
X162976580Y-121665786D01*
X163024200Y-121761024D01*
X163071819Y-121808643D01*
X163167057Y-121856262D01*
X163309914Y-121856262D01*
X163405152Y-121808643D01*
X163452771Y-121761024D01*
X163500390Y-121665786D01*
X163500390Y-121284834D01*
X162976580Y-122189596D02*
X162976580Y-122808643D01*
X163357533Y-122475310D01*
X163357533Y-122618167D01*
X163405152Y-122713405D01*
X163452771Y-122761024D01*
X163548009Y-122808643D01*
X163786104Y-122808643D01*
X163881342Y-122761024D01*
X163928961Y-122713405D01*
X163976580Y-122618167D01*
X163976580Y-122332453D01*
X163928961Y-122237215D01*
X163881342Y-122189596D01*
X162976580Y-123665786D02*
X162976580Y-123475310D01*
X163024200Y-123380072D01*
X163071819Y-123332453D01*
X163214676Y-123237215D01*
X163405152Y-123189596D01*
X163786104Y-123189596D01*
X163881342Y-123237215D01*
X163928961Y-123284834D01*
X163976580Y-123380072D01*
X163976580Y-123570548D01*
X163928961Y-123665786D01*
X163881342Y-123713405D01*
X163786104Y-123761024D01*
X163548009Y-123761024D01*
X163452771Y-123713405D01*
X163405152Y-123665786D01*
X163357533Y-123570548D01*
X163357533Y-123380072D01*
X163405152Y-123284834D01*
X163452771Y-123237215D01*
X163548009Y-123189596D01*
X158355020Y-121886742D02*
X157878830Y-121553409D01*
X158355020Y-121315314D02*
X157355020Y-121315314D01*
X157355020Y-121696266D01*
X157402640Y-121791504D01*
X157450259Y-121839123D01*
X157545497Y-121886742D01*
X157688354Y-121886742D01*
X157783592Y-121839123D01*
X157831211Y-121791504D01*
X157878830Y-121696266D01*
X157878830Y-121315314D01*
X157355020Y-122220076D02*
X157355020Y-122839123D01*
X157735973Y-122505790D01*
X157735973Y-122648647D01*
X157783592Y-122743885D01*
X157831211Y-122791504D01*
X157926449Y-122839123D01*
X158164544Y-122839123D01*
X158259782Y-122791504D01*
X158307401Y-122743885D01*
X158355020Y-122648647D01*
X158355020Y-122362933D01*
X158307401Y-122267695D01*
X158259782Y-122220076D01*
X157355020Y-123743885D02*
X157355020Y-123267695D01*
X157831211Y-123220076D01*
X157783592Y-123267695D01*
X157735973Y-123362933D01*
X157735973Y-123601028D01*
X157783592Y-123696266D01*
X157831211Y-123743885D01*
X157926449Y-123791504D01*
X158164544Y-123791504D01*
X158259782Y-123743885D01*
X158307401Y-123696266D01*
X158355020Y-123601028D01*
X158355020Y-123362933D01*
X158307401Y-123267695D01*
X158259782Y-123220076D01*
X165806380Y-112260142D02*
X165330190Y-111926809D01*
X165806380Y-111688714D02*
X164806380Y-111688714D01*
X164806380Y-112069666D01*
X164854000Y-112164904D01*
X164901619Y-112212523D01*
X164996857Y-112260142D01*
X165139714Y-112260142D01*
X165234952Y-112212523D01*
X165282571Y-112164904D01*
X165330190Y-112069666D01*
X165330190Y-111688714D01*
X164806380Y-112593476D02*
X164806380Y-113212523D01*
X165187333Y-112879190D01*
X165187333Y-113022047D01*
X165234952Y-113117285D01*
X165282571Y-113164904D01*
X165377809Y-113212523D01*
X165615904Y-113212523D01*
X165711142Y-113164904D01*
X165758761Y-113117285D01*
X165806380Y-113022047D01*
X165806380Y-112736333D01*
X165758761Y-112641095D01*
X165711142Y-112593476D01*
X164806380Y-113545857D02*
X164806380Y-114164904D01*
X165187333Y-113831571D01*
X165187333Y-113974428D01*
X165234952Y-114069666D01*
X165282571Y-114117285D01*
X165377809Y-114164904D01*
X165615904Y-114164904D01*
X165711142Y-114117285D01*
X165758761Y-114069666D01*
X165806380Y-113974428D01*
X165806380Y-113688714D01*
X165758761Y-113593476D01*
X165711142Y-113545857D01*
X162567857Y-114117380D02*
X162901190Y-113641190D01*
X163139285Y-114117380D02*
X163139285Y-113117380D01*
X162758333Y-113117380D01*
X162663095Y-113165000D01*
X162615476Y-113212619D01*
X162567857Y-113307857D01*
X162567857Y-113450714D01*
X162615476Y-113545952D01*
X162663095Y-113593571D01*
X162758333Y-113641190D01*
X163139285Y-113641190D01*
X162234523Y-113117380D02*
X161615476Y-113117380D01*
X161948809Y-113498333D01*
X161805952Y-113498333D01*
X161710714Y-113545952D01*
X161663095Y-113593571D01*
X161615476Y-113688809D01*
X161615476Y-113926904D01*
X161663095Y-114022142D01*
X161710714Y-114069761D01*
X161805952Y-114117380D01*
X162091666Y-114117380D01*
X162186904Y-114069761D01*
X162234523Y-114022142D01*
X161234523Y-113212619D02*
X161186904Y-113165000D01*
X161091666Y-113117380D01*
X160853571Y-113117380D01*
X160758333Y-113165000D01*
X160710714Y-113212619D01*
X160663095Y-113307857D01*
X160663095Y-113403095D01*
X160710714Y-113545952D01*
X161282142Y-114117380D01*
X160663095Y-114117380D01*
X147137380Y-138676142D02*
X146661190Y-138342809D01*
X147137380Y-138104714D02*
X146137380Y-138104714D01*
X146137380Y-138485666D01*
X146185000Y-138580904D01*
X146232619Y-138628523D01*
X146327857Y-138676142D01*
X146470714Y-138676142D01*
X146565952Y-138628523D01*
X146613571Y-138580904D01*
X146661190Y-138485666D01*
X146661190Y-138104714D01*
X146137380Y-139009476D02*
X146137380Y-139628523D01*
X146518333Y-139295190D01*
X146518333Y-139438047D01*
X146565952Y-139533285D01*
X146613571Y-139580904D01*
X146708809Y-139628523D01*
X146946904Y-139628523D01*
X147042142Y-139580904D01*
X147089761Y-139533285D01*
X147137380Y-139438047D01*
X147137380Y-139152333D01*
X147089761Y-139057095D01*
X147042142Y-139009476D01*
X147137380Y-140580904D02*
X147137380Y-140009476D01*
X147137380Y-140295190D02*
X146137380Y-140295190D01*
X146280238Y-140199952D01*
X146375476Y-140104714D01*
X146423095Y-140009476D01*
X160408857Y-127706380D02*
X160742190Y-127230190D01*
X160980285Y-127706380D02*
X160980285Y-126706380D01*
X160599333Y-126706380D01*
X160504095Y-126754000D01*
X160456476Y-126801619D01*
X160408857Y-126896857D01*
X160408857Y-127039714D01*
X160456476Y-127134952D01*
X160504095Y-127182571D01*
X160599333Y-127230190D01*
X160980285Y-127230190D01*
X160075523Y-126706380D02*
X159456476Y-126706380D01*
X159789809Y-127087333D01*
X159646952Y-127087333D01*
X159551714Y-127134952D01*
X159504095Y-127182571D01*
X159456476Y-127277809D01*
X159456476Y-127515904D01*
X159504095Y-127611142D01*
X159551714Y-127658761D01*
X159646952Y-127706380D01*
X159932666Y-127706380D01*
X160027904Y-127658761D01*
X160075523Y-127611142D01*
X158837428Y-126706380D02*
X158742190Y-126706380D01*
X158646952Y-126754000D01*
X158599333Y-126801619D01*
X158551714Y-126896857D01*
X158504095Y-127087333D01*
X158504095Y-127325428D01*
X158551714Y-127515904D01*
X158599333Y-127611142D01*
X158646952Y-127658761D01*
X158742190Y-127706380D01*
X158837428Y-127706380D01*
X158932666Y-127658761D01*
X158980285Y-127611142D01*
X159027904Y-127515904D01*
X159075523Y-127325428D01*
X159075523Y-127087333D01*
X159027904Y-126896857D01*
X158980285Y-126801619D01*
X158932666Y-126754000D01*
X158837428Y-126706380D01*
X121229380Y-194429142D02*
X120753190Y-194095809D01*
X121229380Y-193857714D02*
X120229380Y-193857714D01*
X120229380Y-194238666D01*
X120277000Y-194333904D01*
X120324619Y-194381523D01*
X120419857Y-194429142D01*
X120562714Y-194429142D01*
X120657952Y-194381523D01*
X120705571Y-194333904D01*
X120753190Y-194238666D01*
X120753190Y-193857714D01*
X120324619Y-194810095D02*
X120277000Y-194857714D01*
X120229380Y-194952952D01*
X120229380Y-195191047D01*
X120277000Y-195286285D01*
X120324619Y-195333904D01*
X120419857Y-195381523D01*
X120515095Y-195381523D01*
X120657952Y-195333904D01*
X121229380Y-194762476D01*
X121229380Y-195381523D01*
X121229380Y-196333904D02*
X121229380Y-195762476D01*
X121229380Y-196048190D02*
X120229380Y-196048190D01*
X120372238Y-195952952D01*
X120467476Y-195857714D01*
X120515095Y-195762476D01*
X118435380Y-194302142D02*
X117959190Y-193968809D01*
X118435380Y-193730714D02*
X117435380Y-193730714D01*
X117435380Y-194111666D01*
X117483000Y-194206904D01*
X117530619Y-194254523D01*
X117625857Y-194302142D01*
X117768714Y-194302142D01*
X117863952Y-194254523D01*
X117911571Y-194206904D01*
X117959190Y-194111666D01*
X117959190Y-193730714D01*
X117530619Y-194683095D02*
X117483000Y-194730714D01*
X117435380Y-194825952D01*
X117435380Y-195064047D01*
X117483000Y-195159285D01*
X117530619Y-195206904D01*
X117625857Y-195254523D01*
X117721095Y-195254523D01*
X117863952Y-195206904D01*
X118435380Y-194635476D01*
X118435380Y-195254523D01*
X117435380Y-195873571D02*
X117435380Y-195968809D01*
X117483000Y-196064047D01*
X117530619Y-196111666D01*
X117625857Y-196159285D01*
X117816333Y-196206904D01*
X118054428Y-196206904D01*
X118244904Y-196159285D01*
X118340142Y-196111666D01*
X118387761Y-196064047D01*
X118435380Y-195968809D01*
X118435380Y-195873571D01*
X118387761Y-195778333D01*
X118340142Y-195730714D01*
X118244904Y-195683095D01*
X118054428Y-195635476D01*
X117816333Y-195635476D01*
X117625857Y-195683095D01*
X117530619Y-195730714D01*
X117483000Y-195778333D01*
X117435380Y-195873571D01*
X158408619Y-118522761D02*
X158361000Y-118427523D01*
X158265761Y-118332285D01*
X158122904Y-118189428D01*
X158075285Y-118094190D01*
X158075285Y-117998952D01*
X158313380Y-118046571D02*
X158265761Y-117951333D01*
X158170523Y-117856095D01*
X157980047Y-117808476D01*
X157646714Y-117808476D01*
X157456238Y-117856095D01*
X157361000Y-117951333D01*
X157313380Y-118046571D01*
X157313380Y-118237047D01*
X157361000Y-118332285D01*
X157456238Y-118427523D01*
X157646714Y-118475142D01*
X157980047Y-118475142D01*
X158170523Y-118427523D01*
X158265761Y-118332285D01*
X158313380Y-118237047D01*
X158313380Y-118046571D01*
X158313380Y-119427523D02*
X158313380Y-118856095D01*
X158313380Y-119141809D02*
X157313380Y-119141809D01*
X157456238Y-119046571D01*
X157551476Y-118951333D01*
X157599095Y-118856095D01*
X144248142Y-138676142D02*
X144295761Y-138628523D01*
X144343380Y-138485666D01*
X144343380Y-138390428D01*
X144295761Y-138247571D01*
X144200523Y-138152333D01*
X144105285Y-138104714D01*
X143914809Y-138057095D01*
X143771952Y-138057095D01*
X143581476Y-138104714D01*
X143486238Y-138152333D01*
X143391000Y-138247571D01*
X143343380Y-138390428D01*
X143343380Y-138485666D01*
X143391000Y-138628523D01*
X143438619Y-138676142D01*
X143343380Y-139580904D02*
X143343380Y-139104714D01*
X143819571Y-139057095D01*
X143771952Y-139104714D01*
X143724333Y-139199952D01*
X143724333Y-139438047D01*
X143771952Y-139533285D01*
X143819571Y-139580904D01*
X143914809Y-139628523D01*
X144152904Y-139628523D01*
X144248142Y-139580904D01*
X144295761Y-139533285D01*
X144343380Y-139438047D01*
X144343380Y-139199952D01*
X144295761Y-139104714D01*
X144248142Y-139057095D01*
X143343380Y-140485666D02*
X143343380Y-140295190D01*
X143391000Y-140199952D01*
X143438619Y-140152333D01*
X143581476Y-140057095D01*
X143771952Y-140009476D01*
X144152904Y-140009476D01*
X144248142Y-140057095D01*
X144295761Y-140104714D01*
X144343380Y-140199952D01*
X144343380Y-140390428D01*
X144295761Y-140485666D01*
X144248142Y-140533285D01*
X144152904Y-140580904D01*
X143914809Y-140580904D01*
X143819571Y-140533285D01*
X143771952Y-140485666D01*
X143724333Y-140390428D01*
X143724333Y-140199952D01*
X143771952Y-140104714D01*
X143819571Y-140057095D01*
X143914809Y-140009476D01*
X160408857Y-129770142D02*
X160456476Y-129817761D01*
X160599333Y-129865380D01*
X160694571Y-129865380D01*
X160837428Y-129817761D01*
X160932666Y-129722523D01*
X160980285Y-129627285D01*
X161027904Y-129436809D01*
X161027904Y-129293952D01*
X160980285Y-129103476D01*
X160932666Y-129008238D01*
X160837428Y-128913000D01*
X160694571Y-128865380D01*
X160599333Y-128865380D01*
X160456476Y-128913000D01*
X160408857Y-128960619D01*
X159504095Y-128865380D02*
X159980285Y-128865380D01*
X160027904Y-129341571D01*
X159980285Y-129293952D01*
X159885047Y-129246333D01*
X159646952Y-129246333D01*
X159551714Y-129293952D01*
X159504095Y-129341571D01*
X159456476Y-129436809D01*
X159456476Y-129674904D01*
X159504095Y-129770142D01*
X159551714Y-129817761D01*
X159646952Y-129865380D01*
X159885047Y-129865380D01*
X159980285Y-129817761D01*
X160027904Y-129770142D01*
X158551714Y-128865380D02*
X159027904Y-128865380D01*
X159075523Y-129341571D01*
X159027904Y-129293952D01*
X158932666Y-129246333D01*
X158694571Y-129246333D01*
X158599333Y-129293952D01*
X158551714Y-129341571D01*
X158504095Y-129436809D01*
X158504095Y-129674904D01*
X158551714Y-129770142D01*
X158599333Y-129817761D01*
X158694571Y-129865380D01*
X158932666Y-129865380D01*
X159027904Y-129817761D01*
X159075523Y-129770142D01*
X112402857Y-175788802D02*
X112450476Y-175836421D01*
X112593333Y-175884040D01*
X112688571Y-175884040D01*
X112831428Y-175836421D01*
X112926666Y-175741183D01*
X112974285Y-175645945D01*
X113021904Y-175455469D01*
X113021904Y-175312612D01*
X112974285Y-175122136D01*
X112926666Y-175026898D01*
X112831428Y-174931660D01*
X112688571Y-174884040D01*
X112593333Y-174884040D01*
X112450476Y-174931660D01*
X112402857Y-174979279D01*
X111498095Y-174884040D02*
X111974285Y-174884040D01*
X112021904Y-175360231D01*
X111974285Y-175312612D01*
X111879047Y-175264993D01*
X111640952Y-175264993D01*
X111545714Y-175312612D01*
X111498095Y-175360231D01*
X111450476Y-175455469D01*
X111450476Y-175693564D01*
X111498095Y-175788802D01*
X111545714Y-175836421D01*
X111640952Y-175884040D01*
X111879047Y-175884040D01*
X111974285Y-175836421D01*
X112021904Y-175788802D01*
X111117142Y-174884040D02*
X110498095Y-174884040D01*
X110831428Y-175264993D01*
X110688571Y-175264993D01*
X110593333Y-175312612D01*
X110545714Y-175360231D01*
X110498095Y-175455469D01*
X110498095Y-175693564D01*
X110545714Y-175788802D01*
X110593333Y-175836421D01*
X110688571Y-175884040D01*
X110974285Y-175884040D01*
X111069523Y-175836421D01*
X111117142Y-175788802D01*
X124795517Y-179179282D02*
X124843136Y-179226901D01*
X124985993Y-179274520D01*
X125081231Y-179274520D01*
X125224088Y-179226901D01*
X125319326Y-179131663D01*
X125366945Y-179036425D01*
X125414564Y-178845949D01*
X125414564Y-178703092D01*
X125366945Y-178512616D01*
X125319326Y-178417378D01*
X125224088Y-178322140D01*
X125081231Y-178274520D01*
X124985993Y-178274520D01*
X124843136Y-178322140D01*
X124795517Y-178369759D01*
X123890755Y-178274520D02*
X124366945Y-178274520D01*
X124414564Y-178750711D01*
X124366945Y-178703092D01*
X124271707Y-178655473D01*
X124033612Y-178655473D01*
X123938374Y-178703092D01*
X123890755Y-178750711D01*
X123843136Y-178845949D01*
X123843136Y-179084044D01*
X123890755Y-179179282D01*
X123938374Y-179226901D01*
X124033612Y-179274520D01*
X124271707Y-179274520D01*
X124366945Y-179226901D01*
X124414564Y-179179282D01*
X122890755Y-179274520D02*
X123462183Y-179274520D01*
X123176469Y-179274520D02*
X123176469Y-178274520D01*
X123271707Y-178417378D01*
X123366945Y-178512616D01*
X123462183Y-178560235D01*
X134342142Y-173093142D02*
X134389761Y-173045523D01*
X134437380Y-172902666D01*
X134437380Y-172807428D01*
X134389761Y-172664571D01*
X134294523Y-172569333D01*
X134199285Y-172521714D01*
X134008809Y-172474095D01*
X133865952Y-172474095D01*
X133675476Y-172521714D01*
X133580238Y-172569333D01*
X133485000Y-172664571D01*
X133437380Y-172807428D01*
X133437380Y-172902666D01*
X133485000Y-173045523D01*
X133532619Y-173093142D01*
X133437380Y-173426476D02*
X133437380Y-174045523D01*
X133818333Y-173712190D01*
X133818333Y-173855047D01*
X133865952Y-173950285D01*
X133913571Y-173997904D01*
X134008809Y-174045523D01*
X134246904Y-174045523D01*
X134342142Y-173997904D01*
X134389761Y-173950285D01*
X134437380Y-173855047D01*
X134437380Y-173569333D01*
X134389761Y-173474095D01*
X134342142Y-173426476D01*
X133532619Y-174426476D02*
X133485000Y-174474095D01*
X133437380Y-174569333D01*
X133437380Y-174807428D01*
X133485000Y-174902666D01*
X133532619Y-174950285D01*
X133627857Y-174997904D01*
X133723095Y-174997904D01*
X133865952Y-174950285D01*
X134437380Y-174378857D01*
X134437380Y-174997904D01*
X134342142Y-197858142D02*
X134389761Y-197810523D01*
X134437380Y-197667666D01*
X134437380Y-197572428D01*
X134389761Y-197429571D01*
X134294523Y-197334333D01*
X134199285Y-197286714D01*
X134008809Y-197239095D01*
X133865952Y-197239095D01*
X133675476Y-197286714D01*
X133580238Y-197334333D01*
X133485000Y-197429571D01*
X133437380Y-197572428D01*
X133437380Y-197667666D01*
X133485000Y-197810523D01*
X133532619Y-197858142D01*
X133437380Y-198191476D02*
X133437380Y-198810523D01*
X133818333Y-198477190D01*
X133818333Y-198620047D01*
X133865952Y-198715285D01*
X133913571Y-198762904D01*
X134008809Y-198810523D01*
X134246904Y-198810523D01*
X134342142Y-198762904D01*
X134389761Y-198715285D01*
X134437380Y-198620047D01*
X134437380Y-198334333D01*
X134389761Y-198239095D01*
X134342142Y-198191476D01*
X134437380Y-199762904D02*
X134437380Y-199191476D01*
X134437380Y-199477190D02*
X133437380Y-199477190D01*
X133580238Y-199381952D01*
X133675476Y-199286714D01*
X133723095Y-199191476D01*
X129897142Y-198874142D02*
X129944761Y-198826523D01*
X129992380Y-198683666D01*
X129992380Y-198588428D01*
X129944761Y-198445571D01*
X129849523Y-198350333D01*
X129754285Y-198302714D01*
X129563809Y-198255095D01*
X129420952Y-198255095D01*
X129230476Y-198302714D01*
X129135238Y-198350333D01*
X129040000Y-198445571D01*
X128992380Y-198588428D01*
X128992380Y-198683666D01*
X129040000Y-198826523D01*
X129087619Y-198874142D01*
X128992380Y-199207476D02*
X128992380Y-199826523D01*
X129373333Y-199493190D01*
X129373333Y-199636047D01*
X129420952Y-199731285D01*
X129468571Y-199778904D01*
X129563809Y-199826523D01*
X129801904Y-199826523D01*
X129897142Y-199778904D01*
X129944761Y-199731285D01*
X129992380Y-199636047D01*
X129992380Y-199350333D01*
X129944761Y-199255095D01*
X129897142Y-199207476D01*
X128992380Y-200445571D02*
X128992380Y-200540809D01*
X129040000Y-200636047D01*
X129087619Y-200683666D01*
X129182857Y-200731285D01*
X129373333Y-200778904D01*
X129611428Y-200778904D01*
X129801904Y-200731285D01*
X129897142Y-200683666D01*
X129944761Y-200636047D01*
X129992380Y-200540809D01*
X129992380Y-200445571D01*
X129944761Y-200350333D01*
X129897142Y-200302714D01*
X129801904Y-200255095D01*
X129611428Y-200207476D01*
X129373333Y-200207476D01*
X129182857Y-200255095D01*
X129087619Y-200302714D01*
X129040000Y-200350333D01*
X128992380Y-200445571D01*
X130278142Y-171823142D02*
X130325761Y-171775523D01*
X130373380Y-171632666D01*
X130373380Y-171537428D01*
X130325761Y-171394571D01*
X130230523Y-171299333D01*
X130135285Y-171251714D01*
X129944809Y-171204095D01*
X129801952Y-171204095D01*
X129611476Y-171251714D01*
X129516238Y-171299333D01*
X129421000Y-171394571D01*
X129373380Y-171537428D01*
X129373380Y-171632666D01*
X129421000Y-171775523D01*
X129468619Y-171823142D01*
X129468619Y-172204095D02*
X129421000Y-172251714D01*
X129373380Y-172346952D01*
X129373380Y-172585047D01*
X129421000Y-172680285D01*
X129468619Y-172727904D01*
X129563857Y-172775523D01*
X129659095Y-172775523D01*
X129801952Y-172727904D01*
X130373380Y-172156476D01*
X130373380Y-172775523D01*
X130373380Y-173251714D02*
X130373380Y-173442190D01*
X130325761Y-173537428D01*
X130278142Y-173585047D01*
X130135285Y-173680285D01*
X129944809Y-173727904D01*
X129563857Y-173727904D01*
X129468619Y-173680285D01*
X129421000Y-173632666D01*
X129373380Y-173537428D01*
X129373380Y-173346952D01*
X129421000Y-173251714D01*
X129468619Y-173204095D01*
X129563857Y-173156476D01*
X129801952Y-173156476D01*
X129897190Y-173204095D01*
X129944809Y-173251714D01*
X129992428Y-173346952D01*
X129992428Y-173537428D01*
X129944809Y-173632666D01*
X129897190Y-173680285D01*
X129801952Y-173727904D01*
X136755142Y-197731142D02*
X136802761Y-197683523D01*
X136850380Y-197540666D01*
X136850380Y-197445428D01*
X136802761Y-197302571D01*
X136707523Y-197207333D01*
X136612285Y-197159714D01*
X136421809Y-197112095D01*
X136278952Y-197112095D01*
X136088476Y-197159714D01*
X135993238Y-197207333D01*
X135898000Y-197302571D01*
X135850380Y-197445428D01*
X135850380Y-197540666D01*
X135898000Y-197683523D01*
X135945619Y-197731142D01*
X135945619Y-198112095D02*
X135898000Y-198159714D01*
X135850380Y-198254952D01*
X135850380Y-198493047D01*
X135898000Y-198588285D01*
X135945619Y-198635904D01*
X136040857Y-198683523D01*
X136136095Y-198683523D01*
X136278952Y-198635904D01*
X136850380Y-198064476D01*
X136850380Y-198683523D01*
X135850380Y-199540666D02*
X135850380Y-199350190D01*
X135898000Y-199254952D01*
X135945619Y-199207333D01*
X136088476Y-199112095D01*
X136278952Y-199064476D01*
X136659904Y-199064476D01*
X136755142Y-199112095D01*
X136802761Y-199159714D01*
X136850380Y-199254952D01*
X136850380Y-199445428D01*
X136802761Y-199540666D01*
X136755142Y-199588285D01*
X136659904Y-199635904D01*
X136421809Y-199635904D01*
X136326571Y-199588285D01*
X136278952Y-199540666D01*
X136231333Y-199445428D01*
X136231333Y-199254952D01*
X136278952Y-199159714D01*
X136326571Y-199112095D01*
X136421809Y-199064476D01*
X137136142Y-173220142D02*
X137183761Y-173172523D01*
X137231380Y-173029666D01*
X137231380Y-172934428D01*
X137183761Y-172791571D01*
X137088523Y-172696333D01*
X136993285Y-172648714D01*
X136802809Y-172601095D01*
X136659952Y-172601095D01*
X136469476Y-172648714D01*
X136374238Y-172696333D01*
X136279000Y-172791571D01*
X136231380Y-172934428D01*
X136231380Y-173029666D01*
X136279000Y-173172523D01*
X136326619Y-173220142D01*
X136326619Y-173601095D02*
X136279000Y-173648714D01*
X136231380Y-173743952D01*
X136231380Y-173982047D01*
X136279000Y-174077285D01*
X136326619Y-174124904D01*
X136421857Y-174172523D01*
X136517095Y-174172523D01*
X136659952Y-174124904D01*
X137231380Y-173553476D01*
X137231380Y-174172523D01*
X136231380Y-175077285D02*
X136231380Y-174601095D01*
X136707571Y-174553476D01*
X136659952Y-174601095D01*
X136612333Y-174696333D01*
X136612333Y-174934428D01*
X136659952Y-175029666D01*
X136707571Y-175077285D01*
X136802809Y-175124904D01*
X137040904Y-175124904D01*
X137136142Y-175077285D01*
X137183761Y-175029666D01*
X137231380Y-174934428D01*
X137231380Y-174696333D01*
X137183761Y-174601095D01*
X137136142Y-174553476D01*
X140819142Y-171950142D02*
X140866761Y-171902523D01*
X140914380Y-171759666D01*
X140914380Y-171664428D01*
X140866761Y-171521571D01*
X140771523Y-171426333D01*
X140676285Y-171378714D01*
X140485809Y-171331095D01*
X140342952Y-171331095D01*
X140152476Y-171378714D01*
X140057238Y-171426333D01*
X139962000Y-171521571D01*
X139914380Y-171664428D01*
X139914380Y-171759666D01*
X139962000Y-171902523D01*
X140009619Y-171950142D01*
X140009619Y-172331095D02*
X139962000Y-172378714D01*
X139914380Y-172473952D01*
X139914380Y-172712047D01*
X139962000Y-172807285D01*
X140009619Y-172854904D01*
X140104857Y-172902523D01*
X140200095Y-172902523D01*
X140342952Y-172854904D01*
X140914380Y-172283476D01*
X140914380Y-172902523D01*
X140247714Y-173759666D02*
X140914380Y-173759666D01*
X139866761Y-173521571D02*
X140581047Y-173283476D01*
X140581047Y-173902523D01*
X140438142Y-198874142D02*
X140485761Y-198826523D01*
X140533380Y-198683666D01*
X140533380Y-198588428D01*
X140485761Y-198445571D01*
X140390523Y-198350333D01*
X140295285Y-198302714D01*
X140104809Y-198255095D01*
X139961952Y-198255095D01*
X139771476Y-198302714D01*
X139676238Y-198350333D01*
X139581000Y-198445571D01*
X139533380Y-198588428D01*
X139533380Y-198683666D01*
X139581000Y-198826523D01*
X139628619Y-198874142D01*
X139628619Y-199255095D02*
X139581000Y-199302714D01*
X139533380Y-199397952D01*
X139533380Y-199636047D01*
X139581000Y-199731285D01*
X139628619Y-199778904D01*
X139723857Y-199826523D01*
X139819095Y-199826523D01*
X139961952Y-199778904D01*
X140533380Y-199207476D01*
X140533380Y-199826523D01*
X139533380Y-200159857D02*
X139533380Y-200778904D01*
X139914333Y-200445571D01*
X139914333Y-200588428D01*
X139961952Y-200683666D01*
X140009571Y-200731285D01*
X140104809Y-200778904D01*
X140342904Y-200778904D01*
X140438142Y-200731285D01*
X140485761Y-200683666D01*
X140533380Y-200588428D01*
X140533380Y-200302714D01*
X140485761Y-200207476D01*
X140438142Y-200159857D01*
M02*
