G04 #@! TF.GenerationSoftware,KiCad,Pcbnew,5.1.9*
G04 #@! TF.CreationDate,2021-05-27T16:29:05+08:00*
G04 #@! TF.ProjectId,digital-amplifier2,64696769-7461-46c2-9d61-6d706c696669,rev?*
G04 #@! TF.SameCoordinates,Original*
G04 #@! TF.FileFunction,Soldermask,Bot*
G04 #@! TF.FilePolarity,Negative*
%FSLAX46Y46*%
G04 Gerber Fmt 4.6, Leading zero omitted, Abs format (unit mm)*
G04 Created by KiCad (PCBNEW 5.1.9) date 2021-05-27 16:29:05*
%MOMM*%
%LPD*%
G01*
G04 APERTURE LIST*
%ADD10C,1.626000*%
%ADD11O,1.502000X2.102000*%
%ADD12C,1.702000*%
%ADD13O,1.102000X1.102000*%
%ADD14C,6.502000*%
%ADD15O,1.702000X1.702000*%
%ADD16C,1.902000*%
%ADD17C,2.602000*%
%ADD18O,1.802000X1.802000*%
%ADD19C,3.102000*%
%ADD20C,1.952000*%
%ADD21O,1.102000X2.302000*%
%ADD22C,3.602000*%
%ADD23C,1.802000*%
%ADD24C,0.702000*%
%ADD25C,0.100000*%
G04 APERTURE END LIST*
D10*
X66992500Y-92964000D03*
X72326500Y-95758000D03*
X67754500Y-97790000D03*
X65722500Y-103632000D03*
X63944500Y-99314000D03*
X58356500Y-100330000D03*
X61150500Y-96520000D03*
X58102500Y-91694000D03*
X62801500Y-92583000D03*
X66484500Y-88138000D03*
D11*
X86919500Y-147522000D03*
X86919500Y-144322000D03*
X86919500Y-141122000D03*
X86919500Y-137922000D03*
D12*
X89719500Y-137922000D03*
X89719500Y-146722000D03*
D11*
X92519500Y-144322000D03*
X92519500Y-141122000D03*
X92519500Y-137922000D03*
X92519500Y-147522000D03*
D13*
X145000000Y-67080000D03*
X145000000Y-65810000D03*
X145000000Y-64540000D03*
X145000000Y-63270000D03*
G36*
G01*
X144449000Y-62500000D02*
X144449000Y-61500000D01*
G75*
G02*
X144500000Y-61449000I51000J0D01*
G01*
X145500000Y-61449000D01*
G75*
G02*
X145551000Y-61500000I0J-51000D01*
G01*
X145551000Y-62500000D01*
G75*
G02*
X145500000Y-62551000I-51000J0D01*
G01*
X144500000Y-62551000D01*
G75*
G02*
X144449000Y-62500000I0J51000D01*
G01*
G37*
X146270000Y-100430000D03*
X145000000Y-100430000D03*
X146270000Y-99160000D03*
X145000000Y-99160000D03*
X146270000Y-97890000D03*
X145000000Y-97890000D03*
X146270000Y-96620000D03*
X145000000Y-96620000D03*
X146270000Y-95350000D03*
X145000000Y-95350000D03*
X146270000Y-94080000D03*
X145000000Y-94080000D03*
X146270000Y-92810000D03*
X145000000Y-92810000D03*
X146270000Y-91540000D03*
X145000000Y-91540000D03*
X146270000Y-90270000D03*
X145000000Y-90270000D03*
X146270000Y-89000000D03*
G36*
G01*
X144449000Y-89500000D02*
X144449000Y-88500000D01*
G75*
G02*
X144500000Y-88449000I51000J0D01*
G01*
X145500000Y-88449000D01*
G75*
G02*
X145551000Y-88500000I0J-51000D01*
G01*
X145551000Y-89500000D01*
G75*
G02*
X145500000Y-89551000I-51000J0D01*
G01*
X144500000Y-89551000D01*
G75*
G02*
X144449000Y-89500000I0J51000D01*
G01*
G37*
D14*
X145000000Y-55000000D03*
X145000000Y-145000000D03*
X55000000Y-145000000D03*
X55000000Y-55000000D03*
D15*
X116459000Y-147510500D03*
G36*
G01*
X115659000Y-139039500D02*
X117259000Y-139039500D01*
G75*
G02*
X117310000Y-139090500I0J-51000D01*
G01*
X117310000Y-140690500D01*
G75*
G02*
X117259000Y-140741500I-51000J0D01*
G01*
X115659000Y-140741500D01*
G75*
G02*
X115608000Y-140690500I0J51000D01*
G01*
X115608000Y-139090500D01*
G75*
G02*
X115659000Y-139039500I51000J0D01*
G01*
G37*
X108616750Y-147510500D03*
G36*
G01*
X107816750Y-139039500D02*
X109416750Y-139039500D01*
G75*
G02*
X109467750Y-139090500I0J-51000D01*
G01*
X109467750Y-140690500D01*
G75*
G02*
X109416750Y-140741500I-51000J0D01*
G01*
X107816750Y-140741500D01*
G75*
G02*
X107765750Y-140690500I0J51000D01*
G01*
X107765750Y-139090500D01*
G75*
G02*
X107816750Y-139039500I51000J0D01*
G01*
G37*
X100774500Y-147574000D03*
G36*
G01*
X99974500Y-139103000D02*
X101574500Y-139103000D01*
G75*
G02*
X101625500Y-139154000I0J-51000D01*
G01*
X101625500Y-140754000D01*
G75*
G02*
X101574500Y-140805000I-51000J0D01*
G01*
X99974500Y-140805000D01*
G75*
G02*
X99923500Y-140754000I0J51000D01*
G01*
X99923500Y-139154000D01*
G75*
G02*
X99974500Y-139103000I51000J0D01*
G01*
G37*
D16*
X102425500Y-58341250D03*
X97345500Y-58341250D03*
X99885500Y-58341250D03*
D17*
X99885500Y-54391250D03*
X95285500Y-60391250D03*
X104485500Y-60391250D03*
G36*
G01*
X112045876Y-140811000D02*
X112998124Y-140811000D01*
G75*
G02*
X113273000Y-141085876I0J-274876D01*
G01*
X113273000Y-141663124D01*
G75*
G02*
X112998124Y-141938000I-274876J0D01*
G01*
X112045876Y-141938000D01*
G75*
G02*
X111771000Y-141663124I0J274876D01*
G01*
X111771000Y-141085876D01*
G75*
G02*
X112045876Y-140811000I274876J0D01*
G01*
G37*
G36*
G01*
X112045876Y-138986000D02*
X112998124Y-138986000D01*
G75*
G02*
X113273000Y-139260876I0J-274876D01*
G01*
X113273000Y-139838124D01*
G75*
G02*
X112998124Y-140113000I-274876J0D01*
G01*
X112045876Y-140113000D01*
G75*
G02*
X111771000Y-139838124I0J274876D01*
G01*
X111771000Y-139260876D01*
G75*
G02*
X112045876Y-138986000I274876J0D01*
G01*
G37*
G36*
G01*
X104362376Y-140874500D02*
X105314624Y-140874500D01*
G75*
G02*
X105589500Y-141149376I0J-274876D01*
G01*
X105589500Y-141726624D01*
G75*
G02*
X105314624Y-142001500I-274876J0D01*
G01*
X104362376Y-142001500D01*
G75*
G02*
X104087500Y-141726624I0J274876D01*
G01*
X104087500Y-141149376D01*
G75*
G02*
X104362376Y-140874500I274876J0D01*
G01*
G37*
G36*
G01*
X104362376Y-139049500D02*
X105314624Y-139049500D01*
G75*
G02*
X105589500Y-139324376I0J-274876D01*
G01*
X105589500Y-139901624D01*
G75*
G02*
X105314624Y-140176500I-274876J0D01*
G01*
X104362376Y-140176500D01*
G75*
G02*
X104087500Y-139901624I0J274876D01*
G01*
X104087500Y-139324376D01*
G75*
G02*
X104362376Y-139049500I274876J0D01*
G01*
G37*
G36*
G01*
X96424876Y-140961500D02*
X97377124Y-140961500D01*
G75*
G02*
X97652000Y-141236376I0J-274876D01*
G01*
X97652000Y-141813624D01*
G75*
G02*
X97377124Y-142088500I-274876J0D01*
G01*
X96424876Y-142088500D01*
G75*
G02*
X96150000Y-141813624I0J274876D01*
G01*
X96150000Y-141236376D01*
G75*
G02*
X96424876Y-140961500I274876J0D01*
G01*
G37*
G36*
G01*
X96424876Y-139136500D02*
X97377124Y-139136500D01*
G75*
G02*
X97652000Y-139411376I0J-274876D01*
G01*
X97652000Y-139988624D01*
G75*
G02*
X97377124Y-140263500I-274876J0D01*
G01*
X96424876Y-140263500D01*
G75*
G02*
X96150000Y-139988624I0J274876D01*
G01*
X96150000Y-139411376D01*
G75*
G02*
X96424876Y-139136500I274876J0D01*
G01*
G37*
D18*
X125158500Y-146812000D03*
X127698500Y-146812000D03*
X130238500Y-146812000D03*
G36*
G01*
X131928500Y-145911000D02*
X133628500Y-145911000D01*
G75*
G02*
X133679500Y-145962000I0J-51000D01*
G01*
X133679500Y-147662000D01*
G75*
G02*
X133628500Y-147713000I-51000J0D01*
G01*
X131928500Y-147713000D01*
G75*
G02*
X131877500Y-147662000I0J51000D01*
G01*
X131877500Y-145962000D01*
G75*
G02*
X131928500Y-145911000I51000J0D01*
G01*
G37*
D19*
X65050000Y-131064000D03*
X65050000Y-143764000D03*
X65050000Y-137414000D03*
X81280000Y-131064000D03*
X81280000Y-143764000D03*
X81280000Y-137414000D03*
D20*
X66565000Y-54059000D03*
D21*
X72965000Y-52959000D03*
X71765000Y-60259000D03*
X66565000Y-60259000D03*
X63365000Y-60259000D03*
X62865000Y-52959000D03*
D22*
X90074000Y-60568000D03*
X78034000Y-60568000D03*
D23*
X82804000Y-63278000D03*
X85304000Y-63278000D03*
X85304000Y-65278000D03*
G36*
G01*
X83654000Y-66179000D02*
X81954000Y-66179000D01*
G75*
G02*
X81903000Y-66128000I0J51000D01*
G01*
X81903000Y-64428000D01*
G75*
G02*
X81954000Y-64377000I51000J0D01*
G01*
X83654000Y-64377000D01*
G75*
G02*
X83705000Y-64428000I0J-51000D01*
G01*
X83705000Y-66128000D01*
G75*
G02*
X83654000Y-66179000I-51000J0D01*
G01*
G37*
D14*
X145000000Y-115000000D03*
X55000000Y-75000000D03*
X145000000Y-75000000D03*
X55000000Y-115000000D03*
G36*
G01*
X112021500Y-144544000D02*
X113022500Y-144544000D01*
G75*
G02*
X113298000Y-144819500I0J-275500D01*
G01*
X113298000Y-145370500D01*
G75*
G02*
X113022500Y-145646000I-275500J0D01*
G01*
X112021500Y-145646000D01*
G75*
G02*
X111746000Y-145370500I0J275500D01*
G01*
X111746000Y-144819500D01*
G75*
G02*
X112021500Y-144544000I275500J0D01*
G01*
G37*
G36*
G01*
X112021500Y-142644000D02*
X113022500Y-142644000D01*
G75*
G02*
X113298000Y-142919500I0J-275500D01*
G01*
X113298000Y-143470500D01*
G75*
G02*
X113022500Y-143746000I-275500J0D01*
G01*
X112021500Y-143746000D01*
G75*
G02*
X111746000Y-143470500I0J275500D01*
G01*
X111746000Y-142919500D01*
G75*
G02*
X112021500Y-142644000I275500J0D01*
G01*
G37*
G36*
G01*
X104338000Y-144544000D02*
X105339000Y-144544000D01*
G75*
G02*
X105614500Y-144819500I0J-275500D01*
G01*
X105614500Y-145370500D01*
G75*
G02*
X105339000Y-145646000I-275500J0D01*
G01*
X104338000Y-145646000D01*
G75*
G02*
X104062500Y-145370500I0J275500D01*
G01*
X104062500Y-144819500D01*
G75*
G02*
X104338000Y-144544000I275500J0D01*
G01*
G37*
G36*
G01*
X104338000Y-142644000D02*
X105339000Y-142644000D01*
G75*
G02*
X105614500Y-142919500I0J-275500D01*
G01*
X105614500Y-143470500D01*
G75*
G02*
X105339000Y-143746000I-275500J0D01*
G01*
X104338000Y-143746000D01*
G75*
G02*
X104062500Y-143470500I0J275500D01*
G01*
X104062500Y-142919500D01*
G75*
G02*
X104338000Y-142644000I275500J0D01*
G01*
G37*
G36*
G01*
X96400500Y-144671000D02*
X97401500Y-144671000D01*
G75*
G02*
X97677000Y-144946500I0J-275500D01*
G01*
X97677000Y-145497500D01*
G75*
G02*
X97401500Y-145773000I-275500J0D01*
G01*
X96400500Y-145773000D01*
G75*
G02*
X96125000Y-145497500I0J275500D01*
G01*
X96125000Y-144946500D01*
G75*
G02*
X96400500Y-144671000I275500J0D01*
G01*
G37*
G36*
G01*
X96400500Y-142771000D02*
X97401500Y-142771000D01*
G75*
G02*
X97677000Y-143046500I0J-275500D01*
G01*
X97677000Y-143597500D01*
G75*
G02*
X97401500Y-143873000I-275500J0D01*
G01*
X96400500Y-143873000D01*
G75*
G02*
X96125000Y-143597500I0J275500D01*
G01*
X96125000Y-143046500D01*
G75*
G02*
X96400500Y-142771000I275500J0D01*
G01*
G37*
D24*
X93472000Y-125349000D03*
X93472000Y-124079000D03*
X94742000Y-125349000D03*
X94742000Y-124079000D03*
X96012000Y-125349000D03*
X96012000Y-124079000D03*
G36*
G01*
X125966000Y-127134500D02*
X125966000Y-128135500D01*
G75*
G02*
X125690500Y-128411000I-275500J0D01*
G01*
X125139500Y-128411000D01*
G75*
G02*
X124864000Y-128135500I0J275500D01*
G01*
X124864000Y-127134500D01*
G75*
G02*
X125139500Y-126859000I275500J0D01*
G01*
X125690500Y-126859000D01*
G75*
G02*
X125966000Y-127134500I0J-275500D01*
G01*
G37*
G36*
G01*
X127866000Y-127134500D02*
X127866000Y-128135500D01*
G75*
G02*
X127590500Y-128411000I-275500J0D01*
G01*
X127039500Y-128411000D01*
G75*
G02*
X126764000Y-128135500I0J275500D01*
G01*
X126764000Y-127134500D01*
G75*
G02*
X127039500Y-126859000I275500J0D01*
G01*
X127590500Y-126859000D01*
G75*
G02*
X127866000Y-127134500I0J-275500D01*
G01*
G37*
D25*
G36*
X145749287Y-100257256D02*
G01*
X145749437Y-100259077D01*
X145744650Y-100270635D01*
X145723653Y-100376192D01*
X145723653Y-100483808D01*
X145744650Y-100589365D01*
X145749437Y-100600923D01*
X145749176Y-100602906D01*
X145747328Y-100603671D01*
X145745825Y-100602631D01*
X145737262Y-100586609D01*
X145721967Y-100567972D01*
X145703330Y-100552677D01*
X145682066Y-100541312D01*
X145658991Y-100534312D01*
X145635000Y-100531949D01*
X145611009Y-100534312D01*
X145587934Y-100541312D01*
X145566670Y-100552677D01*
X145548033Y-100567972D01*
X145532738Y-100586609D01*
X145524175Y-100602631D01*
X145522476Y-100603687D01*
X145520713Y-100602744D01*
X145520563Y-100600923D01*
X145525350Y-100589365D01*
X145546347Y-100483808D01*
X145546347Y-100376192D01*
X145525350Y-100270635D01*
X145520563Y-100259077D01*
X145520824Y-100257094D01*
X145522672Y-100256329D01*
X145524175Y-100257369D01*
X145532738Y-100273391D01*
X145548033Y-100292028D01*
X145566670Y-100307323D01*
X145587934Y-100318688D01*
X145611009Y-100325688D01*
X145635000Y-100328051D01*
X145658991Y-100325688D01*
X145682066Y-100318688D01*
X145703330Y-100307323D01*
X145721967Y-100292028D01*
X145737262Y-100273391D01*
X145745825Y-100257369D01*
X145747524Y-100256313D01*
X145749287Y-100257256D01*
G37*
G36*
X146442906Y-99680824D02*
G01*
X146443671Y-99682672D01*
X146442631Y-99684175D01*
X146426609Y-99692738D01*
X146407972Y-99708033D01*
X146392677Y-99726670D01*
X146381312Y-99747934D01*
X146374312Y-99771009D01*
X146371949Y-99795000D01*
X146374312Y-99818991D01*
X146381312Y-99842066D01*
X146392677Y-99863330D01*
X146407972Y-99881967D01*
X146426609Y-99897262D01*
X146442631Y-99905825D01*
X146443687Y-99907524D01*
X146442744Y-99909287D01*
X146440923Y-99909437D01*
X146429365Y-99904650D01*
X146323808Y-99883653D01*
X146216192Y-99883653D01*
X146110635Y-99904650D01*
X146099077Y-99909437D01*
X146097094Y-99909176D01*
X146096329Y-99907328D01*
X146097369Y-99905825D01*
X146113391Y-99897262D01*
X146132028Y-99881967D01*
X146147323Y-99863330D01*
X146158688Y-99842066D01*
X146165688Y-99818991D01*
X146168051Y-99795000D01*
X146165688Y-99771009D01*
X146158688Y-99747934D01*
X146147323Y-99726670D01*
X146132028Y-99708033D01*
X146113391Y-99692738D01*
X146097369Y-99684175D01*
X146096313Y-99682476D01*
X146097256Y-99680713D01*
X146099077Y-99680563D01*
X146110635Y-99685350D01*
X146216192Y-99706347D01*
X146323808Y-99706347D01*
X146429365Y-99685350D01*
X146440923Y-99680563D01*
X146442906Y-99680824D01*
G37*
G36*
X145172906Y-99680824D02*
G01*
X145173671Y-99682672D01*
X145172631Y-99684175D01*
X145156609Y-99692738D01*
X145137972Y-99708033D01*
X145122677Y-99726670D01*
X145111312Y-99747934D01*
X145104312Y-99771009D01*
X145101949Y-99795000D01*
X145104312Y-99818991D01*
X145111312Y-99842066D01*
X145122677Y-99863330D01*
X145137972Y-99881967D01*
X145156609Y-99897262D01*
X145172631Y-99905825D01*
X145173687Y-99907524D01*
X145172744Y-99909287D01*
X145170923Y-99909437D01*
X145159365Y-99904650D01*
X145053808Y-99883653D01*
X144946192Y-99883653D01*
X144840635Y-99904650D01*
X144829077Y-99909437D01*
X144827094Y-99909176D01*
X144826329Y-99907328D01*
X144827369Y-99905825D01*
X144843391Y-99897262D01*
X144862028Y-99881967D01*
X144877323Y-99863330D01*
X144888688Y-99842066D01*
X144895688Y-99818991D01*
X144898051Y-99795000D01*
X144895688Y-99771009D01*
X144888688Y-99747934D01*
X144877323Y-99726670D01*
X144862028Y-99708033D01*
X144843391Y-99692738D01*
X144827369Y-99684175D01*
X144826313Y-99682476D01*
X144827256Y-99680713D01*
X144829077Y-99680563D01*
X144840635Y-99685350D01*
X144946192Y-99706347D01*
X145053808Y-99706347D01*
X145159365Y-99685350D01*
X145170923Y-99680563D01*
X145172906Y-99680824D01*
G37*
G36*
X145749287Y-98987256D02*
G01*
X145749437Y-98989077D01*
X145744650Y-99000635D01*
X145723653Y-99106192D01*
X145723653Y-99213808D01*
X145744650Y-99319365D01*
X145749437Y-99330923D01*
X145749176Y-99332906D01*
X145747328Y-99333671D01*
X145745825Y-99332631D01*
X145737262Y-99316609D01*
X145721967Y-99297972D01*
X145703330Y-99282677D01*
X145682066Y-99271312D01*
X145658991Y-99264312D01*
X145635000Y-99261949D01*
X145611009Y-99264312D01*
X145587934Y-99271312D01*
X145566670Y-99282677D01*
X145548033Y-99297972D01*
X145532738Y-99316609D01*
X145524175Y-99332631D01*
X145522476Y-99333687D01*
X145520713Y-99332744D01*
X145520563Y-99330923D01*
X145525350Y-99319365D01*
X145546347Y-99213808D01*
X145546347Y-99106192D01*
X145525350Y-99000635D01*
X145520563Y-98989077D01*
X145520824Y-98987094D01*
X145522672Y-98986329D01*
X145524175Y-98987369D01*
X145532738Y-99003391D01*
X145548033Y-99022028D01*
X145566670Y-99037323D01*
X145587934Y-99048688D01*
X145611009Y-99055688D01*
X145635000Y-99058051D01*
X145658991Y-99055688D01*
X145682066Y-99048688D01*
X145703330Y-99037323D01*
X145721967Y-99022028D01*
X145737262Y-99003391D01*
X145745825Y-98987369D01*
X145747524Y-98986313D01*
X145749287Y-98987256D01*
G37*
G36*
X146442906Y-98410824D02*
G01*
X146443671Y-98412672D01*
X146442631Y-98414175D01*
X146426609Y-98422738D01*
X146407972Y-98438033D01*
X146392677Y-98456670D01*
X146381312Y-98477934D01*
X146374312Y-98501009D01*
X146371949Y-98525000D01*
X146374312Y-98548991D01*
X146381312Y-98572066D01*
X146392677Y-98593330D01*
X146407972Y-98611967D01*
X146426609Y-98627262D01*
X146442631Y-98635825D01*
X146443687Y-98637524D01*
X146442744Y-98639287D01*
X146440923Y-98639437D01*
X146429365Y-98634650D01*
X146323808Y-98613653D01*
X146216192Y-98613653D01*
X146110635Y-98634650D01*
X146099077Y-98639437D01*
X146097094Y-98639176D01*
X146096329Y-98637328D01*
X146097369Y-98635825D01*
X146113391Y-98627262D01*
X146132028Y-98611967D01*
X146147323Y-98593330D01*
X146158688Y-98572066D01*
X146165688Y-98548991D01*
X146168051Y-98525000D01*
X146165688Y-98501009D01*
X146158688Y-98477934D01*
X146147323Y-98456670D01*
X146132028Y-98438033D01*
X146113391Y-98422738D01*
X146097369Y-98414175D01*
X146096313Y-98412476D01*
X146097256Y-98410713D01*
X146099077Y-98410563D01*
X146110635Y-98415350D01*
X146216192Y-98436347D01*
X146323808Y-98436347D01*
X146429365Y-98415350D01*
X146440923Y-98410563D01*
X146442906Y-98410824D01*
G37*
G36*
X145172906Y-98410824D02*
G01*
X145173671Y-98412672D01*
X145172631Y-98414175D01*
X145156609Y-98422738D01*
X145137972Y-98438033D01*
X145122677Y-98456670D01*
X145111312Y-98477934D01*
X145104312Y-98501009D01*
X145101949Y-98525000D01*
X145104312Y-98548991D01*
X145111312Y-98572066D01*
X145122677Y-98593330D01*
X145137972Y-98611967D01*
X145156609Y-98627262D01*
X145172631Y-98635825D01*
X145173687Y-98637524D01*
X145172744Y-98639287D01*
X145170923Y-98639437D01*
X145159365Y-98634650D01*
X145053808Y-98613653D01*
X144946192Y-98613653D01*
X144840635Y-98634650D01*
X144829077Y-98639437D01*
X144827094Y-98639176D01*
X144826329Y-98637328D01*
X144827369Y-98635825D01*
X144843391Y-98627262D01*
X144862028Y-98611967D01*
X144877323Y-98593330D01*
X144888688Y-98572066D01*
X144895688Y-98548991D01*
X144898051Y-98525000D01*
X144895688Y-98501009D01*
X144888688Y-98477934D01*
X144877323Y-98456670D01*
X144862028Y-98438033D01*
X144843391Y-98422738D01*
X144827369Y-98414175D01*
X144826313Y-98412476D01*
X144827256Y-98410713D01*
X144829077Y-98410563D01*
X144840635Y-98415350D01*
X144946192Y-98436347D01*
X145053808Y-98436347D01*
X145159365Y-98415350D01*
X145170923Y-98410563D01*
X145172906Y-98410824D01*
G37*
G36*
X145749287Y-97717256D02*
G01*
X145749437Y-97719077D01*
X145744650Y-97730635D01*
X145723653Y-97836192D01*
X145723653Y-97943808D01*
X145744650Y-98049365D01*
X145749437Y-98060923D01*
X145749176Y-98062906D01*
X145747328Y-98063671D01*
X145745825Y-98062631D01*
X145737262Y-98046609D01*
X145721967Y-98027972D01*
X145703330Y-98012677D01*
X145682066Y-98001312D01*
X145658991Y-97994312D01*
X145635000Y-97991949D01*
X145611009Y-97994312D01*
X145587934Y-98001312D01*
X145566670Y-98012677D01*
X145548033Y-98027972D01*
X145532738Y-98046609D01*
X145524175Y-98062631D01*
X145522476Y-98063687D01*
X145520713Y-98062744D01*
X145520563Y-98060923D01*
X145525350Y-98049365D01*
X145546347Y-97943808D01*
X145546347Y-97836192D01*
X145525350Y-97730635D01*
X145520563Y-97719077D01*
X145520824Y-97717094D01*
X145522672Y-97716329D01*
X145524175Y-97717369D01*
X145532738Y-97733391D01*
X145548033Y-97752028D01*
X145566670Y-97767323D01*
X145587934Y-97778688D01*
X145611009Y-97785688D01*
X145635000Y-97788051D01*
X145658991Y-97785688D01*
X145682066Y-97778688D01*
X145703330Y-97767323D01*
X145721967Y-97752028D01*
X145737262Y-97733391D01*
X145745825Y-97717369D01*
X145747524Y-97716313D01*
X145749287Y-97717256D01*
G37*
G36*
X146442906Y-97140824D02*
G01*
X146443671Y-97142672D01*
X146442631Y-97144175D01*
X146426609Y-97152738D01*
X146407972Y-97168033D01*
X146392677Y-97186670D01*
X146381312Y-97207934D01*
X146374312Y-97231009D01*
X146371949Y-97255000D01*
X146374312Y-97278991D01*
X146381312Y-97302066D01*
X146392677Y-97323330D01*
X146407972Y-97341967D01*
X146426609Y-97357262D01*
X146442631Y-97365825D01*
X146443687Y-97367524D01*
X146442744Y-97369287D01*
X146440923Y-97369437D01*
X146429365Y-97364650D01*
X146323808Y-97343653D01*
X146216192Y-97343653D01*
X146110635Y-97364650D01*
X146099077Y-97369437D01*
X146097094Y-97369176D01*
X146096329Y-97367328D01*
X146097369Y-97365825D01*
X146113391Y-97357262D01*
X146132028Y-97341967D01*
X146147323Y-97323330D01*
X146158688Y-97302066D01*
X146165688Y-97278991D01*
X146168051Y-97255000D01*
X146165688Y-97231009D01*
X146158688Y-97207934D01*
X146147323Y-97186670D01*
X146132028Y-97168033D01*
X146113391Y-97152738D01*
X146097369Y-97144175D01*
X146096313Y-97142476D01*
X146097256Y-97140713D01*
X146099077Y-97140563D01*
X146110635Y-97145350D01*
X146216192Y-97166347D01*
X146323808Y-97166347D01*
X146429365Y-97145350D01*
X146440923Y-97140563D01*
X146442906Y-97140824D01*
G37*
G36*
X145172906Y-97140824D02*
G01*
X145173671Y-97142672D01*
X145172631Y-97144175D01*
X145156609Y-97152738D01*
X145137972Y-97168033D01*
X145122677Y-97186670D01*
X145111312Y-97207934D01*
X145104312Y-97231009D01*
X145101949Y-97255000D01*
X145104312Y-97278991D01*
X145111312Y-97302066D01*
X145122677Y-97323330D01*
X145137972Y-97341967D01*
X145156609Y-97357262D01*
X145172631Y-97365825D01*
X145173687Y-97367524D01*
X145172744Y-97369287D01*
X145170923Y-97369437D01*
X145159365Y-97364650D01*
X145053808Y-97343653D01*
X144946192Y-97343653D01*
X144840635Y-97364650D01*
X144829077Y-97369437D01*
X144827094Y-97369176D01*
X144826329Y-97367328D01*
X144827369Y-97365825D01*
X144843391Y-97357262D01*
X144862028Y-97341967D01*
X144877323Y-97323330D01*
X144888688Y-97302066D01*
X144895688Y-97278991D01*
X144898051Y-97255000D01*
X144895688Y-97231009D01*
X144888688Y-97207934D01*
X144877323Y-97186670D01*
X144862028Y-97168033D01*
X144843391Y-97152738D01*
X144827369Y-97144175D01*
X144826313Y-97142476D01*
X144827256Y-97140713D01*
X144829077Y-97140563D01*
X144840635Y-97145350D01*
X144946192Y-97166347D01*
X145053808Y-97166347D01*
X145159365Y-97145350D01*
X145170923Y-97140563D01*
X145172906Y-97140824D01*
G37*
G36*
X145749287Y-96447256D02*
G01*
X145749437Y-96449077D01*
X145744650Y-96460635D01*
X145723653Y-96566192D01*
X145723653Y-96673808D01*
X145744650Y-96779365D01*
X145749437Y-96790923D01*
X145749176Y-96792906D01*
X145747328Y-96793671D01*
X145745825Y-96792631D01*
X145737262Y-96776609D01*
X145721967Y-96757972D01*
X145703330Y-96742677D01*
X145682066Y-96731312D01*
X145658991Y-96724312D01*
X145635000Y-96721949D01*
X145611009Y-96724312D01*
X145587934Y-96731312D01*
X145566670Y-96742677D01*
X145548033Y-96757972D01*
X145532738Y-96776609D01*
X145524175Y-96792631D01*
X145522476Y-96793687D01*
X145520713Y-96792744D01*
X145520563Y-96790923D01*
X145525350Y-96779365D01*
X145546347Y-96673808D01*
X145546347Y-96566192D01*
X145525350Y-96460635D01*
X145520563Y-96449077D01*
X145520824Y-96447094D01*
X145522672Y-96446329D01*
X145524175Y-96447369D01*
X145532738Y-96463391D01*
X145548033Y-96482028D01*
X145566670Y-96497323D01*
X145587934Y-96508688D01*
X145611009Y-96515688D01*
X145635000Y-96518051D01*
X145658991Y-96515688D01*
X145682066Y-96508688D01*
X145703330Y-96497323D01*
X145721967Y-96482028D01*
X145737262Y-96463391D01*
X145745825Y-96447369D01*
X145747524Y-96446313D01*
X145749287Y-96447256D01*
G37*
G36*
X146442906Y-95870824D02*
G01*
X146443671Y-95872672D01*
X146442631Y-95874175D01*
X146426609Y-95882738D01*
X146407972Y-95898033D01*
X146392677Y-95916670D01*
X146381312Y-95937934D01*
X146374312Y-95961009D01*
X146371949Y-95985000D01*
X146374312Y-96008991D01*
X146381312Y-96032066D01*
X146392677Y-96053330D01*
X146407972Y-96071967D01*
X146426609Y-96087262D01*
X146442631Y-96095825D01*
X146443687Y-96097524D01*
X146442744Y-96099287D01*
X146440923Y-96099437D01*
X146429365Y-96094650D01*
X146323808Y-96073653D01*
X146216192Y-96073653D01*
X146110635Y-96094650D01*
X146099077Y-96099437D01*
X146097094Y-96099176D01*
X146096329Y-96097328D01*
X146097369Y-96095825D01*
X146113391Y-96087262D01*
X146132028Y-96071967D01*
X146147323Y-96053330D01*
X146158688Y-96032066D01*
X146165688Y-96008991D01*
X146168051Y-95985000D01*
X146165688Y-95961009D01*
X146158688Y-95937934D01*
X146147323Y-95916670D01*
X146132028Y-95898033D01*
X146113391Y-95882738D01*
X146097369Y-95874175D01*
X146096313Y-95872476D01*
X146097256Y-95870713D01*
X146099077Y-95870563D01*
X146110635Y-95875350D01*
X146216192Y-95896347D01*
X146323808Y-95896347D01*
X146429365Y-95875350D01*
X146440923Y-95870563D01*
X146442906Y-95870824D01*
G37*
G36*
X145172906Y-95870824D02*
G01*
X145173671Y-95872672D01*
X145172631Y-95874175D01*
X145156609Y-95882738D01*
X145137972Y-95898033D01*
X145122677Y-95916670D01*
X145111312Y-95937934D01*
X145104312Y-95961009D01*
X145101949Y-95985000D01*
X145104312Y-96008991D01*
X145111312Y-96032066D01*
X145122677Y-96053330D01*
X145137972Y-96071967D01*
X145156609Y-96087262D01*
X145172631Y-96095825D01*
X145173687Y-96097524D01*
X145172744Y-96099287D01*
X145170923Y-96099437D01*
X145159365Y-96094650D01*
X145053808Y-96073653D01*
X144946192Y-96073653D01*
X144840635Y-96094650D01*
X144829077Y-96099437D01*
X144827094Y-96099176D01*
X144826329Y-96097328D01*
X144827369Y-96095825D01*
X144843391Y-96087262D01*
X144862028Y-96071967D01*
X144877323Y-96053330D01*
X144888688Y-96032066D01*
X144895688Y-96008991D01*
X144898051Y-95985000D01*
X144895688Y-95961009D01*
X144888688Y-95937934D01*
X144877323Y-95916670D01*
X144862028Y-95898033D01*
X144843391Y-95882738D01*
X144827369Y-95874175D01*
X144826313Y-95872476D01*
X144827256Y-95870713D01*
X144829077Y-95870563D01*
X144840635Y-95875350D01*
X144946192Y-95896347D01*
X145053808Y-95896347D01*
X145159365Y-95875350D01*
X145170923Y-95870563D01*
X145172906Y-95870824D01*
G37*
G36*
X145749287Y-95177256D02*
G01*
X145749437Y-95179077D01*
X145744650Y-95190635D01*
X145723653Y-95296192D01*
X145723653Y-95403808D01*
X145744650Y-95509365D01*
X145749437Y-95520923D01*
X145749176Y-95522906D01*
X145747328Y-95523671D01*
X145745825Y-95522631D01*
X145737262Y-95506609D01*
X145721967Y-95487972D01*
X145703330Y-95472677D01*
X145682066Y-95461312D01*
X145658991Y-95454312D01*
X145635000Y-95451949D01*
X145611009Y-95454312D01*
X145587934Y-95461312D01*
X145566670Y-95472677D01*
X145548033Y-95487972D01*
X145532738Y-95506609D01*
X145524175Y-95522631D01*
X145522476Y-95523687D01*
X145520713Y-95522744D01*
X145520563Y-95520923D01*
X145525350Y-95509365D01*
X145546347Y-95403808D01*
X145546347Y-95296192D01*
X145525350Y-95190635D01*
X145520563Y-95179077D01*
X145520824Y-95177094D01*
X145522672Y-95176329D01*
X145524175Y-95177369D01*
X145532738Y-95193391D01*
X145548033Y-95212028D01*
X145566670Y-95227323D01*
X145587934Y-95238688D01*
X145611009Y-95245688D01*
X145635000Y-95248051D01*
X145658991Y-95245688D01*
X145682066Y-95238688D01*
X145703330Y-95227323D01*
X145721967Y-95212028D01*
X145737262Y-95193391D01*
X145745825Y-95177369D01*
X145747524Y-95176313D01*
X145749287Y-95177256D01*
G37*
G36*
X146442906Y-94600824D02*
G01*
X146443671Y-94602672D01*
X146442631Y-94604175D01*
X146426609Y-94612738D01*
X146407972Y-94628033D01*
X146392677Y-94646670D01*
X146381312Y-94667934D01*
X146374312Y-94691009D01*
X146371949Y-94715000D01*
X146374312Y-94738991D01*
X146381312Y-94762066D01*
X146392677Y-94783330D01*
X146407972Y-94801967D01*
X146426609Y-94817262D01*
X146442631Y-94825825D01*
X146443687Y-94827524D01*
X146442744Y-94829287D01*
X146440923Y-94829437D01*
X146429365Y-94824650D01*
X146323808Y-94803653D01*
X146216192Y-94803653D01*
X146110635Y-94824650D01*
X146099077Y-94829437D01*
X146097094Y-94829176D01*
X146096329Y-94827328D01*
X146097369Y-94825825D01*
X146113391Y-94817262D01*
X146132028Y-94801967D01*
X146147323Y-94783330D01*
X146158688Y-94762066D01*
X146165688Y-94738991D01*
X146168051Y-94715000D01*
X146165688Y-94691009D01*
X146158688Y-94667934D01*
X146147323Y-94646670D01*
X146132028Y-94628033D01*
X146113391Y-94612738D01*
X146097369Y-94604175D01*
X146096313Y-94602476D01*
X146097256Y-94600713D01*
X146099077Y-94600563D01*
X146110635Y-94605350D01*
X146216192Y-94626347D01*
X146323808Y-94626347D01*
X146429365Y-94605350D01*
X146440923Y-94600563D01*
X146442906Y-94600824D01*
G37*
G36*
X145172906Y-94600824D02*
G01*
X145173671Y-94602672D01*
X145172631Y-94604175D01*
X145156609Y-94612738D01*
X145137972Y-94628033D01*
X145122677Y-94646670D01*
X145111312Y-94667934D01*
X145104312Y-94691009D01*
X145101949Y-94715000D01*
X145104312Y-94738991D01*
X145111312Y-94762066D01*
X145122677Y-94783330D01*
X145137972Y-94801967D01*
X145156609Y-94817262D01*
X145172631Y-94825825D01*
X145173687Y-94827524D01*
X145172744Y-94829287D01*
X145170923Y-94829437D01*
X145159365Y-94824650D01*
X145053808Y-94803653D01*
X144946192Y-94803653D01*
X144840635Y-94824650D01*
X144829077Y-94829437D01*
X144827094Y-94829176D01*
X144826329Y-94827328D01*
X144827369Y-94825825D01*
X144843391Y-94817262D01*
X144862028Y-94801967D01*
X144877323Y-94783330D01*
X144888688Y-94762066D01*
X144895688Y-94738991D01*
X144898051Y-94715000D01*
X144895688Y-94691009D01*
X144888688Y-94667934D01*
X144877323Y-94646670D01*
X144862028Y-94628033D01*
X144843391Y-94612738D01*
X144827369Y-94604175D01*
X144826313Y-94602476D01*
X144827256Y-94600713D01*
X144829077Y-94600563D01*
X144840635Y-94605350D01*
X144946192Y-94626347D01*
X145053808Y-94626347D01*
X145159365Y-94605350D01*
X145170923Y-94600563D01*
X145172906Y-94600824D01*
G37*
G36*
X145749287Y-93907256D02*
G01*
X145749437Y-93909077D01*
X145744650Y-93920635D01*
X145723653Y-94026192D01*
X145723653Y-94133808D01*
X145744650Y-94239365D01*
X145749437Y-94250923D01*
X145749176Y-94252906D01*
X145747328Y-94253671D01*
X145745825Y-94252631D01*
X145737262Y-94236609D01*
X145721967Y-94217972D01*
X145703330Y-94202677D01*
X145682066Y-94191312D01*
X145658991Y-94184312D01*
X145635000Y-94181949D01*
X145611009Y-94184312D01*
X145587934Y-94191312D01*
X145566670Y-94202677D01*
X145548033Y-94217972D01*
X145532738Y-94236609D01*
X145524175Y-94252631D01*
X145522476Y-94253687D01*
X145520713Y-94252744D01*
X145520563Y-94250923D01*
X145525350Y-94239365D01*
X145546347Y-94133808D01*
X145546347Y-94026192D01*
X145525350Y-93920635D01*
X145520563Y-93909077D01*
X145520824Y-93907094D01*
X145522672Y-93906329D01*
X145524175Y-93907369D01*
X145532738Y-93923391D01*
X145548033Y-93942028D01*
X145566670Y-93957323D01*
X145587934Y-93968688D01*
X145611009Y-93975688D01*
X145635000Y-93978051D01*
X145658991Y-93975688D01*
X145682066Y-93968688D01*
X145703330Y-93957323D01*
X145721967Y-93942028D01*
X145737262Y-93923391D01*
X145745825Y-93907369D01*
X145747524Y-93906313D01*
X145749287Y-93907256D01*
G37*
G36*
X145172906Y-93330824D02*
G01*
X145173671Y-93332672D01*
X145172631Y-93334175D01*
X145156609Y-93342738D01*
X145137972Y-93358033D01*
X145122677Y-93376670D01*
X145111312Y-93397934D01*
X145104312Y-93421009D01*
X145101949Y-93445000D01*
X145104312Y-93468991D01*
X145111312Y-93492066D01*
X145122677Y-93513330D01*
X145137972Y-93531967D01*
X145156609Y-93547262D01*
X145172631Y-93555825D01*
X145173687Y-93557524D01*
X145172744Y-93559287D01*
X145170923Y-93559437D01*
X145159365Y-93554650D01*
X145053808Y-93533653D01*
X144946192Y-93533653D01*
X144840635Y-93554650D01*
X144829077Y-93559437D01*
X144827094Y-93559176D01*
X144826329Y-93557328D01*
X144827369Y-93555825D01*
X144843391Y-93547262D01*
X144862028Y-93531967D01*
X144877323Y-93513330D01*
X144888688Y-93492066D01*
X144895688Y-93468991D01*
X144898051Y-93445000D01*
X144895688Y-93421009D01*
X144888688Y-93397934D01*
X144877323Y-93376670D01*
X144862028Y-93358033D01*
X144843391Y-93342738D01*
X144827369Y-93334175D01*
X144826313Y-93332476D01*
X144827256Y-93330713D01*
X144829077Y-93330563D01*
X144840635Y-93335350D01*
X144946192Y-93356347D01*
X145053808Y-93356347D01*
X145159365Y-93335350D01*
X145170923Y-93330563D01*
X145172906Y-93330824D01*
G37*
G36*
X146442906Y-93330824D02*
G01*
X146443671Y-93332672D01*
X146442631Y-93334175D01*
X146426609Y-93342738D01*
X146407972Y-93358033D01*
X146392677Y-93376670D01*
X146381312Y-93397934D01*
X146374312Y-93421009D01*
X146371949Y-93445000D01*
X146374312Y-93468991D01*
X146381312Y-93492066D01*
X146392677Y-93513330D01*
X146407972Y-93531967D01*
X146426609Y-93547262D01*
X146442631Y-93555825D01*
X146443687Y-93557524D01*
X146442744Y-93559287D01*
X146440923Y-93559437D01*
X146429365Y-93554650D01*
X146323808Y-93533653D01*
X146216192Y-93533653D01*
X146110635Y-93554650D01*
X146099077Y-93559437D01*
X146097094Y-93559176D01*
X146096329Y-93557328D01*
X146097369Y-93555825D01*
X146113391Y-93547262D01*
X146132028Y-93531967D01*
X146147323Y-93513330D01*
X146158688Y-93492066D01*
X146165688Y-93468991D01*
X146168051Y-93445000D01*
X146165688Y-93421009D01*
X146158688Y-93397934D01*
X146147323Y-93376670D01*
X146132028Y-93358033D01*
X146113391Y-93342738D01*
X146097369Y-93334175D01*
X146096313Y-93332476D01*
X146097256Y-93330713D01*
X146099077Y-93330563D01*
X146110635Y-93335350D01*
X146216192Y-93356347D01*
X146323808Y-93356347D01*
X146429365Y-93335350D01*
X146440923Y-93330563D01*
X146442906Y-93330824D01*
G37*
G36*
X145749287Y-92637256D02*
G01*
X145749437Y-92639077D01*
X145744650Y-92650635D01*
X145723653Y-92756192D01*
X145723653Y-92863808D01*
X145744650Y-92969365D01*
X145749437Y-92980923D01*
X145749176Y-92982906D01*
X145747328Y-92983671D01*
X145745825Y-92982631D01*
X145737262Y-92966609D01*
X145721967Y-92947972D01*
X145703330Y-92932677D01*
X145682066Y-92921312D01*
X145658991Y-92914312D01*
X145635000Y-92911949D01*
X145611009Y-92914312D01*
X145587934Y-92921312D01*
X145566670Y-92932677D01*
X145548033Y-92947972D01*
X145532738Y-92966609D01*
X145524175Y-92982631D01*
X145522476Y-92983687D01*
X145520713Y-92982744D01*
X145520563Y-92980923D01*
X145525350Y-92969365D01*
X145546347Y-92863808D01*
X145546347Y-92756192D01*
X145525350Y-92650635D01*
X145520563Y-92639077D01*
X145520824Y-92637094D01*
X145522672Y-92636329D01*
X145524175Y-92637369D01*
X145532738Y-92653391D01*
X145548033Y-92672028D01*
X145566670Y-92687323D01*
X145587934Y-92698688D01*
X145611009Y-92705688D01*
X145635000Y-92708051D01*
X145658991Y-92705688D01*
X145682066Y-92698688D01*
X145703330Y-92687323D01*
X145721967Y-92672028D01*
X145737262Y-92653391D01*
X145745825Y-92637369D01*
X145747524Y-92636313D01*
X145749287Y-92637256D01*
G37*
G36*
X146442906Y-92060824D02*
G01*
X146443671Y-92062672D01*
X146442631Y-92064175D01*
X146426609Y-92072738D01*
X146407972Y-92088033D01*
X146392677Y-92106670D01*
X146381312Y-92127934D01*
X146374312Y-92151009D01*
X146371949Y-92175000D01*
X146374312Y-92198991D01*
X146381312Y-92222066D01*
X146392677Y-92243330D01*
X146407972Y-92261967D01*
X146426609Y-92277262D01*
X146442631Y-92285825D01*
X146443687Y-92287524D01*
X146442744Y-92289287D01*
X146440923Y-92289437D01*
X146429365Y-92284650D01*
X146323808Y-92263653D01*
X146216192Y-92263653D01*
X146110635Y-92284650D01*
X146099077Y-92289437D01*
X146097094Y-92289176D01*
X146096329Y-92287328D01*
X146097369Y-92285825D01*
X146113391Y-92277262D01*
X146132028Y-92261967D01*
X146147323Y-92243330D01*
X146158688Y-92222066D01*
X146165688Y-92198991D01*
X146168051Y-92175000D01*
X146165688Y-92151009D01*
X146158688Y-92127934D01*
X146147323Y-92106670D01*
X146132028Y-92088033D01*
X146113391Y-92072738D01*
X146097369Y-92064175D01*
X146096313Y-92062476D01*
X146097256Y-92060713D01*
X146099077Y-92060563D01*
X146110635Y-92065350D01*
X146216192Y-92086347D01*
X146323808Y-92086347D01*
X146429365Y-92065350D01*
X146440923Y-92060563D01*
X146442906Y-92060824D01*
G37*
G36*
X145172906Y-92060824D02*
G01*
X145173671Y-92062672D01*
X145172631Y-92064175D01*
X145156609Y-92072738D01*
X145137972Y-92088033D01*
X145122677Y-92106670D01*
X145111312Y-92127934D01*
X145104312Y-92151009D01*
X145101949Y-92175000D01*
X145104312Y-92198991D01*
X145111312Y-92222066D01*
X145122677Y-92243330D01*
X145137972Y-92261967D01*
X145156609Y-92277262D01*
X145172631Y-92285825D01*
X145173687Y-92287524D01*
X145172744Y-92289287D01*
X145170923Y-92289437D01*
X145159365Y-92284650D01*
X145053808Y-92263653D01*
X144946192Y-92263653D01*
X144840635Y-92284650D01*
X144829077Y-92289437D01*
X144827094Y-92289176D01*
X144826329Y-92287328D01*
X144827369Y-92285825D01*
X144843391Y-92277262D01*
X144862028Y-92261967D01*
X144877323Y-92243330D01*
X144888688Y-92222066D01*
X144895688Y-92198991D01*
X144898051Y-92175000D01*
X144895688Y-92151009D01*
X144888688Y-92127934D01*
X144877323Y-92106670D01*
X144862028Y-92088033D01*
X144843391Y-92072738D01*
X144827369Y-92064175D01*
X144826313Y-92062476D01*
X144827256Y-92060713D01*
X144829077Y-92060563D01*
X144840635Y-92065350D01*
X144946192Y-92086347D01*
X145053808Y-92086347D01*
X145159365Y-92065350D01*
X145170923Y-92060563D01*
X145172906Y-92060824D01*
G37*
G36*
X145749287Y-91367256D02*
G01*
X145749437Y-91369077D01*
X145744650Y-91380635D01*
X145723653Y-91486192D01*
X145723653Y-91593808D01*
X145744650Y-91699365D01*
X145749437Y-91710923D01*
X145749176Y-91712906D01*
X145747328Y-91713671D01*
X145745825Y-91712631D01*
X145737262Y-91696609D01*
X145721967Y-91677972D01*
X145703330Y-91662677D01*
X145682066Y-91651312D01*
X145658991Y-91644312D01*
X145635000Y-91641949D01*
X145611009Y-91644312D01*
X145587934Y-91651312D01*
X145566670Y-91662677D01*
X145548033Y-91677972D01*
X145532738Y-91696609D01*
X145524175Y-91712631D01*
X145522476Y-91713687D01*
X145520713Y-91712744D01*
X145520563Y-91710923D01*
X145525350Y-91699365D01*
X145546347Y-91593808D01*
X145546347Y-91486192D01*
X145525350Y-91380635D01*
X145520563Y-91369077D01*
X145520824Y-91367094D01*
X145522672Y-91366329D01*
X145524175Y-91367369D01*
X145532738Y-91383391D01*
X145548033Y-91402028D01*
X145566670Y-91417323D01*
X145587934Y-91428688D01*
X145611009Y-91435688D01*
X145635000Y-91438051D01*
X145658991Y-91435688D01*
X145682066Y-91428688D01*
X145703330Y-91417323D01*
X145721967Y-91402028D01*
X145737262Y-91383391D01*
X145745825Y-91367369D01*
X145747524Y-91366313D01*
X145749287Y-91367256D01*
G37*
G36*
X145172906Y-90790824D02*
G01*
X145173671Y-90792672D01*
X145172631Y-90794175D01*
X145156609Y-90802738D01*
X145137972Y-90818033D01*
X145122677Y-90836670D01*
X145111312Y-90857934D01*
X145104312Y-90881009D01*
X145101949Y-90905000D01*
X145104312Y-90928991D01*
X145111312Y-90952066D01*
X145122677Y-90973330D01*
X145137972Y-90991967D01*
X145156609Y-91007262D01*
X145172631Y-91015825D01*
X145173687Y-91017524D01*
X145172744Y-91019287D01*
X145170923Y-91019437D01*
X145159365Y-91014650D01*
X145053808Y-90993653D01*
X144946192Y-90993653D01*
X144840635Y-91014650D01*
X144829077Y-91019437D01*
X144827094Y-91019176D01*
X144826329Y-91017328D01*
X144827369Y-91015825D01*
X144843391Y-91007262D01*
X144862028Y-90991967D01*
X144877323Y-90973330D01*
X144888688Y-90952066D01*
X144895688Y-90928991D01*
X144898051Y-90905000D01*
X144895688Y-90881009D01*
X144888688Y-90857934D01*
X144877323Y-90836670D01*
X144862028Y-90818033D01*
X144843391Y-90802738D01*
X144827369Y-90794175D01*
X144826313Y-90792476D01*
X144827256Y-90790713D01*
X144829077Y-90790563D01*
X144840635Y-90795350D01*
X144946192Y-90816347D01*
X145053808Y-90816347D01*
X145159365Y-90795350D01*
X145170923Y-90790563D01*
X145172906Y-90790824D01*
G37*
G36*
X146442906Y-90790824D02*
G01*
X146443671Y-90792672D01*
X146442631Y-90794175D01*
X146426609Y-90802738D01*
X146407972Y-90818033D01*
X146392677Y-90836670D01*
X146381312Y-90857934D01*
X146374312Y-90881009D01*
X146371949Y-90905000D01*
X146374312Y-90928991D01*
X146381312Y-90952066D01*
X146392677Y-90973330D01*
X146407972Y-90991967D01*
X146426609Y-91007262D01*
X146442631Y-91015825D01*
X146443687Y-91017524D01*
X146442744Y-91019287D01*
X146440923Y-91019437D01*
X146429365Y-91014650D01*
X146323808Y-90993653D01*
X146216192Y-90993653D01*
X146110635Y-91014650D01*
X146099077Y-91019437D01*
X146097094Y-91019176D01*
X146096329Y-91017328D01*
X146097369Y-91015825D01*
X146113391Y-91007262D01*
X146132028Y-90991967D01*
X146147323Y-90973330D01*
X146158688Y-90952066D01*
X146165688Y-90928991D01*
X146168051Y-90905000D01*
X146165688Y-90881009D01*
X146158688Y-90857934D01*
X146147323Y-90836670D01*
X146132028Y-90818033D01*
X146113391Y-90802738D01*
X146097369Y-90794175D01*
X146096313Y-90792476D01*
X146097256Y-90790713D01*
X146099077Y-90790563D01*
X146110635Y-90795350D01*
X146216192Y-90816347D01*
X146323808Y-90816347D01*
X146429365Y-90795350D01*
X146440923Y-90790563D01*
X146442906Y-90790824D01*
G37*
G36*
X145749287Y-90097256D02*
G01*
X145749437Y-90099077D01*
X145744650Y-90110635D01*
X145723653Y-90216192D01*
X145723653Y-90323808D01*
X145744650Y-90429365D01*
X145749437Y-90440923D01*
X145749176Y-90442906D01*
X145747328Y-90443671D01*
X145745825Y-90442631D01*
X145737262Y-90426609D01*
X145721967Y-90407972D01*
X145703330Y-90392677D01*
X145682066Y-90381312D01*
X145658991Y-90374312D01*
X145635000Y-90371949D01*
X145611009Y-90374312D01*
X145587934Y-90381312D01*
X145566670Y-90392677D01*
X145548033Y-90407972D01*
X145532738Y-90426609D01*
X145524175Y-90442631D01*
X145522476Y-90443687D01*
X145520713Y-90442744D01*
X145520563Y-90440923D01*
X145525350Y-90429365D01*
X145546347Y-90323808D01*
X145546347Y-90216192D01*
X145525350Y-90110635D01*
X145520563Y-90099077D01*
X145520824Y-90097094D01*
X145522672Y-90096329D01*
X145524175Y-90097369D01*
X145532738Y-90113391D01*
X145548033Y-90132028D01*
X145566670Y-90147323D01*
X145587934Y-90158688D01*
X145611009Y-90165688D01*
X145635000Y-90168051D01*
X145658991Y-90165688D01*
X145682066Y-90158688D01*
X145703330Y-90147323D01*
X145721967Y-90132028D01*
X145737262Y-90113391D01*
X145745825Y-90097369D01*
X145747524Y-90096313D01*
X145749287Y-90097256D01*
G37*
G36*
X145323654Y-89550000D02*
G01*
X145323654Y-89552000D01*
X145322118Y-89552990D01*
X145297931Y-89555372D01*
X145274856Y-89562372D01*
X145253592Y-89573737D01*
X145234955Y-89589032D01*
X145219660Y-89607669D01*
X145208295Y-89628933D01*
X145201295Y-89652008D01*
X145198932Y-89675998D01*
X145201295Y-89699990D01*
X145208295Y-89723065D01*
X145219660Y-89744329D01*
X145234955Y-89762966D01*
X145253670Y-89778324D01*
X145257998Y-89781216D01*
X145258883Y-89783010D01*
X145257772Y-89784673D01*
X145256122Y-89784727D01*
X145159365Y-89744650D01*
X145053808Y-89723653D01*
X144946192Y-89723653D01*
X144840635Y-89744650D01*
X144743878Y-89784727D01*
X144741895Y-89784466D01*
X144741130Y-89782618D01*
X144742002Y-89781216D01*
X144746330Y-89778324D01*
X144765045Y-89762965D01*
X144780340Y-89744328D01*
X144791705Y-89723065D01*
X144798705Y-89699990D01*
X144801068Y-89675998D01*
X144798705Y-89652007D01*
X144791705Y-89628932D01*
X144780340Y-89607669D01*
X144765044Y-89589032D01*
X144746407Y-89573737D01*
X144725144Y-89562372D01*
X144702069Y-89555372D01*
X144677882Y-89552990D01*
X144676256Y-89551825D01*
X144676452Y-89549835D01*
X144678078Y-89549000D01*
X145321922Y-89549000D01*
X145323654Y-89550000D01*
G37*
G36*
X146442906Y-89520824D02*
G01*
X146443671Y-89522672D01*
X146442631Y-89524175D01*
X146426609Y-89532738D01*
X146407972Y-89548033D01*
X146392677Y-89566670D01*
X146381312Y-89587934D01*
X146374312Y-89611009D01*
X146371949Y-89635000D01*
X146374312Y-89658991D01*
X146381312Y-89682066D01*
X146392677Y-89703330D01*
X146407972Y-89721967D01*
X146426609Y-89737262D01*
X146442631Y-89745825D01*
X146443687Y-89747524D01*
X146442744Y-89749287D01*
X146440923Y-89749437D01*
X146429365Y-89744650D01*
X146323808Y-89723653D01*
X146216192Y-89723653D01*
X146110635Y-89744650D01*
X146099077Y-89749437D01*
X146097094Y-89749176D01*
X146096329Y-89747328D01*
X146097369Y-89745825D01*
X146113391Y-89737262D01*
X146132028Y-89721967D01*
X146147323Y-89703330D01*
X146158688Y-89682066D01*
X146165688Y-89658991D01*
X146168051Y-89635000D01*
X146165688Y-89611009D01*
X146158688Y-89587934D01*
X146147323Y-89566670D01*
X146132028Y-89548033D01*
X146113391Y-89532738D01*
X146097369Y-89524175D01*
X146096313Y-89522476D01*
X146097256Y-89520713D01*
X146099077Y-89520563D01*
X146110635Y-89525350D01*
X146216192Y-89546347D01*
X146323808Y-89546347D01*
X146429365Y-89525350D01*
X146440923Y-89520563D01*
X146442906Y-89520824D01*
G37*
G36*
X145552990Y-88677882D02*
G01*
X145555372Y-88702069D01*
X145562372Y-88725144D01*
X145573737Y-88746408D01*
X145589032Y-88765045D01*
X145607669Y-88780340D01*
X145628933Y-88791705D01*
X145652008Y-88798705D01*
X145675999Y-88801068D01*
X145699990Y-88798705D01*
X145723065Y-88791705D01*
X145744329Y-88780340D01*
X145762966Y-88765045D01*
X145778324Y-88746330D01*
X145781216Y-88742002D01*
X145783010Y-88741117D01*
X145784673Y-88742228D01*
X145784727Y-88743878D01*
X145744650Y-88840635D01*
X145723653Y-88946192D01*
X145723653Y-89053808D01*
X145744650Y-89159365D01*
X145784727Y-89256122D01*
X145784466Y-89258105D01*
X145782618Y-89258870D01*
X145781216Y-89257998D01*
X145778324Y-89253670D01*
X145762965Y-89234955D01*
X145744328Y-89219660D01*
X145723065Y-89208295D01*
X145699990Y-89201295D01*
X145675998Y-89198932D01*
X145652007Y-89201295D01*
X145628932Y-89208295D01*
X145607669Y-89219660D01*
X145589032Y-89234956D01*
X145573737Y-89253593D01*
X145562372Y-89274856D01*
X145555372Y-89297931D01*
X145552990Y-89322118D01*
X145551825Y-89323744D01*
X145549835Y-89323548D01*
X145549000Y-89321922D01*
X145549000Y-88678078D01*
X145550000Y-88676346D01*
X145552000Y-88676346D01*
X145552990Y-88677882D01*
G37*
G36*
X145172906Y-66330824D02*
G01*
X145173671Y-66332672D01*
X145172631Y-66334175D01*
X145156609Y-66342738D01*
X145137972Y-66358033D01*
X145122677Y-66376670D01*
X145111312Y-66397934D01*
X145104312Y-66421009D01*
X145101949Y-66445000D01*
X145104312Y-66468991D01*
X145111312Y-66492066D01*
X145122677Y-66513330D01*
X145137972Y-66531967D01*
X145156609Y-66547262D01*
X145172631Y-66555825D01*
X145173687Y-66557524D01*
X145172744Y-66559287D01*
X145170923Y-66559437D01*
X145159365Y-66554650D01*
X145053808Y-66533653D01*
X144946192Y-66533653D01*
X144840635Y-66554650D01*
X144829077Y-66559437D01*
X144827094Y-66559176D01*
X144826329Y-66557328D01*
X144827369Y-66555825D01*
X144843391Y-66547262D01*
X144862028Y-66531967D01*
X144877323Y-66513330D01*
X144888688Y-66492066D01*
X144895688Y-66468991D01*
X144898051Y-66445000D01*
X144895688Y-66421009D01*
X144888688Y-66397934D01*
X144877323Y-66376670D01*
X144862028Y-66358033D01*
X144843391Y-66342738D01*
X144827369Y-66334175D01*
X144826313Y-66332476D01*
X144827256Y-66330713D01*
X144829077Y-66330563D01*
X144840635Y-66335350D01*
X144946192Y-66356347D01*
X145053808Y-66356347D01*
X145159365Y-66335350D01*
X145170923Y-66330563D01*
X145172906Y-66330824D01*
G37*
G36*
X145172906Y-65060824D02*
G01*
X145173671Y-65062672D01*
X145172631Y-65064175D01*
X145156609Y-65072738D01*
X145137972Y-65088033D01*
X145122677Y-65106670D01*
X145111312Y-65127934D01*
X145104312Y-65151009D01*
X145101949Y-65175000D01*
X145104312Y-65198991D01*
X145111312Y-65222066D01*
X145122677Y-65243330D01*
X145137972Y-65261967D01*
X145156609Y-65277262D01*
X145172631Y-65285825D01*
X145173687Y-65287524D01*
X145172744Y-65289287D01*
X145170923Y-65289437D01*
X145159365Y-65284650D01*
X145053808Y-65263653D01*
X144946192Y-65263653D01*
X144840635Y-65284650D01*
X144829077Y-65289437D01*
X144827094Y-65289176D01*
X144826329Y-65287328D01*
X144827369Y-65285825D01*
X144843391Y-65277262D01*
X144862028Y-65261967D01*
X144877323Y-65243330D01*
X144888688Y-65222066D01*
X144895688Y-65198991D01*
X144898051Y-65175000D01*
X144895688Y-65151009D01*
X144888688Y-65127934D01*
X144877323Y-65106670D01*
X144862028Y-65088033D01*
X144843391Y-65072738D01*
X144827369Y-65064175D01*
X144826313Y-65062476D01*
X144827256Y-65060713D01*
X144829077Y-65060563D01*
X144840635Y-65065350D01*
X144946192Y-65086347D01*
X145053808Y-65086347D01*
X145159365Y-65065350D01*
X145170923Y-65060563D01*
X145172906Y-65060824D01*
G37*
G36*
X85481684Y-64155864D02*
G01*
X85482074Y-64157826D01*
X85480761Y-64159097D01*
X85463369Y-64164373D01*
X85442105Y-64175738D01*
X85423468Y-64191033D01*
X85408173Y-64209670D01*
X85396808Y-64230934D01*
X85389808Y-64254009D01*
X85387445Y-64278000D01*
X85389808Y-64301991D01*
X85396808Y-64325066D01*
X85408173Y-64346330D01*
X85423468Y-64364967D01*
X85442105Y-64380262D01*
X85463369Y-64391627D01*
X85480761Y-64396903D01*
X85482128Y-64398363D01*
X85481547Y-64400277D01*
X85479790Y-64400779D01*
X85392114Y-64383339D01*
X85215886Y-64383339D01*
X85128210Y-64400779D01*
X85126316Y-64400136D01*
X85125926Y-64398174D01*
X85127239Y-64396903D01*
X85144631Y-64391627D01*
X85165895Y-64380262D01*
X85184532Y-64364967D01*
X85199827Y-64346330D01*
X85211192Y-64325066D01*
X85218192Y-64301991D01*
X85220555Y-64278000D01*
X85218192Y-64254009D01*
X85211192Y-64230934D01*
X85199827Y-64209670D01*
X85184532Y-64191033D01*
X85165895Y-64175738D01*
X85144631Y-64164373D01*
X85127239Y-64159097D01*
X85125872Y-64157637D01*
X85126453Y-64155723D01*
X85128210Y-64155221D01*
X85215886Y-64172661D01*
X85392114Y-64172661D01*
X85479790Y-64155221D01*
X85481684Y-64155864D01*
G37*
G36*
X83068682Y-64137821D02*
G01*
X83069448Y-64139669D01*
X83068408Y-64141172D01*
X83052379Y-64149739D01*
X83033742Y-64165035D01*
X83018447Y-64183672D01*
X83007082Y-64204935D01*
X83000082Y-64228010D01*
X82997719Y-64252001D01*
X83000082Y-64275992D01*
X83007082Y-64299067D01*
X83018447Y-64320331D01*
X83033743Y-64338968D01*
X83052380Y-64354263D01*
X83073643Y-64365628D01*
X83096718Y-64372628D01*
X83120905Y-64375010D01*
X83122531Y-64376175D01*
X83122335Y-64378165D01*
X83120709Y-64379000D01*
X82487291Y-64379000D01*
X82485559Y-64378000D01*
X82485559Y-64376000D01*
X82487095Y-64375010D01*
X82511282Y-64372628D01*
X82534357Y-64365628D01*
X82555621Y-64354263D01*
X82574258Y-64338968D01*
X82589553Y-64320331D01*
X82600918Y-64299067D01*
X82607918Y-64275992D01*
X82610281Y-64252001D01*
X82607918Y-64228010D01*
X82600918Y-64204935D01*
X82589553Y-64183671D01*
X82574258Y-64165034D01*
X82555621Y-64149739D01*
X82539592Y-64141172D01*
X82538536Y-64139473D01*
X82539479Y-64137710D01*
X82541300Y-64137560D01*
X82543036Y-64138279D01*
X82715886Y-64172661D01*
X82892114Y-64172661D01*
X83064964Y-64138279D01*
X83066700Y-64137560D01*
X83068682Y-64137821D01*
G37*
G36*
X145172906Y-63790824D02*
G01*
X145173671Y-63792672D01*
X145172631Y-63794175D01*
X145156609Y-63802738D01*
X145137972Y-63818033D01*
X145122677Y-63836670D01*
X145111312Y-63857934D01*
X145104312Y-63881009D01*
X145101949Y-63905000D01*
X145104312Y-63928991D01*
X145111312Y-63952066D01*
X145122677Y-63973330D01*
X145137972Y-63991967D01*
X145156609Y-64007262D01*
X145172631Y-64015825D01*
X145173687Y-64017524D01*
X145172744Y-64019287D01*
X145170923Y-64019437D01*
X145159365Y-64014650D01*
X145053808Y-63993653D01*
X144946192Y-63993653D01*
X144840635Y-64014650D01*
X144829077Y-64019437D01*
X144827094Y-64019176D01*
X144826329Y-64017328D01*
X144827369Y-64015825D01*
X144843391Y-64007262D01*
X144862028Y-63991967D01*
X144877323Y-63973330D01*
X144888688Y-63952066D01*
X144895688Y-63928991D01*
X144898051Y-63905000D01*
X144895688Y-63881009D01*
X144888688Y-63857934D01*
X144877323Y-63836670D01*
X144862028Y-63818033D01*
X144843391Y-63802738D01*
X144827369Y-63794175D01*
X144826313Y-63792476D01*
X144827256Y-63790713D01*
X144829077Y-63790563D01*
X144840635Y-63795350D01*
X144946192Y-63816347D01*
X145053808Y-63816347D01*
X145159365Y-63795350D01*
X145170923Y-63790563D01*
X145172906Y-63790824D01*
G37*
G36*
X145323654Y-62550000D02*
G01*
X145323654Y-62552000D01*
X145322118Y-62552990D01*
X145297931Y-62555372D01*
X145274856Y-62562372D01*
X145253592Y-62573737D01*
X145234955Y-62589032D01*
X145219660Y-62607669D01*
X145208295Y-62628933D01*
X145201295Y-62652008D01*
X145198932Y-62675998D01*
X145201295Y-62699990D01*
X145208295Y-62723065D01*
X145219660Y-62744329D01*
X145234955Y-62762966D01*
X145253670Y-62778324D01*
X145257998Y-62781216D01*
X145258883Y-62783010D01*
X145257772Y-62784673D01*
X145256122Y-62784727D01*
X145159365Y-62744650D01*
X145053808Y-62723653D01*
X144946192Y-62723653D01*
X144840635Y-62744650D01*
X144743878Y-62784727D01*
X144741895Y-62784466D01*
X144741130Y-62782618D01*
X144742002Y-62781216D01*
X144746330Y-62778324D01*
X144765045Y-62762965D01*
X144780340Y-62744328D01*
X144791705Y-62723065D01*
X144798705Y-62699990D01*
X144801068Y-62675998D01*
X144798705Y-62652007D01*
X144791705Y-62628932D01*
X144780340Y-62607669D01*
X144765044Y-62589032D01*
X144746407Y-62573737D01*
X144725144Y-62562372D01*
X144702069Y-62555372D01*
X144677882Y-62552990D01*
X144676256Y-62551825D01*
X144676452Y-62549835D01*
X144678078Y-62549000D01*
X145321922Y-62549000D01*
X145323654Y-62550000D01*
G37*
M02*
