G04 #@! TF.GenerationSoftware,KiCad,Pcbnew,5.1.9*
G04 #@! TF.CreationDate,2021-05-27T16:29:05+08:00*
G04 #@! TF.ProjectId,digital-amplifier2,64696769-7461-46c2-9d61-6d706c696669,rev?*
G04 #@! TF.SameCoordinates,Original*
G04 #@! TF.FileFunction,Paste,Bot*
G04 #@! TF.FilePolarity,Positive*
%FSLAX46Y46*%
G04 Gerber Fmt 4.6, Leading zero omitted, Abs format (unit mm)*
G04 Created by KiCad (PCBNEW 5.1.9) date 2021-05-27 16:29:05*
%MOMM*%
%LPD*%
G01*
G04 APERTURE LIST*
G04 APERTURE END LIST*
G36*
G01*
X112071999Y-140862000D02*
X112972001Y-140862000D01*
G75*
G02*
X113222000Y-141111999I0J-249999D01*
G01*
X113222000Y-141637001D01*
G75*
G02*
X112972001Y-141887000I-249999J0D01*
G01*
X112071999Y-141887000D01*
G75*
G02*
X111822000Y-141637001I0J249999D01*
G01*
X111822000Y-141111999D01*
G75*
G02*
X112071999Y-140862000I249999J0D01*
G01*
G37*
G36*
G01*
X112071999Y-139037000D02*
X112972001Y-139037000D01*
G75*
G02*
X113222000Y-139286999I0J-249999D01*
G01*
X113222000Y-139812001D01*
G75*
G02*
X112972001Y-140062000I-249999J0D01*
G01*
X112071999Y-140062000D01*
G75*
G02*
X111822000Y-139812001I0J249999D01*
G01*
X111822000Y-139286999D01*
G75*
G02*
X112071999Y-139037000I249999J0D01*
G01*
G37*
G36*
G01*
X104388499Y-140925500D02*
X105288501Y-140925500D01*
G75*
G02*
X105538500Y-141175499I0J-249999D01*
G01*
X105538500Y-141700501D01*
G75*
G02*
X105288501Y-141950500I-249999J0D01*
G01*
X104388499Y-141950500D01*
G75*
G02*
X104138500Y-141700501I0J249999D01*
G01*
X104138500Y-141175499D01*
G75*
G02*
X104388499Y-140925500I249999J0D01*
G01*
G37*
G36*
G01*
X104388499Y-139100500D02*
X105288501Y-139100500D01*
G75*
G02*
X105538500Y-139350499I0J-249999D01*
G01*
X105538500Y-139875501D01*
G75*
G02*
X105288501Y-140125500I-249999J0D01*
G01*
X104388499Y-140125500D01*
G75*
G02*
X104138500Y-139875501I0J249999D01*
G01*
X104138500Y-139350499D01*
G75*
G02*
X104388499Y-139100500I249999J0D01*
G01*
G37*
G36*
G01*
X96450999Y-141012500D02*
X97351001Y-141012500D01*
G75*
G02*
X97601000Y-141262499I0J-249999D01*
G01*
X97601000Y-141787501D01*
G75*
G02*
X97351001Y-142037500I-249999J0D01*
G01*
X96450999Y-142037500D01*
G75*
G02*
X96201000Y-141787501I0J249999D01*
G01*
X96201000Y-141262499D01*
G75*
G02*
X96450999Y-141012500I249999J0D01*
G01*
G37*
G36*
G01*
X96450999Y-139187500D02*
X97351001Y-139187500D01*
G75*
G02*
X97601000Y-139437499I0J-249999D01*
G01*
X97601000Y-139962501D01*
G75*
G02*
X97351001Y-140212500I-249999J0D01*
G01*
X96450999Y-140212500D01*
G75*
G02*
X96201000Y-139962501I0J249999D01*
G01*
X96201000Y-139437499D01*
G75*
G02*
X96450999Y-139187500I249999J0D01*
G01*
G37*
G36*
G01*
X112047000Y-144595000D02*
X112997000Y-144595000D01*
G75*
G02*
X113247000Y-144845000I0J-250000D01*
G01*
X113247000Y-145345000D01*
G75*
G02*
X112997000Y-145595000I-250000J0D01*
G01*
X112047000Y-145595000D01*
G75*
G02*
X111797000Y-145345000I0J250000D01*
G01*
X111797000Y-144845000D01*
G75*
G02*
X112047000Y-144595000I250000J0D01*
G01*
G37*
G36*
G01*
X112047000Y-142695000D02*
X112997000Y-142695000D01*
G75*
G02*
X113247000Y-142945000I0J-250000D01*
G01*
X113247000Y-143445000D01*
G75*
G02*
X112997000Y-143695000I-250000J0D01*
G01*
X112047000Y-143695000D01*
G75*
G02*
X111797000Y-143445000I0J250000D01*
G01*
X111797000Y-142945000D01*
G75*
G02*
X112047000Y-142695000I250000J0D01*
G01*
G37*
G36*
G01*
X104363500Y-144595000D02*
X105313500Y-144595000D01*
G75*
G02*
X105563500Y-144845000I0J-250000D01*
G01*
X105563500Y-145345000D01*
G75*
G02*
X105313500Y-145595000I-250000J0D01*
G01*
X104363500Y-145595000D01*
G75*
G02*
X104113500Y-145345000I0J250000D01*
G01*
X104113500Y-144845000D01*
G75*
G02*
X104363500Y-144595000I250000J0D01*
G01*
G37*
G36*
G01*
X104363500Y-142695000D02*
X105313500Y-142695000D01*
G75*
G02*
X105563500Y-142945000I0J-250000D01*
G01*
X105563500Y-143445000D01*
G75*
G02*
X105313500Y-143695000I-250000J0D01*
G01*
X104363500Y-143695000D01*
G75*
G02*
X104113500Y-143445000I0J250000D01*
G01*
X104113500Y-142945000D01*
G75*
G02*
X104363500Y-142695000I250000J0D01*
G01*
G37*
G36*
G01*
X96426000Y-144722000D02*
X97376000Y-144722000D01*
G75*
G02*
X97626000Y-144972000I0J-250000D01*
G01*
X97626000Y-145472000D01*
G75*
G02*
X97376000Y-145722000I-250000J0D01*
G01*
X96426000Y-145722000D01*
G75*
G02*
X96176000Y-145472000I0J250000D01*
G01*
X96176000Y-144972000D01*
G75*
G02*
X96426000Y-144722000I250000J0D01*
G01*
G37*
G36*
G01*
X96426000Y-142822000D02*
X97376000Y-142822000D01*
G75*
G02*
X97626000Y-143072000I0J-250000D01*
G01*
X97626000Y-143572000D01*
G75*
G02*
X97376000Y-143822000I-250000J0D01*
G01*
X96426000Y-143822000D01*
G75*
G02*
X96176000Y-143572000I0J250000D01*
G01*
X96176000Y-143072000D01*
G75*
G02*
X96426000Y-142822000I250000J0D01*
G01*
G37*
G36*
G01*
X125915000Y-127160000D02*
X125915000Y-128110000D01*
G75*
G02*
X125665000Y-128360000I-250000J0D01*
G01*
X125165000Y-128360000D01*
G75*
G02*
X124915000Y-128110000I0J250000D01*
G01*
X124915000Y-127160000D01*
G75*
G02*
X125165000Y-126910000I250000J0D01*
G01*
X125665000Y-126910000D01*
G75*
G02*
X125915000Y-127160000I0J-250000D01*
G01*
G37*
G36*
G01*
X127815000Y-127160000D02*
X127815000Y-128110000D01*
G75*
G02*
X127565000Y-128360000I-250000J0D01*
G01*
X127065000Y-128360000D01*
G75*
G02*
X126815000Y-128110000I0J250000D01*
G01*
X126815000Y-127160000D01*
G75*
G02*
X127065000Y-126910000I250000J0D01*
G01*
X127565000Y-126910000D01*
G75*
G02*
X127815000Y-127160000I0J-250000D01*
G01*
G37*
M02*
