M48
; DRILL file {KiCad 5.1.9} date Thu May 27 16:29:17 2021
; FORMAT={-:-/ absolute / metric / decimal}
; #@! TF.CreationDate,2021-05-27T16:29:17+08:00
; #@! TF.GenerationSoftware,Kicad,Pcbnew,5.1.9
; #@! TF.FileFunction,Plated,1,2,PTH
FMAT,2
METRIC
T1C0.300
T2C0.650
T3C0.762
T4C0.800
T5C0.920
T6C1.000
T7C1.400
T8C2.330
T9C3.200
%
G90
G05
T1
X58.755Y-129.84
X60.896Y-134.556
X62.982Y-79.801
X62.982Y-81.102
X62.982Y-82.401
X63.633Y-85.915
X64.282Y-79.801
X64.282Y-81.102
X64.282Y-82.401
X64.282Y-85.936
X65.582Y-79.801
X65.582Y-81.102
X65.582Y-82.401
X66.882Y-79.801
X66.882Y-81.102
X66.882Y-82.401
X67.82Y-117.917
X68.182Y-79.801
X68.182Y-81.102
X68.182Y-82.401
X71.504Y-117.536
X78.742Y-90.553
X80.581Y-110.299
X86.995Y-113.602
X88.256Y-93.971
X89.852Y-107.886
X90.011Y-99.854
X90.297Y-117.157
X91.249Y-131.953
X93.472Y-124.079
X93.472Y-125.349
X93.487Y-132.603
X93.677Y-116.952
X94.297Y-112.459
X94.742Y-124.079
X94.742Y-125.349
X95.377Y-76.454
X96.012Y-124.079
X96.012Y-125.349
X96.266Y-105.219
X96.266Y-108.585
X96.456Y-75.501
X96.901Y-139.7
X98.742Y-73.215
X99.377Y-86.868
X100.584Y-98.298
X101.155Y-113.792
X101.79Y-111.569
X102.362Y-76.454
X103.251Y-85.153
X103.592Y-72.794
X103.95Y-89.98
X104.838Y-139.636
X104.838Y-145.095
X105.078Y-116.888
X105.108Y-134.478
X105.204Y-132.603
X106.957Y-131.214
X106.983Y-117.363
X107.251Y-104.584
X107.315Y-100.33
X107.378Y-81.978
X108.172Y-83.852
X108.267Y-112.459
X108.902Y-135.953
X109.41Y-106.743
X109.41Y-110.426
X109.664Y-60.008
X109.791Y-73.215
X109.791Y-83.376
X109.791Y-92.329
X110.426Y-107.759
X111.268Y-84.502
X111.268Y-92.646
X111.284Y-75.47
X111.316Y-105.918
X112.204Y-104.902
X112.522Y-139.51
X112.522Y-145.095
X112.585Y-81.788
X113.096Y-135.633
X113.159Y-113.789
X113.792Y-89.09
X114.363Y-134.81
X115.059Y-114.747
X115.156Y-87.536
X115.443Y-64.008
X115.824Y-61.785
X115.995Y-86.697
X116.395Y-97.346
X116.495Y-99.532
X116.522Y-109.537
X116.903Y-82.55
X116.904Y-80.264
X117.03Y-108.648
X117.495Y-93.261
X117.983Y-84.328
X118.298Y-105.349
X118.618Y-93.408
X118.872Y-79.566
X118.957Y-98.62
X119.38Y-84.772
X119.444Y-110.744
X120.142Y-142.684
X120.206Y-93.218
X120.206Y-95.313
X120.777Y-110.807
X120.904Y-139.255
X121.602Y-96.139
X123.828Y-140.462
X125.222Y-108.331
X125.285Y-71.945
X125.412Y-127.635
X125.413Y-119.316
X125.857Y-66.294
X126.265Y-98.643
X126.621Y-135.316
X126.934Y-106.68
X127.002Y-89.474
X127.317Y-63.119
X127.317Y-96.901
X127.317Y-127.572
X127.889Y-94.742
X128.333Y-115.57
X128.522Y-135.257
X128.903Y-89.278
X128.994Y-123.025
X129.032Y-126.937
X129.982Y-103.632
X130.347Y-80.754
X130.349Y-77.199
X131.064Y-85.598
X131.127Y-116.078
X131.572Y-100.203
X131.762Y-84.264
X131.957Y-96.143
X132.524Y-92.71
X133.418Y-56.007
X134.302Y-77.914
X134.302Y-89.218
X134.366Y-112.903
X134.787Y-100.036
X134.787Y-109.133
X135.319Y-122.237
X135.763Y-112.014
X136.271Y-135.572
X136.588Y-95.377
X136.588Y-96.901
X136.652Y-114.109
X137.224Y-143.065
X140.01Y-124.325
X142.24Y-137.414
X144.78Y-126.047
X145.793Y-137.919
T2
X145.0Y-62.0
X145.0Y-63.27
X145.0Y-64.54
X145.0Y-65.81
X145.0Y-67.08
X145.0Y-89.0
X145.0Y-90.27
X145.0Y-91.54
X145.0Y-92.81
X145.0Y-94.08
X145.0Y-95.35
X145.0Y-96.62
X145.0Y-97.89
X145.0Y-99.16
X145.0Y-100.43
X146.27Y-89.0
X146.27Y-90.27
X146.27Y-91.54
X146.27Y-92.81
X146.27Y-94.08
X146.27Y-95.35
X146.27Y-96.62
X146.27Y-97.89
X146.27Y-99.16
X146.27Y-100.43
T3
X58.102Y-91.694
X58.356Y-100.33
X61.15Y-96.52
X62.801Y-92.583
X63.944Y-99.314
X65.722Y-103.632
X66.484Y-88.138
X66.992Y-92.964
X67.754Y-97.79
X72.326Y-95.758
T4
X100.774Y-139.954
X100.774Y-147.574
X108.617Y-139.891
X108.617Y-147.511
X116.459Y-139.891
X116.459Y-147.511
T5
X82.804Y-63.278
X82.804Y-65.278
X85.304Y-63.278
X85.304Y-65.278
T6
X97.346Y-58.341
X99.885Y-58.341
X102.425Y-58.341
X125.158Y-146.812
X127.698Y-146.812
X130.238Y-146.812
X132.779Y-146.812
T7
X65.05Y-131.064
X65.05Y-137.414
X65.05Y-143.764
X81.28Y-131.064
X81.28Y-137.414
X81.28Y-143.764
T8
X78.034Y-60.568
X90.074Y-60.568
T9
X55.0Y-55.0
X55.0Y-75.0
X55.0Y-115.0
X55.0Y-145.0
X145.0Y-55.0
X145.0Y-75.0
X145.0Y-115.0
X145.0Y-145.0
T4
G00X62.865Y-52.359
M15
G01X62.865Y-53.559
M16
G05
G00X63.365Y-59.659
M15
G01X63.365Y-60.859
M16
G05
G00X66.565Y-59.659
M15
G01X66.565Y-60.859
M16
G05
G00X71.765Y-59.659
M15
G01X71.765Y-60.859
M16
G05
G00X72.965Y-52.359
M15
G01X72.965Y-53.559
M16
G05
G00X86.919Y-138.172
M15
G01X86.919Y-137.672
M16
G05
G00X86.919Y-141.372
M15
G01X86.919Y-140.872
M16
G05
G00X86.919Y-144.572
M15
G01X86.919Y-144.072
M16
G05
G00X86.919Y-147.772
M15
G01X86.919Y-147.272
M16
G05
G00X92.519Y-138.172
M15
G01X92.519Y-137.672
M16
G05
G00X92.519Y-141.372
M15
G01X92.519Y-140.872
M16
G05
G00X92.519Y-144.572
M15
G01X92.519Y-144.072
M16
G05
G00X92.519Y-147.772
M15
G01X92.519Y-147.272
M16
G05
T0
M30
