M48
; DRILL file {KiCad 5.1.9} date Tue Apr 13 21:33:11 2021
; FORMAT={-:-/ absolute / inch / decimal}
; #@! TF.CreationDate,2021-04-13T21:33:11+08:00
; #@! TF.GenerationSoftware,Kicad,Pcbnew,5.1.9
; #@! TF.FileFunction,Plated,1,2,PTH
FMAT,2
INCH
T1C0.0118
T2C0.0315
T3C0.0362
T4C0.0394
T5C0.0551
T6C0.0917
T7C0.1260
%
G90
G05
T1
X2.3914Y-3.4641
X2.3914Y-3.5114
X2.3914Y-3.5626
X2.3914Y-3.6059
X2.3914Y-4.0191
X2.3914Y-4.0664
X2.3914Y-4.1176
X2.3914Y-4.1609
X2.4386Y-3.4641
X2.4386Y-3.5114
X2.4386Y-3.5626
X2.4386Y-3.6059
X2.4386Y-4.0191
X2.4386Y-4.0664
X2.4386Y-4.1176
X2.4386Y-4.1609
X2.595Y-3.0675
X2.5975Y-3.61
X2.5975Y-4.165
X2.5991Y-2.8514
X2.5991Y-2.8986
X2.625Y-4.31
X2.6424Y-2.8514
X2.6424Y-2.8986
X2.6936Y-2.8514
X2.6936Y-2.8986
X2.7409Y-2.8514
X2.7409Y-2.8986
X2.9369Y-4.5419
X3.0794Y-4.0881
X3.0919Y-3.3269
X3.0919Y-3.4381
X3.1875Y-4.39
X3.2187Y-3.4112
X3.555Y-4.6125
X3.5925Y-5.195
X3.6806Y-5.2206
X3.6881Y-4.6044
X3.73Y-4.9075
X3.75Y-5.5225
X3.7897Y-4.3422
X3.7963Y-3.4863
X3.7994Y-4.0825
X3.8369Y-3.1481
X3.96Y-3.87
X3.9825Y-4.48
X4.065Y-3.3525
X4.085Y-2.515
X4.0925Y-3.5425
X4.1369Y-4.6019
X4.1381Y-5.2944
X4.1419Y-5.2206
X4.195Y-4.1825
X4.2099Y-4.5176
X4.2109Y-5.1659
X4.2119Y-4.6206
X4.2125Y-3.245
X4.225Y-3.95
X4.2617Y-5.4658
X4.2825Y-5.57
X4.29Y-2.725
X4.3Y-5.365
X4.3175Y-4.1475
X4.3225Y-2.8825
X4.3225Y-3.2825
X4.3225Y-3.635
X4.325Y-5.4875
X4.3575Y-4.115
X4.3806Y-3.3269
X4.3806Y-3.6475
X4.3812Y-2.9712
X4.3875Y-4.0575
X4.39Y-3.805
X4.44Y-3.3225
X4.4516Y-4.0466
X4.4526Y-5.3399
X4.4551Y-4.4799
X4.4775Y-3.1625
X4.4956Y-5.4581
X4.5025Y-5.3075
X4.5274Y-3.9251
X4.5275Y-3.23
X4.5299Y-4.5176
X4.56Y-2.7375
X4.575Y-3.385
X4.6061Y-3.3589
X4.6425Y-3.415
X4.645Y-4.2625
X4.6455Y-4.192
X4.6625Y-3.46
X4.6833Y-3.8827
X4.6848Y-3.5027
X4.7045Y-3.6295
X4.725Y-3.22
X4.7375Y-5.4972
X4.7625Y-3.425
X4.7636Y-3.9089
X4.7973Y-3.7852
X4.7988Y-3.2588
X4.8075Y-3.665
X4.8087Y-3.3137
X4.81Y-5.4575
X4.88Y-5.545
X4.905Y-2.58
X4.925Y-4.695
X4.9325Y-2.8325
X4.9431Y-4.965
X4.9851Y-5.3274
X4.9875Y-3.145
X4.99Y-3.7075
X5.0001Y-3.5176
X5.0012Y-4.2538
X5.0172Y-4.9647
X5.0525Y-4.55
X5.0599Y-5.3251
X5.0749Y-3.5101
X5.1005Y-3.309
X5.1125Y-4.01
X5.145Y-3.2575
X5.1625Y-3.7852
X5.1975Y-4.45
X5.1992Y-3.4517
X5.2075Y-5.4575
X5.215Y-3.665
X5.2475Y-3.425
X5.2527Y-2.205
X5.3175Y-4.3325
X5.325Y-3.055
X5.36Y-5.3775
X5.4175Y-4.38
X5.4575Y-3.9725
X5.485Y-3.8925
X5.5122Y-4.8947
X5.515Y-5.235
X5.565Y-3.825
X5.62Y-5.32
X5.6725Y-5.45
X5.696Y-4.9015
T3
X3.405Y-2.4763
X3.405Y-2.555
X3.5034Y-2.4763
X3.5034Y-2.555
T4
X3.87Y-5.755
X3.97Y-5.755
X4.07Y-2.3019
X4.07Y-5.755
X4.17Y-2.3019
X4.17Y-5.755
X4.27Y-2.3019
X4.415Y-5.655
X4.415Y-5.755
X4.515Y-5.655
X4.515Y-5.755
X4.615Y-5.655
X4.615Y-5.755
X4.715Y-5.655
X4.715Y-5.755
X4.815Y-5.655
X4.815Y-5.755
X4.915Y-5.655
X4.915Y-5.755
X5.015Y-5.655
X5.015Y-5.755
X5.115Y-5.655
X5.115Y-5.755
X5.215Y-5.655
X5.215Y-5.755
X5.315Y-5.655
X5.315Y-5.755
X5.715Y-3.28
X5.715Y-3.38
X5.715Y-3.48
X5.715Y-3.58
X5.715Y-3.68
X5.715Y-3.78
X5.715Y-3.88
X5.715Y-3.98
X5.715Y-4.08
X5.715Y-4.18
T5
X2.536Y-5.175
X2.536Y-5.425
X2.536Y-5.675
X3.175Y-5.175
X3.175Y-5.425
X3.175Y-5.675
T6
X3.2172Y-2.3696
X3.6912Y-2.3696
T7
X2.1654Y-2.1654
X2.1654Y-2.9528
X2.1654Y-4.5276
X2.1654Y-5.7087
X5.7087Y-2.1654
X5.7087Y-2.9528
X5.7087Y-4.5276
X5.7087Y-5.7087
T2
G00X2.535Y-2.0664
M15
G01X2.535Y-2.1136
M16
G05
G00X2.5547Y-2.3538
M15
G01X2.5547Y-2.401
M16
G05
G00X2.6807Y-2.3538
M15
G01X2.6807Y-2.401
M16
G05
G00X2.8854Y-2.3538
M15
G01X2.8854Y-2.401
M16
G05
G00X2.9326Y-2.0664
M15
G01X2.9326Y-2.1136
M16
G05
G00X3.3995Y-5.4148
M15
G01X3.3995Y-5.3952
M16
G05
G00X3.3995Y-5.5408
M15
G01X3.3995Y-5.5211
M16
G05
G00X3.3995Y-5.6668
M15
G01X3.3995Y-5.6471
M16
G05
G00X3.3995Y-5.7928
M15
G01X3.3995Y-5.7731
M16
G05
G00X3.62Y-5.4148
M15
G01X3.62Y-5.3952
M16
G05
G00X3.62Y-5.5408
M15
G01X3.62Y-5.5211
M16
G05
G00X3.62Y-5.6668
M15
G01X3.62Y-5.6471
M16
G05
G00X3.62Y-5.7928
M15
G01X3.62Y-5.7731
M16
G05
T0
M30
