G04 #@! TF.GenerationSoftware,KiCad,Pcbnew,5.1.9*
G04 #@! TF.CreationDate,2021-04-13T21:33:03+08:00*
G04 #@! TF.ProjectId,digital-amplifier2,64696769-7461-46c2-9d61-6d706c696669,rev?*
G04 #@! TF.SameCoordinates,Original*
G04 #@! TF.FileFunction,Paste,Top*
G04 #@! TF.FilePolarity,Positive*
%FSLAX46Y46*%
G04 Gerber Fmt 4.6, Leading zero omitted, Abs format (unit mm)*
G04 Created by KiCad (PCBNEW 5.1.9) date 2021-04-13 21:33:03*
%MOMM*%
%LPD*%
G01*
G04 APERTURE LIST*
%ADD10C,0.152400*%
%ADD11R,2.000000X1.500000*%
%ADD12R,2.000000X3.800000*%
%ADD13R,1.750000X0.450000*%
%ADD14R,1.550000X0.600000*%
%ADD15R,2.600000X3.100000*%
%ADD16R,3.810000X2.789999*%
%ADD17R,0.558000X1.969999*%
%ADD18R,1.000000X0.500000*%
%ADD19R,0.500000X1.000000*%
%ADD20R,1.500000X2.400000*%
%ADD21R,2.500000X1.800000*%
%ADD22R,1.800000X2.500000*%
%ADD23R,0.900000X0.800000*%
%ADD24R,2.400000X2.000000*%
%ADD25R,0.600000X1.550000*%
%ADD26R,3.100000X2.600000*%
G04 APERTURE END LIST*
D10*
X96572070Y-123330430D02*
X96023100Y-123330430D01*
X96023100Y-123330430D02*
X96023100Y-123621679D01*
X96023100Y-123621679D02*
X96023100Y-123621679D01*
X96023100Y-123621679D02*
X96164521Y-123763100D01*
X96164521Y-123763100D02*
X96164521Y-123763100D01*
X96164521Y-123763100D02*
X96572070Y-123763100D01*
X96572070Y-123763100D02*
X96572070Y-123330430D01*
X95823100Y-123330430D02*
X95235700Y-123330430D01*
X95235700Y-123330430D02*
X95235700Y-123621679D01*
X95235700Y-123621679D02*
X95235700Y-123621679D01*
X95235700Y-123621679D02*
X95377121Y-123763100D01*
X95377121Y-123763100D02*
X95377121Y-123763100D01*
X95377121Y-123763100D02*
X95681679Y-123763100D01*
X95681679Y-123763100D02*
X95681679Y-123763100D01*
X95681679Y-123763100D02*
X95823100Y-123621679D01*
X95823100Y-123621679D02*
X95823100Y-123621679D01*
X95823100Y-123621679D02*
X95823100Y-123330430D01*
X95035700Y-123330430D02*
X94448300Y-123330430D01*
X94448300Y-123330430D02*
X94448300Y-123621679D01*
X94448300Y-123621679D02*
X94448300Y-123621679D01*
X94448300Y-123621679D02*
X94589721Y-123763100D01*
X94589721Y-123763100D02*
X94589721Y-123763100D01*
X94589721Y-123763100D02*
X94894279Y-123763100D01*
X94894279Y-123763100D02*
X94894279Y-123763100D01*
X94894279Y-123763100D02*
X95035700Y-123621679D01*
X95035700Y-123621679D02*
X95035700Y-123621679D01*
X95035700Y-123621679D02*
X95035700Y-123330430D01*
X94248300Y-123330430D02*
X93660900Y-123330430D01*
X93660900Y-123330430D02*
X93660900Y-123621679D01*
X93660900Y-123621679D02*
X93660900Y-123621679D01*
X93660900Y-123621679D02*
X93802321Y-123763100D01*
X93802321Y-123763100D02*
X93802321Y-123763100D01*
X93802321Y-123763100D02*
X94106879Y-123763100D01*
X94106879Y-123763100D02*
X94106879Y-123763100D01*
X94106879Y-123763100D02*
X94248300Y-123621679D01*
X94248300Y-123621679D02*
X94248300Y-123621679D01*
X94248300Y-123621679D02*
X94248300Y-123330430D01*
X93460900Y-123330430D02*
X92911930Y-123330430D01*
X92911930Y-123330430D02*
X92911930Y-123763100D01*
X92911930Y-123763100D02*
X93319479Y-123763100D01*
X93319479Y-123763100D02*
X93319479Y-123763100D01*
X93319479Y-123763100D02*
X93460900Y-123621679D01*
X93460900Y-123621679D02*
X93460900Y-123621679D01*
X93460900Y-123621679D02*
X93460900Y-123330430D01*
X96572070Y-123963100D02*
X96164521Y-123963100D01*
X96164521Y-123963100D02*
X96164521Y-123963100D01*
X96164521Y-123963100D02*
X96023100Y-124104521D01*
X96023100Y-124104521D02*
X96023100Y-124104521D01*
X96023100Y-124104521D02*
X96023100Y-124409079D01*
X96023100Y-124409079D02*
X96023100Y-124409079D01*
X96023100Y-124409079D02*
X96164521Y-124550500D01*
X96164521Y-124550500D02*
X96164521Y-124550500D01*
X96164521Y-124550500D02*
X96572070Y-124550500D01*
X96572070Y-124550500D02*
X96572070Y-123963100D01*
X95823100Y-124104521D02*
X95823100Y-124104521D01*
X95823100Y-124104521D02*
X95681679Y-123963100D01*
X95681679Y-123963100D02*
X95681679Y-123963100D01*
X95681679Y-123963100D02*
X95377121Y-123963100D01*
X95377121Y-123963100D02*
X95377121Y-123963100D01*
X95377121Y-123963100D02*
X95235700Y-124104521D01*
X95235700Y-124104521D02*
X95235700Y-124104521D01*
X95235700Y-124104521D02*
X95235700Y-124409079D01*
X95235700Y-124409079D02*
X95235700Y-124409079D01*
X95235700Y-124409079D02*
X95377121Y-124550500D01*
X95377121Y-124550500D02*
X95377121Y-124550500D01*
X95377121Y-124550500D02*
X95681679Y-124550500D01*
X95681679Y-124550500D02*
X95681679Y-124550500D01*
X95681679Y-124550500D02*
X95823100Y-124409079D01*
X95823100Y-124409079D02*
X95823100Y-124409079D01*
X95823100Y-124409079D02*
X95823100Y-124104521D01*
X95035700Y-124104521D02*
X95035700Y-124104521D01*
X95035700Y-124104521D02*
X94894279Y-123963100D01*
X94894279Y-123963100D02*
X94894279Y-123963100D01*
X94894279Y-123963100D02*
X94589721Y-123963100D01*
X94589721Y-123963100D02*
X94589721Y-123963100D01*
X94589721Y-123963100D02*
X94448300Y-124104521D01*
X94448300Y-124104521D02*
X94448300Y-124104521D01*
X94448300Y-124104521D02*
X94448300Y-124409079D01*
X94448300Y-124409079D02*
X94448300Y-124409079D01*
X94448300Y-124409079D02*
X94589721Y-124550500D01*
X94589721Y-124550500D02*
X94589721Y-124550500D01*
X94589721Y-124550500D02*
X94894279Y-124550500D01*
X94894279Y-124550500D02*
X94894279Y-124550500D01*
X94894279Y-124550500D02*
X95035700Y-124409079D01*
X95035700Y-124409079D02*
X95035700Y-124409079D01*
X95035700Y-124409079D02*
X95035700Y-124104521D01*
X94248300Y-124104521D02*
X94248300Y-124104521D01*
X94248300Y-124104521D02*
X94106879Y-123963100D01*
X94106879Y-123963100D02*
X94106879Y-123963100D01*
X94106879Y-123963100D02*
X93802321Y-123963100D01*
X93802321Y-123963100D02*
X93802321Y-123963100D01*
X93802321Y-123963100D02*
X93660900Y-124104521D01*
X93660900Y-124104521D02*
X93660900Y-124104521D01*
X93660900Y-124104521D02*
X93660900Y-124409079D01*
X93660900Y-124409079D02*
X93660900Y-124409079D01*
X93660900Y-124409079D02*
X93802321Y-124550500D01*
X93802321Y-124550500D02*
X93802321Y-124550500D01*
X93802321Y-124550500D02*
X94106879Y-124550500D01*
X94106879Y-124550500D02*
X94106879Y-124550500D01*
X94106879Y-124550500D02*
X94248300Y-124409079D01*
X94248300Y-124409079D02*
X94248300Y-124409079D01*
X94248300Y-124409079D02*
X94248300Y-124104521D01*
X93460900Y-124104521D02*
X93460900Y-124104521D01*
X93460900Y-124104521D02*
X93319479Y-123963100D01*
X93319479Y-123963100D02*
X93319479Y-123963100D01*
X93319479Y-123963100D02*
X92911930Y-123963100D01*
X92911930Y-123963100D02*
X92911930Y-124550500D01*
X92911930Y-124550500D02*
X93319479Y-124550500D01*
X93319479Y-124550500D02*
X93319479Y-124550500D01*
X93319479Y-124550500D02*
X93460900Y-124409079D01*
X93460900Y-124409079D02*
X93460900Y-124409079D01*
X93460900Y-124409079D02*
X93460900Y-124104521D01*
X96572070Y-124750500D02*
X96164521Y-124750500D01*
X96164521Y-124750500D02*
X96164521Y-124750500D01*
X96164521Y-124750500D02*
X96023100Y-124891921D01*
X96023100Y-124891921D02*
X96023100Y-124891921D01*
X96023100Y-124891921D02*
X96023100Y-125196479D01*
X96023100Y-125196479D02*
X96023100Y-125196479D01*
X96023100Y-125196479D02*
X96164521Y-125337900D01*
X96164521Y-125337900D02*
X96164521Y-125337900D01*
X96164521Y-125337900D02*
X96572070Y-125337900D01*
X96572070Y-125337900D02*
X96572070Y-124750500D01*
X95823100Y-124891921D02*
X95823100Y-124891921D01*
X95823100Y-124891921D02*
X95681679Y-124750500D01*
X95681679Y-124750500D02*
X95681679Y-124750500D01*
X95681679Y-124750500D02*
X95377121Y-124750500D01*
X95377121Y-124750500D02*
X95377121Y-124750500D01*
X95377121Y-124750500D02*
X95235700Y-124891921D01*
X95235700Y-124891921D02*
X95235700Y-124891921D01*
X95235700Y-124891921D02*
X95235700Y-125196479D01*
X95235700Y-125196479D02*
X95235700Y-125196479D01*
X95235700Y-125196479D02*
X95377121Y-125337900D01*
X95377121Y-125337900D02*
X95377121Y-125337900D01*
X95377121Y-125337900D02*
X95681679Y-125337900D01*
X95681679Y-125337900D02*
X95681679Y-125337900D01*
X95681679Y-125337900D02*
X95823100Y-125196479D01*
X95823100Y-125196479D02*
X95823100Y-125196479D01*
X95823100Y-125196479D02*
X95823100Y-124891921D01*
X95035700Y-124891921D02*
X95035700Y-124891921D01*
X95035700Y-124891921D02*
X94894279Y-124750500D01*
X94894279Y-124750500D02*
X94894279Y-124750500D01*
X94894279Y-124750500D02*
X94589721Y-124750500D01*
X94589721Y-124750500D02*
X94589721Y-124750500D01*
X94589721Y-124750500D02*
X94448300Y-124891921D01*
X94448300Y-124891921D02*
X94448300Y-124891921D01*
X94448300Y-124891921D02*
X94448300Y-125196479D01*
X94448300Y-125196479D02*
X94448300Y-125196479D01*
X94448300Y-125196479D02*
X94589721Y-125337900D01*
X94589721Y-125337900D02*
X94589721Y-125337900D01*
X94589721Y-125337900D02*
X94894279Y-125337900D01*
X94894279Y-125337900D02*
X94894279Y-125337900D01*
X94894279Y-125337900D02*
X95035700Y-125196479D01*
X95035700Y-125196479D02*
X95035700Y-125196479D01*
X95035700Y-125196479D02*
X95035700Y-124891921D01*
X94248300Y-124891921D02*
X94248300Y-124891921D01*
X94248300Y-124891921D02*
X94106879Y-124750500D01*
X94106879Y-124750500D02*
X94106879Y-124750500D01*
X94106879Y-124750500D02*
X93802321Y-124750500D01*
X93802321Y-124750500D02*
X93802321Y-124750500D01*
X93802321Y-124750500D02*
X93660900Y-124891921D01*
X93660900Y-124891921D02*
X93660900Y-124891921D01*
X93660900Y-124891921D02*
X93660900Y-125196479D01*
X93660900Y-125196479D02*
X93660900Y-125196479D01*
X93660900Y-125196479D02*
X93802321Y-125337900D01*
X93802321Y-125337900D02*
X93802321Y-125337900D01*
X93802321Y-125337900D02*
X94106879Y-125337900D01*
X94106879Y-125337900D02*
X94106879Y-125337900D01*
X94106879Y-125337900D02*
X94248300Y-125196479D01*
X94248300Y-125196479D02*
X94248300Y-125196479D01*
X94248300Y-125196479D02*
X94248300Y-124891921D01*
X93460900Y-124891921D02*
X93460900Y-124891921D01*
X93460900Y-124891921D02*
X93319479Y-124750500D01*
X93319479Y-124750500D02*
X93319479Y-124750500D01*
X93319479Y-124750500D02*
X92911930Y-124750500D01*
X92911930Y-124750500D02*
X92911930Y-125337900D01*
X92911930Y-125337900D02*
X93319479Y-125337900D01*
X93319479Y-125337900D02*
X93319479Y-125337900D01*
X93319479Y-125337900D02*
X93460900Y-125196479D01*
X93460900Y-125196479D02*
X93460900Y-125196479D01*
X93460900Y-125196479D02*
X93460900Y-124891921D01*
X96572070Y-125537900D02*
X96164521Y-125537900D01*
X96164521Y-125537900D02*
X96164521Y-125537900D01*
X96164521Y-125537900D02*
X96023100Y-125679321D01*
X96023100Y-125679321D02*
X96023100Y-125679321D01*
X96023100Y-125679321D02*
X96023100Y-125970570D01*
X96023100Y-125970570D02*
X96572070Y-125970570D01*
X96572070Y-125970570D02*
X96572070Y-125537900D01*
X95823100Y-125679321D02*
X95823100Y-125679321D01*
X95823100Y-125679321D02*
X95681679Y-125537900D01*
X95681679Y-125537900D02*
X95681679Y-125537900D01*
X95681679Y-125537900D02*
X95377121Y-125537900D01*
X95377121Y-125537900D02*
X95377121Y-125537900D01*
X95377121Y-125537900D02*
X95235700Y-125679321D01*
X95235700Y-125679321D02*
X95235700Y-125679321D01*
X95235700Y-125679321D02*
X95235700Y-125970570D01*
X95235700Y-125970570D02*
X95823100Y-125970570D01*
X95823100Y-125970570D02*
X95823100Y-125679321D01*
X95035700Y-125679321D02*
X95035700Y-125679321D01*
X95035700Y-125679321D02*
X94894279Y-125537900D01*
X94894279Y-125537900D02*
X94894279Y-125537900D01*
X94894279Y-125537900D02*
X94589721Y-125537900D01*
X94589721Y-125537900D02*
X94589721Y-125537900D01*
X94589721Y-125537900D02*
X94448300Y-125679321D01*
X94448300Y-125679321D02*
X94448300Y-125679321D01*
X94448300Y-125679321D02*
X94448300Y-125970570D01*
X94448300Y-125970570D02*
X95035700Y-125970570D01*
X95035700Y-125970570D02*
X95035700Y-125679321D01*
X94248300Y-125679321D02*
X94248300Y-125679321D01*
X94248300Y-125679321D02*
X94106879Y-125537900D01*
X94106879Y-125537900D02*
X94106879Y-125537900D01*
X94106879Y-125537900D02*
X93802321Y-125537900D01*
X93802321Y-125537900D02*
X93802321Y-125537900D01*
X93802321Y-125537900D02*
X93660900Y-125679321D01*
X93660900Y-125679321D02*
X93660900Y-125679321D01*
X93660900Y-125679321D02*
X93660900Y-125970570D01*
X93660900Y-125970570D02*
X94248300Y-125970570D01*
X94248300Y-125970570D02*
X94248300Y-125679321D01*
X93460900Y-125679321D02*
X93460900Y-125679321D01*
X93460900Y-125679321D02*
X93319479Y-125537900D01*
X93319479Y-125537900D02*
X93319479Y-125537900D01*
X93319479Y-125537900D02*
X92911930Y-125537900D01*
X92911930Y-125537900D02*
X92911930Y-125970570D01*
X92911930Y-125970570D02*
X93460900Y-125970570D01*
X93460900Y-125970570D02*
X93460900Y-125679321D01*
G36*
G01*
X84041000Y-76004000D02*
X83091000Y-76004000D01*
G75*
G02*
X82841000Y-75754000I0J250000D01*
G01*
X82841000Y-75254000D01*
G75*
G02*
X83091000Y-75004000I250000J0D01*
G01*
X84041000Y-75004000D01*
G75*
G02*
X84291000Y-75254000I0J-250000D01*
G01*
X84291000Y-75754000D01*
G75*
G02*
X84041000Y-76004000I-250000J0D01*
G01*
G37*
G36*
G01*
X84041000Y-77904000D02*
X83091000Y-77904000D01*
G75*
G02*
X82841000Y-77654000I0J250000D01*
G01*
X82841000Y-77154000D01*
G75*
G02*
X83091000Y-76904000I250000J0D01*
G01*
X84041000Y-76904000D01*
G75*
G02*
X84291000Y-77154000I0J-250000D01*
G01*
X84291000Y-77654000D01*
G75*
G02*
X84041000Y-77904000I-250000J0D01*
G01*
G37*
G36*
G01*
X84041000Y-83433500D02*
X83091000Y-83433500D01*
G75*
G02*
X82841000Y-83183500I0J250000D01*
G01*
X82841000Y-82683500D01*
G75*
G02*
X83091000Y-82433500I250000J0D01*
G01*
X84041000Y-82433500D01*
G75*
G02*
X84291000Y-82683500I0J-250000D01*
G01*
X84291000Y-83183500D01*
G75*
G02*
X84041000Y-83433500I-250000J0D01*
G01*
G37*
G36*
G01*
X84041000Y-85333500D02*
X83091000Y-85333500D01*
G75*
G02*
X82841000Y-85083500I0J250000D01*
G01*
X82841000Y-84583500D01*
G75*
G02*
X83091000Y-84333500I250000J0D01*
G01*
X84041000Y-84333500D01*
G75*
G02*
X84291000Y-84583500I0J-250000D01*
G01*
X84291000Y-85083500D01*
G75*
G02*
X84041000Y-85333500I-250000J0D01*
G01*
G37*
D11*
X86575500Y-104253000D03*
X86575500Y-108853000D03*
X86575500Y-106553000D03*
D12*
X92875500Y-106553000D03*
D11*
X86321500Y-92569000D03*
X86321500Y-97169000D03*
X86321500Y-94869000D03*
D12*
X92621500Y-94869000D03*
G36*
G01*
X87395000Y-112019501D02*
X87395000Y-111119499D01*
G75*
G02*
X87644999Y-110869500I249999J0D01*
G01*
X88170001Y-110869500D01*
G75*
G02*
X88420000Y-111119499I0J-249999D01*
G01*
X88420000Y-112019501D01*
G75*
G02*
X88170001Y-112269500I-249999J0D01*
G01*
X87644999Y-112269500D01*
G75*
G02*
X87395000Y-112019501I0J249999D01*
G01*
G37*
G36*
G01*
X85570000Y-112019501D02*
X85570000Y-111119499D01*
G75*
G02*
X85819999Y-110869500I249999J0D01*
G01*
X86345001Y-110869500D01*
G75*
G02*
X86595000Y-111119499I0J-249999D01*
G01*
X86595000Y-112019501D01*
G75*
G02*
X86345001Y-112269500I-249999J0D01*
G01*
X85819999Y-112269500D01*
G75*
G02*
X85570000Y-112019501I0J249999D01*
G01*
G37*
G36*
G01*
X92538500Y-100145001D02*
X92538500Y-99244999D01*
G75*
G02*
X92788499Y-98995000I249999J0D01*
G01*
X93313501Y-98995000D01*
G75*
G02*
X93563500Y-99244999I0J-249999D01*
G01*
X93563500Y-100145001D01*
G75*
G02*
X93313501Y-100395000I-249999J0D01*
G01*
X92788499Y-100395000D01*
G75*
G02*
X92538500Y-100145001I0J249999D01*
G01*
G37*
G36*
G01*
X90713500Y-100145001D02*
X90713500Y-99244999D01*
G75*
G02*
X90963499Y-98995000I249999J0D01*
G01*
X91488501Y-98995000D01*
G75*
G02*
X91738500Y-99244999I0J-249999D01*
G01*
X91738500Y-100145001D01*
G75*
G02*
X91488501Y-100395000I-249999J0D01*
G01*
X90963499Y-100395000D01*
G75*
G02*
X90713500Y-100145001I0J249999D01*
G01*
G37*
G36*
G01*
X84206501Y-104375000D02*
X83306499Y-104375000D01*
G75*
G02*
X83056500Y-104125001I0J249999D01*
G01*
X83056500Y-103599999D01*
G75*
G02*
X83306499Y-103350000I249999J0D01*
G01*
X84206501Y-103350000D01*
G75*
G02*
X84456500Y-103599999I0J-249999D01*
G01*
X84456500Y-104125001D01*
G75*
G02*
X84206501Y-104375000I-249999J0D01*
G01*
G37*
G36*
G01*
X84206501Y-106200000D02*
X83306499Y-106200000D01*
G75*
G02*
X83056500Y-105950001I0J249999D01*
G01*
X83056500Y-105424999D01*
G75*
G02*
X83306499Y-105175000I249999J0D01*
G01*
X84206501Y-105175000D01*
G75*
G02*
X84456500Y-105424999I0J-249999D01*
G01*
X84456500Y-105950001D01*
G75*
G02*
X84206501Y-106200000I-249999J0D01*
G01*
G37*
G36*
G01*
X81147499Y-105151500D02*
X82047501Y-105151500D01*
G75*
G02*
X82297500Y-105401499I0J-249999D01*
G01*
X82297500Y-105926501D01*
G75*
G02*
X82047501Y-106176500I-249999J0D01*
G01*
X81147499Y-106176500D01*
G75*
G02*
X80897500Y-105926501I0J249999D01*
G01*
X80897500Y-105401499D01*
G75*
G02*
X81147499Y-105151500I249999J0D01*
G01*
G37*
G36*
G01*
X81147499Y-103326500D02*
X82047501Y-103326500D01*
G75*
G02*
X82297500Y-103576499I0J-249999D01*
G01*
X82297500Y-104101501D01*
G75*
G02*
X82047501Y-104351500I-249999J0D01*
G01*
X81147499Y-104351500D01*
G75*
G02*
X80897500Y-104101501I0J249999D01*
G01*
X80897500Y-103576499D01*
G75*
G02*
X81147499Y-103326500I249999J0D01*
G01*
G37*
G36*
G01*
X81920501Y-92564000D02*
X81020499Y-92564000D01*
G75*
G02*
X80770500Y-92314001I0J249999D01*
G01*
X80770500Y-91788999D01*
G75*
G02*
X81020499Y-91539000I249999J0D01*
G01*
X81920501Y-91539000D01*
G75*
G02*
X82170500Y-91788999I0J-249999D01*
G01*
X82170500Y-92314001D01*
G75*
G02*
X81920501Y-92564000I-249999J0D01*
G01*
G37*
G36*
G01*
X81920501Y-94389000D02*
X81020499Y-94389000D01*
G75*
G02*
X80770500Y-94139001I0J249999D01*
G01*
X80770500Y-93613999D01*
G75*
G02*
X81020499Y-93364000I249999J0D01*
G01*
X81920501Y-93364000D01*
G75*
G02*
X82170500Y-93613999I0J-249999D01*
G01*
X82170500Y-94139001D01*
G75*
G02*
X81920501Y-94389000I-249999J0D01*
G01*
G37*
G36*
G01*
X84079501Y-92564000D02*
X83179499Y-92564000D01*
G75*
G02*
X82929500Y-92314001I0J249999D01*
G01*
X82929500Y-91788999D01*
G75*
G02*
X83179499Y-91539000I249999J0D01*
G01*
X84079501Y-91539000D01*
G75*
G02*
X84329500Y-91788999I0J-249999D01*
G01*
X84329500Y-92314001D01*
G75*
G02*
X84079501Y-92564000I-249999J0D01*
G01*
G37*
G36*
G01*
X84079501Y-94389000D02*
X83179499Y-94389000D01*
G75*
G02*
X82929500Y-94139001I0J249999D01*
G01*
X82929500Y-93613999D01*
G75*
G02*
X83179499Y-93364000I249999J0D01*
G01*
X84079501Y-93364000D01*
G75*
G02*
X84329500Y-93613999I0J-249999D01*
G01*
X84329500Y-94139001D01*
G75*
G02*
X84079501Y-94389000I-249999J0D01*
G01*
G37*
G36*
G01*
X78276500Y-108769999D02*
X78276500Y-109670001D01*
G75*
G02*
X78026501Y-109920000I-249999J0D01*
G01*
X77501499Y-109920000D01*
G75*
G02*
X77251500Y-109670001I0J249999D01*
G01*
X77251500Y-108769999D01*
G75*
G02*
X77501499Y-108520000I249999J0D01*
G01*
X78026501Y-108520000D01*
G75*
G02*
X78276500Y-108769999I0J-249999D01*
G01*
G37*
G36*
G01*
X80101500Y-108769999D02*
X80101500Y-109670001D01*
G75*
G02*
X79851501Y-109920000I-249999J0D01*
G01*
X79326499Y-109920000D01*
G75*
G02*
X79076500Y-109670001I0J249999D01*
G01*
X79076500Y-108769999D01*
G75*
G02*
X79326499Y-108520000I249999J0D01*
G01*
X79851501Y-108520000D01*
G75*
G02*
X80101500Y-108769999I0J-249999D01*
G01*
G37*
G36*
G01*
X77895500Y-97085999D02*
X77895500Y-97986001D01*
G75*
G02*
X77645501Y-98236000I-249999J0D01*
G01*
X77120499Y-98236000D01*
G75*
G02*
X76870500Y-97986001I0J249999D01*
G01*
X76870500Y-97085999D01*
G75*
G02*
X77120499Y-96836000I249999J0D01*
G01*
X77645501Y-96836000D01*
G75*
G02*
X77895500Y-97085999I0J-249999D01*
G01*
G37*
G36*
G01*
X79720500Y-97085999D02*
X79720500Y-97986001D01*
G75*
G02*
X79470501Y-98236000I-249999J0D01*
G01*
X78945499Y-98236000D01*
G75*
G02*
X78695500Y-97986001I0J249999D01*
G01*
X78695500Y-97085999D01*
G75*
G02*
X78945499Y-96836000I249999J0D01*
G01*
X79470501Y-96836000D01*
G75*
G02*
X79720500Y-97085999I0J-249999D01*
G01*
G37*
G36*
G01*
X83635000Y-112044500D02*
X83635000Y-111094500D01*
G75*
G02*
X83885000Y-110844500I250000J0D01*
G01*
X84385000Y-110844500D01*
G75*
G02*
X84635000Y-111094500I0J-250000D01*
G01*
X84635000Y-112044500D01*
G75*
G02*
X84385000Y-112294500I-250000J0D01*
G01*
X83885000Y-112294500D01*
G75*
G02*
X83635000Y-112044500I0J250000D01*
G01*
G37*
G36*
G01*
X81735000Y-112044500D02*
X81735000Y-111094500D01*
G75*
G02*
X81985000Y-110844500I250000J0D01*
G01*
X82485000Y-110844500D01*
G75*
G02*
X82735000Y-111094500I0J-250000D01*
G01*
X82735000Y-112044500D01*
G75*
G02*
X82485000Y-112294500I-250000J0D01*
G01*
X81985000Y-112294500D01*
G75*
G02*
X81735000Y-112044500I0J250000D01*
G01*
G37*
G36*
G01*
X86227500Y-99220000D02*
X86227500Y-100170000D01*
G75*
G02*
X85977500Y-100420000I-250000J0D01*
G01*
X85477500Y-100420000D01*
G75*
G02*
X85227500Y-100170000I0J250000D01*
G01*
X85227500Y-99220000D01*
G75*
G02*
X85477500Y-98970000I250000J0D01*
G01*
X85977500Y-98970000D01*
G75*
G02*
X86227500Y-99220000I0J-250000D01*
G01*
G37*
G36*
G01*
X88127500Y-99220000D02*
X88127500Y-100170000D01*
G75*
G02*
X87877500Y-100420000I-250000J0D01*
G01*
X87377500Y-100420000D01*
G75*
G02*
X87127500Y-100170000I0J250000D01*
G01*
X87127500Y-99220000D01*
G75*
G02*
X87377500Y-98970000I250000J0D01*
G01*
X87877500Y-98970000D01*
G75*
G02*
X88127500Y-99220000I0J-250000D01*
G01*
G37*
G36*
G01*
X84231500Y-107947000D02*
X83281500Y-107947000D01*
G75*
G02*
X83031500Y-107697000I0J250000D01*
G01*
X83031500Y-107197000D01*
G75*
G02*
X83281500Y-106947000I250000J0D01*
G01*
X84231500Y-106947000D01*
G75*
G02*
X84481500Y-107197000I0J-250000D01*
G01*
X84481500Y-107697000D01*
G75*
G02*
X84231500Y-107947000I-250000J0D01*
G01*
G37*
G36*
G01*
X84231500Y-109847000D02*
X83281500Y-109847000D01*
G75*
G02*
X83031500Y-109597000I0J250000D01*
G01*
X83031500Y-109097000D01*
G75*
G02*
X83281500Y-108847000I250000J0D01*
G01*
X84231500Y-108847000D01*
G75*
G02*
X84481500Y-109097000I0J-250000D01*
G01*
X84481500Y-109597000D01*
G75*
G02*
X84231500Y-109847000I-250000J0D01*
G01*
G37*
G36*
G01*
X84104500Y-96324000D02*
X83154500Y-96324000D01*
G75*
G02*
X82904500Y-96074000I0J250000D01*
G01*
X82904500Y-95574000D01*
G75*
G02*
X83154500Y-95324000I250000J0D01*
G01*
X84104500Y-95324000D01*
G75*
G02*
X84354500Y-95574000I0J-250000D01*
G01*
X84354500Y-96074000D01*
G75*
G02*
X84104500Y-96324000I-250000J0D01*
G01*
G37*
G36*
G01*
X84104500Y-98224000D02*
X83154500Y-98224000D01*
G75*
G02*
X82904500Y-97974000I0J250000D01*
G01*
X82904500Y-97474000D01*
G75*
G02*
X83154500Y-97224000I250000J0D01*
G01*
X84104500Y-97224000D01*
G75*
G02*
X84354500Y-97474000I0J-250000D01*
G01*
X84354500Y-97974000D01*
G75*
G02*
X84104500Y-98224000I-250000J0D01*
G01*
G37*
G36*
G01*
X82072500Y-108008000D02*
X81122500Y-108008000D01*
G75*
G02*
X80872500Y-107758000I0J250000D01*
G01*
X80872500Y-107258000D01*
G75*
G02*
X81122500Y-107008000I250000J0D01*
G01*
X82072500Y-107008000D01*
G75*
G02*
X82322500Y-107258000I0J-250000D01*
G01*
X82322500Y-107758000D01*
G75*
G02*
X82072500Y-108008000I-250000J0D01*
G01*
G37*
G36*
G01*
X82072500Y-109908000D02*
X81122500Y-109908000D01*
G75*
G02*
X80872500Y-109658000I0J250000D01*
G01*
X80872500Y-109158000D01*
G75*
G02*
X81122500Y-108908000I250000J0D01*
G01*
X82072500Y-108908000D01*
G75*
G02*
X82322500Y-109158000I0J-250000D01*
G01*
X82322500Y-109658000D01*
G75*
G02*
X82072500Y-109908000I-250000J0D01*
G01*
G37*
G36*
G01*
X81945500Y-96324000D02*
X80995500Y-96324000D01*
G75*
G02*
X80745500Y-96074000I0J250000D01*
G01*
X80745500Y-95574000D01*
G75*
G02*
X80995500Y-95324000I250000J0D01*
G01*
X81945500Y-95324000D01*
G75*
G02*
X82195500Y-95574000I0J-250000D01*
G01*
X82195500Y-96074000D01*
G75*
G02*
X81945500Y-96324000I-250000J0D01*
G01*
G37*
G36*
G01*
X81945500Y-98224000D02*
X80995500Y-98224000D01*
G75*
G02*
X80745500Y-97974000I0J250000D01*
G01*
X80745500Y-97474000D01*
G75*
G02*
X80995500Y-97224000I250000J0D01*
G01*
X81945500Y-97224000D01*
G75*
G02*
X82195500Y-97474000I0J-250000D01*
G01*
X82195500Y-97974000D01*
G75*
G02*
X81945500Y-98224000I-250000J0D01*
G01*
G37*
G36*
G01*
X142157500Y-130486999D02*
X142157500Y-131387001D01*
G75*
G02*
X141907501Y-131637000I-249999J0D01*
G01*
X141382499Y-131637000D01*
G75*
G02*
X141132500Y-131387001I0J249999D01*
G01*
X141132500Y-130486999D01*
G75*
G02*
X141382499Y-130237000I249999J0D01*
G01*
X141907501Y-130237000D01*
G75*
G02*
X142157500Y-130486999I0J-249999D01*
G01*
G37*
G36*
G01*
X143982500Y-130486999D02*
X143982500Y-131387001D01*
G75*
G02*
X143732501Y-131637000I-249999J0D01*
G01*
X143207499Y-131637000D01*
G75*
G02*
X142957500Y-131387001I0J249999D01*
G01*
X142957500Y-130486999D01*
G75*
G02*
X143207499Y-130237000I249999J0D01*
G01*
X143732501Y-130237000D01*
G75*
G02*
X143982500Y-130486999I0J-249999D01*
G01*
G37*
G36*
G01*
X119198350Y-126150500D02*
X119498350Y-126150500D01*
G75*
G02*
X119648350Y-126300500I0J-150000D01*
G01*
X119648350Y-127950500D01*
G75*
G02*
X119498350Y-128100500I-150000J0D01*
G01*
X119198350Y-128100500D01*
G75*
G02*
X119048350Y-127950500I0J150000D01*
G01*
X119048350Y-126300500D01*
G75*
G02*
X119198350Y-126150500I150000J0D01*
G01*
G37*
G36*
G01*
X117928350Y-126150500D02*
X118228350Y-126150500D01*
G75*
G02*
X118378350Y-126300500I0J-150000D01*
G01*
X118378350Y-127950500D01*
G75*
G02*
X118228350Y-128100500I-150000J0D01*
G01*
X117928350Y-128100500D01*
G75*
G02*
X117778350Y-127950500I0J150000D01*
G01*
X117778350Y-126300500D01*
G75*
G02*
X117928350Y-126150500I150000J0D01*
G01*
G37*
G36*
G01*
X116658350Y-126150500D02*
X116958350Y-126150500D01*
G75*
G02*
X117108350Y-126300500I0J-150000D01*
G01*
X117108350Y-127950500D01*
G75*
G02*
X116958350Y-128100500I-150000J0D01*
G01*
X116658350Y-128100500D01*
G75*
G02*
X116508350Y-127950500I0J150000D01*
G01*
X116508350Y-126300500D01*
G75*
G02*
X116658350Y-126150500I150000J0D01*
G01*
G37*
G36*
G01*
X115388350Y-126150500D02*
X115688350Y-126150500D01*
G75*
G02*
X115838350Y-126300500I0J-150000D01*
G01*
X115838350Y-127950500D01*
G75*
G02*
X115688350Y-128100500I-150000J0D01*
G01*
X115388350Y-128100500D01*
G75*
G02*
X115238350Y-127950500I0J150000D01*
G01*
X115238350Y-126300500D01*
G75*
G02*
X115388350Y-126150500I150000J0D01*
G01*
G37*
G36*
G01*
X114118350Y-126150500D02*
X114418350Y-126150500D01*
G75*
G02*
X114568350Y-126300500I0J-150000D01*
G01*
X114568350Y-127950500D01*
G75*
G02*
X114418350Y-128100500I-150000J0D01*
G01*
X114118350Y-128100500D01*
G75*
G02*
X113968350Y-127950500I0J150000D01*
G01*
X113968350Y-126300500D01*
G75*
G02*
X114118350Y-126150500I150000J0D01*
G01*
G37*
G36*
G01*
X112848350Y-126150500D02*
X113148350Y-126150500D01*
G75*
G02*
X113298350Y-126300500I0J-150000D01*
G01*
X113298350Y-127950500D01*
G75*
G02*
X113148350Y-128100500I-150000J0D01*
G01*
X112848350Y-128100500D01*
G75*
G02*
X112698350Y-127950500I0J150000D01*
G01*
X112698350Y-126300500D01*
G75*
G02*
X112848350Y-126150500I150000J0D01*
G01*
G37*
G36*
G01*
X111578350Y-126150500D02*
X111878350Y-126150500D01*
G75*
G02*
X112028350Y-126300500I0J-150000D01*
G01*
X112028350Y-127950500D01*
G75*
G02*
X111878350Y-128100500I-150000J0D01*
G01*
X111578350Y-128100500D01*
G75*
G02*
X111428350Y-127950500I0J150000D01*
G01*
X111428350Y-126300500D01*
G75*
G02*
X111578350Y-126150500I150000J0D01*
G01*
G37*
G36*
G01*
X111578350Y-121200500D02*
X111878350Y-121200500D01*
G75*
G02*
X112028350Y-121350500I0J-150000D01*
G01*
X112028350Y-123000500D01*
G75*
G02*
X111878350Y-123150500I-150000J0D01*
G01*
X111578350Y-123150500D01*
G75*
G02*
X111428350Y-123000500I0J150000D01*
G01*
X111428350Y-121350500D01*
G75*
G02*
X111578350Y-121200500I150000J0D01*
G01*
G37*
G36*
G01*
X112848350Y-121200500D02*
X113148350Y-121200500D01*
G75*
G02*
X113298350Y-121350500I0J-150000D01*
G01*
X113298350Y-123000500D01*
G75*
G02*
X113148350Y-123150500I-150000J0D01*
G01*
X112848350Y-123150500D01*
G75*
G02*
X112698350Y-123000500I0J150000D01*
G01*
X112698350Y-121350500D01*
G75*
G02*
X112848350Y-121200500I150000J0D01*
G01*
G37*
G36*
G01*
X114118350Y-121200500D02*
X114418350Y-121200500D01*
G75*
G02*
X114568350Y-121350500I0J-150000D01*
G01*
X114568350Y-123000500D01*
G75*
G02*
X114418350Y-123150500I-150000J0D01*
G01*
X114118350Y-123150500D01*
G75*
G02*
X113968350Y-123000500I0J150000D01*
G01*
X113968350Y-121350500D01*
G75*
G02*
X114118350Y-121200500I150000J0D01*
G01*
G37*
G36*
G01*
X115388350Y-121200500D02*
X115688350Y-121200500D01*
G75*
G02*
X115838350Y-121350500I0J-150000D01*
G01*
X115838350Y-123000500D01*
G75*
G02*
X115688350Y-123150500I-150000J0D01*
G01*
X115388350Y-123150500D01*
G75*
G02*
X115238350Y-123000500I0J150000D01*
G01*
X115238350Y-121350500D01*
G75*
G02*
X115388350Y-121200500I150000J0D01*
G01*
G37*
G36*
G01*
X116658350Y-121200500D02*
X116958350Y-121200500D01*
G75*
G02*
X117108350Y-121350500I0J-150000D01*
G01*
X117108350Y-123000500D01*
G75*
G02*
X116958350Y-123150500I-150000J0D01*
G01*
X116658350Y-123150500D01*
G75*
G02*
X116508350Y-123000500I0J150000D01*
G01*
X116508350Y-121350500D01*
G75*
G02*
X116658350Y-121200500I150000J0D01*
G01*
G37*
G36*
G01*
X117928350Y-121200500D02*
X118228350Y-121200500D01*
G75*
G02*
X118378350Y-121350500I0J-150000D01*
G01*
X118378350Y-123000500D01*
G75*
G02*
X118228350Y-123150500I-150000J0D01*
G01*
X117928350Y-123150500D01*
G75*
G02*
X117778350Y-123000500I0J150000D01*
G01*
X117778350Y-121350500D01*
G75*
G02*
X117928350Y-121200500I150000J0D01*
G01*
G37*
G36*
G01*
X119198350Y-121200500D02*
X119498350Y-121200500D01*
G75*
G02*
X119648350Y-121350500I0J-150000D01*
G01*
X119648350Y-123000500D01*
G75*
G02*
X119498350Y-123150500I-150000J0D01*
G01*
X119198350Y-123150500D01*
G75*
G02*
X119048350Y-123000500I0J150000D01*
G01*
X119048350Y-121350500D01*
G75*
G02*
X119198350Y-121200500I150000J0D01*
G01*
G37*
D13*
X137902500Y-128875500D03*
X137902500Y-128225500D03*
X137902500Y-127575500D03*
X137902500Y-126925500D03*
X137902500Y-126275500D03*
X137902500Y-125625500D03*
X137902500Y-124975500D03*
X137902500Y-124325500D03*
X137902500Y-123675500D03*
X137902500Y-123025500D03*
X137902500Y-122375500D03*
X137902500Y-121725500D03*
X137902500Y-121075500D03*
X137902500Y-120425500D03*
X130702500Y-120425500D03*
X130702500Y-121075500D03*
X130702500Y-121725500D03*
X130702500Y-122375500D03*
X130702500Y-123025500D03*
X130702500Y-123675500D03*
X130702500Y-124325500D03*
X130702500Y-124975500D03*
X130702500Y-125625500D03*
X130702500Y-126275500D03*
X130702500Y-126925500D03*
X130702500Y-127575500D03*
X130702500Y-128225500D03*
X130702500Y-128875500D03*
D14*
X64041000Y-101981000D03*
X64041000Y-103251000D03*
X64041000Y-104521000D03*
X64041000Y-105791000D03*
X58641000Y-105791000D03*
X58641000Y-104521000D03*
X58641000Y-103251000D03*
X58641000Y-101981000D03*
D15*
X61341000Y-103886000D03*
D16*
X94742000Y-124650500D03*
D17*
X100457000Y-129336800D03*
X99187000Y-129336800D03*
X97917000Y-129336800D03*
X96647000Y-129336800D03*
X95377000Y-129336800D03*
X94107000Y-129336800D03*
X92837000Y-129336800D03*
X91567000Y-129336800D03*
X90297000Y-129336800D03*
X89027000Y-129336800D03*
X89027000Y-119964200D03*
X90297000Y-119964200D03*
X91567000Y-119964200D03*
X92837000Y-119964200D03*
X94107000Y-119964200D03*
X95377000Y-119964200D03*
X96647000Y-119964200D03*
X97917000Y-119964200D03*
X99187000Y-119964200D03*
X100457000Y-119964200D03*
D18*
X121348500Y-58213500D03*
X121348500Y-59213500D03*
X121348500Y-60213500D03*
X121348500Y-61213500D03*
X121348500Y-62213500D03*
X121348500Y-63213500D03*
X121348500Y-64213500D03*
X121348500Y-65213500D03*
X121348500Y-66213500D03*
X121348500Y-67213500D03*
X121348500Y-68213500D03*
X121348500Y-69213500D03*
X121348500Y-70213500D03*
X121348500Y-71213500D03*
X121348500Y-72213500D03*
X121348500Y-73213500D03*
X121348500Y-74213500D03*
D19*
X123348500Y-75213500D03*
X124348500Y-75213500D03*
X125348500Y-75213500D03*
X126348500Y-75213500D03*
X127348500Y-75213500D03*
X128348500Y-75213500D03*
X129348500Y-75213500D03*
X130348500Y-75213500D03*
X131348500Y-75213500D03*
X132348500Y-75213500D03*
X132348500Y-57213500D03*
X125348500Y-57213500D03*
X128348500Y-57213500D03*
X126348500Y-57213500D03*
X131348500Y-57213500D03*
X127348500Y-57213500D03*
X124348500Y-57213500D03*
X129348500Y-57213500D03*
X130348500Y-57213500D03*
X123348500Y-57213500D03*
D18*
X134348500Y-69213500D03*
X134348500Y-73213500D03*
X134348500Y-61213500D03*
X134348500Y-62213500D03*
X134348500Y-59213500D03*
X134348500Y-64213500D03*
X134348500Y-68213500D03*
X134348500Y-71213500D03*
X134348500Y-60213500D03*
X134348500Y-72213500D03*
X134348500Y-63213500D03*
X134348500Y-65213500D03*
X134348500Y-58213500D03*
X134348500Y-66213500D03*
X134348500Y-67213500D03*
X134348500Y-74213500D03*
X134348500Y-70213500D03*
D11*
X86512000Y-72757000D03*
X86512000Y-77357000D03*
X86512000Y-75057000D03*
D12*
X92812000Y-75057000D03*
G36*
G01*
X110257000Y-94698000D02*
X109707000Y-94698000D01*
G75*
G02*
X109507000Y-94498000I0J200000D01*
G01*
X109507000Y-94098000D01*
G75*
G02*
X109707000Y-93898000I200000J0D01*
G01*
X110257000Y-93898000D01*
G75*
G02*
X110457000Y-94098000I0J-200000D01*
G01*
X110457000Y-94498000D01*
G75*
G02*
X110257000Y-94698000I-200000J0D01*
G01*
G37*
G36*
G01*
X110257000Y-96348000D02*
X109707000Y-96348000D01*
G75*
G02*
X109507000Y-96148000I0J200000D01*
G01*
X109507000Y-95748000D01*
G75*
G02*
X109707000Y-95548000I200000J0D01*
G01*
X110257000Y-95548000D01*
G75*
G02*
X110457000Y-95748000I0J-200000D01*
G01*
X110457000Y-96148000D01*
G75*
G02*
X110257000Y-96348000I-200000J0D01*
G01*
G37*
G36*
G01*
X136036000Y-101351501D02*
X136036000Y-100451499D01*
G75*
G02*
X136285999Y-100201500I249999J0D01*
G01*
X136811001Y-100201500D01*
G75*
G02*
X137061000Y-100451499I0J-249999D01*
G01*
X137061000Y-101351501D01*
G75*
G02*
X136811001Y-101601500I-249999J0D01*
G01*
X136285999Y-101601500D01*
G75*
G02*
X136036000Y-101351501I0J249999D01*
G01*
G37*
G36*
G01*
X134211000Y-101351501D02*
X134211000Y-100451499D01*
G75*
G02*
X134460999Y-100201500I249999J0D01*
G01*
X134986001Y-100201500D01*
G75*
G02*
X135236000Y-100451499I0J-249999D01*
G01*
X135236000Y-101351501D01*
G75*
G02*
X134986001Y-101601500I-249999J0D01*
G01*
X134460999Y-101601500D01*
G75*
G02*
X134211000Y-101351501I0J249999D01*
G01*
G37*
G36*
G01*
X113659500Y-118143000D02*
X113659500Y-119093000D01*
G75*
G02*
X113409500Y-119343000I-250000J0D01*
G01*
X112909500Y-119343000D01*
G75*
G02*
X112659500Y-119093000I0J250000D01*
G01*
X112659500Y-118143000D01*
G75*
G02*
X112909500Y-117893000I250000J0D01*
G01*
X113409500Y-117893000D01*
G75*
G02*
X113659500Y-118143000I0J-250000D01*
G01*
G37*
G36*
G01*
X115559500Y-118143000D02*
X115559500Y-119093000D01*
G75*
G02*
X115309500Y-119343000I-250000J0D01*
G01*
X114809500Y-119343000D01*
G75*
G02*
X114559500Y-119093000I0J250000D01*
G01*
X114559500Y-118143000D01*
G75*
G02*
X114809500Y-117893000I250000J0D01*
G01*
X115309500Y-117893000D01*
G75*
G02*
X115559500Y-118143000I0J-250000D01*
G01*
G37*
G36*
G01*
X113659500Y-115984000D02*
X113659500Y-116934000D01*
G75*
G02*
X113409500Y-117184000I-250000J0D01*
G01*
X112909500Y-117184000D01*
G75*
G02*
X112659500Y-116934000I0J250000D01*
G01*
X112659500Y-115984000D01*
G75*
G02*
X112909500Y-115734000I250000J0D01*
G01*
X113409500Y-115734000D01*
G75*
G02*
X113659500Y-115984000I0J-250000D01*
G01*
G37*
G36*
G01*
X115559500Y-115984000D02*
X115559500Y-116934000D01*
G75*
G02*
X115309500Y-117184000I-250000J0D01*
G01*
X114809500Y-117184000D01*
G75*
G02*
X114559500Y-116934000I0J250000D01*
G01*
X114559500Y-115984000D01*
G75*
G02*
X114809500Y-115734000I250000J0D01*
G01*
X115309500Y-115734000D01*
G75*
G02*
X115559500Y-115984000I0J-250000D01*
G01*
G37*
G36*
G01*
X113596000Y-130589000D02*
X113596000Y-131539000D01*
G75*
G02*
X113346000Y-131789000I-250000J0D01*
G01*
X112846000Y-131789000D01*
G75*
G02*
X112596000Y-131539000I0J250000D01*
G01*
X112596000Y-130589000D01*
G75*
G02*
X112846000Y-130339000I250000J0D01*
G01*
X113346000Y-130339000D01*
G75*
G02*
X113596000Y-130589000I0J-250000D01*
G01*
G37*
G36*
G01*
X115496000Y-130589000D02*
X115496000Y-131539000D01*
G75*
G02*
X115246000Y-131789000I-250000J0D01*
G01*
X114746000Y-131789000D01*
G75*
G02*
X114496000Y-131539000I0J250000D01*
G01*
X114496000Y-130589000D01*
G75*
G02*
X114746000Y-130339000I250000J0D01*
G01*
X115246000Y-130339000D01*
G75*
G02*
X115496000Y-130589000I0J-250000D01*
G01*
G37*
G36*
G01*
X113596000Y-132811500D02*
X113596000Y-133761500D01*
G75*
G02*
X113346000Y-134011500I-250000J0D01*
G01*
X112846000Y-134011500D01*
G75*
G02*
X112596000Y-133761500I0J250000D01*
G01*
X112596000Y-132811500D01*
G75*
G02*
X112846000Y-132561500I250000J0D01*
G01*
X113346000Y-132561500D01*
G75*
G02*
X113596000Y-132811500I0J-250000D01*
G01*
G37*
G36*
G01*
X115496000Y-132811500D02*
X115496000Y-133761500D01*
G75*
G02*
X115246000Y-134011500I-250000J0D01*
G01*
X114746000Y-134011500D01*
G75*
G02*
X114496000Y-133761500I0J250000D01*
G01*
X114496000Y-132811500D01*
G75*
G02*
X114746000Y-132561500I250000J0D01*
G01*
X115246000Y-132561500D01*
G75*
G02*
X115496000Y-132811500I0J-250000D01*
G01*
G37*
G36*
G01*
X119501500Y-130525500D02*
X119501500Y-131475500D01*
G75*
G02*
X119251500Y-131725500I-250000J0D01*
G01*
X118751500Y-131725500D01*
G75*
G02*
X118501500Y-131475500I0J250000D01*
G01*
X118501500Y-130525500D01*
G75*
G02*
X118751500Y-130275500I250000J0D01*
G01*
X119251500Y-130275500D01*
G75*
G02*
X119501500Y-130525500I0J-250000D01*
G01*
G37*
G36*
G01*
X121401500Y-130525500D02*
X121401500Y-131475500D01*
G75*
G02*
X121151500Y-131725500I-250000J0D01*
G01*
X120651500Y-131725500D01*
G75*
G02*
X120401500Y-131475500I0J250000D01*
G01*
X120401500Y-130525500D01*
G75*
G02*
X120651500Y-130275500I250000J0D01*
G01*
X121151500Y-130275500D01*
G75*
G02*
X121401500Y-130525500I0J-250000D01*
G01*
G37*
G36*
G01*
X119374500Y-116047500D02*
X119374500Y-116997500D01*
G75*
G02*
X119124500Y-117247500I-250000J0D01*
G01*
X118624500Y-117247500D01*
G75*
G02*
X118374500Y-116997500I0J250000D01*
G01*
X118374500Y-116047500D01*
G75*
G02*
X118624500Y-115797500I250000J0D01*
G01*
X119124500Y-115797500D01*
G75*
G02*
X119374500Y-116047500I0J-250000D01*
G01*
G37*
G36*
G01*
X121274500Y-116047500D02*
X121274500Y-116997500D01*
G75*
G02*
X121024500Y-117247500I-250000J0D01*
G01*
X120524500Y-117247500D01*
G75*
G02*
X120274500Y-116997500I0J250000D01*
G01*
X120274500Y-116047500D01*
G75*
G02*
X120524500Y-115797500I250000J0D01*
G01*
X121024500Y-115797500D01*
G75*
G02*
X121274500Y-116047500I0J-250000D01*
G01*
G37*
G36*
G01*
X127121500Y-132938500D02*
X127121500Y-133888500D01*
G75*
G02*
X126871500Y-134138500I-250000J0D01*
G01*
X126371500Y-134138500D01*
G75*
G02*
X126121500Y-133888500I0J250000D01*
G01*
X126121500Y-132938500D01*
G75*
G02*
X126371500Y-132688500I250000J0D01*
G01*
X126871500Y-132688500D01*
G75*
G02*
X127121500Y-132938500I0J-250000D01*
G01*
G37*
G36*
G01*
X129021500Y-132938500D02*
X129021500Y-133888500D01*
G75*
G02*
X128771500Y-134138500I-250000J0D01*
G01*
X128271500Y-134138500D01*
G75*
G02*
X128021500Y-133888500I0J250000D01*
G01*
X128021500Y-132938500D01*
G75*
G02*
X128271500Y-132688500I250000J0D01*
G01*
X128771500Y-132688500D01*
G75*
G02*
X129021500Y-132938500I0J-250000D01*
G01*
G37*
G36*
G01*
X98541000Y-107484999D02*
X98541000Y-109685001D01*
G75*
G02*
X98291001Y-109935000I-249999J0D01*
G01*
X97640999Y-109935000D01*
G75*
G02*
X97391000Y-109685001I0J249999D01*
G01*
X97391000Y-107484999D01*
G75*
G02*
X97640999Y-107235000I249999J0D01*
G01*
X98291001Y-107235000D01*
G75*
G02*
X98541000Y-107484999I0J-249999D01*
G01*
G37*
G36*
G01*
X101491000Y-107484999D02*
X101491000Y-109685001D01*
G75*
G02*
X101241001Y-109935000I-249999J0D01*
G01*
X100590999Y-109935000D01*
G75*
G02*
X100341000Y-109685001I0J249999D01*
G01*
X100341000Y-107484999D01*
G75*
G02*
X100590999Y-107235000I249999J0D01*
G01*
X101241001Y-107235000D01*
G75*
G02*
X101491000Y-107484999I0J-249999D01*
G01*
G37*
G36*
G01*
X98604500Y-104119499D02*
X98604500Y-106319501D01*
G75*
G02*
X98354501Y-106569500I-249999J0D01*
G01*
X97704499Y-106569500D01*
G75*
G02*
X97454500Y-106319501I0J249999D01*
G01*
X97454500Y-104119499D01*
G75*
G02*
X97704499Y-103869500I249999J0D01*
G01*
X98354501Y-103869500D01*
G75*
G02*
X98604500Y-104119499I0J-249999D01*
G01*
G37*
G36*
G01*
X101554500Y-104119499D02*
X101554500Y-106319501D01*
G75*
G02*
X101304501Y-106569500I-249999J0D01*
G01*
X100654499Y-106569500D01*
G75*
G02*
X100404500Y-106319501I0J249999D01*
G01*
X100404500Y-104119499D01*
G75*
G02*
X100654499Y-103869500I249999J0D01*
G01*
X101304501Y-103869500D01*
G75*
G02*
X101554500Y-104119499I0J-249999D01*
G01*
G37*
G36*
G01*
X103538000Y-93988000D02*
X104488000Y-93988000D01*
G75*
G02*
X104738000Y-94238000I0J-250000D01*
G01*
X104738000Y-94738000D01*
G75*
G02*
X104488000Y-94988000I-250000J0D01*
G01*
X103538000Y-94988000D01*
G75*
G02*
X103288000Y-94738000I0J250000D01*
G01*
X103288000Y-94238000D01*
G75*
G02*
X103538000Y-93988000I250000J0D01*
G01*
G37*
G36*
G01*
X103538000Y-92088000D02*
X104488000Y-92088000D01*
G75*
G02*
X104738000Y-92338000I0J-250000D01*
G01*
X104738000Y-92838000D01*
G75*
G02*
X104488000Y-93088000I-250000J0D01*
G01*
X103538000Y-93088000D01*
G75*
G02*
X103288000Y-92838000I0J250000D01*
G01*
X103288000Y-92338000D01*
G75*
G02*
X103538000Y-92088000I250000J0D01*
G01*
G37*
G36*
G01*
X108479000Y-89529499D02*
X108479000Y-90429501D01*
G75*
G02*
X108229001Y-90679500I-249999J0D01*
G01*
X107703999Y-90679500D01*
G75*
G02*
X107454000Y-90429501I0J249999D01*
G01*
X107454000Y-89529499D01*
G75*
G02*
X107703999Y-89279500I249999J0D01*
G01*
X108229001Y-89279500D01*
G75*
G02*
X108479000Y-89529499I0J-249999D01*
G01*
G37*
G36*
G01*
X110304000Y-89529499D02*
X110304000Y-90429501D01*
G75*
G02*
X110054001Y-90679500I-249999J0D01*
G01*
X109528999Y-90679500D01*
G75*
G02*
X109279000Y-90429501I0J249999D01*
G01*
X109279000Y-89529499D01*
G75*
G02*
X109528999Y-89279500I249999J0D01*
G01*
X110054001Y-89279500D01*
G75*
G02*
X110304000Y-89529499I0J-249999D01*
G01*
G37*
G36*
G01*
X104515500Y-99982000D02*
X104515500Y-100932000D01*
G75*
G02*
X104265500Y-101182000I-250000J0D01*
G01*
X103765500Y-101182000D01*
G75*
G02*
X103515500Y-100932000I0J250000D01*
G01*
X103515500Y-99982000D01*
G75*
G02*
X103765500Y-99732000I250000J0D01*
G01*
X104265500Y-99732000D01*
G75*
G02*
X104515500Y-99982000I0J-250000D01*
G01*
G37*
G36*
G01*
X106415500Y-99982000D02*
X106415500Y-100932000D01*
G75*
G02*
X106165500Y-101182000I-250000J0D01*
G01*
X105665500Y-101182000D01*
G75*
G02*
X105415500Y-100932000I0J250000D01*
G01*
X105415500Y-99982000D01*
G75*
G02*
X105665500Y-99732000I250000J0D01*
G01*
X106165500Y-99732000D01*
G75*
G02*
X106415500Y-99982000I0J-250000D01*
G01*
G37*
G36*
G01*
X114142500Y-106622000D02*
X115092500Y-106622000D01*
G75*
G02*
X115342500Y-106872000I0J-250000D01*
G01*
X115342500Y-107372000D01*
G75*
G02*
X115092500Y-107622000I-250000J0D01*
G01*
X114142500Y-107622000D01*
G75*
G02*
X113892500Y-107372000I0J250000D01*
G01*
X113892500Y-106872000D01*
G75*
G02*
X114142500Y-106622000I250000J0D01*
G01*
G37*
G36*
G01*
X114142500Y-104722000D02*
X115092500Y-104722000D01*
G75*
G02*
X115342500Y-104972000I0J-250000D01*
G01*
X115342500Y-105472000D01*
G75*
G02*
X115092500Y-105722000I-250000J0D01*
G01*
X114142500Y-105722000D01*
G75*
G02*
X113892500Y-105472000I0J250000D01*
G01*
X113892500Y-104972000D01*
G75*
G02*
X114142500Y-104722000I250000J0D01*
G01*
G37*
G36*
G01*
X123350000Y-106495000D02*
X124300000Y-106495000D01*
G75*
G02*
X124550000Y-106745000I0J-250000D01*
G01*
X124550000Y-107245000D01*
G75*
G02*
X124300000Y-107495000I-250000J0D01*
G01*
X123350000Y-107495000D01*
G75*
G02*
X123100000Y-107245000I0J250000D01*
G01*
X123100000Y-106745000D01*
G75*
G02*
X123350000Y-106495000I250000J0D01*
G01*
G37*
G36*
G01*
X123350000Y-104595000D02*
X124300000Y-104595000D01*
G75*
G02*
X124550000Y-104845000I0J-250000D01*
G01*
X124550000Y-105345000D01*
G75*
G02*
X124300000Y-105595000I-250000J0D01*
G01*
X123350000Y-105595000D01*
G75*
G02*
X123100000Y-105345000I0J250000D01*
G01*
X123100000Y-104845000D01*
G75*
G02*
X123350000Y-104595000I250000J0D01*
G01*
G37*
G36*
G01*
X109187000Y-100832500D02*
X108237000Y-100832500D01*
G75*
G02*
X107987000Y-100582500I0J250000D01*
G01*
X107987000Y-100082500D01*
G75*
G02*
X108237000Y-99832500I250000J0D01*
G01*
X109187000Y-99832500D01*
G75*
G02*
X109437000Y-100082500I0J-250000D01*
G01*
X109437000Y-100582500D01*
G75*
G02*
X109187000Y-100832500I-250000J0D01*
G01*
G37*
G36*
G01*
X109187000Y-102732500D02*
X108237000Y-102732500D01*
G75*
G02*
X107987000Y-102482500I0J250000D01*
G01*
X107987000Y-101982500D01*
G75*
G02*
X108237000Y-101732500I250000J0D01*
G01*
X109187000Y-101732500D01*
G75*
G02*
X109437000Y-101982500I0J-250000D01*
G01*
X109437000Y-102482500D01*
G75*
G02*
X109187000Y-102732500I-250000J0D01*
G01*
G37*
G36*
G01*
X128402500Y-91470500D02*
X128402500Y-90520500D01*
G75*
G02*
X128652500Y-90270500I250000J0D01*
G01*
X129152500Y-90270500D01*
G75*
G02*
X129402500Y-90520500I0J-250000D01*
G01*
X129402500Y-91470500D01*
G75*
G02*
X129152500Y-91720500I-250000J0D01*
G01*
X128652500Y-91720500D01*
G75*
G02*
X128402500Y-91470500I0J250000D01*
G01*
G37*
G36*
G01*
X126502500Y-91470500D02*
X126502500Y-90520500D01*
G75*
G02*
X126752500Y-90270500I250000J0D01*
G01*
X127252500Y-90270500D01*
G75*
G02*
X127502500Y-90520500I0J-250000D01*
G01*
X127502500Y-91470500D01*
G75*
G02*
X127252500Y-91720500I-250000J0D01*
G01*
X126752500Y-91720500D01*
G75*
G02*
X126502500Y-91470500I0J250000D01*
G01*
G37*
G36*
G01*
X86429002Y-122536000D02*
X85528998Y-122536000D01*
G75*
G02*
X85279000Y-122286002I0J249998D01*
G01*
X85279000Y-121760998D01*
G75*
G02*
X85528998Y-121511000I249998J0D01*
G01*
X86429002Y-121511000D01*
G75*
G02*
X86679000Y-121760998I0J-249998D01*
G01*
X86679000Y-122286002D01*
G75*
G02*
X86429002Y-122536000I-249998J0D01*
G01*
G37*
G36*
G01*
X86429002Y-124361000D02*
X85528998Y-124361000D01*
G75*
G02*
X85279000Y-124111002I0J249998D01*
G01*
X85279000Y-123585998D01*
G75*
G02*
X85528998Y-123336000I249998J0D01*
G01*
X86429002Y-123336000D01*
G75*
G02*
X86679000Y-123585998I0J-249998D01*
G01*
X86679000Y-124111002D01*
G75*
G02*
X86429002Y-124361000I-249998J0D01*
G01*
G37*
G36*
G01*
X106445000Y-130434502D02*
X106445000Y-129534498D01*
G75*
G02*
X106694998Y-129284500I249998J0D01*
G01*
X107220002Y-129284500D01*
G75*
G02*
X107470000Y-129534498I0J-249998D01*
G01*
X107470000Y-130434502D01*
G75*
G02*
X107220002Y-130684500I-249998J0D01*
G01*
X106694998Y-130684500D01*
G75*
G02*
X106445000Y-130434502I0J249998D01*
G01*
G37*
G36*
G01*
X104620000Y-130434502D02*
X104620000Y-129534498D01*
G75*
G02*
X104869998Y-129284500I249998J0D01*
G01*
X105395002Y-129284500D01*
G75*
G02*
X105645000Y-129534498I0J-249998D01*
G01*
X105645000Y-130434502D01*
G75*
G02*
X105395002Y-130684500I-249998J0D01*
G01*
X104869998Y-130684500D01*
G75*
G02*
X104620000Y-130434502I0J249998D01*
G01*
G37*
G36*
G01*
X106445000Y-128275502D02*
X106445000Y-127375498D01*
G75*
G02*
X106694998Y-127125500I249998J0D01*
G01*
X107220002Y-127125500D01*
G75*
G02*
X107470000Y-127375498I0J-249998D01*
G01*
X107470000Y-128275502D01*
G75*
G02*
X107220002Y-128525500I-249998J0D01*
G01*
X106694998Y-128525500D01*
G75*
G02*
X106445000Y-128275502I0J249998D01*
G01*
G37*
G36*
G01*
X104620000Y-128275502D02*
X104620000Y-127375498D01*
G75*
G02*
X104869998Y-127125500I249998J0D01*
G01*
X105395002Y-127125500D01*
G75*
G02*
X105645000Y-127375498I0J-249998D01*
G01*
X105645000Y-128275502D01*
G75*
G02*
X105395002Y-128525500I-249998J0D01*
G01*
X104869998Y-128525500D01*
G75*
G02*
X104620000Y-128275502I0J249998D01*
G01*
G37*
G36*
G01*
X106445000Y-124084502D02*
X106445000Y-123184498D01*
G75*
G02*
X106694998Y-122934500I249998J0D01*
G01*
X107220002Y-122934500D01*
G75*
G02*
X107470000Y-123184498I0J-249998D01*
G01*
X107470000Y-124084502D01*
G75*
G02*
X107220002Y-124334500I-249998J0D01*
G01*
X106694998Y-124334500D01*
G75*
G02*
X106445000Y-124084502I0J249998D01*
G01*
G37*
G36*
G01*
X104620000Y-124084502D02*
X104620000Y-123184498D01*
G75*
G02*
X104869998Y-122934500I249998J0D01*
G01*
X105395002Y-122934500D01*
G75*
G02*
X105645000Y-123184498I0J-249998D01*
G01*
X105645000Y-124084502D01*
G75*
G02*
X105395002Y-124334500I-249998J0D01*
G01*
X104869998Y-124334500D01*
G75*
G02*
X104620000Y-124084502I0J249998D01*
G01*
G37*
D20*
X68624000Y-103911400D03*
X74124000Y-103911400D03*
X68624000Y-92786200D03*
X74124000Y-92786200D03*
D21*
X73374000Y-98348800D03*
X69374000Y-98348800D03*
G36*
G01*
X61791000Y-85946000D02*
X61791000Y-84996000D01*
G75*
G02*
X62041000Y-84746000I250000J0D01*
G01*
X62541000Y-84746000D01*
G75*
G02*
X62791000Y-84996000I0J-250000D01*
G01*
X62791000Y-85946000D01*
G75*
G02*
X62541000Y-86196000I-250000J0D01*
G01*
X62041000Y-86196000D01*
G75*
G02*
X61791000Y-85946000I0J250000D01*
G01*
G37*
G36*
G01*
X59891000Y-85946000D02*
X59891000Y-84996000D01*
G75*
G02*
X60141000Y-84746000I250000J0D01*
G01*
X60641000Y-84746000D01*
G75*
G02*
X60891000Y-84996000I0J-250000D01*
G01*
X60891000Y-85946000D01*
G75*
G02*
X60641000Y-86196000I-250000J0D01*
G01*
X60141000Y-86196000D01*
G75*
G02*
X59891000Y-85946000I0J250000D01*
G01*
G37*
G36*
G01*
X64950000Y-95664000D02*
X64950000Y-96614000D01*
G75*
G02*
X64700000Y-96864000I-250000J0D01*
G01*
X64200000Y-96864000D01*
G75*
G02*
X63950000Y-96614000I0J250000D01*
G01*
X63950000Y-95664000D01*
G75*
G02*
X64200000Y-95414000I250000J0D01*
G01*
X64700000Y-95414000D01*
G75*
G02*
X64950000Y-95664000I0J-250000D01*
G01*
G37*
G36*
G01*
X63050000Y-95664000D02*
X63050000Y-96614000D01*
G75*
G02*
X62800000Y-96864000I-250000J0D01*
G01*
X62300000Y-96864000D01*
G75*
G02*
X62050000Y-96614000I0J250000D01*
G01*
X62050000Y-95664000D01*
G75*
G02*
X62300000Y-95414000I250000J0D01*
G01*
X62800000Y-95414000D01*
G75*
G02*
X63050000Y-95664000I0J-250000D01*
G01*
G37*
G36*
G01*
X54897000Y-105733000D02*
X55847000Y-105733000D01*
G75*
G02*
X56097000Y-105983000I0J-250000D01*
G01*
X56097000Y-106483000D01*
G75*
G02*
X55847000Y-106733000I-250000J0D01*
G01*
X54897000Y-106733000D01*
G75*
G02*
X54647000Y-106483000I0J250000D01*
G01*
X54647000Y-105983000D01*
G75*
G02*
X54897000Y-105733000I250000J0D01*
G01*
G37*
G36*
G01*
X54897000Y-103833000D02*
X55847000Y-103833000D01*
G75*
G02*
X56097000Y-104083000I0J-250000D01*
G01*
X56097000Y-104583000D01*
G75*
G02*
X55847000Y-104833000I-250000J0D01*
G01*
X54897000Y-104833000D01*
G75*
G02*
X54647000Y-104583000I0J250000D01*
G01*
X54647000Y-104083000D01*
G75*
G02*
X54897000Y-103833000I250000J0D01*
G01*
G37*
G36*
G01*
X55847000Y-101150000D02*
X54897000Y-101150000D01*
G75*
G02*
X54647000Y-100900000I0J250000D01*
G01*
X54647000Y-100400000D01*
G75*
G02*
X54897000Y-100150000I250000J0D01*
G01*
X55847000Y-100150000D01*
G75*
G02*
X56097000Y-100400000I0J-250000D01*
G01*
X56097000Y-100900000D01*
G75*
G02*
X55847000Y-101150000I-250000J0D01*
G01*
G37*
G36*
G01*
X55847000Y-103050000D02*
X54897000Y-103050000D01*
G75*
G02*
X54647000Y-102800000I0J250000D01*
G01*
X54647000Y-102300000D01*
G75*
G02*
X54897000Y-102050000I250000J0D01*
G01*
X55847000Y-102050000D01*
G75*
G02*
X56097000Y-102300000I0J-250000D01*
G01*
X56097000Y-102800000D01*
G75*
G02*
X55847000Y-103050000I-250000J0D01*
G01*
G37*
D14*
X64041000Y-87884000D03*
X64041000Y-89154000D03*
X64041000Y-90424000D03*
X64041000Y-91694000D03*
X58641000Y-91694000D03*
X58641000Y-90424000D03*
X58641000Y-89154000D03*
X58641000Y-87884000D03*
D15*
X61341000Y-89789000D03*
G36*
G01*
X114845000Y-91418000D02*
X114845000Y-90018000D01*
G75*
G02*
X114920000Y-89943000I75000J0D01*
G01*
X115070000Y-89943000D01*
G75*
G02*
X115145000Y-90018000I0J-75000D01*
G01*
X115145000Y-91418000D01*
G75*
G02*
X115070000Y-91493000I-75000J0D01*
G01*
X114920000Y-91493000D01*
G75*
G02*
X114845000Y-91418000I0J75000D01*
G01*
G37*
G36*
G01*
X115345000Y-91418000D02*
X115345000Y-90018000D01*
G75*
G02*
X115420000Y-89943000I75000J0D01*
G01*
X115570000Y-89943000D01*
G75*
G02*
X115645000Y-90018000I0J-75000D01*
G01*
X115645000Y-91418000D01*
G75*
G02*
X115570000Y-91493000I-75000J0D01*
G01*
X115420000Y-91493000D01*
G75*
G02*
X115345000Y-91418000I0J75000D01*
G01*
G37*
G36*
G01*
X115845000Y-91418000D02*
X115845000Y-90018000D01*
G75*
G02*
X115920000Y-89943000I75000J0D01*
G01*
X116070000Y-89943000D01*
G75*
G02*
X116145000Y-90018000I0J-75000D01*
G01*
X116145000Y-91418000D01*
G75*
G02*
X116070000Y-91493000I-75000J0D01*
G01*
X115920000Y-91493000D01*
G75*
G02*
X115845000Y-91418000I0J75000D01*
G01*
G37*
G36*
G01*
X116345000Y-91418000D02*
X116345000Y-90018000D01*
G75*
G02*
X116420000Y-89943000I75000J0D01*
G01*
X116570000Y-89943000D01*
G75*
G02*
X116645000Y-90018000I0J-75000D01*
G01*
X116645000Y-91418000D01*
G75*
G02*
X116570000Y-91493000I-75000J0D01*
G01*
X116420000Y-91493000D01*
G75*
G02*
X116345000Y-91418000I0J75000D01*
G01*
G37*
G36*
G01*
X116845000Y-91418000D02*
X116845000Y-90018000D01*
G75*
G02*
X116920000Y-89943000I75000J0D01*
G01*
X117070000Y-89943000D01*
G75*
G02*
X117145000Y-90018000I0J-75000D01*
G01*
X117145000Y-91418000D01*
G75*
G02*
X117070000Y-91493000I-75000J0D01*
G01*
X116920000Y-91493000D01*
G75*
G02*
X116845000Y-91418000I0J75000D01*
G01*
G37*
G36*
G01*
X117345000Y-91418000D02*
X117345000Y-90018000D01*
G75*
G02*
X117420000Y-89943000I75000J0D01*
G01*
X117570000Y-89943000D01*
G75*
G02*
X117645000Y-90018000I0J-75000D01*
G01*
X117645000Y-91418000D01*
G75*
G02*
X117570000Y-91493000I-75000J0D01*
G01*
X117420000Y-91493000D01*
G75*
G02*
X117345000Y-91418000I0J75000D01*
G01*
G37*
G36*
G01*
X117845000Y-91418000D02*
X117845000Y-90018000D01*
G75*
G02*
X117920000Y-89943000I75000J0D01*
G01*
X118070000Y-89943000D01*
G75*
G02*
X118145000Y-90018000I0J-75000D01*
G01*
X118145000Y-91418000D01*
G75*
G02*
X118070000Y-91493000I-75000J0D01*
G01*
X117920000Y-91493000D01*
G75*
G02*
X117845000Y-91418000I0J75000D01*
G01*
G37*
G36*
G01*
X118345000Y-91418000D02*
X118345000Y-90018000D01*
G75*
G02*
X118420000Y-89943000I75000J0D01*
G01*
X118570000Y-89943000D01*
G75*
G02*
X118645000Y-90018000I0J-75000D01*
G01*
X118645000Y-91418000D01*
G75*
G02*
X118570000Y-91493000I-75000J0D01*
G01*
X118420000Y-91493000D01*
G75*
G02*
X118345000Y-91418000I0J75000D01*
G01*
G37*
G36*
G01*
X118845000Y-91418000D02*
X118845000Y-90018000D01*
G75*
G02*
X118920000Y-89943000I75000J0D01*
G01*
X119070000Y-89943000D01*
G75*
G02*
X119145000Y-90018000I0J-75000D01*
G01*
X119145000Y-91418000D01*
G75*
G02*
X119070000Y-91493000I-75000J0D01*
G01*
X118920000Y-91493000D01*
G75*
G02*
X118845000Y-91418000I0J75000D01*
G01*
G37*
G36*
G01*
X119345000Y-91418000D02*
X119345000Y-90018000D01*
G75*
G02*
X119420000Y-89943000I75000J0D01*
G01*
X119570000Y-89943000D01*
G75*
G02*
X119645000Y-90018000I0J-75000D01*
G01*
X119645000Y-91418000D01*
G75*
G02*
X119570000Y-91493000I-75000J0D01*
G01*
X119420000Y-91493000D01*
G75*
G02*
X119345000Y-91418000I0J75000D01*
G01*
G37*
G36*
G01*
X119845000Y-91418000D02*
X119845000Y-90018000D01*
G75*
G02*
X119920000Y-89943000I75000J0D01*
G01*
X120070000Y-89943000D01*
G75*
G02*
X120145000Y-90018000I0J-75000D01*
G01*
X120145000Y-91418000D01*
G75*
G02*
X120070000Y-91493000I-75000J0D01*
G01*
X119920000Y-91493000D01*
G75*
G02*
X119845000Y-91418000I0J75000D01*
G01*
G37*
G36*
G01*
X120345000Y-91418000D02*
X120345000Y-90018000D01*
G75*
G02*
X120420000Y-89943000I75000J0D01*
G01*
X120570000Y-89943000D01*
G75*
G02*
X120645000Y-90018000I0J-75000D01*
G01*
X120645000Y-91418000D01*
G75*
G02*
X120570000Y-91493000I-75000J0D01*
G01*
X120420000Y-91493000D01*
G75*
G02*
X120345000Y-91418000I0J75000D01*
G01*
G37*
G36*
G01*
X120845000Y-91418000D02*
X120845000Y-90018000D01*
G75*
G02*
X120920000Y-89943000I75000J0D01*
G01*
X121070000Y-89943000D01*
G75*
G02*
X121145000Y-90018000I0J-75000D01*
G01*
X121145000Y-91418000D01*
G75*
G02*
X121070000Y-91493000I-75000J0D01*
G01*
X120920000Y-91493000D01*
G75*
G02*
X120845000Y-91418000I0J75000D01*
G01*
G37*
G36*
G01*
X121345000Y-91418000D02*
X121345000Y-90018000D01*
G75*
G02*
X121420000Y-89943000I75000J0D01*
G01*
X121570000Y-89943000D01*
G75*
G02*
X121645000Y-90018000I0J-75000D01*
G01*
X121645000Y-91418000D01*
G75*
G02*
X121570000Y-91493000I-75000J0D01*
G01*
X121420000Y-91493000D01*
G75*
G02*
X121345000Y-91418000I0J75000D01*
G01*
G37*
G36*
G01*
X121845000Y-91418000D02*
X121845000Y-90018000D01*
G75*
G02*
X121920000Y-89943000I75000J0D01*
G01*
X122070000Y-89943000D01*
G75*
G02*
X122145000Y-90018000I0J-75000D01*
G01*
X122145000Y-91418000D01*
G75*
G02*
X122070000Y-91493000I-75000J0D01*
G01*
X121920000Y-91493000D01*
G75*
G02*
X121845000Y-91418000I0J75000D01*
G01*
G37*
G36*
G01*
X122345000Y-91418000D02*
X122345000Y-90018000D01*
G75*
G02*
X122420000Y-89943000I75000J0D01*
G01*
X122570000Y-89943000D01*
G75*
G02*
X122645000Y-90018000I0J-75000D01*
G01*
X122645000Y-91418000D01*
G75*
G02*
X122570000Y-91493000I-75000J0D01*
G01*
X122420000Y-91493000D01*
G75*
G02*
X122345000Y-91418000I0J75000D01*
G01*
G37*
G36*
G01*
X123645000Y-92718000D02*
X123645000Y-92568000D01*
G75*
G02*
X123720000Y-92493000I75000J0D01*
G01*
X125120000Y-92493000D01*
G75*
G02*
X125195000Y-92568000I0J-75000D01*
G01*
X125195000Y-92718000D01*
G75*
G02*
X125120000Y-92793000I-75000J0D01*
G01*
X123720000Y-92793000D01*
G75*
G02*
X123645000Y-92718000I0J75000D01*
G01*
G37*
G36*
G01*
X123645000Y-93218000D02*
X123645000Y-93068000D01*
G75*
G02*
X123720000Y-92993000I75000J0D01*
G01*
X125120000Y-92993000D01*
G75*
G02*
X125195000Y-93068000I0J-75000D01*
G01*
X125195000Y-93218000D01*
G75*
G02*
X125120000Y-93293000I-75000J0D01*
G01*
X123720000Y-93293000D01*
G75*
G02*
X123645000Y-93218000I0J75000D01*
G01*
G37*
G36*
G01*
X123645000Y-93718000D02*
X123645000Y-93568000D01*
G75*
G02*
X123720000Y-93493000I75000J0D01*
G01*
X125120000Y-93493000D01*
G75*
G02*
X125195000Y-93568000I0J-75000D01*
G01*
X125195000Y-93718000D01*
G75*
G02*
X125120000Y-93793000I-75000J0D01*
G01*
X123720000Y-93793000D01*
G75*
G02*
X123645000Y-93718000I0J75000D01*
G01*
G37*
G36*
G01*
X123645000Y-94218000D02*
X123645000Y-94068000D01*
G75*
G02*
X123720000Y-93993000I75000J0D01*
G01*
X125120000Y-93993000D01*
G75*
G02*
X125195000Y-94068000I0J-75000D01*
G01*
X125195000Y-94218000D01*
G75*
G02*
X125120000Y-94293000I-75000J0D01*
G01*
X123720000Y-94293000D01*
G75*
G02*
X123645000Y-94218000I0J75000D01*
G01*
G37*
G36*
G01*
X123645000Y-94718000D02*
X123645000Y-94568000D01*
G75*
G02*
X123720000Y-94493000I75000J0D01*
G01*
X125120000Y-94493000D01*
G75*
G02*
X125195000Y-94568000I0J-75000D01*
G01*
X125195000Y-94718000D01*
G75*
G02*
X125120000Y-94793000I-75000J0D01*
G01*
X123720000Y-94793000D01*
G75*
G02*
X123645000Y-94718000I0J75000D01*
G01*
G37*
G36*
G01*
X123645000Y-95218000D02*
X123645000Y-95068000D01*
G75*
G02*
X123720000Y-94993000I75000J0D01*
G01*
X125120000Y-94993000D01*
G75*
G02*
X125195000Y-95068000I0J-75000D01*
G01*
X125195000Y-95218000D01*
G75*
G02*
X125120000Y-95293000I-75000J0D01*
G01*
X123720000Y-95293000D01*
G75*
G02*
X123645000Y-95218000I0J75000D01*
G01*
G37*
G36*
G01*
X123645000Y-95718000D02*
X123645000Y-95568000D01*
G75*
G02*
X123720000Y-95493000I75000J0D01*
G01*
X125120000Y-95493000D01*
G75*
G02*
X125195000Y-95568000I0J-75000D01*
G01*
X125195000Y-95718000D01*
G75*
G02*
X125120000Y-95793000I-75000J0D01*
G01*
X123720000Y-95793000D01*
G75*
G02*
X123645000Y-95718000I0J75000D01*
G01*
G37*
G36*
G01*
X123645000Y-96218000D02*
X123645000Y-96068000D01*
G75*
G02*
X123720000Y-95993000I75000J0D01*
G01*
X125120000Y-95993000D01*
G75*
G02*
X125195000Y-96068000I0J-75000D01*
G01*
X125195000Y-96218000D01*
G75*
G02*
X125120000Y-96293000I-75000J0D01*
G01*
X123720000Y-96293000D01*
G75*
G02*
X123645000Y-96218000I0J75000D01*
G01*
G37*
G36*
G01*
X123645000Y-96718000D02*
X123645000Y-96568000D01*
G75*
G02*
X123720000Y-96493000I75000J0D01*
G01*
X125120000Y-96493000D01*
G75*
G02*
X125195000Y-96568000I0J-75000D01*
G01*
X125195000Y-96718000D01*
G75*
G02*
X125120000Y-96793000I-75000J0D01*
G01*
X123720000Y-96793000D01*
G75*
G02*
X123645000Y-96718000I0J75000D01*
G01*
G37*
G36*
G01*
X123645000Y-97218000D02*
X123645000Y-97068000D01*
G75*
G02*
X123720000Y-96993000I75000J0D01*
G01*
X125120000Y-96993000D01*
G75*
G02*
X125195000Y-97068000I0J-75000D01*
G01*
X125195000Y-97218000D01*
G75*
G02*
X125120000Y-97293000I-75000J0D01*
G01*
X123720000Y-97293000D01*
G75*
G02*
X123645000Y-97218000I0J75000D01*
G01*
G37*
G36*
G01*
X123645000Y-97718000D02*
X123645000Y-97568000D01*
G75*
G02*
X123720000Y-97493000I75000J0D01*
G01*
X125120000Y-97493000D01*
G75*
G02*
X125195000Y-97568000I0J-75000D01*
G01*
X125195000Y-97718000D01*
G75*
G02*
X125120000Y-97793000I-75000J0D01*
G01*
X123720000Y-97793000D01*
G75*
G02*
X123645000Y-97718000I0J75000D01*
G01*
G37*
G36*
G01*
X123645000Y-98218000D02*
X123645000Y-98068000D01*
G75*
G02*
X123720000Y-97993000I75000J0D01*
G01*
X125120000Y-97993000D01*
G75*
G02*
X125195000Y-98068000I0J-75000D01*
G01*
X125195000Y-98218000D01*
G75*
G02*
X125120000Y-98293000I-75000J0D01*
G01*
X123720000Y-98293000D01*
G75*
G02*
X123645000Y-98218000I0J75000D01*
G01*
G37*
G36*
G01*
X123645000Y-98718000D02*
X123645000Y-98568000D01*
G75*
G02*
X123720000Y-98493000I75000J0D01*
G01*
X125120000Y-98493000D01*
G75*
G02*
X125195000Y-98568000I0J-75000D01*
G01*
X125195000Y-98718000D01*
G75*
G02*
X125120000Y-98793000I-75000J0D01*
G01*
X123720000Y-98793000D01*
G75*
G02*
X123645000Y-98718000I0J75000D01*
G01*
G37*
G36*
G01*
X123645000Y-99218000D02*
X123645000Y-99068000D01*
G75*
G02*
X123720000Y-98993000I75000J0D01*
G01*
X125120000Y-98993000D01*
G75*
G02*
X125195000Y-99068000I0J-75000D01*
G01*
X125195000Y-99218000D01*
G75*
G02*
X125120000Y-99293000I-75000J0D01*
G01*
X123720000Y-99293000D01*
G75*
G02*
X123645000Y-99218000I0J75000D01*
G01*
G37*
G36*
G01*
X123645000Y-99718000D02*
X123645000Y-99568000D01*
G75*
G02*
X123720000Y-99493000I75000J0D01*
G01*
X125120000Y-99493000D01*
G75*
G02*
X125195000Y-99568000I0J-75000D01*
G01*
X125195000Y-99718000D01*
G75*
G02*
X125120000Y-99793000I-75000J0D01*
G01*
X123720000Y-99793000D01*
G75*
G02*
X123645000Y-99718000I0J75000D01*
G01*
G37*
G36*
G01*
X123645000Y-100218000D02*
X123645000Y-100068000D01*
G75*
G02*
X123720000Y-99993000I75000J0D01*
G01*
X125120000Y-99993000D01*
G75*
G02*
X125195000Y-100068000I0J-75000D01*
G01*
X125195000Y-100218000D01*
G75*
G02*
X125120000Y-100293000I-75000J0D01*
G01*
X123720000Y-100293000D01*
G75*
G02*
X123645000Y-100218000I0J75000D01*
G01*
G37*
G36*
G01*
X122345000Y-102768000D02*
X122345000Y-101368000D01*
G75*
G02*
X122420000Y-101293000I75000J0D01*
G01*
X122570000Y-101293000D01*
G75*
G02*
X122645000Y-101368000I0J-75000D01*
G01*
X122645000Y-102768000D01*
G75*
G02*
X122570000Y-102843000I-75000J0D01*
G01*
X122420000Y-102843000D01*
G75*
G02*
X122345000Y-102768000I0J75000D01*
G01*
G37*
G36*
G01*
X121845000Y-102768000D02*
X121845000Y-101368000D01*
G75*
G02*
X121920000Y-101293000I75000J0D01*
G01*
X122070000Y-101293000D01*
G75*
G02*
X122145000Y-101368000I0J-75000D01*
G01*
X122145000Y-102768000D01*
G75*
G02*
X122070000Y-102843000I-75000J0D01*
G01*
X121920000Y-102843000D01*
G75*
G02*
X121845000Y-102768000I0J75000D01*
G01*
G37*
G36*
G01*
X121345000Y-102768000D02*
X121345000Y-101368000D01*
G75*
G02*
X121420000Y-101293000I75000J0D01*
G01*
X121570000Y-101293000D01*
G75*
G02*
X121645000Y-101368000I0J-75000D01*
G01*
X121645000Y-102768000D01*
G75*
G02*
X121570000Y-102843000I-75000J0D01*
G01*
X121420000Y-102843000D01*
G75*
G02*
X121345000Y-102768000I0J75000D01*
G01*
G37*
G36*
G01*
X120845000Y-102768000D02*
X120845000Y-101368000D01*
G75*
G02*
X120920000Y-101293000I75000J0D01*
G01*
X121070000Y-101293000D01*
G75*
G02*
X121145000Y-101368000I0J-75000D01*
G01*
X121145000Y-102768000D01*
G75*
G02*
X121070000Y-102843000I-75000J0D01*
G01*
X120920000Y-102843000D01*
G75*
G02*
X120845000Y-102768000I0J75000D01*
G01*
G37*
G36*
G01*
X120345000Y-102768000D02*
X120345000Y-101368000D01*
G75*
G02*
X120420000Y-101293000I75000J0D01*
G01*
X120570000Y-101293000D01*
G75*
G02*
X120645000Y-101368000I0J-75000D01*
G01*
X120645000Y-102768000D01*
G75*
G02*
X120570000Y-102843000I-75000J0D01*
G01*
X120420000Y-102843000D01*
G75*
G02*
X120345000Y-102768000I0J75000D01*
G01*
G37*
G36*
G01*
X119845000Y-102768000D02*
X119845000Y-101368000D01*
G75*
G02*
X119920000Y-101293000I75000J0D01*
G01*
X120070000Y-101293000D01*
G75*
G02*
X120145000Y-101368000I0J-75000D01*
G01*
X120145000Y-102768000D01*
G75*
G02*
X120070000Y-102843000I-75000J0D01*
G01*
X119920000Y-102843000D01*
G75*
G02*
X119845000Y-102768000I0J75000D01*
G01*
G37*
G36*
G01*
X119345000Y-102768000D02*
X119345000Y-101368000D01*
G75*
G02*
X119420000Y-101293000I75000J0D01*
G01*
X119570000Y-101293000D01*
G75*
G02*
X119645000Y-101368000I0J-75000D01*
G01*
X119645000Y-102768000D01*
G75*
G02*
X119570000Y-102843000I-75000J0D01*
G01*
X119420000Y-102843000D01*
G75*
G02*
X119345000Y-102768000I0J75000D01*
G01*
G37*
G36*
G01*
X118845000Y-102768000D02*
X118845000Y-101368000D01*
G75*
G02*
X118920000Y-101293000I75000J0D01*
G01*
X119070000Y-101293000D01*
G75*
G02*
X119145000Y-101368000I0J-75000D01*
G01*
X119145000Y-102768000D01*
G75*
G02*
X119070000Y-102843000I-75000J0D01*
G01*
X118920000Y-102843000D01*
G75*
G02*
X118845000Y-102768000I0J75000D01*
G01*
G37*
G36*
G01*
X118345000Y-102768000D02*
X118345000Y-101368000D01*
G75*
G02*
X118420000Y-101293000I75000J0D01*
G01*
X118570000Y-101293000D01*
G75*
G02*
X118645000Y-101368000I0J-75000D01*
G01*
X118645000Y-102768000D01*
G75*
G02*
X118570000Y-102843000I-75000J0D01*
G01*
X118420000Y-102843000D01*
G75*
G02*
X118345000Y-102768000I0J75000D01*
G01*
G37*
G36*
G01*
X117845000Y-102768000D02*
X117845000Y-101368000D01*
G75*
G02*
X117920000Y-101293000I75000J0D01*
G01*
X118070000Y-101293000D01*
G75*
G02*
X118145000Y-101368000I0J-75000D01*
G01*
X118145000Y-102768000D01*
G75*
G02*
X118070000Y-102843000I-75000J0D01*
G01*
X117920000Y-102843000D01*
G75*
G02*
X117845000Y-102768000I0J75000D01*
G01*
G37*
G36*
G01*
X117345000Y-102768000D02*
X117345000Y-101368000D01*
G75*
G02*
X117420000Y-101293000I75000J0D01*
G01*
X117570000Y-101293000D01*
G75*
G02*
X117645000Y-101368000I0J-75000D01*
G01*
X117645000Y-102768000D01*
G75*
G02*
X117570000Y-102843000I-75000J0D01*
G01*
X117420000Y-102843000D01*
G75*
G02*
X117345000Y-102768000I0J75000D01*
G01*
G37*
G36*
G01*
X116845000Y-102768000D02*
X116845000Y-101368000D01*
G75*
G02*
X116920000Y-101293000I75000J0D01*
G01*
X117070000Y-101293000D01*
G75*
G02*
X117145000Y-101368000I0J-75000D01*
G01*
X117145000Y-102768000D01*
G75*
G02*
X117070000Y-102843000I-75000J0D01*
G01*
X116920000Y-102843000D01*
G75*
G02*
X116845000Y-102768000I0J75000D01*
G01*
G37*
G36*
G01*
X116345000Y-102768000D02*
X116345000Y-101368000D01*
G75*
G02*
X116420000Y-101293000I75000J0D01*
G01*
X116570000Y-101293000D01*
G75*
G02*
X116645000Y-101368000I0J-75000D01*
G01*
X116645000Y-102768000D01*
G75*
G02*
X116570000Y-102843000I-75000J0D01*
G01*
X116420000Y-102843000D01*
G75*
G02*
X116345000Y-102768000I0J75000D01*
G01*
G37*
G36*
G01*
X115845000Y-102768000D02*
X115845000Y-101368000D01*
G75*
G02*
X115920000Y-101293000I75000J0D01*
G01*
X116070000Y-101293000D01*
G75*
G02*
X116145000Y-101368000I0J-75000D01*
G01*
X116145000Y-102768000D01*
G75*
G02*
X116070000Y-102843000I-75000J0D01*
G01*
X115920000Y-102843000D01*
G75*
G02*
X115845000Y-102768000I0J75000D01*
G01*
G37*
G36*
G01*
X115345000Y-102768000D02*
X115345000Y-101368000D01*
G75*
G02*
X115420000Y-101293000I75000J0D01*
G01*
X115570000Y-101293000D01*
G75*
G02*
X115645000Y-101368000I0J-75000D01*
G01*
X115645000Y-102768000D01*
G75*
G02*
X115570000Y-102843000I-75000J0D01*
G01*
X115420000Y-102843000D01*
G75*
G02*
X115345000Y-102768000I0J75000D01*
G01*
G37*
G36*
G01*
X114845000Y-102768000D02*
X114845000Y-101368000D01*
G75*
G02*
X114920000Y-101293000I75000J0D01*
G01*
X115070000Y-101293000D01*
G75*
G02*
X115145000Y-101368000I0J-75000D01*
G01*
X115145000Y-102768000D01*
G75*
G02*
X115070000Y-102843000I-75000J0D01*
G01*
X114920000Y-102843000D01*
G75*
G02*
X114845000Y-102768000I0J75000D01*
G01*
G37*
G36*
G01*
X112295000Y-100218000D02*
X112295000Y-100068000D01*
G75*
G02*
X112370000Y-99993000I75000J0D01*
G01*
X113770000Y-99993000D01*
G75*
G02*
X113845000Y-100068000I0J-75000D01*
G01*
X113845000Y-100218000D01*
G75*
G02*
X113770000Y-100293000I-75000J0D01*
G01*
X112370000Y-100293000D01*
G75*
G02*
X112295000Y-100218000I0J75000D01*
G01*
G37*
G36*
G01*
X112295000Y-99718000D02*
X112295000Y-99568000D01*
G75*
G02*
X112370000Y-99493000I75000J0D01*
G01*
X113770000Y-99493000D01*
G75*
G02*
X113845000Y-99568000I0J-75000D01*
G01*
X113845000Y-99718000D01*
G75*
G02*
X113770000Y-99793000I-75000J0D01*
G01*
X112370000Y-99793000D01*
G75*
G02*
X112295000Y-99718000I0J75000D01*
G01*
G37*
G36*
G01*
X112295000Y-99218000D02*
X112295000Y-99068000D01*
G75*
G02*
X112370000Y-98993000I75000J0D01*
G01*
X113770000Y-98993000D01*
G75*
G02*
X113845000Y-99068000I0J-75000D01*
G01*
X113845000Y-99218000D01*
G75*
G02*
X113770000Y-99293000I-75000J0D01*
G01*
X112370000Y-99293000D01*
G75*
G02*
X112295000Y-99218000I0J75000D01*
G01*
G37*
G36*
G01*
X112295000Y-98718000D02*
X112295000Y-98568000D01*
G75*
G02*
X112370000Y-98493000I75000J0D01*
G01*
X113770000Y-98493000D01*
G75*
G02*
X113845000Y-98568000I0J-75000D01*
G01*
X113845000Y-98718000D01*
G75*
G02*
X113770000Y-98793000I-75000J0D01*
G01*
X112370000Y-98793000D01*
G75*
G02*
X112295000Y-98718000I0J75000D01*
G01*
G37*
G36*
G01*
X112295000Y-98218000D02*
X112295000Y-98068000D01*
G75*
G02*
X112370000Y-97993000I75000J0D01*
G01*
X113770000Y-97993000D01*
G75*
G02*
X113845000Y-98068000I0J-75000D01*
G01*
X113845000Y-98218000D01*
G75*
G02*
X113770000Y-98293000I-75000J0D01*
G01*
X112370000Y-98293000D01*
G75*
G02*
X112295000Y-98218000I0J75000D01*
G01*
G37*
G36*
G01*
X112295000Y-97718000D02*
X112295000Y-97568000D01*
G75*
G02*
X112370000Y-97493000I75000J0D01*
G01*
X113770000Y-97493000D01*
G75*
G02*
X113845000Y-97568000I0J-75000D01*
G01*
X113845000Y-97718000D01*
G75*
G02*
X113770000Y-97793000I-75000J0D01*
G01*
X112370000Y-97793000D01*
G75*
G02*
X112295000Y-97718000I0J75000D01*
G01*
G37*
G36*
G01*
X112295000Y-97218000D02*
X112295000Y-97068000D01*
G75*
G02*
X112370000Y-96993000I75000J0D01*
G01*
X113770000Y-96993000D01*
G75*
G02*
X113845000Y-97068000I0J-75000D01*
G01*
X113845000Y-97218000D01*
G75*
G02*
X113770000Y-97293000I-75000J0D01*
G01*
X112370000Y-97293000D01*
G75*
G02*
X112295000Y-97218000I0J75000D01*
G01*
G37*
G36*
G01*
X112295000Y-96718000D02*
X112295000Y-96568000D01*
G75*
G02*
X112370000Y-96493000I75000J0D01*
G01*
X113770000Y-96493000D01*
G75*
G02*
X113845000Y-96568000I0J-75000D01*
G01*
X113845000Y-96718000D01*
G75*
G02*
X113770000Y-96793000I-75000J0D01*
G01*
X112370000Y-96793000D01*
G75*
G02*
X112295000Y-96718000I0J75000D01*
G01*
G37*
G36*
G01*
X112295000Y-96218000D02*
X112295000Y-96068000D01*
G75*
G02*
X112370000Y-95993000I75000J0D01*
G01*
X113770000Y-95993000D01*
G75*
G02*
X113845000Y-96068000I0J-75000D01*
G01*
X113845000Y-96218000D01*
G75*
G02*
X113770000Y-96293000I-75000J0D01*
G01*
X112370000Y-96293000D01*
G75*
G02*
X112295000Y-96218000I0J75000D01*
G01*
G37*
G36*
G01*
X112295000Y-95718000D02*
X112295000Y-95568000D01*
G75*
G02*
X112370000Y-95493000I75000J0D01*
G01*
X113770000Y-95493000D01*
G75*
G02*
X113845000Y-95568000I0J-75000D01*
G01*
X113845000Y-95718000D01*
G75*
G02*
X113770000Y-95793000I-75000J0D01*
G01*
X112370000Y-95793000D01*
G75*
G02*
X112295000Y-95718000I0J75000D01*
G01*
G37*
G36*
G01*
X112295000Y-95218000D02*
X112295000Y-95068000D01*
G75*
G02*
X112370000Y-94993000I75000J0D01*
G01*
X113770000Y-94993000D01*
G75*
G02*
X113845000Y-95068000I0J-75000D01*
G01*
X113845000Y-95218000D01*
G75*
G02*
X113770000Y-95293000I-75000J0D01*
G01*
X112370000Y-95293000D01*
G75*
G02*
X112295000Y-95218000I0J75000D01*
G01*
G37*
G36*
G01*
X112295000Y-94718000D02*
X112295000Y-94568000D01*
G75*
G02*
X112370000Y-94493000I75000J0D01*
G01*
X113770000Y-94493000D01*
G75*
G02*
X113845000Y-94568000I0J-75000D01*
G01*
X113845000Y-94718000D01*
G75*
G02*
X113770000Y-94793000I-75000J0D01*
G01*
X112370000Y-94793000D01*
G75*
G02*
X112295000Y-94718000I0J75000D01*
G01*
G37*
G36*
G01*
X112295000Y-94218000D02*
X112295000Y-94068000D01*
G75*
G02*
X112370000Y-93993000I75000J0D01*
G01*
X113770000Y-93993000D01*
G75*
G02*
X113845000Y-94068000I0J-75000D01*
G01*
X113845000Y-94218000D01*
G75*
G02*
X113770000Y-94293000I-75000J0D01*
G01*
X112370000Y-94293000D01*
G75*
G02*
X112295000Y-94218000I0J75000D01*
G01*
G37*
G36*
G01*
X112295000Y-93718000D02*
X112295000Y-93568000D01*
G75*
G02*
X112370000Y-93493000I75000J0D01*
G01*
X113770000Y-93493000D01*
G75*
G02*
X113845000Y-93568000I0J-75000D01*
G01*
X113845000Y-93718000D01*
G75*
G02*
X113770000Y-93793000I-75000J0D01*
G01*
X112370000Y-93793000D01*
G75*
G02*
X112295000Y-93718000I0J75000D01*
G01*
G37*
G36*
G01*
X112295000Y-93218000D02*
X112295000Y-93068000D01*
G75*
G02*
X112370000Y-92993000I75000J0D01*
G01*
X113770000Y-92993000D01*
G75*
G02*
X113845000Y-93068000I0J-75000D01*
G01*
X113845000Y-93218000D01*
G75*
G02*
X113770000Y-93293000I-75000J0D01*
G01*
X112370000Y-93293000D01*
G75*
G02*
X112295000Y-93218000I0J75000D01*
G01*
G37*
G36*
G01*
X112295000Y-92718000D02*
X112295000Y-92568000D01*
G75*
G02*
X112370000Y-92493000I75000J0D01*
G01*
X113770000Y-92493000D01*
G75*
G02*
X113845000Y-92568000I0J-75000D01*
G01*
X113845000Y-92718000D01*
G75*
G02*
X113770000Y-92793000I-75000J0D01*
G01*
X112370000Y-92793000D01*
G75*
G02*
X112295000Y-92718000I0J75000D01*
G01*
G37*
G36*
G01*
X104565500Y-102102498D02*
X104565500Y-103002502D01*
G75*
G02*
X104315502Y-103252500I-249998J0D01*
G01*
X103790498Y-103252500D01*
G75*
G02*
X103540500Y-103002502I0J249998D01*
G01*
X103540500Y-102102498D01*
G75*
G02*
X103790498Y-101852500I249998J0D01*
G01*
X104315502Y-101852500D01*
G75*
G02*
X104565500Y-102102498I0J-249998D01*
G01*
G37*
G36*
G01*
X106390500Y-102102498D02*
X106390500Y-103002502D01*
G75*
G02*
X106140502Y-103252500I-249998J0D01*
G01*
X105615498Y-103252500D01*
G75*
G02*
X105365500Y-103002502I0J249998D01*
G01*
X105365500Y-102102498D01*
G75*
G02*
X105615498Y-101852500I249998J0D01*
G01*
X106140502Y-101852500D01*
G75*
G02*
X106390500Y-102102498I0J-249998D01*
G01*
G37*
D20*
X74124000Y-81661000D03*
X68624000Y-81661000D03*
G36*
G01*
X110876500Y-119093000D02*
X110876500Y-118143000D01*
G75*
G02*
X111126500Y-117893000I250000J0D01*
G01*
X111626500Y-117893000D01*
G75*
G02*
X111876500Y-118143000I0J-250000D01*
G01*
X111876500Y-119093000D01*
G75*
G02*
X111626500Y-119343000I-250000J0D01*
G01*
X111126500Y-119343000D01*
G75*
G02*
X110876500Y-119093000I0J250000D01*
G01*
G37*
G36*
G01*
X108976500Y-119093000D02*
X108976500Y-118143000D01*
G75*
G02*
X109226500Y-117893000I250000J0D01*
G01*
X109726500Y-117893000D01*
G75*
G02*
X109976500Y-118143000I0J-250000D01*
G01*
X109976500Y-119093000D01*
G75*
G02*
X109726500Y-119343000I-250000J0D01*
G01*
X109226500Y-119343000D01*
G75*
G02*
X108976500Y-119093000I0J250000D01*
G01*
G37*
G36*
G01*
X110813000Y-131539000D02*
X110813000Y-130589000D01*
G75*
G02*
X111063000Y-130339000I250000J0D01*
G01*
X111563000Y-130339000D01*
G75*
G02*
X111813000Y-130589000I0J-250000D01*
G01*
X111813000Y-131539000D01*
G75*
G02*
X111563000Y-131789000I-250000J0D01*
G01*
X111063000Y-131789000D01*
G75*
G02*
X110813000Y-131539000I0J250000D01*
G01*
G37*
G36*
G01*
X108913000Y-131539000D02*
X108913000Y-130589000D01*
G75*
G02*
X109163000Y-130339000I250000J0D01*
G01*
X109663000Y-130339000D01*
G75*
G02*
X109913000Y-130589000I0J-250000D01*
G01*
X109913000Y-131539000D01*
G75*
G02*
X109663000Y-131789000I-250000J0D01*
G01*
X109163000Y-131789000D01*
G75*
G02*
X108913000Y-131539000I0J250000D01*
G01*
G37*
G36*
G01*
X137673500Y-132110500D02*
X137673500Y-131160500D01*
G75*
G02*
X137923500Y-130910500I250000J0D01*
G01*
X138423500Y-130910500D01*
G75*
G02*
X138673500Y-131160500I0J-250000D01*
G01*
X138673500Y-132110500D01*
G75*
G02*
X138423500Y-132360500I-250000J0D01*
G01*
X137923500Y-132360500D01*
G75*
G02*
X137673500Y-132110500I0J250000D01*
G01*
G37*
G36*
G01*
X135773500Y-132110500D02*
X135773500Y-131160500D01*
G75*
G02*
X136023500Y-130910500I250000J0D01*
G01*
X136523500Y-130910500D01*
G75*
G02*
X136773500Y-131160500I0J-250000D01*
G01*
X136773500Y-132110500D01*
G75*
G02*
X136523500Y-132360500I-250000J0D01*
G01*
X136023500Y-132360500D01*
G75*
G02*
X135773500Y-132110500I0J250000D01*
G01*
G37*
G36*
G01*
X60104000Y-93419000D02*
X61054000Y-93419000D01*
G75*
G02*
X61304000Y-93669000I0J-250000D01*
G01*
X61304000Y-94169000D01*
G75*
G02*
X61054000Y-94419000I-250000J0D01*
G01*
X60104000Y-94419000D01*
G75*
G02*
X59854000Y-94169000I0J250000D01*
G01*
X59854000Y-93669000D01*
G75*
G02*
X60104000Y-93419000I250000J0D01*
G01*
G37*
G36*
G01*
X60104000Y-95319000D02*
X61054000Y-95319000D01*
G75*
G02*
X61304000Y-95569000I0J-250000D01*
G01*
X61304000Y-96069000D01*
G75*
G02*
X61054000Y-96319000I-250000J0D01*
G01*
X60104000Y-96319000D01*
G75*
G02*
X59854000Y-96069000I0J250000D01*
G01*
X59854000Y-95569000D01*
G75*
G02*
X60104000Y-95319000I250000J0D01*
G01*
G37*
G36*
G01*
X63975000Y-71051000D02*
X63025000Y-71051000D01*
G75*
G02*
X62775000Y-70801000I0J250000D01*
G01*
X62775000Y-70301000D01*
G75*
G02*
X63025000Y-70051000I250000J0D01*
G01*
X63975000Y-70051000D01*
G75*
G02*
X64225000Y-70301000I0J-250000D01*
G01*
X64225000Y-70801000D01*
G75*
G02*
X63975000Y-71051000I-250000J0D01*
G01*
G37*
G36*
G01*
X63975000Y-72951000D02*
X63025000Y-72951000D01*
G75*
G02*
X62775000Y-72701000I0J250000D01*
G01*
X62775000Y-72201000D01*
G75*
G02*
X63025000Y-71951000I250000J0D01*
G01*
X63975000Y-71951000D01*
G75*
G02*
X64225000Y-72201000I0J-250000D01*
G01*
X64225000Y-72701000D01*
G75*
G02*
X63975000Y-72951000I-250000J0D01*
G01*
G37*
G36*
G01*
X104488000Y-96578000D02*
X103538000Y-96578000D01*
G75*
G02*
X103288000Y-96328000I0J250000D01*
G01*
X103288000Y-95828000D01*
G75*
G02*
X103538000Y-95578000I250000J0D01*
G01*
X104488000Y-95578000D01*
G75*
G02*
X104738000Y-95828000I0J-250000D01*
G01*
X104738000Y-96328000D01*
G75*
G02*
X104488000Y-96578000I-250000J0D01*
G01*
G37*
G36*
G01*
X104488000Y-98478000D02*
X103538000Y-98478000D01*
G75*
G02*
X103288000Y-98228000I0J250000D01*
G01*
X103288000Y-97728000D01*
G75*
G02*
X103538000Y-97478000I250000J0D01*
G01*
X104488000Y-97478000D01*
G75*
G02*
X104738000Y-97728000I0J-250000D01*
G01*
X104738000Y-98228000D01*
G75*
G02*
X104488000Y-98478000I-250000J0D01*
G01*
G37*
G36*
G01*
X114457500Y-86989500D02*
X113507500Y-86989500D01*
G75*
G02*
X113257500Y-86739500I0J250000D01*
G01*
X113257500Y-86239500D01*
G75*
G02*
X113507500Y-85989500I250000J0D01*
G01*
X114457500Y-85989500D01*
G75*
G02*
X114707500Y-86239500I0J-250000D01*
G01*
X114707500Y-86739500D01*
G75*
G02*
X114457500Y-86989500I-250000J0D01*
G01*
G37*
G36*
G01*
X114457500Y-88889500D02*
X113507500Y-88889500D01*
G75*
G02*
X113257500Y-88639500I0J250000D01*
G01*
X113257500Y-88139500D01*
G75*
G02*
X113507500Y-87889500I250000J0D01*
G01*
X114457500Y-87889500D01*
G75*
G02*
X114707500Y-88139500I0J-250000D01*
G01*
X114707500Y-88639500D01*
G75*
G02*
X114457500Y-88889500I-250000J0D01*
G01*
G37*
G36*
G01*
X72338250Y-72194000D02*
X71425750Y-72194000D01*
G75*
G02*
X71182000Y-71950250I0J243750D01*
G01*
X71182000Y-71462750D01*
G75*
G02*
X71425750Y-71219000I243750J0D01*
G01*
X72338250Y-71219000D01*
G75*
G02*
X72582000Y-71462750I0J-243750D01*
G01*
X72582000Y-71950250D01*
G75*
G02*
X72338250Y-72194000I-243750J0D01*
G01*
G37*
G36*
G01*
X72338250Y-74069000D02*
X71425750Y-74069000D01*
G75*
G02*
X71182000Y-73825250I0J243750D01*
G01*
X71182000Y-73337750D01*
G75*
G02*
X71425750Y-73094000I243750J0D01*
G01*
X72338250Y-73094000D01*
G75*
G02*
X72582000Y-73337750I0J-243750D01*
G01*
X72582000Y-73825250D01*
G75*
G02*
X72338250Y-74069000I-243750J0D01*
G01*
G37*
G36*
G01*
X118606250Y-71600000D02*
X119518750Y-71600000D01*
G75*
G02*
X119762500Y-71843750I0J-243750D01*
G01*
X119762500Y-72331250D01*
G75*
G02*
X119518750Y-72575000I-243750J0D01*
G01*
X118606250Y-72575000D01*
G75*
G02*
X118362500Y-72331250I0J243750D01*
G01*
X118362500Y-71843750D01*
G75*
G02*
X118606250Y-71600000I243750J0D01*
G01*
G37*
G36*
G01*
X118606250Y-73475000D02*
X119518750Y-73475000D01*
G75*
G02*
X119762500Y-73718750I0J-243750D01*
G01*
X119762500Y-74206250D01*
G75*
G02*
X119518750Y-74450000I-243750J0D01*
G01*
X118606250Y-74450000D01*
G75*
G02*
X118362500Y-74206250I0J243750D01*
G01*
X118362500Y-73718750D01*
G75*
G02*
X118606250Y-73475000I243750J0D01*
G01*
G37*
G36*
G01*
X97928750Y-115564500D02*
X97016250Y-115564500D01*
G75*
G02*
X96772500Y-115320750I0J243750D01*
G01*
X96772500Y-114833250D01*
G75*
G02*
X97016250Y-114589500I243750J0D01*
G01*
X97928750Y-114589500D01*
G75*
G02*
X98172500Y-114833250I0J-243750D01*
G01*
X98172500Y-115320750D01*
G75*
G02*
X97928750Y-115564500I-243750J0D01*
G01*
G37*
G36*
G01*
X97928750Y-117439500D02*
X97016250Y-117439500D01*
G75*
G02*
X96772500Y-117195750I0J243750D01*
G01*
X96772500Y-116708250D01*
G75*
G02*
X97016250Y-116464500I243750J0D01*
G01*
X97928750Y-116464500D01*
G75*
G02*
X98172500Y-116708250I0J-243750D01*
G01*
X98172500Y-117195750D01*
G75*
G02*
X97928750Y-117439500I-243750J0D01*
G01*
G37*
G36*
G01*
X100826250Y-133990500D02*
X101738750Y-133990500D01*
G75*
G02*
X101982500Y-134234250I0J-243750D01*
G01*
X101982500Y-134721750D01*
G75*
G02*
X101738750Y-134965500I-243750J0D01*
G01*
X100826250Y-134965500D01*
G75*
G02*
X100582500Y-134721750I0J243750D01*
G01*
X100582500Y-134234250D01*
G75*
G02*
X100826250Y-133990500I243750J0D01*
G01*
G37*
G36*
G01*
X100826250Y-132115500D02*
X101738750Y-132115500D01*
G75*
G02*
X101982500Y-132359250I0J-243750D01*
G01*
X101982500Y-132846750D01*
G75*
G02*
X101738750Y-133090500I-243750J0D01*
G01*
X100826250Y-133090500D01*
G75*
G02*
X100582500Y-132846750I0J243750D01*
G01*
X100582500Y-132359250D01*
G75*
G02*
X100826250Y-132115500I243750J0D01*
G01*
G37*
G36*
G01*
X71021000Y-112573750D02*
X71021000Y-113486250D01*
G75*
G02*
X70777250Y-113730000I-243750J0D01*
G01*
X70289750Y-113730000D01*
G75*
G02*
X70046000Y-113486250I0J243750D01*
G01*
X70046000Y-112573750D01*
G75*
G02*
X70289750Y-112330000I243750J0D01*
G01*
X70777250Y-112330000D01*
G75*
G02*
X71021000Y-112573750I0J-243750D01*
G01*
G37*
G36*
G01*
X69146000Y-112573750D02*
X69146000Y-113486250D01*
G75*
G02*
X68902250Y-113730000I-243750J0D01*
G01*
X68414750Y-113730000D01*
G75*
G02*
X68171000Y-113486250I0J243750D01*
G01*
X68171000Y-112573750D01*
G75*
G02*
X68414750Y-112330000I243750J0D01*
G01*
X68902250Y-112330000D01*
G75*
G02*
X69146000Y-112573750I0J-243750D01*
G01*
G37*
G36*
G01*
X101611750Y-115501000D02*
X100699250Y-115501000D01*
G75*
G02*
X100455500Y-115257250I0J243750D01*
G01*
X100455500Y-114769750D01*
G75*
G02*
X100699250Y-114526000I243750J0D01*
G01*
X101611750Y-114526000D01*
G75*
G02*
X101855500Y-114769750I0J-243750D01*
G01*
X101855500Y-115257250D01*
G75*
G02*
X101611750Y-115501000I-243750J0D01*
G01*
G37*
G36*
G01*
X101611750Y-117376000D02*
X100699250Y-117376000D01*
G75*
G02*
X100455500Y-117132250I0J243750D01*
G01*
X100455500Y-116644750D01*
G75*
G02*
X100699250Y-116401000I243750J0D01*
G01*
X101611750Y-116401000D01*
G75*
G02*
X101855500Y-116644750I0J-243750D01*
G01*
X101855500Y-117132250D01*
G75*
G02*
X101611750Y-117376000I-243750J0D01*
G01*
G37*
G36*
G01*
X139815250Y-136052500D02*
X140727750Y-136052500D01*
G75*
G02*
X140971500Y-136296250I0J-243750D01*
G01*
X140971500Y-136783750D01*
G75*
G02*
X140727750Y-137027500I-243750J0D01*
G01*
X139815250Y-137027500D01*
G75*
G02*
X139571500Y-136783750I0J243750D01*
G01*
X139571500Y-136296250D01*
G75*
G02*
X139815250Y-136052500I243750J0D01*
G01*
G37*
G36*
G01*
X139815250Y-137927500D02*
X140727750Y-137927500D01*
G75*
G02*
X140971500Y-138171250I0J-243750D01*
G01*
X140971500Y-138658750D01*
G75*
G02*
X140727750Y-138902500I-243750J0D01*
G01*
X139815250Y-138902500D01*
G75*
G02*
X139571500Y-138658750I0J243750D01*
G01*
X139571500Y-138171250D01*
G75*
G02*
X139815250Y-137927500I243750J0D01*
G01*
G37*
G36*
G01*
X127121500Y-130861750D02*
X127121500Y-131774250D01*
G75*
G02*
X126877750Y-132018000I-243750J0D01*
G01*
X126390250Y-132018000D01*
G75*
G02*
X126146500Y-131774250I0J243750D01*
G01*
X126146500Y-130861750D01*
G75*
G02*
X126390250Y-130618000I243750J0D01*
G01*
X126877750Y-130618000D01*
G75*
G02*
X127121500Y-130861750I0J-243750D01*
G01*
G37*
G36*
G01*
X128996500Y-130861750D02*
X128996500Y-131774250D01*
G75*
G02*
X128752750Y-132018000I-243750J0D01*
G01*
X128265250Y-132018000D01*
G75*
G02*
X128021500Y-131774250I0J243750D01*
G01*
X128021500Y-130861750D01*
G75*
G02*
X128265250Y-130618000I243750J0D01*
G01*
X128752750Y-130618000D01*
G75*
G02*
X128996500Y-130861750I0J-243750D01*
G01*
G37*
G36*
G01*
X128806000Y-116828250D02*
X128806000Y-117740750D01*
G75*
G02*
X128562250Y-117984500I-243750J0D01*
G01*
X128074750Y-117984500D01*
G75*
G02*
X127831000Y-117740750I0J243750D01*
G01*
X127831000Y-116828250D01*
G75*
G02*
X128074750Y-116584500I243750J0D01*
G01*
X128562250Y-116584500D01*
G75*
G02*
X128806000Y-116828250I0J-243750D01*
G01*
G37*
G36*
G01*
X126931000Y-116828250D02*
X126931000Y-117740750D01*
G75*
G02*
X126687250Y-117984500I-243750J0D01*
G01*
X126199750Y-117984500D01*
G75*
G02*
X125956000Y-117740750I0J243750D01*
G01*
X125956000Y-116828250D01*
G75*
G02*
X126199750Y-116584500I243750J0D01*
G01*
X126687250Y-116584500D01*
G75*
G02*
X126931000Y-116828250I0J-243750D01*
G01*
G37*
G36*
G01*
X126931000Y-118860250D02*
X126931000Y-119772750D01*
G75*
G02*
X126687250Y-120016500I-243750J0D01*
G01*
X126199750Y-120016500D01*
G75*
G02*
X125956000Y-119772750I0J243750D01*
G01*
X125956000Y-118860250D01*
G75*
G02*
X126199750Y-118616500I243750J0D01*
G01*
X126687250Y-118616500D01*
G75*
G02*
X126931000Y-118860250I0J-243750D01*
G01*
G37*
G36*
G01*
X128806000Y-118860250D02*
X128806000Y-119772750D01*
G75*
G02*
X128562250Y-120016500I-243750J0D01*
G01*
X128074750Y-120016500D01*
G75*
G02*
X127831000Y-119772750I0J243750D01*
G01*
X127831000Y-118860250D01*
G75*
G02*
X128074750Y-118616500I243750J0D01*
G01*
X128562250Y-118616500D01*
G75*
G02*
X128806000Y-118860250I0J-243750D01*
G01*
G37*
G36*
G01*
X126042000Y-125654750D02*
X126042000Y-126567250D01*
G75*
G02*
X125798250Y-126811000I-243750J0D01*
G01*
X125310750Y-126811000D01*
G75*
G02*
X125067000Y-126567250I0J243750D01*
G01*
X125067000Y-125654750D01*
G75*
G02*
X125310750Y-125411000I243750J0D01*
G01*
X125798250Y-125411000D01*
G75*
G02*
X126042000Y-125654750I0J-243750D01*
G01*
G37*
G36*
G01*
X127917000Y-125654750D02*
X127917000Y-126567250D01*
G75*
G02*
X127673250Y-126811000I-243750J0D01*
G01*
X127185750Y-126811000D01*
G75*
G02*
X126942000Y-126567250I0J243750D01*
G01*
X126942000Y-125654750D01*
G75*
G02*
X127185750Y-125411000I243750J0D01*
G01*
X127673250Y-125411000D01*
G75*
G02*
X127917000Y-125654750I0J-243750D01*
G01*
G37*
G36*
G01*
X137783250Y-137927500D02*
X138695750Y-137927500D01*
G75*
G02*
X138939500Y-138171250I0J-243750D01*
G01*
X138939500Y-138658750D01*
G75*
G02*
X138695750Y-138902500I-243750J0D01*
G01*
X137783250Y-138902500D01*
G75*
G02*
X137539500Y-138658750I0J243750D01*
G01*
X137539500Y-138171250D01*
G75*
G02*
X137783250Y-137927500I243750J0D01*
G01*
G37*
G36*
G01*
X137783250Y-136052500D02*
X138695750Y-136052500D01*
G75*
G02*
X138939500Y-136296250I0J-243750D01*
G01*
X138939500Y-136783750D01*
G75*
G02*
X138695750Y-137027500I-243750J0D01*
G01*
X137783250Y-137027500D01*
G75*
G02*
X137539500Y-136783750I0J243750D01*
G01*
X137539500Y-136296250D01*
G75*
G02*
X137783250Y-136052500I243750J0D01*
G01*
G37*
G36*
G01*
X135798500Y-134123750D02*
X135798500Y-133211250D01*
G75*
G02*
X136042250Y-132967500I243750J0D01*
G01*
X136529750Y-132967500D01*
G75*
G02*
X136773500Y-133211250I0J-243750D01*
G01*
X136773500Y-134123750D01*
G75*
G02*
X136529750Y-134367500I-243750J0D01*
G01*
X136042250Y-134367500D01*
G75*
G02*
X135798500Y-134123750I0J243750D01*
G01*
G37*
G36*
G01*
X137673500Y-134123750D02*
X137673500Y-133211250D01*
G75*
G02*
X137917250Y-132967500I243750J0D01*
G01*
X138404750Y-132967500D01*
G75*
G02*
X138648500Y-133211250I0J-243750D01*
G01*
X138648500Y-134123750D01*
G75*
G02*
X138404750Y-134367500I-243750J0D01*
G01*
X137917250Y-134367500D01*
G75*
G02*
X137673500Y-134123750I0J243750D01*
G01*
G37*
G36*
G01*
X104620000Y-120026750D02*
X104620000Y-119114250D01*
G75*
G02*
X104863750Y-118870500I243750J0D01*
G01*
X105351250Y-118870500D01*
G75*
G02*
X105595000Y-119114250I0J-243750D01*
G01*
X105595000Y-120026750D01*
G75*
G02*
X105351250Y-120270500I-243750J0D01*
G01*
X104863750Y-120270500D01*
G75*
G02*
X104620000Y-120026750I0J243750D01*
G01*
G37*
G36*
G01*
X106495000Y-120026750D02*
X106495000Y-119114250D01*
G75*
G02*
X106738750Y-118870500I243750J0D01*
G01*
X107226250Y-118870500D01*
G75*
G02*
X107470000Y-119114250I0J-243750D01*
G01*
X107470000Y-120026750D01*
G75*
G02*
X107226250Y-120270500I-243750J0D01*
G01*
X106738750Y-120270500D01*
G75*
G02*
X106495000Y-120026750I0J243750D01*
G01*
G37*
G36*
G01*
X79190000Y-118820250D02*
X79190000Y-117907750D01*
G75*
G02*
X79433750Y-117664000I243750J0D01*
G01*
X79921250Y-117664000D01*
G75*
G02*
X80165000Y-117907750I0J-243750D01*
G01*
X80165000Y-118820250D01*
G75*
G02*
X79921250Y-119064000I-243750J0D01*
G01*
X79433750Y-119064000D01*
G75*
G02*
X79190000Y-118820250I0J243750D01*
G01*
G37*
G36*
G01*
X77315000Y-118820250D02*
X77315000Y-117907750D01*
G75*
G02*
X77558750Y-117664000I243750J0D01*
G01*
X78046250Y-117664000D01*
G75*
G02*
X78290000Y-117907750I0J-243750D01*
G01*
X78290000Y-118820250D01*
G75*
G02*
X78046250Y-119064000I-243750J0D01*
G01*
X77558750Y-119064000D01*
G75*
G02*
X77315000Y-118820250I0J243750D01*
G01*
G37*
G36*
G01*
X141132500Y-133425250D02*
X141132500Y-132512750D01*
G75*
G02*
X141376250Y-132269000I243750J0D01*
G01*
X141863750Y-132269000D01*
G75*
G02*
X142107500Y-132512750I0J-243750D01*
G01*
X142107500Y-133425250D01*
G75*
G02*
X141863750Y-133669000I-243750J0D01*
G01*
X141376250Y-133669000D01*
G75*
G02*
X141132500Y-133425250I0J243750D01*
G01*
G37*
G36*
G01*
X143007500Y-133425250D02*
X143007500Y-132512750D01*
G75*
G02*
X143251250Y-132269000I243750J0D01*
G01*
X143738750Y-132269000D01*
G75*
G02*
X143982500Y-132512750I0J-243750D01*
G01*
X143982500Y-133425250D01*
G75*
G02*
X143738750Y-133669000I-243750J0D01*
G01*
X143251250Y-133669000D01*
G75*
G02*
X143007500Y-133425250I0J243750D01*
G01*
G37*
G36*
G01*
X85459250Y-127005500D02*
X86371750Y-127005500D01*
G75*
G02*
X86615500Y-127249250I0J-243750D01*
G01*
X86615500Y-127736750D01*
G75*
G02*
X86371750Y-127980500I-243750J0D01*
G01*
X85459250Y-127980500D01*
G75*
G02*
X85215500Y-127736750I0J243750D01*
G01*
X85215500Y-127249250D01*
G75*
G02*
X85459250Y-127005500I243750J0D01*
G01*
G37*
G36*
G01*
X85459250Y-125130500D02*
X86371750Y-125130500D01*
G75*
G02*
X86615500Y-125374250I0J-243750D01*
G01*
X86615500Y-125861750D01*
G75*
G02*
X86371750Y-126105500I-243750J0D01*
G01*
X85459250Y-126105500D01*
G75*
G02*
X85215500Y-125861750I0J243750D01*
G01*
X85215500Y-125374250D01*
G75*
G02*
X85459250Y-125130500I243750J0D01*
G01*
G37*
G36*
G01*
X104620000Y-126122750D02*
X104620000Y-125210250D01*
G75*
G02*
X104863750Y-124966500I243750J0D01*
G01*
X105351250Y-124966500D01*
G75*
G02*
X105595000Y-125210250I0J-243750D01*
G01*
X105595000Y-126122750D01*
G75*
G02*
X105351250Y-126366500I-243750J0D01*
G01*
X104863750Y-126366500D01*
G75*
G02*
X104620000Y-126122750I0J243750D01*
G01*
G37*
G36*
G01*
X106495000Y-126122750D02*
X106495000Y-125210250D01*
G75*
G02*
X106738750Y-124966500I243750J0D01*
G01*
X107226250Y-124966500D01*
G75*
G02*
X107470000Y-125210250I0J-243750D01*
G01*
X107470000Y-126122750D01*
G75*
G02*
X107226250Y-126366500I-243750J0D01*
G01*
X106738750Y-126366500D01*
G75*
G02*
X106495000Y-126122750I0J243750D01*
G01*
G37*
G36*
G01*
X141847250Y-137927500D02*
X142759750Y-137927500D01*
G75*
G02*
X143003500Y-138171250I0J-243750D01*
G01*
X143003500Y-138658750D01*
G75*
G02*
X142759750Y-138902500I-243750J0D01*
G01*
X141847250Y-138902500D01*
G75*
G02*
X141603500Y-138658750I0J243750D01*
G01*
X141603500Y-138171250D01*
G75*
G02*
X141847250Y-137927500I243750J0D01*
G01*
G37*
G36*
G01*
X141847250Y-136052500D02*
X142759750Y-136052500D01*
G75*
G02*
X143003500Y-136296250I0J-243750D01*
G01*
X143003500Y-136783750D01*
G75*
G02*
X142759750Y-137027500I-243750J0D01*
G01*
X141847250Y-137027500D01*
G75*
G02*
X141603500Y-136783750I0J243750D01*
G01*
X141603500Y-136296250D01*
G75*
G02*
X141847250Y-136052500I243750J0D01*
G01*
G37*
G36*
G01*
X141196000Y-127964250D02*
X141196000Y-127051750D01*
G75*
G02*
X141439750Y-126808000I243750J0D01*
G01*
X141927250Y-126808000D01*
G75*
G02*
X142171000Y-127051750I0J-243750D01*
G01*
X142171000Y-127964250D01*
G75*
G02*
X141927250Y-128208000I-243750J0D01*
G01*
X141439750Y-128208000D01*
G75*
G02*
X141196000Y-127964250I0J243750D01*
G01*
G37*
G36*
G01*
X143071000Y-127964250D02*
X143071000Y-127051750D01*
G75*
G02*
X143314750Y-126808000I243750J0D01*
G01*
X143802250Y-126808000D01*
G75*
G02*
X144046000Y-127051750I0J-243750D01*
G01*
X144046000Y-127964250D01*
G75*
G02*
X143802250Y-128208000I-243750J0D01*
G01*
X143314750Y-128208000D01*
G75*
G02*
X143071000Y-127964250I0J243750D01*
G01*
G37*
G36*
G01*
X126042000Y-123559250D02*
X126042000Y-124471750D01*
G75*
G02*
X125798250Y-124715500I-243750J0D01*
G01*
X125310750Y-124715500D01*
G75*
G02*
X125067000Y-124471750I0J243750D01*
G01*
X125067000Y-123559250D01*
G75*
G02*
X125310750Y-123315500I243750J0D01*
G01*
X125798250Y-123315500D01*
G75*
G02*
X126042000Y-123559250I0J-243750D01*
G01*
G37*
G36*
G01*
X127917000Y-123559250D02*
X127917000Y-124471750D01*
G75*
G02*
X127673250Y-124715500I-243750J0D01*
G01*
X127185750Y-124715500D01*
G75*
G02*
X126942000Y-124471750I0J243750D01*
G01*
X126942000Y-123559250D01*
G75*
G02*
X127185750Y-123315500I243750J0D01*
G01*
X127673250Y-123315500D01*
G75*
G02*
X127917000Y-123559250I0J-243750D01*
G01*
G37*
G36*
G01*
X108986500Y-133742750D02*
X108986500Y-132830250D01*
G75*
G02*
X109230250Y-132586500I243750J0D01*
G01*
X109717750Y-132586500D01*
G75*
G02*
X109961500Y-132830250I0J-243750D01*
G01*
X109961500Y-133742750D01*
G75*
G02*
X109717750Y-133986500I-243750J0D01*
G01*
X109230250Y-133986500D01*
G75*
G02*
X108986500Y-133742750I0J243750D01*
G01*
G37*
G36*
G01*
X110861500Y-133742750D02*
X110861500Y-132830250D01*
G75*
G02*
X111105250Y-132586500I243750J0D01*
G01*
X111592750Y-132586500D01*
G75*
G02*
X111836500Y-132830250I0J-243750D01*
G01*
X111836500Y-133742750D01*
G75*
G02*
X111592750Y-133986500I-243750J0D01*
G01*
X111105250Y-133986500D01*
G75*
G02*
X110861500Y-133742750I0J243750D01*
G01*
G37*
G36*
G01*
X119438000Y-132830250D02*
X119438000Y-133742750D01*
G75*
G02*
X119194250Y-133986500I-243750J0D01*
G01*
X118706750Y-133986500D01*
G75*
G02*
X118463000Y-133742750I0J243750D01*
G01*
X118463000Y-132830250D01*
G75*
G02*
X118706750Y-132586500I243750J0D01*
G01*
X119194250Y-132586500D01*
G75*
G02*
X119438000Y-132830250I0J-243750D01*
G01*
G37*
G36*
G01*
X121313000Y-132830250D02*
X121313000Y-133742750D01*
G75*
G02*
X121069250Y-133986500I-243750J0D01*
G01*
X120581750Y-133986500D01*
G75*
G02*
X120338000Y-133742750I0J243750D01*
G01*
X120338000Y-132830250D01*
G75*
G02*
X120581750Y-132586500I243750J0D01*
G01*
X121069250Y-132586500D01*
G75*
G02*
X121313000Y-132830250I0J-243750D01*
G01*
G37*
G36*
G01*
X121249500Y-118225250D02*
X121249500Y-119137750D01*
G75*
G02*
X121005750Y-119381500I-243750J0D01*
G01*
X120518250Y-119381500D01*
G75*
G02*
X120274500Y-119137750I0J243750D01*
G01*
X120274500Y-118225250D01*
G75*
G02*
X120518250Y-117981500I243750J0D01*
G01*
X121005750Y-117981500D01*
G75*
G02*
X121249500Y-118225250I0J-243750D01*
G01*
G37*
G36*
G01*
X119374500Y-118225250D02*
X119374500Y-119137750D01*
G75*
G02*
X119130750Y-119381500I-243750J0D01*
G01*
X118643250Y-119381500D01*
G75*
G02*
X118399500Y-119137750I0J243750D01*
G01*
X118399500Y-118225250D01*
G75*
G02*
X118643250Y-117981500I243750J0D01*
G01*
X119130750Y-117981500D01*
G75*
G02*
X119374500Y-118225250I0J-243750D01*
G01*
G37*
G36*
G01*
X100134000Y-82665250D02*
X100134000Y-83577750D01*
G75*
G02*
X99890250Y-83821500I-243750J0D01*
G01*
X99402750Y-83821500D01*
G75*
G02*
X99159000Y-83577750I0J243750D01*
G01*
X99159000Y-82665250D01*
G75*
G02*
X99402750Y-82421500I243750J0D01*
G01*
X99890250Y-82421500D01*
G75*
G02*
X100134000Y-82665250I0J-243750D01*
G01*
G37*
G36*
G01*
X102009000Y-82665250D02*
X102009000Y-83577750D01*
G75*
G02*
X101765250Y-83821500I-243750J0D01*
G01*
X101277750Y-83821500D01*
G75*
G02*
X101034000Y-83577750I0J243750D01*
G01*
X101034000Y-82665250D01*
G75*
G02*
X101277750Y-82421500I243750J0D01*
G01*
X101765250Y-82421500D01*
G75*
G02*
X102009000Y-82665250I0J-243750D01*
G01*
G37*
G36*
G01*
X109001500Y-116915250D02*
X109001500Y-116002750D01*
G75*
G02*
X109245250Y-115759000I243750J0D01*
G01*
X109732750Y-115759000D01*
G75*
G02*
X109976500Y-116002750I0J-243750D01*
G01*
X109976500Y-116915250D01*
G75*
G02*
X109732750Y-117159000I-243750J0D01*
G01*
X109245250Y-117159000D01*
G75*
G02*
X109001500Y-116915250I0J243750D01*
G01*
G37*
G36*
G01*
X110876500Y-116915250D02*
X110876500Y-116002750D01*
G75*
G02*
X111120250Y-115759000I243750J0D01*
G01*
X111607750Y-115759000D01*
G75*
G02*
X111851500Y-116002750I0J-243750D01*
G01*
X111851500Y-116915250D01*
G75*
G02*
X111607750Y-117159000I-243750J0D01*
G01*
X111120250Y-117159000D01*
G75*
G02*
X110876500Y-116915250I0J243750D01*
G01*
G37*
G36*
G01*
X71021000Y-114732750D02*
X71021000Y-115645250D01*
G75*
G02*
X70777250Y-115889000I-243750J0D01*
G01*
X70289750Y-115889000D01*
G75*
G02*
X70046000Y-115645250I0J243750D01*
G01*
X70046000Y-114732750D01*
G75*
G02*
X70289750Y-114489000I243750J0D01*
G01*
X70777250Y-114489000D01*
G75*
G02*
X71021000Y-114732750I0J-243750D01*
G01*
G37*
G36*
G01*
X69146000Y-114732750D02*
X69146000Y-115645250D01*
G75*
G02*
X68902250Y-115889000I-243750J0D01*
G01*
X68414750Y-115889000D01*
G75*
G02*
X68171000Y-115645250I0J243750D01*
G01*
X68171000Y-114732750D01*
G75*
G02*
X68414750Y-114489000I243750J0D01*
G01*
X68902250Y-114489000D01*
G75*
G02*
X69146000Y-114732750I0J-243750D01*
G01*
G37*
G36*
G01*
X62639000Y-99492750D02*
X62639000Y-100405250D01*
G75*
G02*
X62395250Y-100649000I-243750J0D01*
G01*
X61907750Y-100649000D01*
G75*
G02*
X61664000Y-100405250I0J243750D01*
G01*
X61664000Y-99492750D01*
G75*
G02*
X61907750Y-99249000I243750J0D01*
G01*
X62395250Y-99249000D01*
G75*
G02*
X62639000Y-99492750I0J-243750D01*
G01*
G37*
G36*
G01*
X60764000Y-99492750D02*
X60764000Y-100405250D01*
G75*
G02*
X60520250Y-100649000I-243750J0D01*
G01*
X60032750Y-100649000D01*
G75*
G02*
X59789000Y-100405250I0J243750D01*
G01*
X59789000Y-99492750D01*
G75*
G02*
X60032750Y-99249000I243750J0D01*
G01*
X60520250Y-99249000D01*
G75*
G02*
X60764000Y-99492750I0J-243750D01*
G01*
G37*
G36*
G01*
X64925000Y-110033750D02*
X64925000Y-110946250D01*
G75*
G02*
X64681250Y-111190000I-243750J0D01*
G01*
X64193750Y-111190000D01*
G75*
G02*
X63950000Y-110946250I0J243750D01*
G01*
X63950000Y-110033750D01*
G75*
G02*
X64193750Y-109790000I243750J0D01*
G01*
X64681250Y-109790000D01*
G75*
G02*
X64925000Y-110033750I0J-243750D01*
G01*
G37*
G36*
G01*
X63050000Y-110033750D02*
X63050000Y-110946250D01*
G75*
G02*
X62806250Y-111190000I-243750J0D01*
G01*
X62318750Y-111190000D01*
G75*
G02*
X62075000Y-110946250I0J243750D01*
G01*
X62075000Y-110033750D01*
G75*
G02*
X62318750Y-109790000I243750J0D01*
G01*
X62806250Y-109790000D01*
G75*
G02*
X63050000Y-110033750I0J-243750D01*
G01*
G37*
G36*
G01*
X55042750Y-90747000D02*
X55955250Y-90747000D01*
G75*
G02*
X56199000Y-90990750I0J-243750D01*
G01*
X56199000Y-91478250D01*
G75*
G02*
X55955250Y-91722000I-243750J0D01*
G01*
X55042750Y-91722000D01*
G75*
G02*
X54799000Y-91478250I0J243750D01*
G01*
X54799000Y-90990750D01*
G75*
G02*
X55042750Y-90747000I243750J0D01*
G01*
G37*
G36*
G01*
X55042750Y-88872000D02*
X55955250Y-88872000D01*
G75*
G02*
X56199000Y-89115750I0J-243750D01*
G01*
X56199000Y-89603250D01*
G75*
G02*
X55955250Y-89847000I-243750J0D01*
G01*
X55042750Y-89847000D01*
G75*
G02*
X54799000Y-89603250I0J243750D01*
G01*
X54799000Y-89115750D01*
G75*
G02*
X55042750Y-88872000I243750J0D01*
G01*
G37*
G36*
G01*
X103770750Y-117376000D02*
X102858250Y-117376000D01*
G75*
G02*
X102614500Y-117132250I0J243750D01*
G01*
X102614500Y-116644750D01*
G75*
G02*
X102858250Y-116401000I243750J0D01*
G01*
X103770750Y-116401000D01*
G75*
G02*
X104014500Y-116644750I0J-243750D01*
G01*
X104014500Y-117132250D01*
G75*
G02*
X103770750Y-117376000I-243750J0D01*
G01*
G37*
G36*
G01*
X103770750Y-115501000D02*
X102858250Y-115501000D01*
G75*
G02*
X102614500Y-115257250I0J243750D01*
G01*
X102614500Y-114769750D01*
G75*
G02*
X102858250Y-114526000I243750J0D01*
G01*
X103770750Y-114526000D01*
G75*
G02*
X104014500Y-114769750I0J-243750D01*
G01*
X104014500Y-115257250D01*
G75*
G02*
X103770750Y-115501000I-243750J0D01*
G01*
G37*
G36*
G01*
X102985250Y-133990500D02*
X103897750Y-133990500D01*
G75*
G02*
X104141500Y-134234250I0J-243750D01*
G01*
X104141500Y-134721750D01*
G75*
G02*
X103897750Y-134965500I-243750J0D01*
G01*
X102985250Y-134965500D01*
G75*
G02*
X102741500Y-134721750I0J243750D01*
G01*
X102741500Y-134234250D01*
G75*
G02*
X102985250Y-133990500I243750J0D01*
G01*
G37*
G36*
G01*
X102985250Y-132115500D02*
X103897750Y-132115500D01*
G75*
G02*
X104141500Y-132359250I0J-243750D01*
G01*
X104141500Y-132846750D01*
G75*
G02*
X103897750Y-133090500I-243750J0D01*
G01*
X102985250Y-133090500D01*
G75*
G02*
X102741500Y-132846750I0J243750D01*
G01*
X102741500Y-132359250D01*
G75*
G02*
X102985250Y-132115500I243750J0D01*
G01*
G37*
G36*
G01*
X60122750Y-107668000D02*
X61035250Y-107668000D01*
G75*
G02*
X61279000Y-107911750I0J-243750D01*
G01*
X61279000Y-108399250D01*
G75*
G02*
X61035250Y-108643000I-243750J0D01*
G01*
X60122750Y-108643000D01*
G75*
G02*
X59879000Y-108399250I0J243750D01*
G01*
X59879000Y-107911750D01*
G75*
G02*
X60122750Y-107668000I243750J0D01*
G01*
G37*
G36*
G01*
X60122750Y-109543000D02*
X61035250Y-109543000D01*
G75*
G02*
X61279000Y-109786750I0J-243750D01*
G01*
X61279000Y-110274250D01*
G75*
G02*
X61035250Y-110518000I-243750J0D01*
G01*
X60122750Y-110518000D01*
G75*
G02*
X59879000Y-110274250I0J243750D01*
G01*
X59879000Y-109786750D01*
G75*
G02*
X60122750Y-109543000I243750J0D01*
G01*
G37*
G36*
G01*
X143071000Y-123836750D02*
X143071000Y-122924250D01*
G75*
G02*
X143314750Y-122680500I243750J0D01*
G01*
X143802250Y-122680500D01*
G75*
G02*
X144046000Y-122924250I0J-243750D01*
G01*
X144046000Y-123836750D01*
G75*
G02*
X143802250Y-124080500I-243750J0D01*
G01*
X143314750Y-124080500D01*
G75*
G02*
X143071000Y-123836750I0J243750D01*
G01*
G37*
G36*
G01*
X141196000Y-123836750D02*
X141196000Y-122924250D01*
G75*
G02*
X141439750Y-122680500I243750J0D01*
G01*
X141927250Y-122680500D01*
G75*
G02*
X142171000Y-122924250I0J-243750D01*
G01*
X142171000Y-123836750D01*
G75*
G02*
X141927250Y-124080500I-243750J0D01*
G01*
X141439750Y-124080500D01*
G75*
G02*
X141196000Y-123836750I0J243750D01*
G01*
G37*
G36*
G01*
X141196000Y-125805250D02*
X141196000Y-124892750D01*
G75*
G02*
X141439750Y-124649000I243750J0D01*
G01*
X141927250Y-124649000D01*
G75*
G02*
X142171000Y-124892750I0J-243750D01*
G01*
X142171000Y-125805250D01*
G75*
G02*
X141927250Y-126049000I-243750J0D01*
G01*
X141439750Y-126049000D01*
G75*
G02*
X141196000Y-125805250I0J243750D01*
G01*
G37*
G36*
G01*
X143071000Y-125805250D02*
X143071000Y-124892750D01*
G75*
G02*
X143314750Y-124649000I243750J0D01*
G01*
X143802250Y-124649000D01*
G75*
G02*
X144046000Y-124892750I0J-243750D01*
G01*
X144046000Y-125805250D01*
G75*
G02*
X143802250Y-126049000I-243750J0D01*
G01*
X143314750Y-126049000D01*
G75*
G02*
X143071000Y-125805250I0J243750D01*
G01*
G37*
G36*
G01*
X77291250Y-93373000D02*
X76378750Y-93373000D01*
G75*
G02*
X76135000Y-93129250I0J243750D01*
G01*
X76135000Y-92641750D01*
G75*
G02*
X76378750Y-92398000I243750J0D01*
G01*
X77291250Y-92398000D01*
G75*
G02*
X77535000Y-92641750I0J-243750D01*
G01*
X77535000Y-93129250D01*
G75*
G02*
X77291250Y-93373000I-243750J0D01*
G01*
G37*
G36*
G01*
X77291250Y-91498000D02*
X76378750Y-91498000D01*
G75*
G02*
X76135000Y-91254250I0J243750D01*
G01*
X76135000Y-90766750D01*
G75*
G02*
X76378750Y-90523000I243750J0D01*
G01*
X77291250Y-90523000D01*
G75*
G02*
X77535000Y-90766750I0J-243750D01*
G01*
X77535000Y-91254250D01*
G75*
G02*
X77291250Y-91498000I-243750J0D01*
G01*
G37*
D22*
X60896500Y-67024000D03*
X60896500Y-63024000D03*
G36*
G01*
X57963750Y-95319000D02*
X58876250Y-95319000D01*
G75*
G02*
X59120000Y-95562750I0J-243750D01*
G01*
X59120000Y-96050250D01*
G75*
G02*
X58876250Y-96294000I-243750J0D01*
G01*
X57963750Y-96294000D01*
G75*
G02*
X57720000Y-96050250I0J243750D01*
G01*
X57720000Y-95562750D01*
G75*
G02*
X57963750Y-95319000I243750J0D01*
G01*
G37*
G36*
G01*
X57963750Y-93444000D02*
X58876250Y-93444000D01*
G75*
G02*
X59120000Y-93687750I0J-243750D01*
G01*
X59120000Y-94175250D01*
G75*
G02*
X58876250Y-94419000I-243750J0D01*
G01*
X57963750Y-94419000D01*
G75*
G02*
X57720000Y-94175250I0J243750D01*
G01*
X57720000Y-93687750D01*
G75*
G02*
X57963750Y-93444000I243750J0D01*
G01*
G37*
G36*
G01*
X77315000Y-121106250D02*
X77315000Y-120193750D01*
G75*
G02*
X77558750Y-119950000I243750J0D01*
G01*
X78046250Y-119950000D01*
G75*
G02*
X78290000Y-120193750I0J-243750D01*
G01*
X78290000Y-121106250D01*
G75*
G02*
X78046250Y-121350000I-243750J0D01*
G01*
X77558750Y-121350000D01*
G75*
G02*
X77315000Y-121106250I0J243750D01*
G01*
G37*
G36*
G01*
X79190000Y-121106250D02*
X79190000Y-120193750D01*
G75*
G02*
X79433750Y-119950000I243750J0D01*
G01*
X79921250Y-119950000D01*
G75*
G02*
X80165000Y-120193750I0J-243750D01*
G01*
X80165000Y-121106250D01*
G75*
G02*
X79921250Y-121350000I-243750J0D01*
G01*
X79433750Y-121350000D01*
G75*
G02*
X79190000Y-121106250I0J243750D01*
G01*
G37*
G36*
G01*
X57208000Y-107874750D02*
X57208000Y-108787250D01*
G75*
G02*
X56964250Y-109031000I-243750J0D01*
G01*
X56476750Y-109031000D01*
G75*
G02*
X56233000Y-108787250I0J243750D01*
G01*
X56233000Y-107874750D01*
G75*
G02*
X56476750Y-107631000I243750J0D01*
G01*
X56964250Y-107631000D01*
G75*
G02*
X57208000Y-107874750I0J-243750D01*
G01*
G37*
G36*
G01*
X59083000Y-107874750D02*
X59083000Y-108787250D01*
G75*
G02*
X58839250Y-109031000I-243750J0D01*
G01*
X58351750Y-109031000D01*
G75*
G02*
X58108000Y-108787250I0J243750D01*
G01*
X58108000Y-107874750D01*
G75*
G02*
X58351750Y-107631000I243750J0D01*
G01*
X58839250Y-107631000D01*
G75*
G02*
X59083000Y-107874750I0J-243750D01*
G01*
G37*
G36*
G01*
X63050000Y-93650750D02*
X63050000Y-94563250D01*
G75*
G02*
X62806250Y-94807000I-243750J0D01*
G01*
X62318750Y-94807000D01*
G75*
G02*
X62075000Y-94563250I0J243750D01*
G01*
X62075000Y-93650750D01*
G75*
G02*
X62318750Y-93407000I243750J0D01*
G01*
X62806250Y-93407000D01*
G75*
G02*
X63050000Y-93650750I0J-243750D01*
G01*
G37*
G36*
G01*
X64925000Y-93650750D02*
X64925000Y-94563250D01*
G75*
G02*
X64681250Y-94807000I-243750J0D01*
G01*
X64193750Y-94807000D01*
G75*
G02*
X63950000Y-94563250I0J243750D01*
G01*
X63950000Y-93650750D01*
G75*
G02*
X64193750Y-93407000I243750J0D01*
G01*
X64681250Y-93407000D01*
G75*
G02*
X64925000Y-93650750I0J-243750D01*
G01*
G37*
G36*
G01*
X63050000Y-108001750D02*
X63050000Y-108914250D01*
G75*
G02*
X62806250Y-109158000I-243750J0D01*
G01*
X62318750Y-109158000D01*
G75*
G02*
X62075000Y-108914250I0J243750D01*
G01*
X62075000Y-108001750D01*
G75*
G02*
X62318750Y-107758000I243750J0D01*
G01*
X62806250Y-107758000D01*
G75*
G02*
X63050000Y-108001750I0J-243750D01*
G01*
G37*
G36*
G01*
X64925000Y-108001750D02*
X64925000Y-108914250D01*
G75*
G02*
X64681250Y-109158000I-243750J0D01*
G01*
X64193750Y-109158000D01*
G75*
G02*
X63950000Y-108914250I0J243750D01*
G01*
X63950000Y-108001750D01*
G75*
G02*
X64193750Y-107758000I243750J0D01*
G01*
X64681250Y-107758000D01*
G75*
G02*
X64925000Y-108001750I0J-243750D01*
G01*
G37*
G36*
G01*
X79022000Y-88697750D02*
X79022000Y-89610250D01*
G75*
G02*
X78778250Y-89854000I-243750J0D01*
G01*
X78290750Y-89854000D01*
G75*
G02*
X78047000Y-89610250I0J243750D01*
G01*
X78047000Y-88697750D01*
G75*
G02*
X78290750Y-88454000I243750J0D01*
G01*
X78778250Y-88454000D01*
G75*
G02*
X79022000Y-88697750I0J-243750D01*
G01*
G37*
G36*
G01*
X77147000Y-88697750D02*
X77147000Y-89610250D01*
G75*
G02*
X76903250Y-89854000I-243750J0D01*
G01*
X76415750Y-89854000D01*
G75*
G02*
X76172000Y-89610250I0J243750D01*
G01*
X76172000Y-88697750D01*
G75*
G02*
X76415750Y-88454000I243750J0D01*
G01*
X76903250Y-88454000D01*
G75*
G02*
X77147000Y-88697750I0J-243750D01*
G01*
G37*
G36*
G01*
X72187750Y-114877000D02*
X73100250Y-114877000D01*
G75*
G02*
X73344000Y-115120750I0J-243750D01*
G01*
X73344000Y-115608250D01*
G75*
G02*
X73100250Y-115852000I-243750J0D01*
G01*
X72187750Y-115852000D01*
G75*
G02*
X71944000Y-115608250I0J243750D01*
G01*
X71944000Y-115120750D01*
G75*
G02*
X72187750Y-114877000I243750J0D01*
G01*
G37*
G36*
G01*
X72187750Y-113002000D02*
X73100250Y-113002000D01*
G75*
G02*
X73344000Y-113245750I0J-243750D01*
G01*
X73344000Y-113733250D01*
G75*
G02*
X73100250Y-113977000I-243750J0D01*
G01*
X72187750Y-113977000D01*
G75*
G02*
X71944000Y-113733250I0J243750D01*
G01*
X71944000Y-113245750D01*
G75*
G02*
X72187750Y-113002000I243750J0D01*
G01*
G37*
G36*
G01*
X79450250Y-93373000D02*
X78537750Y-93373000D01*
G75*
G02*
X78294000Y-93129250I0J243750D01*
G01*
X78294000Y-92641750D01*
G75*
G02*
X78537750Y-92398000I243750J0D01*
G01*
X79450250Y-92398000D01*
G75*
G02*
X79694000Y-92641750I0J-243750D01*
G01*
X79694000Y-93129250D01*
G75*
G02*
X79450250Y-93373000I-243750J0D01*
G01*
G37*
G36*
G01*
X79450250Y-91498000D02*
X78537750Y-91498000D01*
G75*
G02*
X78294000Y-91254250I0J243750D01*
G01*
X78294000Y-90766750D01*
G75*
G02*
X78537750Y-90523000I243750J0D01*
G01*
X79450250Y-90523000D01*
G75*
G02*
X79694000Y-90766750I0J-243750D01*
G01*
X79694000Y-91254250D01*
G75*
G02*
X79450250Y-91498000I-243750J0D01*
G01*
G37*
D23*
X103489000Y-69022000D03*
X103489000Y-67122000D03*
X101489000Y-68072000D03*
D21*
X73374000Y-109474000D03*
X69374000Y-109474000D03*
D22*
X57213500Y-63024000D03*
X57213500Y-67024000D03*
D21*
X69374000Y-87223600D03*
X73374000Y-87223600D03*
G36*
G01*
X69538000Y-67893250D02*
X69538000Y-66980750D01*
G75*
G02*
X69781750Y-66737000I243750J0D01*
G01*
X70269250Y-66737000D01*
G75*
G02*
X70513000Y-66980750I0J-243750D01*
G01*
X70513000Y-67893250D01*
G75*
G02*
X70269250Y-68137000I-243750J0D01*
G01*
X69781750Y-68137000D01*
G75*
G02*
X69538000Y-67893250I0J243750D01*
G01*
G37*
G36*
G01*
X67663000Y-67893250D02*
X67663000Y-66980750D01*
G75*
G02*
X67906750Y-66737000I243750J0D01*
G01*
X68394250Y-66737000D01*
G75*
G02*
X68638000Y-66980750I0J-243750D01*
G01*
X68638000Y-67893250D01*
G75*
G02*
X68394250Y-68137000I-243750J0D01*
G01*
X67906750Y-68137000D01*
G75*
G02*
X67663000Y-67893250I0J243750D01*
G01*
G37*
G36*
G01*
X120765250Y-104620000D02*
X121677750Y-104620000D01*
G75*
G02*
X121921500Y-104863750I0J-243750D01*
G01*
X121921500Y-105351250D01*
G75*
G02*
X121677750Y-105595000I-243750J0D01*
G01*
X120765250Y-105595000D01*
G75*
G02*
X120521500Y-105351250I0J243750D01*
G01*
X120521500Y-104863750D01*
G75*
G02*
X120765250Y-104620000I243750J0D01*
G01*
G37*
G36*
G01*
X120765250Y-106495000D02*
X121677750Y-106495000D01*
G75*
G02*
X121921500Y-106738750I0J-243750D01*
G01*
X121921500Y-107226250D01*
G75*
G02*
X121677750Y-107470000I-243750J0D01*
G01*
X120765250Y-107470000D01*
G75*
G02*
X120521500Y-107226250I0J243750D01*
G01*
X120521500Y-106738750D01*
G75*
G02*
X120765250Y-106495000I243750J0D01*
G01*
G37*
G36*
G01*
X102009000Y-84697250D02*
X102009000Y-85609750D01*
G75*
G02*
X101765250Y-85853500I-243750J0D01*
G01*
X101277750Y-85853500D01*
G75*
G02*
X101034000Y-85609750I0J243750D01*
G01*
X101034000Y-84697250D01*
G75*
G02*
X101277750Y-84453500I243750J0D01*
G01*
X101765250Y-84453500D01*
G75*
G02*
X102009000Y-84697250I0J-243750D01*
G01*
G37*
G36*
G01*
X100134000Y-84697250D02*
X100134000Y-85609750D01*
G75*
G02*
X99890250Y-85853500I-243750J0D01*
G01*
X99402750Y-85853500D01*
G75*
G02*
X99159000Y-85609750I0J243750D01*
G01*
X99159000Y-84697250D01*
G75*
G02*
X99402750Y-84453500I243750J0D01*
G01*
X99890250Y-84453500D01*
G75*
G02*
X100134000Y-84697250I0J-243750D01*
G01*
G37*
G36*
G01*
X61924250Y-76482000D02*
X61011750Y-76482000D01*
G75*
G02*
X60768000Y-76238250I0J243750D01*
G01*
X60768000Y-75750750D01*
G75*
G02*
X61011750Y-75507000I243750J0D01*
G01*
X61924250Y-75507000D01*
G75*
G02*
X62168000Y-75750750I0J-243750D01*
G01*
X62168000Y-76238250D01*
G75*
G02*
X61924250Y-76482000I-243750J0D01*
G01*
G37*
G36*
G01*
X61924250Y-74607000D02*
X61011750Y-74607000D01*
G75*
G02*
X60768000Y-74363250I0J243750D01*
G01*
X60768000Y-73875750D01*
G75*
G02*
X61011750Y-73632000I243750J0D01*
G01*
X61924250Y-73632000D01*
G75*
G02*
X62168000Y-73875750I0J-243750D01*
G01*
X62168000Y-74363250D01*
G75*
G02*
X61924250Y-74607000I-243750J0D01*
G01*
G37*
G36*
G01*
X76378750Y-78585000D02*
X77291250Y-78585000D01*
G75*
G02*
X77535000Y-78828750I0J-243750D01*
G01*
X77535000Y-79316250D01*
G75*
G02*
X77291250Y-79560000I-243750J0D01*
G01*
X76378750Y-79560000D01*
G75*
G02*
X76135000Y-79316250I0J243750D01*
G01*
X76135000Y-78828750D01*
G75*
G02*
X76378750Y-78585000I243750J0D01*
G01*
G37*
G36*
G01*
X76378750Y-80460000D02*
X77291250Y-80460000D01*
G75*
G02*
X77535000Y-80703750I0J-243750D01*
G01*
X77535000Y-81191250D01*
G75*
G02*
X77291250Y-81435000I-243750J0D01*
G01*
X76378750Y-81435000D01*
G75*
G02*
X76135000Y-81191250I0J243750D01*
G01*
X76135000Y-80703750D01*
G75*
G02*
X76378750Y-80460000I243750J0D01*
G01*
G37*
G36*
G01*
X96070000Y-82601750D02*
X96070000Y-83514250D01*
G75*
G02*
X95826250Y-83758000I-243750J0D01*
G01*
X95338750Y-83758000D01*
G75*
G02*
X95095000Y-83514250I0J243750D01*
G01*
X95095000Y-82601750D01*
G75*
G02*
X95338750Y-82358000I243750J0D01*
G01*
X95826250Y-82358000D01*
G75*
G02*
X96070000Y-82601750I0J-243750D01*
G01*
G37*
G36*
G01*
X97945000Y-82601750D02*
X97945000Y-83514250D01*
G75*
G02*
X97701250Y-83758000I-243750J0D01*
G01*
X97213750Y-83758000D01*
G75*
G02*
X96970000Y-83514250I0J243750D01*
G01*
X96970000Y-82601750D01*
G75*
G02*
X97213750Y-82358000I243750J0D01*
G01*
X97701250Y-82358000D01*
G75*
G02*
X97945000Y-82601750I0J-243750D01*
G01*
G37*
G36*
G01*
X86418000Y-79934750D02*
X86418000Y-80847250D01*
G75*
G02*
X86174250Y-81091000I-243750J0D01*
G01*
X85686750Y-81091000D01*
G75*
G02*
X85443000Y-80847250I0J243750D01*
G01*
X85443000Y-79934750D01*
G75*
G02*
X85686750Y-79691000I243750J0D01*
G01*
X86174250Y-79691000D01*
G75*
G02*
X86418000Y-79934750I0J-243750D01*
G01*
G37*
G36*
G01*
X88293000Y-79934750D02*
X88293000Y-80847250D01*
G75*
G02*
X88049250Y-81091000I-243750J0D01*
G01*
X87561750Y-81091000D01*
G75*
G02*
X87318000Y-80847250I0J243750D01*
G01*
X87318000Y-79934750D01*
G75*
G02*
X87561750Y-79691000I243750J0D01*
G01*
X88049250Y-79691000D01*
G75*
G02*
X88293000Y-79934750I0J-243750D01*
G01*
G37*
G36*
G01*
X128742500Y-77331250D02*
X128742500Y-78243750D01*
G75*
G02*
X128498750Y-78487500I-243750J0D01*
G01*
X128011250Y-78487500D01*
G75*
G02*
X127767500Y-78243750I0J243750D01*
G01*
X127767500Y-77331250D01*
G75*
G02*
X128011250Y-77087500I243750J0D01*
G01*
X128498750Y-77087500D01*
G75*
G02*
X128742500Y-77331250I0J-243750D01*
G01*
G37*
G36*
G01*
X126867500Y-77331250D02*
X126867500Y-78243750D01*
G75*
G02*
X126623750Y-78487500I-243750J0D01*
G01*
X126136250Y-78487500D01*
G75*
G02*
X125892500Y-78243750I0J243750D01*
G01*
X125892500Y-77331250D01*
G75*
G02*
X126136250Y-77087500I243750J0D01*
G01*
X126623750Y-77087500D01*
G75*
G02*
X126867500Y-77331250I0J-243750D01*
G01*
G37*
G36*
G01*
X95769750Y-117439500D02*
X94857250Y-117439500D01*
G75*
G02*
X94613500Y-117195750I0J243750D01*
G01*
X94613500Y-116708250D01*
G75*
G02*
X94857250Y-116464500I243750J0D01*
G01*
X95769750Y-116464500D01*
G75*
G02*
X96013500Y-116708250I0J-243750D01*
G01*
X96013500Y-117195750D01*
G75*
G02*
X95769750Y-117439500I-243750J0D01*
G01*
G37*
G36*
G01*
X95769750Y-115564500D02*
X94857250Y-115564500D01*
G75*
G02*
X94613500Y-115320750I0J243750D01*
G01*
X94613500Y-114833250D01*
G75*
G02*
X94857250Y-114589500I243750J0D01*
G01*
X95769750Y-114589500D01*
G75*
G02*
X96013500Y-114833250I0J-243750D01*
G01*
X96013500Y-115320750D01*
G75*
G02*
X95769750Y-115564500I-243750J0D01*
G01*
G37*
G36*
G01*
X94666750Y-133990500D02*
X95579250Y-133990500D01*
G75*
G02*
X95823000Y-134234250I0J-243750D01*
G01*
X95823000Y-134721750D01*
G75*
G02*
X95579250Y-134965500I-243750J0D01*
G01*
X94666750Y-134965500D01*
G75*
G02*
X94423000Y-134721750I0J243750D01*
G01*
X94423000Y-134234250D01*
G75*
G02*
X94666750Y-133990500I243750J0D01*
G01*
G37*
G36*
G01*
X94666750Y-132115500D02*
X95579250Y-132115500D01*
G75*
G02*
X95823000Y-132359250I0J-243750D01*
G01*
X95823000Y-132846750D01*
G75*
G02*
X95579250Y-133090500I-243750J0D01*
G01*
X94666750Y-133090500D01*
G75*
G02*
X94423000Y-132846750I0J243750D01*
G01*
X94423000Y-132359250D01*
G75*
G02*
X94666750Y-132115500I243750J0D01*
G01*
G37*
G36*
G01*
X96825750Y-132115500D02*
X97738250Y-132115500D01*
G75*
G02*
X97982000Y-132359250I0J-243750D01*
G01*
X97982000Y-132846750D01*
G75*
G02*
X97738250Y-133090500I-243750J0D01*
G01*
X96825750Y-133090500D01*
G75*
G02*
X96582000Y-132846750I0J243750D01*
G01*
X96582000Y-132359250D01*
G75*
G02*
X96825750Y-132115500I243750J0D01*
G01*
G37*
G36*
G01*
X96825750Y-133990500D02*
X97738250Y-133990500D01*
G75*
G02*
X97982000Y-134234250I0J-243750D01*
G01*
X97982000Y-134721750D01*
G75*
G02*
X97738250Y-134965500I-243750J0D01*
G01*
X96825750Y-134965500D01*
G75*
G02*
X96582000Y-134721750I0J243750D01*
G01*
X96582000Y-134234250D01*
G75*
G02*
X96825750Y-133990500I243750J0D01*
G01*
G37*
D24*
X107188000Y-93273000D03*
X107188000Y-96973000D03*
D25*
X69723000Y-75725000D03*
X68453000Y-75725000D03*
X67183000Y-75725000D03*
X65913000Y-75725000D03*
X65913000Y-70325000D03*
X67183000Y-70325000D03*
X68453000Y-70325000D03*
X69723000Y-70325000D03*
D26*
X67818000Y-73025000D03*
D12*
X92685000Y-85767333D03*
D11*
X86385000Y-85767333D03*
X86385000Y-88067333D03*
X86385000Y-83467333D03*
G36*
G01*
X78410750Y-78585000D02*
X79323250Y-78585000D01*
G75*
G02*
X79567000Y-78828750I0J-243750D01*
G01*
X79567000Y-79316250D01*
G75*
G02*
X79323250Y-79560000I-243750J0D01*
G01*
X78410750Y-79560000D01*
G75*
G02*
X78167000Y-79316250I0J243750D01*
G01*
X78167000Y-78828750D01*
G75*
G02*
X78410750Y-78585000I243750J0D01*
G01*
G37*
G36*
G01*
X78410750Y-80460000D02*
X79323250Y-80460000D01*
G75*
G02*
X79567000Y-80703750I0J-243750D01*
G01*
X79567000Y-81191250D01*
G75*
G02*
X79323250Y-81435000I-243750J0D01*
G01*
X78410750Y-81435000D01*
G75*
G02*
X78167000Y-81191250I0J243750D01*
G01*
X78167000Y-80703750D01*
G75*
G02*
X78410750Y-80460000I243750J0D01*
G01*
G37*
G36*
G01*
X65082000Y-66980750D02*
X65082000Y-67893250D01*
G75*
G02*
X64838250Y-68137000I-243750J0D01*
G01*
X64350750Y-68137000D01*
G75*
G02*
X64107000Y-67893250I0J243750D01*
G01*
X64107000Y-66980750D01*
G75*
G02*
X64350750Y-66737000I243750J0D01*
G01*
X64838250Y-66737000D01*
G75*
G02*
X65082000Y-66980750I0J-243750D01*
G01*
G37*
G36*
G01*
X66957000Y-66980750D02*
X66957000Y-67893250D01*
G75*
G02*
X66713250Y-68137000I-243750J0D01*
G01*
X66225750Y-68137000D01*
G75*
G02*
X65982000Y-67893250I0J243750D01*
G01*
X65982000Y-66980750D01*
G75*
G02*
X66225750Y-66737000I243750J0D01*
G01*
X66713250Y-66737000D01*
G75*
G02*
X66957000Y-66980750I0J-243750D01*
G01*
G37*
G36*
G01*
X63956250Y-76482000D02*
X63043750Y-76482000D01*
G75*
G02*
X62800000Y-76238250I0J243750D01*
G01*
X62800000Y-75750750D01*
G75*
G02*
X63043750Y-75507000I243750J0D01*
G01*
X63956250Y-75507000D01*
G75*
G02*
X64200000Y-75750750I0J-243750D01*
G01*
X64200000Y-76238250D01*
G75*
G02*
X63956250Y-76482000I-243750J0D01*
G01*
G37*
G36*
G01*
X63956250Y-74607000D02*
X63043750Y-74607000D01*
G75*
G02*
X62800000Y-74363250I0J243750D01*
G01*
X62800000Y-73875750D01*
G75*
G02*
X63043750Y-73632000I243750J0D01*
G01*
X63956250Y-73632000D01*
G75*
G02*
X64200000Y-73875750I0J-243750D01*
G01*
X64200000Y-74363250D01*
G75*
G02*
X63956250Y-74607000I-243750J0D01*
G01*
G37*
G36*
G01*
X79022000Y-82347750D02*
X79022000Y-83260250D01*
G75*
G02*
X78778250Y-83504000I-243750J0D01*
G01*
X78290750Y-83504000D01*
G75*
G02*
X78047000Y-83260250I0J243750D01*
G01*
X78047000Y-82347750D01*
G75*
G02*
X78290750Y-82104000I243750J0D01*
G01*
X78778250Y-82104000D01*
G75*
G02*
X79022000Y-82347750I0J-243750D01*
G01*
G37*
G36*
G01*
X77147000Y-82347750D02*
X77147000Y-83260250D01*
G75*
G02*
X76903250Y-83504000I-243750J0D01*
G01*
X76415750Y-83504000D01*
G75*
G02*
X76172000Y-83260250I0J243750D01*
G01*
X76172000Y-82347750D01*
G75*
G02*
X76415750Y-82104000I243750J0D01*
G01*
X76903250Y-82104000D01*
G75*
G02*
X77147000Y-82347750I0J-243750D01*
G01*
G37*
G36*
G01*
X96070000Y-84760750D02*
X96070000Y-85673250D01*
G75*
G02*
X95826250Y-85917000I-243750J0D01*
G01*
X95338750Y-85917000D01*
G75*
G02*
X95095000Y-85673250I0J243750D01*
G01*
X95095000Y-84760750D01*
G75*
G02*
X95338750Y-84517000I243750J0D01*
G01*
X95826250Y-84517000D01*
G75*
G02*
X96070000Y-84760750I0J-243750D01*
G01*
G37*
G36*
G01*
X97945000Y-84760750D02*
X97945000Y-85673250D01*
G75*
G02*
X97701250Y-85917000I-243750J0D01*
G01*
X97213750Y-85917000D01*
G75*
G02*
X96970000Y-85673250I0J243750D01*
G01*
X96970000Y-84760750D01*
G75*
G02*
X97213750Y-84517000I243750J0D01*
G01*
X97701250Y-84517000D01*
G75*
G02*
X97945000Y-84760750I0J-243750D01*
G01*
G37*
G36*
G01*
X90904000Y-80847250D02*
X90904000Y-79934750D01*
G75*
G02*
X91147750Y-79691000I243750J0D01*
G01*
X91635250Y-79691000D01*
G75*
G02*
X91879000Y-79934750I0J-243750D01*
G01*
X91879000Y-80847250D01*
G75*
G02*
X91635250Y-81091000I-243750J0D01*
G01*
X91147750Y-81091000D01*
G75*
G02*
X90904000Y-80847250I0J243750D01*
G01*
G37*
G36*
G01*
X92779000Y-80847250D02*
X92779000Y-79934750D01*
G75*
G02*
X93022750Y-79691000I243750J0D01*
G01*
X93510250Y-79691000D01*
G75*
G02*
X93754000Y-79934750I0J-243750D01*
G01*
X93754000Y-80847250D01*
G75*
G02*
X93510250Y-81091000I-243750J0D01*
G01*
X93022750Y-81091000D01*
G75*
G02*
X92779000Y-80847250I0J243750D01*
G01*
G37*
G36*
G01*
X131450500Y-78243750D02*
X131450500Y-77331250D01*
G75*
G02*
X131694250Y-77087500I243750J0D01*
G01*
X132181750Y-77087500D01*
G75*
G02*
X132425500Y-77331250I0J-243750D01*
G01*
X132425500Y-78243750D01*
G75*
G02*
X132181750Y-78487500I-243750J0D01*
G01*
X131694250Y-78487500D01*
G75*
G02*
X131450500Y-78243750I0J243750D01*
G01*
G37*
G36*
G01*
X129575500Y-78243750D02*
X129575500Y-77331250D01*
G75*
G02*
X129819250Y-77087500I243750J0D01*
G01*
X130306750Y-77087500D01*
G75*
G02*
X130550500Y-77331250I0J-243750D01*
G01*
X130550500Y-78243750D01*
G75*
G02*
X130306750Y-78487500I-243750J0D01*
G01*
X129819250Y-78487500D01*
G75*
G02*
X129575500Y-78243750I0J243750D01*
G01*
G37*
G36*
G01*
X104620000Y-122058750D02*
X104620000Y-121146250D01*
G75*
G02*
X104863750Y-120902500I243750J0D01*
G01*
X105351250Y-120902500D01*
G75*
G02*
X105595000Y-121146250I0J-243750D01*
G01*
X105595000Y-122058750D01*
G75*
G02*
X105351250Y-122302500I-243750J0D01*
G01*
X104863750Y-122302500D01*
G75*
G02*
X104620000Y-122058750I0J243750D01*
G01*
G37*
G36*
G01*
X106495000Y-122058750D02*
X106495000Y-121146250D01*
G75*
G02*
X106738750Y-120902500I243750J0D01*
G01*
X107226250Y-120902500D01*
G75*
G02*
X107470000Y-121146250I0J-243750D01*
G01*
X107470000Y-122058750D01*
G75*
G02*
X107226250Y-122302500I-243750J0D01*
G01*
X106738750Y-122302500D01*
G75*
G02*
X106495000Y-122058750I0J243750D01*
G01*
G37*
G36*
G01*
X105722000Y-68758750D02*
X105722000Y-69671250D01*
G75*
G02*
X105478250Y-69915000I-243750J0D01*
G01*
X104990750Y-69915000D01*
G75*
G02*
X104747000Y-69671250I0J243750D01*
G01*
X104747000Y-68758750D01*
G75*
G02*
X104990750Y-68515000I243750J0D01*
G01*
X105478250Y-68515000D01*
G75*
G02*
X105722000Y-68758750I0J-243750D01*
G01*
G37*
G36*
G01*
X107597000Y-68758750D02*
X107597000Y-69671250D01*
G75*
G02*
X107353250Y-69915000I-243750J0D01*
G01*
X106865750Y-69915000D01*
G75*
G02*
X106622000Y-69671250I0J243750D01*
G01*
X106622000Y-68758750D01*
G75*
G02*
X106865750Y-68515000I243750J0D01*
G01*
X107353250Y-68515000D01*
G75*
G02*
X107597000Y-68758750I0J-243750D01*
G01*
G37*
G36*
G01*
X136086000Y-99325750D02*
X136086000Y-98413250D01*
G75*
G02*
X136329750Y-98169500I243750J0D01*
G01*
X136817250Y-98169500D01*
G75*
G02*
X137061000Y-98413250I0J-243750D01*
G01*
X137061000Y-99325750D01*
G75*
G02*
X136817250Y-99569500I-243750J0D01*
G01*
X136329750Y-99569500D01*
G75*
G02*
X136086000Y-99325750I0J243750D01*
G01*
G37*
G36*
G01*
X134211000Y-99325750D02*
X134211000Y-98413250D01*
G75*
G02*
X134454750Y-98169500I243750J0D01*
G01*
X134942250Y-98169500D01*
G75*
G02*
X135186000Y-98413250I0J-243750D01*
G01*
X135186000Y-99325750D01*
G75*
G02*
X134942250Y-99569500I-243750J0D01*
G01*
X134454750Y-99569500D01*
G75*
G02*
X134211000Y-99325750I0J243750D01*
G01*
G37*
G36*
G01*
X106622000Y-67512250D02*
X106622000Y-66599750D01*
G75*
G02*
X106865750Y-66356000I243750J0D01*
G01*
X107353250Y-66356000D01*
G75*
G02*
X107597000Y-66599750I0J-243750D01*
G01*
X107597000Y-67512250D01*
G75*
G02*
X107353250Y-67756000I-243750J0D01*
G01*
X106865750Y-67756000D01*
G75*
G02*
X106622000Y-67512250I0J243750D01*
G01*
G37*
G36*
G01*
X104747000Y-67512250D02*
X104747000Y-66599750D01*
G75*
G02*
X104990750Y-66356000I243750J0D01*
G01*
X105478250Y-66356000D01*
G75*
G02*
X105722000Y-66599750I0J-243750D01*
G01*
X105722000Y-67512250D01*
G75*
G02*
X105478250Y-67756000I-243750J0D01*
G01*
X104990750Y-67756000D01*
G75*
G02*
X104747000Y-67512250I0J243750D01*
G01*
G37*
G36*
G01*
X100341750Y-71876500D02*
X99429250Y-71876500D01*
G75*
G02*
X99185500Y-71632750I0J243750D01*
G01*
X99185500Y-71145250D01*
G75*
G02*
X99429250Y-70901500I243750J0D01*
G01*
X100341750Y-70901500D01*
G75*
G02*
X100585500Y-71145250I0J-243750D01*
G01*
X100585500Y-71632750D01*
G75*
G02*
X100341750Y-71876500I-243750J0D01*
G01*
G37*
G36*
G01*
X100341750Y-73751500D02*
X99429250Y-73751500D01*
G75*
G02*
X99185500Y-73507750I0J243750D01*
G01*
X99185500Y-73020250D01*
G75*
G02*
X99429250Y-72776500I243750J0D01*
G01*
X100341750Y-72776500D01*
G75*
G02*
X100585500Y-73020250I0J-243750D01*
G01*
X100585500Y-73507750D01*
G75*
G02*
X100341750Y-73751500I-243750J0D01*
G01*
G37*
G36*
G01*
X99238750Y-66774000D02*
X100151250Y-66774000D01*
G75*
G02*
X100395000Y-67017750I0J-243750D01*
G01*
X100395000Y-67505250D01*
G75*
G02*
X100151250Y-67749000I-243750J0D01*
G01*
X99238750Y-67749000D01*
G75*
G02*
X98995000Y-67505250I0J243750D01*
G01*
X98995000Y-67017750D01*
G75*
G02*
X99238750Y-66774000I243750J0D01*
G01*
G37*
G36*
G01*
X99238750Y-68649000D02*
X100151250Y-68649000D01*
G75*
G02*
X100395000Y-68892750I0J-243750D01*
G01*
X100395000Y-69380250D01*
G75*
G02*
X100151250Y-69624000I-243750J0D01*
G01*
X99238750Y-69624000D01*
G75*
G02*
X98995000Y-69380250I0J243750D01*
G01*
X98995000Y-68892750D01*
G75*
G02*
X99238750Y-68649000I243750J0D01*
G01*
G37*
G36*
G01*
X98182750Y-71876500D02*
X97270250Y-71876500D01*
G75*
G02*
X97026500Y-71632750I0J243750D01*
G01*
X97026500Y-71145250D01*
G75*
G02*
X97270250Y-70901500I243750J0D01*
G01*
X98182750Y-70901500D01*
G75*
G02*
X98426500Y-71145250I0J-243750D01*
G01*
X98426500Y-71632750D01*
G75*
G02*
X98182750Y-71876500I-243750J0D01*
G01*
G37*
G36*
G01*
X98182750Y-73751500D02*
X97270250Y-73751500D01*
G75*
G02*
X97026500Y-73507750I0J243750D01*
G01*
X97026500Y-73020250D01*
G75*
G02*
X97270250Y-72776500I243750J0D01*
G01*
X98182750Y-72776500D01*
G75*
G02*
X98426500Y-73020250I0J-243750D01*
G01*
X98426500Y-73507750D01*
G75*
G02*
X98182750Y-73751500I-243750J0D01*
G01*
G37*
G36*
G01*
X120471250Y-80658000D02*
X119558750Y-80658000D01*
G75*
G02*
X119315000Y-80414250I0J243750D01*
G01*
X119315000Y-79926750D01*
G75*
G02*
X119558750Y-79683000I243750J0D01*
G01*
X120471250Y-79683000D01*
G75*
G02*
X120715000Y-79926750I0J-243750D01*
G01*
X120715000Y-80414250D01*
G75*
G02*
X120471250Y-80658000I-243750J0D01*
G01*
G37*
G36*
G01*
X120471250Y-78783000D02*
X119558750Y-78783000D01*
G75*
G02*
X119315000Y-78539250I0J243750D01*
G01*
X119315000Y-78051750D01*
G75*
G02*
X119558750Y-77808000I243750J0D01*
G01*
X120471250Y-77808000D01*
G75*
G02*
X120715000Y-78051750I0J-243750D01*
G01*
X120715000Y-78539250D01*
G75*
G02*
X120471250Y-78783000I-243750J0D01*
G01*
G37*
M02*
