G04 #@! TF.GenerationSoftware,KiCad,Pcbnew,5.1.9*
G04 #@! TF.CreationDate,2021-04-13T21:33:03+08:00*
G04 #@! TF.ProjectId,digital-amplifier2,64696769-7461-46c2-9d61-6d706c696669,rev?*
G04 #@! TF.SameCoordinates,Original*
G04 #@! TF.FileFunction,Paste,Bot*
G04 #@! TF.FilePolarity,Positive*
%FSLAX46Y46*%
G04 Gerber Fmt 4.6, Leading zero omitted, Abs format (unit mm)*
G04 Created by KiCad (PCBNEW 5.1.9) date 2021-04-13 21:33:03*
%MOMM*%
%LPD*%
G01*
G04 APERTURE LIST*
G04 APERTURE END LIST*
G36*
G01*
X98839000Y-142055000D02*
X99789000Y-142055000D01*
G75*
G02*
X100039000Y-142305000I0J-250000D01*
G01*
X100039000Y-142805000D01*
G75*
G02*
X99789000Y-143055000I-250000J0D01*
G01*
X98839000Y-143055000D01*
G75*
G02*
X98589000Y-142805000I0J250000D01*
G01*
X98589000Y-142305000D01*
G75*
G02*
X98839000Y-142055000I250000J0D01*
G01*
G37*
G36*
G01*
X98839000Y-140155000D02*
X99789000Y-140155000D01*
G75*
G02*
X100039000Y-140405000I0J-250000D01*
G01*
X100039000Y-140905000D01*
G75*
G02*
X99789000Y-141155000I-250000J0D01*
G01*
X98839000Y-141155000D01*
G75*
G02*
X98589000Y-140905000I0J250000D01*
G01*
X98589000Y-140405000D01*
G75*
G02*
X98839000Y-140155000I250000J0D01*
G01*
G37*
G36*
G01*
X127917000Y-125654750D02*
X127917000Y-126567250D01*
G75*
G02*
X127673250Y-126811000I-243750J0D01*
G01*
X127185750Y-126811000D01*
G75*
G02*
X126942000Y-126567250I0J243750D01*
G01*
X126942000Y-125654750D01*
G75*
G02*
X127185750Y-125411000I243750J0D01*
G01*
X127673250Y-125411000D01*
G75*
G02*
X127917000Y-125654750I0J-243750D01*
G01*
G37*
G36*
G01*
X126042000Y-125654750D02*
X126042000Y-126567250D01*
G75*
G02*
X125798250Y-126811000I-243750J0D01*
G01*
X125310750Y-126811000D01*
G75*
G02*
X125067000Y-126567250I0J243750D01*
G01*
X125067000Y-125654750D01*
G75*
G02*
X125310750Y-125411000I243750J0D01*
G01*
X125798250Y-125411000D01*
G75*
G02*
X126042000Y-125654750I0J-243750D01*
G01*
G37*
G36*
G01*
X122630250Y-139059500D02*
X121717750Y-139059500D01*
G75*
G02*
X121474000Y-138815750I0J243750D01*
G01*
X121474000Y-138328250D01*
G75*
G02*
X121717750Y-138084500I243750J0D01*
G01*
X122630250Y-138084500D01*
G75*
G02*
X122874000Y-138328250I0J-243750D01*
G01*
X122874000Y-138815750D01*
G75*
G02*
X122630250Y-139059500I-243750J0D01*
G01*
G37*
G36*
G01*
X122630250Y-140934500D02*
X121717750Y-140934500D01*
G75*
G02*
X121474000Y-140690750I0J243750D01*
G01*
X121474000Y-140203250D01*
G75*
G02*
X121717750Y-139959500I243750J0D01*
G01*
X122630250Y-139959500D01*
G75*
G02*
X122874000Y-140203250I0J-243750D01*
G01*
X122874000Y-140690750D01*
G75*
G02*
X122630250Y-140934500I-243750J0D01*
G01*
G37*
G36*
G01*
X102159750Y-140180000D02*
X103072250Y-140180000D01*
G75*
G02*
X103316000Y-140423750I0J-243750D01*
G01*
X103316000Y-140911250D01*
G75*
G02*
X103072250Y-141155000I-243750J0D01*
G01*
X102159750Y-141155000D01*
G75*
G02*
X101916000Y-140911250I0J243750D01*
G01*
X101916000Y-140423750D01*
G75*
G02*
X102159750Y-140180000I243750J0D01*
G01*
G37*
G36*
G01*
X102159750Y-142055000D02*
X103072250Y-142055000D01*
G75*
G02*
X103316000Y-142298750I0J-243750D01*
G01*
X103316000Y-142786250D01*
G75*
G02*
X103072250Y-143030000I-243750J0D01*
G01*
X102159750Y-143030000D01*
G75*
G02*
X101916000Y-142786250I0J243750D01*
G01*
X101916000Y-142298750D01*
G75*
G02*
X102159750Y-142055000I243750J0D01*
G01*
G37*
G36*
G01*
X135457250Y-140998000D02*
X134544750Y-140998000D01*
G75*
G02*
X134301000Y-140754250I0J243750D01*
G01*
X134301000Y-140266750D01*
G75*
G02*
X134544750Y-140023000I243750J0D01*
G01*
X135457250Y-140023000D01*
G75*
G02*
X135701000Y-140266750I0J-243750D01*
G01*
X135701000Y-140754250D01*
G75*
G02*
X135457250Y-140998000I-243750J0D01*
G01*
G37*
G36*
G01*
X135457250Y-139123000D02*
X134544750Y-139123000D01*
G75*
G02*
X134301000Y-138879250I0J243750D01*
G01*
X134301000Y-138391750D01*
G75*
G02*
X134544750Y-138148000I243750J0D01*
G01*
X135457250Y-138148000D01*
G75*
G02*
X135701000Y-138391750I0J-243750D01*
G01*
X135701000Y-138879250D01*
G75*
G02*
X135457250Y-139123000I-243750J0D01*
G01*
G37*
G36*
G01*
X105461750Y-142055000D02*
X106374250Y-142055000D01*
G75*
G02*
X106618000Y-142298750I0J-243750D01*
G01*
X106618000Y-142786250D01*
G75*
G02*
X106374250Y-143030000I-243750J0D01*
G01*
X105461750Y-143030000D01*
G75*
G02*
X105218000Y-142786250I0J243750D01*
G01*
X105218000Y-142298750D01*
G75*
G02*
X105461750Y-142055000I243750J0D01*
G01*
G37*
G36*
G01*
X105461750Y-140180000D02*
X106374250Y-140180000D01*
G75*
G02*
X106618000Y-140423750I0J-243750D01*
G01*
X106618000Y-140911250D01*
G75*
G02*
X106374250Y-141155000I-243750J0D01*
G01*
X105461750Y-141155000D01*
G75*
G02*
X105218000Y-140911250I0J243750D01*
G01*
X105218000Y-140423750D01*
G75*
G02*
X105461750Y-140180000I243750J0D01*
G01*
G37*
G36*
G01*
X98857750Y-138499000D02*
X99770250Y-138499000D01*
G75*
G02*
X100014000Y-138742750I0J-243750D01*
G01*
X100014000Y-139230250D01*
G75*
G02*
X99770250Y-139474000I-243750J0D01*
G01*
X98857750Y-139474000D01*
G75*
G02*
X98614000Y-139230250I0J243750D01*
G01*
X98614000Y-138742750D01*
G75*
G02*
X98857750Y-138499000I243750J0D01*
G01*
G37*
G36*
G01*
X98857750Y-136624000D02*
X99770250Y-136624000D01*
G75*
G02*
X100014000Y-136867750I0J-243750D01*
G01*
X100014000Y-137355250D01*
G75*
G02*
X99770250Y-137599000I-243750J0D01*
G01*
X98857750Y-137599000D01*
G75*
G02*
X98614000Y-137355250I0J243750D01*
G01*
X98614000Y-136867750D01*
G75*
G02*
X98857750Y-136624000I243750J0D01*
G01*
G37*
G36*
G01*
X102159750Y-136624000D02*
X103072250Y-136624000D01*
G75*
G02*
X103316000Y-136867750I0J-243750D01*
G01*
X103316000Y-137355250D01*
G75*
G02*
X103072250Y-137599000I-243750J0D01*
G01*
X102159750Y-137599000D01*
G75*
G02*
X101916000Y-137355250I0J243750D01*
G01*
X101916000Y-136867750D01*
G75*
G02*
X102159750Y-136624000I243750J0D01*
G01*
G37*
G36*
G01*
X102159750Y-138499000D02*
X103072250Y-138499000D01*
G75*
G02*
X103316000Y-138742750I0J-243750D01*
G01*
X103316000Y-139230250D01*
G75*
G02*
X103072250Y-139474000I-243750J0D01*
G01*
X102159750Y-139474000D01*
G75*
G02*
X101916000Y-139230250I0J243750D01*
G01*
X101916000Y-138742750D01*
G75*
G02*
X102159750Y-138499000I243750J0D01*
G01*
G37*
G36*
G01*
X105461750Y-138499000D02*
X106374250Y-138499000D01*
G75*
G02*
X106618000Y-138742750I0J-243750D01*
G01*
X106618000Y-139230250D01*
G75*
G02*
X106374250Y-139474000I-243750J0D01*
G01*
X105461750Y-139474000D01*
G75*
G02*
X105218000Y-139230250I0J243750D01*
G01*
X105218000Y-138742750D01*
G75*
G02*
X105461750Y-138499000I243750J0D01*
G01*
G37*
G36*
G01*
X105461750Y-136624000D02*
X106374250Y-136624000D01*
G75*
G02*
X106618000Y-136867750I0J-243750D01*
G01*
X106618000Y-137355250D01*
G75*
G02*
X106374250Y-137599000I-243750J0D01*
G01*
X105461750Y-137599000D01*
G75*
G02*
X105218000Y-137355250I0J243750D01*
G01*
X105218000Y-136867750D01*
G75*
G02*
X105461750Y-136624000I243750J0D01*
G01*
G37*
G36*
G01*
X118502750Y-140998000D02*
X117590250Y-140998000D01*
G75*
G02*
X117346500Y-140754250I0J243750D01*
G01*
X117346500Y-140266750D01*
G75*
G02*
X117590250Y-140023000I243750J0D01*
G01*
X118502750Y-140023000D01*
G75*
G02*
X118746500Y-140266750I0J-243750D01*
G01*
X118746500Y-140754250D01*
G75*
G02*
X118502750Y-140998000I-243750J0D01*
G01*
G37*
G36*
G01*
X118502750Y-139123000D02*
X117590250Y-139123000D01*
G75*
G02*
X117346500Y-138879250I0J243750D01*
G01*
X117346500Y-138391750D01*
G75*
G02*
X117590250Y-138148000I243750J0D01*
G01*
X118502750Y-138148000D01*
G75*
G02*
X118746500Y-138391750I0J-243750D01*
G01*
X118746500Y-138879250D01*
G75*
G02*
X118502750Y-139123000I-243750J0D01*
G01*
G37*
G36*
G01*
X116407250Y-139123000D02*
X115494750Y-139123000D01*
G75*
G02*
X115251000Y-138879250I0J243750D01*
G01*
X115251000Y-138391750D01*
G75*
G02*
X115494750Y-138148000I243750J0D01*
G01*
X116407250Y-138148000D01*
G75*
G02*
X116651000Y-138391750I0J-243750D01*
G01*
X116651000Y-138879250D01*
G75*
G02*
X116407250Y-139123000I-243750J0D01*
G01*
G37*
G36*
G01*
X116407250Y-140998000D02*
X115494750Y-140998000D01*
G75*
G02*
X115251000Y-140754250I0J243750D01*
G01*
X115251000Y-140266750D01*
G75*
G02*
X115494750Y-140023000I243750J0D01*
G01*
X116407250Y-140023000D01*
G75*
G02*
X116651000Y-140266750I0J-243750D01*
G01*
X116651000Y-140754250D01*
G75*
G02*
X116407250Y-140998000I-243750J0D01*
G01*
G37*
M02*
