G04 #@! TF.GenerationSoftware,KiCad,Pcbnew,5.1.9*
G04 #@! TF.CreationDate,2021-04-13T21:33:03+08:00*
G04 #@! TF.ProjectId,digital-amplifier2,64696769-7461-46c2-9d61-6d706c696669,rev?*
G04 #@! TF.SameCoordinates,Original*
G04 #@! TF.FileFunction,Legend,Bot*
G04 #@! TF.FilePolarity,Positive*
%FSLAX46Y46*%
G04 Gerber Fmt 4.6, Leading zero omitted, Abs format (unit mm)*
G04 Created by KiCad (PCBNEW 5.1.9) date 2021-04-13 21:33:03*
%MOMM*%
%LPD*%
G01*
G04 APERTURE LIST*
%ADD10C,0.120000*%
%ADD11C,0.150000*%
G04 APERTURE END LIST*
D10*
X98579000Y-141343748D02*
X98579000Y-141866252D01*
X100049000Y-141343748D02*
X100049000Y-141866252D01*
X126750578Y-125401000D02*
X126233422Y-125401000D01*
X126750578Y-126821000D02*
X126233422Y-126821000D01*
X121464000Y-139768078D02*
X121464000Y-139250922D01*
X122884000Y-139768078D02*
X122884000Y-139250922D01*
X101906000Y-141346422D02*
X101906000Y-141863578D01*
X103326000Y-141346422D02*
X103326000Y-141863578D01*
X135711000Y-139831578D02*
X135711000Y-139314422D01*
X134291000Y-139831578D02*
X134291000Y-139314422D01*
X106628000Y-141346422D02*
X106628000Y-141863578D01*
X105208000Y-141346422D02*
X105208000Y-141863578D01*
X100024000Y-137790422D02*
X100024000Y-138307578D01*
X98604000Y-137790422D02*
X98604000Y-138307578D01*
X101906000Y-137790422D02*
X101906000Y-138307578D01*
X103326000Y-137790422D02*
X103326000Y-138307578D01*
X106628000Y-137790422D02*
X106628000Y-138307578D01*
X105208000Y-137790422D02*
X105208000Y-138307578D01*
X118756500Y-139831578D02*
X118756500Y-139314422D01*
X117336500Y-139831578D02*
X117336500Y-139314422D01*
X115241000Y-139831578D02*
X115241000Y-139314422D01*
X116661000Y-139831578D02*
X116661000Y-139314422D01*
D11*
X97991142Y-140962142D02*
X98038761Y-140914523D01*
X98086380Y-140771666D01*
X98086380Y-140676428D01*
X98038761Y-140533571D01*
X97943523Y-140438333D01*
X97848285Y-140390714D01*
X97657809Y-140343095D01*
X97514952Y-140343095D01*
X97324476Y-140390714D01*
X97229238Y-140438333D01*
X97134000Y-140533571D01*
X97086380Y-140676428D01*
X97086380Y-140771666D01*
X97134000Y-140914523D01*
X97181619Y-140962142D01*
X98086380Y-141914523D02*
X98086380Y-141343095D01*
X98086380Y-141628809D02*
X97086380Y-141628809D01*
X97229238Y-141533571D01*
X97324476Y-141438333D01*
X97372095Y-141343095D01*
X97181619Y-142295476D02*
X97134000Y-142343095D01*
X97086380Y-142438333D01*
X97086380Y-142676428D01*
X97134000Y-142771666D01*
X97181619Y-142819285D01*
X97276857Y-142866904D01*
X97372095Y-142866904D01*
X97514952Y-142819285D01*
X98086380Y-142247857D01*
X98086380Y-142866904D01*
X127134857Y-124818142D02*
X127182476Y-124865761D01*
X127325333Y-124913380D01*
X127420571Y-124913380D01*
X127563428Y-124865761D01*
X127658666Y-124770523D01*
X127706285Y-124675285D01*
X127753904Y-124484809D01*
X127753904Y-124341952D01*
X127706285Y-124151476D01*
X127658666Y-124056238D01*
X127563428Y-123961000D01*
X127420571Y-123913380D01*
X127325333Y-123913380D01*
X127182476Y-123961000D01*
X127134857Y-124008619D01*
X126230095Y-123913380D02*
X126706285Y-123913380D01*
X126753904Y-124389571D01*
X126706285Y-124341952D01*
X126611047Y-124294333D01*
X126372952Y-124294333D01*
X126277714Y-124341952D01*
X126230095Y-124389571D01*
X126182476Y-124484809D01*
X126182476Y-124722904D01*
X126230095Y-124818142D01*
X126277714Y-124865761D01*
X126372952Y-124913380D01*
X126611047Y-124913380D01*
X126706285Y-124865761D01*
X126753904Y-124818142D01*
X125611047Y-124341952D02*
X125706285Y-124294333D01*
X125753904Y-124246714D01*
X125801523Y-124151476D01*
X125801523Y-124103857D01*
X125753904Y-124008619D01*
X125706285Y-123961000D01*
X125611047Y-123913380D01*
X125420571Y-123913380D01*
X125325333Y-123961000D01*
X125277714Y-124008619D01*
X125230095Y-124103857D01*
X125230095Y-124151476D01*
X125277714Y-124246714D01*
X125325333Y-124294333D01*
X125420571Y-124341952D01*
X125611047Y-124341952D01*
X125706285Y-124389571D01*
X125753904Y-124437190D01*
X125801523Y-124532428D01*
X125801523Y-124722904D01*
X125753904Y-124818142D01*
X125706285Y-124865761D01*
X125611047Y-124913380D01*
X125420571Y-124913380D01*
X125325333Y-124865761D01*
X125277714Y-124818142D01*
X125230095Y-124722904D01*
X125230095Y-124532428D01*
X125277714Y-124437190D01*
X125325333Y-124389571D01*
X125420571Y-124341952D01*
X122689880Y-135818642D02*
X122213690Y-135485309D01*
X122689880Y-135247214D02*
X121689880Y-135247214D01*
X121689880Y-135628166D01*
X121737500Y-135723404D01*
X121785119Y-135771023D01*
X121880357Y-135818642D01*
X122023214Y-135818642D01*
X122118452Y-135771023D01*
X122166071Y-135723404D01*
X122213690Y-135628166D01*
X122213690Y-135247214D01*
X122689880Y-136771023D02*
X122689880Y-136199595D01*
X122689880Y-136485309D02*
X121689880Y-136485309D01*
X121832738Y-136390071D01*
X121927976Y-136294833D01*
X121975595Y-136199595D01*
X121689880Y-137104357D02*
X121689880Y-137771023D01*
X122689880Y-137342452D01*
X102846142Y-137787142D02*
X102893761Y-137739523D01*
X102941380Y-137596666D01*
X102941380Y-137501428D01*
X102893761Y-137358571D01*
X102798523Y-137263333D01*
X102703285Y-137215714D01*
X102512809Y-137168095D01*
X102369952Y-137168095D01*
X102179476Y-137215714D01*
X102084238Y-137263333D01*
X101989000Y-137358571D01*
X101941380Y-137501428D01*
X101941380Y-137596666D01*
X101989000Y-137739523D01*
X102036619Y-137787142D01*
X102941380Y-138739523D02*
X102941380Y-138168095D01*
X102941380Y-138453809D02*
X101941380Y-138453809D01*
X102084238Y-138358571D01*
X102179476Y-138263333D01*
X102227095Y-138168095D01*
X101941380Y-139072857D02*
X101941380Y-139691904D01*
X102322333Y-139358571D01*
X102322333Y-139501428D01*
X102369952Y-139596666D01*
X102417571Y-139644285D01*
X102512809Y-139691904D01*
X102750904Y-139691904D01*
X102846142Y-139644285D01*
X102893761Y-139596666D01*
X102941380Y-139501428D01*
X102941380Y-139215714D01*
X102893761Y-139120476D01*
X102846142Y-139072857D01*
X135358142Y-142105142D02*
X135405761Y-142057523D01*
X135453380Y-141914666D01*
X135453380Y-141819428D01*
X135405761Y-141676571D01*
X135310523Y-141581333D01*
X135215285Y-141533714D01*
X135024809Y-141486095D01*
X134881952Y-141486095D01*
X134691476Y-141533714D01*
X134596238Y-141581333D01*
X134501000Y-141676571D01*
X134453380Y-141819428D01*
X134453380Y-141914666D01*
X134501000Y-142057523D01*
X134548619Y-142105142D01*
X135453380Y-143057523D02*
X135453380Y-142486095D01*
X135453380Y-142771809D02*
X134453380Y-142771809D01*
X134596238Y-142676571D01*
X134691476Y-142581333D01*
X134739095Y-142486095D01*
X134453380Y-143962285D02*
X134453380Y-143486095D01*
X134929571Y-143438476D01*
X134881952Y-143486095D01*
X134834333Y-143581333D01*
X134834333Y-143819428D01*
X134881952Y-143914666D01*
X134929571Y-143962285D01*
X135024809Y-144009904D01*
X135262904Y-144009904D01*
X135358142Y-143962285D01*
X135405761Y-143914666D01*
X135453380Y-143819428D01*
X135453380Y-143581333D01*
X135405761Y-143486095D01*
X135358142Y-143438476D01*
X106402142Y-137787142D02*
X106449761Y-137739523D01*
X106497380Y-137596666D01*
X106497380Y-137501428D01*
X106449761Y-137358571D01*
X106354523Y-137263333D01*
X106259285Y-137215714D01*
X106068809Y-137168095D01*
X105925952Y-137168095D01*
X105735476Y-137215714D01*
X105640238Y-137263333D01*
X105545000Y-137358571D01*
X105497380Y-137501428D01*
X105497380Y-137596666D01*
X105545000Y-137739523D01*
X105592619Y-137787142D01*
X106497380Y-138739523D02*
X106497380Y-138168095D01*
X106497380Y-138453809D02*
X105497380Y-138453809D01*
X105640238Y-138358571D01*
X105735476Y-138263333D01*
X105783095Y-138168095D01*
X105830714Y-139596666D02*
X106497380Y-139596666D01*
X105449761Y-139358571D02*
X106164047Y-139120476D01*
X106164047Y-139739523D01*
X99766380Y-140835142D02*
X99290190Y-140501809D01*
X99766380Y-140263714D02*
X98766380Y-140263714D01*
X98766380Y-140644666D01*
X98814000Y-140739904D01*
X98861619Y-140787523D01*
X98956857Y-140835142D01*
X99099714Y-140835142D01*
X99194952Y-140787523D01*
X99242571Y-140739904D01*
X99290190Y-140644666D01*
X99290190Y-140263714D01*
X99766380Y-141787523D02*
X99766380Y-141216095D01*
X99766380Y-141501809D02*
X98766380Y-141501809D01*
X98909238Y-141406571D01*
X99004476Y-141311333D01*
X99052095Y-141216095D01*
X98861619Y-142168476D02*
X98814000Y-142216095D01*
X98766380Y-142311333D01*
X98766380Y-142549428D01*
X98814000Y-142644666D01*
X98861619Y-142692285D01*
X98956857Y-142739904D01*
X99052095Y-142739904D01*
X99194952Y-142692285D01*
X99766380Y-142120857D01*
X99766380Y-142739904D01*
X102941380Y-134231142D02*
X102465190Y-133897809D01*
X102941380Y-133659714D02*
X101941380Y-133659714D01*
X101941380Y-134040666D01*
X101989000Y-134135904D01*
X102036619Y-134183523D01*
X102131857Y-134231142D01*
X102274714Y-134231142D01*
X102369952Y-134183523D01*
X102417571Y-134135904D01*
X102465190Y-134040666D01*
X102465190Y-133659714D01*
X102941380Y-135183523D02*
X102941380Y-134612095D01*
X102941380Y-134897809D02*
X101941380Y-134897809D01*
X102084238Y-134802571D01*
X102179476Y-134707333D01*
X102227095Y-134612095D01*
X101941380Y-135516857D02*
X101941380Y-136135904D01*
X102322333Y-135802571D01*
X102322333Y-135945428D01*
X102369952Y-136040666D01*
X102417571Y-136088285D01*
X102512809Y-136135904D01*
X102750904Y-136135904D01*
X102846142Y-136088285D01*
X102893761Y-136040666D01*
X102941380Y-135945428D01*
X102941380Y-135659714D01*
X102893761Y-135564476D01*
X102846142Y-135516857D01*
X106141780Y-140682742D02*
X105665590Y-140349409D01*
X106141780Y-140111314D02*
X105141780Y-140111314D01*
X105141780Y-140492266D01*
X105189400Y-140587504D01*
X105237019Y-140635123D01*
X105332257Y-140682742D01*
X105475114Y-140682742D01*
X105570352Y-140635123D01*
X105617971Y-140587504D01*
X105665590Y-140492266D01*
X105665590Y-140111314D01*
X106141780Y-141635123D02*
X106141780Y-141063695D01*
X106141780Y-141349409D02*
X105141780Y-141349409D01*
X105284638Y-141254171D01*
X105379876Y-141158933D01*
X105427495Y-141063695D01*
X105475114Y-142492266D02*
X106141780Y-142492266D01*
X105094161Y-142254171D02*
X105808447Y-142016076D01*
X105808447Y-142635123D01*
X116619280Y-138726942D02*
X116143090Y-138393609D01*
X116619280Y-138155514D02*
X115619280Y-138155514D01*
X115619280Y-138536466D01*
X115666900Y-138631704D01*
X115714519Y-138679323D01*
X115809757Y-138726942D01*
X115952614Y-138726942D01*
X116047852Y-138679323D01*
X116095471Y-138631704D01*
X116143090Y-138536466D01*
X116143090Y-138155514D01*
X116619280Y-139679323D02*
X116619280Y-139107895D01*
X116619280Y-139393609D02*
X115619280Y-139393609D01*
X115762138Y-139298371D01*
X115857376Y-139203133D01*
X115904995Y-139107895D01*
X115619280Y-140584085D02*
X115619280Y-140107895D01*
X116095471Y-140060276D01*
X116047852Y-140107895D01*
X116000233Y-140203133D01*
X116000233Y-140441228D01*
X116047852Y-140536466D01*
X116095471Y-140584085D01*
X116190709Y-140631704D01*
X116428804Y-140631704D01*
X116524042Y-140584085D01*
X116571661Y-140536466D01*
X116619280Y-140441228D01*
X116619280Y-140203133D01*
X116571661Y-140107895D01*
X116524042Y-140060276D01*
X116276380Y-135691642D02*
X115800190Y-135358309D01*
X116276380Y-135120214D02*
X115276380Y-135120214D01*
X115276380Y-135501166D01*
X115324000Y-135596404D01*
X115371619Y-135644023D01*
X115466857Y-135691642D01*
X115609714Y-135691642D01*
X115704952Y-135644023D01*
X115752571Y-135596404D01*
X115800190Y-135501166D01*
X115800190Y-135120214D01*
X116276380Y-136644023D02*
X116276380Y-136072595D01*
X116276380Y-136358309D02*
X115276380Y-136358309D01*
X115419238Y-136263071D01*
X115514476Y-136167833D01*
X115562095Y-136072595D01*
X115276380Y-137501166D02*
X115276380Y-137310690D01*
X115324000Y-137215452D01*
X115371619Y-137167833D01*
X115514476Y-137072595D01*
X115704952Y-137024976D01*
X116085904Y-137024976D01*
X116181142Y-137072595D01*
X116228761Y-137120214D01*
X116276380Y-137215452D01*
X116276380Y-137405928D01*
X116228761Y-137501166D01*
X116181142Y-137548785D01*
X116085904Y-137596404D01*
X115847809Y-137596404D01*
X115752571Y-137548785D01*
X115704952Y-137501166D01*
X115657333Y-137405928D01*
X115657333Y-137215452D01*
X115704952Y-137120214D01*
X115752571Y-137072595D01*
X115847809Y-137024976D01*
M02*
